<svg xmlns="http://www.w3.org/2000/svg" version="1.1" width="963" height="469"><g><g><polygon points="57,0 114,78.6746400823874 57,157.3492801647748 0,78.6746400823874" fill="rgb(143, 149, 143)" transform="translate(-61.3572621355665, -157.2726496737503)"></polygon><polygon points="57,0 114,78.6746400823874 57,157.3492801647748 0,78.6746400823874" fill="rgb(99, 129, 70)" transform="translate(52.6427378644335, -157.2726496737503)"></polygon><polygon points="57,0 114,78.6746400823874 57,157.3492801647748 0,78.6746400823874" fill="rgb(143, 149, 143)" transform="translate(166.6427378644335, -157.2726496737503)"></polygon><polygon points="57,0 114,78.6746400823874 57,157.3492801647748 0,78.6746400823874" fill="rgb(99, 129, 70)" transform="translate(280.6427378644335, -157.2726496737503)"></polygon><polygon points="57,0 114,78.6746400823874 57,157.3492801647748 0,78.6746400823874" fill="rgb(143, 149, 143)" transform="translate(394.6427378644335, -157.2726496737503)"></polygon><polygon points="57,0 114,78.6746400823874 57,157.3492801647748 0,78.6746400823874" fill="rgb(99, 129, 70)" transform="translate(508.6427378644335, -157.2726496737503)"></polygon><polygon points="57,0 114,78.6746400823874 57,157.3492801647748 0,78.6746400823874" fill="rgb(143, 149, 143)" transform="translate(622.6427378644335, -157.2726496737503)"></polygon><polygon points="57,0 114,78.6746400823874 57,157.3492801647748 0,78.6746400823874" fill="rgb(99, 129, 70)" transform="translate(736.6427378644335, -157.2726496737503)"></polygon><polygon points="57,0 114,78.6746400823874 57,157.3492801647748 0,78.6746400823874" fill="rgb(143, 149, 143)" transform="translate(850.6427378644335, -157.2726496737503)"></polygon><polygon points="57,0 114,78.6746400823874 57,157.3492801647748 0,78.6746400823874" fill="rgb(99, 129, 70)" transform="translate(964.6427378644335, -157.2726496737503)"></polygon><polygon points="57,0 114,78.6746400823874 57,157.3492801647748 0,78.6746400823874" fill="rgb(143, 149, 143)" transform="translate(1078.6427378644335, -157.2726496737503)"></polygon><polygon points="57,0 114,78.6746400823874 57,157.3492801647748 0,78.6746400823874" fill="rgb(99, 129, 70)" transform="translate(1192.6427378644335, -157.2726496737503)"></polygon><polygon points="57,0 114,78.6746400823874 57,157.3492801647748 0,78.6746400823874" fill="rgb(215, 235, 226)" transform="translate(-118.3572621355665, -78.5980095913629)"></polygon><polygon points="57,0 114,78.6746400823874 57,157.3492801647748 0,78.6746400823874" fill="rgb(215, 235, 226)" transform="translate(-4.357262135566501, -78.5980095913629)"></polygon><polygon points="57,0 114,78.6746400823874 57,157.3492801647748 0,78.6746400823874" fill="rgb(215, 235, 226)" transform="translate(109.6427378644335, -78.5980095913629)"></polygon><polygon points="57,0 114,78.6746400823874 57,157.3492801647748 0,78.6746400823874" fill="rgb(215, 235, 226)" transform="translate(223.6427378644335, -78.5980095913629)"></polygon><polygon points="57,0 114,78.6746400823874 57,157.3492801647748 0,78.6746400823874" fill="rgb(215, 235, 226)" transform="translate(337.6427378644335, -78.5980095913629)"></polygon><polygon points="57,0 114,78.6746400823874 57,157.3492801647748 0,78.6746400823874" fill="rgb(215, 235, 226)" transform="translate(451.6427378644335, -78.5980095913629)"></polygon><polygon points="57,0 114,78.6746400823874 57,157.3492801647748 0,78.6746400823874" fill="rgb(215, 235, 226)" transform="translate(565.6427378644335, -78.5980095913629)"></polygon><polygon points="57,0 114,78.6746400823874 57,157.3492801647748 0,78.6746400823874" fill="rgb(215, 235, 226)" transform="translate(679.6427378644335, -78.5980095913629)"></polygon><polygon points="57,0 114,78.6746400823874 57,157.3492801647748 0,78.6746400823874" fill="rgb(215, 235, 226)" transform="translate(793.6427378644335, -78.5980095913629)"></polygon><polygon points="57,0 114,78.6746400823874 57,157.3492801647748 0,78.6746400823874" fill="rgb(215, 235, 226)" transform="translate(907.6427378644335, -78.5980095913629)"></polygon><polygon points="57,0 114,78.6746400823874 57,157.3492801647748 0,78.6746400823874" fill="rgb(215, 235, 226)" transform="translate(1021.6427378644335, -78.5980095913629)"></polygon><polygon points="57,0 114,78.6746400823874 57,157.3492801647748 0,78.6746400823874" fill="rgb(215, 235, 226)" transform="translate(1135.6427378644335, -78.5980095913629)"></polygon><polygon points="57,0 114,78.6746400823874 57,157.3492801647748 0,78.6746400823874" fill="rgb(99, 129, 70)" transform="translate(-61.3572621355665, 0.07663049102450259)"></polygon><polygon points="57,0 114,78.6746400823874 57,157.3492801647748 0,78.6746400823874" fill="rgb(143, 149, 143)" transform="translate(52.6427378644335, 0.07663049102450259)"></polygon><polygon points="57,0 114,78.6746400823874 57,157.3492801647748 0,78.6746400823874" fill="rgb(99, 129, 70)" transform="translate(166.6427378644335, 0.07663049102450259)"></polygon><polygon points="57,0 114,78.6746400823874 57,157.3492801647748 0,78.6746400823874" fill="rgb(143, 149, 143)" transform="translate(280.6427378644335, 0.07663049102450259)"></polygon><polygon points="57,0 114,78.6746400823874 57,157.3492801647748 0,78.6746400823874" fill="rgb(99, 129, 70)" transform="translate(394.6427378644335, 0.07663049102450259)"></polygon><polygon points="57,0 114,78.6746400823874 57,157.3492801647748 0,78.6746400823874" fill="rgb(143, 149, 143)" transform="translate(508.6427378644335, 0.07663049102450259)"></polygon><polygon points="57,0 114,78.6746400823874 57,157.3492801647748 0,78.6746400823874" fill="rgb(99, 129, 70)" transform="translate(622.6427378644335, 0.07663049102450259)"></polygon><polygon points="57,0 114,78.6746400823874 57,157.3492801647748 0,78.6746400823874" fill="rgb(143, 149, 143)" transform="translate(736.6427378644335, 0.07663049102450259)"></polygon><polygon points="57,0 114,78.6746400823874 57,157.3492801647748 0,78.6746400823874" fill="rgb(99, 129, 70)" transform="translate(850.6427378644335, 0.07663049102450259)"></polygon><polygon points="57,0 114,78.6746400823874 57,157.3492801647748 0,78.6746400823874" fill="rgb(143, 149, 143)" transform="translate(964.6427378644335, 0.07663049102450259)"></polygon><polygon points="57,0 114,78.6746400823874 57,157.3492801647748 0,78.6746400823874" fill="rgb(99, 129, 70)" transform="translate(1078.6427378644335, 0.07663049102450259)"></polygon><polygon points="57,0 114,78.6746400823874 57,157.3492801647748 0,78.6746400823874" fill="rgb(143, 149, 143)" transform="translate(1192.6427378644335, 0.07663049102450259)"></polygon><polygon points="57,0 114,78.6746400823874 57,157.3492801647748 0,78.6746400823874" fill="rgb(215, 235, 226)" transform="translate(-118.3572621355665, 78.7512705734119)"></polygon><polygon points="57,0 114,78.6746400823874 57,157.3492801647748 0,78.6746400823874" fill="rgb(215, 235, 226)" transform="translate(-4.357262135566501, 78.7512705734119)"></polygon><polygon points="57,0 114,78.6746400823874 57,157.3492801647748 0,78.6746400823874" fill="rgb(215, 235, 226)" transform="translate(109.6427378644335, 78.7512705734119)"></polygon><polygon points="57,0 114,78.6746400823874 57,157.3492801647748 0,78.6746400823874" fill="rgb(215, 235, 226)" transform="translate(223.6427378644335, 78.7512705734119)"></polygon><polygon points="57,0 114,78.6746400823874 57,157.3492801647748 0,78.6746400823874" fill="rgb(215, 235, 226)" transform="translate(337.6427378644335, 78.7512705734119)"></polygon><polygon points="57,0 114,78.6746400823874 57,157.3492801647748 0,78.6746400823874" fill="rgb(215, 235, 226)" transform="translate(451.6427378644335, 78.7512705734119)"></polygon><polygon points="57,0 114,78.6746400823874 57,157.3492801647748 0,78.6746400823874" fill="rgb(215, 235, 226)" transform="translate(565.6427378644335, 78.7512705734119)"></polygon><polygon points="57,0 114,78.6746400823874 57,157.3492801647748 0,78.6746400823874" fill="rgb(215, 235, 226)" transform="translate(679.6427378644335, 78.7512705734119)"></polygon><polygon points="57,0 114,78.6746400823874 57,157.3492801647748 0,78.6746400823874" fill="rgb(215, 235, 226)" transform="translate(793.6427378644335, 78.7512705734119)"></polygon><polygon points="57,0 114,78.6746400823874 57,157.3492801647748 0,78.6746400823874" fill="rgb(215, 235, 226)" transform="translate(907.6427378644335, 78.7512705734119)"></polygon><polygon points="57,0 114,78.6746400823874 57,157.3492801647748 0,78.6746400823874" fill="rgb(215, 235, 226)" transform="translate(1021.6427378644335, 78.7512705734119)"></polygon><polygon points="57,0 114,78.6746400823874 57,157.3492801647748 0,78.6746400823874" fill="rgb(215, 235, 226)" transform="translate(1135.6427378644335, 78.7512705734119)"></polygon><polygon points="57,0 114,78.6746400823874 57,157.3492801647748 0,78.6746400823874" fill="rgb(143, 149, 143)" transform="translate(-61.3572621355665, 157.42591065579933)"></polygon><polygon points="57,0 114,78.6746400823874 57,157.3492801647748 0,78.6746400823874" fill="rgb(99, 129, 70)" transform="translate(52.6427378644335, 157.42591065579933)"></polygon><polygon points="57,0 114,78.6746400823874 57,157.3492801647748 0,78.6746400823874" fill="rgb(143, 149, 143)" transform="translate(166.6427378644335, 157.42591065579933)"></polygon><polygon points="57,0 114,78.6746400823874 57,157.3492801647748 0,78.6746400823874" fill="rgb(99, 129, 70)" transform="translate(280.6427378644335, 157.42591065579933)"></polygon><polygon points="57,0 114,78.6746400823874 57,157.3492801647748 0,78.6746400823874" fill="rgb(143, 149, 143)" transform="translate(394.6427378644335, 157.42591065579933)"></polygon><polygon points="57,0 114,78.6746400823874 57,157.3492801647748 0,78.6746400823874" fill="rgb(99, 129, 70)" transform="translate(508.6427378644335, 157.42591065579933)"></polygon><polygon points="57,0 114,78.6746400823874 57,157.3492801647748 0,78.6746400823874" fill="rgb(143, 149, 143)" transform="translate(622.6427378644335, 157.42591065579933)"></polygon><polygon points="57,0 114,78.6746400823874 57,157.3492801647748 0,78.6746400823874" fill="rgb(99, 129, 70)" transform="translate(736.6427378644335, 157.42591065579933)"></polygon><polygon points="57,0 114,78.6746400823874 57,157.3492801647748 0,78.6746400823874" fill="rgb(143, 149, 143)" transform="translate(850.6427378644335, 157.42591065579933)"></polygon><polygon points="57,0 114,78.6746400823874 57,157.3492801647748 0,78.6746400823874" fill="rgb(99, 129, 70)" transform="translate(964.6427378644335, 157.42591065579933)"></polygon><polygon points="57,0 114,78.6746400823874 57,157.3492801647748 0,78.6746400823874" fill="rgb(143, 149, 143)" transform="translate(1078.6427378644335, 157.42591065579933)"></polygon><polygon points="57,0 114,78.6746400823874 57,157.3492801647748 0,78.6746400823874" fill="rgb(99, 129, 70)" transform="translate(1192.6427378644335, 157.42591065579933)"></polygon><polygon points="57,0 114,78.6746400823874 57,157.3492801647748 0,78.6746400823874" fill="rgb(215, 235, 226)" transform="translate(-118.3572621355665, 236.1005507381867)"></polygon><polygon points="57,0 114,78.6746400823874 57,157.3492801647748 0,78.6746400823874" fill="rgb(215, 235, 226)" transform="translate(-4.357262135566501, 236.1005507381867)"></polygon><polygon points="57,0 114,78.6746400823874 57,157.3492801647748 0,78.6746400823874" fill="rgb(215, 235, 226)" transform="translate(109.6427378644335, 236.1005507381867)"></polygon><polygon points="57,0 114,78.6746400823874 57,157.3492801647748 0,78.6746400823874" fill="rgb(215, 235, 226)" transform="translate(223.6427378644335, 236.1005507381867)"></polygon><polygon points="57,0 114,78.6746400823874 57,157.3492801647748 0,78.6746400823874" fill="rgb(215, 235, 226)" transform="translate(337.6427378644335, 236.1005507381867)"></polygon><polygon points="57,0 114,78.6746400823874 57,157.3492801647748 0,78.6746400823874" fill="rgb(215, 235, 226)" transform="translate(451.6427378644335, 236.1005507381867)"></polygon><polygon points="57,0 114,78.6746400823874 57,157.3492801647748 0,78.6746400823874" fill="rgb(215, 235, 226)" transform="translate(565.6427378644335, 236.1005507381867)"></polygon><polygon points="57,0 114,78.6746400823874 57,157.3492801647748 0,78.6746400823874" fill="rgb(215, 235, 226)" transform="translate(679.6427378644335, 236.1005507381867)"></polygon><polygon points="57,0 114,78.6746400823874 57,157.3492801647748 0,78.6746400823874" fill="rgb(215, 235, 226)" transform="translate(793.6427378644335, 236.1005507381867)"></polygon><polygon points="57,0 114,78.6746400823874 57,157.3492801647748 0,78.6746400823874" fill="rgb(215, 235, 226)" transform="translate(907.6427378644335, 236.1005507381867)"></polygon><polygon points="57,0 114,78.6746400823874 57,157.3492801647748 0,78.6746400823874" fill="rgb(215, 235, 226)" transform="translate(1021.6427378644335, 236.1005507381867)"></polygon><polygon points="57,0 114,78.6746400823874 57,157.3492801647748 0,78.6746400823874" fill="rgb(215, 235, 226)" transform="translate(1135.6427378644335, 236.1005507381867)"></polygon><polygon points="57,0 114,78.6746400823874 57,157.3492801647748 0,78.6746400823874" fill="rgb(99, 129, 70)" transform="translate(-61.3572621355665, 314.7751908205741)"></polygon><polygon points="57,0 114,78.6746400823874 57,157.3492801647748 0,78.6746400823874" fill="rgb(143, 149, 143)" transform="translate(52.6427378644335, 314.7751908205741)"></polygon><polygon points="57,0 114,78.6746400823874 57,157.3492801647748 0,78.6746400823874" fill="rgb(99, 129, 70)" transform="translate(166.6427378644335, 314.7751908205741)"></polygon><polygon points="57,0 114,78.6746400823874 57,157.3492801647748 0,78.6746400823874" fill="rgb(143, 149, 143)" transform="translate(280.6427378644335, 314.7751908205741)"></polygon><polygon points="57,0 114,78.6746400823874 57,157.3492801647748 0,78.6746400823874" fill="rgb(99, 129, 70)" transform="translate(394.6427378644335, 314.7751908205741)"></polygon><polygon points="57,0 114,78.6746400823874 57,157.3492801647748 0,78.6746400823874" fill="rgb(143, 149, 143)" transform="translate(508.6427378644335, 314.7751908205741)"></polygon><polygon points="57,0 114,78.6746400823874 57,157.3492801647748 0,78.6746400823874" fill="rgb(99, 129, 70)" transform="translate(622.6427378644335, 314.7751908205741)"></polygon><polygon points="57,0 114,78.6746400823874 57,157.3492801647748 0,78.6746400823874" fill="rgb(143, 149, 143)" transform="translate(736.6427378644335, 314.7751908205741)"></polygon><polygon points="57,0 114,78.6746400823874 57,157.3492801647748 0,78.6746400823874" fill="rgb(99, 129, 70)" transform="translate(850.6427378644335, 314.7751908205741)"></polygon><polygon points="57,0 114,78.6746400823874 57,157.3492801647748 0,78.6746400823874" fill="rgb(143, 149, 143)" transform="translate(964.6427378644335, 314.7751908205741)"></polygon><polygon points="57,0 114,78.6746400823874 57,157.3492801647748 0,78.6746400823874" fill="rgb(99, 129, 70)" transform="translate(1078.6427378644335, 314.7751908205741)"></polygon><polygon points="57,0 114,78.6746400823874 57,157.3492801647748 0,78.6746400823874" fill="rgb(143, 149, 143)" transform="translate(1192.6427378644335, 314.7751908205741)"></polygon><polygon points="57,0 114,78.6746400823874 57,157.3492801647748 0,78.6746400823874" fill="rgb(215, 235, 226)" transform="translate(-118.3572621355665, 393.44983090296154)"></polygon><polygon points="57,0 114,78.6746400823874 57,157.3492801647748 0,78.6746400823874" fill="rgb(215, 235, 226)" transform="translate(-4.357262135566501, 393.44983090296154)"></polygon><polygon points="57,0 114,78.6746400823874 57,157.3492801647748 0,78.6746400823874" fill="rgb(215, 235, 226)" transform="translate(109.6427378644335, 393.44983090296154)"></polygon><polygon points="57,0 114,78.6746400823874 57,157.3492801647748 0,78.6746400823874" fill="rgb(215, 235, 226)" transform="translate(223.6427378644335, 393.44983090296154)"></polygon><polygon points="57,0 114,78.6746400823874 57,157.3492801647748 0,78.6746400823874" fill="rgb(215, 235, 226)" transform="translate(337.6427378644335, 393.44983090296154)"></polygon><polygon points="57,0 114,78.6746400823874 57,157.3492801647748 0,78.6746400823874" fill="rgb(215, 235, 226)" transform="translate(451.6427378644335, 393.44983090296154)"></polygon><polygon points="57,0 114,78.6746400823874 57,157.3492801647748 0,78.6746400823874" fill="rgb(215, 235, 226)" transform="translate(565.6427378644335, 393.44983090296154)"></polygon><polygon points="57,0 114,78.6746400823874 57,157.3492801647748 0,78.6746400823874" fill="rgb(215, 235, 226)" transform="translate(679.6427378644335, 393.44983090296154)"></polygon><polygon points="57,0 114,78.6746400823874 57,157.3492801647748 0,78.6746400823874" fill="rgb(215, 235, 226)" transform="translate(793.6427378644335, 393.44983090296154)"></polygon><polygon points="57,0 114,78.6746400823874 57,157.3492801647748 0,78.6746400823874" fill="rgb(215, 235, 226)" transform="translate(907.6427378644335, 393.44983090296154)"></polygon><polygon points="57,0 114,78.6746400823874 57,157.3492801647748 0,78.6746400823874" fill="rgb(215, 235, 226)" transform="translate(1021.6427378644335, 393.44983090296154)"></polygon><polygon points="57,0 114,78.6746400823874 57,157.3492801647748 0,78.6746400823874" fill="rgb(215, 235, 226)" transform="translate(1135.6427378644335, 393.44983090296154)"></polygon><polygon points="57,0 114,78.6746400823874 57,157.3492801647748 0,78.6746400823874" fill="rgb(143, 149, 143)" transform="translate(-61.3572621355665, 472.12447098534886)"></polygon><polygon points="57,0 114,78.6746400823874 57,157.3492801647748 0,78.6746400823874" fill="rgb(99, 129, 70)" transform="translate(52.6427378644335, 472.12447098534886)"></polygon><polygon points="57,0 114,78.6746400823874 57,157.3492801647748 0,78.6746400823874" fill="rgb(143, 149, 143)" transform="translate(166.6427378644335, 472.12447098534886)"></polygon><polygon points="57,0 114,78.6746400823874 57,157.3492801647748 0,78.6746400823874" fill="rgb(99, 129, 70)" transform="translate(280.6427378644335, 472.12447098534886)"></polygon><polygon points="57,0 114,78.6746400823874 57,157.3492801647748 0,78.6746400823874" fill="rgb(143, 149, 143)" transform="translate(394.6427378644335, 472.12447098534886)"></polygon><polygon points="57,0 114,78.6746400823874 57,157.3492801647748 0,78.6746400823874" fill="rgb(99, 129, 70)" transform="translate(508.6427378644335, 472.12447098534886)"></polygon><polygon points="57,0 114,78.6746400823874 57,157.3492801647748 0,78.6746400823874" fill="rgb(143, 149, 143)" transform="translate(622.6427378644335, 472.12447098534886)"></polygon><polygon points="57,0 114,78.6746400823874 57,157.3492801647748 0,78.6746400823874" fill="rgb(99, 129, 70)" transform="translate(736.6427378644335, 472.12447098534886)"></polygon><polygon points="57,0 114,78.6746400823874 57,157.3492801647748 0,78.6746400823874" fill="rgb(143, 149, 143)" transform="translate(850.6427378644335, 472.12447098534886)"></polygon><polygon points="57,0 114,78.6746400823874 57,157.3492801647748 0,78.6746400823874" fill="rgb(99, 129, 70)" transform="translate(964.6427378644335, 472.12447098534886)"></polygon><polygon points="57,0 114,78.6746400823874 57,157.3492801647748 0,78.6746400823874" fill="rgb(143, 149, 143)" transform="translate(1078.6427378644335, 472.12447098534886)"></polygon><polygon points="57,0 114,78.6746400823874 57,157.3492801647748 0,78.6746400823874" fill="rgb(99, 129, 70)" transform="translate(1192.6427378644335, 472.12447098534886)"></polygon></g><g><g><line stroke="rgb(166, 194, 123)" stroke-width="1.5" transform="translate(-61.3572621355665, -157.2726496737503)" stroke-dasharray="10, 5" x1="28.5" y1="39.3373200411937" x2="85.5" y2="118.0119601235811"></line><line stroke="rgb(166, 194, 123)" stroke-width="1.5" transform="translate(-61.3572621355665, -157.2726496737503)" stroke-dasharray="10, 5" x1="85.5" y1="39.3373200411937" x2="28.5" y2="118.0119601235811"></line></g><g><line stroke="rgb(166, 194, 123)" stroke-width="1.5" transform="translate(52.6427378644335, -157.2726496737503)" stroke-dasharray="10, 5" x1="28.5" y1="39.3373200411937" x2="85.5" y2="118.0119601235811"></line><line stroke="rgb(166, 194, 123)" stroke-width="1.5" transform="translate(52.6427378644335, -157.2726496737503)" stroke-dasharray="10, 5" x1="85.5" y1="39.3373200411937" x2="28.5" y2="118.0119601235811"></line></g><g><line stroke="rgb(166, 194, 123)" stroke-width="1.5" transform="translate(166.6427378644335, -157.2726496737503)" stroke-dasharray="10, 5" x1="28.5" y1="39.3373200411937" x2="85.5" y2="118.0119601235811"></line><line stroke="rgb(166, 194, 123)" stroke-width="1.5" transform="translate(166.6427378644335, -157.2726496737503)" stroke-dasharray="10, 5" x1="85.5" y1="39.3373200411937" x2="28.5" y2="118.0119601235811"></line></g><g><line stroke="rgb(166, 194, 123)" stroke-width="1.5" transform="translate(280.6427378644335, -157.2726496737503)" stroke-dasharray="10, 5" x1="28.5" y1="39.3373200411937" x2="85.5" y2="118.0119601235811"></line><line stroke="rgb(166, 194, 123)" stroke-width="1.5" transform="translate(280.6427378644335, -157.2726496737503)" stroke-dasharray="10, 5" x1="85.5" y1="39.3373200411937" x2="28.5" y2="118.0119601235811"></line></g><g><line stroke="rgb(166, 194, 123)" stroke-width="1.5" transform="translate(394.6427378644335, -157.2726496737503)" stroke-dasharray="10, 5" x1="28.5" y1="39.3373200411937" x2="85.5" y2="118.0119601235811"></line><line stroke="rgb(166, 194, 123)" stroke-width="1.5" transform="translate(394.6427378644335, -157.2726496737503)" stroke-dasharray="10, 5" x1="85.5" y1="39.3373200411937" x2="28.5" y2="118.0119601235811"></line></g><g><line stroke="rgb(166, 194, 123)" stroke-width="1.5" transform="translate(508.6427378644335, -157.2726496737503)" stroke-dasharray="10, 5" x1="28.5" y1="39.3373200411937" x2="85.5" y2="118.0119601235811"></line><line stroke="rgb(166, 194, 123)" stroke-width="1.5" transform="translate(508.6427378644335, -157.2726496737503)" stroke-dasharray="10, 5" x1="85.5" y1="39.3373200411937" x2="28.5" y2="118.0119601235811"></line></g><g><line stroke="rgb(166, 194, 123)" stroke-width="1.5" transform="translate(622.6427378644335, -157.2726496737503)" stroke-dasharray="10, 5" x1="28.5" y1="39.3373200411937" x2="85.5" y2="118.0119601235811"></line><line stroke="rgb(166, 194, 123)" stroke-width="1.5" transform="translate(622.6427378644335, -157.2726496737503)" stroke-dasharray="10, 5" x1="85.5" y1="39.3373200411937" x2="28.5" y2="118.0119601235811"></line></g><g><line stroke="rgb(166, 194, 123)" stroke-width="1.5" transform="translate(736.6427378644335, -157.2726496737503)" stroke-dasharray="10, 5" x1="28.5" y1="39.3373200411937" x2="85.5" y2="118.0119601235811"></line><line stroke="rgb(166, 194, 123)" stroke-width="1.5" transform="translate(736.6427378644335, -157.2726496737503)" stroke-dasharray="10, 5" x1="85.5" y1="39.3373200411937" x2="28.5" y2="118.0119601235811"></line></g><g><line stroke="rgb(166, 194, 123)" stroke-width="1.5" transform="translate(850.6427378644335, -157.2726496737503)" stroke-dasharray="10, 5" x1="28.5" y1="39.3373200411937" x2="85.5" y2="118.0119601235811"></line><line stroke="rgb(166, 194, 123)" stroke-width="1.5" transform="translate(850.6427378644335, -157.2726496737503)" stroke-dasharray="10, 5" x1="85.5" y1="39.3373200411937" x2="28.5" y2="118.0119601235811"></line></g><g><line stroke="rgb(166, 194, 123)" stroke-width="1.5" transform="translate(964.6427378644335, -157.2726496737503)" stroke-dasharray="10, 5" x1="28.5" y1="39.3373200411937" x2="85.5" y2="118.0119601235811"></line><line stroke="rgb(166, 194, 123)" stroke-width="1.5" transform="translate(964.6427378644335, -157.2726496737503)" stroke-dasharray="10, 5" x1="85.5" y1="39.3373200411937" x2="28.5" y2="118.0119601235811"></line></g><g><line stroke="rgb(166, 194, 123)" stroke-width="1.5" transform="translate(1078.6427378644335, -157.2726496737503)" stroke-dasharray="10, 5" x1="28.5" y1="39.3373200411937" x2="85.5" y2="118.0119601235811"></line><line stroke="rgb(166, 194, 123)" stroke-width="1.5" transform="translate(1078.6427378644335, -157.2726496737503)" stroke-dasharray="10, 5" x1="85.5" y1="39.3373200411937" x2="28.5" y2="118.0119601235811"></line></g><g><line stroke="rgb(166, 194, 123)" stroke-width="1.5" transform="translate(1192.6427378644335, -157.2726496737503)" stroke-dasharray="10, 5" x1="28.5" y1="39.3373200411937" x2="85.5" y2="118.0119601235811"></line><line stroke="rgb(166, 194, 123)" stroke-width="1.5" transform="translate(1192.6427378644335, -157.2726496737503)" stroke-dasharray="10, 5" x1="85.5" y1="39.3373200411937" x2="28.5" y2="118.0119601235811"></line></g><g><line stroke="rgb(166, 194, 123)" stroke-width="1.5" transform="translate(-118.3572621355665, -78.5980095913629)" stroke-dasharray="10, 5" x1="28.5" y1="39.3373200411937" x2="85.5" y2="118.0119601235811"></line><line stroke="rgb(166, 194, 123)" stroke-width="1.5" transform="translate(-118.3572621355665, -78.5980095913629)" stroke-dasharray="10, 5" x1="85.5" y1="39.3373200411937" x2="28.5" y2="118.0119601235811"></line></g><g><line stroke="rgb(166, 194, 123)" stroke-width="1.5" transform="translate(-4.357262135566501, -78.5980095913629)" stroke-dasharray="10, 5" x1="28.5" y1="39.3373200411937" x2="85.5" y2="118.0119601235811"></line><line stroke="rgb(166, 194, 123)" stroke-width="1.5" transform="translate(-4.357262135566501, -78.5980095913629)" stroke-dasharray="10, 5" x1="85.5" y1="39.3373200411937" x2="28.5" y2="118.0119601235811"></line></g><g><line stroke="rgb(166, 194, 123)" stroke-width="1.5" transform="translate(109.6427378644335, -78.5980095913629)" stroke-dasharray="10, 5" x1="28.5" y1="39.3373200411937" x2="85.5" y2="118.0119601235811"></line><line stroke="rgb(166, 194, 123)" stroke-width="1.5" transform="translate(109.6427378644335, -78.5980095913629)" stroke-dasharray="10, 5" x1="85.5" y1="39.3373200411937" x2="28.5" y2="118.0119601235811"></line></g><g><line stroke="rgb(166, 194, 123)" stroke-width="1.5" transform="translate(223.6427378644335, -78.5980095913629)" stroke-dasharray="10, 5" x1="28.5" y1="39.3373200411937" x2="85.5" y2="118.0119601235811"></line><line stroke="rgb(166, 194, 123)" stroke-width="1.5" transform="translate(223.6427378644335, -78.5980095913629)" stroke-dasharray="10, 5" x1="85.5" y1="39.3373200411937" x2="28.5" y2="118.0119601235811"></line></g><g><line stroke="rgb(166, 194, 123)" stroke-width="1.5" transform="translate(337.6427378644335, -78.5980095913629)" stroke-dasharray="10, 5" x1="28.5" y1="39.3373200411937" x2="85.5" y2="118.0119601235811"></line><line stroke="rgb(166, 194, 123)" stroke-width="1.5" transform="translate(337.6427378644335, -78.5980095913629)" stroke-dasharray="10, 5" x1="85.5" y1="39.3373200411937" x2="28.5" y2="118.0119601235811"></line></g><g><line stroke="rgb(166, 194, 123)" stroke-width="1.5" transform="translate(451.6427378644335, -78.5980095913629)" stroke-dasharray="10, 5" x1="28.5" y1="39.3373200411937" x2="85.5" y2="118.0119601235811"></line><line stroke="rgb(166, 194, 123)" stroke-width="1.5" transform="translate(451.6427378644335, -78.5980095913629)" stroke-dasharray="10, 5" x1="85.5" y1="39.3373200411937" x2="28.5" y2="118.0119601235811"></line></g><g><line stroke="rgb(166, 194, 123)" stroke-width="1.5" transform="translate(565.6427378644335, -78.5980095913629)" stroke-dasharray="10, 5" x1="28.5" y1="39.3373200411937" x2="85.5" y2="118.0119601235811"></line><line stroke="rgb(166, 194, 123)" stroke-width="1.5" transform="translate(565.6427378644335, -78.5980095913629)" stroke-dasharray="10, 5" x1="85.5" y1="39.3373200411937" x2="28.5" y2="118.0119601235811"></line></g><g><line stroke="rgb(166, 194, 123)" stroke-width="1.5" transform="translate(679.6427378644335, -78.5980095913629)" stroke-dasharray="10, 5" x1="28.5" y1="39.3373200411937" x2="85.5" y2="118.0119601235811"></line><line stroke="rgb(166, 194, 123)" stroke-width="1.5" transform="translate(679.6427378644335, -78.5980095913629)" stroke-dasharray="10, 5" x1="85.5" y1="39.3373200411937" x2="28.5" y2="118.0119601235811"></line></g><g><line stroke="rgb(166, 194, 123)" stroke-width="1.5" transform="translate(793.6427378644335, -78.5980095913629)" stroke-dasharray="10, 5" x1="28.5" y1="39.3373200411937" x2="85.5" y2="118.0119601235811"></line><line stroke="rgb(166, 194, 123)" stroke-width="1.5" transform="translate(793.6427378644335, -78.5980095913629)" stroke-dasharray="10, 5" x1="85.5" y1="39.3373200411937" x2="28.5" y2="118.0119601235811"></line></g><g><line stroke="rgb(166, 194, 123)" stroke-width="1.5" transform="translate(907.6427378644335, -78.5980095913629)" stroke-dasharray="10, 5" x1="28.5" y1="39.3373200411937" x2="85.5" y2="118.0119601235811"></line><line stroke="rgb(166, 194, 123)" stroke-width="1.5" transform="translate(907.6427378644335, -78.5980095913629)" stroke-dasharray="10, 5" x1="85.5" y1="39.3373200411937" x2="28.5" y2="118.0119601235811"></line></g><g><line stroke="rgb(166, 194, 123)" stroke-width="1.5" transform="translate(1021.6427378644335, -78.5980095913629)" stroke-dasharray="10, 5" x1="28.5" y1="39.3373200411937" x2="85.5" y2="118.0119601235811"></line><line stroke="rgb(166, 194, 123)" stroke-width="1.5" transform="translate(1021.6427378644335, -78.5980095913629)" stroke-dasharray="10, 5" x1="85.5" y1="39.3373200411937" x2="28.5" y2="118.0119601235811"></line></g><g><line stroke="rgb(166, 194, 123)" stroke-width="1.5" transform="translate(1135.6427378644335, -78.5980095913629)" stroke-dasharray="10, 5" x1="28.5" y1="39.3373200411937" x2="85.5" y2="118.0119601235811"></line><line stroke="rgb(166, 194, 123)" stroke-width="1.5" transform="translate(1135.6427378644335, -78.5980095913629)" stroke-dasharray="10, 5" x1="85.5" y1="39.3373200411937" x2="28.5" y2="118.0119601235811"></line></g><g><line stroke="rgb(166, 194, 123)" stroke-width="1.5" transform="translate(-61.3572621355665, 0.07663049102450259)" stroke-dasharray="10, 5" x1="28.5" y1="39.3373200411937" x2="85.5" y2="118.0119601235811"></line><line stroke="rgb(166, 194, 123)" stroke-width="1.5" transform="translate(-61.3572621355665, 0.07663049102450259)" stroke-dasharray="10, 5" x1="85.5" y1="39.3373200411937" x2="28.5" y2="118.0119601235811"></line></g><g><line stroke="rgb(166, 194, 123)" stroke-width="1.5" transform="translate(52.6427378644335, 0.07663049102450259)" stroke-dasharray="10, 5" x1="28.5" y1="39.3373200411937" x2="85.5" y2="118.0119601235811"></line><line stroke="rgb(166, 194, 123)" stroke-width="1.5" transform="translate(52.6427378644335, 0.07663049102450259)" stroke-dasharray="10, 5" x1="85.5" y1="39.3373200411937" x2="28.5" y2="118.0119601235811"></line></g><g><line stroke="rgb(166, 194, 123)" stroke-width="1.5" transform="translate(166.6427378644335, 0.07663049102450259)" stroke-dasharray="10, 5" x1="28.5" y1="39.3373200411937" x2="85.5" y2="118.0119601235811"></line><line stroke="rgb(166, 194, 123)" stroke-width="1.5" transform="translate(166.6427378644335, 0.07663049102450259)" stroke-dasharray="10, 5" x1="85.5" y1="39.3373200411937" x2="28.5" y2="118.0119601235811"></line></g><g><line stroke="rgb(166, 194, 123)" stroke-width="1.5" transform="translate(280.6427378644335, 0.07663049102450259)" stroke-dasharray="10, 5" x1="28.5" y1="39.3373200411937" x2="85.5" y2="118.0119601235811"></line><line stroke="rgb(166, 194, 123)" stroke-width="1.5" transform="translate(280.6427378644335, 0.07663049102450259)" stroke-dasharray="10, 5" x1="85.5" y1="39.3373200411937" x2="28.5" y2="118.0119601235811"></line></g><g><line stroke="rgb(166, 194, 123)" stroke-width="1.5" transform="translate(394.6427378644335, 0.07663049102450259)" stroke-dasharray="10, 5" x1="28.5" y1="39.3373200411937" x2="85.5" y2="118.0119601235811"></line><line stroke="rgb(166, 194, 123)" stroke-width="1.5" transform="translate(394.6427378644335, 0.07663049102450259)" stroke-dasharray="10, 5" x1="85.5" y1="39.3373200411937" x2="28.5" y2="118.0119601235811"></line></g><g><line stroke="rgb(166, 194, 123)" stroke-width="1.5" transform="translate(508.6427378644335, 0.07663049102450259)" stroke-dasharray="10, 5" x1="28.5" y1="39.3373200411937" x2="85.5" y2="118.0119601235811"></line><line stroke="rgb(166, 194, 123)" stroke-width="1.5" transform="translate(508.6427378644335, 0.07663049102450259)" stroke-dasharray="10, 5" x1="85.5" y1="39.3373200411937" x2="28.5" y2="118.0119601235811"></line></g><g><line stroke="rgb(166, 194, 123)" stroke-width="1.5" transform="translate(622.6427378644335, 0.07663049102450259)" stroke-dasharray="10, 5" x1="28.5" y1="39.3373200411937" x2="85.5" y2="118.0119601235811"></line><line stroke="rgb(166, 194, 123)" stroke-width="1.5" transform="translate(622.6427378644335, 0.07663049102450259)" stroke-dasharray="10, 5" x1="85.5" y1="39.3373200411937" x2="28.5" y2="118.0119601235811"></line></g><g><line stroke="rgb(166, 194, 123)" stroke-width="1.5" transform="translate(736.6427378644335, 0.07663049102450259)" stroke-dasharray="10, 5" x1="28.5" y1="39.3373200411937" x2="85.5" y2="118.0119601235811"></line><line stroke="rgb(166, 194, 123)" stroke-width="1.5" transform="translate(736.6427378644335, 0.07663049102450259)" stroke-dasharray="10, 5" x1="85.5" y1="39.3373200411937" x2="28.5" y2="118.0119601235811"></line></g><g><line stroke="rgb(166, 194, 123)" stroke-width="1.5" transform="translate(850.6427378644335, 0.07663049102450259)" stroke-dasharray="10, 5" x1="28.5" y1="39.3373200411937" x2="85.5" y2="118.0119601235811"></line><line stroke="rgb(166, 194, 123)" stroke-width="1.5" transform="translate(850.6427378644335, 0.07663049102450259)" stroke-dasharray="10, 5" x1="85.5" y1="39.3373200411937" x2="28.5" y2="118.0119601235811"></line></g><g><line stroke="rgb(166, 194, 123)" stroke-width="1.5" transform="translate(964.6427378644335, 0.07663049102450259)" stroke-dasharray="10, 5" x1="28.5" y1="39.3373200411937" x2="85.5" y2="118.0119601235811"></line><line stroke="rgb(166, 194, 123)" stroke-width="1.5" transform="translate(964.6427378644335, 0.07663049102450259)" stroke-dasharray="10, 5" x1="85.5" y1="39.3373200411937" x2="28.5" y2="118.0119601235811"></line></g><g><line stroke="rgb(166, 194, 123)" stroke-width="1.5" transform="translate(1078.6427378644335, 0.07663049102450259)" stroke-dasharray="10, 5" x1="28.5" y1="39.3373200411937" x2="85.5" y2="118.0119601235811"></line><line stroke="rgb(166, 194, 123)" stroke-width="1.5" transform="translate(1078.6427378644335, 0.07663049102450259)" stroke-dasharray="10, 5" x1="85.5" y1="39.3373200411937" x2="28.5" y2="118.0119601235811"></line></g><g><line stroke="rgb(166, 194, 123)" stroke-width="1.5" transform="translate(1192.6427378644335, 0.07663049102450259)" stroke-dasharray="10, 5" x1="28.5" y1="39.3373200411937" x2="85.5" y2="118.0119601235811"></line><line stroke="rgb(166, 194, 123)" stroke-width="1.5" transform="translate(1192.6427378644335, 0.07663049102450259)" stroke-dasharray="10, 5" x1="85.5" y1="39.3373200411937" x2="28.5" y2="118.0119601235811"></line></g><g><line stroke="rgb(166, 194, 123)" stroke-width="1.5" transform="translate(-118.3572621355665, 78.7512705734119)" stroke-dasharray="10, 5" x1="28.5" y1="39.3373200411937" x2="85.5" y2="118.0119601235811"></line><line stroke="rgb(166, 194, 123)" stroke-width="1.5" transform="translate(-118.3572621355665, 78.7512705734119)" stroke-dasharray="10, 5" x1="85.5" y1="39.3373200411937" x2="28.5" y2="118.0119601235811"></line></g><g><line stroke="rgb(166, 194, 123)" stroke-width="1.5" transform="translate(-4.357262135566501, 78.7512705734119)" stroke-dasharray="10, 5" x1="28.5" y1="39.3373200411937" x2="85.5" y2="118.0119601235811"></line><line stroke="rgb(166, 194, 123)" stroke-width="1.5" transform="translate(-4.357262135566501, 78.7512705734119)" stroke-dasharray="10, 5" x1="85.5" y1="39.3373200411937" x2="28.5" y2="118.0119601235811"></line></g><g><line stroke="rgb(166, 194, 123)" stroke-width="1.5" transform="translate(109.6427378644335, 78.7512705734119)" stroke-dasharray="10, 5" x1="28.5" y1="39.3373200411937" x2="85.5" y2="118.0119601235811"></line><line stroke="rgb(166, 194, 123)" stroke-width="1.5" transform="translate(109.6427378644335, 78.7512705734119)" stroke-dasharray="10, 5" x1="85.5" y1="39.3373200411937" x2="28.5" y2="118.0119601235811"></line></g><g><line stroke="rgb(166, 194, 123)" stroke-width="1.5" transform="translate(223.6427378644335, 78.7512705734119)" stroke-dasharray="10, 5" x1="28.5" y1="39.3373200411937" x2="85.5" y2="118.0119601235811"></line><line stroke="rgb(166, 194, 123)" stroke-width="1.5" transform="translate(223.6427378644335, 78.7512705734119)" stroke-dasharray="10, 5" x1="85.5" y1="39.3373200411937" x2="28.5" y2="118.0119601235811"></line></g><g><line stroke="rgb(166, 194, 123)" stroke-width="1.5" transform="translate(337.6427378644335, 78.7512705734119)" stroke-dasharray="10, 5" x1="28.5" y1="39.3373200411937" x2="85.5" y2="118.0119601235811"></line><line stroke="rgb(166, 194, 123)" stroke-width="1.5" transform="translate(337.6427378644335, 78.7512705734119)" stroke-dasharray="10, 5" x1="85.5" y1="39.3373200411937" x2="28.5" y2="118.0119601235811"></line></g><g><line stroke="rgb(166, 194, 123)" stroke-width="1.5" transform="translate(451.6427378644335, 78.7512705734119)" stroke-dasharray="10, 5" x1="28.5" y1="39.3373200411937" x2="85.5" y2="118.0119601235811"></line><line stroke="rgb(166, 194, 123)" stroke-width="1.5" transform="translate(451.6427378644335, 78.7512705734119)" stroke-dasharray="10, 5" x1="85.5" y1="39.3373200411937" x2="28.5" y2="118.0119601235811"></line></g><g><line stroke="rgb(166, 194, 123)" stroke-width="1.5" transform="translate(565.6427378644335, 78.7512705734119)" stroke-dasharray="10, 5" x1="28.5" y1="39.3373200411937" x2="85.5" y2="118.0119601235811"></line><line stroke="rgb(166, 194, 123)" stroke-width="1.5" transform="translate(565.6427378644335, 78.7512705734119)" stroke-dasharray="10, 5" x1="85.5" y1="39.3373200411937" x2="28.5" y2="118.0119601235811"></line></g><g><line stroke="rgb(166, 194, 123)" stroke-width="1.5" transform="translate(679.6427378644335, 78.7512705734119)" stroke-dasharray="10, 5" x1="28.5" y1="39.3373200411937" x2="85.5" y2="118.0119601235811"></line><line stroke="rgb(166, 194, 123)" stroke-width="1.5" transform="translate(679.6427378644335, 78.7512705734119)" stroke-dasharray="10, 5" x1="85.5" y1="39.3373200411937" x2="28.5" y2="118.0119601235811"></line></g><g><line stroke="rgb(166, 194, 123)" stroke-width="1.5" transform="translate(793.6427378644335, 78.7512705734119)" stroke-dasharray="10, 5" x1="28.5" y1="39.3373200411937" x2="85.5" y2="118.0119601235811"></line><line stroke="rgb(166, 194, 123)" stroke-width="1.5" transform="translate(793.6427378644335, 78.7512705734119)" stroke-dasharray="10, 5" x1="85.5" y1="39.3373200411937" x2="28.5" y2="118.0119601235811"></line></g><g><line stroke="rgb(166, 194, 123)" stroke-width="1.5" transform="translate(907.6427378644335, 78.7512705734119)" stroke-dasharray="10, 5" x1="28.5" y1="39.3373200411937" x2="85.5" y2="118.0119601235811"></line><line stroke="rgb(166, 194, 123)" stroke-width="1.5" transform="translate(907.6427378644335, 78.7512705734119)" stroke-dasharray="10, 5" x1="85.5" y1="39.3373200411937" x2="28.5" y2="118.0119601235811"></line></g><g><line stroke="rgb(166, 194, 123)" stroke-width="1.5" transform="translate(1021.6427378644335, 78.7512705734119)" stroke-dasharray="10, 5" x1="28.5" y1="39.3373200411937" x2="85.5" y2="118.0119601235811"></line><line stroke="rgb(166, 194, 123)" stroke-width="1.5" transform="translate(1021.6427378644335, 78.7512705734119)" stroke-dasharray="10, 5" x1="85.5" y1="39.3373200411937" x2="28.5" y2="118.0119601235811"></line></g><g><line stroke="rgb(166, 194, 123)" stroke-width="1.5" transform="translate(1135.6427378644335, 78.7512705734119)" stroke-dasharray="10, 5" x1="28.5" y1="39.3373200411937" x2="85.5" y2="118.0119601235811"></line><line stroke="rgb(166, 194, 123)" stroke-width="1.5" transform="translate(1135.6427378644335, 78.7512705734119)" stroke-dasharray="10, 5" x1="85.5" y1="39.3373200411937" x2="28.5" y2="118.0119601235811"></line></g><g><line stroke="rgb(166, 194, 123)" stroke-width="1.5" transform="translate(-61.3572621355665, 157.42591065579933)" stroke-dasharray="10, 5" x1="28.5" y1="39.3373200411937" x2="85.5" y2="118.0119601235811"></line><line stroke="rgb(166, 194, 123)" stroke-width="1.5" transform="translate(-61.3572621355665, 157.42591065579933)" stroke-dasharray="10, 5" x1="85.5" y1="39.3373200411937" x2="28.5" y2="118.0119601235811"></line></g><g><line stroke="rgb(166, 194, 123)" stroke-width="1.5" transform="translate(52.6427378644335, 157.42591065579933)" stroke-dasharray="10, 5" x1="28.5" y1="39.3373200411937" x2="85.5" y2="118.0119601235811"></line><line stroke="rgb(166, 194, 123)" stroke-width="1.5" transform="translate(52.6427378644335, 157.42591065579933)" stroke-dasharray="10, 5" x1="85.5" y1="39.3373200411937" x2="28.5" y2="118.0119601235811"></line></g><g><line stroke="rgb(166, 194, 123)" stroke-width="1.5" transform="translate(166.6427378644335, 157.42591065579933)" stroke-dasharray="10, 5" x1="28.5" y1="39.3373200411937" x2="85.5" y2="118.0119601235811"></line><line stroke="rgb(166, 194, 123)" stroke-width="1.5" transform="translate(166.6427378644335, 157.42591065579933)" stroke-dasharray="10, 5" x1="85.5" y1="39.3373200411937" x2="28.5" y2="118.0119601235811"></line></g><g><line stroke="rgb(166, 194, 123)" stroke-width="1.5" transform="translate(280.6427378644335, 157.42591065579933)" stroke-dasharray="10, 5" x1="28.5" y1="39.3373200411937" x2="85.5" y2="118.0119601235811"></line><line stroke="rgb(166, 194, 123)" stroke-width="1.5" transform="translate(280.6427378644335, 157.42591065579933)" stroke-dasharray="10, 5" x1="85.5" y1="39.3373200411937" x2="28.5" y2="118.0119601235811"></line></g><g><line stroke="rgb(166, 194, 123)" stroke-width="1.5" transform="translate(394.6427378644335, 157.42591065579933)" stroke-dasharray="10, 5" x1="28.5" y1="39.3373200411937" x2="85.5" y2="118.0119601235811"></line><line stroke="rgb(166, 194, 123)" stroke-width="1.5" transform="translate(394.6427378644335, 157.42591065579933)" stroke-dasharray="10, 5" x1="85.5" y1="39.3373200411937" x2="28.5" y2="118.0119601235811"></line></g><g><line stroke="rgb(166, 194, 123)" stroke-width="1.5" transform="translate(508.6427378644335, 157.42591065579933)" stroke-dasharray="10, 5" x1="28.5" y1="39.3373200411937" x2="85.5" y2="118.0119601235811"></line><line stroke="rgb(166, 194, 123)" stroke-width="1.5" transform="translate(508.6427378644335, 157.42591065579933)" stroke-dasharray="10, 5" x1="85.5" y1="39.3373200411937" x2="28.5" y2="118.0119601235811"></line></g><g><line stroke="rgb(166, 194, 123)" stroke-width="1.5" transform="translate(622.6427378644335, 157.42591065579933)" stroke-dasharray="10, 5" x1="28.5" y1="39.3373200411937" x2="85.5" y2="118.0119601235811"></line><line stroke="rgb(166, 194, 123)" stroke-width="1.5" transform="translate(622.6427378644335, 157.42591065579933)" stroke-dasharray="10, 5" x1="85.5" y1="39.3373200411937" x2="28.5" y2="118.0119601235811"></line></g><g><line stroke="rgb(166, 194, 123)" stroke-width="1.5" transform="translate(736.6427378644335, 157.42591065579933)" stroke-dasharray="10, 5" x1="28.5" y1="39.3373200411937" x2="85.5" y2="118.0119601235811"></line><line stroke="rgb(166, 194, 123)" stroke-width="1.5" transform="translate(736.6427378644335, 157.42591065579933)" stroke-dasharray="10, 5" x1="85.5" y1="39.3373200411937" x2="28.5" y2="118.0119601235811"></line></g><g><line stroke="rgb(166, 194, 123)" stroke-width="1.5" transform="translate(850.6427378644335, 157.42591065579933)" stroke-dasharray="10, 5" x1="28.5" y1="39.3373200411937" x2="85.5" y2="118.0119601235811"></line><line stroke="rgb(166, 194, 123)" stroke-width="1.5" transform="translate(850.6427378644335, 157.42591065579933)" stroke-dasharray="10, 5" x1="85.5" y1="39.3373200411937" x2="28.5" y2="118.0119601235811"></line></g><g><line stroke="rgb(166, 194, 123)" stroke-width="1.5" transform="translate(964.6427378644335, 157.42591065579933)" stroke-dasharray="10, 5" x1="28.5" y1="39.3373200411937" x2="85.5" y2="118.0119601235811"></line><line stroke="rgb(166, 194, 123)" stroke-width="1.5" transform="translate(964.6427378644335, 157.42591065579933)" stroke-dasharray="10, 5" x1="85.5" y1="39.3373200411937" x2="28.5" y2="118.0119601235811"></line></g><g><line stroke="rgb(166, 194, 123)" stroke-width="1.5" transform="translate(1078.6427378644335, 157.42591065579933)" stroke-dasharray="10, 5" x1="28.5" y1="39.3373200411937" x2="85.5" y2="118.0119601235811"></line><line stroke="rgb(166, 194, 123)" stroke-width="1.5" transform="translate(1078.6427378644335, 157.42591065579933)" stroke-dasharray="10, 5" x1="85.5" y1="39.3373200411937" x2="28.5" y2="118.0119601235811"></line></g><g><line stroke="rgb(166, 194, 123)" stroke-width="1.5" transform="translate(1192.6427378644335, 157.42591065579933)" stroke-dasharray="10, 5" x1="28.5" y1="39.3373200411937" x2="85.5" y2="118.0119601235811"></line><line stroke="rgb(166, 194, 123)" stroke-width="1.5" transform="translate(1192.6427378644335, 157.42591065579933)" stroke-dasharray="10, 5" x1="85.5" y1="39.3373200411937" x2="28.5" y2="118.0119601235811"></line></g><g><line stroke="rgb(166, 194, 123)" stroke-width="1.5" transform="translate(-118.3572621355665, 236.1005507381867)" stroke-dasharray="10, 5" x1="28.5" y1="39.3373200411937" x2="85.5" y2="118.0119601235811"></line><line stroke="rgb(166, 194, 123)" stroke-width="1.5" transform="translate(-118.3572621355665, 236.1005507381867)" stroke-dasharray="10, 5" x1="85.5" y1="39.3373200411937" x2="28.5" y2="118.0119601235811"></line></g><g><line stroke="rgb(166, 194, 123)" stroke-width="1.5" transform="translate(-4.357262135566501, 236.1005507381867)" stroke-dasharray="10, 5" x1="28.5" y1="39.3373200411937" x2="85.5" y2="118.0119601235811"></line><line stroke="rgb(166, 194, 123)" stroke-width="1.5" transform="translate(-4.357262135566501, 236.1005507381867)" stroke-dasharray="10, 5" x1="85.5" y1="39.3373200411937" x2="28.5" y2="118.0119601235811"></line></g><g><line stroke="rgb(166, 194, 123)" stroke-width="1.5" transform="translate(109.6427378644335, 236.1005507381867)" stroke-dasharray="10, 5" x1="28.5" y1="39.3373200411937" x2="85.5" y2="118.0119601235811"></line><line stroke="rgb(166, 194, 123)" stroke-width="1.5" transform="translate(109.6427378644335, 236.1005507381867)" stroke-dasharray="10, 5" x1="85.5" y1="39.3373200411937" x2="28.5" y2="118.0119601235811"></line></g><g><line stroke="rgb(166, 194, 123)" stroke-width="1.5" transform="translate(223.6427378644335, 236.1005507381867)" stroke-dasharray="10, 5" x1="28.5" y1="39.3373200411937" x2="85.5" y2="118.0119601235811"></line><line stroke="rgb(166, 194, 123)" stroke-width="1.5" transform="translate(223.6427378644335, 236.1005507381867)" stroke-dasharray="10, 5" x1="85.5" y1="39.3373200411937" x2="28.5" y2="118.0119601235811"></line></g><g><line stroke="rgb(166, 194, 123)" stroke-width="1.5" transform="translate(337.6427378644335, 236.1005507381867)" stroke-dasharray="10, 5" x1="28.5" y1="39.3373200411937" x2="85.5" y2="118.0119601235811"></line><line stroke="rgb(166, 194, 123)" stroke-width="1.5" transform="translate(337.6427378644335, 236.1005507381867)" stroke-dasharray="10, 5" x1="85.5" y1="39.3373200411937" x2="28.5" y2="118.0119601235811"></line></g><g><line stroke="rgb(166, 194, 123)" stroke-width="1.5" transform="translate(451.6427378644335, 236.1005507381867)" stroke-dasharray="10, 5" x1="28.5" y1="39.3373200411937" x2="85.5" y2="118.0119601235811"></line><line stroke="rgb(166, 194, 123)" stroke-width="1.5" transform="translate(451.6427378644335, 236.1005507381867)" stroke-dasharray="10, 5" x1="85.5" y1="39.3373200411937" x2="28.5" y2="118.0119601235811"></line></g><g><line stroke="rgb(166, 194, 123)" stroke-width="1.5" transform="translate(565.6427378644335, 236.1005507381867)" stroke-dasharray="10, 5" x1="28.5" y1="39.3373200411937" x2="85.5" y2="118.0119601235811"></line><line stroke="rgb(166, 194, 123)" stroke-width="1.5" transform="translate(565.6427378644335, 236.1005507381867)" stroke-dasharray="10, 5" x1="85.5" y1="39.3373200411937" x2="28.5" y2="118.0119601235811"></line></g><g><line stroke="rgb(166, 194, 123)" stroke-width="1.5" transform="translate(679.6427378644335, 236.1005507381867)" stroke-dasharray="10, 5" x1="28.5" y1="39.3373200411937" x2="85.5" y2="118.0119601235811"></line><line stroke="rgb(166, 194, 123)" stroke-width="1.5" transform="translate(679.6427378644335, 236.1005507381867)" stroke-dasharray="10, 5" x1="85.5" y1="39.3373200411937" x2="28.5" y2="118.0119601235811"></line></g><g><line stroke="rgb(166, 194, 123)" stroke-width="1.5" transform="translate(793.6427378644335, 236.1005507381867)" stroke-dasharray="10, 5" x1="28.5" y1="39.3373200411937" x2="85.5" y2="118.0119601235811"></line><line stroke="rgb(166, 194, 123)" stroke-width="1.5" transform="translate(793.6427378644335, 236.1005507381867)" stroke-dasharray="10, 5" x1="85.5" y1="39.3373200411937" x2="28.5" y2="118.0119601235811"></line></g><g><line stroke="rgb(166, 194, 123)" stroke-width="1.5" transform="translate(907.6427378644335, 236.1005507381867)" stroke-dasharray="10, 5" x1="28.5" y1="39.3373200411937" x2="85.5" y2="118.0119601235811"></line><line stroke="rgb(166, 194, 123)" stroke-width="1.5" transform="translate(907.6427378644335, 236.1005507381867)" stroke-dasharray="10, 5" x1="85.5" y1="39.3373200411937" x2="28.5" y2="118.0119601235811"></line></g><g><line stroke="rgb(166, 194, 123)" stroke-width="1.5" transform="translate(1021.6427378644335, 236.1005507381867)" stroke-dasharray="10, 5" x1="28.5" y1="39.3373200411937" x2="85.5" y2="118.0119601235811"></line><line stroke="rgb(166, 194, 123)" stroke-width="1.5" transform="translate(1021.6427378644335, 236.1005507381867)" stroke-dasharray="10, 5" x1="85.5" y1="39.3373200411937" x2="28.5" y2="118.0119601235811"></line></g><g><line stroke="rgb(166, 194, 123)" stroke-width="1.5" transform="translate(1135.6427378644335, 236.1005507381867)" stroke-dasharray="10, 5" x1="28.5" y1="39.3373200411937" x2="85.5" y2="118.0119601235811"></line><line stroke="rgb(166, 194, 123)" stroke-width="1.5" transform="translate(1135.6427378644335, 236.1005507381867)" stroke-dasharray="10, 5" x1="85.5" y1="39.3373200411937" x2="28.5" y2="118.0119601235811"></line></g><g><line stroke="rgb(166, 194, 123)" stroke-width="1.5" transform="translate(-61.3572621355665, 314.7751908205741)" stroke-dasharray="10, 5" x1="28.5" y1="39.3373200411937" x2="85.5" y2="118.0119601235811"></line><line stroke="rgb(166, 194, 123)" stroke-width="1.5" transform="translate(-61.3572621355665, 314.7751908205741)" stroke-dasharray="10, 5" x1="85.5" y1="39.3373200411937" x2="28.5" y2="118.0119601235811"></line></g><g><line stroke="rgb(166, 194, 123)" stroke-width="1.5" transform="translate(52.6427378644335, 314.7751908205741)" stroke-dasharray="10, 5" x1="28.5" y1="39.3373200411937" x2="85.5" y2="118.0119601235811"></line><line stroke="rgb(166, 194, 123)" stroke-width="1.5" transform="translate(52.6427378644335, 314.7751908205741)" stroke-dasharray="10, 5" x1="85.5" y1="39.3373200411937" x2="28.5" y2="118.0119601235811"></line></g><g><line stroke="rgb(166, 194, 123)" stroke-width="1.5" transform="translate(166.6427378644335, 314.7751908205741)" stroke-dasharray="10, 5" x1="28.5" y1="39.3373200411937" x2="85.5" y2="118.0119601235811"></line><line stroke="rgb(166, 194, 123)" stroke-width="1.5" transform="translate(166.6427378644335, 314.7751908205741)" stroke-dasharray="10, 5" x1="85.5" y1="39.3373200411937" x2="28.5" y2="118.0119601235811"></line></g><g><line stroke="rgb(166, 194, 123)" stroke-width="1.5" transform="translate(280.6427378644335, 314.7751908205741)" stroke-dasharray="10, 5" x1="28.5" y1="39.3373200411937" x2="85.5" y2="118.0119601235811"></line><line stroke="rgb(166, 194, 123)" stroke-width="1.5" transform="translate(280.6427378644335, 314.7751908205741)" stroke-dasharray="10, 5" x1="85.5" y1="39.3373200411937" x2="28.5" y2="118.0119601235811"></line></g><g><line stroke="rgb(166, 194, 123)" stroke-width="1.5" transform="translate(394.6427378644335, 314.7751908205741)" stroke-dasharray="10, 5" x1="28.5" y1="39.3373200411937" x2="85.5" y2="118.0119601235811"></line><line stroke="rgb(166, 194, 123)" stroke-width="1.5" transform="translate(394.6427378644335, 314.7751908205741)" stroke-dasharray="10, 5" x1="85.5" y1="39.3373200411937" x2="28.5" y2="118.0119601235811"></line></g><g><line stroke="rgb(166, 194, 123)" stroke-width="1.5" transform="translate(508.6427378644335, 314.7751908205741)" stroke-dasharray="10, 5" x1="28.5" y1="39.3373200411937" x2="85.5" y2="118.0119601235811"></line><line stroke="rgb(166, 194, 123)" stroke-width="1.5" transform="translate(508.6427378644335, 314.7751908205741)" stroke-dasharray="10, 5" x1="85.5" y1="39.3373200411937" x2="28.5" y2="118.0119601235811"></line></g><g><line stroke="rgb(166, 194, 123)" stroke-width="1.5" transform="translate(622.6427378644335, 314.7751908205741)" stroke-dasharray="10, 5" x1="28.5" y1="39.3373200411937" x2="85.5" y2="118.0119601235811"></line><line stroke="rgb(166, 194, 123)" stroke-width="1.5" transform="translate(622.6427378644335, 314.7751908205741)" stroke-dasharray="10, 5" x1="85.5" y1="39.3373200411937" x2="28.5" y2="118.0119601235811"></line></g><g><line stroke="rgb(166, 194, 123)" stroke-width="1.5" transform="translate(736.6427378644335, 314.7751908205741)" stroke-dasharray="10, 5" x1="28.5" y1="39.3373200411937" x2="85.5" y2="118.0119601235811"></line><line stroke="rgb(166, 194, 123)" stroke-width="1.5" transform="translate(736.6427378644335, 314.7751908205741)" stroke-dasharray="10, 5" x1="85.5" y1="39.3373200411937" x2="28.5" y2="118.0119601235811"></line></g><g><line stroke="rgb(166, 194, 123)" stroke-width="1.5" transform="translate(850.6427378644335, 314.7751908205741)" stroke-dasharray="10, 5" x1="28.5" y1="39.3373200411937" x2="85.5" y2="118.0119601235811"></line><line stroke="rgb(166, 194, 123)" stroke-width="1.5" transform="translate(850.6427378644335, 314.7751908205741)" stroke-dasharray="10, 5" x1="85.5" y1="39.3373200411937" x2="28.5" y2="118.0119601235811"></line></g><g><line stroke="rgb(166, 194, 123)" stroke-width="1.5" transform="translate(964.6427378644335, 314.7751908205741)" stroke-dasharray="10, 5" x1="28.5" y1="39.3373200411937" x2="85.5" y2="118.0119601235811"></line><line stroke="rgb(166, 194, 123)" stroke-width="1.5" transform="translate(964.6427378644335, 314.7751908205741)" stroke-dasharray="10, 5" x1="85.5" y1="39.3373200411937" x2="28.5" y2="118.0119601235811"></line></g><g><line stroke="rgb(166, 194, 123)" stroke-width="1.5" transform="translate(1078.6427378644335, 314.7751908205741)" stroke-dasharray="10, 5" x1="28.5" y1="39.3373200411937" x2="85.5" y2="118.0119601235811"></line><line stroke="rgb(166, 194, 123)" stroke-width="1.5" transform="translate(1078.6427378644335, 314.7751908205741)" stroke-dasharray="10, 5" x1="85.5" y1="39.3373200411937" x2="28.5" y2="118.0119601235811"></line></g><g><line stroke="rgb(166, 194, 123)" stroke-width="1.5" transform="translate(1192.6427378644335, 314.7751908205741)" stroke-dasharray="10, 5" x1="28.5" y1="39.3373200411937" x2="85.5" y2="118.0119601235811"></line><line stroke="rgb(166, 194, 123)" stroke-width="1.5" transform="translate(1192.6427378644335, 314.7751908205741)" stroke-dasharray="10, 5" x1="85.5" y1="39.3373200411937" x2="28.5" y2="118.0119601235811"></line></g><g><line stroke="rgb(166, 194, 123)" stroke-width="1.5" transform="translate(-118.3572621355665, 393.44983090296154)" stroke-dasharray="10, 5" x1="28.5" y1="39.3373200411937" x2="85.5" y2="118.0119601235811"></line><line stroke="rgb(166, 194, 123)" stroke-width="1.5" transform="translate(-118.3572621355665, 393.44983090296154)" stroke-dasharray="10, 5" x1="85.5" y1="39.3373200411937" x2="28.5" y2="118.0119601235811"></line></g><g><line stroke="rgb(166, 194, 123)" stroke-width="1.5" transform="translate(-4.357262135566501, 393.44983090296154)" stroke-dasharray="10, 5" x1="28.5" y1="39.3373200411937" x2="85.5" y2="118.0119601235811"></line><line stroke="rgb(166, 194, 123)" stroke-width="1.5" transform="translate(-4.357262135566501, 393.44983090296154)" stroke-dasharray="10, 5" x1="85.5" y1="39.3373200411937" x2="28.5" y2="118.0119601235811"></line></g><g><line stroke="rgb(166, 194, 123)" stroke-width="1.5" transform="translate(109.6427378644335, 393.44983090296154)" stroke-dasharray="10, 5" x1="28.5" y1="39.3373200411937" x2="85.5" y2="118.0119601235811"></line><line stroke="rgb(166, 194, 123)" stroke-width="1.5" transform="translate(109.6427378644335, 393.44983090296154)" stroke-dasharray="10, 5" x1="85.5" y1="39.3373200411937" x2="28.5" y2="118.0119601235811"></line></g><g><line stroke="rgb(166, 194, 123)" stroke-width="1.5" transform="translate(223.6427378644335, 393.44983090296154)" stroke-dasharray="10, 5" x1="28.5" y1="39.3373200411937" x2="85.5" y2="118.0119601235811"></line><line stroke="rgb(166, 194, 123)" stroke-width="1.5" transform="translate(223.6427378644335, 393.44983090296154)" stroke-dasharray="10, 5" x1="85.5" y1="39.3373200411937" x2="28.5" y2="118.0119601235811"></line></g><g><line stroke="rgb(166, 194, 123)" stroke-width="1.5" transform="translate(337.6427378644335, 393.44983090296154)" stroke-dasharray="10, 5" x1="28.5" y1="39.3373200411937" x2="85.5" y2="118.0119601235811"></line><line stroke="rgb(166, 194, 123)" stroke-width="1.5" transform="translate(337.6427378644335, 393.44983090296154)" stroke-dasharray="10, 5" x1="85.5" y1="39.3373200411937" x2="28.5" y2="118.0119601235811"></line></g><g><line stroke="rgb(166, 194, 123)" stroke-width="1.5" transform="translate(451.6427378644335, 393.44983090296154)" stroke-dasharray="10, 5" x1="28.5" y1="39.3373200411937" x2="85.5" y2="118.0119601235811"></line><line stroke="rgb(166, 194, 123)" stroke-width="1.5" transform="translate(451.6427378644335, 393.44983090296154)" stroke-dasharray="10, 5" x1="85.5" y1="39.3373200411937" x2="28.5" y2="118.0119601235811"></line></g><g><line stroke="rgb(166, 194, 123)" stroke-width="1.5" transform="translate(565.6427378644335, 393.44983090296154)" stroke-dasharray="10, 5" x1="28.5" y1="39.3373200411937" x2="85.5" y2="118.0119601235811"></line><line stroke="rgb(166, 194, 123)" stroke-width="1.5" transform="translate(565.6427378644335, 393.44983090296154)" stroke-dasharray="10, 5" x1="85.5" y1="39.3373200411937" x2="28.5" y2="118.0119601235811"></line></g><g><line stroke="rgb(166, 194, 123)" stroke-width="1.5" transform="translate(679.6427378644335, 393.44983090296154)" stroke-dasharray="10, 5" x1="28.5" y1="39.3373200411937" x2="85.5" y2="118.0119601235811"></line><line stroke="rgb(166, 194, 123)" stroke-width="1.5" transform="translate(679.6427378644335, 393.44983090296154)" stroke-dasharray="10, 5" x1="85.5" y1="39.3373200411937" x2="28.5" y2="118.0119601235811"></line></g><g><line stroke="rgb(166, 194, 123)" stroke-width="1.5" transform="translate(793.6427378644335, 393.44983090296154)" stroke-dasharray="10, 5" x1="28.5" y1="39.3373200411937" x2="85.5" y2="118.0119601235811"></line><line stroke="rgb(166, 194, 123)" stroke-width="1.5" transform="translate(793.6427378644335, 393.44983090296154)" stroke-dasharray="10, 5" x1="85.5" y1="39.3373200411937" x2="28.5" y2="118.0119601235811"></line></g><g><line stroke="rgb(166, 194, 123)" stroke-width="1.5" transform="translate(907.6427378644335, 393.44983090296154)" stroke-dasharray="10, 5" x1="28.5" y1="39.3373200411937" x2="85.5" y2="118.0119601235811"></line><line stroke="rgb(166, 194, 123)" stroke-width="1.5" transform="translate(907.6427378644335, 393.44983090296154)" stroke-dasharray="10, 5" x1="85.5" y1="39.3373200411937" x2="28.5" y2="118.0119601235811"></line></g><g><line stroke="rgb(166, 194, 123)" stroke-width="1.5" transform="translate(1021.6427378644335, 393.44983090296154)" stroke-dasharray="10, 5" x1="28.5" y1="39.3373200411937" x2="85.5" y2="118.0119601235811"></line><line stroke="rgb(166, 194, 123)" stroke-width="1.5" transform="translate(1021.6427378644335, 393.44983090296154)" stroke-dasharray="10, 5" x1="85.5" y1="39.3373200411937" x2="28.5" y2="118.0119601235811"></line></g><g><line stroke="rgb(166, 194, 123)" stroke-width="1.5" transform="translate(1135.6427378644335, 393.44983090296154)" stroke-dasharray="10, 5" x1="28.5" y1="39.3373200411937" x2="85.5" y2="118.0119601235811"></line><line stroke="rgb(166, 194, 123)" stroke-width="1.5" transform="translate(1135.6427378644335, 393.44983090296154)" stroke-dasharray="10, 5" x1="85.5" y1="39.3373200411937" x2="28.5" y2="118.0119601235811"></line></g><g><line stroke="rgb(166, 194, 123)" stroke-width="1.5" transform="translate(-61.3572621355665, 472.12447098534886)" stroke-dasharray="10, 5" x1="28.5" y1="39.3373200411937" x2="85.5" y2="118.0119601235811"></line><line stroke="rgb(166, 194, 123)" stroke-width="1.5" transform="translate(-61.3572621355665, 472.12447098534886)" stroke-dasharray="10, 5" x1="85.5" y1="39.3373200411937" x2="28.5" y2="118.0119601235811"></line></g><g><line stroke="rgb(166, 194, 123)" stroke-width="1.5" transform="translate(52.6427378644335, 472.12447098534886)" stroke-dasharray="10, 5" x1="28.5" y1="39.3373200411937" x2="85.5" y2="118.0119601235811"></line><line stroke="rgb(166, 194, 123)" stroke-width="1.5" transform="translate(52.6427378644335, 472.12447098534886)" stroke-dasharray="10, 5" x1="85.5" y1="39.3373200411937" x2="28.5" y2="118.0119601235811"></line></g><g><line stroke="rgb(166, 194, 123)" stroke-width="1.5" transform="translate(166.6427378644335, 472.12447098534886)" stroke-dasharray="10, 5" x1="28.5" y1="39.3373200411937" x2="85.5" y2="118.0119601235811"></line><line stroke="rgb(166, 194, 123)" stroke-width="1.5" transform="translate(166.6427378644335, 472.12447098534886)" stroke-dasharray="10, 5" x1="85.5" y1="39.3373200411937" x2="28.5" y2="118.0119601235811"></line></g><g><line stroke="rgb(166, 194, 123)" stroke-width="1.5" transform="translate(280.6427378644335, 472.12447098534886)" stroke-dasharray="10, 5" x1="28.5" y1="39.3373200411937" x2="85.5" y2="118.0119601235811"></line><line stroke="rgb(166, 194, 123)" stroke-width="1.5" transform="translate(280.6427378644335, 472.12447098534886)" stroke-dasharray="10, 5" x1="85.5" y1="39.3373200411937" x2="28.5" y2="118.0119601235811"></line></g><g><line stroke="rgb(166, 194, 123)" stroke-width="1.5" transform="translate(394.6427378644335, 472.12447098534886)" stroke-dasharray="10, 5" x1="28.5" y1="39.3373200411937" x2="85.5" y2="118.0119601235811"></line><line stroke="rgb(166, 194, 123)" stroke-width="1.5" transform="translate(394.6427378644335, 472.12447098534886)" stroke-dasharray="10, 5" x1="85.5" y1="39.3373200411937" x2="28.5" y2="118.0119601235811"></line></g><g><line stroke="rgb(166, 194, 123)" stroke-width="1.5" transform="translate(508.6427378644335, 472.12447098534886)" stroke-dasharray="10, 5" x1="28.5" y1="39.3373200411937" x2="85.5" y2="118.0119601235811"></line><line stroke="rgb(166, 194, 123)" stroke-width="1.5" transform="translate(508.6427378644335, 472.12447098534886)" stroke-dasharray="10, 5" x1="85.5" y1="39.3373200411937" x2="28.5" y2="118.0119601235811"></line></g><g><line stroke="rgb(166, 194, 123)" stroke-width="1.5" transform="translate(622.6427378644335, 472.12447098534886)" stroke-dasharray="10, 5" x1="28.5" y1="39.3373200411937" x2="85.5" y2="118.0119601235811"></line><line stroke="rgb(166, 194, 123)" stroke-width="1.5" transform="translate(622.6427378644335, 472.12447098534886)" stroke-dasharray="10, 5" x1="85.5" y1="39.3373200411937" x2="28.5" y2="118.0119601235811"></line></g><g><line stroke="rgb(166, 194, 123)" stroke-width="1.5" transform="translate(736.6427378644335, 472.12447098534886)" stroke-dasharray="10, 5" x1="28.5" y1="39.3373200411937" x2="85.5" y2="118.0119601235811"></line><line stroke="rgb(166, 194, 123)" stroke-width="1.5" transform="translate(736.6427378644335, 472.12447098534886)" stroke-dasharray="10, 5" x1="85.5" y1="39.3373200411937" x2="28.5" y2="118.0119601235811"></line></g><g><line stroke="rgb(166, 194, 123)" stroke-width="1.5" transform="translate(850.6427378644335, 472.12447098534886)" stroke-dasharray="10, 5" x1="28.5" y1="39.3373200411937" x2="85.5" y2="118.0119601235811"></line><line stroke="rgb(166, 194, 123)" stroke-width="1.5" transform="translate(850.6427378644335, 472.12447098534886)" stroke-dasharray="10, 5" x1="85.5" y1="39.3373200411937" x2="28.5" y2="118.0119601235811"></line></g><g><line stroke="rgb(166, 194, 123)" stroke-width="1.5" transform="translate(964.6427378644335, 472.12447098534886)" stroke-dasharray="10, 5" x1="28.5" y1="39.3373200411937" x2="85.5" y2="118.0119601235811"></line><line stroke="rgb(166, 194, 123)" stroke-width="1.5" transform="translate(964.6427378644335, 472.12447098534886)" stroke-dasharray="10, 5" x1="85.5" y1="39.3373200411937" x2="28.5" y2="118.0119601235811"></line></g><g><line stroke="rgb(166, 194, 123)" stroke-width="1.5" transform="translate(1078.6427378644335, 472.12447098534886)" stroke-dasharray="10, 5" x1="28.5" y1="39.3373200411937" x2="85.5" y2="118.0119601235811"></line><line stroke="rgb(166, 194, 123)" stroke-width="1.5" transform="translate(1078.6427378644335, 472.12447098534886)" stroke-dasharray="10, 5" x1="85.5" y1="39.3373200411937" x2="28.5" y2="118.0119601235811"></line></g><g><line stroke="rgb(166, 194, 123)" stroke-width="1.5" transform="translate(1192.6427378644335, 472.12447098534886)" stroke-dasharray="10, 5" x1="28.5" y1="39.3373200411937" x2="85.5" y2="118.0119601235811"></line><line stroke="rgb(166, 194, 123)" stroke-width="1.5" transform="translate(1192.6427378644335, 472.12447098534886)" stroke-dasharray="10, 5" x1="85.5" y1="39.3373200411937" x2="28.5" y2="118.0119601235811"></line></g></g></g></svg>
