<?xml version="1.0" standalone="no"?>
<svg xmlns:xlink="http://www.w3.org/1999/xlink" xmlns="http://www.w3.org/2000/svg" width="500" height="500"><g><circle cx="0" cy="0" r="2" fill="rgba(0%,0%,0%,1)"></circle><circle cx="0.7342790801908976" cy="20.36859447791578" r="2" fill="rgba(0%,0%,0%,1)"></circle><circle cx="26.01515781626797" cy="6.35938063512752" r="2" fill="rgba(0%,0%,0%,1)"></circle><circle cx="16.33585184208439" cy="28.952357486755076" r="2" fill="rgba(0%,0%,0%,1)"></circle><circle cx="7.499198554398417" cy="41.15598134833494" r="2" fill="rgba(0%,0%,0%,1)"></circle><circle cx="33.39810626877451" cy="43.05430956882515" r="2" fill="rgba(0%,0%,0%,1)"></circle><circle cx="33.877675192701204" cy="58.69560939067335" r="2" fill="rgba(0%,0%,0%,1)"></circle><circle cx="2.5036021922492364" cy="68.70089224887053" r="2" fill="rgba(0%,0%,0%,1)"></circle><circle cx="54.24786830875211" cy="58.371878232376226" r="2" fill="rgba(0%,0%,0%,1)"></circle><circle cx="24.37141824298528" cy="70.32100961443469" r="2" fill="rgba(0%,0%,0%,1)"></circle><circle cx="51.65306352467264" cy="74.96036509246805" r="2" fill="rgba(0%,0%,0%,1)"></circle><circle cx="13.33655337575863" cy="58.25129456120225" r="2" fill="rgba(0%,0%,0%,1)"></circle><circle cx="38.32656335479112" cy="15.74549280712494" r="2" fill="rgba(0%,0%,0%,1)"></circle><circle cx="62.383965155704864" cy="45.01089348535491" r="2" fill="rgba(0%,0%,0%,1)"></circle><circle cx="54.167782135484984" cy="14.21595582239706" r="2" fill="rgba(0%,0%,0%,1)"></circle><circle cx="35.08571124799925" cy="94.83955712964011" r="2" fill="rgba(0%,0%,0%,1)"></circle><circle cx="51.08172678820041" cy="116.64045412412526" r="2" fill="rgba(0%,0%,0%,1)"></circle><circle cx="73.31427112119704" cy="66.461023530712" r="2" fill="rgba(0%,0%,0%,1)"></circle><circle cx="44.00489523299195" cy="31.641796716275454" r="2" fill="rgba(0%,0%,0%,1)"></circle><circle cx="19.130128104687525" cy="93.66019363570635" r="2" fill="rgba(0%,0%,0%,1)"></circle><circle cx="62.200623328343916" cy="29.985244609230232" r="2" fill="rgba(0%,0%,0%,1)"></circle><circle cx="69.6969754741326" cy="83.9041269969267" r="2" fill="rgba(0%,0%,0%,1)"></circle><circle cx="21.70524382634862" cy="110.31935713888308" r="2" fill="rgba(0%,0%,0%,1)"></circle><circle cx="73.11427434868496" cy="15.616849287020395" r="2" fill="rgba(0%,0%,0%,1)"></circle><circle cx="97.46251321495191" cy="82.30867321075256" r="2" fill="rgba(0%,0%,0%,1)"></circle><circle cx="97.78408253679191" cy="51.629664705494086" r="2" fill="rgba(0%,0%,0%,1)"></circle><circle cx="52.12903357396782" cy="101.30291383079135" r="2" fill="rgba(0%,0%,0%,1)"></circle><circle cx="34.084748471990906" cy="119.17457789812336" r="2" fill="rgba(0%,0%,0%,1)"></circle><circle cx="12.699124078418562" cy="135.4429872888328" r="2" fill="rgba(0%,0%,0%,1)"></circle><circle cx="75.62866093598508" cy="37.381136887576815" r="2" fill="rgba(0%,0%,0%,1)"></circle><circle cx="90.8534299890208" cy="17.30325123883361" r="2" fill="rgba(0%,0%,0%,1)"></circle><circle cx="74.45722274783601" cy="112.24617389429864" r="2" fill="rgba(0%,0%,0%,1)"></circle><circle cx="99.2819995568514" cy="34.683252377852305" r="2" fill="rgba(0%,0%,0%,1)"></circle><circle cx="0.9487836963519847" cy="91.52833015541678" r="2" fill="rgba(0%,0%,0%,1)"></circle><circle cx="10.135555729787534" cy="164.4930547946414" r="2" fill="rgba(0%,0%,0%,1)"></circle><circle cx="113.74850757111221" cy="50.27632951657706" r="2" fill="rgba(0%,0%,0%,1)"></circle><circle cx="45.13351123158806" cy="137.71670117021128" r="2" fill="rgba(0%,0%,0%,1)"></circle><circle cx="5.8560194020296" cy="112.052883884664" r="2" fill="rgba(0%,0%,0%,1)"></circle><circle cx="99.04956119555236" cy="105.15383322951628" r="2" fill="rgba(0%,0%,0%,1)"></circle><circle cx="29.01969658089111" cy="139.02413925341665" r="2" fill="rgba(0%,0%,0%,1)"></circle><circle cx="99.86900637114124" cy="67.08631883039381" r="2" fill="rgba(0%,0%,0%,1)"></circle><circle cx="116.87445369790335" cy="14.659086579113922" r="2" fill="rgba(0%,0%,0%,1)"></circle><circle cx="139.58795238005624" cy="6.436789643118538" r="2" fill="rgba(0%,0%,0%,1)"></circle><circle cx="32.85630609327388" cy="157.19713007658387" r="2" fill="rgba(0%,0%,0%,1)"></circle><circle cx="116.58069116982149" cy="35.189160030751886" r="2" fill="rgba(0%,0%,0%,1)"></circle><circle cx="1.880417279047553" cy="149.7439617426077" r="2" fill="rgba(0%,0%,0%,1)"></circle><circle cx="67.46845699439227" cy="131.21576323167548" r="2" fill="rgba(0%,0%,0%,1)"></circle><circle cx="99.91513554757628" cy="125.94650775357665" r="2" fill="rgba(0%,0%,0%,1)"></circle><circle cx="68.23657826406574" cy="155.65824888916788" r="2" fill="rgba(0%,0%,0%,1)"></circle><circle cx="48.179246585471425" cy="152.93761099869536" r="2" fill="rgba(0%,0%,0%,1)"></circle><circle cx="83.71515524768179" cy="95.83496780796196" r="2" fill="rgba(0%,0%,0%,1)"></circle><circle cx="80.80033133627174" cy="51.92577800345621" r="2" fill="rgba(0%,0%,0%,1)"></circle><circle cx="70.74887163713153" cy="0.6155181966066674" r="2" fill="rgba(0%,0%,0%,1)"></circle><circle cx="127.70516014884342" cy="69.33923258549159" r="2" fill="rgba(0%,0%,0%,1)"></circle><circle cx="117.43541145568587" cy="88.1356401225369" r="2" fill="rgba(0%,0%,0%,1)"></circle><circle cx="138.0720173374917" cy="52.358428489899026" r="2" fill="rgba(0%,0%,0%,1)"></circle><circle cx="116.36056246880821" cy="112.79152828544233" r="2" fill="rgba(0%,0%,0%,1)"></circle><circle cx="144.39173643706675" cy="78.16855972061055" r="2" fill="rgba(0%,0%,0%,1)"></circle><circle cx="82.09182181765908" cy="138.96750062835474" r="2" fill="rgba(0%,0%,0%,1)"></circle><circle cx="102.65071033166191" cy="158.96936284017283" r="2" fill="rgba(0%,0%,0%,1)"></circle><circle cx="137.91725026476615" cy="100.76765672097687" r="2" fill="rgba(0%,0%,0%,1)"></circle><circle cx="133.70136503618596" cy="28.11188161867892" r="2" fill="rgba(0%,0%,0%,1)"></circle><circle cx="163.83485493123155" cy="2.064430386202092" r="2" fill="rgba(0%,0%,0%,1)"></circle><circle cx="127.10361768287878" cy="140.3915006887384" r="2" fill="rgba(0%,0%,0%,1)"></circle><circle cx="58.55840194361707" cy="179.21922180679445" r="2" fill="rgba(0%,0%,0%,1)"></circle><circle cx="140.56895333119007" cy="123.70294542702364" r="2" fill="rgba(0%,0%,0%,1)"></circle><circle cx="77.8359335711785" cy="168.79628675692643" r="2" fill="rgba(0%,0%,0%,1)"></circle><circle cx="158.6322175929279" cy="27.74099684645259" r="2" fill="rgba(0%,0%,0%,1)"></circle><circle cx="36.83951759939146" cy="181.36563416515426" r="2" fill="rgba(0%,0%,0%,1)"></circle><circle cx="121.18368847235871" cy="163.98869568796854" r="2" fill="rgba(0%,0%,0%,1)"></circle><circle cx="124.62048446714456" cy="0.8156697628997345" r="2" fill="rgba(0%,0%,0%,1)"></circle><circle cx="114.86816218215262" cy="149.60750747250634" r="2" fill="rgba(0%,0%,0%,1)"></circle><circle cx="155.32591561770911" cy="51.353478259647346" r="2" fill="rgba(0%,0%,0%,1)"></circle><circle cx="147.04956744144752" cy="144.8720119827499" r="2" fill="rgba(0%,0%,0%,1)"></circle><circle cx="177.05572417426146" cy="57.80161879006956" r="2" fill="rgba(0%,0%,0%,1)"></circle><circle cx="100.36650676518889" cy="142.38349416778325" r="2" fill="rgba(0%,0%,0%,1)"></circle><circle cx="102.60872297280967" cy="6.095878244990373" r="2" fill="rgba(0%,0%,0%,1)"></circle><circle cx="14.792913138346881" cy="186.61052065278105" r="2" fill="rgba(0%,0%,0%,1)"></circle><circle cx="155.71997865908608" cy="67.40452472503164" r="2" fill="rgba(0%,0%,0%,1)"></circle><circle cx="187.25477524097622" cy="28.923713538378806" r="2" fill="rgba(0%,0%,0%,1)"></circle><circle cx="165.8420593132777" cy="139.42425413709057" r="2" fill="rgba(0%,0%,0%,1)"></circle><circle cx="19.109103719311523" cy="150.77063213282776" r="2" fill="rgba(0%,0%,0%,1)"></circle><circle cx="136.37424699177225" cy="166.8499690705787" r="2" fill="rgba(0%,0%,0%,1)"></circle><circle cx="125.34860534429276" cy="125.27625939276673" r="2" fill="rgba(0%,0%,0%,1)"></circle><circle cx="186.72253031672497" cy="7.237750822691753" r="2" fill="rgba(0%,0%,0%,1)"></circle><circle cx="4.627504509048074" cy="203.55341867272708" r="2" fill="rgba(0%,0%,0%,1)"></circle><circle cx="159.60697433573517" cy="173.9344996105536" r="2" fill="rgba(0%,0%,0%,1)"></circle><circle cx="187.19193900615318" cy="77.44314937127572" r="2" fill="rgba(0%,0%,0%,1)"></circle><circle cx="108.44354763654687" cy="177.6061473468442" r="2" fill="rgba(0%,0%,0%,1)"></circle><circle cx="158.4289053105875" cy="84.92832165472808" r="2" fill="rgba(0%,0%,0%,1)"></circle><circle cx="194.96304016029367" cy="138.46928452560869" r="2" fill="rgba(0%,0%,0%,1)"></circle><circle cx="26.137760895178733" cy="207.17840739088587" r="2" fill="rgba(0%,0%,0%,1)"></circle><circle cx="185.43233275730452" cy="150.0903525390185" r="2" fill="rgba(0%,0%,0%,1)"></circle><circle cx="50.15960859010864" cy="208.11176362954302" r="2" fill="rgba(0%,0%,0%,1)"></circle><circle cx="0.34685571190493436" cy="182.10558934491485" r="2" fill="rgba(0%,0%,0%,1)"></circle><circle cx="205.86525710982332" cy="21.05337540432546" r="2" fill="rgba(0%,0%,0%,1)"></circle><circle cx="189.17367017961445" cy="169.01167976475028" r="2" fill="rgba(0%,0%,0%,1)"></circle><circle cx="63.11339865104725" cy="222.49518171999637" r="2" fill="rgba(0%,0%,0%,1)"></circle><circle cx="125.24812590633985" cy="184.95925626875425" r="2" fill="rgba(0%,0%,0%,1)"></circle><circle cx="217.4857298730862" cy="32.92730557578011" r="2" fill="rgba(0%,0%,0%,1)"></circle><circle cx="149.78344273006948" cy="194.36244800418197" r="2" fill="rgba(0%,0%,0%,1)"></circle><circle cx="202.89092195214482" cy="1.3519785918791778" r="2" fill="rgba(0%,0%,0%,1)"></circle><circle cx="165.90186476801682" cy="157.25608456282276" r="2" fill="rgba(0%,0%,0%,1)"></circle><circle cx="132.75423602588504" cy="211.9731280033732" r="2" fill="rgba(0%,0%,0%,1)"></circle><circle cx="195.6153824882215" cy="56.87122198016488" r="2" fill="rgba(0%,0%,0%,1)"></circle><circle cx="39.537634460279946" cy="223.70323855152026" r="2" fill="rgba(0%,0%,0%,1)"></circle><circle cx="171.72344386815794" cy="75.59997239449919" r="2" fill="rgba(0%,0%,0%,1)"></circle><circle cx="62.53261175284799" cy="195.17110128176367" r="2" fill="rgba(0%,0%,0%,1)"></circle><circle cx="88.58949115656489" cy="220.06204839175396" r="2" fill="rgba(0%,0%,0%,1)"></circle><circle cx="214.83910769311447" cy="79.19882088400345" r="2" fill="rgba(0%,0%,0%,1)"></circle><circle cx="187.68319464102916" cy="102.79295763559709" r="2" fill="rgba(0%,0%,0%,1)"></circle><circle cx="154.42532990045711" cy="219.96556257963604" r="2" fill="rgba(0%,0%,0%,1)"></circle><circle cx="222.56642186086083" cy="18.333132640398663" r="2" fill="rgba(0%,0%,0%,1)"></circle><circle cx="216.6464720865958" cy="52.2382675395384" r="2" fill="rgba(0%,0%,0%,1)"></circle><circle cx="170.09741193253797" cy="17.418380202525203" r="2" fill="rgba(0%,0%,0%,1)"></circle><circle cx="238.55651307110358" cy="15.635461376842422" r="2" fill="rgba(0%,0%,0%,1)"></circle><circle cx="35.45819768781571" cy="252.33535683010916" r="2" fill="rgba(0%,0%,0%,1)"></circle><circle cx="232.56097191203017" cy="33.54261496456692" r="2" fill="rgba(0%,0%,0%,1)"></circle><circle cx="173.09905354687476" cy="188.16487329500563" r="2" fill="rgba(0%,0%,0%,1)"></circle><circle cx="161.2487840170931" cy="239.25420434765033" r="2" fill="rgba(0%,0%,0%,1)"></circle><circle cx="170.65283367729526" cy="208.52705489158933" r="2" fill="rgba(0%,0%,0%,1)"></circle><circle cx="155.1828100649986" cy="104.03533213149068" r="2" fill="rgba(0%,0%,0%,1)"></circle><circle cx="174.40258931050488" cy="123.38951585429339" r="2" fill="rgba(0%,0%,0%,1)"></circle><circle cx="19.747016696750386" cy="256.3108596730088" r="2" fill="rgba(0%,0%,0%,1)"></circle><circle cx="40.05027678547576" cy="196.85501045381974" r="2" fill="rgba(0%,0%,0%,1)"></circle><circle cx="8.93310018365021" cy="226.9878541913723" r="2" fill="rgba(0%,0%,0%,1)"></circle><circle cx="199.41892295985718" cy="91.4623365448242" r="2" fill="rgba(0%,0%,0%,1)"></circle><circle cx="73.10875245144157" cy="238.8257031247399" r="2" fill="rgba(0%,0%,0%,1)"></circle><circle cx="253.16113550403458" cy="30.198570368684408" r="2" fill="rgba(0%,0%,0%,1)"></circle><circle cx="168.32643546873703" cy="41.20171797952974" r="2" fill="rgba(0%,0%,0%,1)"></circle><circle cx="99.63248585621592" cy="250.89668649155655" r="2" fill="rgba(0%,0%,0%,1)"></circle><circle cx="107.35229651707296" cy="193.72570208972246" r="2" fill="rgba(0%,0%,0%,1)"></circle><circle cx="156.316795013463" cy="122.2317912283018" r="2" fill="rgba(0%,0%,0%,1)"></circle><circle cx="200.51917536840958" cy="36.319316259917024" r="2" fill="rgba(0%,0%,0%,1)"></circle><circle cx="93.07000745248368" cy="272.6501975659817" r="2" fill="rgba(0%,0%,0%,1)"></circle><circle cx="201.99854102523526" cy="176.84831224314362" r="2" fill="rgba(0%,0%,0%,1)"></circle><circle cx="195.21761662367936" cy="206.67823102156063" r="2" fill="rgba(0%,0%,0%,1)"></circle><circle cx="73.46964786991994" cy="260.40947086581804" r="2" fill="rgba(0%,0%,0%,1)"></circle><circle cx="116.83046401168576" cy="250.7877067264471" r="2" fill="rgba(0%,0%,0%,1)"></circle><circle cx="224.91442364093757" cy="1.2517222568677842" r="2" fill="rgba(0%,0%,0%,1)"></circle><circle cx="125.88835818890584" cy="238.40047042214238" r="2" fill="rgba(0%,0%,0%,1)"></circle><circle cx="172.54289045192795" cy="92.31147584858327" r="2" fill="rgba(0%,0%,0%,1)"></circle><circle cx="244.70187435286925" cy="55.79839114693325" r="2" fill="rgba(0%,0%,0%,1)"></circle><circle cx="58.876424378937934" cy="246.14478453592892" r="2" fill="rgba(0%,0%,0%,1)"></circle><circle cx="1.4772996411494579" cy="263.24382655108855" r="2" fill="rgba(0%,0%,0%,1)"></circle><circle cx="90.03916593577932" cy="187.61971392842787" r="2" fill="rgba(0%,0%,0%,1)"></circle><circle cx="127.35791844731948" cy="277.8934650289087" r="2" fill="rgba(0%,0%,0%,1)"></circle><circle cx="112.43571161821906" cy="266.95225477499054" r="2" fill="rgba(0%,0%,0%,1)"></circle><circle cx="253.69313315947196" cy="69.77817121267827" r="2" fill="rgba(0%,0%,0%,1)"></circle><circle cx="144.21054001609514" cy="179.90110734043682" r="2" fill="rgba(0%,0%,0%,1)"></circle><circle cx="84.30505291827714" cy="202.44908572983553" r="2" fill="rgba(0%,0%,0%,1)"></circle><circle cx="110.28635023598574" cy="209.5936374070591" r="2" fill="rgba(0%,0%,0%,1)"></circle><circle cx="258.0259530182753" cy="48.87634615767832" r="2" fill="rgba(0%,0%,0%,1)"></circle><circle cx="281.5596292942124" cy="58.472048724414655" r="2" fill="rgba(0%,0%,0%,1)"></circle><circle cx="127.23404019972872" cy="301.1921539876085" r="2" fill="rgba(0%,0%,0%,1)"></circle><circle cx="223.47395622478498" cy="101.49397753667057" r="2" fill="rgba(0%,0%,0%,1)"></circle><circle cx="105.13970245102753" cy="236.47874014823563" r="2" fill="rgba(0%,0%,0%,1)"></circle><circle cx="272.30786853340646" cy="9.359360947899857" r="2" fill="rgba(0%,0%,0%,1)"></circle><circle cx="190.24609403468503" cy="188.70678901076752" r="2" fill="rgba(0%,0%,0%,1)"></circle><circle cx="282.0187051126282" cy="36.40135781091289" r="2" fill="rgba(0%,0%,0%,1)"></circle><circle cx="179.01086286716017" cy="236.82985240177183" r="2" fill="rgba(0%,0%,0%,1)"></circle><circle cx="292.6307238045664" cy="82.90000029113514" r="2" fill="rgba(0%,0%,0%,1)"></circle><circle cx="168.6545551003667" cy="264.49753779808236" r="2" fill="rgba(0%,0%,0%,1)"></circle><circle cx="89.41463474055193" cy="235.47556718856916" r="2" fill="rgba(0%,0%,0%,1)"></circle><circle cx="194.74862658376097" cy="116.99739330301092" r="2" fill="rgba(0%,0%,0%,1)"></circle><circle cx="30.56316826545579" cy="235.73398996517642" r="2" fill="rgba(0%,0%,0%,1)"></circle><circle cx="215.8672547150442" cy="202.0154485941094" r="2" fill="rgba(0%,0%,0%,1)"></circle><circle cx="199.897951170017" cy="234.7644063563815" r="2" fill="rgba(0%,0%,0%,1)"></circle><circle cx="108.99133308615079" cy="282.97811061710064" r="2" fill="rgba(0%,0%,0%,1)"></circle><circle cx="143.58086842419317" cy="237.8271209254645" r="2" fill="rgba(0%,0%,0%,1)"></circle><circle cx="137.7974569654752" cy="262.8619403201338" r="2" fill="rgba(0%,0%,0%,1)"></circle><circle cx="144.22923480858842" cy="284.6796562131855" r="2" fill="rgba(0%,0%,0%,1)"></circle><circle cx="293.60238825033423" cy="5.755072568375722" r="2" fill="rgba(0%,0%,0%,1)"></circle><circle cx="210.5210521706951" cy="152.08108342188393" r="2" fill="rgba(0%,0%,0%,1)"></circle><circle cx="161.9883802437636" cy="291.66306071797504" r="2" fill="rgba(0%,0%,0%,1)"></circle><circle cx="274.1468811940378" cy="79.35731072123293" r="2" fill="rgba(0%,0%,0%,1)"></circle><circle cx="10.082487580318809" cy="242.04978966208623" r="2" fill="rgba(0%,0%,0%,1)"></circle><circle cx="81.54163959823143" cy="283.10149525550366" r="2" fill="rgba(0%,0%,0%,1)"></circle><circle cx="184.66229527360798" cy="218.2992735738109" r="2" fill="rgba(0%,0%,0%,1)"></circle><circle cx="246.32230661246405" cy="85.32952990552958" r="2" fill="rgba(0%,0%,0%,1)"></circle><circle cx="304.8293482372615" cy="27.222623284115997" r="2" fill="rgba(0%,0%,0%,1)"></circle><circle cx="194.63915819145714" cy="254.80395036175375" r="2" fill="rgba(0%,0%,0%,1)"></circle><circle cx="193.77955473987208" cy="270.6317411658179" r="2" fill="rgba(0%,0%,0%,1)"></circle><circle cx="280.0212655038584" cy="101.86014852351616" r="2" fill="rgba(0%,0%,0%,1)"></circle><circle cx="188.41412557399815" cy="296.51109872374633" r="2" fill="rgba(0%,0%,0%,1)"></circle><circle cx="213.52846122366424" cy="114.17616110026806" r="2" fill="rgba(0%,0%,0%,1)"></circle><circle cx="260.1971321051311" cy="100.02713283966506" r="2" fill="rgba(0%,0%,0%,1)"></circle><circle cx="225.18372393920885" cy="65.92506924561587" r="2" fill="rgba(0%,0%,0%,1)"></circle><circle cx="136.64001086515339" cy="329.2875259130031" r="2" fill="rgba(0%,0%,0%,1)"></circle><circle cx="218.02011883614665" cy="173.65909876899224" r="2" fill="rgba(0%,0%,0%,1)"></circle><circle cx="211.26366128473836" cy="220.9784841487207" r="2" fill="rgba(0%,0%,0%,1)"></circle><circle cx="115.89654148843937" cy="225.1243392637963" r="2" fill="rgba(0%,0%,0%,1)"></circle><circle cx="169.05263247409297" cy="225.39534456538075" r="2" fill="rgba(0%,0%,0%,1)"></circle><circle cx="152.62043364939686" cy="312.41936248253904" r="2" fill="rgba(0%,0%,0%,1)"></circle><circle cx="211.9297476746586" cy="245.61081533075978" r="2" fill="rgba(0%,0%,0%,1)"></circle><circle cx="85.55294141951562" cy="307.1778779933602" r="2" fill="rgba(0%,0%,0%,1)"></circle><circle cx="243.0444436317697" cy="158.2782167176647" r="2" fill="rgba(0%,0%,0%,1)"></circle><circle cx="289.4181842827364" cy="20.535911145435076" r="2" fill="rgba(0%,0%,0%,1)"></circle><circle cx="176.99574030033025" cy="281.15422769707885" r="2" fill="rgba(0%,0%,0%,1)"></circle><circle cx="229.11610763745847" cy="84.08372748025936" r="2" fill="rgba(0%,0%,0%,1)"></circle><circle cx="308.34688724184514" cy="106.19538855720204" r="2" fill="rgba(0%,0%,0%,1)"></circle><circle cx="240.45864632254703" cy="213.2088440014135" r="2" fill="rgba(0%,0%,0%,1)"></circle><circle cx="49.56764558144447" cy="268.6114704664714" r="2" fill="rgba(0%,0%,0%,1)"></circle><circle cx="211.33149042333534" cy="134.92840829194827" r="2" fill="rgba(0%,0%,0%,1)"></circle><circle cx="227.17611287897864" cy="140.24683247746927" r="2" fill="rgba(0%,0%,0%,1)"></circle><circle cx="259.1020460133485" cy="194.34653846591218" r="2" fill="rgba(0%,0%,0%,1)"></circle><circle cx="310.7315240781577" cy="43.798452332231946" r="2" fill="rgba(0%,0%,0%,1)"></circle><circle cx="204.83119842353437" cy="287.3205825929056" r="2" fill="rgba(0%,0%,0%,1)"></circle><circle cx="255.2595056802556" cy="218.6590838075939" r="2" fill="rgba(0%,0%,0%,1)"></circle><circle cx="309.8709807112969" cy="1.8011832534108023" r="2" fill="rgba(0%,0%,0%,1)"></circle><circle cx="228.08615651466172" cy="222.79887320582924" r="2" fill="rgba(0%,0%,0%,1)"></circle><circle cx="232.26789733617895" cy="123.46769631750172" r="2" fill="rgba(0%,0%,0%,1)"></circle><circle cx="140.70989041455982" cy="354.1023583591063" r="2" fill="rgba(0%,0%,0%,1)"></circle><circle cx="324.0722122991826" cy="8.381674828243678" r="2" fill="rgba(0%,0%,0%,1)"></circle><circle cx="209.67675016552005" cy="260.91088092769735" r="2" fill="rgba(0%,0%,0%,1)"></circle><circle cx="201.77279205318086" cy="70.73873979089667" r="2" fill="rgba(0%,0%,0%,1)"></circle><circle cx="162.14486456039154" cy="325.82030751191917" r="2" fill="rgba(0%,0%,0%,1)"></circle><circle cx="172.09887434391104" cy="303.4280757819169" r="2" fill="rgba(0%,0%,0%,1)"></circle><circle cx="11.566949966999168" cy="281.6567356247024" r="2" fill="rgba(0%,0%,0%,1)"></circle><circle cx="256.85188573113913" cy="135.17741268530477" r="2" fill="rgba(0%,0%,0%,1)"></circle><circle cx="335.11086554192445" cy="24.92219411508427" r="2" fill="rgba(0%,0%,0%,1)"></circle><circle cx="222.56076907851553" cy="275.479761827853" r="2" fill="rgba(0%,0%,0%,1)"></circle><circle cx="233.94907407709198" cy="250.0194079544647" r="2" fill="rgba(0%,0%,0%,1)"></circle><circle cx="152.57838389010138" cy="255.39611325887518" r="2" fill="rgba(0%,0%,0%,1)"></circle><circle cx="318.27322272911954" cy="67.59634376969727" r="2" fill="rgba(0%,0%,0%,1)"></circle><circle cx="27.833393699066676" cy="277.0391567804774" r="2" fill="rgba(0%,0%,0%,1)"></circle><circle cx="243.35521147710043" cy="142.0496734451224" r="2" fill="rgba(0%,0%,0%,1)"></circle><circle cx="186.0366251907991" cy="319.55844381361925" r="2" fill="rgba(0%,0%,0%,1)"></circle><circle cx="33.55594933760601" cy="296.2850164411385" r="2" fill="rgba(0%,0%,0%,1)"></circle><circle cx="250.24210210484526" cy="175.416501707712" r="2" fill="rgba(0%,0%,0%,1)"></circle><circle cx="234.06897824415495" cy="183.6293919622978" r="2" fill="rgba(0%,0%,0%,1)"></circle><circle cx="300.8537923004234" cy="56.68305485870379" r="2" fill="rgba(0%,0%,0%,1)"></circle><circle cx="280.9899581505346" cy="117.98619998925281" r="2" fill="rgba(0%,0%,0%,1)"></circle><circle cx="135.36300542536407" cy="313.8206315564169" r="2" fill="rgba(0%,0%,0%,1)"></circle><circle cx="244.6152678290705" cy="263.88954221926605" r="2" fill="rgba(0%,0%,0%,1)"></circle><circle cx="45.501863193604265" cy="238.78281282825685" r="2" fill="rgba(0%,0%,0%,1)"></circle><circle cx="65.40696209163862" cy="286.51812247053846" r="2" fill="rgba(0%,0%,0%,1)"></circle><circle cx="251.43963420933002" cy="119.29158826168957" r="2" fill="rgba(0%,0%,0%,1)"></circle><circle cx="272.53031590145986" cy="161.69627066360482" r="2" fill="rgba(0%,0%,0%,1)"></circle><circle cx="265.9190194548222" cy="177.71371204497387" r="2" fill="rgba(0%,0%,0%,1)"></circle><circle cx="252.60054656129023" cy="235.3928033254647" r="2" fill="rgba(0%,0%,0%,1)"></circle><circle cx="107.62893125786094" cy="305.62490335200505" r="2" fill="rgba(0%,0%,0%,1)"></circle><circle cx="285.96813334404834" cy="142.2929835378049" r="2" fill="rgba(0%,0%,0%,1)"></circle><circle cx="338.8910539582539" cy="50.70794292049624" r="2" fill="rgba(0%,0%,0%,1)"></circle><circle cx="118.71331911466537" cy="352.36452180320055" r="2" fill="rgba(0%,0%,0%,1)"></circle><circle cx="208.325707977466" cy="306.28466245411875" r="2" fill="rgba(0%,0%,0%,1)"></circle><circle cx="275.5583579812929" cy="191.168861811536" r="2" fill="rgba(0%,0%,0%,1)"></circle><circle cx="65.48560593777445" cy="301.54415338437576" r="2" fill="rgba(0%,0%,0%,1)"></circle><circle cx="239.68907527215103" cy="106.7935466571571" r="2" fill="rgba(0%,0%,0%,1)"></circle><circle cx="50.84913260546716" cy="311.68668063481823" r="2" fill="rgba(0%,0%,0%,1)"></circle><circle cx="275.12509801500306" cy="131.80578886787833" r="2" fill="rgba(0%,0%,0%,1)"></circle><circle cx="226.94346707431623" cy="160.81283403667038" r="2" fill="rgba(0%,0%,0%,1)"></circle><circle cx="258.425306329666" cy="152.74260710440362" r="2" fill="rgba(0%,0%,0%,1)"></circle><circle cx="252.72650339906133" cy="2.836766179135938" r="2" fill="rgba(0%,0%,0%,1)"></circle><circle cx="95.19762323656926" cy="338.3314260125698" r="2" fill="rgba(0%,0%,0%,1)"></circle><circle cx="103.18839574846008" cy="325.46438295954226" r="2" fill="rgba(0%,0%,0%,1)"></circle><circle cx="123.68488760747978" cy="199.9482699811488" r="2" fill="rgba(0%,0%,0%,1)"></circle><circle cx="272.1660466877658" cy="24.968023673928787" r="2" fill="rgba(0%,0%,0%,1)"></circle><circle cx="241.88687940623956" cy="197.28246619618537" r="2" fill="rgba(0%,0%,0%,1)"></circle><circle cx="309.9085247167837" cy="84.93602475632659" r="2" fill="rgba(0%,0%,0%,1)"></circle><circle cx="299.82857186844205" cy="127.47707843898884" r="2" fill="rgba(0%,0%,0%,1)"></circle><circle cx="166.65518462898157" cy="354.0576965278008" r="2" fill="rgba(0%,0%,0%,1)"></circle><circle cx="151.32709585259812" cy="271.1149904131226" r="2" fill="rgba(0%,0%,0%,1)"></circle><circle cx="289.17925469345437" cy="184.36076313198498" r="2" fill="rgba(0%,0%,0%,1)"></circle><circle cx="297.61893554608633" cy="166.18167502774327" r="2" fill="rgba(0%,0%,0%,1)"></circle><circle cx="117.73389226720259" cy="318.7143893997497" r="2" fill="rgba(0%,0%,0%,1)"></circle><circle cx="95.19874207786397" cy="356.76747317806087" r="2" fill="rgba(0%,0%,0%,1)"></circle><circle cx="112.96247563514181" cy="337.33777196260996" r="2" fill="rgba(0%,0%,0%,1)"></circle><circle cx="314.2729612224886" cy="133.3903962697158" r="2" fill="rgba(0%,0%,0%,1)"></circle><circle cx="113.00054378137997" cy="380.5895299378986" r="2" fill="rgba(0%,0%,0%,1)"></circle><circle cx="295.84585784698714" cy="212.3672819453546" r="2" fill="rgba(0%,0%,0%,1)"></circle><circle cx="78.80237273510757" cy="357.06803243360014" r="2" fill="rgba(0%,0%,0%,1)"></circle><circle cx="80.52628201268507" cy="327.2959788154805" r="2" fill="rgba(0%,0%,0%,1)"></circle><circle cx="324.7375218913352" cy="106.21158752326023" r="2" fill="rgba(0%,0%,0%,1)"></circle><circle cx="285.562671668192" cy="236.98398076655263" r="2" fill="rgba(0%,0%,0%,1)"></circle><circle cx="309.6000399184097" cy="249.76591322208748" r="2" fill="rgba(0%,0%,0%,1)"></circle><circle cx="237.60829009570574" cy="295.24643677129234" r="2" fill="rgba(0%,0%,0%,1)"></circle><circle cx="201.09550209166005" cy="342.2261995441341" r="2" fill="rgba(0%,0%,0%,1)"></circle><circle cx="273.5531179830544" cy="209.59787621648886" r="2" fill="rgba(0%,0%,0%,1)"></circle><circle cx="215.83434732487837" cy="323.9266828215826" r="2" fill="rgba(0%,0%,0%,1)"></circle><circle cx="366.2155401268537" cy="42.701961150489446" r="2" fill="rgba(0%,0%,0%,1)"></circle><circle cx="261.0605545924746" cy="266.7415737171914" r="2" fill="rgba(0%,0%,0%,1)"></circle><circle cx="78.01098017963776" cy="380.0046817144964" r="2" fill="rgba(0%,0%,0%,1)"></circle><circle cx="340.91725471296553" cy="110.30024942856136" r="2" fill="rgba(0%,0%,0%,1)"></circle><circle cx="92.6962629215788" cy="383.76363638605005" r="2" fill="rgba(0%,0%,0%,1)"></circle><circle cx="278.3799846829064" cy="254.98710473282117" r="2" fill="rgba(0%,0%,0%,1)"></circle><circle cx="184.06096453351205" cy="342.40129803441494" r="2" fill="rgba(0%,0%,0%,1)"></circle><circle cx="153.9852890147695" cy="345.82445597250194" r="2" fill="rgba(0%,0%,0%,1)"></circle><circle cx="66.08856362452867" cy="338.9231166064652" r="2" fill="rgba(0%,0%,0%,1)"></circle><circle cx="356.3527623537064" cy="23.761290563264712" r="2" fill="rgba(0%,0%,0%,1)"></circle><circle cx="256.6968911579811" cy="289.2278999174175" r="2" fill="rgba(0%,0%,0%,1)"></circle><circle cx="309.3916891719078" cy="196.4311468668701" r="2" fill="rgba(0%,0%,0%,1)"></circle><circle cx="292.891762850452" cy="260.17445248332547" r="2" fill="rgba(0%,0%,0%,1)"></circle><circle cx="188.09326251166738" cy="371.0732548639903" r="2" fill="rgba(0%,0%,0%,1)"></circle><circle cx="335.615992125165" cy="74.22306235037044" r="2" fill="rgba(0%,0%,0%,1)"></circle><circle cx="330.6555055284218" cy="139.5993207711586" r="2" fill="rgba(0%,0%,0%,1)"></circle><circle cx="162.92603637922764" cy="379.17002890410424" r="2" fill="rgba(0%,0%,0%,1)"></circle><circle cx="260.54113232105624" cy="309.3620822950936" r="2" fill="rgba(0%,0%,0%,1)"></circle><circle cx="273.8740203166451" cy="226.02622246434433" r="2" fill="rgba(0%,0%,0%,1)"></circle><circle cx="199.7724558788265" cy="326.6024675850947" r="2" fill="rgba(0%,0%,0%,1)"></circle><circle cx="137.8161787891316" cy="370.038553170137" r="2" fill="rgba(0%,0%,0%,1)"></circle><circle cx="325.6219809207875" cy="155.95437636425046" r="2" fill="rgba(0%,0%,0%,1)"></circle><circle cx="16.40690242293157" cy="301.97401788430614" r="2" fill="rgba(0%,0%,0%,1)"></circle><circle cx="57.16146377527151" cy="400.4098077809681" r="2" fill="rgba(0%,0%,0%,1)"></circle><circle cx="332.05242320758947" cy="89.52773891702712" r="2" fill="rgba(0%,0%,0%,1)"></circle><circle cx="347.14429821258955" cy="88.00415146382977" r="2" fill="rgba(0%,0%,0%,1)"></circle><circle cx="271.7692123585845" cy="280.6025880229697" r="2" fill="rgba(0%,0%,0%,1)"></circle><circle cx="220.43320966562524" cy="345.65179566712254" r="2" fill="rgba(0%,0%,0%,1)"></circle><circle cx="325.3485016461525" cy="255.0836255278011" r="2" fill="rgba(0%,0%,0%,1)"></circle><circle cx="375.72033207096473" cy="90.63143636735944" r="2" fill="rgba(0%,0%,0%,1)"></circle><circle cx="352.29222209798445" cy="252.97954640179958" r="2" fill="rgba(0%,0%,0%,1)"></circle><circle cx="265.2691590148593" cy="244.2905982188801" r="2" fill="rgba(0%,0%,0%,1)"></circle><circle cx="26.135891468064077" cy="316.5384608498529" r="2" fill="rgba(0%,0%,0%,1)"></circle><circle cx="95.74229354768575" cy="291.19008608147385" r="2" fill="rgba(0%,0%,0%,1)"></circle><circle cx="134.77445616275395" cy="386.2064077164094" r="2" fill="rgba(0%,0%,0%,1)"></circle><circle cx="221.75901080467648" cy="298.5874148187775" r="2" fill="rgba(0%,0%,0%,1)"></circle><circle cx="2.0953550690200973" cy="313.7147375281948" r="2" fill="rgba(0%,0%,0%,1)"></circle><circle cx="319.50111662471204" cy="211.38726268110466" r="2" fill="rgba(0%,0%,0%,1)"></circle><circle cx="121.74875764234343" cy="393.8669813402926" r="2" fill="rgba(0%,0%,0%,1)"></circle><circle cx="351.17139171491215" cy="62.51034974233298" r="2" fill="rgba(0%,0%,0%,1)"></circle><circle cx="110.5611693148586" cy="407.3565022566468" r="2" fill="rgba(0%,0%,0%,1)"></circle><circle cx="379.90210066418246" cy="25.856176253063055" r="2" fill="rgba(0%,0%,0%,1)"></circle><circle cx="76.67174052139696" cy="407.5359715627335" r="2" fill="rgba(0%,0%,0%,1)"></circle><circle cx="308.0114070866447" cy="153.71893033372916" r="2" fill="rgba(0%,0%,0%,1)"></circle><circle cx="312.18813389156134" cy="172.26520554980632" r="2" fill="rgba(0%,0%,0%,1)"></circle><circle cx="54.51611081547339" cy="376.12183594321783" r="2" fill="rgba(0%,0%,0%,1)"></circle><circle cx="51.83419848278381" cy="351.8670156133895" r="2" fill="rgba(0%,0%,0%,1)"></circle><circle cx="320.0286920127699" cy="29.563460701669477" r="2" fill="rgba(0%,0%,0%,1)"></circle><circle cx="44.65713360469664" cy="325.76353659566" r="2" fill="rgba(0%,0%,0%,1)"></circle><circle cx="321.25191814833664" cy="229.28509682258806" r="2" fill="rgba(0%,0%,0%,1)"></circle><circle cx="240.2062308730315" cy="330.00541666310266" r="2" fill="rgba(0%,0%,0%,1)"></circle><circle cx="379.36858834293906" cy="110.54618202748485" r="2" fill="rgba(0%,0%,0%,1)"></circle><circle cx="341.52766443111534" cy="5.6060414630911515" r="2" fill="rgba(0%,0%,0%,1)"></circle><circle cx="304.06798084761465" cy="228.42186580463874" r="2" fill="rgba(0%,0%,0%,1)"></circle><circle cx="237.43766864150166" cy="278.5678757663629" r="2" fill="rgba(0%,0%,0%,1)"></circle><circle cx="285.0569985723769" cy="300.636773116799" r="2" fill="rgba(0%,0%,0%,1)"></circle><circle cx="338.5474090434449" cy="178.9540970260387" r="2" fill="rgba(0%,0%,0%,1)"></circle><circle cx="45.05076794600832" cy="285.1460636849697" r="2" fill="rgba(0%,0%,0%,1)"></circle><circle cx="70.45531400237353" cy="424.0265095781677" r="2" fill="rgba(0%,0%,0%,1)"></circle><circle cx="358.70822509111093" cy="5.745900063784332" r="2" fill="rgba(0%,0%,0%,1)"></circle><circle cx="353.55413352419725" cy="282.35187719860136" r="2" fill="rgba(0%,0%,0%,1)"></circle><circle cx="232.33678179011923" cy="315.158256564915" r="2" fill="rgba(0%,0%,0%,1)"></circle><circle cx="362.93812123081534" cy="101.2550617356819" r="2" fill="rgba(0%,0%,0%,1)"></circle><circle cx="35.652841516725516" cy="358.13012447640574" r="2" fill="rgba(0%,0%,0%,1)"></circle><circle cx="247.31909114673172" cy="351.91402436133575" r="2" fill="rgba(0%,0%,0%,1)"></circle><circle cx="347.8478778853179" cy="133.23856489216638" r="2" fill="rgba(0%,0%,0%,1)"></circle><circle cx="30.916144744642086" cy="343.65793096577374" r="2" fill="rgba(0%,0%,0%,1)"></circle><circle cx="269.71529195649566" cy="296.7523932265045" r="2" fill="rgba(0%,0%,0%,1)"></circle><circle cx="9.183200724563113" cy="335.34193930071524" r="2" fill="rgba(0%,0%,0%,1)"></circle><circle cx="288.83931731313663" cy="285.186551100275" r="2" fill="rgba(0%,0%,0%,1)"></circle><circle cx="93.08047654746126" cy="412.4805893976576" r="2" fill="rgba(0%,0%,0%,1)"></circle><circle cx="168.09240342638589" cy="399.4649516142542" r="2" fill="rgba(0%,0%,0%,1)"></circle><circle cx="119.61161011953936" cy="434.55411619461705" r="2" fill="rgba(0%,0%,0%,1)"></circle><circle cx="258.74003308866645" cy="341.9292674941175" r="2" fill="rgba(0%,0%,0%,1)"></circle><circle cx="267.586142152792" cy="327.3450655603413" r="2" fill="rgba(0%,0%,0%,1)"></circle><circle cx="113.23425677882784" cy="460.4479399714287" r="2" fill="rgba(0%,0%,0%,1)"></circle><circle cx="348.65166558206454" cy="156.3045351002354" r="2" fill="rgba(0%,0%,0%,1)"></circle><circle cx="6.940457902347284" cy="357.5862134183107" r="2" fill="rgba(0%,0%,0%,1)"></circle><circle cx="237.59801553195987" cy="235.10319799366465" r="2" fill="rgba(0%,0%,0%,1)"></circle><circle cx="184.78868247185525" cy="418.22796587518235" r="2" fill="rgba(0%,0%,0%,1)"></circle><circle cx="368.421848967541" cy="72.01101655550163" r="2" fill="rgba(0%,0%,0%,1)"></circle><circle cx="330.52534965209884" cy="122.01098601866282" r="2" fill="rgba(0%,0%,0%,1)"></circle><circle cx="205.99529543377838" cy="356.71007657618765" r="2" fill="rgba(0%,0%,0%,1)"></circle><circle cx="387.92498780419993" cy="62.43825938304157" r="2" fill="rgba(0%,0%,0%,1)"></circle><circle cx="39.505903676870325" cy="403.75009201113704" r="2" fill="rgba(0%,0%,0%,1)"></circle><circle cx="29.325024605104765" cy="390.59682581858993" r="2" fill="rgba(0%,0%,0%,1)"></circle><circle cx="157.3437167239937" cy="426.8015363748856" r="2" fill="rgba(0%,0%,0%,1)"></circle><circle cx="349.1700416534484" cy="38.087394167176164" r="2" fill="rgba(0%,0%,0%,1)"></circle><circle cx="89.02786708784816" cy="429.5076409645192" r="2" fill="rgba(0%,0%,0%,1)"></circle><circle cx="361.8215641881607" cy="194.61891972391714" r="2" fill="rgba(0%,0%,0%,1)"></circle><circle cx="128.44634003807394" cy="422.23570538926646" r="2" fill="rgba(0%,0%,0%,1)"></circle><circle cx="203.45584185226042" cy="429.9132383560353" r="2" fill="rgba(0%,0%,0%,1)"></circle><circle cx="146.94839192249142" cy="395.3050891463842" r="2" fill="rgba(0%,0%,0%,1)"></circle><circle cx="71.94451574293359" cy="443.16782140923436" r="2" fill="rgba(0%,0%,0%,1)"></circle><circle cx="53.694712763654756" cy="461.049587575491" r="2" fill="rgba(0%,0%,0%,1)"></circle><circle cx="226.81227342290308" cy="441.04615110068164" r="2" fill="rgba(0%,0%,0%,1)"></circle><circle cx="375.54720723219725" cy="0.6867327536581279" r="2" fill="rgba(0%,0%,0%,1)"></circle><circle cx="208.89274059597406" cy="381.831002486639" r="2" fill="rgba(0%,0%,0%,1)"></circle><circle cx="380.22656354490863" cy="136.77211862300032" r="2" fill="rgba(0%,0%,0%,1)"></circle><circle cx="133.17848579984235" cy="443.44504129536756" r="2" fill="rgba(0%,0%,0%,1)"></circle><circle cx="135.654915912895" cy="409.01585886629846" r="2" fill="rgba(0%,0%,0%,1)"></circle><circle cx="29.74655681028622" cy="372.1058020675283" r="2" fill="rgba(0%,0%,0%,1)"></circle><circle cx="391.2761710979778" cy="42.745698550234216" r="2" fill="rgba(0%,0%,0%,1)"></circle><circle cx="312.94489345419777" cy="300.85384741057146" r="2" fill="rgba(0%,0%,0%,1)"></circle><circle cx="373.44309886548416" cy="168.57686331209302" r="2" fill="rgba(0%,0%,0%,1)"></circle><circle cx="399.3880246946197" cy="7.619109588862084" r="2" fill="rgba(0%,0%,0%,1)"></circle><circle cx="378.75187970546517" cy="277.0263046596363" r="2" fill="rgba(0%,0%,0%,1)"></circle><circle cx="340.95229352186425" cy="207.0412354634691" r="2" fill="rgba(0%,0%,0%,1)"></circle><circle cx="325.285242238513" cy="192.73464787531327" r="2" fill="rgba(0%,0%,0%,1)"></circle><circle cx="64.1056154190462" cy="364.0351868732076" r="2" fill="rgba(0%,0%,0%,1)"></circle><circle cx="287.7815663098715" cy="318.9310299209789" r="2" fill="rgba(0%,0%,0%,1)"></circle><circle cx="345.0737438732244" cy="233.3065313802496" r="2" fill="rgba(0%,0%,0%,1)"></circle><circle cx="182.52566418961507" cy="443.3175726993143" r="2" fill="rgba(0%,0%,0%,1)"></circle><circle cx="307.66239309901476" cy="317.846103489723" r="2" fill="rgba(0%,0%,0%,1)"></circle><circle cx="280.7743532829167" cy="343.8193764226172" r="2" fill="rgba(0%,0%,0%,1)"></circle><circle cx="217.54125169448133" cy="367.9822790418094" r="2" fill="rgba(0%,0%,0%,1)"></circle><circle cx="361.0625021743842" cy="215.22535019982584" r="2" fill="rgba(0%,0%,0%,1)"></circle><circle cx="268.62479707711344" cy="355.0662969017375" r="2" fill="rgba(0%,0%,0%,1)"></circle><circle cx="192.75575952377227" cy="396.3514372894292" r="2" fill="rgba(0%,0%,0%,1)"></circle><circle cx="162.68490221717545" cy="446.9036397026067" r="2" fill="rgba(0%,0%,0%,1)"></circle><circle cx="330.31512219912236" cy="307.2693267839022" r="2" fill="rgba(0%,0%,0%,1)"></circle><circle cx="172.349742882458" cy="426.7059372664254" r="2" fill="rgba(0%,0%,0%,1)"></circle><circle cx="405.6604635346225" cy="32.35918507823649" r="2" fill="rgba(0%,0%,0%,1)"></circle><circle cx="419.51260525006927" cy="44.30167573341378" r="2" fill="rgba(0%,0%,0%,1)"></circle><circle cx="255.4789504353397" cy="368.45797980612844" r="2" fill="rgba(0%,0%,0%,1)"></circle><circle cx="122.89872752479627" cy="367.32090316108145" r="2" fill="rgba(0%,0%,0%,1)"></circle><circle cx="90.81165883274446" cy="456.49377051924444" r="2" fill="rgba(0%,0%,0%,1)"></circle><circle cx="425.2067287610326" cy="16.605226435351714" r="2" fill="rgba(0%,0%,0%,1)"></circle><circle cx="400.28577192595804" cy="133.16902688785603" r="2" fill="rgba(0%,0%,0%,1)"></circle><circle cx="308.9661474684615" cy="333.78064919333195" r="2" fill="rgba(0%,0%,0%,1)"></circle><circle cx="13.713226904424648" cy="377.4858878161794" r="2" fill="rgba(0%,0%,0%,1)"></circle><circle cx="388.501608736522" cy="251.15283512366477" r="2" fill="rgba(0%,0%,0%,1)"></circle><circle cx="2.491141663138993" cy="295.85240890112925" r="2" fill="rgba(0%,0%,0%,1)"></circle><circle cx="407.3681139452286" cy="63.91686649159993" r="2" fill="rgba(0%,0%,0%,1)"></circle><circle cx="313.2972008430661" cy="275.8867969568631" r="2" fill="rgba(0%,0%,0%,1)"></circle><circle cx="217.73071309046378" cy="405.020153731605" r="2" fill="rgba(0%,0%,0%,1)"></circle><circle cx="396.3285288231129" cy="154.75229522987374" r="2" fill="rgba(0%,0%,0%,1)"></circle><circle cx="354.0553611131404" cy="180.67578623524645" r="2" fill="rgba(0%,0%,0%,1)"></circle><circle cx="24.21470481671253" cy="406.31088075817576" r="2" fill="rgba(0%,0%,0%,1)"></circle><circle cx="48.63675744835334" cy="418.7344790669464" r="2" fill="rgba(0%,0%,0%,1)"></circle><circle cx="327.0860172608769" cy="285.75421582832024" r="2" fill="rgba(0%,0%,0%,1)"></circle><circle cx="211.97118866832707" cy="444.18862649053625" r="2" fill="rgba(0%,0%,0%,1)"></circle><circle cx="367.44318530508247" cy="146.17289396485782" r="2" fill="rgba(0%,0%,0%,1)"></circle><circle cx="374.3682457785309" cy="203.17720030903354" r="2" fill="rgba(0%,0%,0%,1)"></circle><circle cx="177.40826167860888" cy="384.7698792961253" r="2" fill="rgba(0%,0%,0%,1)"></circle><circle cx="101.02998498621382" cy="440.31753175858563" r="2" fill="rgba(0%,0%,0%,1)"></circle><circle cx="414.9644115469596" cy="90.86583336959984" r="2" fill="rgba(0%,0%,0%,1)"></circle><circle cx="231.112603830084" cy="420.3705837936612" r="2" fill="rgba(0%,0%,0%,1)"></circle><circle cx="264.699757981807" cy="386.1662835376883" r="2" fill="rgba(0%,0%,0%,1)"></circle><circle cx="155.7531397416168" cy="408.2542474225401" r="2" fill="rgba(0%,0%,0%,1)"></circle><circle cx="293.8073527422998" cy="360.1058971918372" r="2" fill="rgba(0%,0%,0%,1)"></circle><circle cx="44.42482290534717" cy="387.5121545011957" r="2" fill="rgba(0%,0%,0%,1)"></circle><circle cx="336.9549636583963" cy="271.8136121169673" r="2" fill="rgba(0%,0%,0%,1)"></circle><circle cx="22.218435722664154" cy="427.5255853196578" r="2" fill="rgba(0%,0%,0%,1)"></circle><circle cx="424.2607491724774" cy="0.5844311062937254" r="2" fill="rgba(0%,0%,0%,1)"></circle><circle cx="229.93443109216594" cy="468.6351492219521" r="2" fill="rgba(0%,0%,0%,1)"></circle><circle cx="413.8047439715116" cy="255.3488715188913" r="2" fill="rgba(0%,0%,0%,1)"></circle><circle cx="397.5493486623951" cy="80.57237565984141" r="2" fill="rgba(0%,0%,0%,1)"></circle><circle cx="368.8402650790458" cy="125.90508141086804" r="2" fill="rgba(0%,0%,0%,1)"></circle><circle cx="371.62440962507503" cy="232.55652290304056" r="2" fill="rgba(0%,0%,0%,1)"></circle><circle cx="107.64540411433856" cy="424.6399593596326" r="2" fill="rgba(0%,0%,0%,1)"></circle><circle cx="52.33250594196408" cy="440.0144648234594" r="2" fill="rgba(0%,0%,0%,1)"></circle><circle cx="356.59346065302043" cy="115.51486536911575" r="2" fill="rgba(0%,0%,0%,1)"></circle><circle cx="8.326641284858539" cy="403.8317752653302" r="2" fill="rgba(0%,0%,0%,1)"></circle><circle cx="340.54860891335477" cy="293.5801929100536" r="2" fill="rgba(0%,0%,0%,1)"></circle><circle cx="367.91505560851573" cy="261.9138754850619" r="2" fill="rgba(0%,0%,0%,1)"></circle><circle cx="443.41287671589913" cy="29.241875312770986" r="2" fill="rgba(0%,0%,0%,1)"></circle><circle cx="450.1929374240272" cy="2.8852985114777803" r="2" fill="rgba(0%,0%,0%,1)"></circle><circle cx="280.13789011292164" cy="371.3886454680881" r="2" fill="rgba(0%,0%,0%,1)"></circle><circle cx="118.59522792495866" cy="477.3804262274045" r="2" fill="rgba(0%,0%,0%,1)"></circle><circle cx="235.69210115612185" cy="374.3903229850687" r="2" fill="rgba(0%,0%,0%,1)"></circle><circle cx="148.16020228861797" cy="458.27422151921735" r="2" fill="rgba(0%,0%,0%,1)"></circle><circle cx="244.2945301874675" cy="410.9735983709606" r="2" fill="rgba(0%,0%,0%,1)"></circle><circle cx="392.28829783413295" cy="220.02172184338139" r="2" fill="rgba(0%,0%,0%,1)"></circle><circle cx="307.56001208564254" cy="372.4232222437659" r="2" fill="rgba(0%,0%,0%,1)"></circle><circle cx="395.40256623600527" cy="180.81325891413465" r="2" fill="rgba(0%,0%,0%,1)"></circle><circle cx="208.09034955139992" cy="483.3634509099456" r="2" fill="rgba(0%,0%,0%,1)"></circle><circle cx="172.3854945947321" cy="470.018364497921" r="2" fill="rgba(0%,0%,0%,1)"></circle><circle cx="405.66036865478907" cy="230.1793544379579" r="2" fill="rgba(0%,0%,0%,1)"></circle><circle cx="399.1415262540083" cy="274.2754585236483" r="2" fill="rgba(0%,0%,0%,1)"></circle><circle cx="392.70827543932097" cy="102.3236530404251" r="2" fill="rgba(0%,0%,0%,1)"></circle><circle cx="414.72761701761084" cy="144.73051105374478" r="1.93" fill="rgba(0%,0%,0%,1)"></circle><circle cx="226.85992091651602" cy="390.2098114310762" r="1.93" fill="rgba(0%,0%,0%,1)"></circle><circle cx="415.7932760166056" cy="184.18509295352874" r="1.845" fill="rgba(0%,0%,0%,1)"></circle><circle cx="325.1641260908002" cy="340.9319634681129" r="1.845" fill="rgba(0%,0%,0%,1)"></circle><circle cx="403.2103032964424" cy="116.82444542006641" r="1.755" fill="rgba(0%,0%,0%,1)"></circle><circle cx="250.2071746165241" cy="485.40569209501746" r="1.675" fill="rgba(0%,0%,0%,1)"></circle><circle cx="245.1557155481503" cy="386.0478678791361" r="1.675" fill="rgba(0%,0%,0%,1)"></circle><circle cx="242.1299761702529" cy="459.66706503328044" r="1.595" fill="rgba(0%,0%,0%,1)"></circle><circle cx="354.2396605311622" cy="301.77333302844835" r="1.51" fill="rgba(0%,0%,0%,1)"></circle><circle cx="254.72183736853393" cy="436.0445650201531" r="1.51" fill="rgba(0%,0%,0%,1)"></circle><circle cx="293.2930592697894" cy="383.0765351392312" r="1.425" fill="rgba(0%,0%,0%,1)"></circle><circle cx="210.25625753908537" cy="461.20455371156055" r="1.335" fill="rgba(0%,0%,0%,1)"></circle><circle cx="443.79684696779094" cy="94.3947502898311" r="1.335" fill="rgba(0%,0%,0%,1)"></circle><circle cx="60.676969043525126" cy="323.54957214174885" r="1.26" fill="rgba(0%,0%,0%,1)"></circle><circle cx="197.01650015301803" cy="448.4363059655716" r="1.26" fill="rgba(0%,0%,0%,1)"></circle><circle cx="315.60888530165823" cy="354.84280074880536" r="1.26" fill="rgba(0%,0%,0%,1)"></circle><circle cx="460.6732047587976" cy="39.38324119949641" r="1.175" fill="rgba(0%,0%,0%,1)"></circle><circle cx="135.04251797716447" cy="467.31159337922605" r="0.995" fill="rgba(0%,0%,0%,1)"></circle><circle cx="264.3661743574076" cy="408.17342790000066" r="0.93" fill="rgba(0%,0%,0%,1)"></circle><circle cx="155.76134434665434" cy="488.00852442942124" r="0.93" fill="rgba(0%,0%,0%,1)"></circle><circle cx="284.6344639321825" cy="422.16319837733704" r="0.93" fill="rgba(0%,0%,0%,1)"></circle><circle cx="419.31257446896717" cy="105.6322954444066" r="0.835" fill="rgba(0%,0%,0%,1)"></circle><circle cx="336.4433958364201" cy="326.0503578362328" r="0.835" fill="rgba(0%,0%,0%,1)"></circle><circle cx="379.8959239713008" cy="187.9127348332661" r="0.835" fill="rgba(0%,0%,0%,1)"></circle><circle cx="138.18355141041752" cy="485.0948481382829" r="0.74" fill="rgba(0%,0%,0%,1)"></circle><circle cx="394.35450701364897" cy="197.14126533898366" r="0.675" fill="rgba(0%,0%,0%,1)"></circle><circle cx="191.97078049538638" cy="469.91195259700083" r="0.675" fill="rgba(0%,0%,0%,1)"></circle><circle cx="36.538273031197775" cy="454.1400683482697" r="0.585" fill="rgba(0%,0%,0%,1)"></circle><circle cx="431.5994764043989" cy="265.7971292044007" r="0.585" fill="rgba(0%,0%,0%,1)"></circle><circle cx="176.04282631282769" cy="494.05779928492" r="0.505" fill="rgba(0%,0%,0%,1)"></circle><circle cx="385.1644592267795" cy="292.42186461298564" r="0.425" fill="rgba(0%,0%,0%,1)"></circle><circle cx="452.30326070040684" cy="267.31270226669625" r="0.425" fill="rgba(0%,0%,0%,1)"></circle><circle cx="157.22494569342913" cy="471.07396907612645" r="0.085" fill="rgba(0%,0%,0%,1)"></circle><circle cx="192.659955940946" cy="488.8994182720269" r="0" fill="rgba(0%,0%,0%,1)"></circle></g><g><circle cx="49.56764558144447" cy="268.6114704664714" r="2" fill="rgba(80%,0%,0%,1)"></circle><circle cx="50.84913260546716" cy="311.68668063481823" r="2" fill="rgba(80%,0%,0%,1)"></circle><circle cx="309.6000399184097" cy="249.76591322208748" r="2" fill="rgba(80%,0%,0%,1)"></circle><circle cx="356.3527623537064" cy="23.761290563264712" r="2" fill="rgba(80%,0%,0%,1)"></circle><circle cx="188.09326251166738" cy="371.0732548639903" r="2" fill="rgba(80%,0%,0%,1)"></circle><circle cx="220.43320966562524" cy="345.65179566712254" r="2" fill="rgba(80%,0%,0%,1)"></circle><circle cx="134.77445616275395" cy="386.2064077164094" r="2" fill="rgba(80%,0%,0%,1)"></circle><circle cx="221.75901080467648" cy="298.5874148187775" r="2" fill="rgba(80%,0%,0%,1)"></circle><circle cx="379.36858834293906" cy="110.54618202748485" r="2" fill="rgba(80%,0%,0%,1)"></circle><circle cx="341.52766443111534" cy="5.6060414630911515" r="2" fill="rgba(80%,0%,0%,1)"></circle><circle cx="353.55413352419725" cy="282.35187719860136" r="2" fill="rgba(80%,0%,0%,1)"></circle><circle cx="232.33678179011923" cy="315.158256564915" r="2" fill="rgba(80%,0%,0%,1)"></circle><circle cx="362.93812123081534" cy="101.2550617356819" r="2" fill="rgba(80%,0%,0%,1)"></circle><circle cx="247.31909114673172" cy="351.91402436133575" r="2" fill="rgba(80%,0%,0%,1)"></circle><circle cx="113.23425677882784" cy="460.4479399714287" r="2" fill="rgba(80%,0%,0%,1)"></circle><circle cx="184.78868247185525" cy="418.22796587518235" r="2" fill="rgba(80%,0%,0%,1)"></circle><circle cx="89.02786708784816" cy="429.5076409645192" r="2" fill="rgba(80%,0%,0%,1)"></circle><circle cx="361.8215641881607" cy="194.61891972391714" r="2" fill="rgba(80%,0%,0%,1)"></circle><circle cx="203.45584185226042" cy="429.9132383560353" r="2" fill="rgba(80%,0%,0%,1)"></circle><circle cx="53.694712763654756" cy="461.049587575491" r="2" fill="rgba(80%,0%,0%,1)"></circle><circle cx="208.89274059597406" cy="381.831002486639" r="2" fill="rgba(80%,0%,0%,1)"></circle><circle cx="380.22656354490863" cy="136.77211862300032" r="2" fill="rgba(80%,0%,0%,1)"></circle><circle cx="29.74655681028622" cy="372.1058020675283" r="2" fill="rgba(80%,0%,0%,1)"></circle><circle cx="373.44309886548416" cy="168.57686331209302" r="2" fill="rgba(80%,0%,0%,1)"></circle><circle cx="378.75187970546517" cy="277.0263046596363" r="2" fill="rgba(80%,0%,0%,1)"></circle><circle cx="307.66239309901476" cy="317.846103489723" r="2" fill="rgba(80%,0%,0%,1)"></circle><circle cx="280.7743532829167" cy="343.8193764226172" r="2" fill="rgba(80%,0%,0%,1)"></circle><circle cx="217.54125169448133" cy="367.9822790418094" r="2" fill="rgba(80%,0%,0%,1)"></circle><circle cx="361.0625021743842" cy="215.22535019982584" r="2" fill="rgba(80%,0%,0%,1)"></circle><circle cx="162.68490221717545" cy="446.9036397026067" r="2" fill="rgba(80%,0%,0%,1)"></circle><circle cx="330.31512219912236" cy="307.2693267839022" r="2" fill="rgba(80%,0%,0%,1)"></circle><circle cx="172.349742882458" cy="426.7059372664254" r="2" fill="rgba(80%,0%,0%,1)"></circle><circle cx="405.6604635346225" cy="32.35918507823649" r="2" fill="rgba(80%,0%,0%,1)"></circle><circle cx="419.51260525006927" cy="44.30167573341378" r="2" fill="rgba(80%,0%,0%,1)"></circle><circle cx="122.89872752479627" cy="367.32090316108145" r="2" fill="rgba(80%,0%,0%,1)"></circle><circle cx="90.81165883274446" cy="456.49377051924444" r="2" fill="rgba(80%,0%,0%,1)"></circle><circle cx="425.2067287610326" cy="16.605226435351714" r="2" fill="rgba(80%,0%,0%,1)"></circle><circle cx="400.28577192595804" cy="133.16902688785603" r="2" fill="rgba(80%,0%,0%,1)"></circle><circle cx="308.9661474684615" cy="333.78064919333195" r="2" fill="rgba(80%,0%,0%,1)"></circle><circle cx="407.3681139452286" cy="63.91686649159993" r="2" fill="rgba(80%,0%,0%,1)"></circle><circle cx="313.2972008430661" cy="275.8867969568631" r="2" fill="rgba(80%,0%,0%,1)"></circle><circle cx="217.73071309046378" cy="405.020153731605" r="2" fill="rgba(80%,0%,0%,1)"></circle><circle cx="396.3285288231129" cy="154.75229522987374" r="2" fill="rgba(80%,0%,0%,1)"></circle><circle cx="211.97118866832707" cy="444.18862649053625" r="2" fill="rgba(80%,0%,0%,1)"></circle><circle cx="367.44318530508247" cy="146.17289396485782" r="2" fill="rgba(80%,0%,0%,1)"></circle><circle cx="374.3682457785309" cy="203.17720030903354" r="2" fill="rgba(80%,0%,0%,1)"></circle><circle cx="177.40826167860888" cy="384.7698792961253" r="2" fill="rgba(80%,0%,0%,1)"></circle><circle cx="414.9644115469596" cy="90.86583336959984" r="2" fill="rgba(80%,0%,0%,1)"></circle><circle cx="264.699757981807" cy="386.1662835376883" r="2" fill="rgba(80%,0%,0%,1)"></circle><circle cx="155.7531397416168" cy="408.2542474225401" r="2" fill="rgba(80%,0%,0%,1)"></circle><circle cx="293.8073527422998" cy="360.1058971918372" r="2" fill="rgba(80%,0%,0%,1)"></circle><circle cx="336.9549636583963" cy="271.8136121169673" r="2" fill="rgba(80%,0%,0%,1)"></circle><circle cx="22.218435722664154" cy="427.5255853196578" r="2" fill="rgba(80%,0%,0%,1)"></circle><circle cx="424.2607491724774" cy="0.5844311062937254" r="2" fill="rgba(80%,0%,0%,1)"></circle><circle cx="229.93443109216594" cy="468.6351492219521" r="2" fill="rgba(80%,0%,0%,1)"></circle><circle cx="413.8047439715116" cy="255.3488715188913" r="2" fill="rgba(80%,0%,0%,1)"></circle><circle cx="397.5493486623951" cy="80.57237565984141" r="2" fill="rgba(80%,0%,0%,1)"></circle><circle cx="368.8402650790458" cy="125.90508141086804" r="2" fill="rgba(80%,0%,0%,1)"></circle><circle cx="371.62440962507503" cy="232.55652290304056" r="2" fill="rgba(80%,0%,0%,1)"></circle><circle cx="52.33250594196408" cy="440.0144648234594" r="2" fill="rgba(80%,0%,0%,1)"></circle><circle cx="8.326641284858539" cy="403.8317752653302" r="2" fill="rgba(80%,0%,0%,1)"></circle><circle cx="340.54860891335477" cy="293.5801929100536" r="2" fill="rgba(80%,0%,0%,1)"></circle><circle cx="443.41287671589913" cy="29.241875312770986" r="2" fill="rgba(80%,0%,0%,1)"></circle><circle cx="450.1929374240272" cy="2.8852985114777803" r="2" fill="rgba(80%,0%,0%,1)"></circle><circle cx="280.13789011292164" cy="371.3886454680881" r="2" fill="rgba(80%,0%,0%,1)"></circle><circle cx="118.59522792495866" cy="477.3804262274045" r="2" fill="rgba(80%,0%,0%,1)"></circle><circle cx="235.69210115612185" cy="374.3903229850687" r="2" fill="rgba(80%,0%,0%,1)"></circle><circle cx="244.2945301874675" cy="410.9735983709606" r="2" fill="rgba(80%,0%,0%,1)"></circle><circle cx="392.28829783413295" cy="220.02172184338139" r="2" fill="rgba(80%,0%,0%,1)"></circle><circle cx="307.56001208564254" cy="372.4232222437659" r="2" fill="rgba(80%,0%,0%,1)"></circle><circle cx="395.40256623600527" cy="180.81325891413465" r="2" fill="rgba(80%,0%,0%,1)"></circle><circle cx="208.09034955139992" cy="483.3634509099456" r="2" fill="rgba(80%,0%,0%,1)"></circle><circle cx="172.3854945947321" cy="470.018364497921" r="2" fill="rgba(80%,0%,0%,1)"></circle><circle cx="405.66036865478907" cy="230.1793544379579" r="2" fill="rgba(80%,0%,0%,1)"></circle><circle cx="399.1415262540083" cy="274.2754585236483" r="2" fill="rgba(80%,0%,0%,1)"></circle><circle cx="392.70827543932097" cy="102.3236530404251" r="2" fill="rgba(80%,0%,0%,1)"></circle><circle cx="414.72761701761084" cy="144.73051105374478" r="1.93" fill="rgba(80%,0%,0%,1)"></circle><circle cx="226.85992091651602" cy="390.2098114310762" r="1.93" fill="rgba(80%,0%,0%,1)"></circle><circle cx="415.7932760166056" cy="184.18509295352874" r="1.845" fill="rgba(80%,0%,0%,1)"></circle><circle cx="325.1641260908002" cy="340.9319634681129" r="1.845" fill="rgba(80%,0%,0%,1)"></circle><circle cx="403.2103032964424" cy="116.82444542006641" r="1.755" fill="rgba(80%,0%,0%,1)"></circle><circle cx="250.2071746165241" cy="485.40569209501746" r="1.675" fill="rgba(80%,0%,0%,1)"></circle><circle cx="245.1557155481503" cy="386.0478678791361" r="1.675" fill="rgba(80%,0%,0%,1)"></circle><circle cx="242.1299761702529" cy="459.66706503328044" r="1.595" fill="rgba(80%,0%,0%,1)"></circle><circle cx="354.2396605311622" cy="301.77333302844835" r="1.51" fill="rgba(80%,0%,0%,1)"></circle><circle cx="254.72183736853393" cy="436.0445650201531" r="1.51" fill="rgba(80%,0%,0%,1)"></circle><circle cx="293.2930592697894" cy="383.0765351392312" r="1.425" fill="rgba(80%,0%,0%,1)"></circle><circle cx="210.25625753908537" cy="461.20455371156055" r="1.335" fill="rgba(80%,0%,0%,1)"></circle><circle cx="443.79684696779094" cy="94.3947502898311" r="1.335" fill="rgba(80%,0%,0%,1)"></circle><circle cx="60.676969043525126" cy="323.54957214174885" r="1.26" fill="rgba(80%,0%,0%,1)"></circle><circle cx="315.60888530165823" cy="354.84280074880536" r="1.26" fill="rgba(80%,0%,0%,1)"></circle><circle cx="460.6732047587976" cy="39.38324119949641" r="1.175" fill="rgba(80%,0%,0%,1)"></circle><circle cx="135.04251797716447" cy="467.31159337922605" r="0.995" fill="rgba(80%,0%,0%,1)"></circle><circle cx="264.3661743574076" cy="408.17342790000066" r="0.93" fill="rgba(80%,0%,0%,1)"></circle><circle cx="155.76134434665434" cy="488.00852442942124" r="0.93" fill="rgba(80%,0%,0%,1)"></circle><circle cx="284.6344639321825" cy="422.16319837733704" r="0.93" fill="rgba(80%,0%,0%,1)"></circle><circle cx="419.31257446896717" cy="105.6322954444066" r="0.835" fill="rgba(80%,0%,0%,1)"></circle><circle cx="336.4433958364201" cy="326.0503578362328" r="0.835" fill="rgba(80%,0%,0%,1)"></circle><circle cx="379.8959239713008" cy="187.9127348332661" r="0.835" fill="rgba(80%,0%,0%,1)"></circle><circle cx="138.18355141041752" cy="485.0948481382829" r="0.74" fill="rgba(80%,0%,0%,1)"></circle><circle cx="394.35450701364897" cy="197.14126533898366" r="0.675" fill="rgba(80%,0%,0%,1)"></circle><circle cx="191.97078049538638" cy="469.91195259700083" r="0.675" fill="rgba(80%,0%,0%,1)"></circle><circle cx="36.538273031197775" cy="454.1400683482697" r="0.585" fill="rgba(80%,0%,0%,1)"></circle><circle cx="431.5994764043989" cy="265.7971292044007" r="0.585" fill="rgba(80%,0%,0%,1)"></circle><circle cx="176.04282631282769" cy="494.05779928492" r="0.505" fill="rgba(80%,0%,0%,1)"></circle><circle cx="385.1644592267795" cy="292.42186461298564" r="0.425" fill="rgba(80%,0%,0%,1)"></circle><circle cx="452.30326070040684" cy="267.31270226669625" r="0.425" fill="rgba(80%,0%,0%,1)"></circle><circle cx="157.22494569342913" cy="471.07396907612645" r="0.085" fill="rgba(80%,0%,0%,1)"></circle><circle cx="192.659955940946" cy="488.8994182720269" r="0" fill="rgba(80%,0%,0%,1)"></circle></g></svg>