<?xml version="1.0" standalone="no"?>
<svg xmlns:xlink="http://www.w3.org/1999/xlink" xmlns="http://www.w3.org/2000/svg" width="500" height="500"><polyline stroke-width="2" stroke="black" fill="none" points="50,250 255,126 198,264 372,258 290,285 245,185 239,365 182,286 318,315 365,165 165,254 209,184 110,103 50,251"></polyline><circle cx="198" cy="264" r="2" fill="red"></circle><circle cx="50" cy="250" r="2" fill="black"></circle><circle cx="255" cy="126" r="2" fill="black"></circle><circle cx="198" cy="264" r="2" fill="black"></circle><circle cx="372" cy="258" r="2" fill="black"></circle><circle cx="290" cy="285" r="2" fill="black"></circle><circle cx="245" cy="185" r="2" fill="black"></circle><circle cx="239" cy="365" r="2" fill="black"></circle><circle cx="182" cy="286" r="2" fill="black"></circle><circle cx="318" cy="315" r="2" fill="black"></circle><circle cx="365" cy="165" r="2" fill="black"></circle><circle cx="165" cy="254" r="2" fill="black"></circle><circle cx="209" cy="184" r="2" fill="black"></circle><circle cx="110" cy="103" r="2" fill="black"></circle><circle cx="50" cy="251" r="2" fill="black"></circle></svg>