<?xml version="1.0" standalone="no"?>
<svg xmlns:xlink="http://www.w3.org/1999/xlink" xmlns="http://www.w3.org/2000/svg" width="500" height="500"><path fill="rgba(56.47%,0%,43.53%,0.5)" d="M 265 465 l -5 0 l 0 -5 l 0 -5 l 5 0 l -5 0 l -5 0 l -5 0 l 0 5 l 5 0 l 0 -5 l 0 5 l 5 0 l 0 -5 l -5 0 l 5 0 l 5 0 l 0 5 l -5 0 l -5 0 l 5 0 l 0 5 l 0 5 l 5 0 l 0 -5 l 0 -5 l -5 0 l -5 0 l 0 -5 l 0 5 l 0 -5 l 5 0 l 0 5 l -5 0 l -5 0 l 0 -5 l 0 5 l 0 5 l 0 5 l -5 0 l 0 5 l -5 0 l 5 0 l 5 0 l 0 -5 l -5 0 l 0 5 l 0 -5 l 0 -5 l 0 -5 l 5 0 l 0 -5 l 0 -5 l 0 -5 l 0 5 l 0 -5 l 5 0 l 0 -5 l 5 0 l 0 -5 l 0 -5 l -5 0 l 5 0 l 5 0 l 5 0 l 0 -5 l -5 0 l -5 0 l 0 5 l 0 -5 l 0 5 l 0 -5 l -5 0 l 0 5 l -5 0 l 5 0 l -5 0 l 0 5 l 0 -5 l 0 -5 l -5 0 l 5 0 l 0 5 l 0 5 l 0 5 l 0 5 l -5 0 l 0 5 l 0 -5 l 0 -5 l -5 0 l 5 0 l 0 5 l 0 5 l -5 0 l 0 5 l 0 5 l -5 0 l 0 5 l -5 0 l 0 -5 l 5 0 l 0 -5 l -5 0 l 0 5 l -5 0 l 0 -5 l -5 0 l 0 -5 l 0 5 l 0 -5 l 0 -5 l 0 5 l 5 0 l -5 0 l 0 5 l -5 0 l 0 -5 l -5 0 l 0 -5 l 0 5 l 5 0 l 5 0 l 0 5 l -5 0 l -5 0 l -5 0 l 0 5 l 0 -5 l 5 0 l 0 -5 l 0 5 l -5 0 l 0 -5 l -5 0 l -5 0 l -5 0 l 5 0 l -5 0 l 0 -5 l 0 -5 l 0 -5 l -5 0 l 5 0 l -5 0 l 0 5 l 5 0 l 0 -5 l 5 0 l 0 -5 l 0 5 l -5 0 l -5 0 l 5 0 l 5 0 l 0 5 l 0 -5 l -5 0 l 0 5 l 5 0 l -5 0 l 0 5 l -5 0 l 0 5 l -5 0 l 5 0 l 0 5 l -5 0 l 0 5 l 0 -5 l 0 5 l 0 5 l 0 -5 l -5 0 l 5 0 l 0 -5 l -5 0 l 5 0 l 0 -5 l 0 5 l 5 0 l 5 0 l 0 -5 l -5 0 l -5 0 l 5 0 l 0 -5 l 0 -5 l -5 0 l -5 0 l 5 0 l 0 5 l 0 -5 l -5 0 l 0 5 l 5 0 l 0 5 l -5 0 l 0 -5 l -5 0 l 5 0 l 0 5 l 0 5 l 0 5 l 0 -5 l 0 5 l 5 0 l -5 0 l -5 0 l 0 5 l 0 -5 l 0 5 l -5 0 l 0 -5 l 0 5 l 0 -5 l 5 0 l 5 0 l 5 0 l 5 0 l 0 -5 l 0 5 l -5 0 l -5 0 l -5 0 l -5 0 l -5 0 l -5 0 l 0 5 l 0 -5 l 5 0 l 0 5 l -5 0 l 0 5 l 0 5 l 0 -5 l 5 0 l -5 0 l 0 -5 l 0 -5 l 0 5 l 0 -5 l 0 5 l -5 0 l 5 0 l 5 0 l 0 5 l 5 0 l 0 5 l 0 -5 l -5 0 l 0 -5 l 0 5 l 0 -5 l 0 5 l -5 0 l 5 0 l 5 0 l -5 0 l -5 0 l -5 0 l 0 5 l 0 5 l 0 -5 l 0 5 l 5 0 l -5 0 l -5 0 l -5 0 l -5 0 l 0 5 l 0 -5 l -5 0 l 5 0 l 0 5 l -5 0 l 0 5 l 0 5 l -5 0 l 0 5 l 0 -5 l 5 0 l 0 5 l 5 0 l 0 5 l -5 0 l -5 0 l 0 5 l -5 0 l -5 0 l 0 5 l 0 -5 l -5 0 l 5 0 l -5 0 l 0 5 l 0 5 l 0 5 l 0 -5 l 0 -5 l 0 -5 l 0 -5 l 5 0 l -5 0 l -5 0 l 0 -5 l -5 0 l 5 0 l -5 0 l 5 0 l 0 5 l -5 0 l 0 5 l 5 0 l 5 0 l 5 0 l -5 0 l 0 5 l 0 5 l 0 5 l 0 5 l -5 0 l 0 -5 l -5 0 l 5 0 l 0 5 l -5 0 l 5 0 l 0 -5 l 0 5 l 0 5 l -5 0 l -5 0 l 0 -5 l 0 5 l 5 0 l 0 5 l 0 5 l 5 0 l 0 5 l 0 5 l -5 0 l -5 0 l 0 5 l -5 0 l -5 0 l 0 5 l 5 0 l 0 -5 l -5 0 l 5 0 l 0 5 l 0 -5 l 5 0 l 0 5 l 0 5 l -5 0 l 0 -5 l 0 5 l 0 -5 l 5 0 l 0 5 l -5 0 l 5 0 l -5 0 l 0 -5 l 5 0 l 0 -5 l 5 0 l 0 -5 l 5 0 l 0 -5 l 0 5 l -5 0 l 0 5 l 0 -5 l 0 5 l 0 -5 l 0 -5 l 5 0 l 5 0 l 5 0 l 0 5 l 0 5 l 0 5 l 0 -5 l -5 0 l 5 0 l 5 0 l 0 -5 l 0 5 l 0 -5 l 0 -5 l 5 0 l 5 0 l -5 0 l 5 0 l 0 -5 l 0 5 l 5 0 l 5 0 l 0 -5 l 0 -5 l 0 5 l 0 5 l 0 5 l 5 0 l -5 0 l 5 0 l -5 0 l 0 -5 l 0 5 l 5 0 l 0 5 l 0 -5 l 0 5 l 0 5 l 5 0 l 0 -5 l 0 -5 l 0 -5 l 0 -5 l -5 0 l 0 5 l 0 -5 l 5 0 l -5 0 l 0 -5 l -5 0 l 5 0 l 0 5 l 5 0 l 0 5 l 5 0 l 0 -5 l 0 -5 l 0 5 l -5 0 l -5 0 l 0 5 l 0 -5 l 5 0 l 5 0 l 0 -5 l 0 -5 l 0 5 l -5 0 l 0 5 l 5 0 l -5 0 l 0 5 l 5 0 l 5 0 l 0 5 l 5 0 l 0 -5 l -5 0 l 0 -5 l 0 -5 l 0 -5 l 0 -5 l 0 -5 l 0 5 l -5 0 l 5 0 l 5 0 l 0 5 l 0 5 l 0 5 l 0 -5 l -5 0 l 5 0 l 5 0 l 5 0 l 0 -5 l 5 0 l 0 5 l 0 5 l 0 5 l 0 -5 l -5 0 l 0 -5 l 0 5 l 5 0 l 0 -5 l 0 5 l 0 5 l 5 0 l 5 0 l 5 0 l 5 0 l -5 0 l -5 0 l 0 -5 l 0 5 l -5 0 l -5 0 l 0 -5 l 5 0 l 5 0 l 5 0 l 0 -5 l -5 0 l 0 5 l -5 0 l 5 0 l 0 5 l 5 0 l 0 -5 l 0 5 l 0 5 l 0 5 l 0 5 l 0 5 l 5 0 l 5 0 l 0 -5 l -5 0 l 5 0 l -5 0 l -5 0 l -5 0 l 5 0 l 5 0 l 0 -5 l -5 0 l 0 -5 l 0 5 l 0 -5 l 0 5 l 0 -5 l -5 0 l 0 5 l 5 0 l 0 -5 l 0 5 l -5 0 l -5 0 l 0 -5 l 5 0 l -5 0 l 0 -5 l -5 0 l 5 0 l 5 0 l 0 -5 l 0 5 l -5 0 l -5 0 l 0 5 l 0 5 l -5 0 l 5 0 l 5 0 l -5 0 l 5 0 l 0 5 l -5 0 l 0 -5 l 0 -5 l -5 0 l 0 -5 l -5 0 l 0 -5 l 0 -5 l -5 0 l -5 0 l 5 0 l -5 0 l 0 5 l 0 5 l 0 -5 l -5 0 l 5 0 l -5 0 l 5 0 l 0 5 l 0 -5 l 5 0 l 5 0 l 0 5 l 5 0 l -5 0 l 0 -5 l 5 0 l 0 5 l 5 0 l 0 -5 l 5 0 l 5 0 l 0 -5 l 0 -5 l -5 0 l 0 5 l 5 0 l -5 0 l 0 5 l 5 0 l 0 -5 l 0 5 l 0 -5 l 0 5 l 5 0 l 0 -5 l 0 -5 l -5 0 l 0 -5 l -5 0 l 0 5 l 0 -5 l 0 5 l 0 -5 l -5 0 l 5 0 l -5 0 l 5 0 l 0 -5 l 0 5 l 5 0 l 5 0 l 0 -5 l 0 5 l 0 -5 l -5 0 l 0 -5 l -5 0 l 0 -5 l -5 0 l 0 5 l 5 0 l 0 -5 l 0 5 l 0 -5 l 0 -5 l 5 0 l 5 0 l 5 0 l -5 0 l 5 0 l 0 -5 l -5 0 l 0 -5 l -5 0 l -5 0 l -5 0 l 0 -5 l 5 0 l 0 5 l 5 0 l 0 5 l 0 -5 l 0 5 l -5 0 l 5 0 l 0 -5 l 5 0 l 5 0 l -5 0 l 0 -5 l -5 0 l 5 0 l 0 -5 l 0 -5 l 0 5 l 0 -5 l 0 5 l 0 -5 l 5 0 l 5 0 l 0 5 l -5 0 l 5 0 l 0 5 l 0 5 l -5 0 l -5 0 l 0 -5 l -5 0 l -5 0 l -5 0 l 0 -5 l 5 0 l 5 0 l 5 0 l 0 5 l -5 0 l 5 0 l 0 5 l 5 0 l 0 -5 l -5 0 l 5 0 l -5 0 l 5 0 l 5 0 l 0 -5 l 0 5 l 5 0 l 0 5 l 0 -5 l -5 0 l 5 0 l 0 -5 l 5 0 l 0 -5 l 0 5 l 5 0 l 5 0 l 0 -5 l -5 0 l 0 5 l -5 0 l 0 -5 l 0 -5 l 0 -5 l 0 -5 l 0 -5 l 0 -5 l 0 5 l 0 5 l 0 5 l -5 0 l 0 5 l 5 0 l -5 0 l 5 0 l -5 0 l -5 0 l -5 0 l 5 0 l 0 5 l 5 0 l -5 0 l 5 0 l 0 5 l -5 0 l 0 -5 l -5 0 l 5 0 l 0 -5 l 0 -5 l 5 0 l 0 -5 l -5 0 l 0 5 l 0 5 l 0 5 l 0 -5 l -5 0 l -5 0 l 0 5 l 0 5 l 0 5 l 5 0 l 5 0 l 0 5 l 5 0 l 0 -5 l 5 0 l 0 5 l 5 0 l 0 -5 l -5 0 l 0 5 l 0 5 l 0 5 l 0 -5 l -5 0 l 0 -5 l 0 5 l 0 -5 l -5 0 l 0 5 l 5 0 l 0 -5 l 0 -5 l -5 0 l 0 -5 l 0 5 l -5 0 l -5 0 l -5 0 l 5 0 l 0 -5 l 5 0 l -5 0 l 0 -5 l 0 5 l -5 0 l 0 5 l 0 5 l 0 5 l -5 0 l 0 -5 l 5 0 l 0 -5 l 0 -5 l 0 -5 l 5 0 l -5 0 l 0 -5 l -5 0 l -5 0 l -5 0 l 0 5 l 0 -5 l -5 0 l 5 0 l 0 -5 l -5 0 l 5 0 l 5 0 l 5 0 l 5 0 l 5 0 l 5 0 l 5 0 l 5 0 l 0 -5 l 5 0 l -5 0 l -5 0 l 0 -5 l 0 5 l -5 0 l 0 5 l 0 5 l -5 0 l 0 -5 l 0 5 l 0 5 l 0 -5 l 0 5 l 0 -5 l -5 0 l 0 -5 l 0 -5 l 5 0 l 5 0 l 0 5 l 5 0 l 0 5 l 5 0 l 5 0 l 5 0 l 5 0 l -5 0 l 0 5 l 5 0 l 0 5 l 0 -5 l 0 -5 l -5 0 l 0 -5 l 0 5 l 5 0 l 5 0 l -5 0 l -5 0 l 0 5 l -5 0 l 0 5 l 5 0 l 0 5 l 0 -5 l 0 -5 l 0 5 l 0 -5 l 0 5 l -5 0 l 0 5 l -5 0 l 0 -5 l 0 -5 l 0 5 l 0 5 l 0 -5 l -5 0 l 0 5 l 0 -5 l 5 0 l 5 0 l 0 -5 l 5 0 l 0 5 l 0 5 l -5 0 l -5 0 l -5 0 l 5 0 l 0 -5 l 5 0 l 0 -5 l 5 0 l 0 -5 l 5 0 l 5 0 l 0 -5 l -5 0 l 0 -5 l 0 -5 l 0 5 l 0 5 l 0 -5 l 0 5 l 0 5 l 0 5 l 0 -5 l -5 0 l 5 0 l -5 0 l -5 0 l 5 0 l -5 0 l 0 -5 l 0 -5 l 0 -5 l 0 5 l 5 0 l 5 0 l 0 5 l -5 0 l 0 5 l 5 0 l 0 -5 l 0 -5 l 0 -5 l 5 0 l 0 -5 l 0 5 l 0 5 l 5 0 l -5 0 l 0 -5 l -5 0 l 0 5 l 0 -5 l 0 -5 l 0 -5 l 0 -5 l 0 -5 l 0 5 l 5 0 l 5 0 l -5 0 l 0 -5 l 0 5 l 0 -5 l 0 -5 l -5 0 l 0 5 l 0 5 l 0 5 l 0 5 l 0 5 l -5 0 l 0 5 l -5 0 l -5 0 l 0 -5 l 0 -5 l 0 -5 l -5 0 l 0 5 l -5 0 l 5 0 l 0 5 l 5 0 l -5 0 l 5 0 l -5 0 l -5 0 l 0 -5 l -5 0 l -5 0 l 0 5 l 0 -5 l 0 -5 l -5 0 l -5 0 l -5 0 l 5 0 l 5 0 l 5 0 l -5 0 l 5 0 l 0 5 l 5 0 l -5 0 l -5 0 l -5 0 l -5 0 l 5 0 l 5 0 l 0 -5 l 0 -5 l 0 -5 l -5 0 l 0 5 l -5 0 l 0 5 l -5 0 l 0 5 l 0 -5 l 0 -5 l 0 -5 l 5 0 l -5 0 l 0 -5 l 0 -5 l 0 5 l -5 0 l 0 -5 l -5 0 l 5 0 l 5 0 l 0 -5 l 0 5 l 5 0 l 0 5 l 0 5 l 0 -5 l -5 0 l -5 0 l 0 -5 l 0 -5 l 0 -5 l 0 5 l 0 -5 l 0 5 l 0 5 l 0 5 l -5 0 l 0 -5 l 0 5 l 0 -5 l 0 5 l -5 0 l 0 -5 l 0 -5 l -5 0 l 5 0 l 0 -5 l 0 5 l -5 0 l 0 5 l -5 0 l 0 5 l -5 0 l 0 5 l 5 0 l 0 5 l 0 5 l 0 -5 l 5 0 l 0 5 l 0 -5 l -5 0 l 5 0 l -5 0 l 0 -5 l -5 0 l 5 0 l -5 0 l -5 0 l 0 5 l 0 -5 l 0 -5 l 5 0 l -5 0 l -5 0 l 0 -5 l 5 0 l -5 0 l 0 -5 l -5 0 l -5 0 l 5 0 l 0 -5 l 0 -5 l 0 5 l 5 0 l 0 -5 l 5 0 l 5 0 l 0 5 l 5 0 l 0 -5 l 0 -5 l 5 0 l 0 -5 l -5 0 l 0 -5 l 5 0 l 0 -5 l 5 0 l 5 0 l 5 0 l 0 -5 l 5 0 l -5 0 l 5 0 l 0 5 l 5 0 l 0 5 l 0 -5 l 0 5 l 0 5 l 0 -5 l 5 0 l 0 -5 l 0 -5 l 0 5 l 5 0 l 0 5 l 0 -5 l 0 5 l -5 0 l -5 0 l 0 -5 l 0 5 l 5 0 l 0 -5 l 0 5 l 0 5 l 0 5 l 5 0 l -5 0 l 5 0 l 5 0 l 0 5 l 5 0 l 0 -5 l -5 0 l 5 0 l 0 -5 l -5 0 l 0 5 l 5 0 l 5 0 l -5 0 l -5 0 l 5 0 l 5 0 l 0 -5 l -5 0 l 0 -5 l 0 5 l 0 5 l 0 -5 l 0 5 l 5 0 l 5 0 l 5 0 l 0 -5 l -5 0 l 5 0 l 0 -5 l 0 5 l 5 0 l 0 5 l 0 -5 l 5 0 l 5 0 l 0 -5 l 0 5 l -5 0 l 0 -5 l -5 0 l 0 -5 l 5 0 l 0 5 l 0 -5 l 0 5 l -5 0 l -5 0 l 0 5 l 0 -5 l 5 0 l 0 5 l 5 0 l 0 -5 l 0 -5 l 5 0 l 5 0 l 0 -5 l 0 -5 l -5 0 l 0 -5 l -5 0 l 0 5 l 0 5 l 5 0 l 0 5 l -5 0 l -5 0 l 0 5 l 5 0 l 5 0 l 0 5 l 0 5 l 0 5 l 0 -5 l 5 0 l 0 5 l 5 0 l -5 0 l -5 0 l 0 -5 l 0 5 l 0 5 l 5 0 l 0 5 l 0 5 l 0 5 l 0 5 l 0 -5 l 0 5 l 0 5 l 0 5 l 0 5 l 0 5 l 0 5 l 5 0 l 5 0 l 5 0 l 0 5 l 0 -5 l -5 0 l 0 5 l 0 -5 l 0 -5 l 5 0 l 0 5 l 5 0 l 0 5 l 0 -5 l -5 0 l 5 0 l -5 0 l -5 0 l 0 5 l 5 0 l -5 0 l -5 0 l 0 5 l 0 -5 l 0 -5 l -5 0 l 5 0 l 0 5 l 0 -5 l 0 -5 l 0 5 l 0 -5 l -5 0 l 5 0 l 0 -5 l 0 -5 l 0 5 l 0 -5 l 0 5 l -5 0 l 5 0 l 5 0 l -5 0 l 0 -5 l 5 0 l 5 0 l 5 0 l 5 0 l 0 5 l 5 0 l 0 5 l 5 0"></path><path fill="rgba(8.52%,68.9%,18.3%,0.5)" d="M 370 410 l 0 5 l -5 0 l -5 0 l -5 0 l 0 -5 l -5 0 l -5 0 l -5 0 l -5 0 l 0 5 l -5 0 l 0 5 l 0 -5 l 0 5 l 5 0 l 5 0 l -5 0 l 0 -5 l -5 0 l 5 0 l 0 -5 l 5 0 l 0 5 l 0 -5 l 5 0 l -5 0 l 5 0 l 0 5 l -5 0 l 5 0 l 5 0 l 5 0 l 0 -5 l 5 0 l -5 0 l -5 0 l 5 0 l 0 5 l 0 -5 l -5 0 l 5 0 l 0 5 l 0 5 l 5 0 l -5 0 l -5 0 l 0 5 l 0 -5 l 0 -5 l 5 0 l -5 0 l 5 0 l 0 5 l 0 -5 l 0 -5 l 0 -5 l 0 -5 l 5 0 l 5 0 l -5 0 l 0 -5 l -5 0 l 5 0 l 5 0 l -5 0 l 0 5 l 5 0 l 5 0 l -5 0 l -5 0 l 0 -5 l 0 -5 l 0 -5 l 5 0 l 0 5 l 0 -5 l 0 -5 l 0 -5 l -5 0 l -5 0 l 0 5 l 0 -5 l 0 -5 l 0 -5 l 5 0 l 0 -5 l 0 -5 l -5 0 l -5 0 l -5 0 l -5 0 l -5 0 l 5 0 l 0 -5 l 5 0 l 5 0 l 0 5 l 0 -5 l -5 0 l -5 0 l 0 -5 l 0 -5 l 5 0 l 0 5 l 0 5 l 5 0 l -5 0 l 0 -5 l 5 0 l -5 0 l 0 5 l 0 5 l 5 0 l -5 0 l -5 0 l 0 5 l 0 -5 l 5 0 l 0 5 l 0 -5 l 0 -5 l 0 -5 l 5 0 l 5 0 l 5 0 l 0 5 l 0 -5 l 0 -5 l 5 0 l 5 0 l -5 0 l -5 0 l 0 5 l -5 0 l 0 -5 l 0 5 l 0 5 l 0 5 l 0 5 l 0 5 l 0 5 l 5 0 l 0 -5 l 0 -5 l 0 5 l 0 5 l 5 0 l 5 0 l 0 -5 l 0 -5 l -5 0 l 5 0 l -5 0 l 0 -5 l 0 5 l 0 -5 l -5 0 l 5 0 l 0 5 l 5 0 l 0 5 l 0 5 l 0 5 l 5 0 l -5 0 l -5 0 l 0 5 l 0 -5 l -5 0 l 5 0 l -5 0 l 5 0 l 0 -5 l 0 5 l 0 5 l -5 0 l 0 -5 l 0 5 l -5 0 l 0 5 l 5 0 l -5 0 l 0 -5 l -5 0 l 0 5 l 5 0 l 5 0 l 0 5 l 5 0 l -5 0 l 0 -5 l 0 -5 l 0 5 l 0 5 l 0 5 l 0 5 l 0 5 l 5 0 l 5 0 l 5 0 l 5 0 l 0 -5 l 0 5 l 5 0 l -5 0 l 5 0 l -5 0 l 0 -5 l -5 0 l -5 0 l -5 0 l 0 5 l 0 5 l 0 5 l 0 5 l -5 0 l 5 0 l 5 0 l 0 5 l -5 0 l 0 5 l 0 5 l 0 -5 l 0 -5 l 0 5 l 5 0 l 0 5 l 0 -5 l 5 0 l 0 5 l 0 -5 l 0 -5 l 5 0 l 0 5 l 5 0 l -5 0 l 5 0 l 5 0 l 0 -5 l 5 0 l 5 0 l 0 5 l 0 -5 l 0 5 l 0 5 l 0 5 l 0 5 l 0 5 l -5 0 l -5 0 l 0 5 l 0 -5 l 0 -5 l 5 0 l -5 0 l 0 5 l 5 0 l -5 0 l -5 0 l 5 0 l -5 0 l 5 0 l 0 -5 l 0 -5 l 5 0 l -5 0 l 0 -5 l 0 5 l 0 -5 l 5 0 l -5 0 l 5 0 l 5 0 l 5 0 l -5 0 l -5 0 l 0 -5 l 0 5 l 5 0 l -5 0 l 5 0 l 0 5 l 5 0 l 5 0 l -5 0 l -5 0 l 0 -5 l -5 0 l -5 0 l 0 5 l -5 0 l 0 5 l 0 5 l -5 0 l 0 5 l 5 0 l 5 0 l -5 0 l 5 0 l -5 0 l 0 -5 l 0 -5 l 0 5 l 0 -5 l -5 0 l 0 -5 l 0 5 l -5 0 l 5 0 l 0 5 l 0 5 l 0 -5 l 0 -5 l -5 0 l 5 0 l 5 0 l 5 0 l 0 -5 l -5 0 l 5 0 l 0 -5 l -5 0 l -5 0 l -5 0 l 5 0 l 5 0 l 0 -5 l 5 0 l -5 0 l -5 0 l 5 0 l 0 -5 l 5 0 l 0 5 l -5 0 l 5 0 l -5 0 l 5 0 l 5 0 l 5 0 l 5 0 l -5 0 l 0 5 l 0 -5 l -5 0 l 5 0 l 0 5 l 0 5 l 0 -5 l 5 0 l 5 0 l 5 0 l 0 -5 l 5 0 l 5 0 l 0 -5 l 0 -5 l -5 0 l -5 0 l 5 0 l -5 0 l 0 -5 l -5 0 l 0 5 l -5 0 l 0 5 l -5 0 l -5 0 l 0 -5 l 0 5 l 0 -5 l -5 0 l 0 5 l 5 0 l 5 0 l -5 0 l 5 0 l 0 -5 l 0 -5 l 0 5 l 5 0 l 0 5 l -5 0 l -5 0 l -5 0 l -5 0 l 5 0 l 0 5 l -5 0 l 0 -5 l -5 0 l 5 0 l 0 -5 l 0 5 l 0 -5 l 0 -5 l 0 -5 l 0 -5 l 0 -5 l 5 0 l 0 -5 l 5 0 l 0 5 l 5 0 l 0 5 l 0 5 l -5 0 l 0 -5 l -5 0 l 5 0 l 5 0 l 0 -5 l 0 5 l 0 5 l -5 0 l 0 -5 l 0 5 l 0 -5 l 0 5 l 5 0 l 0 5 l -5 0 l -5 0 l 0 -5 l -5 0 l 5 0 l -5 0 l 0 5 l 5 0 l 0 -5 l -5 0 l 0 -5 l 0 -5 l 5 0 l 5 0 l 5 0 l 5 0 l 0 -5 l 0 -5 l -5 0 l 0 5 l -5 0 l 0 5 l 0 -5 l 0 -5 l 5 0 l 5 0 l 0 5 l -5 0 l 0 -5 l -5 0 l 0 -5 l -5 0 l 0 5 l 0 -5 l 0 5 l 0 5 l -5 0 l -5 0 l 5 0 l 0 5 l -5 0 l -5 0 l 0 5 l -5 0 l -5 0 l 0 -5 l 0 5 l 0 5 l 0 5 l 0 -5 l 0 5 l 0 5 l 5 0 l 0 -5 l -5 0 l 0 -5 l -5 0 l -5 0 l 0 -5 l 5 0 l -5 0 l 0 -5 l 5 0 l 5 0 l 0 5 l 0 -5 l 5 0 l -5 0 l -5 0 l -5 0 l -5 0 l -5 0 l -5 0 l 5 0 l 5 0 l 0 5 l 0 5 l -5 0 l 0 5 l 0 -5 l -5 0 l 5 0 l -5 0 l 0 5 l 5 0 l 0 -5 l 5 0 l 0 -5 l -5 0 l 0 -5 l 0 5 l -5 0 l 0 5 l 5 0 l 0 -5 l 0 -5 l 0 5 l -5 0 l -5 0 l -5 0 l -5 0 l 0 5 l 0 -5 l 5 0 l 0 5 l 5 0 l 0 -5 l 5 0 l 0 -5 l 5 0 l -5 0 l 0 -5 l 0 -5 l 0 5 l 0 5 l 5 0 l 5 0 l -5 0 l 0 5 l 0 5 l -5 0 l 5 0 l -5 0 l -5 0 l 5 0 l 5 0 l 0 5 l 0 5 l -5 0 l 5 0 l -5 0 l -5 0 l 5 0 l 5 0 l 0 -5 l -5 0 l 0 -5 l 5 0 l 0 -5 l 0 5 l -5 0 l 5 0 l 5 0 l 5 0 l 5 0 l 0 5 l 5 0 l -5 0 l 0 -5 l 0 5 l 0 -5 l 0 5 l 5 0 l 5 0 l 0 -5"></path><path fill="rgba(82.21%,0%,17.79%,0.5)" d="M 55 395 l -5 0 l -5 0 l -5 0 l 5 0 l 0 5 l -5 0 l 5 0 l 5 0 l 5 0 l 0 5 l -5 0 l 0 -5 l -5 0 l 5 0 l 5 0 l 0 -5 l -5 0 l 0 5 l 0 -5 l 5 0 l -5 0 l 5 0 l -5 0 l 0 -5 l 5 0 l 0 -5 l 0 -5 l -5 0 l -5 0 l 5 0 l -5 0 l 0 -5 l 0 -5 l 0 -5 l 0 -5 l 0 -5 l 0 5 l 5 0 l -5 0 l 0 -5 l 0 -5 l -5 0 l 5 0 l -5 0 l -5 0 l 5 0 l -5 0 l 5 0 l 0 5 l 0 -5 l 0 5 l 0 -5 l 0 5 l 0 -5 l -5 0 l 5 0 l 0 5 l -5 0 l 0 5 l 0 -5 l 5 0 l -5 0 l 0 -5 l 5 0 l 0 5 l 0 5 l 5 0 l 5 0 l -5 0 l 0 5 l -5 0 l 0 -5 l 0 5 l 5 0 l -5 0 l 5 0 l -5 0 l -5 0 l -5 0 l -5 0 l 0 -5 l 0 5 l -5 0 l 5 0 l 5 0 l 5 0 l -5 0 l 0 -5 l 5 0 l -5 0 l 5 0 l 0 -5 l -5 0 l 5 0 l 5 0 l 0 5 l 5 0 l -5 0 l 5 0 l -5 0 l 0 5 l 5 0 l 5 0 l 0 5 l 5 0 l 0 -5 l 0 -5 l 0 5 l 0 -5 l 0 -5 l 0 -5 l 0 5 l 5 0 l 0 -5 l 0 -5 l 0 -5 l 0 -5 l 5 0 l 5 0 l 5 0 l -5 0 l 5 0 l 5 0 l 0 5 l 0 5 l 0 -5 l 5 0 l 0 5 l -5 0 l -5 0 l -5 0 l 0 -5 l 5 0 l 0 -5 l 0 5 l -5 0 l 0 5 l -5 0 l 5 0 l 0 -5 l 0 -5 l 0 -5 l 5 0 l 0 5 l 0 5 l 0 -5 l -5 0 l -5 0 l 0 5 l 5 0 l 5 0 l 5 0 l 0 5 l -5 0 l -5 0 l -5 0 l -5 0 l -5 0 l -5 0 l -5 0 l -5 0 l 0 5 l 5 0 l -5 0 l -5 0 l -5 0 l 0 -5 l 0 5 l 0 -5 l 5 0 l 5 0 l -5 0 l 0 -5 l 0 5 l 5 0 l -5 0 l -5 0 l 5 0 l 5 0 l 0 -5 l 0 -5 l 5 0 l 0 -5 l 0 -5 l 0 5 l -5 0 l 5 0 l -5 0 l 0 5 l 0 -5 l -5 0 l 0 5 l 0 -5 l 0 -5 l 0 5 l 5 0 l -5 0 l 0 -5 l 0 5 l 5 0 l 5 0 l 0 5 l 0 -5 l 0 5 l -5 0 l 5 0 l 0 -5 l 0 5 l -5 0 l 5 0 l 5 0 l 0 -5 l 0 5 l 0 -5 l -5 0 l 5 0 l -5 0 l 0 -5 l 0 -5 l -5 0 l 5 0 l -5 0 l -5 0 l -5 0 l -5 0 l 0 -5 l 5 0 l -5 0 l -5 0 l 5 0 l 0 5 l -5 0 l 0 -5 l 5 0 l -5 0 l 5 0 l 5 0 l 0 -5 l -5 0 l 5 0 l 0 -5 l -5 0 l 5 0 l -5 0 l 0 5 l 5 0 l -5 0 l 0 -5 l 0 5 l -5 0 l 0 5 l 0 5 l -5 0 l -5 0 l 0 5 l 5 0 l 0 5 l -5 0 l -5 0 l 0 -5 l 5 0 l 0 5 l -5 0 l -5 0 l 0 5 l 0 -5 l 0 -5 l 0 -5 l 0 5 l 0 -5 l 0 -5 l -5 0 l 5 0 l 0 5 l 5 0 l 0 5 l 0 5 l 0 5 l 5 0 l 5 0 l 5 0 l 5 0 l 5 0 l -5 0 l 0 5 l 0 5 l -5 0 l 0 5 l 5 0 l 0 -5 l -5 0 l 0 -5 l 0 5 l 5 0 l 0 5 l 0 -5 l 0 5 l 5 0 l 5 0 l 0 5 l -5 0 l 0 -5 l 0 5 l 0 -5 l 0 5 l 0 -5 l 5 0 l 5 0 l -5 0 l 0 -5 l 5 0 l 5 0 l 0 5 l 0 5 l 0 5 l 0 5 l 0 5 l 0 -5 l 5 0 l 0 -5 l -5 0 l 0 -5 l 0 5 l 5 0 l 0 -5 l 5 0 l 0 -5 l 0 5 l -5 0 l 0 5 l 5 0 l 5 0 l 0 5 l 5 0 l 0 -5 l 0 5 l 0 -5 l 0 5 l 5 0 l 5 0 l 0 5 l 0 5 l 5 0 l 0 5 l 5 0 l -5 0 l 0 -5 l 5 0 l -5 0 l -5 0 l 0 -5 l 0 5 l 5 0 l 0 -5 l 0 -5 l 0 -5 l -5 0 l 0 5 l -5 0 l 0 5 l 0 5 l 0 -5 l 5 0 l 5 0 l 0 5 l -5 0 l -5 0 l 0 5 l 5 0 l 0 5 l 5 0 l 0 -5 l 0 -5 l 0 5 l 5 0 l 5 0 l -5 0 l 5 0 l 5 0 l -5 0 l 0 -5 l 5 0 l 0 5 l 0 5 l 0 5 l -5 0 l -5 0 l -5 0 l 0 -5 l 5 0 l 5 0 l 0 -5 l -5 0 l 5 0 l 0 -5 l 0 -5 l 0 5 l -5 0 l -5 0 l 0 -5 l 0 -5 l 0 -5 l 0 5 l 5 0 l -5 0 l 0 -5 l 5 0 l 0 5 l 5 0 l -5 0 l 0 -5 l -5 0 l 5 0 l 0 5 l 0 -5 l 0 5 l 0 -5 l 0 5 l 5 0 l -5 0 l 5 0 l -5 0 l -5 0 l 5 0 l 0 -5 l 0 5 l 5 0 l 0 -5 l 5 0 l -5 0 l 5 0 l 5 0 l 5 0 l 0 5 l 5 0 l 5 0 l 0 5 l 0 5 l 5 0 l 0 -5 l 0 5 l 5 0 l 5 0 l 0 -5 l 0 5 l 0 5 l -5 0 l -5 0 l 0 -5 l 0 -5 l -5 0 l 0 -5 l 0 5 l -5 0 l 0 5 l 0 -5 l 0 5 l 0 -5 l 0 5 l 0 -5 l 0 -5 l -5 0 l 0 5 l -5 0 l 5 0 l -5 0 l 0 5 l 0 5 l 0 5 l -5 0 l -5 0 l 5 0 l 0 -5 l 5 0 l -5 0 l 5 0 l 5 0 l 0 5 l 5 0 l 5 0 l 0 5 l 0 -5 l 0 -5 l -5 0 l 0 5 l 5 0 l 0 5 l 0 5 l -5 0 l 0 5 l 0 -5 l -5 0 l 0 -5 l 0 5 l 5 0 l 5 0 l 0 5 l -5 0 l -5 0 l 0 -5 l 0 -5 l 0 5 l 5 0 l 0 5 l -5 0 l 5 0 l 0 -5 l -5 0 l -5 0 l 5 0 l -5 0 l 0 5 l 0 5 l -5 0 l 5 0 l -5 0 l 0 -5 l 0 5 l 0 -5 l 0 5 l 0 -5 l 0 -5 l 0 -5 l -5 0 l 5 0 l 5 0 l 0 5 l -5 0 l 0 5 l -5 0 l -5 0 l 5 0 l -5 0 l 0 -5 l 0 5 l 0 5 l -5 0 l 0 5 l 5 0 l 0 -5 l 0 -5 l 0 -5 l -5 0 l 5 0 l -5 0 l -5 0 l 0 -5 l 5 0 l 0 5 l 5 0 l 0 -5 l 0 5 l 0 -5 l -5 0 l 5 0 l 5 0 l 0 -5 l 0 -5 l 0 5 l 0 -5 l 0 5 l 0 -5 l 0 -5 l 0 5 l 0 5 l 5 0 l 0 5 l 0 -5 l 0 5 l 0 5 l 0 5 l 5 0 l 0 5 l -5 0 l 0 -5 l 0 5 l -5 0 l 0 5 l 0 5 l 0 5 l 0 5 l -5 0 l 0 5 l 0 -5 l 0 5 l 0 -5 l -5 0 l -5 0 l 0 -5 l -5 0 l -5 0 l 0 5 l 5 0 l 0 5 l 0 5 l 0 5 l 5 0 l -5 0 l -5 0 l 0 -5 l -5 0 l 0 -5 l 0 5 l 5 0 l -5 0 l -5 0 l 0 -5 l 0 5 l -5 0 l -5 0 l 0 5 l 5 0 l 5 0 l 5 0 l 5 0 l 0 5 l 5 0 l 5 0 l 0 5 l 5 0 l 0 -5 l -5 0 l 5 0 l 0 -5 l 0 -5 l 0 5 l 5 0 l -5 0 l -5 0 l 0 -5 l 5 0 l -5 0 l 0 5 l -5 0 l 5 0 l 0 5 l 5 0 l 5 0 l 5 0 l 0 -5 l 0 -5 l 0 -5 l 0 -5 l 5 0 l 5 0 l -5 0 l -5 0 l 0 5 l -5 0 l 0 -5 l 0 5 l 0 5 l 5 0 l 5 0 l 5 0 l -5 0 l 0 5 l 5 0 l 0 -5 l 0 5 l 0 5 l 0 -5 l 0 5 l -5 0 l 0 -5 l -5 0 l 0 -5 l 0 -5 l 5 0 l -5 0 l 0 -5 l -5 0 l 5 0 l -5 0 l 0 -5 l 0 5 l -5 0 l -5 0 l -5 0 l -5 0 l 0 5 l 0 5 l 0 -5 l 5 0 l -5 0 l -5 0 l 0 5 l 0 -5 l 5 0 l -5 0 l -5 0 l 0 5 l 0 5 l 0 -5 l 0 -5 l 5 0 l 0 5 l 0 -5 l 0 -5 l 0 -5 l 0 5 l 5 0 l 0 -5 l 0 5 l -5 0 l 5 0 l 0 5 l 5 0 l -5 0 l -5 0 l 0 -5 l 0 -5 l -5 0 l 0 -5 l -5 0 l 5 0 l 0 -5 l -5 0 l 0 -5 l -5 0 l -5 0 l 0 5 l 0 -5 l 0 -5 l 5 0 l 5 0 l 0 5 l 0 5 l 0 -5 l -5 0 l 0 5 l 5 0 l 0 5 l -5 0 l -5 0 l 0 5 l 0 -5 l 0 5 l 0 5 l 0 5 l 0 -5 l 0 -5 l 0 -5 l 0 5 l 5 0 l 5 0 l -5 0 l 5 0 l 0 5 l 0 5 l 0 5 l 0 5 l 0 -5 l 0 5 l -5 0 l 0 -5 l 0 5 l 0 -5 l 0 -5 l -5 0 l 0 -5 l 5 0 l 5 0 l 0 -5 l 5 0 l 0 5 l 5 0 l 0 5 l -5 0 l 0 5 l 0 -5 l 5 0 l 0 5 l 5 0 l 0 -5 l -5 0 l 0 -5 l 0 -5 l 0 -5 l 0 -5 l -5 0 l -5 0 l 0 -5 l -5 0 l 5 0 l -5 0 l 0 5 l 0 -5 l 0 5 l 0 5 l 5 0 l -5 0 l 0 -5 l 0 -5 l 5 0 l 5 0 l 0 5 l -5 0 l 0 5 l -5 0 l -5 0 l 5 0 l 5 0 l 0 5 l 0 5 l -5 0 l 0 -5 l -5 0 l 5 0 l 0 -5 l -5 0 l -5 0 l 5 0 l 0 5 l 0 -5 l 5 0 l -5 0 l 0 5 l 5 0 l 5 0 l 5 0 l 0 5 l 0 5 l -5 0 l 0 5 l 0 5 l 0 -5 l 0 -5 l 0 5 l 0 5 l 0 -5 l 0 5 l 0 -5 l -5 0 l 0 5 l 5 0 l 0 -5 l -5 0 l -5 0 l -5 0 l 0 5 l 5 0 l -5 0 l 5 0 l 5 0 l 5 0 l 0 5 l 5 0 l -5 0 l -5 0 l -5 0 l 5 0 l 0 -5 l 5 0 l -5 0 l 0 -5 l 5 0 l 5 0 l 5 0 l -5 0 l 5 0 l -5 0 l 5 0 l 0 -5 l -5 0 l 0 5 l -5 0 l 0 -5 l -5 0 l 0 -5 l 0 -5 l 5 0 l 0 5 l 5 0 l 0 -5 l -5 0 l 0 -5 l 5 0 l 5 0 l 0 -5 l 0 -5 l 0 5 l 0 -5 l -5 0 l 0 -5 l 0 5 l 0 5 l 0 5 l 0 5 l 0 5 l 0 -5 l 0 5 l 0 -5 l 0 5 l 5 0 l -5 0 l 0 -5 l -5 0 l 5 0 l -5 0 l 5 0 l 0 -5 l 0 5 l 0 5 l -5 0 l -5 0 l 5 0 l -5 0 l 0 -5 l 5 0 l 0 -5 l 0 5 l 0 5 l 0 5 l -5 0 l 0 -5 l 0 -5 l 0 -5 l -5 0 l 0 -5 l -5 0 l -5 0 l -5 0 l 0 5 l 0 -5 l -5 0 l 0 -5 l 0 5 l -5 0 l -5 0 l 5 0 l 0 -5 l 0 -5 l 0 5 l 0 -5 l 5 0 l -5 0 l -5 0 l 5 0 l -5 0 l 0 5 l 0 5 l -5 0 l 0 -5 l 0 -5 l 5 0 l -5 0 l 0 5 l 5 0 l 0 5 l 5 0 l 5 0 l 0 -5 l 0 5 l 5 0 l -5 0 l 0 -5 l 0 5 l 0 -5 l 5 0 l 5 0 l 0 5 l 0 5 l 0 -5 l -5 0 l -5 0 l -5 0 l 5 0 l -5 0 l 5 0 l 0 -5 l 0 -5 l -5 0 l -5 0 l -5 0 l 0 -5 l 0 -5 l 0 5 l 0 5 l 0 -5 l 0 5 l 5 0 l 5 0 l 0 5 l 5 0 l 0 -5 l 5 0 l 0 5 l 0 -5 l 0 -5 l 5 0 l 0 -5 l 5 0 l -5 0 l 0 5 l -5 0 l 5 0 l 5 0 l 5 0 l 0 5 l 5 0 l 0 5 l 5 0 l -5 0 l -5 0 l 0 -5 l 0 -5 l 5 0 l 5 0 l 0 5 l 0 -5 l 0 5 l -5 0 l 5 0 l 0 -5 l 5 0"></path><path fill="rgba(100%,19.62%,0%,0.5)" d="M 205 315 l -5 0 l -5 0 l 0 5 l -5 0 l 0 5 l -5 0 l 0 5 l 5 0 l 5 0 l 0 -5 l 0 -5 l -5 0 l 0 -5 l -5 0 l 5 0 l 0 -5 l 0 5 l 5 0 l 5 0 l 0 -5 l 0 5 l 5 0 l 0 -5 l 5 0 l -5 0 l -5 0 l -5 0 l 0 5 l -5 0 l 5 0 l 0 5 l 0 -5 l 5 0 l 0 -5 l 0 -5 l 0 5 l -5 0 l -5 0 l 0 -5 l 0 -5 l 0 5 l -5 0 l 0 5 l -5 0 l 5 0 l 0 5 l -5 0 l 0 5 l -5 0 l 0 -5 l 0 5 l 0 -5 l 0 5 l 0 5 l 0 5 l -5 0 l 0 5 l 0 -5 l -5 0 l 5 0 l 5 0 l 5 0 l 5 0 l -5 0 l 5 0 l 5 0 l -5 0 l 0 5 l 0 5 l 5 0 l 0 -5 l 0 -5 l 0 -5 l -5 0 l 5 0 l 5 0 l 5 0 l 0 -5 l 5 0 l 0 5 l 5 0 l -5 0 l 0 -5 l 0 -5 l -5 0 l 5 0 l 0 -5 l 0 -5 l -5 0 l 5 0 l 0 -5 l -5 0 l -5 0 l 5 0 l 0 -5 l 0 -5 l -5 0 l 0 5 l 0 5 l 5 0 l -5 0 l 0 -5 l 0 -5 l -5 0 l 0 5 l 0 -5 l 0 5 l 0 5 l 5 0 l 0 5 l 5 0 l 0 -5 l 0 5 l 0 5 l 0 5 l 5 0 l 5 0 l 0 -5 l 5 0 l 5 0 l 0 5 l 0 5 l -5 0 l 5 0 l 0 -5 l 0 -5 l 0 -5 l 0 5 l 5 0 l 0 -5 l -5 0 l 0 -5 l 5 0 l 5 0 l 0 -5 l 0 5 l 0 -5 l 0 5 l 0 -5 l 5 0 l 5 0 l 0 5 l 5 0 l 5 0 l 0 5 l -5 0 l 0 5 l -5 0 l 5 0 l 0 5 l 0 -5 l -5 0 l 0 5 l 0 -5 l 0 -5 l 5 0 l -5 0 l 5 0 l 0 5 l 0 -5 l -5 0 l -5 0 l 5 0 l 0 5 l 0 5 l -5 0 l 0 5 l 5 0 l -5 0 l 5 0 l -5 0 l -5 0 l 0 5 l 0 -5 l 5 0 l 0 5 l 0 5 l 5 0 l -5 0 l 0 5 l 0 5 l -5 0 l 5 0 l -5 0 l 5 0 l 0 5 l 0 5 l 5 0 l -5 0 l -5 0 l -5 0 l -5 0 l 0 5 l -5 0 l 0 5 l 0 -5 l 5 0 l 5 0 l -5 0 l 0 5 l -5 0 l 0 -5 l -5 0 l -5 0 l -5 0 l 0 -5 l 5 0 l 0 -5 l 5 0 l 0 -5 l 0 -5 l -5 0 l -5 0 l 0 5 l -5 0 l 5 0 l -5 0 l -5 0 l -5 0 l 0 5 l 0 -5 l 0 -5 l 5 0 l 5 0 l 0 5 l 0 5 l -5 0 l 0 -5 l 0 5 l -5 0 l 0 5 l -5 0 l -5 0 l 0 -5 l -5 0 l 5 0 l 5 0 l 0 -5 l -5 0 l 0 5 l -5 0 l 5 0 l -5 0 l 0 -5 l 5 0 l 5 0 l -5 0 l 5 0 l 0 5 l 0 5 l -5 0 l 5 0 l 0 -5 l 5 0 l 0 5 l 5 0 l 0 5 l 5 0 l 0 5 l 0 -5 l 0 5 l 0 5 l 5 0 l 5 0 l 0 -5 l 0 -5 l -5 0 l 0 5 l 0 -5 l 0 5 l 0 -5 l 0 -5 l 0 -5 l 5 0 l 5 0 l 0 -5 l 0 -5 l 5 0 l -5 0 l -5 0 l 5 0 l 0 -5 l 0 5 l 0 -5 l 0 5 l 0 -5 l -5 0 l 0 -5 l -5 0 l -5 0 l -5 0 l 5 0 l -5 0 l -5 0 l 0 -5 l 0 5 l 5 0 l 0 -5 l 0 5 l 5 0 l 5 0 l -5 0 l 0 5 l 0 -5 l -5 0 l 5 0 l 0 -5 l -5 0 l 5 0 l 5 0 l -5 0 l -5 0 l 0 5 l -5 0 l 5 0 l 5 0 l 0 -5 l 5 0 l 0 5 l 0 5 l 0 5 l 0 5 l 0 5 l -5 0 l 5 0 l -5 0 l 0 -5 l 0 5 l 5 0 l -5 0 l 0 5 l 0 5 l -5 0 l 0 -5 l 5 0 l 0 -5 l -5 0 l -5 0 l -5 0 l 0 -5 l -5 0 l 5 0 l 0 -5 l 5 0 l 5 0 l 5 0 l 0 -5 l 5 0 l 0 -5 l 0 -5 l 0 5 l 0 -5 l 5 0 l -5 0 l 5 0 l -5 0 l 0 -5 l 0 -5 l 0 -5 l 5 0 l 0 5 l 0 5 l 0 -5 l 5 0 l 5 0 l 0 -5 l 0 -5 l -5 0 l -5 0 l 5 0 l 5 0 l -5 0 l 5 0 l 0 -5 l -5 0 l -5 0 l 0 5 l 0 -5 l 0 5 l -5 0 l 0 -5 l 0 -5 l 0 5 l 5 0 l 0 5 l 0 5 l 5 0 l 0 -5 l 0 -5 l 0 -5 l -5 0 l 0 5 l 0 5 l 0 -5 l 0 5 l 0 -5 l 0 5 l 5 0 l 0 -5 l 0 5 l 5 0 l -5 0 l 5 0 l 5 0 l -5 0 l 0 -5 l -5 0 l 5 0 l 5 0 l -5 0 l 0 5 l -5 0 l 0 5 l -5 0 l -5 0 l 5 0 l -5 0 l 5 0 l 0 -5 l -5 0 l -5 0 l 0 5 l 0 -5 l 0 5 l 0 -5 l 0 5 l 0 5 l 0 -5 l 0 -5 l 0 5 l 0 5 l -5 0 l 5 0 l 0 5 l 5 0 l 5 0"></path><path fill="rgba(73.79%,0%,26.21%,0.5)" d="M 5 395 l -5 0 l 0 5 l -5 0 l 0 5 l 5 0 l 0 5 l 5 0 l -5 0 l 5 0 l 0 5 l 0 -5 l 0 5 l 5 0 l 0 5 l 5 0 l 5 0 l 0 5 l 5 0 l -5 0 l 0 5 l -5 0 l -5 0 l -5 0 l 0 5 l 0 5 l -5 0 l 5 0 l 5 0 l -5 0 l -5 0 l -5 0 l 5 0 l 0 5 l -5 0 l -5 0 l 0 5 l 0 -5 l -5 0 l -5 0 l 0 -5 l 0 5 l -5 0 l 0 5 l 0 -5 l 5 0 l 0 -5 l -5 0 l 0 -5 l 5 0 l 5 0 l 0 -5 l 0 -5 l 0 -5 l 5 0 l 5 0 l 0 5 l 5 0 l 5 0 l -5 0 l 0 5 l 0 -5 l 5 0 l 0 5 l 0 -5 l 0 5 l 5 0 l 5 0 l -5 0 l 5 0 l 0 5 l -5 0 l 5 0 l -5 0 l 5 0 l -5 0 l 0 -5 l 5 0 l 5 0 l 0 -5 l 0 5 l 0 -5 l 0 5 l 0 5 l 0 5 l 0 -5 l 0 -5 l 0 5 l -5 0 l -5 0 l -5 0 l -5 0 l 5 0 l 5 0 l 0 -5 l 5 0 l -5 0 l 5 0 l 0 5 l -5 0 l 5 0 l 0 -5 l 5 0 l 0 5 l 0 5 l 0 -5 l 0 5 l 0 -5 l 0 5 l 0 5 l 5 0 l -5 0 l 0 -5 l 0 -5 l 5 0 l 5 0 l 0 -5 l 0 -5 l -5 0 l 0 -5 l 5 0 l -5 0 l 0 -5 l 0 5 l 0 5 l 0 5 l 0 -5 l 0 -5 l 0 -5 l -5 0 l 0 -5 l -5 0 l 0 -5 l 0 5 l -5 0 l -5 0 l 5 0 l 5 0 l 0 -5 l 0 5 l 0 -5 l 0 -5 l 0 5 l 5 0 l 5 0 l 5 0 l 0 -5 l 0 5 l 0 5 l 5 0 l 0 -5 l 0 -5 l -5 0 l 0 5 l 0 5 l -5 0 l 5 0 l -5 0 l 0 5 l -5 0 l 0 5 l 0 -5 l 5 0 l 0 -5 l 0 -5 l -5 0 l -5 0 l 0 5 l -5 0 l -5 0 l 0 -5 l 5 0 l 0 -5 l -5 0 l 0 5 l 5 0 l -5 0 l 0 -5 l 5 0 l 5 0 l 5 0 l 0 -5 l 0 5 l 5 0 l -5 0 l 5 0 l 0 5 l 0 5 l -5 0 l -5 0 l 5 0 l -5 0 l 0 -5 l 0 5 l 0 5 l 0 -5 l 0 5 l -5 0 l -5 0 l 5 0 l 5 0 l -5 0 l 0 5 l -5 0 l -5 0 l -5 0 l 0 -5 l 5 0 l 0 5 l -5 0 l 0 -5 l 0 5 l 5 0 l 0 5 l 0 -5 l 0 -5 l -5 0 l 5 0 l 0 5 l 0 -5 l 0 -5 l -5 0 l 0 5 l 0 -5 l 5 0 l -5 0 l 0 -5 l 5 0 l -5 0 l 0 5 l 5 0 l 0 5 l 5 0 l 0 5 l 0 -5 l 0 5 l -5 0 l -5 0 l 5 0 l 5 0 l 5 0 l 0 5 l 0 5 l -5 0 l 5 0 l -5 0 l 0 -5 l 0 -5 l 5 0 l -5 0 l 0 -5 l 5 0 l 0 -5 l 5 0 l -5 0 l 0 5 l 0 5 l 0 -5 l 0 -5 l 0 -5 l 0 5 l -5 0 l -5 0 l -5 0 l 5 0 l 5 0 l 5 0 l 5 0 l 0 5 l 0 -5 l -5 0 l 0 -5 l 5 0 l 5 0 l 0 -5 l 0 -5 l -5 0 l 0 5 l 5 0 l -5 0 l 0 -5 l 0 5 l 0 -5 l 0 -5 l 0 -5 l -5 0 l 0 -5 l 0 5 l 0 5 l 5 0 l 0 5 l 0 -5 l -5 0 l -5 0 l 0 5 l 0 5 l 5 0 l 0 5 l 0 -5 l 5 0 l 0 5 l 0 -5 l -5 0 l 0 -5 l 0 -5 l 5 0 l -5 0 l 0 -5 l 0 5 l 5 0 l -5 0 l -5 0 l -5 0 l -5 0 l 5 0 l 0 -5 l 0 -5 l 5 0 l 0 -5 l -5 0 l -5 0 l 5 0 l 0 5 l -5 0 l 5 0 l -5 0 l 0 -5 l 0 5 l 0 5 l 5 0 l 5 0 l 0 5 l -5 0 l 0 5 l 5 0 l 5 0 l 0 5 l -5 0 l -5 0 l 0 -5 l 0 5 l 5 0 l 0 -5 l -5 0 l 5 0 l 0 -5 l 0 5 l -5 0 l 5 0 l 0 -5 l 0 -5 l 0 5 l 5 0 l 5 0 l 5 0 l 0 5 l -5 0 l -5 0 l 0 5 l 0 5 l 5 0 l -5 0 l 0 5 l 5 0 l 0 5 l 0 5 l 5 0 l 0 5 l 5 0 l 0 -5 l 5 0 l 0 5 l 0 -5 l 0 5 l 0 -5 l -5 0 l 0 -5 l -5 0 l -5 0 l 0 5 l 5 0 l 0 -5 l 0 5 l 0 5 l 5 0 l 5 0 l 0 5 l 0 5 l 5 0 l 5 0 l -5 0 l 0 5 l 5 0 l 5 0 l 0 -5 l 0 5 l -5 0 l 0 -5 l -5 0 l 0 -5 l 5 0 l 0 5 l -5 0 l 5 0 l -5 0 l 0 -5 l 0 -5 l 0 -5 l -5 0 l -5 0 l -5 0 l 0 -5 l -5 0 l 5 0 l -5 0 l 0 -5 l 5 0 l 0 -5 l -5 0 l 0 5 l -5 0 l 0 -5 l -5 0 l 0 -5 l 5 0 l 0 5 l 0 -5 l -5 0 l 0 5 l 0 -5 l 0 -5"></path><path fill="rgba(77.88%,0%,22.12%,0.5)" d="M 470 335 l 0 5 l -5 0 l 0 -5 l 0 5 l 0 5 l 0 -5 l 5 0 l -5 0 l -5 0 l -5 0 l 5 0 l 0 5 l 0 -5 l 5 0 l -5 0 l 0 -5 l -5 0 l 0 -5 l 0 -5 l 5 0 l 5 0 l 0 -5 l 0 -5 l 5 0 l 0 -5 l -5 0 l 5 0 l 5 0 l 5 0 l -5 0 l 0 -5 l 5 0 l 0 -5 l 0 -5 l 0 -5 l 0 5 l -5 0 l -5 0 l 5 0 l 0 5 l 0 -5 l 0 -5 l 5 0 l -5 0 l 0 5 l 0 -5 l 0 5 l -5 0 l 0 -5 l 0 -5 l 0 5 l 0 5 l 0 -5 l 0 -5 l 0 5 l 0 5 l 0 5 l -5 0 l 5 0 l 5 0 l 0 5 l 5 0 l 0 5 l 0 5 l 5 0 l -5 0 l 0 -5 l -5 0 l 0 5 l 0 -5 l 0 5 l 5 0 l -5 0 l -5 0 l 5 0 l 0 -5 l 5 0 l -5 0 l 5 0 l 5 0 l 5 0 l 0 5 l 0 -5 l 5 0 l 5 0 l -5 0 l 0 5 l 5 0 l 0 -5 l 0 -5 l 0 5 l 0 5 l 0 -5 l 0 5 l 0 -5 l -5 0 l 0 5 l 5 0 l 5 0 l 0 5 l -5 0 l 5 0 l -5 0 l 0 5 l 0 5 l -5 0 l 0 5 l 5 0 l 5 0 l -5 0 l 0 5 l 5 0 l 5 0 l 0 5 l 0 -5 l 0 5 l 0 -5 l -5 0 l 5 0 l -5 0 l -5 0 l 0 5 l -5 0 l 0 -5 l -5 0 l -5 0 l 0 5 l -5 0 l -5 0 l 0 -5 l 0 5 l 0 -5 l -5 0 l 5 0 l -5 0 l 0 -5 l 0 5 l 0 -5 l 5 0 l -5 0 l -5 0 l 0 -5 l 0 -5 l 0 5 l 5 0 l 5 0 l 0 -5 l 0 5 l 5 0 l 0 5 l -5 0 l 0 -5 l 5 0 l 5 0 l -5 0 l 5 0 l 0 5 l 5 0 l 0 -5 l 5 0 l 0 -5 l 5 0 l 0 5 l 5 0 l 0 -5 l 0 -5 l 5 0 l 5 0 l 0 5 l 0 5 l 0 -5 l -5 0 l -5 0 l 5 0 l 5 0 l -5 0 l 5 0 l -5 0 l 5 0 l -5 0 l 0 5 l 0 -5 l -5 0 l -5 0 l 0 -5 l 0 -5 l 5 0 l 5 0 l 0 5 l 5 0 l 0 5 l 0 5 l 0 5 l -5 0 l -5 0 l 0 -5 l 0 5 l 0 -5 l -5 0 l 0 5 l 0 5 l 5 0 l 0 5 l 0 -5 l 0 -5 l -5 0 l 0 -5 l 0 5 l -5 0 l 0 -5 l -5 0 l 5 0 l 5 0 l 5 0 l -5 0 l 5 0 l 5 0 l 0 5 l 5 0 l 0 5 l -5 0 l 0 5 l 5 0 l 5 0 l -5 0 l 0 5 l -5 0 l 0 5 l -5 0 l -5 0 l 0 -5 l 0 -5 l -5 0 l 5 0 l 0 5 l 0 -5 l -5 0 l 0 5 l -5 0 l -5 0 l 5 0 l 0 -5 l 0 5 l 5 0 l 0 5 l -5 0 l 0 5 l 5 0 l -5 0 l 0 -5 l -5 0 l -5 0 l -5 0 l 0 5 l 0 -5 l 0 -5 l 5 0 l 5 0 l 0 5 l 0 -5 l 5 0 l 0 -5 l 5 0 l -5 0 l 0 -5 l -5 0 l -5 0 l 0 -5 l 0 -5 l 5 0 l 0 -5 l 0 -5 l 5 0 l 0 -5 l 5 0 l 5 0 l 0 5 l -5 0 l 5 0 l 0 5 l 0 5 l 0 5 l 0 5 l 0 5 l 5 0 l 5 0 l 0 -5 l 5 0 l -5 0 l -5 0 l 5 0 l -5 0 l 5 0 l -5 0 l 0 -5 l 5 0 l 0 5 l 0 5 l 5 0 l 5 0 l 5 0 l 0 -5 l 5 0 l 5 0 l 0 -5 l -5 0 l 5 0 l 0 5 l -5 0 l 0 5 l 5 0 l 5 0 l 0 -5 l 0 5 l 0 5 l 0 5 l -5 0 l 0 5 l 5 0 l 0 5 l 5 0 l 5 0 l 0 5 l 5 0 l 5 0 l 5 0 l 5 0 l 5 0 l 0 5 l 5 0 l -5 0 l 0 5 l 0 -5 l 5 0 l 0 5 l -5 0 l 0 -5 l 0 -5 l 0 5 l 0 -5 l -5 0 l 0 5 l 0 -5 l 0 5 l -5 0 l -5 0 l -5 0 l 0 5 l 5 0 l 0 -5 l 5 0 l -5 0 l 0 -5 l -5 0 l 0 -5 l 0 -5 l 0 5 l 0 -5 l -5 0 l 0 5 l 0 -5 l -5 0 l 0 5 l 5 0 l -5 0 l -5 0 l 0 -5 l -5 0 l 0 5 l 0 5 l 0 5 l 0 5 l -5 0 l 5 0 l 0 5 l 5 0 l 5 0 l 0 -5 l -5 0 l 0 5 l 5 0 l 0 5 l 0 5 l 0 -5 l -5 0 l 0 -5 l 0 5 l 5 0 l -5 0 l 0 -5 l 0 -5 l 0 -5 l 5 0 l 5 0 l 5 0 l -5 0 l 0 -5 l 0 5 l 5 0 l 0 5 l 0 5 l -5 0 l 0 5 l 5 0 l 5 0 l 0 5 l 0 5 l 5 0 l 0 -5 l 0 -5 l -5 0 l 0 5 l 5 0 l 5 0 l 0 5 l 0 -5 l 0 -5 l 0 5 l -5 0 l 5 0 l 5 0 l 5 0 l -5 0 l -5 0 l -5 0 l -5 0 l 0 -5 l 0 -5 l 0 5 l -5 0 l 5 0 l 0 5 l -5 0 l -5 0 l 5 0 l 5 0 l 0 -5 l 0 -5 l -5 0 l 0 -5 l 5 0 l 0 5 l -5 0 l -5 0 l 0 -5 l -5 0 l 5 0 l 0 5 l 0 5 l 0 5 l 0 5 l 0 -5 l 0 -5 l 5 0 l 5 0 l 5 0 l 0 5 l -5 0 l 5 0 l 0 5 l 0 5 l 0 5 l -5 0 l 0 5 l 0 5 l -5 0 l 0 -5 l 0 -5 l 0 -5 l 0 5 l 5 0 l 5 0 l 0 5 l 0 5 l -5 0 l 0 -5 l 0 -5 l 0 5 l 0 5 l -5 0 l 5 0 l 0 5 l 5 0 l 0 -5 l 0 5 l 0 5 l 5 0 l 0 -5 l 0 5 l -5 0 l 0 5 l 5 0 l 0 -5 l 0 -5 l 0 -5 l -5 0 l 0 5 l -5 0 l 0 -5 l 5 0 l 0 5 l 0 5 l 5 0 l 5 0 l 0 5 l 0 5 l 5 0 l 0 -5 l 0 -5 l 0 -5 l -5 0 l 5 0 l 0 -5 l -5 0 l -5 0 l -5 0 l 0 5 l 0 -5 l 0 5 l 0 -5 l 5 0 l 0 -5 l 0 -5 l 0 5 l 5 0 l 0 -5 l -5 0 l -5 0 l 0 -5 l -5 0 l -5 0 l 0 5 l 0 -5 l -5 0 l 0 5 l 0 5 l 5 0 l 5 0 l -5 0 l 5 0 l 5 0 l -5 0 l 5 0 l -5 0 l -5 0 l -5 0 l 0 5 l 0 -5 l -5 0 l -5 0 l 5 0 l 0 5 l -5 0 l -5 0 l 0 5 l -5 0 l 0 -5 l -5 0 l -5 0 l -5 0 l -5 0 l 0 5 l -5 0 l 0 -5 l 0 -5 l 0 5 l 0 -5 l 0 -5 l -5 0 l 5 0 l -5 0 l 0 -5 l 0 5 l 0 5 l 0 -5 l 0 -5 l 5 0 l 0 5 l 5 0 l 5 0 l 0 5 l -5 0 l 5 0 l 0 -5 l -5 0 l 0 5 l 0 -5 l 0 -5 l 5 0 l -5 0 l 0 -5 l 0 -5 l 0 5 l 0 5 l -5 0 l 0 5 l -5 0 l -5 0 l 0 5 l 0 5 l -5 0 l -5 0 l 5 0 l 5 0 l 0 5 l 5 0 l 5 0 l -5 0 l 5 0 l 5 0 l 0 -5 l 5 0 l -5 0 l 0 -5 l -5 0 l -5 0 l -5 0 l -5 0 l -5 0 l -5 0 l 5 0 l 0 -5 l 5 0 l 0 -5 l 0 -5 l 0 5 l 0 -5 l 5 0 l 5 0 l 5 0 l 0 -5 l 0 5 l 0 5 l 0 -5 l 0 -5 l 5 0 l 0 5 l 0 -5 l 0 -5 l 0 5 l 0 -5 l 5 0 l 5 0 l 0 5 l -5 0 l -5 0 l 0 5 l 0 -5 l 0 5 l 0 -5 l 5 0 l -5 0 l -5 0 l -5 0 l -5 0 l -5 0 l 0 5 l -5 0 l -5 0 l -5 0 l -5 0 l 0 -5 l 5 0 l 5 0 l 0 -5 l 0 5 l 0 5 l 5 0 l 0 5 l -5 0 l 0 5 l 0 5 l -5 0 l -5 0 l 0 -5 l 0 5 l 0 -5 l 0 -5 l 5 0 l -5 0 l -5 0 l 0 -5 l 0 -5 l 5 0 l 0 -5 l 5 0 l 5 0 l 5 0 l 0 5 l -5 0 l -5 0 l -5 0 l 0 5 l 0 5 l 0 -5 l 0 -5 l 0 -5 l 5 0 l 0 -5 l 0 5 l 0 -5 l -5 0 l 5 0 l -5 0 l 0 -5 l -5 0 l 0 -5 l 0 5 l 5 0 l 0 -5 l 5 0 l 0 -5 l -5 0 l 0 -5 l 0 5 l 5 0 l 0 -5 l 5 0 l -5 0 l 0 5 l 5 0 l 0 5 l 0 -5 l -5 0 l 0 5 l 0 -5 l 0 5 l -5 0 l 0 -5 l 5 0 l 0 5 l 0 -5 l -5 0 l 0 -5 l 0 -5 l 0 -5 l 0 -5 l 5 0 l 5 0 l -5 0 l 0 -5 l 0 5 l 0 -5 l -5 0 l 5 0 l 0 5 l 0 -5 l 0 5 l 0 5 l -5 0 l -5 0 l 5 0 l 0 5 l 5 0 l 0 5 l 0 5 l 0 5 l 0 5 l 0 5 l -5 0 l 5 0 l 0 5 l 0 5 l 0 -5 l 5 0 l -5 0 l 5 0 l 0 5 l 0 5 l 0 5 l 0 -5 l 0 5 l 0 -5 l -5 0 l 0 -5 l 0 -5 l 5 0 l 0 5 l 5 0 l 5 0 l 5 0 l 0 -5 l 0 -5 l 0 5 l 5 0 l 0 -5 l 5 0 l 5 0 l -5 0 l 0 -5 l -5 0 l 5 0 l 0 5 l 5 0 l 0 5 l 0 5 l 5 0 l -5 0 l 0 -5 l 5 0 l 5 0 l 0 5 l 0 -5 l -5 0 l 5 0 l 5 0 l -5 0 l 0 5 l 0 -5 l 5 0 l 0 -5 l -5 0 l 0 -5 l -5 0 l -5 0 l 0 5 l -5 0 l -5 0 l 0 5 l 0 -5 l 0 -5 l -5 0 l 0 -5 l -5 0 l 0 -5 l -5 0 l 5 0 l 0 5 l 0 -5 l 0 5 l 5 0 l 5 0 l 5 0 l -5 0 l -5 0 l 0 5 l 0 -5 l 0 5 l -5 0 l 0 -5 l 0 5 l -5 0 l 0 5 l -5 0 l 0 5 l -5 0 l 0 5 l -5 0 l 0 -5 l 0 5 l 0 5 l 0 -5 l 5 0 l 0 5 l 0 5 l 5 0 l 0 -5 l 0 -5 l 0 -5 l 0 5 l 0 -5 l 5 0 l 5 0 l 0 5 l -5 0 l 0 -5 l 0 5 l 5 0 l 0 -5 l 5 0 l -5 0 l 0 -5 l 0 -5 l 0 5 l 5 0 l -5 0 l 0 -5 l 0 -5 l 5 0 l 0 5 l -5 0 l -5 0 l 0 -5 l 0 -5 l 0 -5 l -5 0 l 0 5 l 0 5 l 0 5 l -5 0 l 5 0 l 5 0 l 5 0 l 0 -5 l 0 -5 l 0 -5 l 0 5 l 0 -5 l 0 5 l -5 0 l 0 -5 l -5 0 l 0 -5 l 0 5 l -5 0 l -5 0 l 5 0 l 0 5 l -5 0 l 0 -5 l -5 0 l 0 5 l 0 -5 l 5 0 l 0 -5 l 5 0 l 0 -5 l 5 0 l -5 0 l 0 -5 l 0 -5 l -5 0 l 0 5 l 0 5 l 5 0 l 0 -5 l 0 -5 l -5 0 l 0 -5 l 5 0 l 5 0 l 0 5 l -5 0 l 0 -5 l 0 -5 l -5 0"></path><path fill="rgba(100%,76.55%,0%,0.5)" d="M 80 80 l 0 -5 l 5 0 l 0 5 l 5 0 l 0 -5 l 5 0 l 0 -5 l 0 -5 l 0 -5 l 0 -5 l -5 0 l 0 5 l 0 -5 l 5 0 l -5 0 l 0 -5 l -5 0 l 0 5 l 0 5 l 0 -5 l 0 -5 l -5 0 l 0 -5 l 5 0 l 5 0 l 5 0 l 0 -5 l -5 0 l 5 0 l -5 0 l -5 0 l 5 0 l 5 0 l 0 5 l 0 5 l 0 -5 l -5 0 l 0 -5 l -5 0 l 0 -5 l 0 5 l 0 5 l 5 0 l 5 0 l 5 0 l 0 -5 l 0 -5 l 5 0 l 0 -5 l -5 0 l 0 -5 l 0 -5 l 5 0 l 5 0 l 0 5 l 0 5 l 0 5 l -5 0 l 0 5 l 0 -5 l 0 -5 l 0 -5 l 5 0 l 0 -5 l 5 0 l 0 5 l -5 0 l -5 0 l 0 -5 l 0 5 l 5 0 l 0 -5 l 5 0 l -5 0 l 5 0 l -5 0 l 0 -5 l 0 -5 l 0 -5 l 0 5 l -5 0 l 0 -5 l 0 -5 l 0 -5 l 0 -5 l 0 5 l 0 -5 l -5 0 l 0 -5 l 0 -5 l 0 -5 l 5 0 l -5 0 l -5 0 l 0 -5 l 0 -5 l -5 0 l 5 0 l 0 5 l -5 0 l 0 -5 l 5 0 l 0 -5 l 5 0 l -5 0 l 5 0 l 0 5 l 5 0 l 0 -5 l 0 5 l 0 5 l 0 -5 l 0 5 l 5 0 l -5 0 l 5 0 l -5 0 l 0 5 l 5 0 l 0 -5 l 5 0 l 0 5 l 5 0 l 0 -5 l 0 -5 l 0 5 l 0 -5 l -5 0 l 0 -5 l -5 0 l 5 0 l 5 0 l 0 5 l 0 5 l 0 5 l 0 5 l 5 0 l 0 5 l 0 5 l 0 5 l 0 -5 l 0 -5 l 0 5 l 0 -5 l -5 0 l -5 0 l 5 0 l 0 5 l 0 -5 l 0 -5 l 0 -5 l 5 0 l 5 0 l -5 0 l -5 0 l 0 5 l -5 0 l 0 5 l 5 0 l 0 5 l 0 5 l -5 0 l -5 0 l 5 0 l 5 0 l 0 5 l -5 0 l -5 0 l 5 0 l 0 5 l -5 0 l 5 0 l -5 0 l -5 0 l 0 -5 l 5 0 l 0 5 l 0 -5 l 5 0 l 0 5 l -5 0 l -5 0 l 0 -5 l 0 -5 l 0 5 l 5 0 l 5 0 l 5 0 l 0 5 l 0 5 l 0 -5 l 0 5 l -5 0 l 0 -5 l -5 0 l 0 -5 l -5 0 l -5 0 l 0 -5 l 0 5 l 0 -5 l 0 5 l 0 5 l -5 0 l 5 0 l 0 -5 l -5 0 l -5 0 l 5 0 l 0 -5 l -5 0 l 5 0 l 5 0 l 5 0 l 5 0 l 0 -5 l 5 0 l 5 0 l -5 0 l 0 -5 l 0 5 l 5 0 l -5 0 l 5 0 l 0 5 l 0 5 l 0 -5 l 5 0 l 5 0 l -5 0 l 0 -5 l 5 0 l 0 5 l -5 0 l 5 0 l 0 5 l 5 0 l 0 -5 l 0 5 l 5 0 l 0 -5 l 0 5 l -5 0 l 5 0 l 0 -5 l 0 5 l -5 0 l -5 0 l 5 0 l 0 5 l 5 0 l 0 -5 l 0 -5 l -5 0 l 0 5 l 0 5 l -5 0 l -5 0 l 0 -5 l 5 0 l 0 5 l 5 0 l -5 0 l 0 5 l 0 5 l 0 -5 l 0 -5 l 0 5 l -5 0 l -5 0 l 5 0 l 0 5 l 0 -5 l 0 5 l 0 5 l 0 -5 l 5 0 l -5 0 l 0 5 l 0 5 l 5 0 l 5 0 l 0 -5 l 5 0 l -5 0 l 0 5 l -5 0 l -5 0 l -5 0 l -5 0 l 5 0 l 0 5 l -5 0 l -5 0 l 5 0 l 0 -5 l -5 0 l 0 5 l 0 5 l 0 5 l 0 -5 l -5 0 l 0 5 l 5 0 l 5 0 l 0 5 l 0 5 l 0 5 l -5 0 l 5 0 l 0 -5 l 0 -5 l 0 -5 l 0 -5 l 0 -5 l -5 0 l 5 0 l 0 -5 l -5 0 l 0 -5 l -5 0 l 0 5 l -5 0 l 0 -5 l -5 0 l 0 -5 l 0 5 l -5 0 l 0 -5 l -5 0 l 5 0 l 0 -5 l 0 5 l -5 0 l -5 0 l 0 -5 l 5 0 l 0 5 l -5 0 l 0 5 l 0 5 l 0 -5 l -5 0 l 0 -5 l 0 -5 l -5 0 l 0 -5 l -5 0 l 5 0 l 5 0 l 0 5 l 0 5 l 0 -5 l 0 5 l 0 5 l 0 5 l 0 5 l 5 0 l 5 0 l 0 -5 l -5 0 l -5 0 l -5 0 l 0 -5 l 5 0 l 0 -5 l -5 0 l 5 0 l 0 5 l 5 0 l 0 5 l -5 0 l 0 5 l 0 -5 l 0 -5 l -5 0 l 0 -5 l 5 0 l -5 0 l 0 -5 l 5 0 l 5 0 l -5 0 l -5 0 l 5 0 l -5 0 l -5 0 l 0 5 l -5 0 l -5 0 l 0 -5 l -5 0 l -5 0 l 5 0 l -5 0 l 0 -5 l 5 0 l 5 0 l 0 -5 l 0 5 l 0 -5 l 0 5 l 0 5 l -5 0 l 5 0 l -5 0 l 0 5 l -5 0 l 0 5 l -5 0 l 0 -5 l 0 5 l 5 0 l -5 0 l 0 -5 l 5 0 l 0 5 l 5 0 l 5 0 l -5 0 l 0 5 l 5 0 l -5 0 l 0 -5 l 0 5 l 0 -5 l -5 0 l 0 -5 l 5 0 l 5 0 l 0 5 l 0 5 l 0 -5 l -5 0 l -5 0 l 0 -5 l 0 -5 l 0 5 l 0 -5 l -5 0 l -5 0 l 0 -5 l -5 0 l -5 0 l 0 5 l 5 0 l 0 -5 l 0 5 l 5 0 l 0 5 l 0 5 l 5 0 l -5 0 l -5 0 l 5 0 l -5 0 l 0 -5 l 5 0 l 5 0 l 0 -5 l 5 0 l 0 5 l 5 0 l -5 0 l -5 0 l 5 0 l 0 5 l 0 5 l -5 0 l 0 5 l 0 -5 l 5 0 l 5 0 l -5 0 l -5 0 l 5 0 l 0 -5 l 5 0 l 0 5 l -5 0 l 0 5 l -5 0 l 5 0 l 0 5 l 0 5 l -5 0 l 0 -5 l 5 0 l 5 0 l 5 0 l 5 0 l -5 0 l -5 0 l 0 5 l 0 5 l -5 0 l 0 5 l 5 0 l 0 -5 l -5 0 l 0 -5 l -5 0 l 5 0 l -5 0 l 0 5 l -5 0 l 5 0 l 5 0 l 0 5 l 0 5 l 5 0 l -5 0 l 0 -5 l 5 0 l 0 5 l 5 0 l 0 5 l 5 0 l 0 5 l 0 -5 l -5 0 l 0 -5 l 5 0 l 5 0 l 0 -5 l 5 0 l 0 -5 l -5 0 l -5 0 l 0 5 l 0 5 l 0 5 l 5 0 l 0 5 l 5 0 l 0 -5 l 0 -5 l -5 0 l 5 0 l 0 -5 l 0 -5 l 0 5 l 0 -5 l 0 5 l 0 5 l 0 -5 l 0 5 l 0 -5 l 0 -5 l -5 0 l 0 5 l 5 0 l 0 5 l 0 5 l 5 0 l 0 5 l 0 -5 l 5 0 l 0 5 l 0 -5 l 0 -5 l 0 -5 l 0 -5 l 5 0 l -5 0 l 0 5 l 5 0 l -5 0 l 0 -5 l -5 0 l -5 0 l 0 5 l -5 0 l -5 0 l 5 0 l 0 -5 l 5 0 l 0 -5 l 5 0 l 5 0 l -5 0 l 0 5 l -5 0 l 0 -5 l 0 5 l 0 5 l 0 -5 l 0 5 l 5 0 l 0 -5 l 5 0 l 5 0 l 0 5 l -5 0 l 0 5 l 0 -5 l 0 5 l 0 5 l 5 0 l 0 -5 l -5 0 l 5 0 l 0 5 l 5 0 l -5 0 l -5 0 l 0 5 l 5 0 l 5 0 l 0 -5 l -5 0 l -5 0 l 5 0 l 0 5 l -5 0 l 0 5 l 5 0 l 0 5 l 5 0 l 5 0 l 0 5 l -5 0 l -5 0 l 5 0 l 0 -5 l -5 0 l 5 0 l -5 0 l 5 0 l 5 0 l -5 0 l 0 5 l -5 0 l 0 -5 l 0 5 l 0 -5 l 0 -5 l 0 -5 l -5 0 l 0 5 l 0 5 l 5 0 l 5 0 l 5 0 l 0 5 l 5 0 l -5 0 l 0 -5 l 5 0 l -5 0 l 5 0 l -5 0 l 0 5 l 5 0 l 0 -5 l 5 0 l -5 0 l 5 0 l 0 5 l 0 5 l -5 0 l 0 5 l 5 0 l 0 5 l 0 5 l 0 -5 l 5 0 l 0 -5 l 5 0 l 0 -5 l -5 0 l 5 0 l -5 0 l 0 -5 l 0 5 l 0 -5 l -5 0 l -5 0 l 5 0 l 5 0 l 5 0 l 5 0 l -5 0 l 0 -5 l -5 0 l 0 -5 l 5 0 l 5 0 l 0 5 l -5 0 l 5 0 l 0 5 l 0 -5 l 0 5 l 5 0 l 0 -5 l -5 0 l -5 0 l 0 -5 l 0 -5 l 0 5 l 0 -5 l 0 5 l 0 5 l -5 0 l -5 0 l 0 -5 l 0 5 l -5 0 l 0 -5 l 0 5 l -5 0 l 0 5 l 0 -5 l 0 5 l 0 -5 l -5 0 l 5 0 l 5 0 l 0 -5 l 0 5 l 5 0 l -5 0 l 0 -5 l 5 0 l 5 0 l 5 0 l -5 0 l 5 0 l 0 5 l 0 5 l 0 -5 l 0 5 l 5 0 l 0 5 l 0 5 l -5 0 l 0 -5 l 5 0 l 0 5 l 5 0 l -5 0 l 0 5 l -5 0 l 5 0 l 5 0 l 5 0 l 5 0 l 0 5 l -5 0 l -5 0 l -5 0 l 5 0 l 0 -5 l -5 0 l 5 0 l 0 5 l 0 -5 l -5 0 l 0 5 l 0 5 l 0 -5 l 5 0 l 5 0 l 5 0 l -5 0 l -5 0 l 5 0 l -5 0 l 5 0 l 0 5 l -5 0 l -5 0 l 0 5 l -5 0 l 0 -5 l 5 0 l -5 0 l 5 0 l 0 5 l -5 0 l -5 0 l -5 0 l 0 -5 l 5 0 l 0 5 l 5 0 l 0 5 l 0 -5 l -5 0 l -5 0 l -5 0 l 0 5 l 0 -5 l -5 0 l 0 -5 l 0 -5 l -5 0 l 0 5 l 5 0 l -5 0 l 5 0 l 0 5 l 0 -5 l 0 5 l 0 5 l 0 -5 l 5 0 l -5 0 l 0 5 l 0 5 l 5 0 l 0 5 l 0 5 l 0 5 l 0 -5 l -5 0 l 5 0 l 0 -5 l 0 5 l 0 -5 l -5 0 l 0 -5 l 0 -5 l 5 0 l -5 0 l 0 5 l 0 -5 l 0 -5 l 0 -5 l 5 0 l 5 0 l 0 5 l 5 0 l 5 0 l 0 -5 l -5 0 l 0 5 l 0 -5 l 5 0 l 0 -5 l -5 0 l 5 0 l -5 0 l 5 0 l -5 0 l 0 5 l 0 -5 l -5 0 l -5 0 l 0 -5 l 5 0 l 0 5 l 5 0 l 0 -5 l 0 -5 l 0 -5 l 0 5 l 0 -5 l 0 -5 l -5 0 l 0 -5 l 0 5 l 0 5 l -5 0 l 0 5 l 5 0 l -5 0 l -5 0 l 0 5 l 5 0 l -5 0 l 5 0 l 0 5 l 0 -5 l 0 -5 l 5 0 l 0 -5 l 0 -5 l 5 0 l 0 5 l 0 5 l 0 -5 l 0 -5 l 0 5 l 0 -5 l 0 5 l 5 0 l 0 -5 l -5 0 l -5 0 l 0 5 l 5 0 l -5 0 l 5 0 l 0 5 l -5 0 l 0 -5 l 5 0 l -5 0 l -5 0 l 0 -5 l 0 -5 l 0 -5 l 0 -5 l 0 5 l 0 5 l -5 0 l 5 0 l 0 -5 l -5 0 l 0 -5 l 0 5 l 0 5 l -5 0 l 0 -5 l 0 -5 l 0 5 l -5 0 l 0 5 l 0 -5 l 5 0 l 0 5 l 5 0 l -5 0 l -5 0 l 5 0 l -5 0 l 0 -5 l 0 5 l 0 5 l 0 -5 l -5 0 l 0 -5 l 0 -5 l 0 -5 l -5 0 l -5 0 l 5 0 l 0 5 l -5 0 l 0 -5 l 0 -5 l -5 0 l 0 5 l 5 0 l 0 5 l 0 -5 l -5 0 l 0 5 l 0 -5 l -5 0 l 5 0 l 0 5 l -5 0 l 5 0 l 5 0 l 5 0 l 0 5 l -5 0 l 0 -5 l 0 5 l 0 -5 l 0 5 l -5 0 l 0 5 l 0 5 l 0 -5 l 5 0 l 5 0 l 0 5 l 5 0"></path><path fill="rgba(100%,70.51%,0%,0.5)" d="M 145 205 l 0 -5 l 0 5 l -5 0 l 0 -5 l 5 0 l 0 5 l -5 0 l 0 5 l -5 0 l 5 0 l -5 0 l 0 -5 l 0 5 l 0 5 l 0 -5 l 0 -5 l 0 -5 l 5 0 l -5 0 l 5 0 l 0 -5 l 0 -5 l 0 -5 l 0 -5 l 0 -5 l 0 5 l 5 0 l -5 0 l 0 5 l 0 5 l 0 5 l -5 0 l 0 5 l 0 5 l 0 5 l -5 0 l 5 0 l 0 5 l -5 0 l 0 5 l 0 5 l 5 0 l 0 5 l 5 0 l 5 0 l 0 5 l 0 -5 l -5 0 l -5 0 l -5 0 l -5 0 l 5 0 l 0 -5 l 5 0 l 0 5 l -5 0 l 5 0 l 0 5 l -5 0 l 5 0 l 5 0 l 0 5 l 5 0 l 0 5 l 0 -5 l 0 5 l 0 5 l 5 0 l 0 5 l 0 5 l 0 -5 l -5 0 l 5 0 l 5 0 l 0 -5 l 0 5 l 5 0 l 0 5 l 5 0 l 5 0 l 0 -5 l 5 0 l 0 5 l 5 0 l 5 0 l -5 0 l 0 -5 l 0 -5 l -5 0 l 5 0 l 0 -5 l 5 0 l -5 0 l 5 0 l 5 0 l 5 0 l 0 -5 l 5 0 l -5 0 l 0 5 l 0 -5 l 0 5 l 0 5 l -5 0 l 5 0 l -5 0 l 5 0 l 0 5 l 0 -5 l 0 5 l 0 5 l 0 5 l 0 5 l 0 5 l -5 0 l 0 -5 l -5 0 l 5 0 l 0 -5 l 0 5 l -5 0 l 0 -5 l 0 -5 l 5 0 l 0 5 l 0 5 l 5 0 l 5 0 l -5 0 l -5 0 l 0 5 l -5 0 l 0 5 l 5 0 l 0 5 l -5 0 l -5 0 l 0 5 l -5 0 l -5 0 l 0 -5 l 0 5 l 0 5 l 0 -5 l 0 -5 l -5 0 l -5 0 l -5 0 l 0 -5 l 5 0 l 0 5 l 0 -5 l 5 0 l -5 0 l 5 0 l 0 5 l 5 0 l -5 0 l 0 -5 l -5 0 l -5 0 l 0 5 l -5 0 l 0 -5 l 0 -5 l -5 0 l -5 0 l 0 5 l 0 -5 l -5 0 l 5 0 l -5 0 l -5 0 l 0 5 l -5 0 l 0 5 l 0 5 l -5 0 l 5 0 l 0 -5 l 5 0 l 5 0 l 0 -5 l 5 0 l 0 5 l -5 0 l 0 -5 l 0 5 l 0 -5 l 0 5 l 0 -5 l 5 0 l 5 0 l 0 -5 l 0 5 l 5 0 l 0 5 l 0 -5 l -5 0 l 5 0 l -5 0 l 0 5 l 5 0 l 0 -5 l 0 5 l 0 -5 l -5 0 l 5 0 l 0 -5 l 0 5 l 0 5 l -5 0 l 5 0 l 0 -5 l 0 -5 l -5 0 l 5 0 l 0 -5 l -5 0 l 0 -5 l 5 0 l -5 0 l -5 0 l 5 0 l -5 0 l -5 0 l 0 5 l 0 5 l 5 0 l -5 0 l 5 0 l 0 5 l 5 0 l 0 5 l 0 5 l -5 0 l 0 5 l -5 0 l 0 -5 l 5 0 l 0 5 l 0 5 l 0 5 l 5 0 l 0 5 l 5 0 l -5 0 l 5 0 l -5 0 l 0 5 l -5 0 l 0 5 l 0 5 l -5 0 l -5 0 l -5 0 l 5 0 l -5 0 l 5 0 l -5 0 l 0 5 l 0 -5 l -5 0 l 0 5 l 0 -5 l 5 0 l 0 5 l -5 0 l 0 -5 l -5 0 l 0 -5 l -5 0 l 0 5 l -5 0 l 0 -5 l -5 0 l 5 0 l 0 5 l 0 -5 l -5 0 l 0 -5 l -5 0 l -5 0 l -5 0 l 5 0 l -5 0 l 0 -5 l 5 0 l -5 0 l -5 0 l 5 0 l -5 0 l 0 5 l -5 0 l 0 5 l -5 0 l 0 -5 l 0 5 l 5 0 l 5 0 l 0 -5 l -5 0 l -5 0 l 5 0 l 0 5 l 0 -5 l 0 5 l 0 5 l 5 0 l 0 -5 l 0 5 l 5 0 l -5 0 l 5 0 l -5 0 l -5 0 l 0 5 l 0 5 l 5 0 l 0 -5 l -5 0 l 0 -5 l 0 5 l -5 0 l -5 0 l 0 5 l 0 5 l 0 5 l 0 -5 l 5 0 l 5 0 l -5 0 l 0 5 l -5 0 l -5 0 l 0 -5 l 0 -5 l 0 -5 l 0 -5 l 0 -5 l 0 -5 l -5 0 l 0 5 l -5 0 l 0 -5 l 0 -5 l 0 5 l 0 -5 l 0 5 l 0 5 l -5 0 l 0 -5 l 5 0 l 5 0 l -5 0 l 0 5 l 0 -5 l 0 5 l 0 5 l 0 5 l 5 0 l -5 0 l 0 -5 l 5 0 l 0 5 l 0 5 l -5 0 l 0 5 l -5 0 l -5 0 l 0 5 l 0 5 l -5 0 l 5 0 l -5 0 l 5 0 l 5 0 l 0 -5 l 5 0 l -5 0 l -5 0 l -5 0 l -5 0 l -5 0 l 5 0 l 0 -5 l 5 0 l 5 0 l 0 5 l 0 5 l 0 -5 l 0 -5 l 5 0 l -5 0 l 0 5 l 0 -5 l -5 0 l 0 -5 l 0 5 l 5 0 l 0 -5 l 5 0 l -5 0 l -5 0 l 0 -5 l 5 0 l 5 0 l 0 -5 l 0 -5 l 0 -5 l -5 0 l -5 0 l 0 5 l -5 0 l 0 5 l 0 -5 l -5 0 l 0 5 l 0 -5 l 0 -5 l 0 -5 l 0 5 l 5 0 l 0 5 l 0 -5 l 0 -5 l 0 -5 l 5 0 l 0 5 l 5 0 l 0 5 l 0 5 l -5 0 l 0 5 l 0 -5 l 0 5 l -5 0 l 0 -5 l 0 -5 l 0 5 l 0 5 l 5 0 l 0 -5 l -5 0 l 5 0 l 5 0 l 5 0 l 0 5 l 5 0 l 5 0 l -5 0 l 0 -5 l 5 0 l -5 0 l 0 5 l 0 5 l 0 5 l 5 0 l -5 0 l 0 5 l -5 0 l 5 0 l -5 0 l 0 -5 l 5 0 l -5 0 l 0 -5 l -5 0 l 5 0 l 0 -5 l 0 -5 l 5 0 l -5 0 l 0 5 l 5 0 l 0 5 l 0 -5 l 5 0 l 5 0 l 0 -5 l 0 -5 l 5 0 l 0 -5 l 0 5 l 0 5 l 0 5 l 5 0 l -5 0 l 5 0 l 0 -5 l -5 0 l 0 -5 l 0 5 l -5 0 l 0 -5 l 0 5 l 5 0 l -5 0 l 0 -5 l 5 0 l 0 5 l -5 0 l 0 -5 l 5 0 l -5 0 l 0 -5 l -5 0 l 0 -5 l 0 5 l -5 0 l 0 5 l -5 0 l -5 0 l -5 0 l 0 -5 l 5 0 l -5 0 l 0 5 l 0 -5 l 0 5 l 0 -5 l 0 -5 l 5 0 l 0 5 l 0 5 l 0 -5 l 0 -5 l 0 5 l 5 0 l 5 0 l 5 0 l 0 -5 l 0 -5 l 0 -5 l 5 0 l 5 0 l -5 0 l -5 0 l 5 0 l 5 0 l -5 0 l 5 0 l 0 -5 l 5 0 l -5 0 l 0 5 l 5 0 l 0 5 l -5 0 l -5 0 l 0 5 l -5 0 l -5 0 l 0 -5 l -5 0 l 0 -5 l 5 0 l 0 -5 l 0 -5 l 0 5 l 0 -5 l -5 0 l 0 -5 l 5 0 l -5 0 l 0 -5 l 5 0 l -5 0 l -5 0 l 0 5 l 0 5 l -5 0 l 5 0 l 5 0 l 0 5 l 5 0 l 0 5 l 0 5 l 0 -5 l 5 0 l -5 0 l 5 0 l 0 -5 l 5 0 l 0 5 l 0 5 l 5 0 l 0 -5 l 0 5 l 0 5 l 0 -5 l 0 5 l 5 0 l 0 5 l 0 -5 l 0 -5 l 0 -5 l -5 0 l 0 5 l 5 0 l 0 5 l -5 0 l 0 -5 l 0 5 l -5 0 l 0 5 l 0 -5 l 0 -5 l -5 0 l 0 5 l 0 -5 l 5 0 l 0 -5 l -5 0 l 5 0 l 5 0 l 5 0 l -5 0 l 5 0 l 5 0 l 0 -5 l 0 -5 l 0 -5 l 0 5 l 0 -5 l 0 -5 l 0 -5 l 5 0 l 0 -5 l 0 -5 l 0 -5 l 5 0 l -5 0 l 5 0 l 5 0 l -5 0 l 0 5 l 0 -5 l 5 0 l 5 0 l 0 -5 l -5 0 l 5 0 l 0 -5 l 5 0 l 5 0 l -5 0 l 0 5 l -5 0 l 0 -5 l 5 0 l 0 5 l 0 5 l 5 0 l 5 0 l 0 5 l 5 0 l 5 0 l 0 5 l -5 0 l 0 -5 l 0 -5 l 0 -5 l -5 0 l -5 0 l 0 5 l 0 -5 l -5 0 l 0 -5 l 0 5 l 5 0 l -5 0 l 5 0 l 0 -5 l 0 -5 l -5 0 l 0 5 l 5 0 l -5 0 l 5 0 l 0 -5 l 0 5 l 0 -5 l -5 0 l -5 0 l 0 -5 l -5 0 l 5 0 l 5 0 l 0 -5 l 0 5 l 0 -5 l 0 -5 l -5 0 l 5 0 l 0 5 l 0 -5 l -5 0 l 0 -5 l -5 0 l 0 -5 l 0 5 l 0 5 l -5 0 l 5 0 l -5 0 l 5 0 l 0 5 l 5 0 l 0 5 l 0 -5 l 5 0 l 0 5 l 0 -5 l -5 0 l 5 0 l 0 -5 l 0 -5 l 0 -5 l -5 0 l 0 5 l 0 5 l 0 -5 l 0 5 l 0 -5 l 0 5 l 5 0 l 5 0 l 0 -5 l 5 0 l -5 0 l -5 0 l 0 5 l 0 5 l 0 5 l 0 -5 l 0 -5 l 5 0 l 0 -5 l 0 -5 l -5 0 l -5 0 l -5 0 l 0 -5 l 0 -5 l 0 5 l 0 -5 l 0 5 l 0 -5 l -5 0 l 0 -5 l 0 -5 l 0 5 l 0 -5 l 5 0 l 0 -5 l 5 0 l -5 0 l 0 -5 l 0 5 l 5 0 l 0 -5 l 0 5 l -5 0 l 0 -5 l 0 5 l 0 -5 l 5 0 l 0 5 l 5 0 l 5 0 l 0 -5 l 5 0 l 0 5 l 0 5 l 0 5 l 0 5 l 5 0 l 0 5 l 0 -5 l 0 -5 l 0 -5 l 0 5 l 5 0 l 0 5 l 5 0 l 5 0 l 5 0 l -5 0 l -5 0 l 5 0 l 0 -5 l 5 0 l 5 0 l 0 5 l 0 5 l 0 -5 l 5 0"></path><path fill="rgba(100%,58.47%,0%,0.5)" d="M 385 315 l 5 0 l 5 0 l 5 0 l 0 -5 l 5 0 l 5 0 l -5 0 l 0 5 l 0 -5 l -5 0 l -5 0 l 0 5 l -5 0 l 0 -5 l -5 0 l 0 -5 l 5 0 l 5 0 l 5 0 l 0 5 l 5 0 l -5 0 l -5 0 l -5 0 l 0 -5 l 5 0 l 0 -5 l 0 -5 l 5 0 l 0 5 l 5 0 l 0 -5 l -5 0 l -5 0 l 0 5 l -5 0 l -5 0 l 5 0 l 0 5 l 5 0 l 5 0 l -5 0 l 0 -5 l 0 -5 l 0 5 l 0 5 l 0 -5 l 0 -5 l 0 -5 l 0 -5 l 5 0 l 0 5 l 5 0 l -5 0 l 0 5 l 5 0 l 0 5 l 5 0 l -5 0 l 0 -5 l 0 -5 l -5 0 l -5 0 l 5 0 l 5 0 l 5 0 l 0 -5 l 5 0 l 5 0 l 0 5 l 5 0 l 0 5 l 0 -5 l 0 -5 l 0 5 l -5 0 l 5 0 l -5 0 l -5 0 l 0 5 l 0 -5 l 0 -5 l 5 0 l 0 5 l -5 0 l 5 0 l 0 -5 l 0 5 l -5 0 l 0 -5 l 0 5 l 0 -5 l 0 -5 l -5 0 l 0 5 l 0 5 l -5 0 l 0 5 l 0 -5 l 0 -5 l -5 0 l 5 0 l 5 0 l 0 5 l 5 0 l -5 0 l 0 5 l -5 0 l -5 0 l -5 0 l -5 0 l 0 -5 l 0 5 l 5 0 l -5 0 l 0 5 l -5 0 l -5 0 l -5 0 l 0 5 l -5 0 l 0 5 l -5 0 l 0 5 l 5 0 l 0 -5 l 5 0 l 5 0 l 0 -5 l 5 0 l -5 0 l -5 0 l 0 -5 l -5 0 l 5 0 l 0 5 l 0 -5 l 0 5 l 0 5 l 5 0 l 5 0 l 0 -5 l 5 0 l 0 5 l -5 0 l 5 0 l 5 0 l 5 0 l 0 -5 l 5 0 l 0 5 l -5 0 l 5 0 l -5 0 l 0 5 l 0 -5 l 0 -5 l 0 5 l 0 -5 l 5 0 l 0 -5 l 0 -5 l 5 0 l 0 -5 l -5 0 l 0 -5 l 0 -5 l 0 5 l 0 -5 l 5 0 l 0 5 l 5 0 l 0 5 l 0 -5 l 0 -5 l 0 -5 l 5 0 l 0 -5 l 0 5 l -5 0 l 0 -5 l 0 -5 l 5 0 l 0 5 l 0 5 l 5 0 l -5 0 l 0 -5 l -5 0 l 0 5 l 5 0 l 0 5 l 0 -5 l -5 0 l 0 5 l -5 0 l -5 0 l 0 -5 l -5 0 l -5 0 l 0 -5 l -5 0 l 0 5 l 0 5 l 0 5 l 0 -5 l 5 0 l 5 0 l 5 0 l 0 5 l 0 5 l 5 0 l 0 5 l 0 -5 l 0 5 l 0 5 l 0 5 l 5 0 l 0 -5 l 0 5 l 0 5 l 5 0 l 0 5 l 0 -5 l 5 0 l 5 0 l -5 0 l 0 -5 l 0 5 l 0 -5 l 0 -5 l 0 -5 l 5 0 l 0 -5 l 0 -5 l 0 -5 l 5 0 l -5 0 l 5 0 l 5 0 l 0 -5 l 5 0 l 0 5 l 0 -5 l 5 0 l 0 -5 l 0 5 l 0 5 l -5 0 l -5 0 l -5 0 l 5 0 l 0 5 l 5 0 l 5 0 l 0 5 l 0 5 l -5 0 l 0 5 l 0 -5 l 5 0 l 0 -5 l 0 -5 l -5 0 l 0 -5 l 5 0 l -5 0 l 0 -5 l -5 0 l 0 -5 l 0 -5 l 0 5 l 0 -5 l 0 -5 l 0 5 l 0 5 l -5 0 l 0 -5 l 5 0 l -5 0 l 5 0 l -5 0 l 5 0 l 5 0 l 5 0 l 0 -5 l -5 0 l 0 -5 l 0 -5 l -5 0 l 0 -5 l 0 -5 l 0 5 l -5 0 l -5 0 l 5 0 l 5 0 l 0 -5 l 5 0 l 0 -5 l -5 0 l 0 5 l 0 -5 l 5 0 l 0 5 l -5 0 l 0 5 l 0 -5 l 0 5 l -5 0 l 0 5 l 0 5 l 0 -5 l 5 0 l 0 -5 l 0 -5 l 5 0 l 0 -5 l 0 -5 l 5 0 l 5 0 l 5 0 l 0 -5 l 0 5 l 0 -5 l 0 -5 l -5 0 l 0 5 l 0 5 l 0 -5 l -5 0 l 5 0 l 0 5 l 0 5 l 5 0 l 0 -5 l 0 -5 l -5 0 l -5 0 l 0 -5 l -5 0 l 5 0 l -5 0 l 0 5 l 5 0 l 0 5 l 5 0 l 0 5 l 5 0 l 0 5 l 0 5 l 0 -5 l -5 0 l 0 5 l 0 5 l 0 -5 l 0 5 l 0 -5 l -5 0 l -5 0 l 0 -5 l 0 -5 l 0 5 l -5 0 l -5 0 l 0 5 l 0 -5 l 0 5 l 0 -5 l 0 5 l 5 0 l 0 -5 l 0 -5 l -5 0 l 0 -5 l 0 5 l 0 5 l 5 0 l -5 0 l 0 5 l -5 0 l 0 -5 l -5 0 l -5 0 l -5 0 l 0 5 l 5 0 l 0 5 l 0 -5 l 0 -5 l 5 0 l 5 0 l -5 0 l 0 -5 l 5 0 l 0 5 l 0 5 l 5 0 l 0 -5 l 0 5 l 5 0 l 5 0 l 0 5 l -5 0 l 5 0 l 0 5 l 5 0 l 5 0 l 0 5 l 5 0 l 5 0 l 0 5 l -5 0 l -5 0 l 5 0 l 5 0 l 0 5 l 5 0 l 0 -5 l -5 0 l -5 0 l 5 0 l 0 5 l -5 0 l -5 0 l 0 5 l -5 0 l 5 0 l 0 -5 l 0 -5 l 0 -5 l 0 -5 l 0 5 l 5 0 l 5 0 l -5 0 l -5 0 l 5 0 l 0 5 l 0 5 l -5 0 l 0 -5 l 0 -5 l 5 0 l -5 0 l -5 0 l -5 0 l -5 0 l 0 5 l 0 5 l 0 5 l 5 0 l 0 -5 l 0 5 l -5 0 l -5 0 l 0 5 l -5 0 l 5 0 l -5 0 l -5 0 l 5 0 l 0 5 l -5 0 l 0 -5 l 0 5 l 5 0 l 0 -5 l 0 -5 l -5 0 l -5 0 l 5 0 l 0 5 l 0 5 l 0 5 l 5 0 l -5 0 l 0 -5 l -5 0 l 0 5 l 0 5 l -5 0 l -5 0 l -5 0 l 0 5 l 0 5 l -5 0 l 0 -5 l 0 -5 l 5 0 l 5 0 l 0 5 l 0 5 l -5 0 l -5 0 l 5 0 l 0 5 l 0 -5 l -5 0 l 0 -5 l 0 5 l 5 0 l 0 5 l 0 5 l 5 0 l -5 0 l 5 0 l 0 5 l 5 0 l 5 0 l 5 0 l 0 5 l -5 0 l 0 -5 l 0 -5 l 0 -5 l -5 0 l -5 0 l -5 0 l 0 5 l 0 5 l -5 0 l 0 -5 l 0 5 l -5 0 l 0 5 l -5 0 l 0 5 l 0 -5 l 5 0 l 0 5 l 0 -5 l 0 5 l -5 0 l -5 0 l -5 0 l 0 5 l 0 5 l -5 0 l 0 -5 l 5 0 l 0 -5 l 5 0 l 0 5 l 0 5 l -5 0 l 0 -5 l 0 -5 l 0 -5 l -5 0 l 5 0 l -5 0 l 0 -5 l 0 5 l 0 -5 l -5 0 l -5 0 l 0 5 l -5 0 l -5 0 l -5 0 l -5 0 l 0 5 l -5 0 l 0 -5 l -5 0 l -5 0 l 5 0 l 0 -5 l -5 0 l 0 -5 l -5 0 l -5 0 l -5 0 l 0 -5 l 5 0 l 5 0 l -5 0 l 0 -5 l 0 5 l 0 -5 l -5 0 l 5 0 l 5 0 l 0 -5 l 5 0 l -5 0 l 0 5 l 0 5 l 0 5 l 0 -5 l 0 5 l 5 0 l 0 5 l 5 0 l 0 5 l 0 -5 l 5 0 l 0 -5 l 0 5 l 0 -5 l 0 5 l 0 -5 l 0 5 l 0 5 l 5 0 l -5 0 l 0 5 l 0 -5 l 5 0 l -5 0 l 0 -5 l -5 0 l 0 -5 l 0 -5 l 5 0 l 0 5 l 5 0 l 0 -5 l 0 5 l -5 0 l 5 0 l 5 0 l -5 0 l 0 -5 l 0 -5 l -5 0 l -5 0 l 0 -5 l 5 0 l 0 5 l 5 0 l 5 0 l 5 0 l -5 0 l 5 0 l 5 0 l -5 0 l 5 0 l 0 -5 l 0 5 l 5 0 l 5 0 l 5 0 l 0 5 l -5 0 l 0 -5 l 0 5 l 0 5 l 0 -5 l 0 5 l 5 0 l 5 0 l -5 0 l 0 -5 l -5 0 l -5 0 l -5 0 l 5 0 l 0 -5 l 5 0 l 0 -5 l 5 0 l 5 0 l -5 0 l 0 5 l 0 -5 l 0 -5 l 0 5 l 0 -5 l 5 0 l 5 0 l 0 -5 l 0 -5 l 0 5 l 5 0 l 0 -5 l 5 0 l -5 0 l 0 -5 l 0 -5 l -5 0 l 5 0 l 0 5 l -5 0 l 0 -5 l 0 5 l 0 5 l 5 0 l 0 5 l 0 5 l -5 0 l -5 0 l -5 0 l 0 5 l -5 0 l 0 5 l 5 0 l 5 0 l 0 -5 l -5 0 l 0 5 l 5 0 l 0 5 l 0 5 l 5 0"></path><path fill="rgba(34.17%,17.53%,54.7%,0.5)" d="M 35 195 l 5 0 l -5 0 l 0 -5 l 0 -5 l 0 5 l 5 0 l -5 0 l 5 0 l 0 -5 l 5 0 l -5 0 l -5 0 l -5 0 l 0 5 l 5 0 l 0 -5 l 0 -5 l 0 -5 l 5 0 l 5 0 l 0 -5 l -5 0 l 0 -5 l 0 -5 l -5 0 l -5 0 l 0 5 l 5 0 l 0 5 l 0 5 l 0 -5 l 5 0 l -5 0 l -5 0 l 5 0 l -5 0 l -5 0 l 5 0 l 0 5 l -5 0 l 0 -5 l 0 5 l 5 0 l -5 0 l 0 -5 l 0 5 l 5 0 l 5 0 l 0 5 l 0 5 l 5 0 l 5 0 l 0 5 l 0 5 l 0 5 l -5 0 l -5 0 l -5 0 l 0 5 l 5 0 l 5 0 l 0 -5 l 0 5 l 5 0 l 0 -5 l 0 -5 l 0 -5 l 0 5 l 0 5 l 0 5 l 0 -5 l 5 0 l 5 0 l -5 0 l -5 0 l -5 0 l -5 0 l -5 0 l 5 0 l 5 0 l 5 0 l -5 0 l 0 -5 l 0 -5 l 0 -5 l 0 5 l 0 -5 l 0 -5 l -5 0 l 5 0 l 5 0 l 5 0 l -5 0 l 0 5 l 5 0 l 0 5 l 5 0 l 5 0 l 5 0 l 0 5 l 0 -5 l 0 5 l -5 0 l 0 -5 l 5 0 l 5 0 l -5 0 l 0 -5 l 0 -5 l -5 0 l -5 0 l 0 5 l 5 0 l -5 0 l 0 5 l 0 -5 l 5 0 l -5 0 l 0 5 l 0 -5 l 0 5 l 5 0 l 5 0 l 0 5 l 0 -5 l 5 0 l 0 5 l 0 -5 l 0 -5 l 0 -5 l -5 0 l 0 -5 l 5 0 l 5 0 l 0 -5 l 0 5 l -5 0 l 0 5 l 5 0 l 0 5 l -5 0 l 0 -5 l 0 5 l 5 0 l -5 0 l 5 0 l 0 5 l 5 0 l 0 -5 l 0 5 l 0 -5 l -5 0 l -5 0 l 0 -5 l 0 -5 l -5 0 l 5 0 l -5 0 l 0 -5 l 5 0 l 0 5 l 0 -5 l 0 5 l 0 5 l 5 0 l -5 0 l 0 5 l 0 -5 l 5 0 l 5 0 l 5 0 l 0 5 l -5 0 l 5 0 l -5 0 l 5 0 l 5 0 l 0 5 l 5 0 l 5 0 l 0 -5 l -5 0 l 0 -5 l 0 -5 l 5 0 l 0 -5 l 5 0 l 0 5 l 0 5 l 0 -5 l 5 0 l 0 5 l 0 5 l 0 5 l 0 5 l 0 -5 l 0 -5 l 5 0 l 0 -5 l 5 0 l -5 0 l 0 -5 l 5 0 l 0 5 l 0 -5 l 5 0 l -5 0 l 0 5 l 0 -5 l 0 -5 l 0 -5 l 0 5 l 0 -5 l 5 0 l 5 0 l 5 0 l 5 0 l 5 0 l 0 -5 l 5 0 l 0 -5 l 0 -5 l 0 5 l 0 -5 l 0 5 l -5 0 l 0 5 l 0 5 l 0 5 l -5 0 l 0 -5 l -5 0 l -5 0 l 0 -5 l 5 0 l -5 0 l 5 0 l -5 0 l 0 -5 l 0 -5 l 0 5 l -5 0 l 0 5 l 0 -5 l -5 0 l 0 -5 l 5 0 l 0 5 l 0 -5 l 0 5 l -5 0 l 0 5 l -5 0 l -5 0 l 0 -5 l -5 0 l 5 0 l 0 5 l 0 5 l -5 0 l -5 0 l -5 0 l 0 -5 l 0 5 l 0 5 l -5 0 l 0 -5 l 0 -5 l 0 5 l 0 -5 l 0 5 l 5 0 l 0 -5 l -5 0 l -5 0 l -5 0 l 0 -5 l -5 0 l 0 -5 l 5 0 l -5 0 l -5 0 l -5 0 l 0 -5 l 0 -5 l 0 -5 l -5 0 l 0 5 l 0 -5 l 0 -5 l 5 0 l -5 0 l 0 -5 l 0 -5 l -5 0 l 5 0 l 5 0 l -5 0 l 0 5 l 5 0 l 0 5 l 0 -5 l 0 5 l -5 0 l 0 5 l 5 0 l 0 -5 l 0 5 l 5 0 l -5 0 l 0 5 l 5 0 l -5 0 l 0 -5 l 5 0 l -5 0 l 0 5 l -5 0 l 0 5 l 0 -5 l 0 -5 l 0 -5 l 0 5 l 0 -5 l 0 -5 l -5 0 l 5 0 l 5 0 l 0 -5 l 0 -5 l 0 5 l 0 -5 l 0 -5 l -5 0 l 5 0 l 0 5 l 0 5 l 0 -5 l -5 0 l 5 0 l -5 0 l 0 5 l 5 0 l 0 5 l -5 0 l 0 5 l 0 5 l 0 5 l 0 -5 l 0 -5 l -5 0 l -5 0 l 0 5 l 0 5 l -5 0 l 5 0 l -5 0 l 0 -5 l -5 0 l -5 0 l 0 5 l -5 0 l 5 0 l -5 0 l 0 -5 l -5 0 l 0 5 l -5 0 l 0 -5 l 0 -5 l 0 -5 l 0 -5 l 0 5 l -5 0 l 5 0 l -5 0 l 5 0 l 5 0 l 5 0 l 5 0 l -5 0 l 0 -5 l -5 0 l 0 5 l 0 5 l 0 5 l 5 0 l 0 -5 l 0 5 l 0 -5 l -5 0 l -5 0 l 0 5 l 5 0 l -5 0 l 0 5 l -5 0 l -5 0 l 5 0 l 0 5 l 5 0 l -5 0 l -5 0 l 0 -5 l 0 5 l 0 5 l 5 0 l 0 5 l 0 -5 l 0 -5 l 0 5 l 5 0 l 0 -5 l -5 0 l 0 -5 l 0 5 l 5 0 l 5 0 l -5 0 l 5 0 l 0 -5 l 5 0 l -5 0 l 0 5 l 5 0 l 5 0 l 0 -5 l -5 0 l 5 0 l -5 0 l 0 5 l 5 0 l 0 5 l 0 -5 l 0 5 l 0 -5 l 0 5 l 0 -5 l 5 0 l -5 0 l 0 -5 l 0 -5 l 0 5 l 0 -5 l 5 0 l 0 5 l -5 0 l 0 5 l 5 0 l 0 -5 l 5 0 l 0 5 l -5 0 l 0 -5 l 0 5 l 0 5 l 5 0 l 5 0 l -5 0 l 0 -5 l 5 0 l 0 -5 l 0 5 l 0 5 l 0 -5 l -5 0 l 5 0 l -5 0 l 0 5 l 0 5 l -5 0 l 5 0 l 0 5 l 0 5 l -5 0 l 0 5 l 0 -5 l 0 5 l 5 0 l 0 5 l 0 -5 l 0 5 l 5 0 l 5 0 l -5 0 l 0 5 l 0 5 l -5 0 l 0 -5 l 5 0 l 0 -5 l 0 -5 l 5 0 l 5 0 l 5 0 l -5 0 l 0 -5 l 0 -5 l 0 5 l 0 -5 l -5 0 l 0 5 l 0 5 l -5 0 l 0 -5 l 5 0 l 0 -5 l 0 -5 l 0 5 l 0 5 l 5 0 l 0 5 l -5 0 l 5 0 l 0 5 l 0 -5 l 5 0 l 5 0 l 5 0 l 5 0 l 0 -5 l 0 -5 l 5 0 l 0 5 l 0 -5 l -5 0 l -5 0 l 0 -5 l 0 -5 l 0 -5 l -5 0 l 0 -5 l 0 5 l 0 5 l 5 0 l 0 5 l 0 5 l -5 0 l 0 -5 l 0 -5 l 0 5 l -5 0 l -5 0 l -5 0 l 5 0 l 0 -5 l -5 0 l 0 5 l 0 5 l -5 0 l -5 0 l 5 0 l 0 5 l 0 5 l 0 -5 l -5 0 l 0 5 l -5 0 l 0 5 l -5 0 l 0 -5 l 0 -5 l -5 0 l -5 0 l 0 -5 l -5 0 l -5 0 l -5 0 l -5 0 l -5 0 l 5 0 l 5 0 l -5 0 l -5 0 l 0 5 l 0 -5 l -5 0 l 0 5 l 0 5 l 0 5 l -5 0 l 5 0 l -5 0 l -5 0 l 0 -5 l 0 -5 l 5 0 l -5 0 l -5 0 l 0 5 l 0 -5 l 5 0 l -5 0 l 0 5 l 0 -5 l 0 5 l 0 5 l 0 5 l 5 0 l 0 -5 l 5 0 l 0 5 l 0 5 l -5 0 l 0 5 l 5 0 l 0 5 l 0 -5 l 0 -5 l -5 0 l 0 5 l 0 5 l 0 -5 l 0 -5 l 0 5 l -5 0 l 5 0 l -5 0 l 0 5 l 5 0 l 5 0 l 0 -5 l 0 5 l -5 0 l 0 -5 l 5 0 l 5 0 l 0 5 l 0 5 l 0 -5 l 5 0 l -5 0 l 5 0 l 0 5 l 5 0 l 5 0 l 0 5 l 0 5 l 5 0 l 0 -5 l 5 0 l -5 0 l 5 0 l 5 0 l 5 0 l 0 -5 l -5 0 l 0 -5 l 5 0 l -5 0 l -5 0 l 5 0 l 5 0 l 0 5 l 0 5 l -5 0 l 0 5 l -5 0 l 0 5 l 0 5 l 5 0 l 0 -5 l 5 0 l 5 0 l -5 0 l -5 0 l -5 0 l 0 5 l 0 5 l 5 0 l 5 0 l 5 0 l -5 0 l 5 0 l 0 -5 l -5 0 l 0 -5 l -5 0 l 5 0 l 0 -5 l 0 -5 l -5 0 l 0 5 l 5 0 l 0 5 l 0 5 l 5 0 l 0 -5 l 0 -5 l 5 0 l 0 5 l 0 -5 l 0 -5 l 0 -5 l 0 -5 l -5 0"></path><path fill="rgba(7.22%,53.29%,37.72%,0.5)" d="M 325 200 l 0 -5 l -5 0 l 0 5 l -5 0 l 0 5 l 5 0 l -5 0 l 0 5 l 0 -5 l 0 5 l -5 0 l 0 5 l 0 -5 l 5 0 l -5 0 l -5 0 l 0 -5 l 0 -5 l -5 0 l 5 0 l -5 0 l -5 0 l 5 0 l 0 -5 l 5 0 l 0 5 l 0 -5 l 0 5 l 5 0 l -5 0 l 0 5 l 5 0 l 5 0 l 5 0 l 0 5 l 0 -5 l 0 5 l 0 5 l 0 -5 l -5 0 l -5 0 l -5 0 l 0 5 l 0 -5 l 0 5 l -5 0 l 0 -5 l -5 0 l 0 5 l -5 0 l -5 0 l 0 5 l 0 5 l 0 -5 l 0 5 l 0 -5 l -5 0 l 0 5 l -5 0 l 0 5 l 5 0 l 5 0 l 0 5 l 0 -5 l 5 0 l 0 -5 l 0 5 l -5 0 l 0 -5 l -5 0 l 0 -5 l 5 0 l 5 0 l 5 0 l -5 0 l -5 0 l 0 -5 l 0 5 l -5 0 l 5 0 l 0 5 l 0 5 l 0 -5 l 0 5 l -5 0 l 0 -5 l -5 0 l 0 -5 l 0 -5 l -5 0 l 0 5 l 0 -5 l 0 -5 l 5 0 l -5 0 l 0 5 l -5 0 l -5 0 l 0 5 l 0 -5 l -5 0 l 0 -5 l 0 5 l -5 0 l 5 0 l 0 5 l 0 -5 l -5 0 l 0 5 l -5 0 l 0 -5 l 5 0 l 5 0 l -5 0 l 5 0 l -5 0 l -5 0 l 5 0 l -5 0 l -5 0 l 0 -5 l -5 0 l 0 -5 l -5 0 l -5 0 l -5 0 l 0 -5 l 0 5 l 5 0 l 0 -5 l 0 -5 l 0 5 l -5 0 l 0 5 l 0 -5 l 0 -5 l 0 -5 l 0 5 l 0 5 l 0 5 l 0 5 l 5 0 l 5 0 l 0 5 l 0 -5 l 0 -5 l 5 0 l 5 0 l 0 -5 l -5 0 l -5 0 l 0 5 l 5 0 l -5 0 l 0 -5 l 0 -5 l 0 -5 l 5 0 l 0 -5 l 5 0 l 0 -5 l 0 -5 l 5 0 l 0 5 l -5 0 l -5 0 l 0 5 l 0 -5 l 5 0 l 0 5 l 5 0 l 0 -5 l 0 -5 l 5 0 l 0 -5 l 5 0 l 0 5 l 0 5 l 0 5 l 0 5 l 5 0 l -5 0 l 5 0 l 5 0 l -5 0 l 5 0 l 5 0 l 0 -5 l 5 0 l 0 5 l 0 5 l 0 -5 l 0 -5 l 5 0 l 0 -5 l 5 0 l 0 5 l 0 -5 l 5 0 l -5 0 l 5 0 l -5 0 l -5 0 l -5 0 l 0 5 l 0 5 l 0 5 l 0 5 l -5 0 l 0 5 l 5 0 l -5 0 l 5 0 l -5 0 l 0 -5 l 5 0 l -5 0 l 0 -5 l 5 0 l 0 5 l 0 5 l 0 5 l -5 0 l 0 5 l 5 0 l -5 0 l -5 0 l 0 -5 l 5 0 l 5 0 l -5 0 l 5 0 l -5 0 l 0 5 l 0 -5 l 5 0 l 0 5 l -5 0 l -5 0 l 5 0 l 0 -5 l 5 0 l -5 0 l 5 0 l 5 0 l 0 -5 l 0 5 l 5 0 l 5 0 l 5 0 l 5 0 l 0 5 l 5 0 l -5 0 l -5 0 l 5 0 l -5 0 l -5 0 l -5 0 l 0 5 l 5 0 l 5 0 l 0 -5 l 0 5 l 5 0 l 5 0 l 5 0 l -5 0 l 5 0 l -5 0 l -5 0 l -5 0 l 5 0 l 0 -5 l -5 0 l -5 0 l 0 5 l 0 -5 l 0 -5 l 0 5 l 0 5 l 0 -5 l 0 -5 l 0 -5 l 5 0 l 0 -5 l -5 0 l 0 5 l 5 0 l 0 -5 l -5 0 l 0 5 l 0 5 l 0 -5 l 0 5 l -5 0 l 0 5 l 0 5 l 0 -5 l 0 5 l 5 0 l -5 0 l 0 5 l -5 0 l -5 0 l 5 0 l 0 5 l 5 0 l 0 -5 l 0 5 l 0 -5 l 0 5 l 0 -5 l 0 -5 l -5 0 l -5 0 l 0 -5 l 5 0 l 0 -5 l 5 0 l -5 0 l 5 0 l 0 5 l 0 -5 l 0 -5 l 0 5 l -5 0 l -5 0 l 0 5 l 0 -5 l 0 -5 l 5 0 l 0 5 l 0 -5 l 5 0 l 0 5 l 0 -5 l 0 -5 l 0 -5 l 0 5 l 0 5 l 0 5 l 5 0 l -5 0 l 5 0 l -5 0 l 0 5 l -5 0 l -5 0 l 0 -5 l -5 0 l 0 -5 l 5 0 l 0 5 l 0 5 l 5 0 l 0 5 l -5 0 l -5 0 l 5 0 l 0 5 l 0 -5 l 5 0 l 5 0 l 0 5 l 5 0 l 0 -5 l 5 0 l 0 -5 l -5 0 l 5 0 l 5 0 l -5 0 l -5 0 l 5 0 l 5 0 l -5 0 l -5 0 l -5 0 l -5 0 l 0 -5 l 5 0 l -5 0 l 0 -5 l 0 5 l 0 -5 l 0 -5 l 5 0 l 0 5 l 5 0 l -5 0 l 5 0 l 0 -5 l 0 -5 l -5 0 l 0 -5 l 0 5 l 5 0 l -5 0 l 0 5 l -5 0 l -5 0 l -5 0 l 0 -5 l 0 5 l 0 5 l 0 -5 l 5 0 l 5 0 l 0 -5 l -5 0 l 5 0 l -5 0 l 0 5 l 0 5 l 5 0 l 0 5 l 0 -5 l 5 0 l 0 5 l 5 0 l 0 -5 l 0 5 l -5 0 l 5 0 l 0 5 l -5 0 l 0 5 l -5 0 l -5 0 l 0 5 l -5 0 l 5 0 l 5 0 l 0 -5 l 0 5 l 5 0 l 0 5 l 5 0 l 5 0 l 0 -5 l 0 -5 l 0 -5 l -5 0 l -5 0 l 0 -5 l 0 5 l -5 0 l 0 -5 l -5 0 l -5 0 l 5 0 l 5 0 l -5 0 l 0 -5 l 0 5 l -5 0 l -5 0 l 0 5 l 0 5 l 5 0 l -5 0 l 5 0 l -5 0 l 5 0 l 0 5 l 5 0 l 5 0 l 5 0 l -5 0 l 0 5 l 5 0 l 0 5 l -5 0 l 0 -5 l 5 0 l 0 -5 l 0 -5 l 5 0 l 5 0 l 0 5 l 0 -5 l 0 5 l -5 0 l 5 0 l 5 0 l 0 5 l 5 0 l 5 0 l -5 0 l 0 -5 l 5 0 l -5 0 l -5 0 l 0 5 l 0 -5 l 5 0 l -5 0 l 0 -5 l 0 5 l 5 0 l 0 -5 l 0 -5 l -5 0 l 5 0 l 0 -5 l 5 0 l 5 0 l -5 0 l 0 5 l 0 -5 l 0 5 l 0 -5 l 0 5 l 0 -5 l -5 0 l 0 -5 l -5 0 l 0 -5 l 5 0 l 0 5 l -5 0 l -5 0 l 5 0 l 0 -5 l 5 0 l 0 5 l 0 -5 l 0 -5 l 0 -5 l 0 5 l 0 5 l 5 0 l 5 0 l -5 0 l 5 0 l -5 0 l -5 0 l 5 0 l 0 -5 l 5 0 l 5 0 l 5 0 l -5 0 l 0 -5 l 0 5 l 0 -5 l 5 0 l 5 0 l 5 0 l -5 0 l 0 -5 l -5 0 l 0 5 l 0 5 l 0 5"></path><path fill="rgba(100%,98.06%,0%,0.5)" d="M 495 370 l -5 0 l 0 5 l 5 0 l 0 -5 l 0 -5 l -5 0 l 0 -5 l -5 0 l 0 5 l 0 -5 l 0 5 l 0 -5 l -5 0 l 0 -5 l 0 -5 l 5 0 l 0 5 l 5 0 l 0 5 l 0 -5 l -5 0 l 0 5 l -5 0 l 0 -5 l 0 -5 l 5 0 l -5 0 l 5 0 l 0 5 l 0 5 l 5 0 l 0 5 l 0 -5 l 0 5 l 0 5 l 0 -5 l 5 0 l 0 5 l 5 0 l 0 -5 l 5 0 l 0 -5 l 5 0 l -5 0 l 0 -5 l -5 0 l 5 0 l 0 5 l 0 -5 l 0 -5 l 5 0 l 0 5 l 0 -5 l 0 5 l -5 0 l 0 -5 l 0 -5 l -5 0 l 5 0 l 0 5 l 0 5 l 0 5 l -5 0 l -5 0 l -5 0 l 0 -5 l -5 0 l 0 5 l 5 0 l 5 0 l 0 5 l 0 -5 l 0 -5 l 0 -5 l 0 -5 l -5 0 l 5 0 l 0 5 l 0 5 l -5 0 l 0 -5 l 0 5 l -5 0 l 0 5 l 0 5 l -5 0 l 0 -5 l 0 5 l -5 0 l 0 -5 l 0 -5 l 5 0 l 0 -5 l 5 0 l 0 5 l 0 -5 l 0 -5 l 0 5 l 0 -5 l -5 0 l 5 0 l 5 0 l 0 -5 l 0 -5 l -5 0 l 5 0 l -5 0 l 0 -5 l -5 0 l 0 -5 l -5 0 l 0 -5 l 5 0 l -5 0 l 5 0 l 5 0 l 5 0 l 0 -5 l 0 5 l 5 0 l -5 0 l 0 5 l 5 0 l 0 -5 l 0 5 l 5 0 l 0 -5 l 5 0 l -5 0 l -5 0 l 0 -5 l -5 0 l 0 -5 l 0 5 l 0 5 l 0 -5 l -5 0 l -5 0 l 5 0 l -5 0 l 5 0 l 5 0 l 0 -5 l 0 5 l -5 0 l 5 0 l 0 5 l 0 5 l 0 5 l -5 0 l -5 0 l 0 5 l 5 0 l 0 -5 l 0 5 l 0 5 l -5 0 l 0 5 l 0 -5 l -5 0 l 0 5 l 0 -5 l 5 0 l 5 0 l 5 0 l 5 0 l -5 0 l 0 5 l 0 -5 l 0 5 l 5 0 l 0 -5 l 0 5 l 0 -5 l 0 -5 l 0 5 l -5 0 l 5 0 l 0 5 l 0 -5 l 5 0 l -5 0 l 0 5 l -5 0 l 0 -5 l -5 0 l 5 0 l -5 0 l 5 0 l 0 -5 l -5 0 l 0 -5 l 5 0 l 0 -5 l 0 -5 l 5 0 l 0 -5 l 0 5 l 0 -5 l 5 0 l 0 5 l 0 -5 l 0 -5 l -5 0 l -5 0 l 5 0 l 0 -5 l 0 5 l -5 0 l -5 0 l 0 -5 l 5 0 l -5 0 l 5 0 l 0 -5 l 5 0 l 0 -5 l 0 5 l 0 5 l 5 0 l 0 5 l -5 0 l 5 0 l 0 -5 l -5 0 l 5 0 l 0 5 l 0 5 l -5 0 l -5 0 l 5 0 l 0 5 l -5 0 l -5 0 l 5 0 l 0 -5 l -5 0 l -5 0 l 0 -5 l -5 0 l -5 0 l 0 -5 l 5 0 l 0 -5 l -5 0 l 5 0 l 0 5 l 0 -5 l 0 5 l 5 0 l 0 5 l 5 0 l 0 5 l 0 -5 l 0 5 l 0 5 l -5 0 l 0 -5 l 0 -5 l 0 -5 l 0 5 l 5 0 l 0 -5 l 0 -5 l 0 5 l 5 0 l 0 5 l 0 -5 l 0 5 l 0 -5 l 5 0 l -5 0 l 0 5 l 0 5 l -5 0 l 0 -5 l 0 -5 l 0 -5 l 0 -5 l 5 0 l 0 5 l 5 0 l 0 5 l 0 5 l 5 0 l 0 -5 l 0 5 l 5 0 l 0 5 l -5 0 l -5 0 l -5 0 l 0 5 l 0 5 l 5 0 l 5 0 l 0 5 l -5 0 l -5 0 l 0 -5 l 0 5 l -5 0 l -5 0 l 0 -5 l 5 0 l 5 0 l -5 0 l -5 0 l 5 0 l -5 0 l 5 0 l 5 0 l 0 5 l 5 0 l 0 -5 l 5 0 l 0 5 l 0 5 l 0 -5 l 0 5 l 5 0 l 0 5 l 0 -5 l 5 0 l 5 0 l 0 -5 l -5 0 l 0 5 l 0 5 l 0 5 l 5 0 l 5 0 l 0 5 l 0 -5 l 5 0 l -5 0 l 0 5 l 0 -5 l 0 -5 l 0 5 l 5 0 l -5 0 l -5 0 l -5 0 l -5 0 l -5 0 l 0 -5 l 0 5 l 0 5 l 0 5 l 0 -5 l 0 -5 l -5 0 l 0 -5 l -5 0 l 5 0 l 0 5 l 5 0 l -5 0 l 0 -5 l 0 -5 l 0 5 l 0 -5 l 0 -5 l 0 -5 l -5 0 l 0 -5 l 0 -5 l -5 0 l 5 0 l 5 0 l 0 5 l -5 0 l -5 0 l 0 -5 l 0 -5 l 0 5 l 0 5 l 5 0 l 0 -5 l -5 0 l 5 0 l -5 0 l 5 0 l 0 5 l -5 0 l 5 0 l -5 0 l 0 5 l 0 -5 l 5 0 l -5 0 l -5 0 l 0 5 l 5 0 l -5 0 l -5 0 l 0 -5 l 5 0 l 5 0 l 0 -5 l 0 5 l 5 0 l 0 -5 l 0 5 l 0 5 l -5 0 l 5 0 l 5 0 l 0 -5 l 0 5 l 0 5 l 0 -5 l 0 -5 l -5 0 l 0 -5 l 5 0 l 0 5 l 0 5 l -5 0 l 0 -5 l 5 0 l 0 5 l 0 5 l -5 0 l 0 -5 l 5 0 l 0 -5 l -5 0 l 5 0 l 0 -5 l 0 5 l -5 0 l 0 -5 l 0 -5 l 0 -5 l 0 5 l 0 5 l 0 5 l 0 5 l 5 0 l 0 5 l 0 -5 l -5 0 l -5 0 l -5 0 l 5 0 l 0 5 l 5 0 l 5 0 l 5 0 l 0 -5 l 0 -5 l -5 0 l -5 0 l 0 -5 l 0 -5 l -5 0 l 0 -5 l 0 -5 l 0 -5 l 0 -5 l 0 5 l 0 -5 l 5 0 l 5 0 l 5 0 l 0 -5 l 5 0 l -5 0 l 0 -5 l 5 0 l 5 0 l 0 -5 l 0 -5 l 5 0 l 5 0 l 5 0 l -5 0 l 0 -5 l 5 0 l 5 0 l 5 0 l 0 -5 l 0 -5 l 0 5 l -5 0 l 0 -5 l -5 0 l 0 -5 l 0 5 l 0 -5 l 0 5 l 5 0 l -5 0 l 0 5 l 0 5 l 5 0 l -5 0 l 5 0 l 0 5 l 5 0 l 0 5 l 0 5 l -5 0 l -5 0 l 0 5 l -5 0 l -5 0 l 5 0 l 0 5 l -5 0 l 0 5 l 0 -5 l 5 0 l 5 0 l -5 0 l 0 5 l -5 0 l 0 5 l 0 -5 l 0 -5 l -5 0 l 5 0 l 0 -5 l -5 0 l -5 0 l -5 0 l -5 0 l 0 5 l 0 5 l 0 5 l 0 5 l 0 -5 l 0 -5 l -5 0 l 0 5 l 0 5 l -5 0 l -5 0 l 0 5 l 0 -5 l -5 0 l -5 0 l 0 5 l 0 5 l 0 5 l 0 -5 l -5 0 l 0 5 l 5 0 l 0 5 l 0 -5 l -5 0 l -5 0 l 0 5 l 0 -5 l 5 0 l 0 5 l 0 -5 l -5 0 l 5 0 l 5 0 l 0 -5 l 0 5 l 5 0 l 5 0 l -5 0 l 5 0 l 5 0 l 5 0 l 5 0 l 0 5 l 0 5 l 0 5 l -5 0 l 0 -5 l -5 0 l 0 -5 l 5 0 l -5 0 l 0 5 l 0 -5 l 0 5 l 0 5 l -5 0 l 5 0 l -5 0 l -5 0 l 5 0 l -5 0 l 0 -5 l 5 0 l 0 5 l 0 -5 l 0 5 l 0 -5 l 0 5 l -5 0 l 5 0 l 0 -5 l -5 0 l -5 0 l 0 -5 l 0 5 l 5 0 l 0 -5 l -5 0 l 0 5 l 0 5 l -5 0 l -5 0 l 0 5 l -5 0 l 0 -5 l 5 0 l 0 5 l 0 -5 l -5 0 l 0 -5 l 0 -5 l 0 -5 l 0 -5 l 5 0 l 0 -5 l 5 0 l 0 5 l 0 -5 l 5 0 l 0 5 l 5 0 l 0 -5 l -5 0 l -5 0 l 5 0 l 5 0 l 0 5 l 0 -5 l 5 0 l 0 5 l 0 5 l 5 0 l -5 0 l 5 0 l -5 0 l -5 0 l -5 0 l -5 0 l 0 5 l 0 5 l 0 5 l 0 5 l -5 0 l 5 0 l -5 0 l 0 -5 l 0 -5 l 5 0 l -5 0 l 0 5 l 0 5 l 5 0 l 0 -5 l -5 0 l 0 5 l 0 -5 l 0 -5 l 0 -5 l 0 -5 l 0 5 l 5 0 l -5 0 l 0 5 l 5 0 l -5 0 l 0 -5 l 0 5 l 0 -5 l 5 0 l 5 0 l 0 5 l 5 0 l 0 5 l -5 0 l 5 0 l -5 0 l 0 -5 l 0 5 l 0 5 l 0 5 l 0 5 l 0 5 l 0 -5 l 0 -5 l -5 0 l 0 -5 l 5 0 l 0 5 l 0 5 l -5 0 l 5 0 l 5 0 l -5 0 l 0 5 l -5 0 l 0 5 l -5 0 l 0 -5 l 5 0 l -5 0 l -5 0 l 5 0 l 0 -5 l 0 5 l 5 0 l 0 5 l -5 0 l 0 -5 l 0 5 l 5 0 l 0 -5 l 0 5 l 0 5 l 0 5 l 5 0 l -5 0 l 5 0 l 0 5 l 0 5 l 5 0 l 0 5 l 0 5 l 0 5 l -5 0 l -5 0 l 0 -5 l 0 5 l 5 0 l 5 0 l 0 -5 l 0 -5 l 0 -5 l 0 -5 l -5 0 l 5 0 l 0 5 l -5 0 l 5 0 l -5 0 l 0 5 l 0 5 l 0 5 l 0 -5 l 0 -5 l -5 0 l -5 0 l -5 0 l 5 0 l 0 5 l 5 0 l 5 0 l 0 5 l 5 0 l 5 0 l -5 0 l 0 -5 l 5 0 l 0 5 l 5 0 l -5 0 l 0 5 l 5 0 l 0 -5 l -5 0 l 0 5 l 5 0 l 0 5 l 0 -5 l 0 -5 l 0 5 l 5 0 l -5 0 l 5 0 l 5 0 l -5 0 l 0 -5 l -5 0 l 0 -5 l 5 0 l 0 5 l 0 -5 l 0 5 l 0 5 l 5 0 l 0 5 l 5 0 l -5 0 l 0 5 l 0 5 l -5 0 l 0 -5 l 0 -5 l 0 -5 l -5 0 l 5 0 l 0 -5 l -5 0 l -5 0 l -5 0 l 0 -5 l -5 0 l 0 5 l 0 5 l -5 0 l -5 0 l -5 0 l -5 0 l 0 -5 l 0 5 l -5 0 l 0 -5 l 0 -5 l 0 5 l -5 0 l 5 0 l -5 0 l -5 0 l 0 5 l 5 0 l -5 0 l 0 5 l 0 5 l 0 -5 l 0 5 l 5 0 l 0 -5 l 0 5 l 0 5 l 5 0 l 5 0 l 5 0 l 5 0 l 0 -5 l 5 0 l 5 0 l 0 -5 l 0 5 l 0 5 l -5 0 l -5 0 l -5 0 l 5 0 l 0 -5 l 0 -5 l 0 -5 l 0 -5 l -5 0 l 0 -5 l 0 5 l 0 -5 l 0 -5 l -5 0 l 5 0 l 0 -5 l 0 -5 l 5 0 l 0 5 l 0 5 l 0 -5 l 5 0 l 5 0 l 0 5 l 0 -5 l -5 0 l 5 0 l 0 5 l -5 0 l 0 -5 l 0 5 l 0 -5 l 5 0 l 5 0 l 5 0 l 0 -5 l 0 -5 l 0 -5 l 0 5 l 0 -5 l 0 5 l 0 -5 l 0 5 l 0 5 l 0 5 l 5 0 l -5 0 l -5 0 l 0 -5 l 0 -5 l 0 5 l 0 -5 l 5 0 l -5 0 l 0 5 l 5 0 l 0 5 l 5 0 l 5 0 l 0 -5 l -5 0 l 0 5 l 5 0 l 0 -5 l 0 -5 l -5 0 l 0 -5 l 0 -5 l -5 0 l 0 5 l 0 5 l 5 0 l 5 0 l 0 5 l -5 0 l 5 0 l 0 -5 l 0 5 l -5 0 l -5 0 l -5 0 l 5 0 l 0 5 l 5 0 l 5 0 l -5 0 l 0 5 l 5 0 l 5 0 l 5 0 l -5 0 l 0 -5 l 0 5 l 0 -5 l 0 5 l 0 -5 l 5 0 l 0 -5 l -5 0 l -5 0 l 0 5 l 5 0 l 0 5 l -5 0 l 0 -5 l 0 -5 l 5 0 l -5 0 l -5 0 l 0 -5 l 5 0 l -5 0 l 0 5 l 0 -5 l -5 0 l 0 -5 l 5 0 l 0 -5 l 0 5 l 5 0 l 5 0 l 5 0 l 0 5 l 5 0 l 0 -5 l -5 0 l -5 0 l 0 5"></path><path fill="rgba(7.6%,52.61%,38.66%,0.5)" d="M 90 115 l -5 0 l 5 0 l 0 5 l -5 0 l -5 0 l 0 -5 l -5 0 l 0 5 l 0 5 l 0 5 l 5 0 l 0 -5 l 0 -5 l 5 0 l 5 0 l -5 0 l 5 0 l 0 -5 l 0 5 l 5 0 l 5 0 l -5 0 l 0 -5 l -5 0 l -5 0 l -5 0 l -5 0 l 5 0 l 5 0 l 5 0 l 0 5 l 0 5 l -5 0 l 0 -5 l 0 -5 l -5 0 l 0 -5 l 0 5 l 5 0 l 0 -5 l -5 0 l 0 5 l 5 0 l 0 5 l 0 5 l 0 -5 l 0 5 l 0 5 l -5 0 l 5 0 l 0 5 l 5 0 l 0 -5 l 0 5 l -5 0 l 0 -5 l 0 -5 l 0 5 l 0 5 l 0 -5 l 5 0 l 5 0 l 5 0 l 0 -5 l -5 0 l 0 5 l 0 -5 l 0 -5 l -5 0 l 0 5 l 0 -5 l 0 5 l 0 -5 l 5 0 l 0 5 l 0 -5 l 0 5 l 0 -5 l 0 -5 l -5 0 l 0 5 l 0 -5 l 0 5 l -5 0 l 0 5 l -5 0 l -5 0 l 0 -5 l -5 0 l 5 0 l 0 -5 l 0 5 l 5 0 l 0 5 l -5 0 l 5 0 l -5 0 l 0 5 l 0 -5 l 5 0 l 5 0 l 0 -5 l 5 0 l -5 0 l 0 -5 l 0 5 l 0 -5 l -5 0 l 0 -5 l -5 0 l -5 0 l 0 5 l 5 0 l 5 0 l 5 0 l 5 0 l 0 -5 l -5 0 l 5 0 l 0 -5 l -5 0 l 0 -5 l 5 0 l 5 0 l 5 0 l 5 0 l 0 -5 l 0 -5 l 0 -5 l 0 -5 l -5 0 l 5 0 l 0 -5 l 0 5 l -5 0 l 5 0 l 0 5 l -5 0 l -5 0 l -5 0 l 5 0 l -5 0 l 5 0 l 0 5 l 0 -5 l 0 -5 l -5 0 l 5 0 l 0 -5 l 0 -5 l 0 5 l 0 5 l -5 0 l 0 5 l 5 0 l 0 -5 l -5 0 l 0 5 l 0 5 l 0 -5 l 5 0 l 5 0 l 0 5 l 5 0 l 0 5 l 0 -5 l 0 5 l 0 5 l -5 0 l 0 -5 l 0 -5 l -5 0 l 0 -5 l 0 -5 l 0 -5 l 0 5 l 5 0 l 0 5 l 0 5 l 0 -5 l 0 -5 l 0 5 l 0 5 l -5 0 l 0 -5 l -5 0 l 0 -5 l 0 -5 l 5 0 l 0 5 l 0 5 l -5 0 l 0 5 l 0 5 l 0 -5 l 0 5 l 0 -5 l 5 0 l 0 5 l -5 0 l 0 -5 l 0 -5 l -5 0 l 5 0 l -5 0 l -5 0 l -5 0 l 0 5 l 0 -5 l 0 5 l 5 0 l -5 0 l 5 0 l 0 5 l 0 5 l 0 -5 l 0 -5 l -5 0 l -5 0 l 0 5 l 0 5 l 5 0 l 0 -5 l -5 0 l 0 -5 l 5 0 l 5 0 l 5 0 l 0 5 l 0 -5 l 0 5 l 0 5 l 0 5 l 0 5 l 0 5 l 0 -5 l 0 -5 l 5 0 l 0 5 l 0 -5 l -5 0 l 0 -5 l 0 -5 l 5 0 l 0 5 l 0 -5 l -5 0 l -5 0 l -5 0 l 0 -5 l 0 -5 l 0 5 l 0 -5 l 0 -5 l 5 0 l -5 0 l -5 0 l 5 0 l 0 5 l -5 0 l 0 -5 l 5 0 l 0 5 l 5 0 l 5 0 l 5 0 l 5 0 l 0 5 l -5 0 l -5 0 l 0 -5 l -5 0 l -5 0 l 0 5 l 0 -5 l -5 0 l 0 5 l 5 0 l -5 0 l -5 0 l 0 5 l 0 5 l 5 0 l -5 0 l 0 5 l 5 0 l -5 0 l -5 0 l 0 5 l -5 0 l -5 0 l 0 5 l 5 0 l 5 0 l -5 0 l 0 -5 l -5 0 l 0 -5 l 5 0 l 5 0 l -5 0 l 0 -5 l 0 5 l 5 0 l 0 -5 l -5 0 l -5 0 l -5 0 l -5 0 l 5 0 l 0 5 l 0 5 l -5 0 l 5 0 l 0 5 l -5 0 l 0 -5 l 0 -5 l 5 0 l 0 -5 l 0 5 l 0 -5 l 5 0 l -5 0 l 5 0 l -5 0 l 5 0 l 0 5 l 5 0 l 0 5 l 5 0 l 0 -5 l -5 0 l 5 0 l 0 -5 l 5 0 l -5 0 l -5 0 l -5 0 l -5 0 l 0 5 l 5 0 l 0 -5 l 0 5 l -5 0 l 0 5 l 0 5 l -5 0 l 0 -5 l 5 0 l 5 0 l -5 0 l 0 5 l 0 -5 l -5 0 l 5 0 l 5 0 l 0 5 l 5 0 l 0 -5 l 5 0 l -5 0 l 0 -5 l 0 5 l 5 0 l 0 -5 l 0 -5 l 0 -5 l 5 0 l 0 5 l 0 5 l 5 0 l 5 0 l 0 -5 l -5 0 l 0 -5 l 5 0 l 0 -5 l 5 0 l 0 5 l 5 0 l 5 0 l 0 -5 l 5 0 l 5 0 l 0 5 l 5 0 l -5 0 l -5 0 l 5 0 l 5 0 l 5 0 l 0 5 l 0 5 l 0 5 l 0 -5 l -5 0 l 0 -5 l 0 5 l 0 5 l 0 -5 l -5 0 l 0 5 l 5 0 l -5 0 l 0 5 l 5 0 l 5 0 l 0 5 l -5 0 l -5 0 l 0 -5 l 0 -5 l 5 0 l 0 -5 l 5 0 l 0 -5 l -5 0 l 5 0 l -5 0 l 0 5 l -5 0 l 5 0 l 0 5 l 0 -5 l 0 -5 l -5 0 l -5 0 l 5 0 l 5 0 l -5 0 l 5 0 l 0 5 l 0 5 l 5 0 l -5 0 l -5 0 l 0 -5 l 0 -5 l -5 0 l 5 0 l -5 0 l 0 -5 l 5 0 l 0 -5 l 0 5 l 0 5 l 5 0 l 5 0 l 0 5 l 0 5 l 0 5 l 0 5 l 5 0 l 5 0 l 0 5 l 5 0 l -5 0 l 0 5 l 0 5 l 0 -5 l 0 -5 l -5 0 l 0 5 l 0 -5 l 0 5 l 5 0 l 0 -5 l 0 5 l 0 5 l 0 -5 l 5 0 l 0 5 l 0 5 l 0 -5 l 5 0 l 5 0 l 0 -5 l 0 -5 l 5 0 l 5 0 l 0 5 l -5 0 l 5 0 l 0 5 l 5 0 l 0 -5 l 5 0 l 0 -5 l -5 0 l 0 5 l 5 0 l 5 0 l 0 -5 l -5 0 l 0 -5 l 0 5 l 0 5 l 0 5 l -5 0 l 0 5 l 0 -5 l -5 0 l 5 0 l -5 0 l 5 0 l 0 -5 l 0 -5 l 0 -5 l -5 0 l 0 -5 l -5 0 l 5 0 l 5 0 l -5 0 l -5 0 l 0 -5 l 5 0 l 5 0 l 0 -5 l 0 5 l 0 -5 l 0 5 l 0 -5 l 5 0 l -5 0 l -5 0 l 0 -5 l 5 0 l 0 -5 l 0 -5 l 0 5 l 0 -5 l 5 0 l -5 0 l 0 5 l 5 0 l 5 0 l 5 0 l 0 5 l 5 0 l -5 0 l -5 0 l -5 0 l -5 0 l 0 5 l 5 0 l 0 5 l -5 0 l 0 -5 l 0 -5 l 0 -5 l 5 0 l 0 5 l 0 5 l 5 0 l 0 -5 l 0 5 l 0 5 l -5 0 l -5 0 l 5 0 l 5 0 l 0 -5 l 5 0 l 5 0 l -5 0 l 5 0 l 0 5 l 0 5 l 0 -5 l -5 0 l 0 5 l 0 5 l -5 0 l 0 -5 l 5 0 l 0 5 l -5 0 l 5 0 l -5 0 l -5 0 l -5 0 l 5 0 l 0 -5 l -5 0 l 5 0 l 0 5 l -5 0 l 0 -5 l 5 0 l 0 5 l 0 -5 l 0 -5 l 0 -5 l -5 0 l 0 5 l 5 0 l 0 5 l 0 -5 l -5 0 l 0 -5 l 0 -5 l -5 0 l 0 -5 l 5 0 l -5 0 l 0 5 l -5 0 l 5 0 l 0 5 l -5 0 l 0 5 l 5 0 l 5 0 l -5 0 l 0 -5 l -5 0 l 0 5 l 0 5 l 0 -5 l 0 -5 l 0 5 l -5 0 l -5 0 l 5 0 l 0 -5 l -5 0 l 5 0 l 5 0 l 0 5 l 0 5 l 5 0 l 5 0 l 0 -5 l 0 -5 l -5 0 l 5 0 l 0 5 l 5 0 l 0 -5 l 5 0 l 0 5 l 0 5 l -5 0 l -5 0 l 0 -5 l 0 -5 l 0 -5 l 5 0 l 0 5 l 5 0 l -5 0 l 0 5 l 0 5 l -5 0 l -5 0 l -5 0 l 0 5 l 0 -5 l 5 0 l -5 0 l -5 0 l -5 0 l -5 0 l 0 -5 l 0 -5 l 5 0 l 5 0 l 5 0 l 0 -5 l 5 0 l 0 -5 l 0 5 l 0 5 l -5 0 l 5 0 l 0 5 l -5 0 l 0 5 l 0 5 l -5 0 l -5 0 l -5 0 l -5 0 l 5 0 l 0 -5 l -5 0 l 0 -5 l 5 0 l 0 -5 l 0 5 l 5 0 l 0 5 l 0 -5 l 0 -5 l 0 5 l -5 0 l -5 0 l 0 -5 l 0 -5 l -5 0 l -5 0 l 5 0 l 5 0 l 0 -5 l 5 0 l 0 5 l 0 5 l 0 5 l 0 -5 l -5 0 l 0 -5 l 0 -5 l -5 0 l 0 5 l -5 0 l 0 5 l -5 0 l 0 5 l -5 0 l 5 0 l 0 5 l 0 -5 l 0 -5 l 5 0 l -5 0 l -5 0 l 0 -5 l -5 0 l 0 -5 l 0 5 l 0 -5 l 5 0 l 0 5 l 5 0 l -5 0 l 0 5 l 0 -5 l -5 0 l 0 -5 l 0 5 l 0 5 l 0 5 l 0 5 l 0 -5 l 5 0 l 5 0 l -5 0 l 5 0 l 0 -5 l -5 0 l 0 5 l 5 0 l 0 5 l 0 5 l -5 0 l 0 -5 l 0 5 l 0 5 l 5 0 l 5 0 l 0 5 l 0 -5 l 0 -5 l 0 -5 l 0 -5 l -5 0 l 0 5 l -5 0 l 0 -5 l 0 -5 l 5 0 l -5 0 l 5 0 l 0 -5 l 0 5 l -5 0 l 0 -5 l 0 5 l 0 5 l 0 5 l -5 0 l 0 -5 l 0 5 l -5 0"></path><path fill="rgba(7.93%,52.03%,39.47%,0.5)" d="M 250 330 l -5 0 l 0 5 l 5 0 l 5 0 l 5 0 l 5 0 l 0 -5 l 0 5 l 5 0 l 0 5 l 0 -5 l 0 -5 l 5 0 l -5 0 l -5 0 l 5 0 l -5 0 l -5 0 l 0 5 l 0 5 l 0 5 l 0 5 l 0 5 l -5 0 l 0 5 l 0 -5 l 5 0 l 5 0 l 0 -5 l 5 0 l -5 0 l 0 5 l 0 5 l -5 0 l 5 0 l -5 0 l -5 0 l 0 -5 l 5 0 l 5 0 l 0 -5 l 5 0 l -5 0 l -5 0 l 0 -5 l 5 0 l 0 -5 l -5 0 l 0 -5 l 0 -5 l 0 -5 l 5 0 l 0 5 l 0 -5 l 0 -5 l 5 0 l 0 5 l 5 0 l 5 0 l -5 0 l 5 0 l 5 0 l 5 0 l -5 0 l 5 0 l 5 0 l 0 5 l 0 -5 l -5 0 l -5 0 l 5 0 l 0 -5 l 0 5 l 5 0 l -5 0 l 0 5 l 0 -5 l 5 0 l -5 0 l 0 -5 l 0 5 l 5 0 l -5 0 l 0 -5 l -5 0 l 5 0 l -5 0 l -5 0 l 0 5 l 5 0 l 0 -5 l 0 5 l -5 0 l 5 0 l 5 0 l -5 0 l -5 0 l 5 0 l 0 -5 l 0 -5 l 5 0 l 0 -5 l 0 5 l 0 5 l 0 5 l 5 0 l 0 5 l 5 0 l 5 0 l 0 5 l 0 -5 l 0 -5 l 0 5 l 0 5 l 0 5 l 0 -5 l 0 -5 l -5 0 l 0 -5 l 0 -5 l 0 -5 l 5 0 l 0 -5 l -5 0 l 5 0 l -5 0 l -5 0 l 0 -5 l 0 5 l 0 5 l 5 0 l 5 0 l 0 5 l 0 5 l 0 5 l -5 0 l 0 -5 l 0 -5 l 0 5 l 0 5 l 0 -5 l 0 -5 l -5 0 l 0 -5 l 0 5 l 0 5 l 0 5 l -5 0 l -5 0 l 5 0 l 5 0 l 5 0 l 0 -5 l -5 0 l 5 0 l 5 0 l 5 0 l 5 0 l 0 5 l 0 5 l -5 0 l 0 -5 l -5 0 l 5 0 l 0 -5 l 0 -5 l -5 0 l 0 5 l -5 0 l 0 -5 l 5 0 l 0 5 l 5 0 l 5 0 l 5 0 l 0 -5 l 5 0 l -5 0 l -5 0 l 0 -5 l 0 5 l 5 0 l 5 0 l 5 0 l 0 5 l -5 0 l 5 0 l 0 -5 l 0 -5 l 5 0 l 0 -5 l 0 -5 l 0 5 l 0 5 l -5 0 l 0 -5 l 0 -5 l 0 5 l 5 0 l 0 -5 l 0 -5 l 0 -5 l 0 -5 l 0 -5 l 0 5 l -5 0 l -5 0 l -5 0 l 0 5 l 0 5 l -5 0 l 0 -5 l 0 5 l 0 5 l 0 -5 l -5 0 l 0 5 l 0 5 l -5 0 l 5 0 l -5 0 l 0 -5 l 0 5 l -5 0 l -5 0 l 0 -5 l -5 0 l 5 0 l 5 0 l 0 5 l -5 0 l 0 -5 l 0 -5 l -5 0 l 0 5 l -5 0 l 0 -5 l 0 -5 l 5 0 l 0 -5 l 5 0 l -5 0 l 0 -5 l 5 0 l 5 0 l -5 0 l 5 0 l 5 0 l 5 0 l 0 -5 l -5 0 l 0 -5 l 0 5 l 0 -5 l 0 -5 l 0 -5 l -5 0 l 5 0 l -5 0 l 0 -5 l 0 5 l -5 0 l 5 0 l 5 0 l 5 0 l 0 5 l -5 0 l 0 -5 l -5 0 l -5 0 l 0 5 l 0 -5 l 0 5 l 0 5 l 0 5 l 0 5 l 0 -5 l 5 0 l 0 5 l -5 0 l -5 0 l 0 -5 l -5 0 l 5 0 l 0 -5 l -5 0 l 0 5 l 0 5 l -5 0 l 0 5 l 0 -5 l -5 0 l 0 -5 l -5 0 l -5 0 l 0 5 l 0 5 l 0 5 l 0 -5 l 5 0 l 0 -5 l 0 -5 l 0 -5 l 0 -5 l 0 -5 l 5 0 l 5 0 l -5 0 l -5 0 l 5 0 l -5 0 l 5 0 l 0 -5 l -5 0 l 5 0 l -5 0 l -5 0 l 0 -5 l 0 5 l 0 5 l 0 5 l 0 5 l 0 5 l 0 -5 l 0 5 l 0 -5 l 0 5 l -5 0 l 0 -5 l -5 0 l 0 5 l 0 -5 l 0 -5 l 0 -5 l 0 5 l 0 5 l -5 0 l 5 0 l 0 -5 l -5 0 l 5 0 l 5 0 l 0 5 l -5 0 l -5 0 l 0 5 l 5 0 l 0 -5 l 0 -5 l -5 0 l 5 0 l 0 -5 l 5 0 l 0 5 l 0 5 l 5 0 l 0 -5 l 5 0 l 5 0 l 0 5 l -5 0 l 0 -5 l 0 5 l 5 0 l -5 0 l -5 0 l -5 0 l 5 0 l -5 0 l -5 0 l 0 5 l 0 5 l 0 -5 l 0 -5 l 0 -5 l -5 0 l -5 0 l 5 0 l 0 5 l 5 0 l -5 0 l 0 -5 l 0 -5 l -5 0 l 5 0 l -5 0 l 0 5 l 0 5 l -5 0 l -5 0 l 0 -5 l 0 -5 l 0 -5 l -5 0 l 0 -5 l 0 5 l 0 -5 l 0 5 l -5 0 l -5 0 l 0 5 l 0 5 l 0 -5 l 5 0 l 0 -5 l 5 0 l 0 -5 l 0 -5 l 0 5 l -5 0 l 0 5 l 0 5 l 0 5 l 0 5 l 5 0 l -5 0 l 0 5 l 5 0 l 5 0 l 0 5 l 0 5 l 0 5 l 0 5 l 0 5 l 0 -5 l 0 -5 l 0 -5 l 5 0 l 5 0 l 5 0 l 5 0 l 5 0 l 5 0 l 0 5 l 5 0 l -5 0 l 0 5 l 0 5 l 0 -5 l -5 0 l -5 0 l 0 5 l 0 5 l -5 0 l 5 0 l 5 0 l 0 5 l -5 0 l -5 0 l 5 0 l 0 -5 l 0 5 l 5 0 l 0 -5 l 0 5 l -5 0 l 0 5 l -5 0 l 5 0 l 0 -5 l 0 5 l 0 5 l -5 0 l 5 0 l -5 0 l -5 0 l 0 5 l 5 0"></path><path fill="rgba(7.71%,52.42%,38.93%,0.5)" d="M 260 70 l -5 0 l 5 0 l 0 -5 l 5 0 l 0 -5 l 0 -5 l 0 5 l 5 0 l 0 -5 l 5 0 l 0 5 l 5 0 l 5 0 l 5 0 l 0 5 l 5 0 l 0 5 l 5 0 l -5 0 l 0 5 l -5 0 l 0 5 l 0 -5 l -5 0 l 0 5 l 0 5 l 5 0 l 0 5 l 0 -5 l 0 -5 l 0 5 l 0 -5 l 0 5 l -5 0 l 5 0 l 0 -5 l 5 0 l 0 5 l 0 5 l 0 5 l 0 -5 l 0 -5 l 5 0 l 0 5 l 0 5 l 5 0 l 0 -5 l -5 0 l 0 5 l -5 0 l -5 0 l 5 0 l 0 -5 l 5 0 l -5 0 l 0 5 l -5 0 l 0 -5 l 0 5 l 0 -5 l -5 0 l 5 0 l -5 0 l 0 -5 l 0 5 l 0 -5 l 5 0 l 0 5 l 0 5 l 5 0 l 5 0 l 0 5 l 5 0 l 5 0 l 0 5 l 0 -5 l 5 0 l 5 0 l 5 0 l 0 5 l -5 0 l 5 0 l 0 5 l 0 5 l -5 0 l 0 5 l 0 -5 l 0 5 l -5 0 l 0 -5 l 5 0 l -5 0 l -5 0 l 5 0 l -5 0 l 0 -5 l 5 0 l 0 -5 l -5 0 l 5 0 l 5 0 l 0 -5 l 5 0 l -5 0 l 5 0 l 0 -5 l -5 0 l 0 -5 l -5 0 l 0 5 l 0 -5 l 5 0 l 0 -5 l -5 0 l 0 -5 l -5 0 l -5 0 l 0 5 l 0 5 l 5 0 l 5 0 l -5 0 l 5 0 l 5 0 l 0 -5 l -5 0 l 0 5 l 0 -5 l -5 0 l 0 5 l 0 5 l 5 0 l 0 5 l -5 0 l -5 0 l 5 0 l 0 -5 l 5 0 l 5 0 l -5 0 l -5 0 l 5 0 l 5 0 l 0 5 l -5 0 l -5 0 l 0 -5 l 5 0 l 0 5 l 5 0 l 0 -5 l -5 0 l 0 5 l -5 0 l 5 0 l 0 -5 l 0 -5 l 0 -5 l 0 -5 l 0 -5 l 0 -5 l -5 0 l 0 -5 l 0 -5 l -5 0 l 0 5 l 0 5 l 0 5 l 0 5 l 0 -5 l 5 0 l 0 -5 l -5 0 l 0 5 l -5 0 l -5 0 l 5 0 l 0 -5 l 0 -5 l 0 -5 l -5 0 l 0 5 l -5 0 l 0 -5 l 0 -5 l 0 5 l 0 -5 l 0 -5 l 0 5 l 5 0 l 0 5 l -5 0 l 0 5 l 5 0 l 0 -5 l 5 0 l -5 0 l 0 -5 l -5 0 l 0 5 l 0 -5 l -5 0 l 0 5 l 0 5 l -5 0 l 0 -5 l 5 0 l 0 5 l 0 -5 l 0 -5 l 0 5 l 5 0 l 0 -5 l -5 0 l -5 0 l 0 5 l 0 5 l 5 0 l -5 0 l -5 0 l 0 5 l 0 5 l 0 -5 l -5 0 l 0 -5 l 5 0 l 5 0 l 5 0 l 0 -5 l -5 0 l 0 5 l 0 5 l -5 0 l -5 0 l 0 -5 l 0 -5 l 5 0 l -5 0 l -5 0 l -5 0 l 5 0 l 0 -5 l -5 0 l 0 5 l 5 0 l 5 0 l 5 0 l -5 0 l 0 -5 l 0 5 l 0 5 l -5 0 l -5 0 l 0 -5 l -5 0 l 5 0 l -5 0 l 0 5 l -5 0 l 5 0 l 5 0 l 5 0 l 5 0 l -5 0 l 0 -5 l -5 0 l 5 0 l 5 0 l -5 0 l 0 5 l 5 0 l 0 5 l -5 0 l 5 0 l -5 0 l 0 -5 l -5 0 l 0 -5 l 5 0 l 0 5 l 0 -5 l 0 5 l 0 5 l 5 0 l 0 5 l 0 5 l 5 0 l 0 5 l -5 0 l 0 5 l 5 0 l -5 0 l -5 0 l 5 0 l 0 -5 l 5 0 l 0 -5 l 5 0 l 0 5 l -5 0 l 0 5 l 5 0 l 5 0 l -5 0 l 5 0 l -5 0 l -5 0 l 0 -5 l 0 5 l -5 0 l 0 -5 l 0 5 l 0 5 l 0 5 l 5 0 l 5 0 l 0 -5 l 5 0 l 0 -5 l -5 0 l 0 5 l -5 0 l -5 0 l -5 0 l 5 0 l 0 5 l 0 5 l -5 0 l -5 0 l -5 0 l 5 0 l 0 5 l 0 -5 l 5 0 l -5 0 l 5 0 l -5 0 l 0 5 l 5 0 l 5 0 l -5 0 l -5 0 l 0 5 l 5 0 l -5 0 l 0 5 l 5 0 l 0 -5 l -5 0 l 0 -5 l -5 0 l 0 -5 l 0 5 l 0 5 l 0 5 l -5 0 l 0 5 l 0 -5 l 0 -5 l 0 -5 l 0 5 l 0 5 l -5 0 l 0 5 l -5 0 l -5 0 l 0 -5 l 0 -5 l 5 0 l 0 -5 l 5 0 l 5 0 l 0 5 l 0 5 l 5 0 l 0 5 l 0 -5 l 0 -5 l 0 5 l 0 5 l 5 0 l 5 0 l 5 0 l 0 5 l -5 0 l -5 0 l 0 -5 l -5 0 l 0 -5 l 0 -5 l 0 5 l -5 0 l 0 5 l 0 5 l -5 0 l 5 0 l 0 5 l -5 0 l 0 -5 l 0 -5 l -5 0 l 5 0 l -5 0 l 0 -5 l 0 -5 l 0 -5 l 5 0 l 5 0 l 0 -5 l 0 -5 l 0 -5 l 5 0 l 0 -5 l 0 -5 l 0 5 l 0 -5 l 0 -5 l 0 -5 l 0 -5 l -5 0 l 5 0 l -5 0 l 0 5 l 5 0 l 0 5 l 0 -5 l 5 0 l 0 5 l 0 -5 l -5 0 l 0 -5 l -5 0 l 0 -5 l 5 0 l 0 -5 l 0 -5 l 0 5 l 5 0 l 0 5 l 0 -5 l -5 0 l 0 5 l -5 0 l 0 -5 l 5 0 l 0 5 l 5 0 l 0 5"></path><path fill="rgba(2.48%,61.64%,26.08%,0.5)" d="M 120 440 l 5 0 l -5 0 l -5 0 l -5 0 l -5 0 l -5 0 l 0 -5 l 0 5 l 0 -5 l -5 0 l 0 5 l 5 0 l 0 5 l 0 -5 l -5 0 l 5 0 l 5 0 l 5 0 l -5 0 l -5 0 l 5 0 l 5 0 l 5 0 l 0 -5 l 0 -5 l -5 0 l 5 0 l 0 -5 l 5 0 l 0 -5 l -5 0 l -5 0 l 5 0 l 0 -5 l -5 0 l -5 0 l -5 0 l 5 0 l 5 0 l 0 -5 l 5 0 l 0 5 l 0 -5 l -5 0 l 0 5 l -5 0 l 0 5 l 0 5 l -5 0 l 5 0 l 0 5 l 0 -5 l 5 0 l 0 -5 l -5 0 l 0 5 l 0 -5 l 5 0 l -5 0 l 0 -5 l -5 0 l 0 -5 l 0 -5 l 0 -5 l 0 5 l -5 0 l 0 -5 l -5 0 l 5 0 l 0 -5 l -5 0 l 5 0 l 0 5 l -5 0 l 0 -5 l 5 0 l -5 0 l 0 5 l -5 0 l 5 0 l -5 0 l 0 5 l -5 0 l 0 5 l -5 0 l 0 -5 l 0 5 l 0 5 l -5 0 l 5 0 l 0 -5 l 5 0 l 5 0 l -5 0 l 0 -5 l 0 -5 l 0 5 l 5 0 l 0 5 l 0 -5 l 5 0 l 5 0 l 0 -5 l 5 0 l 5 0 l 0 -5 l 5 0 l 5 0 l 0 5 l 5 0 l 0 5 l 0 5 l 0 -5 l 0 -5 l 0 -5 l 5 0 l 0 -5 l 0 5 l -5 0 l -5 0 l 0 5 l -5 0 l 0 5 l 5 0 l 0 -5 l 0 -5 l 0 -5 l 0 -5 l 0 -5 l 0 -5 l 5 0 l -5 0 l 5 0 l 0 5 l -5 0 l -5 0 l 0 -5 l -5 0 l 0 -5 l 0 5 l 0 -5 l 0 5 l 0 5 l 0 -5 l 0 5 l 0 5 l 0 -5 l 0 -5 l 0 -5 l -5 0 l -5 0 l 0 -5 l -5 0 l 0 -5 l 0 -5 l -5 0 l 0 -5 l 0 -5 l 5 0 l 0 -5 l 0 -5 l -5 0 l 0 5 l -5 0 l 0 5 l 0 -5 l -5 0 l 0 -5 l 5 0 l 0 -5 l 5 0 l 5 0 l 0 5 l 0 5 l 5 0 l 0 5 l 0 -5 l 0 -5 l 0 5 l 0 -5 l 0 -5 l -5 0 l 0 -5 l -5 0 l 0 -5 l -5 0 l 0 5 l 0 -5 l 0 -5 l 0 5 l 0 5 l 0 5 l 5 0 l 5 0 l 0 -5 l 0 -5 l 0 5 l 5 0 l 0 5 l 5 0 l 0 -5 l 5 0 l 0 -5 l 0 -5 l -5 0 l 0 5 l 5 0 l 5 0 l 0 -5 l -5 0 l -5 0 l -5 0 l 0 -5 l 0 5 l 0 -5 l 5 0 l -5 0 l 0 -5 l -5 0 l 5 0 l 0 5 l -5 0 l 5 0 l 5 0 l -5 0 l 0 -5 l 0 -5 l 0 5 l -5 0 l 5 0 l 0 -5 l 0 -5 l 0 5 l 5 0 l 0 -5 l -5 0 l 0 5 l 0 -5 l -5 0 l 0 5 l -5 0 l 5 0 l -5 0 l 0 -5 l 0 -5 l -5 0 l -5 0 l -5 0 l 0 -5 l 5 0 l 5 0 l 0 5 l 0 5 l 5 0 l 5 0 l -5 0 l 0 -5 l 5 0 l 0 -5 l 5 0 l 5 0 l -5 0 l 5 0 l -5 0 l 0 5 l 0 5 l 0 5 l 5 0 l 5 0 l -5 0 l -5 0 l -5 0 l 5 0 l -5 0 l 5 0 l 0 -5 l 0 -5 l 0 5 l 0 5 l 0 -5 l -5 0 l 5 0 l 0 5 l 0 5 l 0 5 l 5 0 l -5 0 l 5 0 l 0 -5 l 0 5 l 0 -5 l 0 -5 l 5 0 l 0 5 l -5 0 l 0 5 l -5 0 l 0 -5 l 0 -5 l 0 -5 l -5 0 l 0 5 l -5 0 l 0 5 l -5 0 l 0 -5 l 5 0 l 5 0 l 0 -5 l 0 5 l -5 0 l 5 0 l 0 5 l -5 0 l 0 5 l 5 0 l -5 0 l 0 -5 l 0 5 l 0 -5 l -5 0 l 0 5 l 5 0 l 0 -5 l -5 0 l 5 0 l 0 -5 l -5 0 l 0 -5 l 5 0 l -5 0 l 5 0 l 0 5 l 0 5 l -5 0 l 0 -5 l 0 5 l -5 0 l -5 0 l 0 5 l 5 0 l 0 -5 l 0 5 l 0 5 l 0 5 l -5 0 l -5 0 l 5 0 l 0 -5 l 5 0 l 0 5 l 0 -5 l -5 0 l 0 5 l 0 5 l 0 -5 l 0 -5 l 0 -5 l -5 0 l 5 0 l -5 0 l 0 5 l 0 -5 l -5 0 l 0 -5 l 0 5 l 0 -5 l 0 5 l 5 0 l 5 0 l 0 5 l 0 -5 l 0 5 l -5 0 l 0 -5 l 0 -5 l 0 5 l 5 0 l -5 0 l 5 0 l 5 0 l -5 0 l 5 0 l -5 0 l 5 0 l 0 5 l 0 5 l 0 -5 l 0 -5 l 5 0 l 0 5 l 5 0 l -5 0 l -5 0 l 5 0 l 0 -5 l 0 5 l -5 0 l 0 5 l 0 5 l -5 0 l 0 5 l -5 0 l 0 5 l 0 5 l 5 0 l 5 0 l 5 0 l 5 0 l 0 5 l -5 0 l 5 0 l 0 -5 l 0 -5 l 0 5 l 0 5 l 5 0 l 0 -5 l -5 0 l 5 0 l -5 0 l 0 5 l -5 0 l 5 0 l -5 0 l 5 0 l -5 0 l 0 -5 l 0 5 l 5 0 l 5 0 l 0 -5 l 0 -5 l -5 0 l 0 -5 l 5 0 l -5 0 l 0 -5 l -5 0 l 0 -5 l 0 -5 l 5 0 l -5 0 l 5 0 l 0 -5 l 5 0 l -5 0 l 0 5 l 5 0 l 0 5 l 0 5 l 0 5 l 0 5 l 0 -5 l -5 0 l 5 0 l 0 -5 l 5 0 l 5 0 l -5 0 l 0 5 l 5 0 l -5 0 l 0 5 l 0 -5 l 0 -5 l 0 5 l -5 0 l -5 0 l 5 0 l 0 5 l 0 -5 l 5 0 l 0 -5 l -5 0 l 0 -5 l 0 -5 l 0 5 l 5 0 l -5 0 l 5 0 l -5 0 l 5 0 l -5 0 l -5 0 l 0 -5 l -5 0 l 5 0 l -5 0 l -5 0 l 5 0 l 0 5 l 5 0 l 0 -5 l 0 -5 l 0 5 l 5 0 l -5 0 l 0 5 l 0 5 l 0 5 l 0 5 l 0 5 l 0 5 l 5 0 l 5 0 l 0 -5 l 5 0 l 0 5 l 0 5 l 0 -5 l 0 5 l 5 0 l 5 0 l -5 0 l 0 5 l -5 0 l 5 0 l 5 0 l 0 5 l 5 0 l -5 0 l 0 -5 l 5 0 l 0 -5 l -5 0 l -5 0 l 0 -5 l -5 0 l -5 0 l 5 0 l -5 0 l 5 0 l -5 0 l 0 -5 l -5 0 l 5 0 l -5 0 l 5 0 l 0 5 l 5 0 l 0 5 l 0 -5 l -5 0 l 0 5 l 0 5 l 0 -5 l 0 5 l 5 0 l 0 5 l 0 5 l -5 0 l 5 0 l -5 0 l 0 5 l -5 0 l -5 0 l 0 -5 l 5 0 l -5 0 l 0 5 l 0 -5 l 0 5 l 0 5 l -5 0 l 5 0 l 0 5 l 5 0 l 0 5 l 0 5 l 0 5 l 0 -5 l 5 0 l 5 0 l 0 5 l 5 0 l 0 5 l 5 0 l -5 0 l -5 0 l 0 5 l -5 0 l 0 5 l 0 -5 l 0 -5 l -5 0 l 0 5 l 5 0 l 5 0 l -5 0 l 0 -5 l 0 -5 l 5 0 l -5 0 l 5 0 l 5 0 l 0 5 l -5 0 l -5 0 l 5 0 l 5 0 l 5 0 l 0 5 l 0 -5 l 5 0 l 0 5 l 0 5 l -5 0 l -5 0 l 0 -5 l 0 5 l -5 0 l -5 0 l 0 5 l 0 -5 l 5 0 l 5 0 l 5 0 l -5 0 l 0 5 l -5 0 l 5 0 l 5 0 l 5 0 l 5 0 l 0 -5 l -5 0 l -5 0 l -5 0 l 5 0 l -5 0 l 0 5 l -5 0 l 5 0 l -5 0 l 0 5 l 0 5 l 0 -5 l 0 5 l 5 0 l 5 0 l 0 -5 l -5 0 l 0 5 l 5 0 l -5 0 l 5 0 l 0 5 l -5 0 l 0 5 l 5 0 l 0 5 l 0 5 l 0 5 l 5 0 l 0 -5 l 0 -5 l 5 0"></path><path fill="rgba(50.06%,83.02%,9.99%,0.5)" d="M 100 80 l -5 0 l 0 5 l 0 -5 l 0 5 l 0 5 l 0 -5 l 0 -5 l 0 -5 l 0 -5 l 5 0 l -5 0 l 0 5 l 0 5 l 0 -5 l 0 -5 l 0 5 l 0 -5 l -5 0 l -5 0 l 5 0 l 0 -5 l 0 -5 l 0 5 l 5 0 l 5 0 l -5 0 l 0 5 l 0 5 l 0 -5 l -5 0 l -5 0 l -5 0 l 5 0 l 5 0 l 0 5 l 0 5 l 5 0 l -5 0 l -5 0 l 5 0 l 5 0 l -5 0 l -5 0 l -5 0 l 5 0 l 0 5 l 0 5 l 5 0 l -5 0 l 0 5 l -5 0 l -5 0 l -5 0 l 5 0 l -5 0 l -5 0 l -5 0 l 0 -5 l -5 0 l 5 0 l 0 -5 l 0 -5 l -5 0 l 5 0 l 5 0 l 5 0 l 0 5 l 0 5 l 0 -5 l -5 0 l -5 0 l 5 0 l 0 -5 l 0 5 l 5 0 l 0 -5 l -5 0 l -5 0 l 0 5 l 0 -5 l 0 5 l 5 0 l 0 -5 l 0 -5 l 0 5 l 0 5 l 5 0 l -5 0 l 0 -5 l -5 0 l 0 -5 l 0 5 l 5 0 l 0 -5 l -5 0 l 0 -5 l 0 5 l 0 -5 l -5 0 l 0 -5 l 0 -5 l 5 0 l -5 0 l 5 0 l -5 0 l 0 -5 l -5 0 l 5 0 l -5 0 l 0 -5 l 5 0 l 5 0 l -5 0 l 5 0 l 0 -5 l 0 5 l 0 5 l 5 0 l -5 0 l 0 -5 l 0 5 l 0 5 l 0 5 l 0 -5 l -5 0 l 5 0 l 0 5 l 0 -5 l -5 0 l -5 0 l 0 5 l 5 0 l 5 0 l 0 5 l 0 5 l 0 5 l 5 0 l 0 5 l 0 5 l 0 5 l -5 0 l 5 0 l 0 5 l -5 0 l 5 0 l 0 5 l -5 0 l 5 0 l 0 5 l 5 0 l 5 0 l 0 5 l -5 0 l 0 -5 l -5 0 l 0 -5 l -5 0 l 0 -5 l 0 5 l 0 5 l 5 0 l -5 0 l 5 0 l 0 5 l 5 0 l 0 5 l 0 5 l 5 0 l -5 0 l 5 0 l 0 -5 l 5 0 l 5 0 l -5 0 l 0 5 l 0 5 l -5 0 l 0 5 l 0 -5 l 0 5 l 5 0 l -5 0 l 0 -5 l 0 5 l 0 -5 l 0 -5 l -5 0 l 0 -5 l 5 0 l 0 -5 l -5 0 l 0 -5 l -5 0 l -5 0 l 0 -5 l 5 0 l 0 -5 l -5 0 l 5 0 l -5 0 l 0 5 l 5 0 l -5 0 l 0 -5 l 5 0 l 0 -5 l 0 -5 l 0 -5 l 0 5 l 5 0 l -5 0 l 0 -5 l 0 5 l -5 0 l -5 0 l -5 0 l 0 -5 l 5 0 l 5 0 l 5 0 l 0 -5 l 0 -5 l 0 -5 l 0 -5 l -5 0 l -5 0 l 0 -5 l 0 -5 l 0 5 l -5 0 l 0 -5 l 5 0 l 5 0 l 0 -5 l -5 0 l -5 0 l 0 5 l 0 -5 l 0 -5 l 0 -5 l 0 5 l -5 0 l 0 5 l -5 0 l 0 -5 l 0 5 l 0 5 l -5 0 l 0 5 l 0 5 l 0 -5 l 5 0 l 0 5 l 5 0 l 5 0 l 5 0 l 0 -5 l -5 0 l 0 -5 l 0 -5 l -5 0 l 0 -5 l 0 -5 l 0 5 l 5 0 l 0 -5 l 0 -5 l -5 0 l 5 0 l 0 -5 l 0 -5 l 0 -5 l 0 -5 l -5 0 l -5 0 l 0 5 l 0 5 l 0 5 l -5 0 l 0 5 l -5 0 l 0 5 l -5 0 l -5 0 l -5 0 l -5 0 l 5 0 l -5 0 l 5 0 l 5 0 l 0 5 l 0 5 l -5 0 l 0 -5 l 5 0 l 0 -5 l 0 -5 l -5 0 l 0 5 l 5 0 l 0 -5 l 0 -5 l 0 5 l 0 -5 l 0 -5 l 5 0 l -5 0 l 0 5 l 5 0 l 0 5 l 5 0 l 0 5 l -5 0 l 5 0 l -5 0 l 0 5 l -5 0 l 5 0 l -5 0 l 0 -5 l 5 0 l 0 5 l 5 0 l 5 0 l 0 -5 l 0 -5 l 5 0 l 5 0 l 0 -5 l 5 0 l 0 -5 l 5 0 l 0 -5 l 5 0 l 5 0 l 0 -5 l 0 -5 l 5 0 l 0 -5 l 0 5 l 0 5 l 0 5 l -5 0 l 0 5 l 0 -5 l 0 5 l -5 0 l 5 0 l 5 0 l 5 0 l 0 -5 l -5 0 l 0 -5 l 5 0 l 5 0 l -5 0 l 0 5 l 0 -5 l -5 0 l 0 -5 l 5 0 l -5 0 l 0 5 l 0 5 l -5 0 l 5 0 l 0 5 l 0 -5 l 0 -5 l 0 5 l 0 5 l 0 -5 l 0 -5 l 5 0 l 5 0 l -5 0 l 5 0 l 0 5 l 0 5 l 5 0 l 0 -5 l -5 0 l 5 0 l 0 5 l 5 0 l 0 -5 l 0 5 l 0 5 l 0 -5 l -5 0 l 5 0 l 0 -5 l -5 0 l 0 5 l -5 0 l 0 -5 l 5 0 l 5 0 l 0 5 l -5 0 l 0 5 l 0 5 l 0 5 l 0 5 l 5 0 l 5 0 l 0 5 l 5 0 l 0 5 l 0 -5 l 0 -5 l -5 0 l 5 0 l 0 5 l 0 -5 l 0 5 l 5 0 l 0 5 l 0 -5 l 0 -5 l 5 0 l -5 0 l 5 0 l 5 0 l 0 5 l 0 5 l 0 -5 l 0 5 l -5 0 l 0 -5 l 0 -5 l -5 0 l -5 0 l 0 -5 l 0 -5 l 5 0 l 0 -5 l 0 -5 l -5 0 l -5 0 l 0 5 l 0 5 l -5 0 l 0 5 l 0 5 l -5 0 l 0 -5 l 0 5 l 5 0 l -5 0 l 0 -5 l 0 5 l 0 5 l -5 0 l 0 5 l 0 5 l 5 0 l 0 5 l 0 -5 l 0 5 l 0 -5 l 5 0 l 0 -5 l 5 0 l 0 -5 l 0 -5 l 0 5 l 5 0 l 5 0 l 0 -5 l -5 0 l 0 5 l 5 0 l 0 5 l 0 5 l 0 5 l 0 -5 l -5 0 l 0 5 l 5 0 l 5 0 l 0 5 l -5 0 l -5 0 l -5 0 l 0 -5 l 0 5 l 0 5 l 0 5 l 0 5 l 0 -5 l 5 0"></path><path fill="rgba(100%,32.36%,0%,0.5)" d="M 345 235 l 5 0 l 0 -5 l 5 0 l -5 0 l 5 0 l -5 0 l 5 0 l -5 0 l 5 0 l 5 0 l 5 0 l 0 5 l 5 0 l -5 0 l 0 -5 l 0 -5 l 0 5 l -5 0 l -5 0 l 0 5 l 5 0 l 5 0 l 0 -5 l 5 0 l 5 0 l 0 5 l 5 0 l 5 0 l 0 5 l -5 0 l 5 0 l 0 5 l 0 5 l -5 0 l -5 0 l 0 5 l 0 5 l 0 5 l 0 -5 l 0 -5 l 0 5 l 5 0 l 5 0 l -5 0 l -5 0 l 0 -5 l -5 0 l -5 0 l 0 5 l 0 5 l 5 0 l 0 5 l -5 0 l -5 0 l 0 5 l -5 0 l 0 5 l 5 0 l 5 0 l 5 0 l -5 0 l 5 0 l 0 -5 l 0 5 l 5 0 l 0 5 l -5 0 l 0 -5 l 5 0 l 5 0 l 0 5 l -5 0 l 0 5 l 0 5 l 5 0 l -5 0 l 0 -5 l -5 0 l 0 -5 l 0 5 l 5 0 l -5 0 l -5 0 l 0 5 l 0 -5 l 0 -5 l 5 0 l 0 -5 l 5 0 l -5 0 l 5 0 l -5 0 l 5 0 l 0 -5 l 0 -5 l 5 0 l 5 0 l 0 -5 l 0 -5 l 0 -5 l -5 0 l 5 0 l 0 5 l 5 0 l 0 -5 l 0 -5 l 0 -5 l 5 0 l -5 0 l -5 0 l 0 -5 l 0 -5 l 0 5 l 0 -5 l 0 -5 l 0 -5 l -5 0 l 0 -5 l 0 -5 l 0 5 l 5 0 l 0 -5 l 0 5 l 5 0 l 0 5 l 5 0 l 0 -5 l 5 0 l 0 -5 l 5 0 l 0 -5 l 5 0 l 0 5 l 0 5 l 0 -5 l 0 5 l 0 5 l 0 5 l -5 0 l 0 5 l 0 -5 l -5 0 l 5 0 l 0 -5 l 0 -5 l 0 -5 l 0 -5 l -5 0 l 5 0 l 0 5 l 0 -5 l 0 5 l 0 -5 l 0 5 l 5 0 l -5 0 l 0 5 l 0 -5 l 0 5 l 0 -5 l -5 0 l 0 -5 l 0 5 l 0 -5 l 5 0 l -5 0 l -5 0 l 0 5 l 5 0 l 5 0 l 0 -5 l 5 0 l 0 5 l 0 5 l 5 0 l 5 0 l -5 0 l 0 -5 l 0 -5 l 0 -5 l -5 0 l 5 0 l 5 0 l -5 0 l 0 5 l -5 0 l 5 0 l 0 5 l 5 0 l 0 -5 l 5 0 l 0 5 l 5 0 l 5 0 l 0 5 l 0 5 l 0 -5 l -5 0 l 5 0 l 5 0 l 0 -5 l -5 0 l 0 5 l 0 5 l 0 5 l -5 0 l -5 0 l 0 -5 l 0 -5 l 0 5 l 0 5 l 5 0 l 0 -5 l -5 0 l 5 0 l 0 5 l 0 5 l 0 5 l 0 -5 l -5 0 l -5 0 l 5 0 l 0 5 l 0 5 l 0 5 l 0 -5 l -5 0 l 5 0 l 0 -5 l 0 -5 l 5 0 l 0 -5 l 0 5 l 0 -5 l -5 0 l 0 5 l 5 0 l 5 0 l -5 0 l -5 0 l -5 0 l 0 5 l 5 0 l 0 5 l 0 -5 l 0 5 l -5 0 l 0 5 l 0 5 l 5 0 l 0 -5 l 0 -5 l 5 0 l 0 5 l -5 0 l -5 0 l 0 5 l 0 5 l -5 0 l -5 0 l 0 -5 l 0 5 l 5 0 l -5 0 l 0 5 l 0 -5 l 0 -5 l 5 0 l 0 5 l 0 -5 l 0 5 l 0 -5 l -5 0 l 0 5 l -5 0 l 0 5 l 5 0 l 0 -5 l 0 5 l -5 0 l -5 0 l 5 0 l 5 0 l 0 5 l 5 0 l 5 0 l 5 0 l -5 0 l 0 5 l -5 0 l 5 0 l 5 0 l -5 0 l 5 0 l 5 0 l 0 5 l -5 0 l 0 -5 l 0 5 l -5 0 l 0 -5 l -5 0 l 0 5 l -5 0 l -5 0 l -5 0 l -5 0 l 5 0 l 0 5 l 0 5 l -5 0 l 0 5 l -5 0 l 0 -5 l 5 0 l 0 5 l 0 -5 l 0 -5 l -5 0 l 5 0 l 0 -5 l 0 -5 l 5 0 l 0 -5 l -5 0 l 5 0 l 5 0 l -5 0 l -5 0 l 0 -5 l 0 -5 l -5 0 l 0 -5 l 0 5 l 5 0 l 0 5 l 5 0 l 0 -5 l 0 5 l -5 0 l 5 0 l 0 5 l 0 -5 l 0 -5 l 5 0 l 5 0 l 0 5 l 5 0 l 0 -5 l 5 0 l -5 0 l 5 0 l 0 -5 l 0 5 l 0 5 l -5 0 l 5 0 l 5 0 l -5 0 l -5 0 l 5 0 l 0 -5 l 0 5 l 0 -5 l 5 0 l 0 5 l 0 -5 l 0 -5 l 0 -5 l -5 0 l 0 -5 l 5 0 l 5 0 l -5 0 l -5 0 l 0 5 l 0 -5 l 0 5 l 5 0 l 0 5 l 0 5 l 0 5 l 5 0 l 0 -5 l 5 0 l -5 0 l 0 -5 l -5 0 l 0 5 l 0 -5 l -5 0 l 0 -5 l 0 5 l -5 0 l 0 5 l 0 5 l 0 5 l 5 0 l 0 5 l 5 0 l 0 5 l 0 -5 l -5 0 l 5 0 l 0 5 l 0 5 l 0 -5 l 0 -5 l 0 5 l 0 -5 l 5 0 l -5 0 l 0 5 l 5 0 l 0 5 l -5 0 l 0 5 l -5 0 l 5 0 l 0 -5 l -5 0 l 5 0 l 0 5 l 5 0 l -5 0 l 5 0 l 0 -5 l 0 -5 l 5 0 l 0 -5 l 0 5 l -5 0 l 5 0 l 0 5 l -5 0 l -5 0 l 5 0 l 0 5 l -5 0 l 0 5 l -5 0 l -5 0 l 5 0 l 0 -5 l 0 5 l 0 -5 l -5 0 l 0 5 l -5 0 l -5 0 l 0 5 l -5 0 l 0 -5 l 0 5 l 0 -5 l 0 5 l -5 0 l -5 0 l 0 5 l -5 0 l 5 0 l -5 0 l -5 0 l 0 5 l 0 -5 l -5 0 l 0 5 l 0 5 l 0 5 l -5 0 l 0 -5 l 0 -5 l 0 -5 l 5 0 l 0 5 l -5 0 l 0 5 l 0 5 l -5 0 l 0 5 l -5 0 l 0 5 l 0 -5 l -5 0 l -5 0 l 5 0 l 0 5 l -5 0 l 5 0 l 0 -5 l -5 0 l 5 0 l -5 0 l 0 5 l 0 5 l 0 5 l -5 0 l 0 5 l 0 5 l 0 -5 l 5 0 l 0 5 l 5 0 l 5 0 l 0 5 l 5 0 l 5 0 l -5 0 l 0 -5 l 0 5 l 0 -5 l 0 5 l -5 0 l 5 0 l 0 -5 l 0 -5 l -5 0 l 0 5 l -5 0 l -5 0 l 5 0 l -5 0 l 5 0 l -5 0 l 0 5 l 5 0 l 0 -5 l -5 0 l 0 -5 l 5 0 l 5 0 l 0 5 l 0 5 l 5 0 l 0 5 l 5 0 l -5 0 l 0 5 l 0 5 l 0 -5 l -5 0 l -5 0 l 0 5 l 0 -5 l 0 5 l 0 -5 l 5 0 l 0 -5 l 5 0 l -5 0 l 0 5 l 0 5 l 0 5 l 0 5 l -5 0 l -5 0 l 0 5 l 0 -5 l -5 0 l 0 5 l 5 0 l 0 5 l 0 -5 l -5 0 l 0 -5 l -5 0 l 0 5 l 5 0 l 5 0 l 5 0 l -5 0 l -5 0 l 0 -5 l -5 0 l -5 0 l -5 0 l 0 -5 l 0 5 l -5 0 l 0 5 l -5 0 l -5 0 l 0 5 l 0 -5 l 0 5 l 0 5 l -5 0 l 0 -5 l 0 -5 l 0 5 l 0 5 l 0 5 l -5 0 l 0 -5 l 0 -5 l 0 -5 l 5 0 l -5 0 l 5 0 l 0 -5 l -5 0 l -5 0 l 0 -5 l 0 5 l -5 0 l 0 -5 l 0 5 l -5 0 l -5 0 l -5 0 l 0 -5 l 5 0 l 5 0 l 0 5 l 5 0 l 5 0 l 0 5 l 5 0 l -5 0 l 0 -5 l 0 -5 l 0 5 l 0 -5 l -5 0 l -5 0 l 0 5 l 0 5 l 0 -5 l 0 5 l 5 0 l -5 0 l 0 -5 l 5 0 l -5 0 l 0 5 l 0 -5 l 0 -5 l 0 -5 l 0 -5 l 5 0 l 0 5 l 0 -5 l 0 5 l 0 -5 l 0 -5 l 5 0 l 0 -5 l 0 -5 l 5 0 l -5 0 l 0 5 l 5 0 l 5 0 l -5 0 l -5 0 l 5 0 l -5 0 l 0 -5 l 0 -5 l -5 0 l 0 5 l 0 5 l -5 0 l 0 -5 l 0 -5 l 0 -5 l -5 0 l 0 5 l 0 -5 l 0 5 l -5 0 l 5 0 l 0 -5 l 0 -5 l 0 5 l 0 -5 l 5 0 l -5 0 l 0 -5 l 0 5 l 0 5 l 5 0 l 0 -5 l 5 0 l -5 0 l 0 -5 l 0 5 l 5 0 l 0 5 l 5 0 l 0 -5 l 5 0 l 5 0 l 0 5 l 5 0 l 0 -5 l 0 5 l -5 0 l 0 5 l 0 5 l -5 0 l 0 -5 l -5 0 l 0 5 l 5 0 l 0 5 l 5 0 l 5 0 l 0 -5 l 0 -5 l 5 0 l 0 -5 l 0 5 l -5 0 l 0 5 l -5 0 l 0 5 l -5 0 l 5 0 l -5 0 l 0 -5 l 0 -5 l -5 0 l 5 0 l 5 0 l 0 -5 l -5 0 l 0 5 l -5 0 l 0 -5 l -5 0 l 5 0 l 0 -5 l 5 0 l 0 -5 l -5 0 l 5 0 l 0 5 l 0 -5 l 0 -5 l 0 -5 l 0 -5 l 0 5 l 0 5 l 5 0 l 5 0 l 0 -5 l 0 5 l 5 0 l 0 5 l -5 0 l 5 0 l 0 -5 l 0 5 l -5 0 l 0 5 l -5 0 l 5 0 l 5 0 l -5 0 l -5 0 l 0 -5 l 5 0 l 0 -5 l 0 5 l 0 5 l 5 0 l 0 5 l -5 0 l 0 5 l 0 5 l 0 5 l 0 5 l -5 0 l 5 0 l 0 5 l 0 -5 l -5 0 l 0 -5 l 0 -5 l -5 0 l -5 0 l 0 -5 l 0 5 l 0 -5 l 5 0 l 0 -5 l 5 0 l 0 5 l 5 0 l 5 0 l -5 0 l 0 5 l 5 0 l -5 0 l -5 0 l -5 0 l 5 0 l -5 0 l 0 5 l 5 0 l 5 0 l 5 0 l 5 0 l -5 0 l 0 5 l 0 -5 l -5 0 l 0 -5 l -5 0 l 0 5 l -5 0 l 5 0 l 0 5 l 0 5 l 0 -5 l 0 5 l 0 -5 l -5 0 l 0 -5 l 0 -5 l -5 0 l 0 -5 l 5 0 l 0 -5 l 0 5 l 0 5 l 0 -5 l -5 0 l -5 0 l 0 5 l 5 0 l 0 5 l -5 0 l 5 0 l 5 0 l -5 0 l 0 -5 l 5 0 l 0 -5 l -5 0 l 5 0 l -5 0 l 0 5 l 5 0 l 0 5 l -5 0 l -5 0 l 0 -5 l -5 0 l -5 0 l 5 0 l 0 -5 l 0 -5 l -5 0 l 0 -5 l -5 0 l 5 0 l 0 -5 l -5 0 l 0 5 l 0 -5 l 0 -5 l 0 5 l 5 0 l 0 -5 l 5 0 l -5 0 l 0 5 l 5 0 l 0 5 l 0 -5 l 0 -5 l 0 5 l 0 5 l 5 0 l 0 5 l 0 5 l -5 0 l -5 0 l 5 0 l -5 0 l 0 -5 l 0 5 l 0 -5 l 0 -5 l 5 0 l 0 -5 l 5 0 l 5 0 l 0 -5 l 0 -5 l 0 5 l 0 -5 l 0 5 l -5 0 l 5 0 l -5 0 l -5 0 l 0 -5 l 5 0 l 5 0 l 5 0 l 0 5 l 0 -5 l 0 -5 l 5 0 l 5 0 l 0 -5 l -5 0 l 5 0 l 0 -5 l 5 0 l 5 0 l 5 0 l -5 0 l 0 5 l 0 5 l 0 5 l -5 0 l 5 0 l 0 5 l 0 -5 l 0 -5 l 5 0 l 0 5 l 0 -5 l 5 0 l 0 -5 l -5 0 l 0 -5 l 0 5 l 0 -5 l 5 0 l -5 0 l 5 0 l 5 0 l 0 -5 l -5 0 l 5 0 l -5 0 l 0 5 l 0 -5 l 0 -5 l 0 5 l 5 0 l -5 0 l 0 5 l -5 0 l 0 5 l -5 0 l 0 -5 l -5 0 l 5 0 l 0 -5 l 5 0 l -5 0 l 0 -5 l -5 0 l 0 -5 l 0 -5 l -5 0 l 0 5 l 0 5 l 0 5 l -5 0 l -5 0 l 0 -5 l 5 0 l 0 5 l -5 0 l 0 -5 l 5 0 l -5 0 l 0 -5 l 0 5 l -5 0 l 5 0 l 0 5 l 0 5 l 0 5 l 5 0 l 5 0 l 5 0 l 5 0 l 0 -5 l 0 5 l 0 5 l 0 -5 l 0 5 l 5 0 l -5 0 l -5 0 l 0 5 l 0 -5 l 0 -5 l 0 5 l 0 5 l 5 0 l 0 -5 l 5 0 l 0 5 l 0 -5 l 5 0 l 0 -5 l 0 5 l 0 -5 l 0 -5 l 0 5 l 0 5 l 0 -5 l 5 0 l 0 -5 l 5 0 l 5 0 l 0 5 l 0 5 l 0 -5 l -5 0 l 5 0 l 0 -5 l 5 0 l 5 0 l -5 0 l 0 5 l 0 5 l -5 0 l 5 0 l -5 0 l -5 0 l 5 0 l 5 0 l 5 0 l 0 5 l 0 5 l 0 5 l 0 -5 l 5 0 l 0 -5 l 0 -5 l 0 -5 l 0 -5 l -5 0 l 0 5 l 0 5 l 0 5 l 0 5 l 5 0 l 5 0 l 0 -5 l 0 5 l -5 0 l 5 0 l 5 0 l 5 0 l 0 5 l -5 0 l -5 0 l 0 5 l 0 5 l -5 0 l 5 0 l 0 -5 l -5 0 l 0 5 l 0 5 l 0 -5 l 0 5 l 0 -5 l 0 -5 l -5 0 l 0 -5 l -5 0 l 0 -5 l 0 -5 l 5 0 l 0 5 l -5 0 l 5 0 l 5 0 l 5 0 l 0 5 l -5 0 l 5 0 l 5 0 l 0 5 l 0 -5 l 5 0 l 5 0 l 5 0 l 0 5 l -5 0 l 5 0 l 0 -5 l 0 -5 l 5 0 l 5 0 l 0 -5 l -5 0 l 0 -5 l 0 -5 l 0 -5 l -5 0 l -5 0 l -5 0 l 5 0 l 5 0 l -5 0 l 0 -5 l -5 0 l 0 -5 l 0 5 l 0 -5 l -5 0 l -5 0 l 0 -5 l 0 -5 l -5 0 l 0 -5 l 0 5 l -5 0 l 0 -5 l -5 0 l -5 0 l 0 5 l 5 0 l -5 0 l 0 -5 l -5 0 l 5 0 l 0 5 l 5 0 l 0 -5 l -5 0 l 0 -5 l 5 0 l 0 5 l 0 -5 l -5 0 l 5 0 l 0 -5 l 0 -5 l 0 -5 l 5 0 l 5 0 l 0 -5 l 0 -5 l 0 -5 l 5 0 l -5 0 l -5 0 l 0 5 l 0 5 l 0 -5 l 5 0 l -5 0 l 0 5 l 0 -5 l 5 0 l 0 5 l -5 0 l 5 0 l 0 -5 l 5 0 l 0 5 l 5 0 l 0 -5 l 5 0 l 0 -5 l 5 0 l -5 0 l -5 0 l 0 -5 l 0 5 l 5 0 l 0 5 l 0 -5 l 0 5 l 0 5 l 0 -5 l 0 -5 l 0 -5 l 5 0 l -5 0 l 5 0 l 0 -5 l 0 -5 l 0 5 l 0 -5 l 0 -5 l -5 0 l 0 -5 l -5 0 l 5 0 l -5 0 l 5 0 l 0 -5 l 5 0 l 0 -5 l -5 0 l 0 5 l 0 -5 l -5 0 l 0 -5 l 0 -5 l 0 -5 l -5 0 l 0 5 l 0 -5 l 0 5 l 5 0 l -5 0 l 0 5 l -5 0 l -5 0 l 0 5 l 0 5 l 5 0 l 5 0 l 5 0 l 0 -5 l 0 5 l 0 -5 l 0 5 l 0 5 l 0 5 l -5 0 l -5 0 l 0 -5 l 0 5 l -5 0 l 0 5 l 0 5 l 0 -5 l 0 -5 l -5 0 l 5 0 l -5 0 l 0 -5 l 0 -5 l -5 0 l -5 0 l 5 0 l 0 -5 l -5 0 l 0 5 l 0 -5 l 0 5 l 0 5 l 5 0 l 5 0 l -5 0 l 0 5 l 0 -5 l -5 0 l 0 5 l 0 -5 l 0 -5 l 0 5 l 0 -5 l 0 5 l 5 0 l 0 -5 l -5 0 l 0 5 l 0 5 l 0 5 l -5 0 l 0 5 l 5 0"></path><path fill="rgba(30.84%,21.2%,55.68%,0.5)" d="M 290 205 l 0 -5 l -5 0 l 0 -5 l 0 5 l 0 5 l 0 -5 l 5 0 l 5 0 l -5 0 l 0 5 l 5 0 l -5 0 l 0 -5 l -5 0 l 0 -5 l 0 5 l -5 0 l 0 -5 l 0 -5 l -5 0 l 0 5 l 5 0 l 5 0 l -5 0 l 0 5 l 0 5 l 0 -5 l 0 5 l 5 0 l 0 5 l 5 0 l 0 -5 l -5 0 l 0 -5 l 0 -5 l 0 -5 l 0 -5 l 0 -5 l 5 0 l -5 0 l 0 5 l 0 5 l -5 0 l 0 5 l 0 5 l -5 0 l 5 0 l 5 0 l 5 0 l 0 -5 l 5 0 l 0 -5 l 0 -5 l 0 5 l 0 -5 l -5 0 l 0 5 l 0 5 l 0 -5 l 0 -5 l -5 0 l 5 0 l 5 0 l -5 0 l 5 0 l 0 5 l -5 0 l -5 0 l 0 5 l 0 5 l 5 0 l 0 5 l 0 -5 l 0 -5 l 0 -5 l 5 0 l 0 5 l 0 5 l 0 5 l -5 0 l 0 5 l -5 0 l 5 0 l 0 5 l -5 0 l 0 5 l 5 0 l 0 5 l 5 0 l 0 5 l 0 5 l -5 0 l 0 -5 l 0 -5 l -5 0 l 0 -5 l 0 -5 l 5 0 l -5 0 l 0 -5 l 5 0 l 0 5 l 0 5 l -5 0 l 0 5 l 5 0 l 0 -5 l 0 -5 l 0 5 l -5 0 l 0 -5 l -5 0 l 0 5 l 0 -5 l 5 0 l 5 0 l -5 0 l 5 0 l 0 5 l -5 0 l 0 5 l 5 0 l 5 0 l 5 0 l -5 0 l 0 5 l -5 0 l -5 0 l -5 0 l 0 5 l 0 -5 l 5 0 l 0 5 l 0 5 l 0 5 l 5 0 l 0 5 l 0 -5 l 0 5 l 0 -5 l -5 0 l 0 -5 l -5 0 l 0 -5 l 5 0 l -5 0 l 5 0 l -5 0 l 5 0 l 0 -5 l 0 -5 l -5 0 l 0 5 l 0 5 l 5 0 l -5 0 l 0 5 l 5 0 l -5 0 l 5 0 l 0 5 l -5 0 l 0 5 l 0 -5 l 5 0 l -5 0 l 0 5 l -5 0 l 0 5 l 0 -5 l 0 5 l 0 5 l 0 5 l 0 -5 l 0 -5 l -5 0 l 0 5 l 0 5 l -5 0 l 0 5 l -5 0 l 5 0 l 5 0 l 0 -5 l -5 0 l -5 0 l 5 0 l -5 0 l 0 5 l -5 0 l -5 0 l 0 -5 l 0 5 l 5 0 l -5 0 l 0 -5 l -5 0 l 0 -5 l 0 5 l 0 5 l -5 0 l 0 5 l 5 0 l 5 0 l 5 0 l 5 0 l 0 -5 l 0 -5 l 0 5 l 0 -5 l 5 0 l 0 5 l 0 -5 l 5 0 l -5 0 l 0 5 l 0 -5 l 5 0 l 0 5 l 5 0 l 0 5 l 0 5 l -5 0 l 0 5 l 0 5 l 0 -5 l 0 -5 l 0 -5 l 5 0 l 0 5 l 5 0 l 0 -5 l 5 0 l 5 0 l 5 0 l 5 0 l 0 -5 l -5 0 l 0 -5 l 0 5 l 0 5 l 5 0 l 0 -5 l 5 0 l 5 0 l 0 5 l -5 0 l 0 -5 l 0 -5 l -5 0 l 0 -5 l 0 -5 l -5 0 l 0 5 l 0 -5 l 0 -5 l 5 0 l 0 -5 l 0 -5 l -5 0 l 5 0 l 0 5 l 5 0 l 5 0 l -5 0 l -5 0 l 5 0 l -5 0 l 5 0 l 0 -5 l 0 5 l 0 -5 l 5 0 l 0 5 l 0 -5 l 0 5 l 5 0 l -5 0 l 0 -5 l 0 5 l -5 0 l 0 -5 l -5 0 l 0 5 l 0 -5 l 5 0 l 5 0 l -5 0 l -5 0 l -5 0 l 0 5 l 0 -5 l -5 0 l 5 0 l 0 -5 l 0 5 l 0 -5 l 0 5 l -5 0 l -5 0 l 0 -5 l 0 5 l 0 -5 l 5 0 l 5 0 l 0 -5 l 5 0 l 0 5 l 0 -5 l 0 -5 l 0 5 l 0 -5 l 0 5 l 5 0 l 5 0 l 0 5 l 5 0 l 0 -5 l 0 -5 l 5 0 l -5 0 l -5 0 l 0 5 l 0 -5 l 0 -5 l 0 -5 l -5 0 l 0 -5 l -5 0 l 0 5 l 0 -5 l 0 5 l 0 -5 l 0 -5 l 0 5 l -5 0 l 0 -5 l 0 -5 l 0 5 l -5 0 l 0 5 l 0 -5 l 5 0 l -5 0 l 0 -5 l 0 -5 l 0 -5 l 0 -5 l -5 0 l 0 5 l -5 0 l 5 0 l 0 5 l 5 0 l 0 5 l -5 0 l -5 0 l -5 0 l 0 5 l 0 5 l 0 5 l 5 0 l 5 0 l -5 0 l -5 0 l -5 0 l 5 0 l 0 -5 l 0 5 l 5 0 l 0 -5 l 0 5 l 0 -5 l -5 0 l 0 -5 l 5 0 l 5 0 l -5 0 l 5 0 l 0 -5 l 5 0 l 0 -5 l -5 0 l 0 -5 l 5 0 l 0 5 l 0 5 l 5 0 l 0 -5 l 0 5 l 0 5 l 5 0 l 0 5 l 0 5 l 0 -5 l -5 0 l 5 0 l -5 0 l -5 0 l 0 5 l 0 -5 l 0 -5"></path><path fill="rgba(100%,27.79%,0%,0.5)" d="M 315 445 l 5 0 l 0 -5 l 0 -5 l 0 5 l 0 -5 l -5 0 l 0 -5 l 5 0 l -5 0 l -5 0 l 0 -5 l 0 5 l 0 5 l 5 0 l -5 0 l 0 5 l 5 0 l -5 0 l 0 5 l 5 0 l -5 0 l 0 5 l 0 -5 l -5 0 l 0 5 l 0 -5 l 5 0 l 5 0 l 0 -5 l 5 0 l -5 0 l 0 5 l 0 5 l 0 5 l -5 0 l 0 -5 l -5 0 l 0 5 l -5 0 l 0 -5 l 0 -5 l 0 -5 l 0 5 l -5 0 l -5 0 l -5 0 l 5 0 l 0 -5 l 5 0 l 0 -5 l -5 0 l 0 -5 l 5 0 l 5 0 l 0 -5 l 5 0 l -5 0 l 0 5 l 0 5 l 0 5 l -5 0 l 0 -5 l 5 0 l 5 0 l 0 -5 l -5 0 l -5 0 l -5 0 l 5 0 l 5 0 l 0 -5 l 0 5 l -5 0 l 0 -5 l 0 -5 l -5 0 l 0 5 l 0 5 l -5 0 l -5 0 l -5 0 l 0 5 l -5 0 l 5 0 l 0 5 l 5 0 l 0 -5 l 0 5 l 5 0 l -5 0 l 0 5 l 5 0 l 5 0 l 0 5 l -5 0 l -5 0 l 0 -5 l 0 5 l 5 0 l 0 -5 l 0 -5 l 0 -5 l -5 0 l 0 -5 l -5 0 l 5 0 l 0 -5 l -5 0 l 0 5 l 5 0 l -5 0 l 5 0 l 0 -5 l 0 -5 l 5 0 l 5 0 l 0 -5 l 0 5 l 0 -5 l 0 5 l 0 -5 l -5 0 l 0 -5 l -5 0 l -5 0 l 0 5 l 0 -5 l 5 0 l 0 5 l -5 0 l 0 5 l 5 0 l 0 5 l 0 5 l 0 -5 l 0 5 l 0 -5 l 5 0 l 0 -5 l -5 0 l 0 5 l 0 5 l 5 0 l 5 0 l 5 0 l 0 5 l 5 0 l 0 -5 l 0 5 l 0 -5 l 5 0 l 0 5 l 0 5 l 5 0 l 0 -5 l 5 0 l 0 -5 l 5 0 l -5 0 l 5 0 l 0 -5 l 0 5 l 0 5 l 0 5 l 0 -5 l 0 5 l 0 -5 l 0 -5 l 0 5 l -5 0 l 0 -5 l 0 5 l 0 -5 l 5 0 l 0 5 l 5 0 l 5 0 l 0 -5 l -5 0 l 5 0 l 0 5 l -5 0 l 5 0 l 5 0 l 0 5 l 5 0 l -5 0 l 0 -5 l 5 0 l 0 5 l 0 -5 l -5 0 l -5 0 l 0 -5 l 0 -5 l 0 -5 l -5 0 l 0 5 l 0 5 l -5 0 l 0 -5 l 0 -5 l -5 0 l -5 0 l 0 5 l 0 -5 l -5 0 l 0 -5 l -5 0 l 0 5 l 0 5 l 0 5 l 5 0 l 0 5 l 0 5 l 0 -5 l 5 0 l 0 -5 l 5 0 l 0 5 l 5 0 l 0 -5 l 5 0 l -5 0 l -5 0 l -5 0 l -5 0 l 0 5 l 0 -5 l 5 0 l 0 -5 l 0 5 l 5 0 l 0 5 l 0 -5 l 0 5 l -5 0 l -5 0 l 0 -5 l 0 -5 l 0 5 l -5 0 l -5 0 l 5 0 l 0 5 l 0 5 l 5 0 l 5 0 l 0 5 l -5 0 l 0 5 l 0 5 l -5 0 l 5 0 l 0 5 l 0 -5 l 5 0 l 0 -5 l 0 -5 l 5 0 l 5 0 l -5 0 l -5 0 l 0 5 l 5 0 l 5 0 l 5 0 l 0 -5 l 0 5 l -5 0 l 5 0 l 5 0 l 0 -5 l 0 -5 l -5 0 l 0 5 l 5 0 l 5 0 l 0 -5 l 0 5 l 0 -5 l 5 0 l 0 5 l 0 -5 l 0 -5 l -5 0 l 0 5 l 0 -5 l 0 5 l -5 0 l 0 5 l 0 5 l 0 -5 l 0 -5 l -5 0 l 5 0 l 5 0 l -5 0 l 0 5 l 5 0 l -5 0 l -5 0 l 0 5 l 5 0 l -5 0 l 5 0 l 0 -5 l 5 0 l 5 0 l 0 5 l 0 5 l 0 5 l 0 -5 l 5 0 l 5 0 l 0 5 l 0 -5 l 0 5 l 5 0 l 5 0 l 0 -5 l 5 0 l -5 0 l 5 0 l 5 0 l 5 0 l 0 -5 l -5 0 l 0 5 l 0 -5 l -5 0 l 0 -5 l 0 -5 l 0 5 l 0 5 l 0 5 l 5 0 l 0 5 l 0 -5 l 0 -5 l 5 0 l -5 0 l 5 0 l -5 0 l 0 5 l -5 0 l -5 0 l -5 0 l -5 0 l 0 -5 l 0 -5 l -5 0 l 5 0 l -5 0 l 0 -5 l 0 -5 l -5 0 l 0 -5 l 0 -5 l 0 5 l 0 -5 l 0 5 l 5 0 l 0 -5 l 0 -5 l -5 0 l 5 0 l 5 0 l -5 0 l -5 0 l 0 -5 l 0 5 l 5 0 l 5 0 l 5 0 l 0 5 l 0 5 l 0 5 l -5 0 l 0 -5 l 0 5 l 0 -5 l 0 5 l 0 5 l 0 5 l 5 0 l -5 0 l 5 0 l 5 0 l 5 0 l -5 0 l -5 0 l 0 -5 l -5 0 l 0 5 l 0 5 l 0 -5 l -5 0 l 5 0 l -5 0 l 5 0 l 5 0 l 5 0 l 0 5 l -5 0 l 0 5 l -5 0 l -5 0 l 5 0 l 0 5 l 0 5 l 0 -5 l 0 5 l 0 5 l 0 5 l 5 0 l 0 -5 l 0 5 l 5 0 l -5 0 l -5 0 l 0 -5 l 0 -5 l 5 0 l 5 0 l -5 0 l 5 0 l 0 -5 l 0 -5 l 0 5 l -5 0 l 0 5 l -5 0 l 0 5 l 5 0 l 0 5 l -5 0 l 0 5 l 0 5 l 0 -5 l 5 0 l 0 5 l -5 0 l 5 0 l 5 0 l 5 0 l 5 0 l 5 0 l -5 0 l -5 0 l 0 -5 l 5 0 l 0 -5 l 0 -5 l 5 0 l 5 0 l 0 5 l 0 -5 l 5 0 l 0 5 l 5 0 l 5 0 l 0 -5 l -5 0 l 0 5 l 0 -5 l 5 0 l 0 -5 l 0 -5 l -5 0 l 0 5 l -5 0 l 0 5 l -5 0 l 0 5 l -5 0 l -5 0 l -5 0 l 0 -5 l 0 5 l -5 0 l 5 0 l 0 -5 l -5 0 l 0 5 l -5 0 l 0 -5 l -5 0 l 0 -5 l -5 0 l -5 0 l 0 5 l 5 0 l 0 5 l 0 5 l 0 -5 l 5 0 l 0 -5 l 0 5 l 5 0 l 0 -5 l 5 0 l 0 5 l -5 0 l 5 0 l 0 -5 l 5 0 l -5 0 l 5 0 l -5 0 l -5 0 l 0 5 l -5 0 l -5 0 l 5 0 l 0 -5 l -5 0 l 0 5 l -5 0 l -5 0 l 0 5 l -5 0 l 5 0 l 0 5 l -5 0 l -5 0 l -5 0 l 0 -5 l 0 -5 l 0 5 l 0 -5 l 0 -5 l -5 0 l -5 0 l -5 0 l 5 0 l 5 0 l -5 0 l -5 0 l -5 0 l 0 -5 l -5 0 l 5 0 l -5 0 l 0 -5 l -5 0 l -5 0 l -5 0 l 5 0 l 5 0 l 0 5 l 5 0 l 0 5 l -5 0 l 0 5 l -5 0 l 5 0 l 5 0 l -5 0 l 5 0 l 5 0 l 5 0 l -5 0 l 0 5 l 5 0 l 0 -5 l 0 5 l 0 5 l 0 -5 l 5 0 l 5 0 l 5 0 l 5 0 l 0 -5 l 5 0 l -5 0 l -5 0 l 0 -5 l 0 5 l -5 0 l 5 0 l 0 5 l 0 5 l 5 0 l 0 5 l 0 5 l 5 0 l 0 5 l -5 0 l 0 5 l 0 5 l 5 0 l 5 0 l 0 5 l -5 0 l 0 -5 l 0 -5 l 5 0 l -5 0 l 5 0 l 0 -5 l -5 0 l 0 -5 l 5 0 l 0 -5 l -5 0 l 0 5 l 5 0 l 0 -5 l 0 -5 l 5 0 l -5 0 l -5 0 l 0 -5 l -5 0 l 0 -5 l 5 0 l 5 0 l 0 -5 l 0 5 l -5 0 l 0 5 l 5 0 l 0 5 l 0 -5 l 5 0 l -5 0 l 5 0 l -5 0 l 0 5 l 0 -5 l 0 -5 l -5 0 l 5 0 l 5 0 l -5 0 l -5 0 l 0 5 l -5 0 l 0 -5 l 0 5 l 5 0 l 0 5 l 0 5 l 5 0 l 0 -5 l 0 5 l 0 5 l 0 -5 l 0 5 l 0 5 l -5 0 l -5 0 l 0 -5 l 0 -5 l 5 0 l -5 0 l 5 0 l 0 5 l 5 0 l 0 -5 l -5 0 l 5 0 l -5 0 l 0 -5 l 0 -5 l 0 -5 l 0 5 l -5 0 l -5 0 l 5 0 l -5 0 l 0 5 l 5 0 l 5 0 l -5 0 l 0 -5 l 0 5 l 5 0 l -5 0 l 0 -5 l 0 -5 l 0 -5 l -5 0 l 5 0 l -5 0 l 0 -5 l 0 -5 l -5 0 l 5 0 l 0 5 l 0 -5 l -5 0 l 0 -5 l -5 0 l -5 0 l -5 0 l 0 5 l 5 0 l 5 0 l -5 0 l -5 0 l 5 0 l 0 -5 l 0 -5 l 0 5 l 0 -5 l 0 -5 l 0 5 l 5 0 l 0 -5 l -5 0 l 5 0 l 0 -5 l -5 0 l 0 -5 l -5 0 l 0 5 l 0 -5 l 0 -5 l -5 0 l -5 0 l 0 -5 l 0 5 l 0 -5 l 0 -5 l -5 0 l 0 5 l 0 -5 l 0 -5 l -5 0 l 5 0 l -5 0 l 5 0 l 5 0 l 0 -5 l 0 -5 l 0 5 l 0 -5 l -5 0 l 0 -5 l -5 0 l 0 -5 l 0 5 l 0 5 l -5 0 l 0 5 l 0 5 l 0 -5 l -5 0 l 5 0 l 0 5 l 0 -5 l 5 0 l 0 5 l 0 5 l 0 5 l 0 5 l -5 0 l 0 5 l 0 -5 l 5 0 l -5 0 l 0 5 l -5 0 l 5 0 l -5 0 l 0 5 l 0 -5 l 0 5 l 0 -5 l 0 -5 l -5 0 l -5 0 l 0 -5 l 0 5 l -5 0 l 0 -5 l 0 5 l 0 5 l 0 5 l 5 0 l -5 0 l -5 0 l 0 -5 l 5 0 l 5 0 l 0 -5 l 0 -5 l -5 0 l -5 0 l -5 0 l -5 0 l 0 -5 l 0 -5 l 5 0 l 5 0 l 0 -5 l 0 5 l 0 -5 l -5 0 l 0 5 l 0 -5 l 0 -5 l 0 5 l 5 0 l 0 5 l 5 0 l -5 0 l 5 0 l 5 0 l 0 -5 l 0 -5 l 5 0 l 0 -5 l 0 5 l 5 0 l -5 0 l 0 5 l 0 -5 l 0 -5 l 0 -5 l 5 0 l 0 5 l -5 0 l 5 0 l 0 5 l -5 0 l -5 0 l -5 0 l -5 0 l -5 0 l -5 0 l 0 5 l 0 -5 l 5 0 l 5 0 l -5 0 l -5 0 l 5 0 l -5 0 l 0 5 l -5 0 l 5 0 l 5 0 l 5 0 l 0 -5 l 0 5 l 0 5 l 0 -5 l 5 0 l 0 5 l -5 0 l 0 -5 l -5 0 l 5 0 l 5 0 l 0 5 l 0 5 l 0 5 l 0 5 l 0 -5 l -5 0 l 0 -5 l 0 5 l -5 0 l 0 5 l 0 -5 l 0 5 l 0 -5 l -5 0 l 0 5 l 5 0 l -5 0 l 5 0 l 5 0 l 0 -5 l 0 5 l -5 0 l 0 -5 l 5 0 l -5 0 l 5 0 l 0 5 l 5 0 l 0 5 l -5 0 l 5 0 l 5 0 l 5 0 l 5 0 l 5 0 l 0 -5 l 0 5 l 0 -5 l 0 5 l 5 0 l 0 5 l 5 0 l 0 -5 l 0 -5 l 5 0 l 5 0 l 0 5 l 5 0 l 0 5 l 5 0 l 5 0 l 0 5 l 5 0"></path></svg>