<?xml version="1.0" standalone="no"?>
<svg xmlns:xlink="http://www.w3.org/1999/xlink" xmlns="http://www.w3.org/2000/svg" width="500" height="500"><g><g><polygon points="47.835270731810546,0 95.67054146362109,63.716728880818955 47.835270731810546,127.43345776163791 0,63.716728880818955" fill="rgba(88.48%,56.64%,71.08%,1)" transform="translate(-36.391481446327255, -108.57350496002167)"></polygon><polygon points="47.835270731810546,0 95.67054146362109,63.716728880818955 47.835270731810546,127.43345776163791 0,63.716728880818955" fill="rgba(50.6%,28.19%,64.6%,1)" transform="translate(59.27906001729384, -108.57350496002167)"></polygon><polygon points="47.835270731810546,0 95.67054146362109,63.716728880818955 47.835270731810546,127.43345776163791 0,63.716728880818955" fill="rgba(88.48%,56.64%,71.08%,1)" transform="translate(154.94960148091494, -108.57350496002167)"></polygon><polygon points="47.835270731810546,0 95.67054146362109,63.716728880818955 47.835270731810546,127.43345776163791 0,63.716728880818955" fill="rgba(50.6%,28.19%,64.6%,1)" transform="translate(250.62014294453604, -108.57350496002167)"></polygon><polygon points="47.835270731810546,0 95.67054146362109,63.716728880818955 47.835270731810546,127.43345776163791 0,63.716728880818955" fill="rgba(88.48%,56.64%,71.08%,1)" transform="translate(346.2906844081571, -108.57350496002167)"></polygon><polygon points="47.835270731810546,0 95.67054146362109,63.716728880818955 47.835270731810546,127.43345776163791 0,63.716728880818955" fill="rgba(50.6%,28.19%,64.6%,1)" transform="translate(441.9612258717782, -108.57350496002167)"></polygon><polygon points="47.835270731810546,0 95.67054146362109,63.716728880818955 47.835270731810546,127.43345776163791 0,63.716728880818955" fill="rgba(88.48%,56.64%,71.08%,1)" transform="translate(537.6317673353993, -108.57350496002167)"></polygon><polygon points="47.835270731810546,0 95.67054146362109,63.716728880818955 47.835270731810546,127.43345776163791 0,63.716728880818955" fill="rgba(50.6%,28.19%,64.6%,1)" transform="translate(633.3023087990204, -108.57350496002167)"></polygon><polygon points="47.835270731810546,0 95.67054146362109,63.716728880818955 47.835270731810546,127.43345776163791 0,63.716728880818955" fill="rgba(88.48%,56.64%,71.08%,1)" transform="translate(728.9728502626415, -108.57350496002167)"></polygon><polygon points="47.835270731810546,0 95.67054146362109,63.716728880818955 47.835270731810546,127.43345776163791 0,63.716728880818955" fill="rgba(95.68%,99.58%,99.1%,1)" transform="translate(-84.2267521781378, -44.85677607920272)"></polygon><polygon points="47.835270731810546,0 95.67054146362109,63.716728880818955 47.835270731810546,127.43345776163791 0,63.716728880818955" fill="rgba(95.68%,99.58%,99.1%,1)" transform="translate(11.443789285483291, -44.85677607920272)"></polygon><polygon points="47.835270731810546,0 95.67054146362109,63.716728880818955 47.835270731810546,127.43345776163791 0,63.716728880818955" fill="rgba(95.68%,99.58%,99.1%,1)" transform="translate(107.1143307491044, -44.85677607920272)"></polygon><polygon points="47.835270731810546,0 95.67054146362109,63.716728880818955 47.835270731810546,127.43345776163791 0,63.716728880818955" fill="rgba(95.68%,99.58%,99.1%,1)" transform="translate(202.78487221272547, -44.85677607920272)"></polygon><polygon points="47.835270731810546,0 95.67054146362109,63.716728880818955 47.835270731810546,127.43345776163791 0,63.716728880818955" fill="rgba(95.68%,99.58%,99.1%,1)" transform="translate(298.45541367634655, -44.85677607920272)"></polygon><polygon points="47.835270731810546,0 95.67054146362109,63.716728880818955 47.835270731810546,127.43345776163791 0,63.716728880818955" fill="rgba(95.68%,99.58%,99.1%,1)" transform="translate(394.1259551399677, -44.85677607920272)"></polygon><polygon points="47.835270731810546,0 95.67054146362109,63.716728880818955 47.835270731810546,127.43345776163791 0,63.716728880818955" fill="rgba(95.68%,99.58%,99.1%,1)" transform="translate(489.7964966035887, -44.85677607920272)"></polygon><polygon points="47.835270731810546,0 95.67054146362109,63.716728880818955 47.835270731810546,127.43345776163791 0,63.716728880818955" fill="rgba(95.68%,99.58%,99.1%,1)" transform="translate(585.4670380672098, -44.85677607920272)"></polygon><polygon points="47.835270731810546,0 95.67054146362109,63.716728880818955 47.835270731810546,127.43345776163791 0,63.716728880818955" fill="rgba(95.68%,99.58%,99.1%,1)" transform="translate(681.137579530831, -44.85677607920272)"></polygon><polygon points="47.835270731810546,0 95.67054146362109,63.716728880818955 47.835270731810546,127.43345776163791 0,63.716728880818955" fill="rgba(50.6%,28.19%,64.6%,1)" transform="translate(-36.391481446327255, 18.859952801616238)"></polygon><polygon points="47.835270731810546,0 95.67054146362109,63.716728880818955 47.835270731810546,127.43345776163791 0,63.716728880818955" fill="rgba(88.48%,56.64%,71.08%,1)" transform="translate(59.27906001729384, 18.859952801616238)"></polygon><polygon points="47.835270731810546,0 95.67054146362109,63.716728880818955 47.835270731810546,127.43345776163791 0,63.716728880818955" fill="rgba(50.6%,28.19%,64.6%,1)" transform="translate(154.94960148091494, 18.859952801616238)"></polygon><polygon points="47.835270731810546,0 95.67054146362109,63.716728880818955 47.835270731810546,127.43345776163791 0,63.716728880818955" fill="rgba(88.48%,56.64%,71.08%,1)" transform="translate(250.62014294453604, 18.859952801616238)"></polygon><polygon points="47.835270731810546,0 95.67054146362109,63.716728880818955 47.835270731810546,127.43345776163791 0,63.716728880818955" fill="rgba(50.6%,28.19%,64.6%,1)" transform="translate(346.2906844081571, 18.859952801616238)"></polygon><polygon points="47.835270731810546,0 95.67054146362109,63.716728880818955 47.835270731810546,127.43345776163791 0,63.716728880818955" fill="rgba(88.48%,56.64%,71.08%,1)" transform="translate(441.9612258717782, 18.859952801616238)"></polygon><polygon points="47.835270731810546,0 95.67054146362109,63.716728880818955 47.835270731810546,127.43345776163791 0,63.716728880818955" fill="rgba(50.6%,28.19%,64.6%,1)" transform="translate(537.6317673353993, 18.859952801616238)"></polygon><polygon points="47.835270731810546,0 95.67054146362109,63.716728880818955 47.835270731810546,127.43345776163791 0,63.716728880818955" fill="rgba(88.48%,56.64%,71.08%,1)" transform="translate(633.3023087990204, 18.859952801616238)"></polygon><polygon points="47.835270731810546,0 95.67054146362109,63.716728880818955 47.835270731810546,127.43345776163791 0,63.716728880818955" fill="rgba(50.6%,28.19%,64.6%,1)" transform="translate(728.9728502626415, 18.859952801616238)"></polygon><polygon points="47.835270731810546,0 95.67054146362109,63.716728880818955 47.835270731810546,127.43345776163791 0,63.716728880818955" fill="rgba(95.68%,99.58%,99.1%,1)" transform="translate(-84.2267521781378, 82.5766816824352)"></polygon><polygon points="47.835270731810546,0 95.67054146362109,63.716728880818955 47.835270731810546,127.43345776163791 0,63.716728880818955" fill="rgba(95.68%,99.58%,99.1%,1)" transform="translate(11.443789285483291, 82.5766816824352)"></polygon><polygon points="47.835270731810546,0 95.67054146362109,63.716728880818955 47.835270731810546,127.43345776163791 0,63.716728880818955" fill="rgba(95.68%,99.58%,99.1%,1)" transform="translate(107.1143307491044, 82.5766816824352)"></polygon><polygon points="47.835270731810546,0 95.67054146362109,63.716728880818955 47.835270731810546,127.43345776163791 0,63.716728880818955" fill="rgba(95.68%,99.58%,99.1%,1)" transform="translate(202.78487221272547, 82.5766816824352)"></polygon><polygon points="47.835270731810546,0 95.67054146362109,63.716728880818955 47.835270731810546,127.43345776163791 0,63.716728880818955" fill="rgba(95.68%,99.58%,99.1%,1)" transform="translate(298.45541367634655, 82.5766816824352)"></polygon><polygon points="47.835270731810546,0 95.67054146362109,63.716728880818955 47.835270731810546,127.43345776163791 0,63.716728880818955" fill="rgba(95.68%,99.58%,99.1%,1)" transform="translate(394.1259551399677, 82.5766816824352)"></polygon><polygon points="47.835270731810546,0 95.67054146362109,63.716728880818955 47.835270731810546,127.43345776163791 0,63.716728880818955" fill="rgba(95.68%,99.58%,99.1%,1)" transform="translate(489.7964966035887, 82.5766816824352)"></polygon><polygon points="47.835270731810546,0 95.67054146362109,63.716728880818955 47.835270731810546,127.43345776163791 0,63.716728880818955" fill="rgba(95.68%,99.58%,99.1%,1)" transform="translate(585.4670380672098, 82.5766816824352)"></polygon><polygon points="47.835270731810546,0 95.67054146362109,63.716728880818955 47.835270731810546,127.43345776163791 0,63.716728880818955" fill="rgba(95.68%,99.58%,99.1%,1)" transform="translate(681.137579530831, 82.5766816824352)"></polygon><polygon points="47.835270731810546,0 95.67054146362109,63.716728880818955 47.835270731810546,127.43345776163791 0,63.716728880818955" fill="rgba(88.48%,56.64%,71.08%,1)" transform="translate(-36.391481446327255, 146.29341056325416)"></polygon><polygon points="47.835270731810546,0 95.67054146362109,63.716728880818955 47.835270731810546,127.43345776163791 0,63.716728880818955" fill="rgba(50.6%,28.19%,64.6%,1)" transform="translate(59.27906001729384, 146.29341056325416)"></polygon><polygon points="47.835270731810546,0 95.67054146362109,63.716728880818955 47.835270731810546,127.43345776163791 0,63.716728880818955" fill="rgba(88.48%,56.64%,71.08%,1)" transform="translate(154.94960148091494, 146.29341056325416)"></polygon><polygon points="47.835270731810546,0 95.67054146362109,63.716728880818955 47.835270731810546,127.43345776163791 0,63.716728880818955" fill="rgba(50.6%,28.19%,64.6%,1)" transform="translate(250.62014294453604, 146.29341056325416)"></polygon><polygon points="47.835270731810546,0 95.67054146362109,63.716728880818955 47.835270731810546,127.43345776163791 0,63.716728880818955" fill="rgba(88.48%,56.64%,71.08%,1)" transform="translate(346.2906844081571, 146.29341056325416)"></polygon><polygon points="47.835270731810546,0 95.67054146362109,63.716728880818955 47.835270731810546,127.43345776163791 0,63.716728880818955" fill="rgba(50.6%,28.19%,64.6%,1)" transform="translate(441.9612258717782, 146.29341056325416)"></polygon><polygon points="47.835270731810546,0 95.67054146362109,63.716728880818955 47.835270731810546,127.43345776163791 0,63.716728880818955" fill="rgba(88.48%,56.64%,71.08%,1)" transform="translate(537.6317673353993, 146.29341056325416)"></polygon><polygon points="47.835270731810546,0 95.67054146362109,63.716728880818955 47.835270731810546,127.43345776163791 0,63.716728880818955" fill="rgba(50.6%,28.19%,64.6%,1)" transform="translate(633.3023087990204, 146.29341056325416)"></polygon><polygon points="47.835270731810546,0 95.67054146362109,63.716728880818955 47.835270731810546,127.43345776163791 0,63.716728880818955" fill="rgba(88.48%,56.64%,71.08%,1)" transform="translate(728.9728502626415, 146.29341056325416)"></polygon><polygon points="47.835270731810546,0 95.67054146362109,63.716728880818955 47.835270731810546,127.43345776163791 0,63.716728880818955" fill="rgba(95.68%,99.58%,99.1%,1)" transform="translate(-84.2267521781378, 210.0101394440731)"></polygon><polygon points="47.835270731810546,0 95.67054146362109,63.716728880818955 47.835270731810546,127.43345776163791 0,63.716728880818955" fill="rgba(95.68%,99.58%,99.1%,1)" transform="translate(11.443789285483291, 210.0101394440731)"></polygon><polygon points="47.835270731810546,0 95.67054146362109,63.716728880818955 47.835270731810546,127.43345776163791 0,63.716728880818955" fill="rgba(95.68%,99.58%,99.1%,1)" transform="translate(107.1143307491044, 210.0101394440731)"></polygon><polygon points="47.835270731810546,0 95.67054146362109,63.716728880818955 47.835270731810546,127.43345776163791 0,63.716728880818955" fill="rgba(95.68%,99.58%,99.1%,1)" transform="translate(202.78487221272547, 210.0101394440731)"></polygon><polygon points="47.835270731810546,0 95.67054146362109,63.716728880818955 47.835270731810546,127.43345776163791 0,63.716728880818955" fill="rgba(95.68%,99.58%,99.1%,1)" transform="translate(298.45541367634655, 210.0101394440731)"></polygon><polygon points="47.835270731810546,0 95.67054146362109,63.716728880818955 47.835270731810546,127.43345776163791 0,63.716728880818955" fill="rgba(95.68%,99.58%,99.1%,1)" transform="translate(394.1259551399677, 210.0101394440731)"></polygon><polygon points="47.835270731810546,0 95.67054146362109,63.716728880818955 47.835270731810546,127.43345776163791 0,63.716728880818955" fill="rgba(95.68%,99.58%,99.1%,1)" transform="translate(489.7964966035887, 210.0101394440731)"></polygon><polygon points="47.835270731810546,0 95.67054146362109,63.716728880818955 47.835270731810546,127.43345776163791 0,63.716728880818955" fill="rgba(95.68%,99.58%,99.1%,1)" transform="translate(585.4670380672098, 210.0101394440731)"></polygon><polygon points="47.835270731810546,0 95.67054146362109,63.716728880818955 47.835270731810546,127.43345776163791 0,63.716728880818955" fill="rgba(95.68%,99.58%,99.1%,1)" transform="translate(681.137579530831, 210.0101394440731)"></polygon><polygon points="47.835270731810546,0 95.67054146362109,63.716728880818955 47.835270731810546,127.43345776163791 0,63.716728880818955" fill="rgba(50.6%,28.19%,64.6%,1)" transform="translate(-36.391481446327255, 273.72686832489205)"></polygon><polygon points="47.835270731810546,0 95.67054146362109,63.716728880818955 47.835270731810546,127.43345776163791 0,63.716728880818955" fill="rgba(88.48%,56.64%,71.08%,1)" transform="translate(59.27906001729384, 273.72686832489205)"></polygon><polygon points="47.835270731810546,0 95.67054146362109,63.716728880818955 47.835270731810546,127.43345776163791 0,63.716728880818955" fill="rgba(50.6%,28.19%,64.6%,1)" transform="translate(154.94960148091494, 273.72686832489205)"></polygon><polygon points="47.835270731810546,0 95.67054146362109,63.716728880818955 47.835270731810546,127.43345776163791 0,63.716728880818955" fill="rgba(88.48%,56.64%,71.08%,1)" transform="translate(250.62014294453604, 273.72686832489205)"></polygon><polygon points="47.835270731810546,0 95.67054146362109,63.716728880818955 47.835270731810546,127.43345776163791 0,63.716728880818955" fill="rgba(50.6%,28.19%,64.6%,1)" transform="translate(346.2906844081571, 273.72686832489205)"></polygon><polygon points="47.835270731810546,0 95.67054146362109,63.716728880818955 47.835270731810546,127.43345776163791 0,63.716728880818955" fill="rgba(88.48%,56.64%,71.08%,1)" transform="translate(441.9612258717782, 273.72686832489205)"></polygon><polygon points="47.835270731810546,0 95.67054146362109,63.716728880818955 47.835270731810546,127.43345776163791 0,63.716728880818955" fill="rgba(50.6%,28.19%,64.6%,1)" transform="translate(537.6317673353993, 273.72686832489205)"></polygon><polygon points="47.835270731810546,0 95.67054146362109,63.716728880818955 47.835270731810546,127.43345776163791 0,63.716728880818955" fill="rgba(88.48%,56.64%,71.08%,1)" transform="translate(633.3023087990204, 273.72686832489205)"></polygon><polygon points="47.835270731810546,0 95.67054146362109,63.716728880818955 47.835270731810546,127.43345776163791 0,63.716728880818955" fill="rgba(50.6%,28.19%,64.6%,1)" transform="translate(728.9728502626415, 273.72686832489205)"></polygon><polygon points="47.835270731810546,0 95.67054146362109,63.716728880818955 47.835270731810546,127.43345776163791 0,63.716728880818955" fill="rgba(95.68%,99.58%,99.1%,1)" transform="translate(-84.2267521781378, 337.44359720571106)"></polygon><polygon points="47.835270731810546,0 95.67054146362109,63.716728880818955 47.835270731810546,127.43345776163791 0,63.716728880818955" fill="rgba(95.68%,99.58%,99.1%,1)" transform="translate(11.443789285483291, 337.44359720571106)"></polygon><polygon points="47.835270731810546,0 95.67054146362109,63.716728880818955 47.835270731810546,127.43345776163791 0,63.716728880818955" fill="rgba(95.68%,99.58%,99.1%,1)" transform="translate(107.1143307491044, 337.44359720571106)"></polygon><polygon points="47.835270731810546,0 95.67054146362109,63.716728880818955 47.835270731810546,127.43345776163791 0,63.716728880818955" fill="rgba(95.68%,99.58%,99.1%,1)" transform="translate(202.78487221272547, 337.44359720571106)"></polygon><polygon points="47.835270731810546,0 95.67054146362109,63.716728880818955 47.835270731810546,127.43345776163791 0,63.716728880818955" fill="rgba(95.68%,99.58%,99.1%,1)" transform="translate(298.45541367634655, 337.44359720571106)"></polygon><polygon points="47.835270731810546,0 95.67054146362109,63.716728880818955 47.835270731810546,127.43345776163791 0,63.716728880818955" fill="rgba(95.68%,99.58%,99.1%,1)" transform="translate(394.1259551399677, 337.44359720571106)"></polygon><polygon points="47.835270731810546,0 95.67054146362109,63.716728880818955 47.835270731810546,127.43345776163791 0,63.716728880818955" fill="rgba(95.68%,99.58%,99.1%,1)" transform="translate(489.7964966035887, 337.44359720571106)"></polygon><polygon points="47.835270731810546,0 95.67054146362109,63.716728880818955 47.835270731810546,127.43345776163791 0,63.716728880818955" fill="rgba(95.68%,99.58%,99.1%,1)" transform="translate(585.4670380672098, 337.44359720571106)"></polygon><polygon points="47.835270731810546,0 95.67054146362109,63.716728880818955 47.835270731810546,127.43345776163791 0,63.716728880818955" fill="rgba(95.68%,99.58%,99.1%,1)" transform="translate(681.137579530831, 337.44359720571106)"></polygon><polygon points="47.835270731810546,0 95.67054146362109,63.716728880818955 47.835270731810546,127.43345776163791 0,63.716728880818955" fill="rgba(88.48%,56.64%,71.08%,1)" transform="translate(-36.391481446327255, 401.16032608652995)"></polygon><polygon points="47.835270731810546,0 95.67054146362109,63.716728880818955 47.835270731810546,127.43345776163791 0,63.716728880818955" fill="rgba(50.6%,28.19%,64.6%,1)" transform="translate(59.27906001729384, 401.16032608652995)"></polygon><polygon points="47.835270731810546,0 95.67054146362109,63.716728880818955 47.835270731810546,127.43345776163791 0,63.716728880818955" fill="rgba(88.48%,56.64%,71.08%,1)" transform="translate(154.94960148091494, 401.16032608652995)"></polygon><polygon points="47.835270731810546,0 95.67054146362109,63.716728880818955 47.835270731810546,127.43345776163791 0,63.716728880818955" fill="rgba(50.6%,28.19%,64.6%,1)" transform="translate(250.62014294453604, 401.16032608652995)"></polygon><polygon points="47.835270731810546,0 95.67054146362109,63.716728880818955 47.835270731810546,127.43345776163791 0,63.716728880818955" fill="rgba(88.48%,56.64%,71.08%,1)" transform="translate(346.2906844081571, 401.16032608652995)"></polygon><polygon points="47.835270731810546,0 95.67054146362109,63.716728880818955 47.835270731810546,127.43345776163791 0,63.716728880818955" fill="rgba(50.6%,28.19%,64.6%,1)" transform="translate(441.9612258717782, 401.16032608652995)"></polygon><polygon points="47.835270731810546,0 95.67054146362109,63.716728880818955 47.835270731810546,127.43345776163791 0,63.716728880818955" fill="rgba(88.48%,56.64%,71.08%,1)" transform="translate(537.6317673353993, 401.16032608652995)"></polygon><polygon points="47.835270731810546,0 95.67054146362109,63.716728880818955 47.835270731810546,127.43345776163791 0,63.716728880818955" fill="rgba(50.6%,28.19%,64.6%,1)" transform="translate(633.3023087990204, 401.16032608652995)"></polygon><polygon points="47.835270731810546,0 95.67054146362109,63.716728880818955 47.835270731810546,127.43345776163791 0,63.716728880818955" fill="rgba(88.48%,56.64%,71.08%,1)" transform="translate(728.9728502626415, 401.16032608652995)"></polygon><polygon points="47.835270731810546,0 95.67054146362109,63.716728880818955 47.835270731810546,127.43345776163791 0,63.716728880818955" fill="rgba(95.68%,99.58%,99.1%,1)" transform="translate(-84.2267521781378, 464.87705496734895)"></polygon><polygon points="47.835270731810546,0 95.67054146362109,63.716728880818955 47.835270731810546,127.43345776163791 0,63.716728880818955" fill="rgba(95.68%,99.58%,99.1%,1)" transform="translate(11.443789285483291, 464.87705496734895)"></polygon><polygon points="47.835270731810546,0 95.67054146362109,63.716728880818955 47.835270731810546,127.43345776163791 0,63.716728880818955" fill="rgba(95.68%,99.58%,99.1%,1)" transform="translate(107.1143307491044, 464.87705496734895)"></polygon><polygon points="47.835270731810546,0 95.67054146362109,63.716728880818955 47.835270731810546,127.43345776163791 0,63.716728880818955" fill="rgba(95.68%,99.58%,99.1%,1)" transform="translate(202.78487221272547, 464.87705496734895)"></polygon><polygon points="47.835270731810546,0 95.67054146362109,63.716728880818955 47.835270731810546,127.43345776163791 0,63.716728880818955" fill="rgba(95.68%,99.58%,99.1%,1)" transform="translate(298.45541367634655, 464.87705496734895)"></polygon><polygon points="47.835270731810546,0 95.67054146362109,63.716728880818955 47.835270731810546,127.43345776163791 0,63.716728880818955" fill="rgba(95.68%,99.58%,99.1%,1)" transform="translate(394.1259551399677, 464.87705496734895)"></polygon><polygon points="47.835270731810546,0 95.67054146362109,63.716728880818955 47.835270731810546,127.43345776163791 0,63.716728880818955" fill="rgba(95.68%,99.58%,99.1%,1)" transform="translate(489.7964966035887, 464.87705496734895)"></polygon><polygon points="47.835270731810546,0 95.67054146362109,63.716728880818955 47.835270731810546,127.43345776163791 0,63.716728880818955" fill="rgba(95.68%,99.58%,99.1%,1)" transform="translate(585.4670380672098, 464.87705496734895)"></polygon><polygon points="47.835270731810546,0 95.67054146362109,63.716728880818955 47.835270731810546,127.43345776163791 0,63.716728880818955" fill="rgba(95.68%,99.58%,99.1%,1)" transform="translate(681.137579530831, 464.87705496734895)"></polygon><polygon points="47.835270731810546,0 95.67054146362109,63.716728880818955 47.835270731810546,127.43345776163791 0,63.716728880818955" fill="rgba(50.6%,28.19%,64.6%,1)" transform="translate(-36.391481446327255, 528.5937838481678)"></polygon><polygon points="47.835270731810546,0 95.67054146362109,63.716728880818955 47.835270731810546,127.43345776163791 0,63.716728880818955" fill="rgba(88.48%,56.64%,71.08%,1)" transform="translate(59.27906001729384, 528.5937838481678)"></polygon><polygon points="47.835270731810546,0 95.67054146362109,63.716728880818955 47.835270731810546,127.43345776163791 0,63.716728880818955" fill="rgba(50.6%,28.19%,64.6%,1)" transform="translate(154.94960148091494, 528.5937838481678)"></polygon><polygon points="47.835270731810546,0 95.67054146362109,63.716728880818955 47.835270731810546,127.43345776163791 0,63.716728880818955" fill="rgba(88.48%,56.64%,71.08%,1)" transform="translate(250.62014294453604, 528.5937838481678)"></polygon><polygon points="47.835270731810546,0 95.67054146362109,63.716728880818955 47.835270731810546,127.43345776163791 0,63.716728880818955" fill="rgba(50.6%,28.19%,64.6%,1)" transform="translate(346.2906844081571, 528.5937838481678)"></polygon><polygon points="47.835270731810546,0 95.67054146362109,63.716728880818955 47.835270731810546,127.43345776163791 0,63.716728880818955" fill="rgba(88.48%,56.64%,71.08%,1)" transform="translate(441.9612258717782, 528.5937838481678)"></polygon><polygon points="47.835270731810546,0 95.67054146362109,63.716728880818955 47.835270731810546,127.43345776163791 0,63.716728880818955" fill="rgba(50.6%,28.19%,64.6%,1)" transform="translate(537.6317673353993, 528.5937838481678)"></polygon><polygon points="47.835270731810546,0 95.67054146362109,63.716728880818955 47.835270731810546,127.43345776163791 0,63.716728880818955" fill="rgba(88.48%,56.64%,71.08%,1)" transform="translate(633.3023087990204, 528.5937838481678)"></polygon><polygon points="47.835270731810546,0 95.67054146362109,63.716728880818955 47.835270731810546,127.43345776163791 0,63.716728880818955" fill="rgba(50.6%,28.19%,64.6%,1)" transform="translate(728.9728502626415, 528.5937838481678)"></polygon></g><g><g><line stroke="rgba(99.41%,78.18%,99.28%,1)" stroke-width="1.5" transform="translate(-36.391481446327255, -108.57350496002167)" stroke-dasharray="10, 5" x1="23.917635365905273" y1="31.858364440409478" x2="71.75290609771582" y2="95.57509332122844"></line><line stroke="rgba(99.41%,78.18%,99.28%,1)" stroke-width="1.5" transform="translate(-36.391481446327255, -108.57350496002167)" stroke-dasharray="10, 5" x1="71.75290609771582" y1="31.858364440409478" x2="23.917635365905273" y2="95.57509332122844"></line></g><g><line stroke="rgba(99.41%,78.18%,99.28%,1)" stroke-width="1.5" transform="translate(59.27906001729384, -108.57350496002167)" stroke-dasharray="10, 5" x1="23.917635365905273" y1="31.858364440409478" x2="71.75290609771582" y2="95.57509332122844"></line><line stroke="rgba(99.41%,78.18%,99.28%,1)" stroke-width="1.5" transform="translate(59.27906001729384, -108.57350496002167)" stroke-dasharray="10, 5" x1="71.75290609771582" y1="31.858364440409478" x2="23.917635365905273" y2="95.57509332122844"></line></g><g><line stroke="rgba(99.41%,78.18%,99.28%,1)" stroke-width="1.5" transform="translate(154.94960148091494, -108.57350496002167)" stroke-dasharray="10, 5" x1="23.917635365905273" y1="31.858364440409478" x2="71.75290609771582" y2="95.57509332122844"></line><line stroke="rgba(99.41%,78.18%,99.28%,1)" stroke-width="1.5" transform="translate(154.94960148091494, -108.57350496002167)" stroke-dasharray="10, 5" x1="71.75290609771582" y1="31.858364440409478" x2="23.917635365905273" y2="95.57509332122844"></line></g><g><line stroke="rgba(99.41%,78.18%,99.28%,1)" stroke-width="1.5" transform="translate(250.62014294453604, -108.57350496002167)" stroke-dasharray="10, 5" x1="23.917635365905273" y1="31.858364440409478" x2="71.75290609771582" y2="95.57509332122844"></line><line stroke="rgba(99.41%,78.18%,99.28%,1)" stroke-width="1.5" transform="translate(250.62014294453604, -108.57350496002167)" stroke-dasharray="10, 5" x1="71.75290609771582" y1="31.858364440409478" x2="23.917635365905273" y2="95.57509332122844"></line></g><g><line stroke="rgba(99.41%,78.18%,99.28%,1)" stroke-width="1.5" transform="translate(346.2906844081571, -108.57350496002167)" stroke-dasharray="10, 5" x1="23.917635365905273" y1="31.858364440409478" x2="71.75290609771582" y2="95.57509332122844"></line><line stroke="rgba(99.41%,78.18%,99.28%,1)" stroke-width="1.5" transform="translate(346.2906844081571, -108.57350496002167)" stroke-dasharray="10, 5" x1="71.75290609771582" y1="31.858364440409478" x2="23.917635365905273" y2="95.57509332122844"></line></g><g><line stroke="rgba(99.41%,78.18%,99.28%,1)" stroke-width="1.5" transform="translate(441.9612258717782, -108.57350496002167)" stroke-dasharray="10, 5" x1="23.917635365905273" y1="31.858364440409478" x2="71.75290609771582" y2="95.57509332122844"></line><line stroke="rgba(99.41%,78.18%,99.28%,1)" stroke-width="1.5" transform="translate(441.9612258717782, -108.57350496002167)" stroke-dasharray="10, 5" x1="71.75290609771582" y1="31.858364440409478" x2="23.917635365905273" y2="95.57509332122844"></line></g><g><line stroke="rgba(99.41%,78.18%,99.28%,1)" stroke-width="1.5" transform="translate(537.6317673353993, -108.57350496002167)" stroke-dasharray="10, 5" x1="23.917635365905273" y1="31.858364440409478" x2="71.75290609771582" y2="95.57509332122844"></line><line stroke="rgba(99.41%,78.18%,99.28%,1)" stroke-width="1.5" transform="translate(537.6317673353993, -108.57350496002167)" stroke-dasharray="10, 5" x1="71.75290609771582" y1="31.858364440409478" x2="23.917635365905273" y2="95.57509332122844"></line></g><g><line stroke="rgba(99.41%,78.18%,99.28%,1)" stroke-width="1.5" transform="translate(633.3023087990204, -108.57350496002167)" stroke-dasharray="10, 5" x1="23.917635365905273" y1="31.858364440409478" x2="71.75290609771582" y2="95.57509332122844"></line><line stroke="rgba(99.41%,78.18%,99.28%,1)" stroke-width="1.5" transform="translate(633.3023087990204, -108.57350496002167)" stroke-dasharray="10, 5" x1="71.75290609771582" y1="31.858364440409478" x2="23.917635365905273" y2="95.57509332122844"></line></g><g><line stroke="rgba(99.41%,78.18%,99.28%,1)" stroke-width="1.5" transform="translate(728.9728502626415, -108.57350496002167)" stroke-dasharray="10, 5" x1="23.917635365905273" y1="31.858364440409478" x2="71.75290609771582" y2="95.57509332122844"></line><line stroke="rgba(99.41%,78.18%,99.28%,1)" stroke-width="1.5" transform="translate(728.9728502626415, -108.57350496002167)" stroke-dasharray="10, 5" x1="71.75290609771582" y1="31.858364440409478" x2="23.917635365905273" y2="95.57509332122844"></line></g><g><line stroke="rgba(99.41%,78.18%,99.28%,1)" stroke-width="1.5" transform="translate(-84.2267521781378, -44.85677607920272)" stroke-dasharray="10, 5" x1="23.917635365905273" y1="31.858364440409478" x2="71.75290609771582" y2="95.57509332122844"></line><line stroke="rgba(99.41%,78.18%,99.28%,1)" stroke-width="1.5" transform="translate(-84.2267521781378, -44.85677607920272)" stroke-dasharray="10, 5" x1="71.75290609771582" y1="31.858364440409478" x2="23.917635365905273" y2="95.57509332122844"></line></g><g><line stroke="rgba(99.41%,78.18%,99.28%,1)" stroke-width="1.5" transform="translate(11.443789285483291, -44.85677607920272)" stroke-dasharray="10, 5" x1="23.917635365905273" y1="31.858364440409478" x2="71.75290609771582" y2="95.57509332122844"></line><line stroke="rgba(99.41%,78.18%,99.28%,1)" stroke-width="1.5" transform="translate(11.443789285483291, -44.85677607920272)" stroke-dasharray="10, 5" x1="71.75290609771582" y1="31.858364440409478" x2="23.917635365905273" y2="95.57509332122844"></line></g><g><line stroke="rgba(99.41%,78.18%,99.28%,1)" stroke-width="1.5" transform="translate(107.1143307491044, -44.85677607920272)" stroke-dasharray="10, 5" x1="23.917635365905273" y1="31.858364440409478" x2="71.75290609771582" y2="95.57509332122844"></line><line stroke="rgba(99.41%,78.18%,99.28%,1)" stroke-width="1.5" transform="translate(107.1143307491044, -44.85677607920272)" stroke-dasharray="10, 5" x1="71.75290609771582" y1="31.858364440409478" x2="23.917635365905273" y2="95.57509332122844"></line></g><g><line stroke="rgba(99.41%,78.18%,99.28%,1)" stroke-width="1.5" transform="translate(202.78487221272547, -44.85677607920272)" stroke-dasharray="10, 5" x1="23.917635365905273" y1="31.858364440409478" x2="71.75290609771582" y2="95.57509332122844"></line><line stroke="rgba(99.41%,78.18%,99.28%,1)" stroke-width="1.5" transform="translate(202.78487221272547, -44.85677607920272)" stroke-dasharray="10, 5" x1="71.75290609771582" y1="31.858364440409478" x2="23.917635365905273" y2="95.57509332122844"></line></g><g><line stroke="rgba(99.41%,78.18%,99.28%,1)" stroke-width="1.5" transform="translate(298.45541367634655, -44.85677607920272)" stroke-dasharray="10, 5" x1="23.917635365905273" y1="31.858364440409478" x2="71.75290609771582" y2="95.57509332122844"></line><line stroke="rgba(99.41%,78.18%,99.28%,1)" stroke-width="1.5" transform="translate(298.45541367634655, -44.85677607920272)" stroke-dasharray="10, 5" x1="71.75290609771582" y1="31.858364440409478" x2="23.917635365905273" y2="95.57509332122844"></line></g><g><line stroke="rgba(99.41%,78.18%,99.28%,1)" stroke-width="1.5" transform="translate(394.1259551399677, -44.85677607920272)" stroke-dasharray="10, 5" x1="23.917635365905273" y1="31.858364440409478" x2="71.75290609771582" y2="95.57509332122844"></line><line stroke="rgba(99.41%,78.18%,99.28%,1)" stroke-width="1.5" transform="translate(394.1259551399677, -44.85677607920272)" stroke-dasharray="10, 5" x1="71.75290609771582" y1="31.858364440409478" x2="23.917635365905273" y2="95.57509332122844"></line></g><g><line stroke="rgba(99.41%,78.18%,99.28%,1)" stroke-width="1.5" transform="translate(489.7964966035887, -44.85677607920272)" stroke-dasharray="10, 5" x1="23.917635365905273" y1="31.858364440409478" x2="71.75290609771582" y2="95.57509332122844"></line><line stroke="rgba(99.41%,78.18%,99.28%,1)" stroke-width="1.5" transform="translate(489.7964966035887, -44.85677607920272)" stroke-dasharray="10, 5" x1="71.75290609771582" y1="31.858364440409478" x2="23.917635365905273" y2="95.57509332122844"></line></g><g><line stroke="rgba(99.41%,78.18%,99.28%,1)" stroke-width="1.5" transform="translate(585.4670380672098, -44.85677607920272)" stroke-dasharray="10, 5" x1="23.917635365905273" y1="31.858364440409478" x2="71.75290609771582" y2="95.57509332122844"></line><line stroke="rgba(99.41%,78.18%,99.28%,1)" stroke-width="1.5" transform="translate(585.4670380672098, -44.85677607920272)" stroke-dasharray="10, 5" x1="71.75290609771582" y1="31.858364440409478" x2="23.917635365905273" y2="95.57509332122844"></line></g><g><line stroke="rgba(99.41%,78.18%,99.28%,1)" stroke-width="1.5" transform="translate(681.137579530831, -44.85677607920272)" stroke-dasharray="10, 5" x1="23.917635365905273" y1="31.858364440409478" x2="71.75290609771582" y2="95.57509332122844"></line><line stroke="rgba(99.41%,78.18%,99.28%,1)" stroke-width="1.5" transform="translate(681.137579530831, -44.85677607920272)" stroke-dasharray="10, 5" x1="71.75290609771582" y1="31.858364440409478" x2="23.917635365905273" y2="95.57509332122844"></line></g><g><line stroke="rgba(99.41%,78.18%,99.28%,1)" stroke-width="1.5" transform="translate(-36.391481446327255, 18.859952801616238)" stroke-dasharray="10, 5" x1="23.917635365905273" y1="31.858364440409478" x2="71.75290609771582" y2="95.57509332122844"></line><line stroke="rgba(99.41%,78.18%,99.28%,1)" stroke-width="1.5" transform="translate(-36.391481446327255, 18.859952801616238)" stroke-dasharray="10, 5" x1="71.75290609771582" y1="31.858364440409478" x2="23.917635365905273" y2="95.57509332122844"></line></g><g><line stroke="rgba(99.41%,78.18%,99.28%,1)" stroke-width="1.5" transform="translate(59.27906001729384, 18.859952801616238)" stroke-dasharray="10, 5" x1="23.917635365905273" y1="31.858364440409478" x2="71.75290609771582" y2="95.57509332122844"></line><line stroke="rgba(99.41%,78.18%,99.28%,1)" stroke-width="1.5" transform="translate(59.27906001729384, 18.859952801616238)" stroke-dasharray="10, 5" x1="71.75290609771582" y1="31.858364440409478" x2="23.917635365905273" y2="95.57509332122844"></line></g><g><line stroke="rgba(99.41%,78.18%,99.28%,1)" stroke-width="1.5" transform="translate(154.94960148091494, 18.859952801616238)" stroke-dasharray="10, 5" x1="23.917635365905273" y1="31.858364440409478" x2="71.75290609771582" y2="95.57509332122844"></line><line stroke="rgba(99.41%,78.18%,99.28%,1)" stroke-width="1.5" transform="translate(154.94960148091494, 18.859952801616238)" stroke-dasharray="10, 5" x1="71.75290609771582" y1="31.858364440409478" x2="23.917635365905273" y2="95.57509332122844"></line></g><g><line stroke="rgba(99.41%,78.18%,99.28%,1)" stroke-width="1.5" transform="translate(250.62014294453604, 18.859952801616238)" stroke-dasharray="10, 5" x1="23.917635365905273" y1="31.858364440409478" x2="71.75290609771582" y2="95.57509332122844"></line><line stroke="rgba(99.41%,78.18%,99.28%,1)" stroke-width="1.5" transform="translate(250.62014294453604, 18.859952801616238)" stroke-dasharray="10, 5" x1="71.75290609771582" y1="31.858364440409478" x2="23.917635365905273" y2="95.57509332122844"></line></g><g><line stroke="rgba(99.41%,78.18%,99.28%,1)" stroke-width="1.5" transform="translate(346.2906844081571, 18.859952801616238)" stroke-dasharray="10, 5" x1="23.917635365905273" y1="31.858364440409478" x2="71.75290609771582" y2="95.57509332122844"></line><line stroke="rgba(99.41%,78.18%,99.28%,1)" stroke-width="1.5" transform="translate(346.2906844081571, 18.859952801616238)" stroke-dasharray="10, 5" x1="71.75290609771582" y1="31.858364440409478" x2="23.917635365905273" y2="95.57509332122844"></line></g><g><line stroke="rgba(99.41%,78.18%,99.28%,1)" stroke-width="1.5" transform="translate(441.9612258717782, 18.859952801616238)" stroke-dasharray="10, 5" x1="23.917635365905273" y1="31.858364440409478" x2="71.75290609771582" y2="95.57509332122844"></line><line stroke="rgba(99.41%,78.18%,99.28%,1)" stroke-width="1.5" transform="translate(441.9612258717782, 18.859952801616238)" stroke-dasharray="10, 5" x1="71.75290609771582" y1="31.858364440409478" x2="23.917635365905273" y2="95.57509332122844"></line></g><g><line stroke="rgba(99.41%,78.18%,99.28%,1)" stroke-width="1.5" transform="translate(537.6317673353993, 18.859952801616238)" stroke-dasharray="10, 5" x1="23.917635365905273" y1="31.858364440409478" x2="71.75290609771582" y2="95.57509332122844"></line><line stroke="rgba(99.41%,78.18%,99.28%,1)" stroke-width="1.5" transform="translate(537.6317673353993, 18.859952801616238)" stroke-dasharray="10, 5" x1="71.75290609771582" y1="31.858364440409478" x2="23.917635365905273" y2="95.57509332122844"></line></g><g><line stroke="rgba(99.41%,78.18%,99.28%,1)" stroke-width="1.5" transform="translate(633.3023087990204, 18.859952801616238)" stroke-dasharray="10, 5" x1="23.917635365905273" y1="31.858364440409478" x2="71.75290609771582" y2="95.57509332122844"></line><line stroke="rgba(99.41%,78.18%,99.28%,1)" stroke-width="1.5" transform="translate(633.3023087990204, 18.859952801616238)" stroke-dasharray="10, 5" x1="71.75290609771582" y1="31.858364440409478" x2="23.917635365905273" y2="95.57509332122844"></line></g><g><line stroke="rgba(99.41%,78.18%,99.28%,1)" stroke-width="1.5" transform="translate(728.9728502626415, 18.859952801616238)" stroke-dasharray="10, 5" x1="23.917635365905273" y1="31.858364440409478" x2="71.75290609771582" y2="95.57509332122844"></line><line stroke="rgba(99.41%,78.18%,99.28%,1)" stroke-width="1.5" transform="translate(728.9728502626415, 18.859952801616238)" stroke-dasharray="10, 5" x1="71.75290609771582" y1="31.858364440409478" x2="23.917635365905273" y2="95.57509332122844"></line></g><g><line stroke="rgba(99.41%,78.18%,99.28%,1)" stroke-width="1.5" transform="translate(-84.2267521781378, 82.5766816824352)" stroke-dasharray="10, 5" x1="23.917635365905273" y1="31.858364440409478" x2="71.75290609771582" y2="95.57509332122844"></line><line stroke="rgba(99.41%,78.18%,99.28%,1)" stroke-width="1.5" transform="translate(-84.2267521781378, 82.5766816824352)" stroke-dasharray="10, 5" x1="71.75290609771582" y1="31.858364440409478" x2="23.917635365905273" y2="95.57509332122844"></line></g><g><line stroke="rgba(99.41%,78.18%,99.28%,1)" stroke-width="1.5" transform="translate(11.443789285483291, 82.5766816824352)" stroke-dasharray="10, 5" x1="23.917635365905273" y1="31.858364440409478" x2="71.75290609771582" y2="95.57509332122844"></line><line stroke="rgba(99.41%,78.18%,99.28%,1)" stroke-width="1.5" transform="translate(11.443789285483291, 82.5766816824352)" stroke-dasharray="10, 5" x1="71.75290609771582" y1="31.858364440409478" x2="23.917635365905273" y2="95.57509332122844"></line></g><g><line stroke="rgba(99.41%,78.18%,99.28%,1)" stroke-width="1.5" transform="translate(107.1143307491044, 82.5766816824352)" stroke-dasharray="10, 5" x1="23.917635365905273" y1="31.858364440409478" x2="71.75290609771582" y2="95.57509332122844"></line><line stroke="rgba(99.41%,78.18%,99.28%,1)" stroke-width="1.5" transform="translate(107.1143307491044, 82.5766816824352)" stroke-dasharray="10, 5" x1="71.75290609771582" y1="31.858364440409478" x2="23.917635365905273" y2="95.57509332122844"></line></g><g><line stroke="rgba(99.41%,78.18%,99.28%,1)" stroke-width="1.5" transform="translate(202.78487221272547, 82.5766816824352)" stroke-dasharray="10, 5" x1="23.917635365905273" y1="31.858364440409478" x2="71.75290609771582" y2="95.57509332122844"></line><line stroke="rgba(99.41%,78.18%,99.28%,1)" stroke-width="1.5" transform="translate(202.78487221272547, 82.5766816824352)" stroke-dasharray="10, 5" x1="71.75290609771582" y1="31.858364440409478" x2="23.917635365905273" y2="95.57509332122844"></line></g><g><line stroke="rgba(99.41%,78.18%,99.28%,1)" stroke-width="1.5" transform="translate(298.45541367634655, 82.5766816824352)" stroke-dasharray="10, 5" x1="23.917635365905273" y1="31.858364440409478" x2="71.75290609771582" y2="95.57509332122844"></line><line stroke="rgba(99.41%,78.18%,99.28%,1)" stroke-width="1.5" transform="translate(298.45541367634655, 82.5766816824352)" stroke-dasharray="10, 5" x1="71.75290609771582" y1="31.858364440409478" x2="23.917635365905273" y2="95.57509332122844"></line></g><g><line stroke="rgba(99.41%,78.18%,99.28%,1)" stroke-width="1.5" transform="translate(394.1259551399677, 82.5766816824352)" stroke-dasharray="10, 5" x1="23.917635365905273" y1="31.858364440409478" x2="71.75290609771582" y2="95.57509332122844"></line><line stroke="rgba(99.41%,78.18%,99.28%,1)" stroke-width="1.5" transform="translate(394.1259551399677, 82.5766816824352)" stroke-dasharray="10, 5" x1="71.75290609771582" y1="31.858364440409478" x2="23.917635365905273" y2="95.57509332122844"></line></g><g><line stroke="rgba(99.41%,78.18%,99.28%,1)" stroke-width="1.5" transform="translate(489.7964966035887, 82.5766816824352)" stroke-dasharray="10, 5" x1="23.917635365905273" y1="31.858364440409478" x2="71.75290609771582" y2="95.57509332122844"></line><line stroke="rgba(99.41%,78.18%,99.28%,1)" stroke-width="1.5" transform="translate(489.7964966035887, 82.5766816824352)" stroke-dasharray="10, 5" x1="71.75290609771582" y1="31.858364440409478" x2="23.917635365905273" y2="95.57509332122844"></line></g><g><line stroke="rgba(99.41%,78.18%,99.28%,1)" stroke-width="1.5" transform="translate(585.4670380672098, 82.5766816824352)" stroke-dasharray="10, 5" x1="23.917635365905273" y1="31.858364440409478" x2="71.75290609771582" y2="95.57509332122844"></line><line stroke="rgba(99.41%,78.18%,99.28%,1)" stroke-width="1.5" transform="translate(585.4670380672098, 82.5766816824352)" stroke-dasharray="10, 5" x1="71.75290609771582" y1="31.858364440409478" x2="23.917635365905273" y2="95.57509332122844"></line></g><g><line stroke="rgba(99.41%,78.18%,99.28%,1)" stroke-width="1.5" transform="translate(681.137579530831, 82.5766816824352)" stroke-dasharray="10, 5" x1="23.917635365905273" y1="31.858364440409478" x2="71.75290609771582" y2="95.57509332122844"></line><line stroke="rgba(99.41%,78.18%,99.28%,1)" stroke-width="1.5" transform="translate(681.137579530831, 82.5766816824352)" stroke-dasharray="10, 5" x1="71.75290609771582" y1="31.858364440409478" x2="23.917635365905273" y2="95.57509332122844"></line></g><g><line stroke="rgba(99.41%,78.18%,99.28%,1)" stroke-width="1.5" transform="translate(-36.391481446327255, 146.29341056325416)" stroke-dasharray="10, 5" x1="23.917635365905273" y1="31.858364440409478" x2="71.75290609771582" y2="95.57509332122844"></line><line stroke="rgba(99.41%,78.18%,99.28%,1)" stroke-width="1.5" transform="translate(-36.391481446327255, 146.29341056325416)" stroke-dasharray="10, 5" x1="71.75290609771582" y1="31.858364440409478" x2="23.917635365905273" y2="95.57509332122844"></line></g><g><line stroke="rgba(99.41%,78.18%,99.28%,1)" stroke-width="1.5" transform="translate(59.27906001729384, 146.29341056325416)" stroke-dasharray="10, 5" x1="23.917635365905273" y1="31.858364440409478" x2="71.75290609771582" y2="95.57509332122844"></line><line stroke="rgba(99.41%,78.18%,99.28%,1)" stroke-width="1.5" transform="translate(59.27906001729384, 146.29341056325416)" stroke-dasharray="10, 5" x1="71.75290609771582" y1="31.858364440409478" x2="23.917635365905273" y2="95.57509332122844"></line></g><g><line stroke="rgba(99.41%,78.18%,99.28%,1)" stroke-width="1.5" transform="translate(154.94960148091494, 146.29341056325416)" stroke-dasharray="10, 5" x1="23.917635365905273" y1="31.858364440409478" x2="71.75290609771582" y2="95.57509332122844"></line><line stroke="rgba(99.41%,78.18%,99.28%,1)" stroke-width="1.5" transform="translate(154.94960148091494, 146.29341056325416)" stroke-dasharray="10, 5" x1="71.75290609771582" y1="31.858364440409478" x2="23.917635365905273" y2="95.57509332122844"></line></g><g><line stroke="rgba(99.41%,78.18%,99.28%,1)" stroke-width="1.5" transform="translate(250.62014294453604, 146.29341056325416)" stroke-dasharray="10, 5" x1="23.917635365905273" y1="31.858364440409478" x2="71.75290609771582" y2="95.57509332122844"></line><line stroke="rgba(99.41%,78.18%,99.28%,1)" stroke-width="1.5" transform="translate(250.62014294453604, 146.29341056325416)" stroke-dasharray="10, 5" x1="71.75290609771582" y1="31.858364440409478" x2="23.917635365905273" y2="95.57509332122844"></line></g><g><line stroke="rgba(99.41%,78.18%,99.28%,1)" stroke-width="1.5" transform="translate(346.2906844081571, 146.29341056325416)" stroke-dasharray="10, 5" x1="23.917635365905273" y1="31.858364440409478" x2="71.75290609771582" y2="95.57509332122844"></line><line stroke="rgba(99.41%,78.18%,99.28%,1)" stroke-width="1.5" transform="translate(346.2906844081571, 146.29341056325416)" stroke-dasharray="10, 5" x1="71.75290609771582" y1="31.858364440409478" x2="23.917635365905273" y2="95.57509332122844"></line></g><g><line stroke="rgba(99.41%,78.18%,99.28%,1)" stroke-width="1.5" transform="translate(441.9612258717782, 146.29341056325416)" stroke-dasharray="10, 5" x1="23.917635365905273" y1="31.858364440409478" x2="71.75290609771582" y2="95.57509332122844"></line><line stroke="rgba(99.41%,78.18%,99.28%,1)" stroke-width="1.5" transform="translate(441.9612258717782, 146.29341056325416)" stroke-dasharray="10, 5" x1="71.75290609771582" y1="31.858364440409478" x2="23.917635365905273" y2="95.57509332122844"></line></g><g><line stroke="rgba(99.41%,78.18%,99.28%,1)" stroke-width="1.5" transform="translate(537.6317673353993, 146.29341056325416)" stroke-dasharray="10, 5" x1="23.917635365905273" y1="31.858364440409478" x2="71.75290609771582" y2="95.57509332122844"></line><line stroke="rgba(99.41%,78.18%,99.28%,1)" stroke-width="1.5" transform="translate(537.6317673353993, 146.29341056325416)" stroke-dasharray="10, 5" x1="71.75290609771582" y1="31.858364440409478" x2="23.917635365905273" y2="95.57509332122844"></line></g><g><line stroke="rgba(99.41%,78.18%,99.28%,1)" stroke-width="1.5" transform="translate(633.3023087990204, 146.29341056325416)" stroke-dasharray="10, 5" x1="23.917635365905273" y1="31.858364440409478" x2="71.75290609771582" y2="95.57509332122844"></line><line stroke="rgba(99.41%,78.18%,99.28%,1)" stroke-width="1.5" transform="translate(633.3023087990204, 146.29341056325416)" stroke-dasharray="10, 5" x1="71.75290609771582" y1="31.858364440409478" x2="23.917635365905273" y2="95.57509332122844"></line></g><g><line stroke="rgba(99.41%,78.18%,99.28%,1)" stroke-width="1.5" transform="translate(728.9728502626415, 146.29341056325416)" stroke-dasharray="10, 5" x1="23.917635365905273" y1="31.858364440409478" x2="71.75290609771582" y2="95.57509332122844"></line><line stroke="rgba(99.41%,78.18%,99.28%,1)" stroke-width="1.5" transform="translate(728.9728502626415, 146.29341056325416)" stroke-dasharray="10, 5" x1="71.75290609771582" y1="31.858364440409478" x2="23.917635365905273" y2="95.57509332122844"></line></g><g><line stroke="rgba(99.41%,78.18%,99.28%,1)" stroke-width="1.5" transform="translate(-84.2267521781378, 210.0101394440731)" stroke-dasharray="10, 5" x1="23.917635365905273" y1="31.858364440409478" x2="71.75290609771582" y2="95.57509332122844"></line><line stroke="rgba(99.41%,78.18%,99.28%,1)" stroke-width="1.5" transform="translate(-84.2267521781378, 210.0101394440731)" stroke-dasharray="10, 5" x1="71.75290609771582" y1="31.858364440409478" x2="23.917635365905273" y2="95.57509332122844"></line></g><g><line stroke="rgba(99.41%,78.18%,99.28%,1)" stroke-width="1.5" transform="translate(11.443789285483291, 210.0101394440731)" stroke-dasharray="10, 5" x1="23.917635365905273" y1="31.858364440409478" x2="71.75290609771582" y2="95.57509332122844"></line><line stroke="rgba(99.41%,78.18%,99.28%,1)" stroke-width="1.5" transform="translate(11.443789285483291, 210.0101394440731)" stroke-dasharray="10, 5" x1="71.75290609771582" y1="31.858364440409478" x2="23.917635365905273" y2="95.57509332122844"></line></g><g><line stroke="rgba(99.41%,78.18%,99.28%,1)" stroke-width="1.5" transform="translate(107.1143307491044, 210.0101394440731)" stroke-dasharray="10, 5" x1="23.917635365905273" y1="31.858364440409478" x2="71.75290609771582" y2="95.57509332122844"></line><line stroke="rgba(99.41%,78.18%,99.28%,1)" stroke-width="1.5" transform="translate(107.1143307491044, 210.0101394440731)" stroke-dasharray="10, 5" x1="71.75290609771582" y1="31.858364440409478" x2="23.917635365905273" y2="95.57509332122844"></line></g><g><line stroke="rgba(99.41%,78.18%,99.28%,1)" stroke-width="1.5" transform="translate(202.78487221272547, 210.0101394440731)" stroke-dasharray="10, 5" x1="23.917635365905273" y1="31.858364440409478" x2="71.75290609771582" y2="95.57509332122844"></line><line stroke="rgba(99.41%,78.18%,99.28%,1)" stroke-width="1.5" transform="translate(202.78487221272547, 210.0101394440731)" stroke-dasharray="10, 5" x1="71.75290609771582" y1="31.858364440409478" x2="23.917635365905273" y2="95.57509332122844"></line></g><g><line stroke="rgba(99.41%,78.18%,99.28%,1)" stroke-width="1.5" transform="translate(298.45541367634655, 210.0101394440731)" stroke-dasharray="10, 5" x1="23.917635365905273" y1="31.858364440409478" x2="71.75290609771582" y2="95.57509332122844"></line><line stroke="rgba(99.41%,78.18%,99.28%,1)" stroke-width="1.5" transform="translate(298.45541367634655, 210.0101394440731)" stroke-dasharray="10, 5" x1="71.75290609771582" y1="31.858364440409478" x2="23.917635365905273" y2="95.57509332122844"></line></g><g><line stroke="rgba(99.41%,78.18%,99.28%,1)" stroke-width="1.5" transform="translate(394.1259551399677, 210.0101394440731)" stroke-dasharray="10, 5" x1="23.917635365905273" y1="31.858364440409478" x2="71.75290609771582" y2="95.57509332122844"></line><line stroke="rgba(99.41%,78.18%,99.28%,1)" stroke-width="1.5" transform="translate(394.1259551399677, 210.0101394440731)" stroke-dasharray="10, 5" x1="71.75290609771582" y1="31.858364440409478" x2="23.917635365905273" y2="95.57509332122844"></line></g><g><line stroke="rgba(99.41%,78.18%,99.28%,1)" stroke-width="1.5" transform="translate(489.7964966035887, 210.0101394440731)" stroke-dasharray="10, 5" x1="23.917635365905273" y1="31.858364440409478" x2="71.75290609771582" y2="95.57509332122844"></line><line stroke="rgba(99.41%,78.18%,99.28%,1)" stroke-width="1.5" transform="translate(489.7964966035887, 210.0101394440731)" stroke-dasharray="10, 5" x1="71.75290609771582" y1="31.858364440409478" x2="23.917635365905273" y2="95.57509332122844"></line></g><g><line stroke="rgba(99.41%,78.18%,99.28%,1)" stroke-width="1.5" transform="translate(585.4670380672098, 210.0101394440731)" stroke-dasharray="10, 5" x1="23.917635365905273" y1="31.858364440409478" x2="71.75290609771582" y2="95.57509332122844"></line><line stroke="rgba(99.41%,78.18%,99.28%,1)" stroke-width="1.5" transform="translate(585.4670380672098, 210.0101394440731)" stroke-dasharray="10, 5" x1="71.75290609771582" y1="31.858364440409478" x2="23.917635365905273" y2="95.57509332122844"></line></g><g><line stroke="rgba(99.41%,78.18%,99.28%,1)" stroke-width="1.5" transform="translate(681.137579530831, 210.0101394440731)" stroke-dasharray="10, 5" x1="23.917635365905273" y1="31.858364440409478" x2="71.75290609771582" y2="95.57509332122844"></line><line stroke="rgba(99.41%,78.18%,99.28%,1)" stroke-width="1.5" transform="translate(681.137579530831, 210.0101394440731)" stroke-dasharray="10, 5" x1="71.75290609771582" y1="31.858364440409478" x2="23.917635365905273" y2="95.57509332122844"></line></g><g><line stroke="rgba(99.41%,78.18%,99.28%,1)" stroke-width="1.5" transform="translate(-36.391481446327255, 273.72686832489205)" stroke-dasharray="10, 5" x1="23.917635365905273" y1="31.858364440409478" x2="71.75290609771582" y2="95.57509332122844"></line><line stroke="rgba(99.41%,78.18%,99.28%,1)" stroke-width="1.5" transform="translate(-36.391481446327255, 273.72686832489205)" stroke-dasharray="10, 5" x1="71.75290609771582" y1="31.858364440409478" x2="23.917635365905273" y2="95.57509332122844"></line></g><g><line stroke="rgba(99.41%,78.18%,99.28%,1)" stroke-width="1.5" transform="translate(59.27906001729384, 273.72686832489205)" stroke-dasharray="10, 5" x1="23.917635365905273" y1="31.858364440409478" x2="71.75290609771582" y2="95.57509332122844"></line><line stroke="rgba(99.41%,78.18%,99.28%,1)" stroke-width="1.5" transform="translate(59.27906001729384, 273.72686832489205)" stroke-dasharray="10, 5" x1="71.75290609771582" y1="31.858364440409478" x2="23.917635365905273" y2="95.57509332122844"></line></g><g><line stroke="rgba(99.41%,78.18%,99.28%,1)" stroke-width="1.5" transform="translate(154.94960148091494, 273.72686832489205)" stroke-dasharray="10, 5" x1="23.917635365905273" y1="31.858364440409478" x2="71.75290609771582" y2="95.57509332122844"></line><line stroke="rgba(99.41%,78.18%,99.28%,1)" stroke-width="1.5" transform="translate(154.94960148091494, 273.72686832489205)" stroke-dasharray="10, 5" x1="71.75290609771582" y1="31.858364440409478" x2="23.917635365905273" y2="95.57509332122844"></line></g><g><line stroke="rgba(99.41%,78.18%,99.28%,1)" stroke-width="1.5" transform="translate(250.62014294453604, 273.72686832489205)" stroke-dasharray="10, 5" x1="23.917635365905273" y1="31.858364440409478" x2="71.75290609771582" y2="95.57509332122844"></line><line stroke="rgba(99.41%,78.18%,99.28%,1)" stroke-width="1.5" transform="translate(250.62014294453604, 273.72686832489205)" stroke-dasharray="10, 5" x1="71.75290609771582" y1="31.858364440409478" x2="23.917635365905273" y2="95.57509332122844"></line></g><g><line stroke="rgba(99.41%,78.18%,99.28%,1)" stroke-width="1.5" transform="translate(346.2906844081571, 273.72686832489205)" stroke-dasharray="10, 5" x1="23.917635365905273" y1="31.858364440409478" x2="71.75290609771582" y2="95.57509332122844"></line><line stroke="rgba(99.41%,78.18%,99.28%,1)" stroke-width="1.5" transform="translate(346.2906844081571, 273.72686832489205)" stroke-dasharray="10, 5" x1="71.75290609771582" y1="31.858364440409478" x2="23.917635365905273" y2="95.57509332122844"></line></g><g><line stroke="rgba(99.41%,78.18%,99.28%,1)" stroke-width="1.5" transform="translate(441.9612258717782, 273.72686832489205)" stroke-dasharray="10, 5" x1="23.917635365905273" y1="31.858364440409478" x2="71.75290609771582" y2="95.57509332122844"></line><line stroke="rgba(99.41%,78.18%,99.28%,1)" stroke-width="1.5" transform="translate(441.9612258717782, 273.72686832489205)" stroke-dasharray="10, 5" x1="71.75290609771582" y1="31.858364440409478" x2="23.917635365905273" y2="95.57509332122844"></line></g><g><line stroke="rgba(99.41%,78.18%,99.28%,1)" stroke-width="1.5" transform="translate(537.6317673353993, 273.72686832489205)" stroke-dasharray="10, 5" x1="23.917635365905273" y1="31.858364440409478" x2="71.75290609771582" y2="95.57509332122844"></line><line stroke="rgba(99.41%,78.18%,99.28%,1)" stroke-width="1.5" transform="translate(537.6317673353993, 273.72686832489205)" stroke-dasharray="10, 5" x1="71.75290609771582" y1="31.858364440409478" x2="23.917635365905273" y2="95.57509332122844"></line></g><g><line stroke="rgba(99.41%,78.18%,99.28%,1)" stroke-width="1.5" transform="translate(633.3023087990204, 273.72686832489205)" stroke-dasharray="10, 5" x1="23.917635365905273" y1="31.858364440409478" x2="71.75290609771582" y2="95.57509332122844"></line><line stroke="rgba(99.41%,78.18%,99.28%,1)" stroke-width="1.5" transform="translate(633.3023087990204, 273.72686832489205)" stroke-dasharray="10, 5" x1="71.75290609771582" y1="31.858364440409478" x2="23.917635365905273" y2="95.57509332122844"></line></g><g><line stroke="rgba(99.41%,78.18%,99.28%,1)" stroke-width="1.5" transform="translate(728.9728502626415, 273.72686832489205)" stroke-dasharray="10, 5" x1="23.917635365905273" y1="31.858364440409478" x2="71.75290609771582" y2="95.57509332122844"></line><line stroke="rgba(99.41%,78.18%,99.28%,1)" stroke-width="1.5" transform="translate(728.9728502626415, 273.72686832489205)" stroke-dasharray="10, 5" x1="71.75290609771582" y1="31.858364440409478" x2="23.917635365905273" y2="95.57509332122844"></line></g><g><line stroke="rgba(99.41%,78.18%,99.28%,1)" stroke-width="1.5" transform="translate(-84.2267521781378, 337.44359720571106)" stroke-dasharray="10, 5" x1="23.917635365905273" y1="31.858364440409478" x2="71.75290609771582" y2="95.57509332122844"></line><line stroke="rgba(99.41%,78.18%,99.28%,1)" stroke-width="1.5" transform="translate(-84.2267521781378, 337.44359720571106)" stroke-dasharray="10, 5" x1="71.75290609771582" y1="31.858364440409478" x2="23.917635365905273" y2="95.57509332122844"></line></g><g><line stroke="rgba(99.41%,78.18%,99.28%,1)" stroke-width="1.5" transform="translate(11.443789285483291, 337.44359720571106)" stroke-dasharray="10, 5" x1="23.917635365905273" y1="31.858364440409478" x2="71.75290609771582" y2="95.57509332122844"></line><line stroke="rgba(99.41%,78.18%,99.28%,1)" stroke-width="1.5" transform="translate(11.443789285483291, 337.44359720571106)" stroke-dasharray="10, 5" x1="71.75290609771582" y1="31.858364440409478" x2="23.917635365905273" y2="95.57509332122844"></line></g><g><line stroke="rgba(99.41%,78.18%,99.28%,1)" stroke-width="1.5" transform="translate(107.1143307491044, 337.44359720571106)" stroke-dasharray="10, 5" x1="23.917635365905273" y1="31.858364440409478" x2="71.75290609771582" y2="95.57509332122844"></line><line stroke="rgba(99.41%,78.18%,99.28%,1)" stroke-width="1.5" transform="translate(107.1143307491044, 337.44359720571106)" stroke-dasharray="10, 5" x1="71.75290609771582" y1="31.858364440409478" x2="23.917635365905273" y2="95.57509332122844"></line></g><g><line stroke="rgba(99.41%,78.18%,99.28%,1)" stroke-width="1.5" transform="translate(202.78487221272547, 337.44359720571106)" stroke-dasharray="10, 5" x1="23.917635365905273" y1="31.858364440409478" x2="71.75290609771582" y2="95.57509332122844"></line><line stroke="rgba(99.41%,78.18%,99.28%,1)" stroke-width="1.5" transform="translate(202.78487221272547, 337.44359720571106)" stroke-dasharray="10, 5" x1="71.75290609771582" y1="31.858364440409478" x2="23.917635365905273" y2="95.57509332122844"></line></g><g><line stroke="rgba(99.41%,78.18%,99.28%,1)" stroke-width="1.5" transform="translate(298.45541367634655, 337.44359720571106)" stroke-dasharray="10, 5" x1="23.917635365905273" y1="31.858364440409478" x2="71.75290609771582" y2="95.57509332122844"></line><line stroke="rgba(99.41%,78.18%,99.28%,1)" stroke-width="1.5" transform="translate(298.45541367634655, 337.44359720571106)" stroke-dasharray="10, 5" x1="71.75290609771582" y1="31.858364440409478" x2="23.917635365905273" y2="95.57509332122844"></line></g><g><line stroke="rgba(99.41%,78.18%,99.28%,1)" stroke-width="1.5" transform="translate(394.1259551399677, 337.44359720571106)" stroke-dasharray="10, 5" x1="23.917635365905273" y1="31.858364440409478" x2="71.75290609771582" y2="95.57509332122844"></line><line stroke="rgba(99.41%,78.18%,99.28%,1)" stroke-width="1.5" transform="translate(394.1259551399677, 337.44359720571106)" stroke-dasharray="10, 5" x1="71.75290609771582" y1="31.858364440409478" x2="23.917635365905273" y2="95.57509332122844"></line></g><g><line stroke="rgba(99.41%,78.18%,99.28%,1)" stroke-width="1.5" transform="translate(489.7964966035887, 337.44359720571106)" stroke-dasharray="10, 5" x1="23.917635365905273" y1="31.858364440409478" x2="71.75290609771582" y2="95.57509332122844"></line><line stroke="rgba(99.41%,78.18%,99.28%,1)" stroke-width="1.5" transform="translate(489.7964966035887, 337.44359720571106)" stroke-dasharray="10, 5" x1="71.75290609771582" y1="31.858364440409478" x2="23.917635365905273" y2="95.57509332122844"></line></g><g><line stroke="rgba(99.41%,78.18%,99.28%,1)" stroke-width="1.5" transform="translate(585.4670380672098, 337.44359720571106)" stroke-dasharray="10, 5" x1="23.917635365905273" y1="31.858364440409478" x2="71.75290609771582" y2="95.57509332122844"></line><line stroke="rgba(99.41%,78.18%,99.28%,1)" stroke-width="1.5" transform="translate(585.4670380672098, 337.44359720571106)" stroke-dasharray="10, 5" x1="71.75290609771582" y1="31.858364440409478" x2="23.917635365905273" y2="95.57509332122844"></line></g><g><line stroke="rgba(99.41%,78.18%,99.28%,1)" stroke-width="1.5" transform="translate(681.137579530831, 337.44359720571106)" stroke-dasharray="10, 5" x1="23.917635365905273" y1="31.858364440409478" x2="71.75290609771582" y2="95.57509332122844"></line><line stroke="rgba(99.41%,78.18%,99.28%,1)" stroke-width="1.5" transform="translate(681.137579530831, 337.44359720571106)" stroke-dasharray="10, 5" x1="71.75290609771582" y1="31.858364440409478" x2="23.917635365905273" y2="95.57509332122844"></line></g><g><line stroke="rgba(99.41%,78.18%,99.28%,1)" stroke-width="1.5" transform="translate(-36.391481446327255, 401.16032608652995)" stroke-dasharray="10, 5" x1="23.917635365905273" y1="31.858364440409478" x2="71.75290609771582" y2="95.57509332122844"></line><line stroke="rgba(99.41%,78.18%,99.28%,1)" stroke-width="1.5" transform="translate(-36.391481446327255, 401.16032608652995)" stroke-dasharray="10, 5" x1="71.75290609771582" y1="31.858364440409478" x2="23.917635365905273" y2="95.57509332122844"></line></g><g><line stroke="rgba(99.41%,78.18%,99.28%,1)" stroke-width="1.5" transform="translate(59.27906001729384, 401.16032608652995)" stroke-dasharray="10, 5" x1="23.917635365905273" y1="31.858364440409478" x2="71.75290609771582" y2="95.57509332122844"></line><line stroke="rgba(99.41%,78.18%,99.28%,1)" stroke-width="1.5" transform="translate(59.27906001729384, 401.16032608652995)" stroke-dasharray="10, 5" x1="71.75290609771582" y1="31.858364440409478" x2="23.917635365905273" y2="95.57509332122844"></line></g><g><line stroke="rgba(99.41%,78.18%,99.28%,1)" stroke-width="1.5" transform="translate(154.94960148091494, 401.16032608652995)" stroke-dasharray="10, 5" x1="23.917635365905273" y1="31.858364440409478" x2="71.75290609771582" y2="95.57509332122844"></line><line stroke="rgba(99.41%,78.18%,99.28%,1)" stroke-width="1.5" transform="translate(154.94960148091494, 401.16032608652995)" stroke-dasharray="10, 5" x1="71.75290609771582" y1="31.858364440409478" x2="23.917635365905273" y2="95.57509332122844"></line></g><g><line stroke="rgba(99.41%,78.18%,99.28%,1)" stroke-width="1.5" transform="translate(250.62014294453604, 401.16032608652995)" stroke-dasharray="10, 5" x1="23.917635365905273" y1="31.858364440409478" x2="71.75290609771582" y2="95.57509332122844"></line><line stroke="rgba(99.41%,78.18%,99.28%,1)" stroke-width="1.5" transform="translate(250.62014294453604, 401.16032608652995)" stroke-dasharray="10, 5" x1="71.75290609771582" y1="31.858364440409478" x2="23.917635365905273" y2="95.57509332122844"></line></g><g><line stroke="rgba(99.41%,78.18%,99.28%,1)" stroke-width="1.5" transform="translate(346.2906844081571, 401.16032608652995)" stroke-dasharray="10, 5" x1="23.917635365905273" y1="31.858364440409478" x2="71.75290609771582" y2="95.57509332122844"></line><line stroke="rgba(99.41%,78.18%,99.28%,1)" stroke-width="1.5" transform="translate(346.2906844081571, 401.16032608652995)" stroke-dasharray="10, 5" x1="71.75290609771582" y1="31.858364440409478" x2="23.917635365905273" y2="95.57509332122844"></line></g><g><line stroke="rgba(99.41%,78.18%,99.28%,1)" stroke-width="1.5" transform="translate(441.9612258717782, 401.16032608652995)" stroke-dasharray="10, 5" x1="23.917635365905273" y1="31.858364440409478" x2="71.75290609771582" y2="95.57509332122844"></line><line stroke="rgba(99.41%,78.18%,99.28%,1)" stroke-width="1.5" transform="translate(441.9612258717782, 401.16032608652995)" stroke-dasharray="10, 5" x1="71.75290609771582" y1="31.858364440409478" x2="23.917635365905273" y2="95.57509332122844"></line></g><g><line stroke="rgba(99.41%,78.18%,99.28%,1)" stroke-width="1.5" transform="translate(537.6317673353993, 401.16032608652995)" stroke-dasharray="10, 5" x1="23.917635365905273" y1="31.858364440409478" x2="71.75290609771582" y2="95.57509332122844"></line><line stroke="rgba(99.41%,78.18%,99.28%,1)" stroke-width="1.5" transform="translate(537.6317673353993, 401.16032608652995)" stroke-dasharray="10, 5" x1="71.75290609771582" y1="31.858364440409478" x2="23.917635365905273" y2="95.57509332122844"></line></g><g><line stroke="rgba(99.41%,78.18%,99.28%,1)" stroke-width="1.5" transform="translate(633.3023087990204, 401.16032608652995)" stroke-dasharray="10, 5" x1="23.917635365905273" y1="31.858364440409478" x2="71.75290609771582" y2="95.57509332122844"></line><line stroke="rgba(99.41%,78.18%,99.28%,1)" stroke-width="1.5" transform="translate(633.3023087990204, 401.16032608652995)" stroke-dasharray="10, 5" x1="71.75290609771582" y1="31.858364440409478" x2="23.917635365905273" y2="95.57509332122844"></line></g><g><line stroke="rgba(99.41%,78.18%,99.28%,1)" stroke-width="1.5" transform="translate(728.9728502626415, 401.16032608652995)" stroke-dasharray="10, 5" x1="23.917635365905273" y1="31.858364440409478" x2="71.75290609771582" y2="95.57509332122844"></line><line stroke="rgba(99.41%,78.18%,99.28%,1)" stroke-width="1.5" transform="translate(728.9728502626415, 401.16032608652995)" stroke-dasharray="10, 5" x1="71.75290609771582" y1="31.858364440409478" x2="23.917635365905273" y2="95.57509332122844"></line></g><g><line stroke="rgba(99.41%,78.18%,99.28%,1)" stroke-width="1.5" transform="translate(-84.2267521781378, 464.87705496734895)" stroke-dasharray="10, 5" x1="23.917635365905273" y1="31.858364440409478" x2="71.75290609771582" y2="95.57509332122844"></line><line stroke="rgba(99.41%,78.18%,99.28%,1)" stroke-width="1.5" transform="translate(-84.2267521781378, 464.87705496734895)" stroke-dasharray="10, 5" x1="71.75290609771582" y1="31.858364440409478" x2="23.917635365905273" y2="95.57509332122844"></line></g><g><line stroke="rgba(99.41%,78.18%,99.28%,1)" stroke-width="1.5" transform="translate(11.443789285483291, 464.87705496734895)" stroke-dasharray="10, 5" x1="23.917635365905273" y1="31.858364440409478" x2="71.75290609771582" y2="95.57509332122844"></line><line stroke="rgba(99.41%,78.18%,99.28%,1)" stroke-width="1.5" transform="translate(11.443789285483291, 464.87705496734895)" stroke-dasharray="10, 5" x1="71.75290609771582" y1="31.858364440409478" x2="23.917635365905273" y2="95.57509332122844"></line></g><g><line stroke="rgba(99.41%,78.18%,99.28%,1)" stroke-width="1.5" transform="translate(107.1143307491044, 464.87705496734895)" stroke-dasharray="10, 5" x1="23.917635365905273" y1="31.858364440409478" x2="71.75290609771582" y2="95.57509332122844"></line><line stroke="rgba(99.41%,78.18%,99.28%,1)" stroke-width="1.5" transform="translate(107.1143307491044, 464.87705496734895)" stroke-dasharray="10, 5" x1="71.75290609771582" y1="31.858364440409478" x2="23.917635365905273" y2="95.57509332122844"></line></g><g><line stroke="rgba(99.41%,78.18%,99.28%,1)" stroke-width="1.5" transform="translate(202.78487221272547, 464.87705496734895)" stroke-dasharray="10, 5" x1="23.917635365905273" y1="31.858364440409478" x2="71.75290609771582" y2="95.57509332122844"></line><line stroke="rgba(99.41%,78.18%,99.28%,1)" stroke-width="1.5" transform="translate(202.78487221272547, 464.87705496734895)" stroke-dasharray="10, 5" x1="71.75290609771582" y1="31.858364440409478" x2="23.917635365905273" y2="95.57509332122844"></line></g><g><line stroke="rgba(99.41%,78.18%,99.28%,1)" stroke-width="1.5" transform="translate(298.45541367634655, 464.87705496734895)" stroke-dasharray="10, 5" x1="23.917635365905273" y1="31.858364440409478" x2="71.75290609771582" y2="95.57509332122844"></line><line stroke="rgba(99.41%,78.18%,99.28%,1)" stroke-width="1.5" transform="translate(298.45541367634655, 464.87705496734895)" stroke-dasharray="10, 5" x1="71.75290609771582" y1="31.858364440409478" x2="23.917635365905273" y2="95.57509332122844"></line></g><g><line stroke="rgba(99.41%,78.18%,99.28%,1)" stroke-width="1.5" transform="translate(394.1259551399677, 464.87705496734895)" stroke-dasharray="10, 5" x1="23.917635365905273" y1="31.858364440409478" x2="71.75290609771582" y2="95.57509332122844"></line><line stroke="rgba(99.41%,78.18%,99.28%,1)" stroke-width="1.5" transform="translate(394.1259551399677, 464.87705496734895)" stroke-dasharray="10, 5" x1="71.75290609771582" y1="31.858364440409478" x2="23.917635365905273" y2="95.57509332122844"></line></g><g><line stroke="rgba(99.41%,78.18%,99.28%,1)" stroke-width="1.5" transform="translate(489.7964966035887, 464.87705496734895)" stroke-dasharray="10, 5" x1="23.917635365905273" y1="31.858364440409478" x2="71.75290609771582" y2="95.57509332122844"></line><line stroke="rgba(99.41%,78.18%,99.28%,1)" stroke-width="1.5" transform="translate(489.7964966035887, 464.87705496734895)" stroke-dasharray="10, 5" x1="71.75290609771582" y1="31.858364440409478" x2="23.917635365905273" y2="95.57509332122844"></line></g><g><line stroke="rgba(99.41%,78.18%,99.28%,1)" stroke-width="1.5" transform="translate(585.4670380672098, 464.87705496734895)" stroke-dasharray="10, 5" x1="23.917635365905273" y1="31.858364440409478" x2="71.75290609771582" y2="95.57509332122844"></line><line stroke="rgba(99.41%,78.18%,99.28%,1)" stroke-width="1.5" transform="translate(585.4670380672098, 464.87705496734895)" stroke-dasharray="10, 5" x1="71.75290609771582" y1="31.858364440409478" x2="23.917635365905273" y2="95.57509332122844"></line></g><g><line stroke="rgba(99.41%,78.18%,99.28%,1)" stroke-width="1.5" transform="translate(681.137579530831, 464.87705496734895)" stroke-dasharray="10, 5" x1="23.917635365905273" y1="31.858364440409478" x2="71.75290609771582" y2="95.57509332122844"></line><line stroke="rgba(99.41%,78.18%,99.28%,1)" stroke-width="1.5" transform="translate(681.137579530831, 464.87705496734895)" stroke-dasharray="10, 5" x1="71.75290609771582" y1="31.858364440409478" x2="23.917635365905273" y2="95.57509332122844"></line></g><g><line stroke="rgba(99.41%,78.18%,99.28%,1)" stroke-width="1.5" transform="translate(-36.391481446327255, 528.5937838481678)" stroke-dasharray="10, 5" x1="23.917635365905273" y1="31.858364440409478" x2="71.75290609771582" y2="95.57509332122844"></line><line stroke="rgba(99.41%,78.18%,99.28%,1)" stroke-width="1.5" transform="translate(-36.391481446327255, 528.5937838481678)" stroke-dasharray="10, 5" x1="71.75290609771582" y1="31.858364440409478" x2="23.917635365905273" y2="95.57509332122844"></line></g><g><line stroke="rgba(99.41%,78.18%,99.28%,1)" stroke-width="1.5" transform="translate(59.27906001729384, 528.5937838481678)" stroke-dasharray="10, 5" x1="23.917635365905273" y1="31.858364440409478" x2="71.75290609771582" y2="95.57509332122844"></line><line stroke="rgba(99.41%,78.18%,99.28%,1)" stroke-width="1.5" transform="translate(59.27906001729384, 528.5937838481678)" stroke-dasharray="10, 5" x1="71.75290609771582" y1="31.858364440409478" x2="23.917635365905273" y2="95.57509332122844"></line></g><g><line stroke="rgba(99.41%,78.18%,99.28%,1)" stroke-width="1.5" transform="translate(154.94960148091494, 528.5937838481678)" stroke-dasharray="10, 5" x1="23.917635365905273" y1="31.858364440409478" x2="71.75290609771582" y2="95.57509332122844"></line><line stroke="rgba(99.41%,78.18%,99.28%,1)" stroke-width="1.5" transform="translate(154.94960148091494, 528.5937838481678)" stroke-dasharray="10, 5" x1="71.75290609771582" y1="31.858364440409478" x2="23.917635365905273" y2="95.57509332122844"></line></g><g><line stroke="rgba(99.41%,78.18%,99.28%,1)" stroke-width="1.5" transform="translate(250.62014294453604, 528.5937838481678)" stroke-dasharray="10, 5" x1="23.917635365905273" y1="31.858364440409478" x2="71.75290609771582" y2="95.57509332122844"></line><line stroke="rgba(99.41%,78.18%,99.28%,1)" stroke-width="1.5" transform="translate(250.62014294453604, 528.5937838481678)" stroke-dasharray="10, 5" x1="71.75290609771582" y1="31.858364440409478" x2="23.917635365905273" y2="95.57509332122844"></line></g><g><line stroke="rgba(99.41%,78.18%,99.28%,1)" stroke-width="1.5" transform="translate(346.2906844081571, 528.5937838481678)" stroke-dasharray="10, 5" x1="23.917635365905273" y1="31.858364440409478" x2="71.75290609771582" y2="95.57509332122844"></line><line stroke="rgba(99.41%,78.18%,99.28%,1)" stroke-width="1.5" transform="translate(346.2906844081571, 528.5937838481678)" stroke-dasharray="10, 5" x1="71.75290609771582" y1="31.858364440409478" x2="23.917635365905273" y2="95.57509332122844"></line></g><g><line stroke="rgba(99.41%,78.18%,99.28%,1)" stroke-width="1.5" transform="translate(441.9612258717782, 528.5937838481678)" stroke-dasharray="10, 5" x1="23.917635365905273" y1="31.858364440409478" x2="71.75290609771582" y2="95.57509332122844"></line><line stroke="rgba(99.41%,78.18%,99.28%,1)" stroke-width="1.5" transform="translate(441.9612258717782, 528.5937838481678)" stroke-dasharray="10, 5" x1="71.75290609771582" y1="31.858364440409478" x2="23.917635365905273" y2="95.57509332122844"></line></g><g><line stroke="rgba(99.41%,78.18%,99.28%,1)" stroke-width="1.5" transform="translate(537.6317673353993, 528.5937838481678)" stroke-dasharray="10, 5" x1="23.917635365905273" y1="31.858364440409478" x2="71.75290609771582" y2="95.57509332122844"></line><line stroke="rgba(99.41%,78.18%,99.28%,1)" stroke-width="1.5" transform="translate(537.6317673353993, 528.5937838481678)" stroke-dasharray="10, 5" x1="71.75290609771582" y1="31.858364440409478" x2="23.917635365905273" y2="95.57509332122844"></line></g><g><line stroke="rgba(99.41%,78.18%,99.28%,1)" stroke-width="1.5" transform="translate(633.3023087990204, 528.5937838481678)" stroke-dasharray="10, 5" x1="23.917635365905273" y1="31.858364440409478" x2="71.75290609771582" y2="95.57509332122844"></line><line stroke="rgba(99.41%,78.18%,99.28%,1)" stroke-width="1.5" transform="translate(633.3023087990204, 528.5937838481678)" stroke-dasharray="10, 5" x1="71.75290609771582" y1="31.858364440409478" x2="23.917635365905273" y2="95.57509332122844"></line></g><g><line stroke="rgba(99.41%,78.18%,99.28%,1)" stroke-width="1.5" transform="translate(728.9728502626415, 528.5937838481678)" stroke-dasharray="10, 5" x1="23.917635365905273" y1="31.858364440409478" x2="71.75290609771582" y2="95.57509332122844"></line><line stroke="rgba(99.41%,78.18%,99.28%,1)" stroke-width="1.5" transform="translate(728.9728502626415, 528.5937838481678)" stroke-dasharray="10, 5" x1="71.75290609771582" y1="31.858364440409478" x2="23.917635365905273" y2="95.57509332122844"></line></g></g></g></svg>