<?xml version="1.0" standalone="no"?>
<svg xmlns:xlink="http://www.w3.org/1999/xlink" xmlns="http://www.w3.org/2000/svg" width="500" height="500"><polygon points="0,-200 8,-200 8,-192 16,-192 16,-200 24,-200 32,-200 32,-192 40,-192 40,-184 40,-176 32,-176 32,-168 24,-168 16,-168 16,-160 16,-152 8,-152 8,-160 0,-160 0,-168 -8,-168 -8,-176 -16,-176 -24,-176 -24,-184 -16,-184 -8,-184 -8,-192 0,-192 0,-200" fill="rgba(93.33%,93.33%,92.55%,1)" stroke="black" stroke-width="1"></polygon><polygon points="0,-160 8,-160 8,-152 16,-152 16,-160 24,-160 32,-160 32,-152 40,-152 40,-144 40,-136 32,-136 32,-128 24,-128 16,-128 16,-120 16,-112 8,-112 8,-120 0,-120 0,-128 -8,-128 -8,-136 -16,-136 -24,-136 -24,-144 -16,-144 -8,-144 -8,-152 0,-152 0,-160" fill="rgba(100%,100%,100%,1)" stroke="black" stroke-width="1"></polygon><polygon points="0,-120 8,-120 8,-112 16,-112 16,-120 24,-120 32,-120 32,-112 40,-112 40,-104 40,-96 32,-96 32,-88 24,-88 16,-88 16,-80 16,-72 8,-72 8,-80 0,-80 0,-88 -8,-88 -8,-96 -16,-96 -24,-96 -24,-104 -16,-104 -8,-104 -8,-112 0,-112 0,-120" fill="rgba(93.33%,93.33%,92.55%,1)" stroke="black" stroke-width="1"></polygon><polygon points="0,-80 8,-80 8,-72 16,-72 16,-80 24,-80 32,-80 32,-72 40,-72 40,-64 40,-56 32,-56 32,-48 24,-48 16,-48 16,-40 16,-32 8,-32 8,-40 0,-40 0,-48 -8,-48 -8,-56 -16,-56 -24,-56 -24,-64 -16,-64 -8,-64 -8,-72 0,-72 0,-80" fill="rgba(100%,100%,100%,1)" stroke="black" stroke-width="1"></polygon><polygon points="0,-40 8,-40 8,-32 16,-32 16,-40 24,-40 32,-40 32,-32 40,-32 40,-24 40,-16 32,-16 32,-8 24,-8 16,-8 16,0 16,8 8,8 8,0 0,0 0,-8 -8,-8 -8,-16 -16,-16 -24,-16 -24,-24 -16,-24 -8,-24 -8,-32 0,-32 0,-40" fill="rgba(93.33%,93.33%,92.55%,1)" stroke="black" stroke-width="1"></polygon><polygon points="0,0 8,0 8,8 16,8 16,0 24,0 32,0 32,8 40,8 40,16 40,24 32,24 32,32 24,32 16,32 16,40 16,48 8,48 8,40 0,40 0,32 -8,32 -8,24 -16,24 -24,24 -24,16 -16,16 -8,16 -8,8 0,8 0,0" fill="rgba(100%,100%,100%,1)" stroke="black" stroke-width="1"></polygon><polygon points="0,40 8,40 8,48 16,48 16,40 24,40 32,40 32,48 40,48 40,56 40,64 32,64 32,72 24,72 16,72 16,80 16,88 8,88 8,80 0,80 0,72 -8,72 -8,64 -16,64 -24,64 -24,56 -16,56 -8,56 -8,48 0,48 0,40" fill="rgba(93.33%,93.33%,92.55%,1)" stroke="black" stroke-width="1"></polygon><polygon points="0,80 8,80 8,88 16,88 16,80 24,80 32,80 32,88 40,88 40,96 40,104 32,104 32,112 24,112 16,112 16,120 16,128 8,128 8,120 0,120 0,112 -8,112 -8,104 -16,104 -24,104 -24,96 -16,96 -8,96 -8,88 0,88 0,80" fill="rgba(100%,100%,100%,1)" stroke="black" stroke-width="1"></polygon><polygon points="0,120 8,120 8,128 16,128 16,120 24,120 32,120 32,128 40,128 40,136 40,144 32,144 32,152 24,152 16,152 16,160 16,168 8,168 8,160 0,160 0,152 -8,152 -8,144 -16,144 -24,144 -24,136 -16,136 -8,136 -8,128 0,128 0,120" fill="rgba(93.33%,93.33%,92.55%,1)" stroke="black" stroke-width="1"></polygon><polygon points="0,160 8,160 8,168 16,168 16,160 24,160 32,160 32,168 40,168 40,176 40,184 32,184 32,192 24,192 16,192 16,200 16,208 8,208 8,200 0,200 0,192 -8,192 -8,184 -16,184 -24,184 -24,176 -16,176 -8,176 -8,168 0,168 0,160" fill="rgba(100%,100%,100%,1)" stroke="black" stroke-width="1"></polygon><polygon points="0,200 8,200 8,208 16,208 16,200 24,200 32,200 32,208 40,208 40,216 40,224 32,224 32,232 24,232 16,232 16,240 16,248 8,248 8,240 0,240 0,232 -8,232 -8,224 -16,224 -24,224 -24,216 -16,216 -8,216 -8,208 0,208 0,200" fill="rgba(93.33%,93.33%,92.55%,1)" stroke="black" stroke-width="1"></polygon><polygon points="0,240 8,240 8,248 16,248 16,240 24,240 32,240 32,248 40,248 40,256 40,264 32,264 32,272 24,272 16,272 16,280 16,288 8,288 8,280 0,280 0,272 -8,272 -8,264 -16,264 -24,264 -24,256 -16,256 -8,256 -8,248 0,248 0,240" fill="rgba(100%,100%,100%,1)" stroke="black" stroke-width="1"></polygon><polygon points="0,280 8,280 8,288 16,288 16,280 24,280 32,280 32,288 40,288 40,296 40,304 32,304 32,312 24,312 16,312 16,320 16,328 8,328 8,320 0,320 0,312 -8,312 -8,304 -16,304 -24,304 -24,296 -16,296 -8,296 -8,288 0,288 0,280" fill="rgba(93.33%,93.33%,92.55%,1)" stroke="black" stroke-width="1"></polygon><polygon points="0,320 8,320 8,328 16,328 16,320 24,320 32,320 32,328 40,328 40,336 40,344 32,344 32,352 24,352 16,352 16,360 16,368 8,368 8,360 0,360 0,352 -8,352 -8,344 -16,344 -24,344 -24,336 -16,336 -8,336 -8,328 0,328 0,320" fill="rgba(100%,100%,100%,1)" stroke="black" stroke-width="1"></polygon><polygon points="0,360 8,360 8,368 16,368 16,360 24,360 32,360 32,368 40,368 40,376 40,384 32,384 32,392 24,392 16,392 16,400 16,408 8,408 8,400 0,400 0,392 -8,392 -8,384 -16,384 -24,384 -24,376 -16,376 -8,376 -8,368 0,368 0,360" fill="rgba(93.33%,93.33%,92.55%,1)" stroke="black" stroke-width="1"></polygon><polygon points="0,400 8,400 8,408 16,408 16,400 24,400 32,400 32,408 40,408 40,416 40,424 32,424 32,432 24,432 16,432 16,440 16,448 8,448 8,440 0,440 0,432 -8,432 -8,424 -16,424 -24,424 -24,416 -16,416 -8,416 -8,408 0,408 0,400" fill="rgba(100%,100%,100%,1)" stroke="black" stroke-width="1"></polygon><polygon points="0,440 8,440 8,448 16,448 16,440 24,440 32,440 32,448 40,448 40,456 40,464 32,464 32,472 24,472 16,472 16,480 16,488 8,488 8,480 0,480 0,472 -8,472 -8,464 -16,464 -24,464 -24,456 -16,456 -8,456 -8,448 0,448 0,440" fill="rgba(93.33%,93.33%,92.55%,1)" stroke="black" stroke-width="1"></polygon><polygon points="0,480 8,480 8,488 16,488 16,480 24,480 32,480 32,488 40,488 40,496 40,504 32,504 32,512 24,512 16,512 16,520 16,528 8,528 8,520 0,520 0,512 -8,512 -8,504 -16,504 -24,504 -24,496 -16,496 -8,496 -8,488 0,488 0,480" fill="rgba(100%,100%,100%,1)" stroke="black" stroke-width="1"></polygon><polygon points="0,520 8,520 8,528 16,528 16,520 24,520 32,520 32,528 40,528 40,536 40,544 32,544 32,552 24,552 16,552 16,560 16,568 8,568 8,560 0,560 0,552 -8,552 -8,544 -16,544 -24,544 -24,536 -16,536 -8,536 -8,528 0,528 0,520" fill="rgba(93.33%,93.33%,92.55%,1)" stroke="black" stroke-width="1"></polygon><polygon points="40,-184 48,-184 48,-176 56,-176 56,-184 64,-184 72,-184 72,-176 80,-176 80,-168 80,-160 72,-160 72,-152 64,-152 56,-152 56,-144 56,-136 48,-136 48,-144 40,-144 40,-152 32,-152 32,-160 24,-160 16,-160 16,-168 24,-168 32,-168 32,-176 40,-176 40,-184" fill="rgba(72.94%,74.12%,71.37%,1)" stroke="black" stroke-width="1"></polygon><polygon points="40,-144 48,-144 48,-136 56,-136 56,-144 64,-144 72,-144 72,-136 80,-136 80,-128 80,-120 72,-120 72,-112 64,-112 56,-112 56,-104 56,-96 48,-96 48,-104 40,-104 40,-112 32,-112 32,-120 24,-120 16,-120 16,-128 24,-128 32,-128 32,-136 40,-136 40,-144" fill="rgba(82.75%,84.31%,81.18%,1)" stroke="black" stroke-width="1"></polygon><polygon points="40,-104 48,-104 48,-96 56,-96 56,-104 64,-104 72,-104 72,-96 80,-96 80,-88 80,-80 72,-80 72,-72 64,-72 56,-72 56,-64 56,-56 48,-56 48,-64 40,-64 40,-72 32,-72 32,-80 24,-80 16,-80 16,-88 24,-88 32,-88 32,-96 40,-96 40,-104" fill="rgba(72.94%,74.12%,71.37%,1)" stroke="black" stroke-width="1"></polygon><polygon points="40,-64 48,-64 48,-56 56,-56 56,-64 64,-64 72,-64 72,-56 80,-56 80,-48 80,-40 72,-40 72,-32 64,-32 56,-32 56,-24 56,-16 48,-16 48,-24 40,-24 40,-32 32,-32 32,-40 24,-40 16,-40 16,-48 24,-48 32,-48 32,-56 40,-56 40,-64" fill="rgba(82.75%,84.31%,81.18%,1)" stroke="black" stroke-width="1"></polygon><polygon points="40,-24 48,-24 48,-16 56,-16 56,-24 64,-24 72,-24 72,-16 80,-16 80,-8 80,0 72,0 72,8 64,8 56,8 56,16 56,24 48,24 48,16 40,16 40,8 32,8 32,0 24,0 16,0 16,-8 24,-8 32,-8 32,-16 40,-16 40,-24" fill="rgba(72.94%,74.12%,71.37%,1)" stroke="black" stroke-width="1"></polygon><polygon points="40,16 48,16 48,24 56,24 56,16 64,16 72,16 72,24 80,24 80,32 80,40 72,40 72,48 64,48 56,48 56,56 56,64 48,64 48,56 40,56 40,48 32,48 32,40 24,40 16,40 16,32 24,32 32,32 32,24 40,24 40,16" fill="rgba(82.75%,84.31%,81.18%,1)" stroke="black" stroke-width="1"></polygon><polygon points="40,56 48,56 48,64 56,64 56,56 64,56 72,56 72,64 80,64 80,72 80,80 72,80 72,88 64,88 56,88 56,96 56,104 48,104 48,96 40,96 40,88 32,88 32,80 24,80 16,80 16,72 24,72 32,72 32,64 40,64 40,56" fill="rgba(72.94%,74.12%,71.37%,1)" stroke="black" stroke-width="1"></polygon><polygon points="40,96 48,96 48,104 56,104 56,96 64,96 72,96 72,104 80,104 80,112 80,120 72,120 72,128 64,128 56,128 56,136 56,144 48,144 48,136 40,136 40,128 32,128 32,120 24,120 16,120 16,112 24,112 32,112 32,104 40,104 40,96" fill="rgba(82.75%,84.31%,81.18%,1)" stroke="black" stroke-width="1"></polygon><polygon points="40,136 48,136 48,144 56,144 56,136 64,136 72,136 72,144 80,144 80,152 80,160 72,160 72,168 64,168 56,168 56,176 56,184 48,184 48,176 40,176 40,168 32,168 32,160 24,160 16,160 16,152 24,152 32,152 32,144 40,144 40,136" fill="rgba(72.94%,74.12%,71.37%,1)" stroke="black" stroke-width="1"></polygon><polygon points="40,176 48,176 48,184 56,184 56,176 64,176 72,176 72,184 80,184 80,192 80,200 72,200 72,208 64,208 56,208 56,216 56,224 48,224 48,216 40,216 40,208 32,208 32,200 24,200 16,200 16,192 24,192 32,192 32,184 40,184 40,176" fill="rgba(82.75%,84.31%,81.18%,1)" stroke="black" stroke-width="1"></polygon><polygon points="40,216 48,216 48,224 56,224 56,216 64,216 72,216 72,224 80,224 80,232 80,240 72,240 72,248 64,248 56,248 56,256 56,264 48,264 48,256 40,256 40,248 32,248 32,240 24,240 16,240 16,232 24,232 32,232 32,224 40,224 40,216" fill="rgba(72.94%,74.12%,71.37%,1)" stroke="black" stroke-width="1"></polygon><polygon points="40,256 48,256 48,264 56,264 56,256 64,256 72,256 72,264 80,264 80,272 80,280 72,280 72,288 64,288 56,288 56,296 56,304 48,304 48,296 40,296 40,288 32,288 32,280 24,280 16,280 16,272 24,272 32,272 32,264 40,264 40,256" fill="rgba(82.75%,84.31%,81.18%,1)" stroke="black" stroke-width="1"></polygon><polygon points="40,296 48,296 48,304 56,304 56,296 64,296 72,296 72,304 80,304 80,312 80,320 72,320 72,328 64,328 56,328 56,336 56,344 48,344 48,336 40,336 40,328 32,328 32,320 24,320 16,320 16,312 24,312 32,312 32,304 40,304 40,296" fill="rgba(72.94%,74.12%,71.37%,1)" stroke="black" stroke-width="1"></polygon><polygon points="40,336 48,336 48,344 56,344 56,336 64,336 72,336 72,344 80,344 80,352 80,360 72,360 72,368 64,368 56,368 56,376 56,384 48,384 48,376 40,376 40,368 32,368 32,360 24,360 16,360 16,352 24,352 32,352 32,344 40,344 40,336" fill="rgba(82.75%,84.31%,81.18%,1)" stroke="black" stroke-width="1"></polygon><polygon points="40,376 48,376 48,384 56,384 56,376 64,376 72,376 72,384 80,384 80,392 80,400 72,400 72,408 64,408 56,408 56,416 56,424 48,424 48,416 40,416 40,408 32,408 32,400 24,400 16,400 16,392 24,392 32,392 32,384 40,384 40,376" fill="rgba(72.94%,74.12%,71.37%,1)" stroke="black" stroke-width="1"></polygon><polygon points="40,416 48,416 48,424 56,424 56,416 64,416 72,416 72,424 80,424 80,432 80,440 72,440 72,448 64,448 56,448 56,456 56,464 48,464 48,456 40,456 40,448 32,448 32,440 24,440 16,440 16,432 24,432 32,432 32,424 40,424 40,416" fill="rgba(82.75%,84.31%,81.18%,1)" stroke="black" stroke-width="1"></polygon><polygon points="40,456 48,456 48,464 56,464 56,456 64,456 72,456 72,464 80,464 80,472 80,480 72,480 72,488 64,488 56,488 56,496 56,504 48,504 48,496 40,496 40,488 32,488 32,480 24,480 16,480 16,472 24,472 32,472 32,464 40,464 40,456" fill="rgba(72.94%,74.12%,71.37%,1)" stroke="black" stroke-width="1"></polygon><polygon points="40,496 48,496 48,504 56,504 56,496 64,496 72,496 72,504 80,504 80,512 80,520 72,520 72,528 64,528 56,528 56,536 56,544 48,544 48,536 40,536 40,528 32,528 32,520 24,520 16,520 16,512 24,512 32,512 32,504 40,504 40,496" fill="rgba(82.75%,84.31%,81.18%,1)" stroke="black" stroke-width="1"></polygon><polygon points="40,536 48,536 48,544 56,544 56,536 64,536 72,536 72,544 80,544 80,552 80,560 72,560 72,568 64,568 56,568 56,576 56,584 48,584 48,576 40,576 40,568 32,568 32,560 24,560 16,560 16,552 24,552 32,552 32,544 40,544 40,536" fill="rgba(72.94%,74.12%,71.37%,1)" stroke="black" stroke-width="1"></polygon><polygon points="80,-168 88,-168 88,-160 96,-160 96,-168 104,-168 112,-168 112,-160 120,-160 120,-152 120,-144 112,-144 112,-136 104,-136 96,-136 96,-128 96,-120 88,-120 88,-128 80,-128 80,-136 72,-136 72,-144 64,-144 56,-144 56,-152 64,-152 72,-152 72,-160 80,-160 80,-168" fill="rgba(93.33%,93.33%,92.55%,1)" stroke="black" stroke-width="1"></polygon><polygon points="80,-128 88,-128 88,-120 96,-120 96,-128 104,-128 112,-128 112,-120 120,-120 120,-112 120,-104 112,-104 112,-96 104,-96 96,-96 96,-88 96,-80 88,-80 88,-88 80,-88 80,-96 72,-96 72,-104 64,-104 56,-104 56,-112 64,-112 72,-112 72,-120 80,-120 80,-128" fill="rgba(100%,100%,100%,1)" stroke="black" stroke-width="1"></polygon><polygon points="80,-88 88,-88 88,-80 96,-80 96,-88 104,-88 112,-88 112,-80 120,-80 120,-72 120,-64 112,-64 112,-56 104,-56 96,-56 96,-48 96,-40 88,-40 88,-48 80,-48 80,-56 72,-56 72,-64 64,-64 56,-64 56,-72 64,-72 72,-72 72,-80 80,-80 80,-88" fill="rgba(93.33%,93.33%,92.55%,1)" stroke="black" stroke-width="1"></polygon><polygon points="80,-48 88,-48 88,-40 96,-40 96,-48 104,-48 112,-48 112,-40 120,-40 120,-32 120,-24 112,-24 112,-16 104,-16 96,-16 96,-8 96,0 88,0 88,-8 80,-8 80,-16 72,-16 72,-24 64,-24 56,-24 56,-32 64,-32 72,-32 72,-40 80,-40 80,-48" fill="rgba(100%,100%,100%,1)" stroke="black" stroke-width="1"></polygon><polygon points="80,-8 88,-8 88,0 96,0 96,-8 104,-8 112,-8 112,0 120,0 120,8 120,16 112,16 112,24 104,24 96,24 96,32 96,40 88,40 88,32 80,32 80,24 72,24 72,16 64,16 56,16 56,8 64,8 72,8 72,0 80,0 80,-8" fill="rgba(93.33%,93.33%,92.55%,1)" stroke="black" stroke-width="1"></polygon><polygon points="80,32 88,32 88,40 96,40 96,32 104,32 112,32 112,40 120,40 120,48 120,56 112,56 112,64 104,64 96,64 96,72 96,80 88,80 88,72 80,72 80,64 72,64 72,56 64,56 56,56 56,48 64,48 72,48 72,40 80,40 80,32" fill="rgba(100%,100%,100%,1)" stroke="black" stroke-width="1"></polygon><polygon points="80,72 88,72 88,80 96,80 96,72 104,72 112,72 112,80 120,80 120,88 120,96 112,96 112,104 104,104 96,104 96,112 96,120 88,120 88,112 80,112 80,104 72,104 72,96 64,96 56,96 56,88 64,88 72,88 72,80 80,80 80,72" fill="rgba(93.33%,93.33%,92.55%,1)" stroke="black" stroke-width="1"></polygon><polygon points="80,112 88,112 88,120 96,120 96,112 104,112 112,112 112,120 120,120 120,128 120,136 112,136 112,144 104,144 96,144 96,152 96,160 88,160 88,152 80,152 80,144 72,144 72,136 64,136 56,136 56,128 64,128 72,128 72,120 80,120 80,112" fill="rgba(100%,100%,100%,1)" stroke="black" stroke-width="1"></polygon><polygon points="80,152 88,152 88,160 96,160 96,152 104,152 112,152 112,160 120,160 120,168 120,176 112,176 112,184 104,184 96,184 96,192 96,200 88,200 88,192 80,192 80,184 72,184 72,176 64,176 56,176 56,168 64,168 72,168 72,160 80,160 80,152" fill="rgba(93.33%,93.33%,92.55%,1)" stroke="black" stroke-width="1"></polygon><polygon points="80,192 88,192 88,200 96,200 96,192 104,192 112,192 112,200 120,200 120,208 120,216 112,216 112,224 104,224 96,224 96,232 96,240 88,240 88,232 80,232 80,224 72,224 72,216 64,216 56,216 56,208 64,208 72,208 72,200 80,200 80,192" fill="rgba(100%,100%,100%,1)" stroke="black" stroke-width="1"></polygon><polygon points="80,232 88,232 88,240 96,240 96,232 104,232 112,232 112,240 120,240 120,248 120,256 112,256 112,264 104,264 96,264 96,272 96,280 88,280 88,272 80,272 80,264 72,264 72,256 64,256 56,256 56,248 64,248 72,248 72,240 80,240 80,232" fill="rgba(93.33%,93.33%,92.55%,1)" stroke="black" stroke-width="1"></polygon><polygon points="80,272 88,272 88,280 96,280 96,272 104,272 112,272 112,280 120,280 120,288 120,296 112,296 112,304 104,304 96,304 96,312 96,320 88,320 88,312 80,312 80,304 72,304 72,296 64,296 56,296 56,288 64,288 72,288 72,280 80,280 80,272" fill="rgba(100%,100%,100%,1)" stroke="black" stroke-width="1"></polygon><polygon points="80,312 88,312 88,320 96,320 96,312 104,312 112,312 112,320 120,320 120,328 120,336 112,336 112,344 104,344 96,344 96,352 96,360 88,360 88,352 80,352 80,344 72,344 72,336 64,336 56,336 56,328 64,328 72,328 72,320 80,320 80,312" fill="rgba(93.33%,93.33%,92.55%,1)" stroke="black" stroke-width="1"></polygon><polygon points="80,352 88,352 88,360 96,360 96,352 104,352 112,352 112,360 120,360 120,368 120,376 112,376 112,384 104,384 96,384 96,392 96,400 88,400 88,392 80,392 80,384 72,384 72,376 64,376 56,376 56,368 64,368 72,368 72,360 80,360 80,352" fill="rgba(100%,100%,100%,1)" stroke="black" stroke-width="1"></polygon><polygon points="80,392 88,392 88,400 96,400 96,392 104,392 112,392 112,400 120,400 120,408 120,416 112,416 112,424 104,424 96,424 96,432 96,440 88,440 88,432 80,432 80,424 72,424 72,416 64,416 56,416 56,408 64,408 72,408 72,400 80,400 80,392" fill="rgba(93.33%,93.33%,92.55%,1)" stroke="black" stroke-width="1"></polygon><polygon points="80,432 88,432 88,440 96,440 96,432 104,432 112,432 112,440 120,440 120,448 120,456 112,456 112,464 104,464 96,464 96,472 96,480 88,480 88,472 80,472 80,464 72,464 72,456 64,456 56,456 56,448 64,448 72,448 72,440 80,440 80,432" fill="rgba(100%,100%,100%,1)" stroke="black" stroke-width="1"></polygon><polygon points="80,472 88,472 88,480 96,480 96,472 104,472 112,472 112,480 120,480 120,488 120,496 112,496 112,504 104,504 96,504 96,512 96,520 88,520 88,512 80,512 80,504 72,504 72,496 64,496 56,496 56,488 64,488 72,488 72,480 80,480 80,472" fill="rgba(93.33%,93.33%,92.55%,1)" stroke="black" stroke-width="1"></polygon><polygon points="80,512 88,512 88,520 96,520 96,512 104,512 112,512 112,520 120,520 120,528 120,536 112,536 112,544 104,544 96,544 96,552 96,560 88,560 88,552 80,552 80,544 72,544 72,536 64,536 56,536 56,528 64,528 72,528 72,520 80,520 80,512" fill="rgba(100%,100%,100%,1)" stroke="black" stroke-width="1"></polygon><polygon points="80,552 88,552 88,560 96,560 96,552 104,552 112,552 112,560 120,560 120,568 120,576 112,576 112,584 104,584 96,584 96,592 96,600 88,600 88,592 80,592 80,584 72,584 72,576 64,576 56,576 56,568 64,568 72,568 72,560 80,560 80,552" fill="rgba(93.33%,93.33%,92.55%,1)" stroke="black" stroke-width="1"></polygon><polygon points="120,-152 128,-152 128,-144 136,-144 136,-152 144,-152 152,-152 152,-144 160,-144 160,-136 160,-128 152,-128 152,-120 144,-120 136,-120 136,-112 136,-104 128,-104 128,-112 120,-112 120,-120 112,-120 112,-128 104,-128 96,-128 96,-136 104,-136 112,-136 112,-144 120,-144 120,-152" fill="rgba(72.94%,74.12%,71.37%,1)" stroke="black" stroke-width="1"></polygon><polygon points="120,-112 128,-112 128,-104 136,-104 136,-112 144,-112 152,-112 152,-104 160,-104 160,-96 160,-88 152,-88 152,-80 144,-80 136,-80 136,-72 136,-64 128,-64 128,-72 120,-72 120,-80 112,-80 112,-88 104,-88 96,-88 96,-96 104,-96 112,-96 112,-104 120,-104 120,-112" fill="rgba(82.75%,84.31%,81.18%,1)" stroke="black" stroke-width="1"></polygon><polygon points="120,-72 128,-72 128,-64 136,-64 136,-72 144,-72 152,-72 152,-64 160,-64 160,-56 160,-48 152,-48 152,-40 144,-40 136,-40 136,-32 136,-24 128,-24 128,-32 120,-32 120,-40 112,-40 112,-48 104,-48 96,-48 96,-56 104,-56 112,-56 112,-64 120,-64 120,-72" fill="rgba(72.94%,74.12%,71.37%,1)" stroke="black" stroke-width="1"></polygon><polygon points="120,-32 128,-32 128,-24 136,-24 136,-32 144,-32 152,-32 152,-24 160,-24 160,-16 160,-8 152,-8 152,0 144,0 136,0 136,8 136,16 128,16 128,8 120,8 120,0 112,0 112,-8 104,-8 96,-8 96,-16 104,-16 112,-16 112,-24 120,-24 120,-32" fill="rgba(82.75%,84.31%,81.18%,1)" stroke="black" stroke-width="1"></polygon><polygon points="120,8 128,8 128,16 136,16 136,8 144,8 152,8 152,16 160,16 160,24 160,32 152,32 152,40 144,40 136,40 136,48 136,56 128,56 128,48 120,48 120,40 112,40 112,32 104,32 96,32 96,24 104,24 112,24 112,16 120,16 120,8" fill="rgba(72.94%,74.12%,71.37%,1)" stroke="black" stroke-width="1"></polygon><polygon points="120,48 128,48 128,56 136,56 136,48 144,48 152,48 152,56 160,56 160,64 160,72 152,72 152,80 144,80 136,80 136,88 136,96 128,96 128,88 120,88 120,80 112,80 112,72 104,72 96,72 96,64 104,64 112,64 112,56 120,56 120,48" fill="rgba(82.75%,84.31%,81.18%,1)" stroke="black" stroke-width="1"></polygon><polygon points="120,88 128,88 128,96 136,96 136,88 144,88 152,88 152,96 160,96 160,104 160,112 152,112 152,120 144,120 136,120 136,128 136,136 128,136 128,128 120,128 120,120 112,120 112,112 104,112 96,112 96,104 104,104 112,104 112,96 120,96 120,88" fill="rgba(72.94%,74.12%,71.37%,1)" stroke="black" stroke-width="1"></polygon><polygon points="120,128 128,128 128,136 136,136 136,128 144,128 152,128 152,136 160,136 160,144 160,152 152,152 152,160 144,160 136,160 136,168 136,176 128,176 128,168 120,168 120,160 112,160 112,152 104,152 96,152 96,144 104,144 112,144 112,136 120,136 120,128" fill="rgba(82.75%,84.31%,81.18%,1)" stroke="black" stroke-width="1"></polygon><polygon points="120,168 128,168 128,176 136,176 136,168 144,168 152,168 152,176 160,176 160,184 160,192 152,192 152,200 144,200 136,200 136,208 136,216 128,216 128,208 120,208 120,200 112,200 112,192 104,192 96,192 96,184 104,184 112,184 112,176 120,176 120,168" fill="rgba(72.94%,74.12%,71.37%,1)" stroke="black" stroke-width="1"></polygon><polygon points="120,208 128,208 128,216 136,216 136,208 144,208 152,208 152,216 160,216 160,224 160,232 152,232 152,240 144,240 136,240 136,248 136,256 128,256 128,248 120,248 120,240 112,240 112,232 104,232 96,232 96,224 104,224 112,224 112,216 120,216 120,208" fill="rgba(82.75%,84.31%,81.18%,1)" stroke="black" stroke-width="1"></polygon><polygon points="120,248 128,248 128,256 136,256 136,248 144,248 152,248 152,256 160,256 160,264 160,272 152,272 152,280 144,280 136,280 136,288 136,296 128,296 128,288 120,288 120,280 112,280 112,272 104,272 96,272 96,264 104,264 112,264 112,256 120,256 120,248" fill="rgba(72.94%,74.12%,71.37%,1)" stroke="black" stroke-width="1"></polygon><polygon points="120,288 128,288 128,296 136,296 136,288 144,288 152,288 152,296 160,296 160,304 160,312 152,312 152,320 144,320 136,320 136,328 136,336 128,336 128,328 120,328 120,320 112,320 112,312 104,312 96,312 96,304 104,304 112,304 112,296 120,296 120,288" fill="rgba(82.75%,84.31%,81.18%,1)" stroke="black" stroke-width="1"></polygon><polygon points="120,328 128,328 128,336 136,336 136,328 144,328 152,328 152,336 160,336 160,344 160,352 152,352 152,360 144,360 136,360 136,368 136,376 128,376 128,368 120,368 120,360 112,360 112,352 104,352 96,352 96,344 104,344 112,344 112,336 120,336 120,328" fill="rgba(72.94%,74.12%,71.37%,1)" stroke="black" stroke-width="1"></polygon><polygon points="120,368 128,368 128,376 136,376 136,368 144,368 152,368 152,376 160,376 160,384 160,392 152,392 152,400 144,400 136,400 136,408 136,416 128,416 128,408 120,408 120,400 112,400 112,392 104,392 96,392 96,384 104,384 112,384 112,376 120,376 120,368" fill="rgba(82.75%,84.31%,81.18%,1)" stroke="black" stroke-width="1"></polygon><polygon points="120,408 128,408 128,416 136,416 136,408 144,408 152,408 152,416 160,416 160,424 160,432 152,432 152,440 144,440 136,440 136,448 136,456 128,456 128,448 120,448 120,440 112,440 112,432 104,432 96,432 96,424 104,424 112,424 112,416 120,416 120,408" fill="rgba(72.94%,74.12%,71.37%,1)" stroke="black" stroke-width="1"></polygon><polygon points="120,448 128,448 128,456 136,456 136,448 144,448 152,448 152,456 160,456 160,464 160,472 152,472 152,480 144,480 136,480 136,488 136,496 128,496 128,488 120,488 120,480 112,480 112,472 104,472 96,472 96,464 104,464 112,464 112,456 120,456 120,448" fill="rgba(82.75%,84.31%,81.18%,1)" stroke="black" stroke-width="1"></polygon><polygon points="120,488 128,488 128,496 136,496 136,488 144,488 152,488 152,496 160,496 160,504 160,512 152,512 152,520 144,520 136,520 136,528 136,536 128,536 128,528 120,528 120,520 112,520 112,512 104,512 96,512 96,504 104,504 112,504 112,496 120,496 120,488" fill="rgba(72.94%,74.12%,71.37%,1)" stroke="black" stroke-width="1"></polygon><polygon points="120,528 128,528 128,536 136,536 136,528 144,528 152,528 152,536 160,536 160,544 160,552 152,552 152,560 144,560 136,560 136,568 136,576 128,576 128,568 120,568 120,560 112,560 112,552 104,552 96,552 96,544 104,544 112,544 112,536 120,536 120,528" fill="rgba(82.75%,84.31%,81.18%,1)" stroke="black" stroke-width="1"></polygon><polygon points="120,568 128,568 128,576 136,576 136,568 144,568 152,568 152,576 160,576 160,584 160,592 152,592 152,600 144,600 136,600 136,608 136,616 128,616 128,608 120,608 120,600 112,600 112,592 104,592 96,592 96,584 104,584 112,584 112,576 120,576 120,568" fill="rgba(72.94%,74.12%,71.37%,1)" stroke="black" stroke-width="1"></polygon><polygon points="160,-136 168,-136 168,-128 176,-128 176,-136 184,-136 192,-136 192,-128 200,-128 200,-120 200,-112 192,-112 192,-104 184,-104 176,-104 176,-96 176,-88 168,-88 168,-96 160,-96 160,-104 152,-104 152,-112 144,-112 136,-112 136,-120 144,-120 152,-120 152,-128 160,-128 160,-136" fill="rgba(93.33%,93.33%,92.55%,1)" stroke="black" stroke-width="1"></polygon><polygon points="160,-96 168,-96 168,-88 176,-88 176,-96 184,-96 192,-96 192,-88 200,-88 200,-80 200,-72 192,-72 192,-64 184,-64 176,-64 176,-56 176,-48 168,-48 168,-56 160,-56 160,-64 152,-64 152,-72 144,-72 136,-72 136,-80 144,-80 152,-80 152,-88 160,-88 160,-96" fill="rgba(100%,100%,100%,1)" stroke="black" stroke-width="1"></polygon><polygon points="160,-56 168,-56 168,-48 176,-48 176,-56 184,-56 192,-56 192,-48 200,-48 200,-40 200,-32 192,-32 192,-24 184,-24 176,-24 176,-16 176,-8 168,-8 168,-16 160,-16 160,-24 152,-24 152,-32 144,-32 136,-32 136,-40 144,-40 152,-40 152,-48 160,-48 160,-56" fill="rgba(93.33%,93.33%,92.55%,1)" stroke="black" stroke-width="1"></polygon><polygon points="160,-16 168,-16 168,-8 176,-8 176,-16 184,-16 192,-16 192,-8 200,-8 200,0 200,8 192,8 192,16 184,16 176,16 176,24 176,32 168,32 168,24 160,24 160,16 152,16 152,8 144,8 136,8 136,0 144,0 152,0 152,-8 160,-8 160,-16" fill="rgba(100%,100%,100%,1)" stroke="black" stroke-width="1"></polygon><polygon points="160,24 168,24 168,32 176,32 176,24 184,24 192,24 192,32 200,32 200,40 200,48 192,48 192,56 184,56 176,56 176,64 176,72 168,72 168,64 160,64 160,56 152,56 152,48 144,48 136,48 136,40 144,40 152,40 152,32 160,32 160,24" fill="rgba(93.33%,93.33%,92.55%,1)" stroke="black" stroke-width="1"></polygon><polygon points="160,64 168,64 168,72 176,72 176,64 184,64 192,64 192,72 200,72 200,80 200,88 192,88 192,96 184,96 176,96 176,104 176,112 168,112 168,104 160,104 160,96 152,96 152,88 144,88 136,88 136,80 144,80 152,80 152,72 160,72 160,64" fill="rgba(100%,100%,100%,1)" stroke="black" stroke-width="1"></polygon><polygon points="160,104 168,104 168,112 176,112 176,104 184,104 192,104 192,112 200,112 200,120 200,128 192,128 192,136 184,136 176,136 176,144 176,152 168,152 168,144 160,144 160,136 152,136 152,128 144,128 136,128 136,120 144,120 152,120 152,112 160,112 160,104" fill="rgba(93.33%,93.33%,92.55%,1)" stroke="black" stroke-width="1"></polygon><polygon points="160,144 168,144 168,152 176,152 176,144 184,144 192,144 192,152 200,152 200,160 200,168 192,168 192,176 184,176 176,176 176,184 176,192 168,192 168,184 160,184 160,176 152,176 152,168 144,168 136,168 136,160 144,160 152,160 152,152 160,152 160,144" fill="rgba(100%,100%,100%,1)" stroke="black" stroke-width="1"></polygon><polygon points="160,184 168,184 168,192 176,192 176,184 184,184 192,184 192,192 200,192 200,200 200,208 192,208 192,216 184,216 176,216 176,224 176,232 168,232 168,224 160,224 160,216 152,216 152,208 144,208 136,208 136,200 144,200 152,200 152,192 160,192 160,184" fill="rgba(93.33%,93.33%,92.55%,1)" stroke="black" stroke-width="1"></polygon><polygon points="160,224 168,224 168,232 176,232 176,224 184,224 192,224 192,232 200,232 200,240 200,248 192,248 192,256 184,256 176,256 176,264 176,272 168,272 168,264 160,264 160,256 152,256 152,248 144,248 136,248 136,240 144,240 152,240 152,232 160,232 160,224" fill="rgba(100%,100%,100%,1)" stroke="black" stroke-width="1"></polygon><polygon points="160,264 168,264 168,272 176,272 176,264 184,264 192,264 192,272 200,272 200,280 200,288 192,288 192,296 184,296 176,296 176,304 176,312 168,312 168,304 160,304 160,296 152,296 152,288 144,288 136,288 136,280 144,280 152,280 152,272 160,272 160,264" fill="rgba(93.33%,93.33%,92.55%,1)" stroke="black" stroke-width="1"></polygon><polygon points="160,304 168,304 168,312 176,312 176,304 184,304 192,304 192,312 200,312 200,320 200,328 192,328 192,336 184,336 176,336 176,344 176,352 168,352 168,344 160,344 160,336 152,336 152,328 144,328 136,328 136,320 144,320 152,320 152,312 160,312 160,304" fill="rgba(100%,100%,100%,1)" stroke="black" stroke-width="1"></polygon><polygon points="160,344 168,344 168,352 176,352 176,344 184,344 192,344 192,352 200,352 200,360 200,368 192,368 192,376 184,376 176,376 176,384 176,392 168,392 168,384 160,384 160,376 152,376 152,368 144,368 136,368 136,360 144,360 152,360 152,352 160,352 160,344" fill="rgba(93.33%,93.33%,92.55%,1)" stroke="black" stroke-width="1"></polygon><polygon points="160,384 168,384 168,392 176,392 176,384 184,384 192,384 192,392 200,392 200,400 200,408 192,408 192,416 184,416 176,416 176,424 176,432 168,432 168,424 160,424 160,416 152,416 152,408 144,408 136,408 136,400 144,400 152,400 152,392 160,392 160,384" fill="rgba(100%,100%,100%,1)" stroke="black" stroke-width="1"></polygon><polygon points="160,424 168,424 168,432 176,432 176,424 184,424 192,424 192,432 200,432 200,440 200,448 192,448 192,456 184,456 176,456 176,464 176,472 168,472 168,464 160,464 160,456 152,456 152,448 144,448 136,448 136,440 144,440 152,440 152,432 160,432 160,424" fill="rgba(93.33%,93.33%,92.55%,1)" stroke="black" stroke-width="1"></polygon><polygon points="160,464 168,464 168,472 176,472 176,464 184,464 192,464 192,472 200,472 200,480 200,488 192,488 192,496 184,496 176,496 176,504 176,512 168,512 168,504 160,504 160,496 152,496 152,488 144,488 136,488 136,480 144,480 152,480 152,472 160,472 160,464" fill="rgba(100%,100%,100%,1)" stroke="black" stroke-width="1"></polygon><polygon points="160,504 168,504 168,512 176,512 176,504 184,504 192,504 192,512 200,512 200,520 200,528 192,528 192,536 184,536 176,536 176,544 176,552 168,552 168,544 160,544 160,536 152,536 152,528 144,528 136,528 136,520 144,520 152,520 152,512 160,512 160,504" fill="rgba(93.33%,93.33%,92.55%,1)" stroke="black" stroke-width="1"></polygon><polygon points="160,544 168,544 168,552 176,552 176,544 184,544 192,544 192,552 200,552 200,560 200,568 192,568 192,576 184,576 176,576 176,584 176,592 168,592 168,584 160,584 160,576 152,576 152,568 144,568 136,568 136,560 144,560 152,560 152,552 160,552 160,544" fill="rgba(100%,100%,100%,1)" stroke="black" stroke-width="1"></polygon><polygon points="160,584 168,584 168,592 176,592 176,584 184,584 192,584 192,592 200,592 200,600 200,608 192,608 192,616 184,616 176,616 176,624 176,632 168,632 168,624 160,624 160,616 152,616 152,608 144,608 136,608 136,600 144,600 152,600 152,592 160,592 160,584" fill="rgba(93.33%,93.33%,92.55%,1)" stroke="black" stroke-width="1"></polygon><polygon points="200,-120 208,-120 208,-112 216,-112 216,-120 224,-120 232,-120 232,-112 240,-112 240,-104 240,-96 232,-96 232,-88 224,-88 216,-88 216,-80 216,-72 208,-72 208,-80 200,-80 200,-88 192,-88 192,-96 184,-96 176,-96 176,-104 184,-104 192,-104 192,-112 200,-112 200,-120" fill="rgba(72.94%,74.12%,71.37%,1)" stroke="black" stroke-width="1"></polygon><polygon points="200,-80 208,-80 208,-72 216,-72 216,-80 224,-80 232,-80 232,-72 240,-72 240,-64 240,-56 232,-56 232,-48 224,-48 216,-48 216,-40 216,-32 208,-32 208,-40 200,-40 200,-48 192,-48 192,-56 184,-56 176,-56 176,-64 184,-64 192,-64 192,-72 200,-72 200,-80" fill="rgba(82.75%,84.31%,81.18%,1)" stroke="black" stroke-width="1"></polygon><polygon points="200,-40 208,-40 208,-32 216,-32 216,-40 224,-40 232,-40 232,-32 240,-32 240,-24 240,-16 232,-16 232,-8 224,-8 216,-8 216,0 216,8 208,8 208,0 200,0 200,-8 192,-8 192,-16 184,-16 176,-16 176,-24 184,-24 192,-24 192,-32 200,-32 200,-40" fill="rgba(72.94%,74.12%,71.37%,1)" stroke="black" stroke-width="1"></polygon><polygon points="200,0 208,0 208,8 216,8 216,0 224,0 232,0 232,8 240,8 240,16 240,24 232,24 232,32 224,32 216,32 216,40 216,48 208,48 208,40 200,40 200,32 192,32 192,24 184,24 176,24 176,16 184,16 192,16 192,8 200,8 200,0" fill="rgba(82.75%,84.31%,81.18%,1)" stroke="black" stroke-width="1"></polygon><polygon points="200,40 208,40 208,48 216,48 216,40 224,40 232,40 232,48 240,48 240,56 240,64 232,64 232,72 224,72 216,72 216,80 216,88 208,88 208,80 200,80 200,72 192,72 192,64 184,64 176,64 176,56 184,56 192,56 192,48 200,48 200,40" fill="rgba(72.94%,74.12%,71.37%,1)" stroke="black" stroke-width="1"></polygon><polygon points="200,80 208,80 208,88 216,88 216,80 224,80 232,80 232,88 240,88 240,96 240,104 232,104 232,112 224,112 216,112 216,120 216,128 208,128 208,120 200,120 200,112 192,112 192,104 184,104 176,104 176,96 184,96 192,96 192,88 200,88 200,80" fill="rgba(82.75%,84.31%,81.18%,1)" stroke="black" stroke-width="1"></polygon><polygon points="200,120 208,120 208,128 216,128 216,120 224,120 232,120 232,128 240,128 240,136 240,144 232,144 232,152 224,152 216,152 216,160 216,168 208,168 208,160 200,160 200,152 192,152 192,144 184,144 176,144 176,136 184,136 192,136 192,128 200,128 200,120" fill="rgba(72.94%,74.12%,71.37%,1)" stroke="black" stroke-width="1"></polygon><polygon points="200,160 208,160 208,168 216,168 216,160 224,160 232,160 232,168 240,168 240,176 240,184 232,184 232,192 224,192 216,192 216,200 216,208 208,208 208,200 200,200 200,192 192,192 192,184 184,184 176,184 176,176 184,176 192,176 192,168 200,168 200,160" fill="rgba(82.75%,84.31%,81.18%,1)" stroke="black" stroke-width="1"></polygon><polygon points="200,200 208,200 208,208 216,208 216,200 224,200 232,200 232,208 240,208 240,216 240,224 232,224 232,232 224,232 216,232 216,240 216,248 208,248 208,240 200,240 200,232 192,232 192,224 184,224 176,224 176,216 184,216 192,216 192,208 200,208 200,200" fill="rgba(72.94%,74.12%,71.37%,1)" stroke="black" stroke-width="1"></polygon><polygon points="200,240 208,240 208,248 216,248 216,240 224,240 232,240 232,248 240,248 240,256 240,264 232,264 232,272 224,272 216,272 216,280 216,288 208,288 208,280 200,280 200,272 192,272 192,264 184,264 176,264 176,256 184,256 192,256 192,248 200,248 200,240" fill="rgba(82.75%,84.31%,81.18%,1)" stroke="black" stroke-width="1"></polygon><polygon points="200,280 208,280 208,288 216,288 216,280 224,280 232,280 232,288 240,288 240,296 240,304 232,304 232,312 224,312 216,312 216,320 216,328 208,328 208,320 200,320 200,312 192,312 192,304 184,304 176,304 176,296 184,296 192,296 192,288 200,288 200,280" fill="rgba(72.94%,74.12%,71.37%,1)" stroke="black" stroke-width="1"></polygon><polygon points="200,320 208,320 208,328 216,328 216,320 224,320 232,320 232,328 240,328 240,336 240,344 232,344 232,352 224,352 216,352 216,360 216,368 208,368 208,360 200,360 200,352 192,352 192,344 184,344 176,344 176,336 184,336 192,336 192,328 200,328 200,320" fill="rgba(82.75%,84.31%,81.18%,1)" stroke="black" stroke-width="1"></polygon><polygon points="200,360 208,360 208,368 216,368 216,360 224,360 232,360 232,368 240,368 240,376 240,384 232,384 232,392 224,392 216,392 216,400 216,408 208,408 208,400 200,400 200,392 192,392 192,384 184,384 176,384 176,376 184,376 192,376 192,368 200,368 200,360" fill="rgba(72.94%,74.12%,71.37%,1)" stroke="black" stroke-width="1"></polygon><polygon points="200,400 208,400 208,408 216,408 216,400 224,400 232,400 232,408 240,408 240,416 240,424 232,424 232,432 224,432 216,432 216,440 216,448 208,448 208,440 200,440 200,432 192,432 192,424 184,424 176,424 176,416 184,416 192,416 192,408 200,408 200,400" fill="rgba(82.75%,84.31%,81.18%,1)" stroke="black" stroke-width="1"></polygon><polygon points="200,440 208,440 208,448 216,448 216,440 224,440 232,440 232,448 240,448 240,456 240,464 232,464 232,472 224,472 216,472 216,480 216,488 208,488 208,480 200,480 200,472 192,472 192,464 184,464 176,464 176,456 184,456 192,456 192,448 200,448 200,440" fill="rgba(72.94%,74.12%,71.37%,1)" stroke="black" stroke-width="1"></polygon><polygon points="200,480 208,480 208,488 216,488 216,480 224,480 232,480 232,488 240,488 240,496 240,504 232,504 232,512 224,512 216,512 216,520 216,528 208,528 208,520 200,520 200,512 192,512 192,504 184,504 176,504 176,496 184,496 192,496 192,488 200,488 200,480" fill="rgba(82.75%,84.31%,81.18%,1)" stroke="black" stroke-width="1"></polygon><polygon points="200,520 208,520 208,528 216,528 216,520 224,520 232,520 232,528 240,528 240,536 240,544 232,544 232,552 224,552 216,552 216,560 216,568 208,568 208,560 200,560 200,552 192,552 192,544 184,544 176,544 176,536 184,536 192,536 192,528 200,528 200,520" fill="rgba(72.94%,74.12%,71.37%,1)" stroke="black" stroke-width="1"></polygon><polygon points="200,560 208,560 208,568 216,568 216,560 224,560 232,560 232,568 240,568 240,576 240,584 232,584 232,592 224,592 216,592 216,600 216,608 208,608 208,600 200,600 200,592 192,592 192,584 184,584 176,584 176,576 184,576 192,576 192,568 200,568 200,560" fill="rgba(82.75%,84.31%,81.18%,1)" stroke="black" stroke-width="1"></polygon><polygon points="200,600 208,600 208,608 216,608 216,600 224,600 232,600 232,608 240,608 240,616 240,624 232,624 232,632 224,632 216,632 216,640 216,648 208,648 208,640 200,640 200,632 192,632 192,624 184,624 176,624 176,616 184,616 192,616 192,608 200,608 200,600" fill="rgba(72.94%,74.12%,71.37%,1)" stroke="black" stroke-width="1"></polygon><polygon points="240,-104 248,-104 248,-96 256,-96 256,-104 264,-104 272,-104 272,-96 280,-96 280,-88 280,-80 272,-80 272,-72 264,-72 256,-72 256,-64 256,-56 248,-56 248,-64 240,-64 240,-72 232,-72 232,-80 224,-80 216,-80 216,-88 224,-88 232,-88 232,-96 240,-96 240,-104" fill="rgba(93.33%,93.33%,92.55%,1)" stroke="black" stroke-width="1"></polygon><polygon points="240,-64 248,-64 248,-56 256,-56 256,-64 264,-64 272,-64 272,-56 280,-56 280,-48 280,-40 272,-40 272,-32 264,-32 256,-32 256,-24 256,-16 248,-16 248,-24 240,-24 240,-32 232,-32 232,-40 224,-40 216,-40 216,-48 224,-48 232,-48 232,-56 240,-56 240,-64" fill="rgba(100%,100%,100%,1)" stroke="black" stroke-width="1"></polygon><polygon points="240,-24 248,-24 248,-16 256,-16 256,-24 264,-24 272,-24 272,-16 280,-16 280,-8 280,0 272,0 272,8 264,8 256,8 256,16 256,24 248,24 248,16 240,16 240,8 232,8 232,0 224,0 216,0 216,-8 224,-8 232,-8 232,-16 240,-16 240,-24" fill="rgba(93.33%,93.33%,92.55%,1)" stroke="black" stroke-width="1"></polygon><polygon points="240,16 248,16 248,24 256,24 256,16 264,16 272,16 272,24 280,24 280,32 280,40 272,40 272,48 264,48 256,48 256,56 256,64 248,64 248,56 240,56 240,48 232,48 232,40 224,40 216,40 216,32 224,32 232,32 232,24 240,24 240,16" fill="rgba(100%,100%,100%,1)" stroke="black" stroke-width="1"></polygon><polygon points="240,56 248,56 248,64 256,64 256,56 264,56 272,56 272,64 280,64 280,72 280,80 272,80 272,88 264,88 256,88 256,96 256,104 248,104 248,96 240,96 240,88 232,88 232,80 224,80 216,80 216,72 224,72 232,72 232,64 240,64 240,56" fill="rgba(93.33%,93.33%,92.55%,1)" stroke="black" stroke-width="1"></polygon><polygon points="240,96 248,96 248,104 256,104 256,96 264,96 272,96 272,104 280,104 280,112 280,120 272,120 272,128 264,128 256,128 256,136 256,144 248,144 248,136 240,136 240,128 232,128 232,120 224,120 216,120 216,112 224,112 232,112 232,104 240,104 240,96" fill="rgba(100%,100%,100%,1)" stroke="black" stroke-width="1"></polygon><polygon points="240,136 248,136 248,144 256,144 256,136 264,136 272,136 272,144 280,144 280,152 280,160 272,160 272,168 264,168 256,168 256,176 256,184 248,184 248,176 240,176 240,168 232,168 232,160 224,160 216,160 216,152 224,152 232,152 232,144 240,144 240,136" fill="rgba(93.33%,93.33%,92.55%,1)" stroke="black" stroke-width="1"></polygon><polygon points="240,176 248,176 248,184 256,184 256,176 264,176 272,176 272,184 280,184 280,192 280,200 272,200 272,208 264,208 256,208 256,216 256,224 248,224 248,216 240,216 240,208 232,208 232,200 224,200 216,200 216,192 224,192 232,192 232,184 240,184 240,176" fill="rgba(100%,100%,100%,1)" stroke="black" stroke-width="1"></polygon><polygon points="240,216 248,216 248,224 256,224 256,216 264,216 272,216 272,224 280,224 280,232 280,240 272,240 272,248 264,248 256,248 256,256 256,264 248,264 248,256 240,256 240,248 232,248 232,240 224,240 216,240 216,232 224,232 232,232 232,224 240,224 240,216" fill="rgba(93.33%,93.33%,92.55%,1)" stroke="black" stroke-width="1"></polygon><polygon points="240,256 248,256 248,264 256,264 256,256 264,256 272,256 272,264 280,264 280,272 280,280 272,280 272,288 264,288 256,288 256,296 256,304 248,304 248,296 240,296 240,288 232,288 232,280 224,280 216,280 216,272 224,272 232,272 232,264 240,264 240,256" fill="rgba(100%,100%,100%,1)" stroke="black" stroke-width="1"></polygon><polygon points="240,296 248,296 248,304 256,304 256,296 264,296 272,296 272,304 280,304 280,312 280,320 272,320 272,328 264,328 256,328 256,336 256,344 248,344 248,336 240,336 240,328 232,328 232,320 224,320 216,320 216,312 224,312 232,312 232,304 240,304 240,296" fill="rgba(93.33%,93.33%,92.55%,1)" stroke="black" stroke-width="1"></polygon><polygon points="240,336 248,336 248,344 256,344 256,336 264,336 272,336 272,344 280,344 280,352 280,360 272,360 272,368 264,368 256,368 256,376 256,384 248,384 248,376 240,376 240,368 232,368 232,360 224,360 216,360 216,352 224,352 232,352 232,344 240,344 240,336" fill="rgba(100%,100%,100%,1)" stroke="black" stroke-width="1"></polygon><polygon points="240,376 248,376 248,384 256,384 256,376 264,376 272,376 272,384 280,384 280,392 280,400 272,400 272,408 264,408 256,408 256,416 256,424 248,424 248,416 240,416 240,408 232,408 232,400 224,400 216,400 216,392 224,392 232,392 232,384 240,384 240,376" fill="rgba(93.33%,93.33%,92.55%,1)" stroke="black" stroke-width="1"></polygon><polygon points="240,416 248,416 248,424 256,424 256,416 264,416 272,416 272,424 280,424 280,432 280,440 272,440 272,448 264,448 256,448 256,456 256,464 248,464 248,456 240,456 240,448 232,448 232,440 224,440 216,440 216,432 224,432 232,432 232,424 240,424 240,416" fill="rgba(100%,100%,100%,1)" stroke="black" stroke-width="1"></polygon><polygon points="240,456 248,456 248,464 256,464 256,456 264,456 272,456 272,464 280,464 280,472 280,480 272,480 272,488 264,488 256,488 256,496 256,504 248,504 248,496 240,496 240,488 232,488 232,480 224,480 216,480 216,472 224,472 232,472 232,464 240,464 240,456" fill="rgba(93.33%,93.33%,92.55%,1)" stroke="black" stroke-width="1"></polygon><polygon points="240,496 248,496 248,504 256,504 256,496 264,496 272,496 272,504 280,504 280,512 280,520 272,520 272,528 264,528 256,528 256,536 256,544 248,544 248,536 240,536 240,528 232,528 232,520 224,520 216,520 216,512 224,512 232,512 232,504 240,504 240,496" fill="rgba(100%,100%,100%,1)" stroke="black" stroke-width="1"></polygon><polygon points="240,536 248,536 248,544 256,544 256,536 264,536 272,536 272,544 280,544 280,552 280,560 272,560 272,568 264,568 256,568 256,576 256,584 248,584 248,576 240,576 240,568 232,568 232,560 224,560 216,560 216,552 224,552 232,552 232,544 240,544 240,536" fill="rgba(93.33%,93.33%,92.55%,1)" stroke="black" stroke-width="1"></polygon><polygon points="240,576 248,576 248,584 256,584 256,576 264,576 272,576 272,584 280,584 280,592 280,600 272,600 272,608 264,608 256,608 256,616 256,624 248,624 248,616 240,616 240,608 232,608 232,600 224,600 216,600 216,592 224,592 232,592 232,584 240,584 240,576" fill="rgba(100%,100%,100%,1)" stroke="black" stroke-width="1"></polygon><polygon points="240,616 248,616 248,624 256,624 256,616 264,616 272,616 272,624 280,624 280,632 280,640 272,640 272,648 264,648 256,648 256,656 256,664 248,664 248,656 240,656 240,648 232,648 232,640 224,640 216,640 216,632 224,632 232,632 232,624 240,624 240,616" fill="rgba(93.33%,93.33%,92.55%,1)" stroke="black" stroke-width="1"></polygon><polygon points="280,-88 288,-88 288,-80 296,-80 296,-88 304,-88 312,-88 312,-80 320,-80 320,-72 320,-64 312,-64 312,-56 304,-56 296,-56 296,-48 296,-40 288,-40 288,-48 280,-48 280,-56 272,-56 272,-64 264,-64 256,-64 256,-72 264,-72 272,-72 272,-80 280,-80 280,-88" fill="rgba(72.94%,74.12%,71.37%,1)" stroke="black" stroke-width="1"></polygon><polygon points="280,-48 288,-48 288,-40 296,-40 296,-48 304,-48 312,-48 312,-40 320,-40 320,-32 320,-24 312,-24 312,-16 304,-16 296,-16 296,-8 296,0 288,0 288,-8 280,-8 280,-16 272,-16 272,-24 264,-24 256,-24 256,-32 264,-32 272,-32 272,-40 280,-40 280,-48" fill="rgba(82.75%,84.31%,81.18%,1)" stroke="black" stroke-width="1"></polygon><polygon points="280,-8 288,-8 288,0 296,0 296,-8 304,-8 312,-8 312,0 320,0 320,8 320,16 312,16 312,24 304,24 296,24 296,32 296,40 288,40 288,32 280,32 280,24 272,24 272,16 264,16 256,16 256,8 264,8 272,8 272,0 280,0 280,-8" fill="rgba(72.94%,74.12%,71.37%,1)" stroke="black" stroke-width="1"></polygon><polygon points="280,32 288,32 288,40 296,40 296,32 304,32 312,32 312,40 320,40 320,48 320,56 312,56 312,64 304,64 296,64 296,72 296,80 288,80 288,72 280,72 280,64 272,64 272,56 264,56 256,56 256,48 264,48 272,48 272,40 280,40 280,32" fill="rgba(82.75%,84.31%,81.18%,1)" stroke="black" stroke-width="1"></polygon><polygon points="280,72 288,72 288,80 296,80 296,72 304,72 312,72 312,80 320,80 320,88 320,96 312,96 312,104 304,104 296,104 296,112 296,120 288,120 288,112 280,112 280,104 272,104 272,96 264,96 256,96 256,88 264,88 272,88 272,80 280,80 280,72" fill="rgba(72.94%,74.12%,71.37%,1)" stroke="black" stroke-width="1"></polygon><polygon points="280,112 288,112 288,120 296,120 296,112 304,112 312,112 312,120 320,120 320,128 320,136 312,136 312,144 304,144 296,144 296,152 296,160 288,160 288,152 280,152 280,144 272,144 272,136 264,136 256,136 256,128 264,128 272,128 272,120 280,120 280,112" fill="rgba(82.75%,84.31%,81.18%,1)" stroke="black" stroke-width="1"></polygon><polygon points="280,152 288,152 288,160 296,160 296,152 304,152 312,152 312,160 320,160 320,168 320,176 312,176 312,184 304,184 296,184 296,192 296,200 288,200 288,192 280,192 280,184 272,184 272,176 264,176 256,176 256,168 264,168 272,168 272,160 280,160 280,152" fill="rgba(72.94%,74.12%,71.37%,1)" stroke="black" stroke-width="1"></polygon><polygon points="280,192 288,192 288,200 296,200 296,192 304,192 312,192 312,200 320,200 320,208 320,216 312,216 312,224 304,224 296,224 296,232 296,240 288,240 288,232 280,232 280,224 272,224 272,216 264,216 256,216 256,208 264,208 272,208 272,200 280,200 280,192" fill="rgba(82.75%,84.31%,81.18%,1)" stroke="black" stroke-width="1"></polygon><polygon points="280,232 288,232 288,240 296,240 296,232 304,232 312,232 312,240 320,240 320,248 320,256 312,256 312,264 304,264 296,264 296,272 296,280 288,280 288,272 280,272 280,264 272,264 272,256 264,256 256,256 256,248 264,248 272,248 272,240 280,240 280,232" fill="rgba(72.94%,74.12%,71.37%,1)" stroke="black" stroke-width="1"></polygon><polygon points="280,272 288,272 288,280 296,280 296,272 304,272 312,272 312,280 320,280 320,288 320,296 312,296 312,304 304,304 296,304 296,312 296,320 288,320 288,312 280,312 280,304 272,304 272,296 264,296 256,296 256,288 264,288 272,288 272,280 280,280 280,272" fill="rgba(82.75%,84.31%,81.18%,1)" stroke="black" stroke-width="1"></polygon><polygon points="280,312 288,312 288,320 296,320 296,312 304,312 312,312 312,320 320,320 320,328 320,336 312,336 312,344 304,344 296,344 296,352 296,360 288,360 288,352 280,352 280,344 272,344 272,336 264,336 256,336 256,328 264,328 272,328 272,320 280,320 280,312" fill="rgba(72.94%,74.12%,71.37%,1)" stroke="black" stroke-width="1"></polygon><polygon points="280,352 288,352 288,360 296,360 296,352 304,352 312,352 312,360 320,360 320,368 320,376 312,376 312,384 304,384 296,384 296,392 296,400 288,400 288,392 280,392 280,384 272,384 272,376 264,376 256,376 256,368 264,368 272,368 272,360 280,360 280,352" fill="rgba(82.75%,84.31%,81.18%,1)" stroke="black" stroke-width="1"></polygon><polygon points="280,392 288,392 288,400 296,400 296,392 304,392 312,392 312,400 320,400 320,408 320,416 312,416 312,424 304,424 296,424 296,432 296,440 288,440 288,432 280,432 280,424 272,424 272,416 264,416 256,416 256,408 264,408 272,408 272,400 280,400 280,392" fill="rgba(72.94%,74.12%,71.37%,1)" stroke="black" stroke-width="1"></polygon><polygon points="280,432 288,432 288,440 296,440 296,432 304,432 312,432 312,440 320,440 320,448 320,456 312,456 312,464 304,464 296,464 296,472 296,480 288,480 288,472 280,472 280,464 272,464 272,456 264,456 256,456 256,448 264,448 272,448 272,440 280,440 280,432" fill="rgba(82.75%,84.31%,81.18%,1)" stroke="black" stroke-width="1"></polygon><polygon points="280,472 288,472 288,480 296,480 296,472 304,472 312,472 312,480 320,480 320,488 320,496 312,496 312,504 304,504 296,504 296,512 296,520 288,520 288,512 280,512 280,504 272,504 272,496 264,496 256,496 256,488 264,488 272,488 272,480 280,480 280,472" fill="rgba(72.94%,74.12%,71.37%,1)" stroke="black" stroke-width="1"></polygon><polygon points="280,512 288,512 288,520 296,520 296,512 304,512 312,512 312,520 320,520 320,528 320,536 312,536 312,544 304,544 296,544 296,552 296,560 288,560 288,552 280,552 280,544 272,544 272,536 264,536 256,536 256,528 264,528 272,528 272,520 280,520 280,512" fill="rgba(82.75%,84.31%,81.18%,1)" stroke="black" stroke-width="1"></polygon><polygon points="280,552 288,552 288,560 296,560 296,552 304,552 312,552 312,560 320,560 320,568 320,576 312,576 312,584 304,584 296,584 296,592 296,600 288,600 288,592 280,592 280,584 272,584 272,576 264,576 256,576 256,568 264,568 272,568 272,560 280,560 280,552" fill="rgba(72.94%,74.12%,71.37%,1)" stroke="black" stroke-width="1"></polygon><polygon points="280,592 288,592 288,600 296,600 296,592 304,592 312,592 312,600 320,600 320,608 320,616 312,616 312,624 304,624 296,624 296,632 296,640 288,640 288,632 280,632 280,624 272,624 272,616 264,616 256,616 256,608 264,608 272,608 272,600 280,600 280,592" fill="rgba(82.75%,84.31%,81.18%,1)" stroke="black" stroke-width="1"></polygon><polygon points="280,632 288,632 288,640 296,640 296,632 304,632 312,632 312,640 320,640 320,648 320,656 312,656 312,664 304,664 296,664 296,672 296,680 288,680 288,672 280,672 280,664 272,664 272,656 264,656 256,656 256,648 264,648 272,648 272,640 280,640 280,632" fill="rgba(72.94%,74.12%,71.37%,1)" stroke="black" stroke-width="1"></polygon><polygon points="320,-72 328,-72 328,-64 336,-64 336,-72 344,-72 352,-72 352,-64 360,-64 360,-56 360,-48 352,-48 352,-40 344,-40 336,-40 336,-32 336,-24 328,-24 328,-32 320,-32 320,-40 312,-40 312,-48 304,-48 296,-48 296,-56 304,-56 312,-56 312,-64 320,-64 320,-72" fill="rgba(93.33%,93.33%,92.55%,1)" stroke="black" stroke-width="1"></polygon><polygon points="320,-32 328,-32 328,-24 336,-24 336,-32 344,-32 352,-32 352,-24 360,-24 360,-16 360,-8 352,-8 352,0 344,0 336,0 336,8 336,16 328,16 328,8 320,8 320,0 312,0 312,-8 304,-8 296,-8 296,-16 304,-16 312,-16 312,-24 320,-24 320,-32" fill="rgba(100%,100%,100%,1)" stroke="black" stroke-width="1"></polygon><polygon points="320,8 328,8 328,16 336,16 336,8 344,8 352,8 352,16 360,16 360,24 360,32 352,32 352,40 344,40 336,40 336,48 336,56 328,56 328,48 320,48 320,40 312,40 312,32 304,32 296,32 296,24 304,24 312,24 312,16 320,16 320,8" fill="rgba(93.33%,93.33%,92.55%,1)" stroke="black" stroke-width="1"></polygon><polygon points="320,48 328,48 328,56 336,56 336,48 344,48 352,48 352,56 360,56 360,64 360,72 352,72 352,80 344,80 336,80 336,88 336,96 328,96 328,88 320,88 320,80 312,80 312,72 304,72 296,72 296,64 304,64 312,64 312,56 320,56 320,48" fill="rgba(100%,100%,100%,1)" stroke="black" stroke-width="1"></polygon><polygon points="320,88 328,88 328,96 336,96 336,88 344,88 352,88 352,96 360,96 360,104 360,112 352,112 352,120 344,120 336,120 336,128 336,136 328,136 328,128 320,128 320,120 312,120 312,112 304,112 296,112 296,104 304,104 312,104 312,96 320,96 320,88" fill="rgba(93.33%,93.33%,92.55%,1)" stroke="black" stroke-width="1"></polygon><polygon points="320,128 328,128 328,136 336,136 336,128 344,128 352,128 352,136 360,136 360,144 360,152 352,152 352,160 344,160 336,160 336,168 336,176 328,176 328,168 320,168 320,160 312,160 312,152 304,152 296,152 296,144 304,144 312,144 312,136 320,136 320,128" fill="rgba(100%,100%,100%,1)" stroke="black" stroke-width="1"></polygon><polygon points="320,168 328,168 328,176 336,176 336,168 344,168 352,168 352,176 360,176 360,184 360,192 352,192 352,200 344,200 336,200 336,208 336,216 328,216 328,208 320,208 320,200 312,200 312,192 304,192 296,192 296,184 304,184 312,184 312,176 320,176 320,168" fill="rgba(93.33%,93.33%,92.55%,1)" stroke="black" stroke-width="1"></polygon><polygon points="320,208 328,208 328,216 336,216 336,208 344,208 352,208 352,216 360,216 360,224 360,232 352,232 352,240 344,240 336,240 336,248 336,256 328,256 328,248 320,248 320,240 312,240 312,232 304,232 296,232 296,224 304,224 312,224 312,216 320,216 320,208" fill="rgba(100%,100%,100%,1)" stroke="black" stroke-width="1"></polygon><polygon points="320,248 328,248 328,256 336,256 336,248 344,248 352,248 352,256 360,256 360,264 360,272 352,272 352,280 344,280 336,280 336,288 336,296 328,296 328,288 320,288 320,280 312,280 312,272 304,272 296,272 296,264 304,264 312,264 312,256 320,256 320,248" fill="rgba(93.33%,93.33%,92.55%,1)" stroke="black" stroke-width="1"></polygon><polygon points="320,288 328,288 328,296 336,296 336,288 344,288 352,288 352,296 360,296 360,304 360,312 352,312 352,320 344,320 336,320 336,328 336,336 328,336 328,328 320,328 320,320 312,320 312,312 304,312 296,312 296,304 304,304 312,304 312,296 320,296 320,288" fill="rgba(100%,100%,100%,1)" stroke="black" stroke-width="1"></polygon><polygon points="320,328 328,328 328,336 336,336 336,328 344,328 352,328 352,336 360,336 360,344 360,352 352,352 352,360 344,360 336,360 336,368 336,376 328,376 328,368 320,368 320,360 312,360 312,352 304,352 296,352 296,344 304,344 312,344 312,336 320,336 320,328" fill="rgba(93.33%,93.33%,92.55%,1)" stroke="black" stroke-width="1"></polygon><polygon points="320,368 328,368 328,376 336,376 336,368 344,368 352,368 352,376 360,376 360,384 360,392 352,392 352,400 344,400 336,400 336,408 336,416 328,416 328,408 320,408 320,400 312,400 312,392 304,392 296,392 296,384 304,384 312,384 312,376 320,376 320,368" fill="rgba(100%,100%,100%,1)" stroke="black" stroke-width="1"></polygon><polygon points="320,408 328,408 328,416 336,416 336,408 344,408 352,408 352,416 360,416 360,424 360,432 352,432 352,440 344,440 336,440 336,448 336,456 328,456 328,448 320,448 320,440 312,440 312,432 304,432 296,432 296,424 304,424 312,424 312,416 320,416 320,408" fill="rgba(93.33%,93.33%,92.55%,1)" stroke="black" stroke-width="1"></polygon><polygon points="320,448 328,448 328,456 336,456 336,448 344,448 352,448 352,456 360,456 360,464 360,472 352,472 352,480 344,480 336,480 336,488 336,496 328,496 328,488 320,488 320,480 312,480 312,472 304,472 296,472 296,464 304,464 312,464 312,456 320,456 320,448" fill="rgba(100%,100%,100%,1)" stroke="black" stroke-width="1"></polygon><polygon points="320,488 328,488 328,496 336,496 336,488 344,488 352,488 352,496 360,496 360,504 360,512 352,512 352,520 344,520 336,520 336,528 336,536 328,536 328,528 320,528 320,520 312,520 312,512 304,512 296,512 296,504 304,504 312,504 312,496 320,496 320,488" fill="rgba(93.33%,93.33%,92.55%,1)" stroke="black" stroke-width="1"></polygon><polygon points="320,528 328,528 328,536 336,536 336,528 344,528 352,528 352,536 360,536 360,544 360,552 352,552 352,560 344,560 336,560 336,568 336,576 328,576 328,568 320,568 320,560 312,560 312,552 304,552 296,552 296,544 304,544 312,544 312,536 320,536 320,528" fill="rgba(100%,100%,100%,1)" stroke="black" stroke-width="1"></polygon><polygon points="320,568 328,568 328,576 336,576 336,568 344,568 352,568 352,576 360,576 360,584 360,592 352,592 352,600 344,600 336,600 336,608 336,616 328,616 328,608 320,608 320,600 312,600 312,592 304,592 296,592 296,584 304,584 312,584 312,576 320,576 320,568" fill="rgba(93.33%,93.33%,92.55%,1)" stroke="black" stroke-width="1"></polygon><polygon points="320,608 328,608 328,616 336,616 336,608 344,608 352,608 352,616 360,616 360,624 360,632 352,632 352,640 344,640 336,640 336,648 336,656 328,656 328,648 320,648 320,640 312,640 312,632 304,632 296,632 296,624 304,624 312,624 312,616 320,616 320,608" fill="rgba(100%,100%,100%,1)" stroke="black" stroke-width="1"></polygon><polygon points="320,648 328,648 328,656 336,656 336,648 344,648 352,648 352,656 360,656 360,664 360,672 352,672 352,680 344,680 336,680 336,688 336,696 328,696 328,688 320,688 320,680 312,680 312,672 304,672 296,672 296,664 304,664 312,664 312,656 320,656 320,648" fill="rgba(93.33%,93.33%,92.55%,1)" stroke="black" stroke-width="1"></polygon><polygon points="360,-56 368,-56 368,-48 376,-48 376,-56 384,-56 392,-56 392,-48 400,-48 400,-40 400,-32 392,-32 392,-24 384,-24 376,-24 376,-16 376,-8 368,-8 368,-16 360,-16 360,-24 352,-24 352,-32 344,-32 336,-32 336,-40 344,-40 352,-40 352,-48 360,-48 360,-56" fill="rgba(72.94%,74.12%,71.37%,1)" stroke="black" stroke-width="1"></polygon><polygon points="360,-16 368,-16 368,-8 376,-8 376,-16 384,-16 392,-16 392,-8 400,-8 400,0 400,8 392,8 392,16 384,16 376,16 376,24 376,32 368,32 368,24 360,24 360,16 352,16 352,8 344,8 336,8 336,0 344,0 352,0 352,-8 360,-8 360,-16" fill="rgba(82.75%,84.31%,81.18%,1)" stroke="black" stroke-width="1"></polygon><polygon points="360,24 368,24 368,32 376,32 376,24 384,24 392,24 392,32 400,32 400,40 400,48 392,48 392,56 384,56 376,56 376,64 376,72 368,72 368,64 360,64 360,56 352,56 352,48 344,48 336,48 336,40 344,40 352,40 352,32 360,32 360,24" fill="rgba(72.94%,74.12%,71.37%,1)" stroke="black" stroke-width="1"></polygon><polygon points="360,64 368,64 368,72 376,72 376,64 384,64 392,64 392,72 400,72 400,80 400,88 392,88 392,96 384,96 376,96 376,104 376,112 368,112 368,104 360,104 360,96 352,96 352,88 344,88 336,88 336,80 344,80 352,80 352,72 360,72 360,64" fill="rgba(82.75%,84.31%,81.18%,1)" stroke="black" stroke-width="1"></polygon><polygon points="360,104 368,104 368,112 376,112 376,104 384,104 392,104 392,112 400,112 400,120 400,128 392,128 392,136 384,136 376,136 376,144 376,152 368,152 368,144 360,144 360,136 352,136 352,128 344,128 336,128 336,120 344,120 352,120 352,112 360,112 360,104" fill="rgba(72.94%,74.12%,71.37%,1)" stroke="black" stroke-width="1"></polygon><polygon points="360,144 368,144 368,152 376,152 376,144 384,144 392,144 392,152 400,152 400,160 400,168 392,168 392,176 384,176 376,176 376,184 376,192 368,192 368,184 360,184 360,176 352,176 352,168 344,168 336,168 336,160 344,160 352,160 352,152 360,152 360,144" fill="rgba(82.75%,84.31%,81.18%,1)" stroke="black" stroke-width="1"></polygon><polygon points="360,184 368,184 368,192 376,192 376,184 384,184 392,184 392,192 400,192 400,200 400,208 392,208 392,216 384,216 376,216 376,224 376,232 368,232 368,224 360,224 360,216 352,216 352,208 344,208 336,208 336,200 344,200 352,200 352,192 360,192 360,184" fill="rgba(72.94%,74.12%,71.37%,1)" stroke="black" stroke-width="1"></polygon><polygon points="360,224 368,224 368,232 376,232 376,224 384,224 392,224 392,232 400,232 400,240 400,248 392,248 392,256 384,256 376,256 376,264 376,272 368,272 368,264 360,264 360,256 352,256 352,248 344,248 336,248 336,240 344,240 352,240 352,232 360,232 360,224" fill="rgba(82.75%,84.31%,81.18%,1)" stroke="black" stroke-width="1"></polygon><polygon points="360,264 368,264 368,272 376,272 376,264 384,264 392,264 392,272 400,272 400,280 400,288 392,288 392,296 384,296 376,296 376,304 376,312 368,312 368,304 360,304 360,296 352,296 352,288 344,288 336,288 336,280 344,280 352,280 352,272 360,272 360,264" fill="rgba(72.94%,74.12%,71.37%,1)" stroke="black" stroke-width="1"></polygon><polygon points="360,304 368,304 368,312 376,312 376,304 384,304 392,304 392,312 400,312 400,320 400,328 392,328 392,336 384,336 376,336 376,344 376,352 368,352 368,344 360,344 360,336 352,336 352,328 344,328 336,328 336,320 344,320 352,320 352,312 360,312 360,304" fill="rgba(82.75%,84.31%,81.18%,1)" stroke="black" stroke-width="1"></polygon><polygon points="360,344 368,344 368,352 376,352 376,344 384,344 392,344 392,352 400,352 400,360 400,368 392,368 392,376 384,376 376,376 376,384 376,392 368,392 368,384 360,384 360,376 352,376 352,368 344,368 336,368 336,360 344,360 352,360 352,352 360,352 360,344" fill="rgba(72.94%,74.12%,71.37%,1)" stroke="black" stroke-width="1"></polygon><polygon points="360,384 368,384 368,392 376,392 376,384 384,384 392,384 392,392 400,392 400,400 400,408 392,408 392,416 384,416 376,416 376,424 376,432 368,432 368,424 360,424 360,416 352,416 352,408 344,408 336,408 336,400 344,400 352,400 352,392 360,392 360,384" fill="rgba(82.75%,84.31%,81.18%,1)" stroke="black" stroke-width="1"></polygon><polygon points="360,424 368,424 368,432 376,432 376,424 384,424 392,424 392,432 400,432 400,440 400,448 392,448 392,456 384,456 376,456 376,464 376,472 368,472 368,464 360,464 360,456 352,456 352,448 344,448 336,448 336,440 344,440 352,440 352,432 360,432 360,424" fill="rgba(72.94%,74.12%,71.37%,1)" stroke="black" stroke-width="1"></polygon><polygon points="360,464 368,464 368,472 376,472 376,464 384,464 392,464 392,472 400,472 400,480 400,488 392,488 392,496 384,496 376,496 376,504 376,512 368,512 368,504 360,504 360,496 352,496 352,488 344,488 336,488 336,480 344,480 352,480 352,472 360,472 360,464" fill="rgba(82.75%,84.31%,81.18%,1)" stroke="black" stroke-width="1"></polygon><polygon points="360,504 368,504 368,512 376,512 376,504 384,504 392,504 392,512 400,512 400,520 400,528 392,528 392,536 384,536 376,536 376,544 376,552 368,552 368,544 360,544 360,536 352,536 352,528 344,528 336,528 336,520 344,520 352,520 352,512 360,512 360,504" fill="rgba(72.94%,74.12%,71.37%,1)" stroke="black" stroke-width="1"></polygon><polygon points="360,544 368,544 368,552 376,552 376,544 384,544 392,544 392,552 400,552 400,560 400,568 392,568 392,576 384,576 376,576 376,584 376,592 368,592 368,584 360,584 360,576 352,576 352,568 344,568 336,568 336,560 344,560 352,560 352,552 360,552 360,544" fill="rgba(82.75%,84.31%,81.18%,1)" stroke="black" stroke-width="1"></polygon><polygon points="360,584 368,584 368,592 376,592 376,584 384,584 392,584 392,592 400,592 400,600 400,608 392,608 392,616 384,616 376,616 376,624 376,632 368,632 368,624 360,624 360,616 352,616 352,608 344,608 336,608 336,600 344,600 352,600 352,592 360,592 360,584" fill="rgba(72.94%,74.12%,71.37%,1)" stroke="black" stroke-width="1"></polygon><polygon points="360,624 368,624 368,632 376,632 376,624 384,624 392,624 392,632 400,632 400,640 400,648 392,648 392,656 384,656 376,656 376,664 376,672 368,672 368,664 360,664 360,656 352,656 352,648 344,648 336,648 336,640 344,640 352,640 352,632 360,632 360,624" fill="rgba(82.75%,84.31%,81.18%,1)" stroke="black" stroke-width="1"></polygon><polygon points="360,664 368,664 368,672 376,672 376,664 384,664 392,664 392,672 400,672 400,680 400,688 392,688 392,696 384,696 376,696 376,704 376,712 368,712 368,704 360,704 360,696 352,696 352,688 344,688 336,688 336,680 344,680 352,680 352,672 360,672 360,664" fill="rgba(72.94%,74.12%,71.37%,1)" stroke="black" stroke-width="1"></polygon><polygon points="400,-40 408,-40 408,-32 416,-32 416,-40 424,-40 432,-40 432,-32 440,-32 440,-24 440,-16 432,-16 432,-8 424,-8 416,-8 416,0 416,8 408,8 408,0 400,0 400,-8 392,-8 392,-16 384,-16 376,-16 376,-24 384,-24 392,-24 392,-32 400,-32 400,-40" fill="rgba(93.33%,93.33%,92.55%,1)" stroke="black" stroke-width="1"></polygon><polygon points="400,0 408,0 408,8 416,8 416,0 424,0 432,0 432,8 440,8 440,16 440,24 432,24 432,32 424,32 416,32 416,40 416,48 408,48 408,40 400,40 400,32 392,32 392,24 384,24 376,24 376,16 384,16 392,16 392,8 400,8 400,0" fill="rgba(100%,100%,100%,1)" stroke="black" stroke-width="1"></polygon><polygon points="400,40 408,40 408,48 416,48 416,40 424,40 432,40 432,48 440,48 440,56 440,64 432,64 432,72 424,72 416,72 416,80 416,88 408,88 408,80 400,80 400,72 392,72 392,64 384,64 376,64 376,56 384,56 392,56 392,48 400,48 400,40" fill="rgba(93.33%,93.33%,92.55%,1)" stroke="black" stroke-width="1"></polygon><polygon points="400,80 408,80 408,88 416,88 416,80 424,80 432,80 432,88 440,88 440,96 440,104 432,104 432,112 424,112 416,112 416,120 416,128 408,128 408,120 400,120 400,112 392,112 392,104 384,104 376,104 376,96 384,96 392,96 392,88 400,88 400,80" fill="rgba(100%,100%,100%,1)" stroke="black" stroke-width="1"></polygon><polygon points="400,120 408,120 408,128 416,128 416,120 424,120 432,120 432,128 440,128 440,136 440,144 432,144 432,152 424,152 416,152 416,160 416,168 408,168 408,160 400,160 400,152 392,152 392,144 384,144 376,144 376,136 384,136 392,136 392,128 400,128 400,120" fill="rgba(93.33%,93.33%,92.55%,1)" stroke="black" stroke-width="1"></polygon><polygon points="400,160 408,160 408,168 416,168 416,160 424,160 432,160 432,168 440,168 440,176 440,184 432,184 432,192 424,192 416,192 416,200 416,208 408,208 408,200 400,200 400,192 392,192 392,184 384,184 376,184 376,176 384,176 392,176 392,168 400,168 400,160" fill="rgba(100%,100%,100%,1)" stroke="black" stroke-width="1"></polygon><polygon points="400,200 408,200 408,208 416,208 416,200 424,200 432,200 432,208 440,208 440,216 440,224 432,224 432,232 424,232 416,232 416,240 416,248 408,248 408,240 400,240 400,232 392,232 392,224 384,224 376,224 376,216 384,216 392,216 392,208 400,208 400,200" fill="rgba(93.33%,93.33%,92.55%,1)" stroke="black" stroke-width="1"></polygon><polygon points="400,240 408,240 408,248 416,248 416,240 424,240 432,240 432,248 440,248 440,256 440,264 432,264 432,272 424,272 416,272 416,280 416,288 408,288 408,280 400,280 400,272 392,272 392,264 384,264 376,264 376,256 384,256 392,256 392,248 400,248 400,240" fill="rgba(100%,100%,100%,1)" stroke="black" stroke-width="1"></polygon><polygon points="400,280 408,280 408,288 416,288 416,280 424,280 432,280 432,288 440,288 440,296 440,304 432,304 432,312 424,312 416,312 416,320 416,328 408,328 408,320 400,320 400,312 392,312 392,304 384,304 376,304 376,296 384,296 392,296 392,288 400,288 400,280" fill="rgba(93.33%,93.33%,92.55%,1)" stroke="black" stroke-width="1"></polygon><polygon points="400,320 408,320 408,328 416,328 416,320 424,320 432,320 432,328 440,328 440,336 440,344 432,344 432,352 424,352 416,352 416,360 416,368 408,368 408,360 400,360 400,352 392,352 392,344 384,344 376,344 376,336 384,336 392,336 392,328 400,328 400,320" fill="rgba(100%,100%,100%,1)" stroke="black" stroke-width="1"></polygon><polygon points="400,360 408,360 408,368 416,368 416,360 424,360 432,360 432,368 440,368 440,376 440,384 432,384 432,392 424,392 416,392 416,400 416,408 408,408 408,400 400,400 400,392 392,392 392,384 384,384 376,384 376,376 384,376 392,376 392,368 400,368 400,360" fill="rgba(93.33%,93.33%,92.55%,1)" stroke="black" stroke-width="1"></polygon><polygon points="400,400 408,400 408,408 416,408 416,400 424,400 432,400 432,408 440,408 440,416 440,424 432,424 432,432 424,432 416,432 416,440 416,448 408,448 408,440 400,440 400,432 392,432 392,424 384,424 376,424 376,416 384,416 392,416 392,408 400,408 400,400" fill="rgba(100%,100%,100%,1)" stroke="black" stroke-width="1"></polygon><polygon points="400,440 408,440 408,448 416,448 416,440 424,440 432,440 432,448 440,448 440,456 440,464 432,464 432,472 424,472 416,472 416,480 416,488 408,488 408,480 400,480 400,472 392,472 392,464 384,464 376,464 376,456 384,456 392,456 392,448 400,448 400,440" fill="rgba(93.33%,93.33%,92.55%,1)" stroke="black" stroke-width="1"></polygon><polygon points="400,480 408,480 408,488 416,488 416,480 424,480 432,480 432,488 440,488 440,496 440,504 432,504 432,512 424,512 416,512 416,520 416,528 408,528 408,520 400,520 400,512 392,512 392,504 384,504 376,504 376,496 384,496 392,496 392,488 400,488 400,480" fill="rgba(100%,100%,100%,1)" stroke="black" stroke-width="1"></polygon><polygon points="400,520 408,520 408,528 416,528 416,520 424,520 432,520 432,528 440,528 440,536 440,544 432,544 432,552 424,552 416,552 416,560 416,568 408,568 408,560 400,560 400,552 392,552 392,544 384,544 376,544 376,536 384,536 392,536 392,528 400,528 400,520" fill="rgba(93.33%,93.33%,92.55%,1)" stroke="black" stroke-width="1"></polygon><polygon points="400,560 408,560 408,568 416,568 416,560 424,560 432,560 432,568 440,568 440,576 440,584 432,584 432,592 424,592 416,592 416,600 416,608 408,608 408,600 400,600 400,592 392,592 392,584 384,584 376,584 376,576 384,576 392,576 392,568 400,568 400,560" fill="rgba(100%,100%,100%,1)" stroke="black" stroke-width="1"></polygon><polygon points="400,600 408,600 408,608 416,608 416,600 424,600 432,600 432,608 440,608 440,616 440,624 432,624 432,632 424,632 416,632 416,640 416,648 408,648 408,640 400,640 400,632 392,632 392,624 384,624 376,624 376,616 384,616 392,616 392,608 400,608 400,600" fill="rgba(93.33%,93.33%,92.55%,1)" stroke="black" stroke-width="1"></polygon><polygon points="400,640 408,640 408,648 416,648 416,640 424,640 432,640 432,648 440,648 440,656 440,664 432,664 432,672 424,672 416,672 416,680 416,688 408,688 408,680 400,680 400,672 392,672 392,664 384,664 376,664 376,656 384,656 392,656 392,648 400,648 400,640" fill="rgba(100%,100%,100%,1)" stroke="black" stroke-width="1"></polygon><polygon points="400,680 408,680 408,688 416,688 416,680 424,680 432,680 432,688 440,688 440,696 440,704 432,704 432,712 424,712 416,712 416,720 416,728 408,728 408,720 400,720 400,712 392,712 392,704 384,704 376,704 376,696 384,696 392,696 392,688 400,688 400,680" fill="rgba(93.33%,93.33%,92.55%,1)" stroke="black" stroke-width="1"></polygon><polygon points="440,-24 448,-24 448,-16 456,-16 456,-24 464,-24 472,-24 472,-16 480,-16 480,-8 480,0 472,0 472,8 464,8 456,8 456,16 456,24 448,24 448,16 440,16 440,8 432,8 432,0 424,0 416,0 416,-8 424,-8 432,-8 432,-16 440,-16 440,-24" fill="rgba(72.94%,74.12%,71.37%,1)" stroke="black" stroke-width="1"></polygon><polygon points="440,16 448,16 448,24 456,24 456,16 464,16 472,16 472,24 480,24 480,32 480,40 472,40 472,48 464,48 456,48 456,56 456,64 448,64 448,56 440,56 440,48 432,48 432,40 424,40 416,40 416,32 424,32 432,32 432,24 440,24 440,16" fill="rgba(82.75%,84.31%,81.18%,1)" stroke="black" stroke-width="1"></polygon><polygon points="440,56 448,56 448,64 456,64 456,56 464,56 472,56 472,64 480,64 480,72 480,80 472,80 472,88 464,88 456,88 456,96 456,104 448,104 448,96 440,96 440,88 432,88 432,80 424,80 416,80 416,72 424,72 432,72 432,64 440,64 440,56" fill="rgba(72.94%,74.12%,71.37%,1)" stroke="black" stroke-width="1"></polygon><polygon points="440,96 448,96 448,104 456,104 456,96 464,96 472,96 472,104 480,104 480,112 480,120 472,120 472,128 464,128 456,128 456,136 456,144 448,144 448,136 440,136 440,128 432,128 432,120 424,120 416,120 416,112 424,112 432,112 432,104 440,104 440,96" fill="rgba(82.75%,84.31%,81.18%,1)" stroke="black" stroke-width="1"></polygon><polygon points="440,136 448,136 448,144 456,144 456,136 464,136 472,136 472,144 480,144 480,152 480,160 472,160 472,168 464,168 456,168 456,176 456,184 448,184 448,176 440,176 440,168 432,168 432,160 424,160 416,160 416,152 424,152 432,152 432,144 440,144 440,136" fill="rgba(72.94%,74.12%,71.37%,1)" stroke="black" stroke-width="1"></polygon><polygon points="440,176 448,176 448,184 456,184 456,176 464,176 472,176 472,184 480,184 480,192 480,200 472,200 472,208 464,208 456,208 456,216 456,224 448,224 448,216 440,216 440,208 432,208 432,200 424,200 416,200 416,192 424,192 432,192 432,184 440,184 440,176" fill="rgba(82.75%,84.31%,81.18%,1)" stroke="black" stroke-width="1"></polygon><polygon points="440,216 448,216 448,224 456,224 456,216 464,216 472,216 472,224 480,224 480,232 480,240 472,240 472,248 464,248 456,248 456,256 456,264 448,264 448,256 440,256 440,248 432,248 432,240 424,240 416,240 416,232 424,232 432,232 432,224 440,224 440,216" fill="rgba(72.94%,74.12%,71.37%,1)" stroke="black" stroke-width="1"></polygon><polygon points="440,256 448,256 448,264 456,264 456,256 464,256 472,256 472,264 480,264 480,272 480,280 472,280 472,288 464,288 456,288 456,296 456,304 448,304 448,296 440,296 440,288 432,288 432,280 424,280 416,280 416,272 424,272 432,272 432,264 440,264 440,256" fill="rgba(82.75%,84.31%,81.18%,1)" stroke="black" stroke-width="1"></polygon><polygon points="440,296 448,296 448,304 456,304 456,296 464,296 472,296 472,304 480,304 480,312 480,320 472,320 472,328 464,328 456,328 456,336 456,344 448,344 448,336 440,336 440,328 432,328 432,320 424,320 416,320 416,312 424,312 432,312 432,304 440,304 440,296" fill="rgba(72.94%,74.12%,71.37%,1)" stroke="black" stroke-width="1"></polygon><polygon points="440,336 448,336 448,344 456,344 456,336 464,336 472,336 472,344 480,344 480,352 480,360 472,360 472,368 464,368 456,368 456,376 456,384 448,384 448,376 440,376 440,368 432,368 432,360 424,360 416,360 416,352 424,352 432,352 432,344 440,344 440,336" fill="rgba(82.75%,84.31%,81.18%,1)" stroke="black" stroke-width="1"></polygon><polygon points="440,376 448,376 448,384 456,384 456,376 464,376 472,376 472,384 480,384 480,392 480,400 472,400 472,408 464,408 456,408 456,416 456,424 448,424 448,416 440,416 440,408 432,408 432,400 424,400 416,400 416,392 424,392 432,392 432,384 440,384 440,376" fill="rgba(72.94%,74.12%,71.37%,1)" stroke="black" stroke-width="1"></polygon><polygon points="440,416 448,416 448,424 456,424 456,416 464,416 472,416 472,424 480,424 480,432 480,440 472,440 472,448 464,448 456,448 456,456 456,464 448,464 448,456 440,456 440,448 432,448 432,440 424,440 416,440 416,432 424,432 432,432 432,424 440,424 440,416" fill="rgba(82.75%,84.31%,81.18%,1)" stroke="black" stroke-width="1"></polygon><polygon points="440,456 448,456 448,464 456,464 456,456 464,456 472,456 472,464 480,464 480,472 480,480 472,480 472,488 464,488 456,488 456,496 456,504 448,504 448,496 440,496 440,488 432,488 432,480 424,480 416,480 416,472 424,472 432,472 432,464 440,464 440,456" fill="rgba(72.94%,74.12%,71.37%,1)" stroke="black" stroke-width="1"></polygon><polygon points="440,496 448,496 448,504 456,504 456,496 464,496 472,496 472,504 480,504 480,512 480,520 472,520 472,528 464,528 456,528 456,536 456,544 448,544 448,536 440,536 440,528 432,528 432,520 424,520 416,520 416,512 424,512 432,512 432,504 440,504 440,496" fill="rgba(82.75%,84.31%,81.18%,1)" stroke="black" stroke-width="1"></polygon><polygon points="440,536 448,536 448,544 456,544 456,536 464,536 472,536 472,544 480,544 480,552 480,560 472,560 472,568 464,568 456,568 456,576 456,584 448,584 448,576 440,576 440,568 432,568 432,560 424,560 416,560 416,552 424,552 432,552 432,544 440,544 440,536" fill="rgba(72.94%,74.12%,71.37%,1)" stroke="black" stroke-width="1"></polygon><polygon points="440,576 448,576 448,584 456,584 456,576 464,576 472,576 472,584 480,584 480,592 480,600 472,600 472,608 464,608 456,608 456,616 456,624 448,624 448,616 440,616 440,608 432,608 432,600 424,600 416,600 416,592 424,592 432,592 432,584 440,584 440,576" fill="rgba(82.75%,84.31%,81.18%,1)" stroke="black" stroke-width="1"></polygon><polygon points="440,616 448,616 448,624 456,624 456,616 464,616 472,616 472,624 480,624 480,632 480,640 472,640 472,648 464,648 456,648 456,656 456,664 448,664 448,656 440,656 440,648 432,648 432,640 424,640 416,640 416,632 424,632 432,632 432,624 440,624 440,616" fill="rgba(72.94%,74.12%,71.37%,1)" stroke="black" stroke-width="1"></polygon><polygon points="440,656 448,656 448,664 456,664 456,656 464,656 472,656 472,664 480,664 480,672 480,680 472,680 472,688 464,688 456,688 456,696 456,704 448,704 448,696 440,696 440,688 432,688 432,680 424,680 416,680 416,672 424,672 432,672 432,664 440,664 440,656" fill="rgba(82.75%,84.31%,81.18%,1)" stroke="black" stroke-width="1"></polygon><polygon points="440,696 448,696 448,704 456,704 456,696 464,696 472,696 472,704 480,704 480,712 480,720 472,720 472,728 464,728 456,728 456,736 456,744 448,744 448,736 440,736 440,728 432,728 432,720 424,720 416,720 416,712 424,712 432,712 432,704 440,704 440,696" fill="rgba(72.94%,74.12%,71.37%,1)" stroke="black" stroke-width="1"></polygon><polygon points="480,-8 488,-8 488,0 496,0 496,-8 504,-8 512,-8 512,0 520,0 520,8 520,16 512,16 512,24 504,24 496,24 496,32 496,40 488,40 488,32 480,32 480,24 472,24 472,16 464,16 456,16 456,8 464,8 472,8 472,0 480,0 480,-8" fill="rgba(93.33%,93.33%,92.55%,1)" stroke="black" stroke-width="1"></polygon><polygon points="480,32 488,32 488,40 496,40 496,32 504,32 512,32 512,40 520,40 520,48 520,56 512,56 512,64 504,64 496,64 496,72 496,80 488,80 488,72 480,72 480,64 472,64 472,56 464,56 456,56 456,48 464,48 472,48 472,40 480,40 480,32" fill="rgba(100%,100%,100%,1)" stroke="black" stroke-width="1"></polygon><polygon points="480,72 488,72 488,80 496,80 496,72 504,72 512,72 512,80 520,80 520,88 520,96 512,96 512,104 504,104 496,104 496,112 496,120 488,120 488,112 480,112 480,104 472,104 472,96 464,96 456,96 456,88 464,88 472,88 472,80 480,80 480,72" fill="rgba(93.33%,93.33%,92.55%,1)" stroke="black" stroke-width="1"></polygon><polygon points="480,112 488,112 488,120 496,120 496,112 504,112 512,112 512,120 520,120 520,128 520,136 512,136 512,144 504,144 496,144 496,152 496,160 488,160 488,152 480,152 480,144 472,144 472,136 464,136 456,136 456,128 464,128 472,128 472,120 480,120 480,112" fill="rgba(100%,100%,100%,1)" stroke="black" stroke-width="1"></polygon><polygon points="480,152 488,152 488,160 496,160 496,152 504,152 512,152 512,160 520,160 520,168 520,176 512,176 512,184 504,184 496,184 496,192 496,200 488,200 488,192 480,192 480,184 472,184 472,176 464,176 456,176 456,168 464,168 472,168 472,160 480,160 480,152" fill="rgba(93.33%,93.33%,92.55%,1)" stroke="black" stroke-width="1"></polygon><polygon points="480,192 488,192 488,200 496,200 496,192 504,192 512,192 512,200 520,200 520,208 520,216 512,216 512,224 504,224 496,224 496,232 496,240 488,240 488,232 480,232 480,224 472,224 472,216 464,216 456,216 456,208 464,208 472,208 472,200 480,200 480,192" fill="rgba(100%,100%,100%,1)" stroke="black" stroke-width="1"></polygon><polygon points="480,232 488,232 488,240 496,240 496,232 504,232 512,232 512,240 520,240 520,248 520,256 512,256 512,264 504,264 496,264 496,272 496,280 488,280 488,272 480,272 480,264 472,264 472,256 464,256 456,256 456,248 464,248 472,248 472,240 480,240 480,232" fill="rgba(93.33%,93.33%,92.55%,1)" stroke="black" stroke-width="1"></polygon><polygon points="480,272 488,272 488,280 496,280 496,272 504,272 512,272 512,280 520,280 520,288 520,296 512,296 512,304 504,304 496,304 496,312 496,320 488,320 488,312 480,312 480,304 472,304 472,296 464,296 456,296 456,288 464,288 472,288 472,280 480,280 480,272" fill="rgba(100%,100%,100%,1)" stroke="black" stroke-width="1"></polygon><polygon points="480,312 488,312 488,320 496,320 496,312 504,312 512,312 512,320 520,320 520,328 520,336 512,336 512,344 504,344 496,344 496,352 496,360 488,360 488,352 480,352 480,344 472,344 472,336 464,336 456,336 456,328 464,328 472,328 472,320 480,320 480,312" fill="rgba(93.33%,93.33%,92.55%,1)" stroke="black" stroke-width="1"></polygon><polygon points="480,352 488,352 488,360 496,360 496,352 504,352 512,352 512,360 520,360 520,368 520,376 512,376 512,384 504,384 496,384 496,392 496,400 488,400 488,392 480,392 480,384 472,384 472,376 464,376 456,376 456,368 464,368 472,368 472,360 480,360 480,352" fill="rgba(100%,100%,100%,1)" stroke="black" stroke-width="1"></polygon><polygon points="480,392 488,392 488,400 496,400 496,392 504,392 512,392 512,400 520,400 520,408 520,416 512,416 512,424 504,424 496,424 496,432 496,440 488,440 488,432 480,432 480,424 472,424 472,416 464,416 456,416 456,408 464,408 472,408 472,400 480,400 480,392" fill="rgba(93.33%,93.33%,92.55%,1)" stroke="black" stroke-width="1"></polygon><polygon points="480,432 488,432 488,440 496,440 496,432 504,432 512,432 512,440 520,440 520,448 520,456 512,456 512,464 504,464 496,464 496,472 496,480 488,480 488,472 480,472 480,464 472,464 472,456 464,456 456,456 456,448 464,448 472,448 472,440 480,440 480,432" fill="rgba(100%,100%,100%,1)" stroke="black" stroke-width="1"></polygon><polygon points="480,472 488,472 488,480 496,480 496,472 504,472 512,472 512,480 520,480 520,488 520,496 512,496 512,504 504,504 496,504 496,512 496,520 488,520 488,512 480,512 480,504 472,504 472,496 464,496 456,496 456,488 464,488 472,488 472,480 480,480 480,472" fill="rgba(93.33%,93.33%,92.55%,1)" stroke="black" stroke-width="1"></polygon><polygon points="480,512 488,512 488,520 496,520 496,512 504,512 512,512 512,520 520,520 520,528 520,536 512,536 512,544 504,544 496,544 496,552 496,560 488,560 488,552 480,552 480,544 472,544 472,536 464,536 456,536 456,528 464,528 472,528 472,520 480,520 480,512" fill="rgba(100%,100%,100%,1)" stroke="black" stroke-width="1"></polygon><polygon points="480,552 488,552 488,560 496,560 496,552 504,552 512,552 512,560 520,560 520,568 520,576 512,576 512,584 504,584 496,584 496,592 496,600 488,600 488,592 480,592 480,584 472,584 472,576 464,576 456,576 456,568 464,568 472,568 472,560 480,560 480,552" fill="rgba(93.33%,93.33%,92.55%,1)" stroke="black" stroke-width="1"></polygon><polygon points="480,592 488,592 488,600 496,600 496,592 504,592 512,592 512,600 520,600 520,608 520,616 512,616 512,624 504,624 496,624 496,632 496,640 488,640 488,632 480,632 480,624 472,624 472,616 464,616 456,616 456,608 464,608 472,608 472,600 480,600 480,592" fill="rgba(100%,100%,100%,1)" stroke="black" stroke-width="1"></polygon><polygon points="480,632 488,632 488,640 496,640 496,632 504,632 512,632 512,640 520,640 520,648 520,656 512,656 512,664 504,664 496,664 496,672 496,680 488,680 488,672 480,672 480,664 472,664 472,656 464,656 456,656 456,648 464,648 472,648 472,640 480,640 480,632" fill="rgba(93.33%,93.33%,92.55%,1)" stroke="black" stroke-width="1"></polygon><polygon points="480,672 488,672 488,680 496,680 496,672 504,672 512,672 512,680 520,680 520,688 520,696 512,696 512,704 504,704 496,704 496,712 496,720 488,720 488,712 480,712 480,704 472,704 472,696 464,696 456,696 456,688 464,688 472,688 472,680 480,680 480,672" fill="rgba(100%,100%,100%,1)" stroke="black" stroke-width="1"></polygon><polygon points="480,712 488,712 488,720 496,720 496,712 504,712 512,712 512,720 520,720 520,728 520,736 512,736 512,744 504,744 496,744 496,752 496,760 488,760 488,752 480,752 480,744 472,744 472,736 464,736 456,736 456,728 464,728 472,728 472,720 480,720 480,712" fill="rgba(93.33%,93.33%,92.55%,1)" stroke="black" stroke-width="1"></polygon><polygon points="520,8 528,8 528,16 536,16 536,8 544,8 552,8 552,16 560,16 560,24 560,32 552,32 552,40 544,40 536,40 536,48 536,56 528,56 528,48 520,48 520,40 512,40 512,32 504,32 496,32 496,24 504,24 512,24 512,16 520,16 520,8" fill="rgba(72.94%,74.12%,71.37%,1)" stroke="black" stroke-width="1"></polygon><polygon points="520,48 528,48 528,56 536,56 536,48 544,48 552,48 552,56 560,56 560,64 560,72 552,72 552,80 544,80 536,80 536,88 536,96 528,96 528,88 520,88 520,80 512,80 512,72 504,72 496,72 496,64 504,64 512,64 512,56 520,56 520,48" fill="rgba(82.75%,84.31%,81.18%,1)" stroke="black" stroke-width="1"></polygon><polygon points="520,88 528,88 528,96 536,96 536,88 544,88 552,88 552,96 560,96 560,104 560,112 552,112 552,120 544,120 536,120 536,128 536,136 528,136 528,128 520,128 520,120 512,120 512,112 504,112 496,112 496,104 504,104 512,104 512,96 520,96 520,88" fill="rgba(72.94%,74.12%,71.37%,1)" stroke="black" stroke-width="1"></polygon><polygon points="520,128 528,128 528,136 536,136 536,128 544,128 552,128 552,136 560,136 560,144 560,152 552,152 552,160 544,160 536,160 536,168 536,176 528,176 528,168 520,168 520,160 512,160 512,152 504,152 496,152 496,144 504,144 512,144 512,136 520,136 520,128" fill="rgba(82.75%,84.31%,81.18%,1)" stroke="black" stroke-width="1"></polygon><polygon points="520,168 528,168 528,176 536,176 536,168 544,168 552,168 552,176 560,176 560,184 560,192 552,192 552,200 544,200 536,200 536,208 536,216 528,216 528,208 520,208 520,200 512,200 512,192 504,192 496,192 496,184 504,184 512,184 512,176 520,176 520,168" fill="rgba(72.94%,74.12%,71.37%,1)" stroke="black" stroke-width="1"></polygon><polygon points="520,208 528,208 528,216 536,216 536,208 544,208 552,208 552,216 560,216 560,224 560,232 552,232 552,240 544,240 536,240 536,248 536,256 528,256 528,248 520,248 520,240 512,240 512,232 504,232 496,232 496,224 504,224 512,224 512,216 520,216 520,208" fill="rgba(82.75%,84.31%,81.18%,1)" stroke="black" stroke-width="1"></polygon><polygon points="520,248 528,248 528,256 536,256 536,248 544,248 552,248 552,256 560,256 560,264 560,272 552,272 552,280 544,280 536,280 536,288 536,296 528,296 528,288 520,288 520,280 512,280 512,272 504,272 496,272 496,264 504,264 512,264 512,256 520,256 520,248" fill="rgba(72.94%,74.12%,71.37%,1)" stroke="black" stroke-width="1"></polygon><polygon points="520,288 528,288 528,296 536,296 536,288 544,288 552,288 552,296 560,296 560,304 560,312 552,312 552,320 544,320 536,320 536,328 536,336 528,336 528,328 520,328 520,320 512,320 512,312 504,312 496,312 496,304 504,304 512,304 512,296 520,296 520,288" fill="rgba(82.75%,84.31%,81.18%,1)" stroke="black" stroke-width="1"></polygon><polygon points="520,328 528,328 528,336 536,336 536,328 544,328 552,328 552,336 560,336 560,344 560,352 552,352 552,360 544,360 536,360 536,368 536,376 528,376 528,368 520,368 520,360 512,360 512,352 504,352 496,352 496,344 504,344 512,344 512,336 520,336 520,328" fill="rgba(72.94%,74.12%,71.37%,1)" stroke="black" stroke-width="1"></polygon><polygon points="520,368 528,368 528,376 536,376 536,368 544,368 552,368 552,376 560,376 560,384 560,392 552,392 552,400 544,400 536,400 536,408 536,416 528,416 528,408 520,408 520,400 512,400 512,392 504,392 496,392 496,384 504,384 512,384 512,376 520,376 520,368" fill="rgba(82.75%,84.31%,81.18%,1)" stroke="black" stroke-width="1"></polygon><polygon points="520,408 528,408 528,416 536,416 536,408 544,408 552,408 552,416 560,416 560,424 560,432 552,432 552,440 544,440 536,440 536,448 536,456 528,456 528,448 520,448 520,440 512,440 512,432 504,432 496,432 496,424 504,424 512,424 512,416 520,416 520,408" fill="rgba(72.94%,74.12%,71.37%,1)" stroke="black" stroke-width="1"></polygon><polygon points="520,448 528,448 528,456 536,456 536,448 544,448 552,448 552,456 560,456 560,464 560,472 552,472 552,480 544,480 536,480 536,488 536,496 528,496 528,488 520,488 520,480 512,480 512,472 504,472 496,472 496,464 504,464 512,464 512,456 520,456 520,448" fill="rgba(82.75%,84.31%,81.18%,1)" stroke="black" stroke-width="1"></polygon><polygon points="520,488 528,488 528,496 536,496 536,488 544,488 552,488 552,496 560,496 560,504 560,512 552,512 552,520 544,520 536,520 536,528 536,536 528,536 528,528 520,528 520,520 512,520 512,512 504,512 496,512 496,504 504,504 512,504 512,496 520,496 520,488" fill="rgba(72.94%,74.12%,71.37%,1)" stroke="black" stroke-width="1"></polygon><polygon points="520,528 528,528 528,536 536,536 536,528 544,528 552,528 552,536 560,536 560,544 560,552 552,552 552,560 544,560 536,560 536,568 536,576 528,576 528,568 520,568 520,560 512,560 512,552 504,552 496,552 496,544 504,544 512,544 512,536 520,536 520,528" fill="rgba(82.75%,84.31%,81.18%,1)" stroke="black" stroke-width="1"></polygon><polygon points="520,568 528,568 528,576 536,576 536,568 544,568 552,568 552,576 560,576 560,584 560,592 552,592 552,600 544,600 536,600 536,608 536,616 528,616 528,608 520,608 520,600 512,600 512,592 504,592 496,592 496,584 504,584 512,584 512,576 520,576 520,568" fill="rgba(72.94%,74.12%,71.37%,1)" stroke="black" stroke-width="1"></polygon><polygon points="520,608 528,608 528,616 536,616 536,608 544,608 552,608 552,616 560,616 560,624 560,632 552,632 552,640 544,640 536,640 536,648 536,656 528,656 528,648 520,648 520,640 512,640 512,632 504,632 496,632 496,624 504,624 512,624 512,616 520,616 520,608" fill="rgba(82.75%,84.31%,81.18%,1)" stroke="black" stroke-width="1"></polygon><polygon points="520,648 528,648 528,656 536,656 536,648 544,648 552,648 552,656 560,656 560,664 560,672 552,672 552,680 544,680 536,680 536,688 536,696 528,696 528,688 520,688 520,680 512,680 512,672 504,672 496,672 496,664 504,664 512,664 512,656 520,656 520,648" fill="rgba(72.94%,74.12%,71.37%,1)" stroke="black" stroke-width="1"></polygon><polygon points="520,688 528,688 528,696 536,696 536,688 544,688 552,688 552,696 560,696 560,704 560,712 552,712 552,720 544,720 536,720 536,728 536,736 528,736 528,728 520,728 520,720 512,720 512,712 504,712 496,712 496,704 504,704 512,704 512,696 520,696 520,688" fill="rgba(82.75%,84.31%,81.18%,1)" stroke="black" stroke-width="1"></polygon><polygon points="520,728 528,728 528,736 536,736 536,728 544,728 552,728 552,736 560,736 560,744 560,752 552,752 552,760 544,760 536,760 536,768 536,776 528,776 528,768 520,768 520,760 512,760 512,752 504,752 496,752 496,744 504,744 512,744 512,736 520,736 520,728" fill="rgba(72.94%,74.12%,71.37%,1)" stroke="black" stroke-width="1"></polygon></svg>