<?xml version="1.0" standalone="no"?>
<svg xmlns:xlink="http://www.w3.org/1999/xlink" xmlns="http://www.w3.org/2000/svg" width="500" height="500"><g transform="translate(250,250)"><g transform="rotate(-3.9200000762939453)"><circle cx="15" cy="0" r="8" fill="rgba(80%,0%,0%,1)"></circle><circle cx="4.635254915624212" cy="14.265847744427303" r="8" fill="rgba(80%,0%,0%,1)"></circle><circle cx="-12.13525491562421" cy="8.816778784387099" r="8" fill="rgba(80%,0%,0%,1)"></circle><circle cx="-12.135254915624213" cy="-8.816778784387095" r="8" fill="rgba(80%,0%,0%,1)"></circle><circle cx="4.635254915624208" cy="-14.265847744427305" r="8" fill="rgba(80%,0%,0%,1)"></circle><circle cx="15" cy="-3.67394039744206e-15" r="8" fill="rgba(80%,0%,0%,1)"></circle></g><g transform="rotate(3.9200000762939453)"><circle cx="30" cy="0" r="4" fill="rgba(80%,0%,0%,1)"></circle><circle cx="27.406363729278027" cy="12.202099292274005" r="4" fill="rgba(80%,0%,0%,1)"></circle><circle cx="20.07391819076575" cy="22.294344764321824" r="4" fill="rgba(80%,0%,0%,1)"></circle><circle cx="9.270509831248424" cy="28.531695488854606" r="4" fill="rgba(80%,0%,0%,1)"></circle><circle cx="-3.1358538980296" cy="29.835656861048204" r="4" fill="rgba(80%,0%,0%,1)"></circle><circle cx="-14.999999999999993" cy="25.980762113533164" r="4" fill="rgba(80%,0%,0%,1)"></circle><circle cx="-24.27050983124842" cy="17.633557568774197" r="4" fill="rgba(80%,0%,0%,1)"></circle><circle cx="-29.34442802201417" cy="6.237350724532779" r="4" fill="rgba(80%,0%,0%,1)"></circle><circle cx="-29.34442802201417" cy="-6.237350724532772" r="4" fill="rgba(80%,0%,0%,1)"></circle><circle cx="-24.270509831248425" cy="-17.63355756877419" r="4" fill="rgba(80%,0%,0%,1)"></circle><circle cx="-15.000000000000014" cy="-25.980762113533153" r="4" fill="rgba(80%,0%,0%,1)"></circle><circle cx="-3.1358538980296005" cy="-29.835656861048204" r="4" fill="rgba(80%,0%,0%,1)"></circle><circle cx="9.270509831248416" cy="-28.53169548885461" r="4" fill="rgba(80%,0%,0%,1)"></circle><circle cx="20.073918190765735" cy="-22.294344764321842" r="4" fill="rgba(80%,0%,0%,1)"></circle><circle cx="27.40636372927803" cy="-12.202099292274005" r="4" fill="rgba(80%,0%,0%,1)"></circle><circle cx="30" cy="-7.34788079488412e-15" r="4" fill="rgba(80%,0%,0%,1)"></circle></g><g transform="rotate(11.760000228881836)"><circle cx="45" cy="0" r="8" fill="rgba(80%,0%,0%,1)"></circle><circle cx="40.54359905560886" cy="19.524768260290116" r="8" fill="rgba(80%,0%,0%,1)"></circle><circle cx="28.05704108364301" cy="35.182416711061336" r="8" fill="rgba(80%,0%,0%,1)"></circle><circle cx="10.01344202803415" cy="43.871756048182064" r="8" fill="rgba(80%,0%,0%,1)"></circle><circle cx="-10.013442028034145" cy="43.871756048182064" r="8" fill="rgba(80%,0%,0%,1)"></circle><circle cx="-28.05704108364302" cy="35.18241671106133" r="8" fill="rgba(80%,0%,0%,1)"></circle><circle cx="-40.54359905560886" cy="19.52476826029012" r="8" fill="rgba(80%,0%,0%,1)"></circle><circle cx="-45" cy="5.5109105961630896e-15" r="8" fill="rgba(80%,0%,0%,1)"></circle><circle cx="-40.54359905560886" cy="-19.52476826029011" r="8" fill="rgba(80%,0%,0%,1)"></circle><circle cx="-28.057041083643018" cy="-35.182416711061336" r="8" fill="rgba(80%,0%,0%,1)"></circle><circle cx="-10.013442028034119" cy="-43.87175604818207" r="8" fill="rgba(80%,0%,0%,1)"></circle><circle cx="10.013442028034138" cy="-43.871756048182064" r="8" fill="rgba(80%,0%,0%,1)"></circle><circle cx="28.057041083643" cy="-35.18241671106134" r="8" fill="rgba(80%,0%,0%,1)"></circle><circle cx="40.54359905560886" cy="-19.524768260290124" r="8" fill="rgba(80%,0%,0%,1)"></circle><circle cx="45" cy="-1.1021821192326179e-14" r="8" fill="rgba(80%,0%,0%,1)"></circle></g><g transform="rotate(19.600000381469727)"><circle cx="60" cy="0" r="4" fill="rgba(80%,0%,0%,1)"></circle><circle cx="58.5972333426052" cy="12.898226412661442" r="4" fill="rgba(80%,0%,0%,1)"></circle><circle cx="54.45452518025743" cy="25.193346093615872" r="4" fill="rgba(80%,0%,0%,1)"></circle><circle cx="47.76558394233862" cy="36.31045291162591" r="4" fill="rgba(80%,0%,0%,1)"></circle><circle cx="38.84317708690967" cy="45.72972330765818" r="4" fill="rgba(80%,0%,0%,1)"></circle><circle cx="28.10450644198741" cy="53.010722666761374" r="4" fill="rgba(80%,0%,0%,1)"></circle><circle cx="16.051700311753258" cy="57.812999551153375" r="4" fill="rgba(80%,0%,0%,1)"></circle><circle cx="3.2483345151250567" cy="59.91200483106743" r="4" fill="rgba(80%,0%,0%,1)"></circle><circle cx="-9.70691979316587" cy="59.20959135249157" r="4" fill="rgba(80%,0%,0%,1)"></circle><circle cx="-22.20828932039484" cy="55.73860318900749" r="4" fill="rgba(80%,0%,0%,1)"></circle><circle cx="-33.671223921742936" cy="49.66133988941343" r="4" fill="rgba(80%,0%,0%,1)"></circle><circle cx="-43.55972951538785" cy="41.2619675312054" r="4" fill="rgba(80%,0%,0%,1)"></circle><circle cx="-51.411430570055344" cy="30.933231430621323" r="4" fill="rgba(80%,0%,0%,1)"></circle><circle cx="-56.85919027096814" cy="19.15809180815881" r="4" fill="rgba(80%,0%,0%,1)"></circle><circle cx="-59.648277429261576" cy="6.487141105436516" r="4" fill="rgba(80%,0%,0%,1)"></circle><circle cx="-59.648277429261576" cy="-6.487141105436501" r="4" fill="rgba(80%,0%,0%,1)"></circle><circle cx="-56.859190270968156" cy="-19.158091808158773" r="4" fill="rgba(80%,0%,0%,1)"></circle><circle cx="-51.41143057005535" cy="-30.933231430621312" r="4" fill="rgba(80%,0%,0%,1)"></circle><circle cx="-43.55972951538788" cy="-41.261967531205364" r="4" fill="rgba(80%,0%,0%,1)"></circle><circle cx="-33.67122392174296" cy="-49.661339889413426" r="4" fill="rgba(80%,0%,0%,1)"></circle><circle cx="-22.20828932039487" cy="-55.738603189007485" r="4" fill="rgba(80%,0%,0%,1)"></circle><circle cx="-9.706919793165886" cy="-59.20959135249157" r="4" fill="rgba(80%,0%,0%,1)"></circle><circle cx="3.2483345151250553" cy="-59.91200483106743" r="4" fill="rgba(80%,0%,0%,1)"></circle><circle cx="16.051700311753258" cy="-57.812999551153375" r="4" fill="rgba(80%,0%,0%,1)"></circle><circle cx="28.104506441987375" cy="-53.01072266676139" r="4" fill="rgba(80%,0%,0%,1)"></circle><circle cx="38.84317708690967" cy="-45.729723307658176" r="4" fill="rgba(80%,0%,0%,1)"></circle><circle cx="47.76558394233861" cy="-36.31045291162594" r="4" fill="rgba(80%,0%,0%,1)"></circle><circle cx="54.45452518025739" cy="-25.193346093615947" r="4" fill="rgba(80%,0%,0%,1)"></circle><circle cx="58.5972333426052" cy="-12.898226412661465" r="4" fill="rgba(80%,0%,0%,1)"></circle><circle cx="60" cy="-1.469576158976824e-14" r="4" fill="rgba(80%,0%,0%,1)"></circle></g><g transform="rotate(-11.760000228881836)"><circle cx="75" cy="0" r="8" fill="rgba(80%,0%,0%,1)"></circle><circle cx="72.21879655108495" cy="20.234757836776822" r="8" fill="rgba(80%,0%,0%,1)"></circle><circle cx="64.08145534098664" cy="38.96879625265752" r="8" fill="rgba(80%,0%,0%,1)"></circle><circle cx="51.191485741399056" cy="54.8126973208593" r="8" fill="rgba(80%,0%,0%,1)"></circle><circle cx="34.50487782983641" cy="66.59139138017814" r="8" fill="rgba(80%,0%,0%,1)"></circle><circle cx="15.259200978947531" cy="73.43130657617422" r="8" fill="rgba(80%,0%,0%,1)"></circle><circle cx="-5.118181002350317" cy="74.82515768929044" r="8" fill="rgba(80%,0%,0%,1)"></circle><circle cx="-25.115970912823947" cy="70.66956915891154" r="8" fill="rgba(80%,0%,0%,1)"></circle><circle cx="-43.251024158615024" cy="61.272741975783156" r="8" fill="rgba(80%,0%,0%,1)"></circle><circle cx="-58.17834680283149" cy="47.33159582445395" r="8" fill="rgba(80%,0%,0%,1)"></circle><circle cx="-68.79084761290898" cy="29.880081738468103" r="8" fill="rgba(80%,0%,0%,1)"></circle><circle cx="-74.3014459527248" cy="10.212498682218499" r="8" fill="rgba(80%,0%,0%,1)"></circle><circle cx="-74.3014459527248" cy="-10.212498682218483" r="8" fill="rgba(80%,0%,0%,1)"></circle><circle cx="-68.79084761290898" cy="-29.880081738468117" r="8" fill="rgba(80%,0%,0%,1)"></circle><circle cx="-58.17834680283151" cy="-47.331595824453935" r="8" fill="rgba(80%,0%,0%,1)"></circle><circle cx="-43.251024158615046" cy="-61.27274197578314" r="8" fill="rgba(80%,0%,0%,1)"></circle><circle cx="-25.11597091282398" cy="-70.66956915891153" r="8" fill="rgba(80%,0%,0%,1)"></circle><circle cx="-5.118181002350351" cy="-74.82515768929044" r="8" fill="rgba(80%,0%,0%,1)"></circle><circle cx="15.259200978947563" cy="-73.43130657617421" r="8" fill="rgba(80%,0%,0%,1)"></circle><circle cx="34.50487782983637" cy="-66.59139138017817" r="8" fill="rgba(80%,0%,0%,1)"></circle><circle cx="51.191485741399056" cy="-54.8126973208593" r="8" fill="rgba(80%,0%,0%,1)"></circle><circle cx="64.08145534098664" cy="-38.96879625265752" r="8" fill="rgba(80%,0%,0%,1)"></circle><circle cx="72.21879655108495" cy="-20.23475783677683" r="8" fill="rgba(80%,0%,0%,1)"></circle><circle cx="75" cy="-1.8369701987210297e-14" r="8" fill="rgba(80%,0%,0%,1)"></circle></g><g transform="rotate(-3.9200000762939453)"><circle cx="90" cy="0" r="4" fill="rgba(80%,0%,0%,1)"></circle><circle cx="89.08392976928394" cy="12.808335444595663" r="4" fill="rgba(80%,0%,0%,1)"></circle><circle cx="86.35436762530476" cy="25.355930115728672" r="4" fill="rgba(80%,0%,0%,1)"></circle><circle cx="81.86687958190664" cy="37.38735117016978" r="4" fill="rgba(80%,0%,0%,1)"></circle><circle cx="75.71281795480631" cy="48.65767357100378" r="4" fill="rgba(80%,0%,0%,1)"></circle><circle cx="68.01746169188326" cy="58.937466055075646" r="4" fill="rgba(80%,0%,0%,1)"></circle><circle cx="58.93746605507566" cy="68.01746169188324" r="4" fill="rgba(80%,0%,0%,1)"></circle><circle cx="48.65767357100379" cy="75.7128179548063" r="4" fill="rgba(80%,0%,0%,1)"></circle><circle cx="37.38735117016978" cy="81.86687958190664" r="4" fill="rgba(80%,0%,0%,1)"></circle><circle cx="25.35593011572868" cy="86.35436762530476" r="4" fill="rgba(80%,0%,0%,1)"></circle><circle cx="12.80833544459568" cy="89.08392976928394" r="4" fill="rgba(80%,0%,0%,1)"></circle><circle cx="5.5109105961630896e-15" cy="90" r="4" fill="rgba(80%,0%,0%,1)"></circle><circle cx="-12.80833544459567" cy="89.08392976928394" r="4" fill="rgba(80%,0%,0%,1)"></circle><circle cx="-25.355930115728672" cy="86.35436762530476" r="4" fill="rgba(80%,0%,0%,1)"></circle><circle cx="-37.38735117016977" cy="81.86687958190666" r="4" fill="rgba(80%,0%,0%,1)"></circle><circle cx="-48.65767357100378" cy="75.71281795480631" r="4" fill="rgba(80%,0%,0%,1)"></circle><circle cx="-58.937466055075646" cy="68.01746169188326" r="4" fill="rgba(80%,0%,0%,1)"></circle><circle cx="-68.01746169188323" cy="58.93746605507567" r="4" fill="rgba(80%,0%,0%,1)"></circle><circle cx="-75.7128179548063" cy="48.6576735710038" r="4" fill="rgba(80%,0%,0%,1)"></circle><circle cx="-81.86687958190666" cy="37.387351170169765" r="4" fill="rgba(80%,0%,0%,1)"></circle><circle cx="-86.35436762530475" cy="25.355930115728704" r="4" fill="rgba(80%,0%,0%,1)"></circle><circle cx="-89.08392976928394" cy="12.808335444595665" r="4" fill="rgba(80%,0%,0%,1)"></circle><circle cx="-90" cy="1.1021821192326179e-14" r="4" fill="rgba(80%,0%,0%,1)"></circle><circle cx="-89.08392976928396" cy="-12.808335444595645" r="4" fill="rgba(80%,0%,0%,1)"></circle><circle cx="-86.35436762530476" cy="-25.355930115728686" r="4" fill="rgba(80%,0%,0%,1)"></circle><circle cx="-81.86687958190667" cy="-37.38735117016975" r="4" fill="rgba(80%,0%,0%,1)"></circle><circle cx="-75.71281795480631" cy="-48.65767357100378" r="4" fill="rgba(80%,0%,0%,1)"></circle><circle cx="-68.01746169188326" cy="-58.937466055075646" r="4" fill="rgba(80%,0%,0%,1)"></circle><circle cx="-58.93746605507567" cy="-68.01746169188323" r="4" fill="rgba(80%,0%,0%,1)"></circle><circle cx="-48.65767357100377" cy="-75.71281795480631" r="4" fill="rgba(80%,0%,0%,1)"></circle><circle cx="-37.38735117016977" cy="-81.86687958190666" r="4" fill="rgba(80%,0%,0%,1)"></circle><circle cx="-25.355930115728672" cy="-86.35436762530476" r="4" fill="rgba(80%,0%,0%,1)"></circle><circle cx="-12.808335444595674" cy="-89.08392976928394" r="4" fill="rgba(80%,0%,0%,1)"></circle><circle cx="-1.6532731788489267e-14" cy="-90" r="4" fill="rgba(80%,0%,0%,1)"></circle><circle cx="12.808335444595638" cy="-89.08392976928396" r="4" fill="rgba(80%,0%,0%,1)"></circle><circle cx="25.355930115728647" cy="-86.35436762530477" r="4" fill="rgba(80%,0%,0%,1)"></circle><circle cx="37.387351170169744" cy="-81.86687958190667" r="4" fill="rgba(80%,0%,0%,1)"></circle><circle cx="48.65767357100381" cy="-75.71281795480628" r="4" fill="rgba(80%,0%,0%,1)"></circle><circle cx="58.93746605507567" cy="-68.01746169188323" r="4" fill="rgba(80%,0%,0%,1)"></circle><circle cx="68.0174616918832" cy="-58.937466055075696" r="4" fill="rgba(80%,0%,0%,1)"></circle><circle cx="75.71281795480627" cy="-48.65767357100384" r="4" fill="rgba(80%,0%,0%,1)"></circle><circle cx="81.86687958190662" cy="-37.38735117016985" r="4" fill="rgba(80%,0%,0%,1)"></circle><circle cx="86.35436762530476" cy="-25.355930115728675" r="4" fill="rgba(80%,0%,0%,1)"></circle><circle cx="89.08392976928394" cy="-12.808335444595677" r="4" fill="rgba(80%,0%,0%,1)"></circle><circle cx="90" cy="-2.2043642384652358e-14" r="4" fill="rgba(80%,0%,0%,1)"></circle></g><g transform="rotate(3.9200000762939453)"><circle cx="105" cy="0" r="8" fill="rgba(80%,0%,0%,1)"></circle><circle cx="102.98245444233919" cy="20.484483811693465" r="8" fill="rgba(80%,0%,0%,1)"></circle><circle cx="97.0073509136851" cy="40.181760398334426" r="8" fill="rgba(80%,0%,0%,1)"></circle><circle cx="87.30430929176725" cy="58.33487446705823" r="8" fill="rgba(80%,0%,0%,1)"></circle><circle cx="74.24621202458749" cy="74.24621202458748" r="8" fill="rgba(80%,0%,0%,1)"></circle><circle cx="58.33487446705824" cy="87.30430929176724" r="8" fill="rgba(80%,0%,0%,1)"></circle><circle cx="40.18176039833443" cy="97.0073509136851" r="8" fill="rgba(80%,0%,0%,1)"></circle><circle cx="20.484483811693472" cy="102.98245444233919" r="8" fill="rgba(80%,0%,0%,1)"></circle><circle cx="6.429395695523604e-15" cy="105" r="8" fill="rgba(80%,0%,0%,1)"></circle><circle cx="-20.48448381169344" cy="102.9824544423392" r="8" fill="rgba(80%,0%,0%,1)"></circle><circle cx="-40.18176039833442" cy="97.0073509136851" r="8" fill="rgba(80%,0%,0%,1)"></circle><circle cx="-58.33487446705824" cy="87.30430929176724" r="8" fill="rgba(80%,0%,0%,1)"></circle><circle cx="-74.24621202458748" cy="74.24621202458749" r="8" fill="rgba(80%,0%,0%,1)"></circle><circle cx="-87.30430929176727" cy="58.33487446705823" r="8" fill="rgba(80%,0%,0%,1)"></circle><circle cx="-97.0073509136851" cy="40.18176039833443" r="8" fill="rgba(80%,0%,0%,1)"></circle><circle cx="-102.98245444233919" cy="20.484483811693458" r="8" fill="rgba(80%,0%,0%,1)"></circle><circle cx="-105" cy="1.2858791391047208e-14" r="8" fill="rgba(80%,0%,0%,1)"></circle><circle cx="-102.9824544423392" cy="-20.484483811693433" r="8" fill="rgba(80%,0%,0%,1)"></circle><circle cx="-97.00735091368513" cy="-40.18176039833437" r="8" fill="rgba(80%,0%,0%,1)"></circle><circle cx="-87.30430929176724" cy="-58.33487446705824" r="8" fill="rgba(80%,0%,0%,1)"></circle><circle cx="-74.2462120245875" cy="-74.24621202458748" r="8" fill="rgba(80%,0%,0%,1)"></circle><circle cx="-58.33487446705831" cy="-87.3043092917672" r="8" fill="rgba(80%,0%,0%,1)"></circle><circle cx="-40.1817603983344" cy="-97.00735091368512" r="8" fill="rgba(80%,0%,0%,1)"></circle><circle cx="-20.48448381169351" cy="-102.98245444233919" r="8" fill="rgba(80%,0%,0%,1)"></circle><circle cx="-1.928818708657081e-14" cy="-105" r="8" fill="rgba(80%,0%,0%,1)"></circle><circle cx="20.48448381169347" cy="-102.98245444233919" r="8" fill="rgba(80%,0%,0%,1)"></circle><circle cx="40.18176039833445" cy="-97.0073509136851" r="8" fill="rgba(80%,0%,0%,1)"></circle><circle cx="58.33487446705819" cy="-87.30430929176728" r="8" fill="rgba(80%,0%,0%,1)"></circle><circle cx="74.24621202458748" cy="-74.2462120245875" r="8" fill="rgba(80%,0%,0%,1)"></circle><circle cx="87.30430929176725" cy="-58.33487446705823" r="8" fill="rgba(80%,0%,0%,1)"></circle><circle cx="97.00735091368512" cy="-40.181760398334404" r="8" fill="rgba(80%,0%,0%,1)"></circle><circle cx="102.98245444233919" cy="-20.484483811693515" r="8" fill="rgba(80%,0%,0%,1)"></circle><circle cx="105" cy="-2.5717582782094416e-14" r="8" fill="rgba(80%,0%,0%,1)"></circle></g><g transform="rotate(11.760000228881836)"><circle cx="120" cy="0" r="4" fill="rgba(80%,0%,0%,1)"></circle><circle cx="119.29655485852315" cy="12.97428221087301" r="4" fill="rgba(80%,0%,0%,1)"></circle><circle cx="117.1944666852104" cy="25.796452825322884" r="4" fill="rgba(80%,0%,0%,1)"></circle><circle cx="113.7183805419363" cy="38.316183616317595" r="4" fill="rgba(80%,0%,0%,1)"></circle><circle cx="108.90905036051485" cy="50.386692187231745" r="4" fill="rgba(80%,0%,0%,1)"></circle><circle cx="102.82286114011072" cy="61.86646286124261" r="4" fill="rgba(80%,0%,0%,1)"></circle><circle cx="95.53116788467725" cy="72.62090582325182" r="4" fill="rgba(80%,0%,0%,1)"></circle><circle cx="87.1194590307757" cy="82.5239350624108" r="4" fill="rgba(80%,0%,0%,1)"></circle><circle cx="77.68635417381934" cy="91.45944661531637" r="4" fill="rgba(80%,0%,0%,1)"></circle><circle cx="67.34244784348591" cy="99.32267977882685" r="4" fill="rgba(80%,0%,0%,1)"></circle><circle cx="56.20901288397482" cy="106.02144533352275" r="4" fill="rgba(80%,0%,0%,1)"></circle><circle cx="44.41657864078972" cy="111.47720637801497" r="4" fill="rgba(80%,0%,0%,1)"></circle><circle cx="32.103400623506516" cy="115.62599910230675" r="4" fill="rgba(80%,0%,0%,1)"></circle><circle cx="19.413839586331783" cy="118.41918270498314" r="4" fill="rgba(80%,0%,0%,1)"></circle><circle cx="6.496669030250113" cy="119.82400966213486" r="4" fill="rgba(80%,0%,0%,1)"></circle><circle cx="-6.496669030250098" cy="119.82400966213486" r="4" fill="rgba(80%,0%,0%,1)"></circle><circle cx="-19.41383958633174" cy="118.41918270498314" r="4" fill="rgba(80%,0%,0%,1)"></circle><circle cx="-32.1034006235065" cy="115.62599910230675" r="4" fill="rgba(80%,0%,0%,1)"></circle><circle cx="-44.41657864078968" cy="111.47720637801498" r="4" fill="rgba(80%,0%,0%,1)"></circle><circle cx="-56.20901288397481" cy="106.02144533352275" r="4" fill="rgba(80%,0%,0%,1)"></circle><circle cx="-67.34244784348587" cy="99.32267977882687" r="4" fill="rgba(80%,0%,0%,1)"></circle><circle cx="-77.68635417381931" cy="91.45944661531638" r="4" fill="rgba(80%,0%,0%,1)"></circle><circle cx="-87.1194590307757" cy="82.5239350624108" r="4" fill="rgba(80%,0%,0%,1)"></circle><circle cx="-95.53116788467725" cy="72.62090582325182" r="4" fill="rgba(80%,0%,0%,1)"></circle><circle cx="-102.82286114011069" cy="61.866462861242645" r="4" fill="rgba(80%,0%,0%,1)"></circle><circle cx="-108.90905036051485" cy="50.38669218723173" r="4" fill="rgba(80%,0%,0%,1)"></circle><circle cx="-113.71838054193628" cy="38.31618361631762" r="4" fill="rgba(80%,0%,0%,1)"></circle><circle cx="-117.19446668521039" cy="25.796452825322962" r="4" fill="rgba(80%,0%,0%,1)"></circle><circle cx="-119.29655485852315" cy="12.974282210873032" r="4" fill="rgba(80%,0%,0%,1)"></circle><circle cx="-120" cy="1.469576158976824e-14" r="4" fill="rgba(80%,0%,0%,1)"></circle><circle cx="-119.29655485852315" cy="-12.974282210873001" r="4" fill="rgba(80%,0%,0%,1)"></circle><circle cx="-117.1944666852104" cy="-25.796452825322884" r="4" fill="rgba(80%,0%,0%,1)"></circle><circle cx="-113.71838054193631" cy="-38.316183616317545" r="4" fill="rgba(80%,0%,0%,1)"></circle><circle cx="-108.90905036051487" cy="-50.3866921872317" r="4" fill="rgba(80%,0%,0%,1)"></circle><circle cx="-102.8228611401107" cy="-61.866462861242624" r="4" fill="rgba(80%,0%,0%,1)"></circle><circle cx="-95.53116788467727" cy="-72.62090582325179" r="4" fill="rgba(80%,0%,0%,1)"></circle><circle cx="-87.11945903077576" cy="-82.52393506241073" r="4" fill="rgba(80%,0%,0%,1)"></circle><circle cx="-77.6863541738193" cy="-91.4594466153164" r="4" fill="rgba(80%,0%,0%,1)"></circle><circle cx="-67.34244784348591" cy="-99.32267977882685" r="4" fill="rgba(80%,0%,0%,1)"></circle><circle cx="-56.209012883974786" cy="-106.02144533352276" r="4" fill="rgba(80%,0%,0%,1)"></circle><circle cx="-44.41657864078974" cy="-111.47720637801497" r="4" fill="rgba(80%,0%,0%,1)"></circle><circle cx="-32.10340062350656" cy="-115.62599910230674" r="4" fill="rgba(80%,0%,0%,1)"></circle><circle cx="-19.413839586331772" cy="-118.41918270498314" r="4" fill="rgba(80%,0%,0%,1)"></circle><circle cx="-6.496669030250154" cy="-119.82400966213486" r="4" fill="rgba(80%,0%,0%,1)"></circle><circle cx="6.496669030250111" cy="-119.82400966213486" r="4" fill="rgba(80%,0%,0%,1)"></circle><circle cx="19.413839586331832" cy="-118.41918270498313" r="4" fill="rgba(80%,0%,0%,1)"></circle><circle cx="32.103400623506516" cy="-115.62599910230675" r="4" fill="rgba(80%,0%,0%,1)"></circle><circle cx="44.416578640789695" cy="-111.47720637801498" r="4" fill="rgba(80%,0%,0%,1)"></circle><circle cx="56.20901288397475" cy="-106.02144533352278" r="4" fill="rgba(80%,0%,0%,1)"></circle><circle cx="67.34244784348579" cy="-99.32267977882694" r="4" fill="rgba(80%,0%,0%,1)"></circle><circle cx="77.68635417381934" cy="-91.45944661531635" r="4" fill="rgba(80%,0%,0%,1)"></circle><circle cx="87.1194590307757" cy="-82.5239350624108" r="4" fill="rgba(80%,0%,0%,1)"></circle><circle cx="95.53116788467722" cy="-72.62090582325187" r="4" fill="rgba(80%,0%,0%,1)"></circle><circle cx="102.82286114011072" cy="-61.86646286124261" r="4" fill="rgba(80%,0%,0%,1)"></circle><circle cx="108.90905036051478" cy="-50.386692187231894" r="4" fill="rgba(80%,0%,0%,1)"></circle><circle cx="113.71838054193627" cy="-38.31618361631769" r="4" fill="rgba(80%,0%,0%,1)"></circle><circle cx="117.1944666852104" cy="-25.79645282532293" r="4" fill="rgba(80%,0%,0%,1)"></circle><circle cx="119.29655485852315" cy="-12.974282210872994" r="4" fill="rgba(80%,0%,0%,1)"></circle><circle cx="120" cy="-2.939152317953648e-14" r="4" fill="rgba(80%,0%,0%,1)"></circle></g><g transform="rotate(19.600000381469727)"><circle cx="135" cy="0" r="8" fill="rgba(80%,0%,0%,1)"></circle><circle cx="133.41785721034705" cy="20.607653369548057" r="8" fill="rgba(80%,0%,0%,1)"></circle><circle cx="128.70851292741563" cy="40.732280810350964" r="8" fill="rgba(80%,0%,0%,1)"></circle><circle cx="120.9823501897425" cy="59.902178112039564" r="8" fill="rgba(80%,0%,0%,1)"></circle><circle cx="110.42046370350688" cy="77.6680191295138" r="8" fill="rgba(80%,0%,0%,1)"></circle><circle cx="97.27041513610625" cy="93.61338760695263" r="8" fill="rgba(80%,0%,0%,1)"></circle><circle cx="81.84043048049614" cy="107.36453762191256" r="8" fill="rgba(80%,0%,0%,1)"></circle><circle cx="64.49217549915551" cy="118.59915387297721" r="8" fill="rgba(80%,0%,0%,1)"></circle><circle cx="45.632278585147866" cy="127.05390647724082" r="8" fill="rgba(80%,0%,0%,1)"></circle><circle cx="25.702799737230233" cy="132.53062319957542" r="8" fill="rgba(80%,0%,0%,1)"></circle><circle cx="5.170869048154793" cy="134.90093444185936" r="8" fill="rgba(80%,0%,0%,1)"></circle><circle cx="-15.482262428784026" cy="134.10928211755615" r="8" fill="rgba(80%,0%,0%,1)"></circle><circle cx="-35.77250279654934" cy="130.17422188617402" r="8" fill="rgba(80%,0%,0%,1)"></circle><circle cx="-55.224266018130855" cy="123.18798822433426" r="8" fill="rgba(80%,0%,0%,1)"></circle><circle cx="-73.38161925016485" cy="113.31433252781326" r="8" fill="rgba(80%,0%,0%,1)"></circle><circle cx="-89.81896952235134" cy="100.78468491761495" r="8" fill="rgba(80%,0%,0%,1)"></circle><circle cx="-104.1510392759623" cy="85.89272971408556" r="8" fill="rgba(80%,0%,0%,1)"></circle><circle cx="-116.04189694327216" cy="68.9875217253599" r="8" fill="rgba(80%,0%,0%,1)"></circle><circle cx="-125.21283089878277" cy="50.46530469850379" r="8" fill="rgba(80%,0%,0%,1)"></circle><circle cx="-131.44888222350016" cy="30.76022370192354" r="8" fill="rgba(80%,0%,0%,1)"></circle><circle cx="-134.60388315980495" cy="10.334149132926951" r="8" fill="rgba(80%,0%,0%,1)"></circle><circle cx="-134.60388315980495" cy="-10.334149132926859" r="8" fill="rgba(80%,0%,0%,1)"></circle><circle cx="-131.4488822235002" cy="-30.760223701923508" r="8" fill="rgba(80%,0%,0%,1)"></circle><circle cx="-125.21283089878278" cy="-50.46530469850377" r="8" fill="rgba(80%,0%,0%,1)"></circle><circle cx="-116.04189694327215" cy="-68.98752172535993" r="8" fill="rgba(80%,0%,0%,1)"></circle><circle cx="-104.15103927596233" cy="-85.89272971408555" r="8" fill="rgba(80%,0%,0%,1)"></circle><circle cx="-89.81896952235137" cy="-100.78468491761492" r="8" fill="rgba(80%,0%,0%,1)"></circle><circle cx="-73.38161925016482" cy="-113.31433252781326" r="8" fill="rgba(80%,0%,0%,1)"></circle><circle cx="-55.22426601813091" cy="-123.18798822433423" r="8" fill="rgba(80%,0%,0%,1)"></circle><circle cx="-35.77250279654943" cy="-130.174221886174" r="8" fill="rgba(80%,0%,0%,1)"></circle><circle cx="-15.482262428783997" cy="-134.10928211755615" r="8" fill="rgba(80%,0%,0%,1)"></circle><circle cx="5.17086904815476" cy="-134.90093444185936" r="8" fill="rgba(80%,0%,0%,1)"></circle><circle cx="25.702799737230258" cy="-132.53062319957542" r="8" fill="rgba(80%,0%,0%,1)"></circle><circle cx="45.63227858514784" cy="-127.05390647724082" r="8" fill="rgba(80%,0%,0%,1)"></circle><circle cx="64.49217549915551" cy="-118.59915387297721" r="8" fill="rgba(80%,0%,0%,1)"></circle><circle cx="81.84043048049608" cy="-107.3645376219126" r="8" fill="rgba(80%,0%,0%,1)"></circle><circle cx="97.27041513610624" cy="-93.61338760695264" r="8" fill="rgba(80%,0%,0%,1)"></circle><circle cx="110.4204637035069" cy="-77.66801912951377" r="8" fill="rgba(80%,0%,0%,1)"></circle><circle cx="120.98235018974253" cy="-59.90217811203949" r="8" fill="rgba(80%,0%,0%,1)"></circle><circle cx="128.70851292741563" cy="-40.732280810350964" r="8" fill="rgba(80%,0%,0%,1)"></circle><circle cx="133.41785721034702" cy="-20.607653369548135" r="8" fill="rgba(80%,0%,0%,1)"></circle><circle cx="135" cy="-3.3065463576978534e-14" r="8" fill="rgba(80%,0%,0%,1)"></circle></g><g transform="rotate(-11.760000228881836)"><circle cx="150" cy="0" r="4" fill="rgba(80%,0%,0%,1)"></circle><circle cx="149.44472624019116" cy="12.894719810616971" r="4" fill="rgba(80%,0%,0%,1)"></circle><circle cx="147.7830160134091" cy="25.69397162722164" r="4" fill="rgba(80%,0%,0%,1)"></circle><circle cx="145.0271720407916" cy="38.302994267428055" r="4" fill="rgba(80%,0%,0%,1)"></circle><circle cx="141.19759762692706" cy="50.62843493911699" r="4" fill="rgba(80%,0%,0%,1)"></circle><circle cx="136.32264560092545" cy="62.57904039184751" r="4" fill="rgba(80%,0%,0%,1)"></circle><circle cx="130.43840840199164" cy="74.06633252399659" r="4" fill="rgba(80%,0%,0%,1)"></circle><circle cx="123.58845086363313" cy="85.00526344366764" r="4" fill="rgba(80%,0%,0%,1)"></circle><circle cx="115.82348767487464" cy="95.31484513352662" r="4" fill="rgba(80%,0%,0%,1)"></circle><circle cx="107.20100790644416" cy="104.91874905774705" r="4" fill="rgba(80%,0%,0%,1)"></circle><circle cx="97.78484938180691" cy="113.74587127178435" r="4" fill="rgba(80%,0%,0%,1)"></circle><circle cx="87.64472604425528" cy="121.73085885110414" r="4" fill="rgba(80%,0%,0%,1)"></circle><circle cx="76.85571181926353" cy="128.81459374137046" r="4" fill="rgba(80%,0%,0%,1)"></circle><circle cx="65.49768479340958" cy="134.94463044783652" r="4" fill="rgba(80%,0%,0%,1)"></circle><circle cx="53.65473582496882" cy="140.0755843234388" r="4" fill="rgba(80%,0%,0%,1)"></circle><circle cx="41.414545964620324" cy="144.16946758084512" r="4" fill="rgba(80%,0%,0%,1)"></circle><circle cx="28.867737295624494" cy="147.1959705407414" r="4" fill="rgba(80%,0%,0%,1)"></circle><circle cx="16.10720199962446" cy="149.13268603409279" r="4" fill="rgba(80%,0%,0%,1)"></circle><circle cx="3.2274146154333385" cy="149.96527529698363" r="4" fill="rgba(80%,0%,0%,1)"></circle><circle cx="-9.676267417397435" cy="149.68757412980884" r="4" fill="rgba(80%,0%,0%,1)"></circle><circle cx="-22.508309751697855" cy="148.30163853485107" r="4" fill="rgba(80%,0%,0%,1)"></circle><circle cx="-35.17370843556148" cy="145.81772949435918" r="4" fill="rgba(80%,0%,0%,1)"></circle><circle cx="-47.57869328836588" cy="142.25423700182574" r="4" fill="rgba(80%,0%,0%,1)"></circle><circle cx="-59.631422142383364" cy="137.63754390890907" r="4" fill="rgba(80%,0%,0%,1)"></circle><circle cx="-71.24266081005756" cy="132.00183059603032" r="4" fill="rgba(80%,0%,0%,1)"></circle><circle cx="-82.32644374270788" cy="125.38882191279552" r="4" fill="rgba(80%,0%,0%,1)"></circle><circle cx="-92.8007104893755" cy="117.84747826180715" r="4" fill="rgba(80%,0%,0%,1)"></circle><circle cx="-102.58791324369157" cy="109.43363311297314" r="4" fill="rgba(80%,0%,0%,1)"></circle><circle cx="-111.6155909807041" cy="100.20957963203003" r="4" fill="rgba(80%,0%,0%,1)"></circle><circle cx="-119.81690593295474" cy="90.24360948373838" r="4" fill="rgba(80%,0%,0%,1)"></circle><circle cx="-127.13113843392466" cy="79.60950722429" r="4" fill="rgba(80%,0%,0%,1)"></circle><circle cx="-133.5041364652015" cy="68.38600402626882" r="4" fill="rgba(80%,0%,0%,1)"></circle><circle cx="-138.88871657907748" cy="56.65619478059473" r="4" fill="rgba(80%,0%,0%,1)"></circle><circle cx="-143.2450132282883" cy="44.50692289102354" r="4" fill="rgba(80%,0%,0%,1)"></circle><circle cx="-146.54077391657725" cy="32.02813731596942" r="4" fill="rgba(80%,0%,0%,1)"></circle><circle cx="-148.75159798489352" cy="19.312226617887067" r="4" fill="rgba(80%,0%,0%,1)"></circle><circle cx="-149.86111726533449" cy="6.453334950679588" r="4" fill="rgba(80%,0%,0%,1)"></circle><circle cx="-149.86111726533449" cy="-6.453334950679484" r="4" fill="rgba(80%,0%,0%,1)"></circle><circle cx="-148.7515979848935" cy="-19.3122266178871" r="4" fill="rgba(80%,0%,0%,1)"></circle><circle cx="-146.54077391657725" cy="-32.02813731596939" r="4" fill="rgba(80%,0%,0%,1)"></circle><circle cx="-143.24501322828831" cy="-44.50692289102346" r="4" fill="rgba(80%,0%,0%,1)"></circle><circle cx="-138.88871657907748" cy="-56.656194780594696" r="4" fill="rgba(80%,0%,0%,1)"></circle><circle cx="-133.5041364652015" cy="-68.38600402626885" r="4" fill="rgba(80%,0%,0%,1)"></circle><circle cx="-127.13113843392469" cy="-79.60950722428997" r="4" fill="rgba(80%,0%,0%,1)"></circle><circle cx="-119.81690593295475" cy="-90.24360948373835" r="4" fill="rgba(80%,0%,0%,1)"></circle><circle cx="-111.61559098070407" cy="-100.20957963203004" r="4" fill="rgba(80%,0%,0%,1)"></circle><circle cx="-102.58791324369163" cy="-109.43363311297311" r="4" fill="rgba(80%,0%,0%,1)"></circle><circle cx="-92.8007104893755" cy="-117.84747826180717" r="4" fill="rgba(80%,0%,0%,1)"></circle><circle cx="-82.32644374270788" cy="-125.38882191279554" r="4" fill="rgba(80%,0%,0%,1)"></circle><circle cx="-71.24266081005752" cy="-132.00183059603035" r="4" fill="rgba(80%,0%,0%,1)"></circle><circle cx="-59.631422142383364" cy="-137.63754390890907" r="4" fill="rgba(80%,0%,0%,1)"></circle><circle cx="-47.57869328836588" cy="-142.25423700182574" r="4" fill="rgba(80%,0%,0%,1)"></circle><circle cx="-35.17370843556145" cy="-145.81772949435918" r="4" fill="rgba(80%,0%,0%,1)"></circle><circle cx="-22.508309751697894" cy="-148.30163853485107" r="4" fill="rgba(80%,0%,0%,1)"></circle><circle cx="-9.676267417397437" cy="-149.68757412980884" r="4" fill="rgba(80%,0%,0%,1)"></circle><circle cx="3.227414615433335" cy="-149.96527529698363" r="4" fill="rgba(80%,0%,0%,1)"></circle><circle cx="16.107201999624458" cy="-149.13268603409279" r="4" fill="rgba(80%,0%,0%,1)"></circle><circle cx="28.86773729562462" cy="-147.19597054074137" r="4" fill="rgba(80%,0%,0%,1)"></circle><circle cx="41.414545964620324" cy="-144.16946758084512" r="4" fill="rgba(80%,0%,0%,1)"></circle><circle cx="53.6547358249687" cy="-140.07558432343882" r="4" fill="rgba(80%,0%,0%,1)"></circle><circle cx="65.49768479340958" cy="-134.94463044783652" r="4" fill="rgba(80%,0%,0%,1)"></circle><circle cx="76.85571181926353" cy="-128.81459374137046" r="4" fill="rgba(80%,0%,0%,1)"></circle><circle cx="87.64472604425525" cy="-121.73085885110417" r="4" fill="rgba(80%,0%,0%,1)"></circle><circle cx="97.78484938180677" cy="-113.74587127178448" r="4" fill="rgba(80%,0%,0%,1)"></circle><circle cx="107.20100790644412" cy="-104.91874905774706" r="4" fill="rgba(80%,0%,0%,1)"></circle><circle cx="115.82348767487454" cy="-95.31484513352673" r="4" fill="rgba(80%,0%,0%,1)"></circle><circle cx="123.58845086363313" cy="-85.00526344366766" r="4" fill="rgba(80%,0%,0%,1)"></circle><circle cx="130.43840840199164" cy="-74.0663325239966" r="4" fill="rgba(80%,0%,0%,1)"></circle><circle cx="136.32264560092543" cy="-62.57904039184755" r="4" fill="rgba(80%,0%,0%,1)"></circle><circle cx="141.19759762692703" cy="-50.628434939117014" r="4" fill="rgba(80%,0%,0%,1)"></circle><circle cx="145.02717204079167" cy="-38.302994267427955" r="4" fill="rgba(80%,0%,0%,1)"></circle><circle cx="147.7830160134091" cy="-25.69397162722167" r="4" fill="rgba(80%,0%,0%,1)"></circle><circle cx="149.44472624019116" cy="-12.894719810617007" r="4" fill="rgba(80%,0%,0%,1)"></circle><circle cx="150" cy="-3.6739403974420595e-14" r="4" fill="rgba(80%,0%,0%,1)"></circle></g><g transform="rotate(-3.9200000762939453)"><circle cx="165" cy="0" r="8" fill="rgba(80%,0%,0%,1)"></circle><circle cx="163.69892571688885" cy="20.679983538110204" r="8" fill="rgba(80%,0%,0%,1)"></circle><circle cx="159.81622158622412" cy="41.03383138220104" r="8" fill="rgba(80%,0%,0%,1)"></circle><circle cx="153.4131201715615" cy="60.74055119297186" r="8" fill="rgba(80%,0%,0%,1)"></circle><circle cx="144.59060220723748" cy="79.48935622678303" r="8" fill="rgba(80%,0%,0%,1)"></circle><circle cx="133.48780407186632" cy="96.98456662825807" r="8" fill="rgba(80%,0%,0%,1)"></circle><circle cx="120.2798235245329" cy="112.95027247823361" r="8" fill="rgba(80%,0%,0%,1)"></circle><circle cx="105.17495830853383" cy="127.1346850580052" r="8" fill="rgba(80%,0%,0%,1)"></circle><circle cx="88.41142117153444" cy="139.31410770783248" r="8" fill="rgba(80%,0%,0%,1)"></circle><circle cx="70.25358310823701" cy="149.29646365689322" r="8" fill="rgba(80%,0%,0%,1)"></circle><circle cx="50.98780407186633" cy="156.92432518870032" r="8" fill="rgba(80%,0%,0%,1)"></circle><circle cx="30.917916906644546" cy="162.07739637023363" r="8" fill="rgba(80%,0%,0%,1)"></circle><circle cx="10.36043572233673" cy="164.67441019066482" r="8" fill="rgba(80%,0%,0%,1)"></circle><circle cx="-10.360435722336675" cy="164.67441019066482" r="8" fill="rgba(80%,0%,0%,1)"></circle><circle cx="-30.91791690664453" cy="162.07739637023363" r="8" fill="rgba(80%,0%,0%,1)"></circle><circle cx="-50.987804071866314" cy="156.92432518870035" r="8" fill="rgba(80%,0%,0%,1)"></circle><circle cx="-70.25358310823701" cy="149.29646365689322" r="8" fill="rgba(80%,0%,0%,1)"></circle><circle cx="-88.41142117153441" cy="139.3141077078325" r="8" fill="rgba(80%,0%,0%,1)"></circle><circle cx="-105.17495830853373" cy="127.13468505800529" r="8" fill="rgba(80%,0%,0%,1)"></circle><circle cx="-120.27982352453293" cy="112.9502724782336" r="8" fill="rgba(80%,0%,0%,1)"></circle><circle cx="-133.48780407186632" cy="96.98456662825808" r="8" fill="rgba(80%,0%,0%,1)"></circle><circle cx="-144.59060220723748" cy="79.48935622678307" r="8" fill="rgba(80%,0%,0%,1)"></circle><circle cx="-153.4131201715615" cy="60.74055119297182" r="8" fill="rgba(80%,0%,0%,1)"></circle><circle cx="-159.81622158622412" cy="41.03383138220104" r="8" fill="rgba(80%,0%,0%,1)"></circle><circle cx="-163.69892571688882" cy="20.67998353811025" r="8" fill="rgba(80%,0%,0%,1)"></circle><circle cx="-165" cy="2.0206672185931328e-14" r="8" fill="rgba(80%,0%,0%,1)"></circle><circle cx="-163.69892571688885" cy="-20.67998353811014" r="8" fill="rgba(80%,0%,0%,1)"></circle><circle cx="-159.81622158622412" cy="-41.03383138220108" r="8" fill="rgba(80%,0%,0%,1)"></circle><circle cx="-153.4131201715615" cy="-60.74055119297179" r="8" fill="rgba(80%,0%,0%,1)"></circle><circle cx="-144.59060220723748" cy="-79.48935622678303" r="8" fill="rgba(80%,0%,0%,1)"></circle><circle cx="-133.48780407186632" cy="-96.98456662825805" r="8" fill="rgba(80%,0%,0%,1)"></circle><circle cx="-120.27982352453294" cy="-112.95027247823359" r="8" fill="rgba(80%,0%,0%,1)"></circle><circle cx="-105.17495830853379" cy="-127.13468505800525" r="8" fill="rgba(80%,0%,0%,1)"></circle><circle cx="-88.41142117153453" cy="-139.31410770783242" r="8" fill="rgba(80%,0%,0%,1)"></circle><circle cx="-70.25358310823704" cy="-149.2964636568932" r="8" fill="rgba(80%,0%,0%,1)"></circle><circle cx="-50.98780407186635" cy="-156.92432518870032" r="8" fill="rgba(80%,0%,0%,1)"></circle><circle cx="-30.91791690664471" cy="-162.0773963702336" r="8" fill="rgba(80%,0%,0%,1)"></circle><circle cx="-10.360435722336824" cy="-164.67441019066482" r="8" fill="rgba(80%,0%,0%,1)"></circle><circle cx="10.360435722336764" cy="-164.67441019066482" r="8" fill="rgba(80%,0%,0%,1)"></circle><circle cx="30.917916906644503" cy="-162.07739637023363" r="8" fill="rgba(80%,0%,0%,1)"></circle><circle cx="50.98780407186629" cy="-156.92432518870035" r="8" fill="rgba(80%,0%,0%,1)"></circle><circle cx="70.253583108237" cy="-149.29646365689322" r="8" fill="rgba(80%,0%,0%,1)"></circle><circle cx="88.41142117153434" cy="-139.31410770783256" r="8" fill="rgba(80%,0%,0%,1)"></circle><circle cx="105.17495830853385" cy="-127.13468505800519" r="8" fill="rgba(80%,0%,0%,1)"></circle><circle cx="120.27982352453296" cy="-112.95027247823357" r="8" fill="rgba(80%,0%,0%,1)"></circle><circle cx="133.48780407186632" cy="-96.98456662825808" r="8" fill="rgba(80%,0%,0%,1)"></circle><circle cx="144.59060220723748" cy="-79.48935622678303" r="8" fill="rgba(80%,0%,0%,1)"></circle><circle cx="153.4131201715615" cy="-60.740551192971836" r="8" fill="rgba(80%,0%,0%,1)"></circle><circle cx="159.81622158622412" cy="-41.033831382201136" r="8" fill="rgba(80%,0%,0%,1)"></circle><circle cx="163.69892571688882" cy="-20.67998353811027" r="8" fill="rgba(80%,0%,0%,1)"></circle><circle cx="165" cy="-4.0413344371862656e-14" r="8" fill="rgba(80%,0%,0%,1)"></circle></g><g transform="rotate(3.9200000762939453)"><circle cx="180" cy="0" r="4" fill="rgba(80%,0%,0%,1)"></circle><circle cx="179.53078167323096" cy="12.988396044110894" r="4" fill="rgba(80%,0%,0%,1)"></circle><circle cx="178.1255729800147" cy="25.90907660534144" r="4" fill="rgba(80%,0%,0%,1)"></circle><circle cx="175.7917000278156" cy="38.694679237984325" r="4" fill="rgba(80%,0%,0%,1)"></circle><circle cx="172.54133054953942" cy="51.27854573010599" r="4" fill="rgba(80%,0%,0%,1)"></circle><circle cx="168.3914104666082" cy="63.59506962859842" r="4" fill="rgba(80%,0%,0%,1)"></circle><circle cx="163.36357554077227" cy="75.58003828084762" r="4" fill="rgba(80%,0%,0%,1)"></circle><circle cx="157.48403857526694" cy="87.17096760977151" r="4" fill="rgba(80%,0%,0%,1)"></circle><circle cx="150.78345275339365" cy="98.30742787686545" r="4" fill="rgba(80%,0%,0%,1)"></circle><circle cx="143.29675182701587" cy="108.93135873487772" r="4" fill="rgba(80%,0%,0%,1)"></circle><circle cx="135.06296798815245" cy="118.98737192757604" r="4" fill="rgba(80%,0%,0%,1)"></circle><circle cx="126.12502837320166" cy="128.42304005846879" r="4" fill="rgba(80%,0%,0%,1)"></circle><circle cx="116.529531260729" cy="137.18916992297454" r="4" fill="rgba(80%,0%,0%,1)"></circle><circle cx="106.32650312961921" cy="145.24005897901264" r="4" fill="rgba(80%,0%,0%,1)"></circle><circle cx="95.56913784417965" cy="152.53373361889555" r="4" fill="rgba(80%,0%,0%,1)"></circle><circle cx="84.31351932596223" cy="159.03216800028412" r="4" fill="rgba(80%,0%,0%,1)"></circle><circle cx="72.61832915816554" cy="164.70148229532217" r="4" fill="rgba(80%,0%,0%,1)"></circle><circle cx="60.544540647031546" cy="169.51211932437147" r="4" fill="rgba(80%,0%,0%,1)"></circle><circle cx="48.155100935259775" cy="173.43899865346012" r="4" fill="rgba(80%,0%,0%,1)"></circle><circle cx="35.514602824752004" cy="176.46164735205244" r="4" fill="rgba(80%,0%,0%,1)"></circle><circle cx="22.688948019652134" cy="178.56430672942878" r="4" fill="rgba(80%,0%,0%,1)"></circle><circle cx="9.74500354537517" cy="179.73601449320228" r="4" fill="rgba(80%,0%,0%,1)"></circle><circle cx="-3.2497468651008568" cy="179.97066190163542" r="4" fill="rgba(80%,0%,0%,1)"></circle><circle cx="-16.22755460017175" cy="179.26702561179076" r="4" fill="rgba(80%,0%,0%,1)"></circle><circle cx="-29.120759379497613" cy="177.62877405747471" r="4" fill="rgba(80%,0%,0%,1)"></circle><circle cx="-41.86214200337587" cy="175.0644483237222" r="4" fill="rgba(80%,0%,0%,1)"></circle><circle cx="-54.38527480252307" cy="171.5874176175341" r="4" fill="rgba(80%,0%,0%,1)"></circle><circle cx="-66.62486796118452" cy="167.21580956702246" r="4" fill="rgba(80%,0%,0%,1)"></circle><circle cx="-78.51710990800215" cy="161.9724157123512" r="4" fill="rgba(80%,0%,0%,1)"></circle><circle cx="-89.99999999999996" cy="155.884572681199" r="4" fill="rgba(80%,0%,0%,1)"></circle><circle cx="-101.0136717652288" cy="148.9840196682403" r="4" fill="rgba(80%,0%,0%,1)"></circle><circle cx="-111.50070501883015" cy="141.306732961681" r="4" fill="rgba(80%,0%,0%,1)"></circle><circle cx="-121.4064252252925" cy="132.89273837954977" r="4" fill="rgba(80%,0%,0%,1)"></circle><circle cx="-130.67918854616354" cy="123.7859025936162" r="4" fill="rgba(80%,0%,0%,1)"></circle><circle cx="-139.2706510871105" cy="114.03370442887632" r="4" fill="rgba(80%,0%,0%,1)"></circle><circle cx="-147.13602094060053" cy="103.68698733094315" r="4" fill="rgba(80%,0%,0%,1)"></circle><circle cx="-154.23429171016602" cy="92.79969429186397" r="4" fill="rgba(80%,0%,0%,1)"></circle><circle cx="-160.52845629876882" cy="81.42858661633686" r="4" fill="rgba(80%,0%,0%,1)"></circle><circle cx="-165.98569984666796" cy="69.63294799455105" r="4" fill="rgba(80%,0%,0%,1)"></circle><circle cx="-170.5775708129044" cy="57.47427542447643" r="4" fill="rgba(80%,0%,0%,1)"></circle><circle cx="-174.28012930846137" cy="45.01595859499143" r="4" fill="rgba(80%,0%,0%,1)"></circle><circle cx="-177.07407190776047" cy="32.322949401396954" r="4" fill="rgba(80%,0%,0%,1)"></circle><circle cx="-178.94483228778472" cy="19.46142331630955" r="4" fill="rgba(80%,0%,0%,1)"></circle><circle cx="-179.88265717014184" cy="6.498434381388554" r="4" fill="rgba(80%,0%,0%,1)"></circle><circle cx="-179.88265717014184" cy="-6.498434381388509" r="4" fill="rgba(80%,0%,0%,1)"></circle><circle cx="-178.94483228778472" cy="-19.461423316309503" r="4" fill="rgba(80%,0%,0%,1)"></circle><circle cx="-177.0740719077605" cy="-32.32294940139691" r="4" fill="rgba(80%,0%,0%,1)"></circle><circle cx="-174.28012930846143" cy="-45.01595859499125" r="4" fill="rgba(80%,0%,0%,1)"></circle><circle cx="-170.57757081290447" cy="-57.47427542447632" r="4" fill="rgba(80%,0%,0%,1)"></circle><circle cx="-165.98569984666796" cy="-69.632947994551" r="4" fill="rgba(80%,0%,0%,1)"></circle><circle cx="-160.52845629876882" cy="-81.42858661633683" r="4" fill="rgba(80%,0%,0%,1)"></circle><circle cx="-154.23429171016605" cy="-92.79969429186393" r="4" fill="rgba(80%,0%,0%,1)"></circle><circle cx="-147.13602094060053" cy="-103.68698733094311" r="4" fill="rgba(80%,0%,0%,1)"></circle><circle cx="-139.2706510871105" cy="-114.03370442887628" r="4" fill="rgba(80%,0%,0%,1)"></circle><circle cx="-130.67918854616363" cy="-123.7859025936161" r="4" fill="rgba(80%,0%,0%,1)"></circle><circle cx="-121.4064252252926" cy="-132.89273837954968" r="4" fill="rgba(80%,0%,0%,1)"></circle><circle cx="-111.50070501883012" cy="-141.306732961681" r="4" fill="rgba(80%,0%,0%,1)"></circle><circle cx="-101.01367176522886" cy="-148.98401966824028" r="4" fill="rgba(80%,0%,0%,1)"></circle><circle cx="-90.00000000000009" cy="-155.8845726811989" r="4" fill="rgba(80%,0%,0%,1)"></circle><circle cx="-78.51710990800227" cy="-161.97241571235114" r="4" fill="rgba(80%,0%,0%,1)"></circle><circle cx="-66.6248679611846" cy="-167.21580956702246" r="4" fill="rgba(80%,0%,0%,1)"></circle><circle cx="-54.38527480252315" cy="-171.58741761753407" r="4" fill="rgba(80%,0%,0%,1)"></circle><circle cx="-41.86214200337584" cy="-175.0644483237222" r="4" fill="rgba(80%,0%,0%,1)"></circle><circle cx="-29.120759379497656" cy="-177.62877405747471" r="4" fill="rgba(80%,0%,0%,1)"></circle><circle cx="-16.227554600171793" cy="-179.26702561179076" r="4" fill="rgba(80%,0%,0%,1)"></circle><circle cx="-3.2497468651009807" cy="-179.97066190163542" r="4" fill="rgba(80%,0%,0%,1)"></circle><circle cx="9.745003545375166" cy="-179.73601449320228" r="4" fill="rgba(80%,0%,0%,1)"></circle><circle cx="22.68894801965205" cy="-178.56430672942878" r="4" fill="rgba(80%,0%,0%,1)"></circle><circle cx="35.514602824751925" cy="-176.46164735205247" r="4" fill="rgba(80%,0%,0%,1)"></circle><circle cx="48.155100935259775" cy="-173.43899865346012" r="4" fill="rgba(80%,0%,0%,1)"></circle><circle cx="60.54454064703151" cy="-169.51211932437147" r="4" fill="rgba(80%,0%,0%,1)"></circle><circle cx="72.61832915816547" cy="-164.70148229532222" r="4" fill="rgba(80%,0%,0%,1)"></circle><circle cx="84.31351932596213" cy="-159.03216800028417" r="4" fill="rgba(80%,0%,0%,1)"></circle><circle cx="95.56913784417962" cy="-152.53373361889558" r="4" fill="rgba(80%,0%,0%,1)"></circle><circle cx="106.32650312961914" cy="-145.2400589790127" r="4" fill="rgba(80%,0%,0%,1)"></circle><circle cx="116.529531260729" cy="-137.18916992297451" r="4" fill="rgba(80%,0%,0%,1)"></circle><circle cx="126.12502837320164" cy="-128.42304005846879" r="4" fill="rgba(80%,0%,0%,1)"></circle><circle cx="135.0629679881524" cy="-118.98737192757606" r="4" fill="rgba(80%,0%,0%,1)"></circle><circle cx="143.29675182701584" cy="-108.9313587348778" r="4" fill="rgba(80%,0%,0%,1)"></circle><circle cx="150.78345275339368" cy="-98.30742787686542" r="4" fill="rgba(80%,0%,0%,1)"></circle><circle cx="157.48403857526685" cy="-87.17096760977167" r="4" fill="rgba(80%,0%,0%,1)"></circle><circle cx="163.3635755407722" cy="-75.58003828084784" r="4" fill="rgba(80%,0%,0%,1)"></circle><circle cx="168.39141046660814" cy="-63.59506962859854" r="4" fill="rgba(80%,0%,0%,1)"></circle><circle cx="172.5413305495394" cy="-51.278545730106146" r="4" fill="rgba(80%,0%,0%,1)"></circle><circle cx="175.7917000278156" cy="-38.694679237984396" r="4" fill="rgba(80%,0%,0%,1)"></circle><circle cx="178.1255729800147" cy="-25.909076605341546" r="4" fill="rgba(80%,0%,0%,1)"></circle><circle cx="179.53078167323096" cy="-12.98839604411089" r="4" fill="rgba(80%,0%,0%,1)"></circle><circle cx="180" cy="-4.4087284769304716e-14" r="4" fill="rgba(80%,0%,0%,1)"></circle></g><g transform="rotate(11.760000228881836)"><circle cx="195" cy="0" r="8" fill="rgba(80%,0%,0%,1)"></circle><circle cx="193.89528604097674" cy="20.727229701236254" r="8" fill="rgba(80%,0%,0%,1)"></circle><circle cx="190.593661014484" cy="41.21961160777674" r="8" fill="rgba(80%,0%,0%,1)"></circle><circle cx="185.13253365133434" cy="61.244958844280006" r="8" fill="rgba(80%,0%,0%,1)"></circle><circle cx="177.57378070670808" cy="80.57637622483374" r="8" fill="rgba(80%,0%,0%,1)"></circle><circle cx="168.00304587179218" cy="98.99483106607379" r="8" fill="rgba(80%,0%,0%,1)"></circle><circle cx="156.5287693965379" cy="116.29163491500776" r="8" fill="rgba(80%,0%,0%,1)"></circle><circle cx="143.28095941829812" cy="132.27080807257514" r="8" fill="rgba(80%,0%,0%,1)"></circle><circle cx="128.40971891768257" cy="146.751300121947" r="8" fill="rgba(80%,0%,0%,1)"></circle><circle cx="112.08354499180935" cy="159.56904130209296" r="8" fill="rgba(80%,0%,0%,1)"></circle><circle cx="94.4874197148668" cy="170.57880148373243" r="8" fill="rgba(80%,0%,0%,1)"></circle><circle cx="75.82071421729754" cy="179.65583568473053" r="8" fill="rgba(80%,0%,0%,1)"></circle><circle cx="56.29492973122613" cy="186.69729748059106" r="8" fill="rgba(80%,0%,0%,1)"></circle><circle cx="36.13130119698733" cy="191.62340429554158" r="8" fill="rgba(80%,0%,0%,1)"></circle><circle cx="15.558290582851205" cy="194.37834137099628" r="8" fill="rgba(80%,0%,0%,1)"></circle><circle cx="-5.191001680366065" cy="194.93089416907327" r="8" fill="rgba(80%,0%,0%,1)"></circle><circle cx="-25.881477820325763" cy="193.2748020457814" r="8" fill="rgba(80%,0%,0%,1)"></circle><circle cx="-46.2787064748674" cy="189.42882918661843" r="8" fill="rgba(80%,0%,0%,1)"></circle><circle cx="-66.15157889301591" cy="183.4365520008515" r="8" fill="rgba(80%,0%,0%,1)"></circle><circle cx="-85.2749274894768" cy="175.36586538338776" r="8" fill="rgba(80%,0%,0%,1)"></circle><circle cx="-103.43207708334977" cy="165.30821343848584" r="8" fill="rgba(80%,0%,0%,1)"></circle><circle cx="-120.41729991450738" cy="153.3775533815153" r="8" fill="rgba(80%,0%,0%,1)"></circle><circle cx="-136.03814662132197" cy="139.70906435817147" r="8" fill="rgba(80%,0%,0%,1)"></circle><circle cx="-150.1176267688317" cy="124.45761581073995" r="8" fill="rgba(80%,0%,0%,1)"></circle><circle cx="-162.49621422109038" cy="107.79601274543276" r="8" fill="rgba(80%,0%,0%,1)"></circle><circle cx="-173.03365463603143" cy="89.91303778261859" r="8" fill="rgba(80%,0%,0%,1)"></circle><circle cx="-181.61055460320597" cy="71.01131217430039" r="8" fill="rgba(80%,0%,0%,1)"></circle><circle cx="-188.12973441883062" cy="51.30500002436656" r="8" fill="rgba(80%,0%,0%,1)"></circle><circle cx="-192.51732917066218" cy="31.017381723719062" r="8" fill="rgba(80%,0%,0%,1)"></circle><circle cx="-194.72362565696858" cy="10.378324094224856" r="8" fill="rgba(80%,0%,0%,1)"></circle><circle cx="-194.72362565696858" cy="-10.378324094224809" r="8" fill="rgba(80%,0%,0%,1)"></circle><circle cx="-192.51732917066218" cy="-31.017381723719016" r="8" fill="rgba(80%,0%,0%,1)"></circle><circle cx="-188.12973441883062" cy="-51.305000024366606" r="8" fill="rgba(80%,0%,0%,1)"></circle><circle cx="-181.610554603206" cy="-71.01131217430034" r="8" fill="rgba(80%,0%,0%,1)"></circle><circle cx="-173.03365463603146" cy="-89.91303778261856" r="8" fill="rgba(80%,0%,0%,1)"></circle><circle cx="-162.4962142210904" cy="-107.79601274543272" r="8" fill="rgba(80%,0%,0%,1)"></circle><circle cx="-150.1176267688317" cy="-124.45761581073994" r="8" fill="rgba(80%,0%,0%,1)"></circle><circle cx="-136.03814662132206" cy="-139.70906435817145" r="8" fill="rgba(80%,0%,0%,1)"></circle><circle cx="-120.41729991450745" cy="-153.37755338151527" r="8" fill="rgba(80%,0%,0%,1)"></circle><circle cx="-103.43207708334981" cy="-165.3082134384858" r="8" fill="rgba(80%,0%,0%,1)"></circle><circle cx="-85.27492748947684" cy="-175.36586538338773" r="8" fill="rgba(80%,0%,0%,1)"></circle><circle cx="-66.15157889301595" cy="-183.4365520008515" r="8" fill="rgba(80%,0%,0%,1)"></circle><circle cx="-46.27870647486745" cy="-189.42882918661843" r="8" fill="rgba(80%,0%,0%,1)"></circle><circle cx="-25.881477820326023" cy="-193.27480204578137" r="8" fill="rgba(80%,0%,0%,1)"></circle><circle cx="-5.191001680366156" cy="-194.93089416907324" r="8" fill="rgba(80%,0%,0%,1)"></circle><circle cx="15.558290582851289" cy="-194.37834137099628" r="8" fill="rgba(80%,0%,0%,1)"></circle><circle cx="36.131301196987195" cy="-191.6234042955416" r="8" fill="rgba(80%,0%,0%,1)"></circle><circle cx="56.29492973122616" cy="-186.69729748059103" r="8" fill="rgba(80%,0%,0%,1)"></circle><circle cx="75.82071421729742" cy="-179.65583568473056" r="8" fill="rgba(80%,0%,0%,1)"></circle><circle cx="94.48741971486668" cy="-170.57880148373252" r="8" fill="rgba(80%,0%,0%,1)"></circle><circle cx="112.08354499180922" cy="-159.56904130209304" r="8" fill="rgba(80%,0%,0%,1)"></circle><circle cx="128.40971891768257" cy="-146.751300121947" r="8" fill="rgba(80%,0%,0%,1)"></circle><circle cx="143.280959418298" cy="-132.27080807257525" r="8" fill="rgba(80%,0%,0%,1)"></circle><circle cx="156.5287693965379" cy="-116.29163491500776" r="8" fill="rgba(80%,0%,0%,1)"></circle><circle cx="168.00304587179227" cy="-98.99483106607363" r="8" fill="rgba(80%,0%,0%,1)"></circle><circle cx="177.573780706708" cy="-80.57637622483391" r="8" fill="rgba(80%,0%,0%,1)"></circle><circle cx="185.13253365133434" cy="-61.24495884428003" r="8" fill="rgba(80%,0%,0%,1)"></circle><circle cx="190.59366101448398" cy="-41.21961160777677" r="8" fill="rgba(80%,0%,0%,1)"></circle><circle cx="193.89528604097674" cy="-20.727229701236293" r="8" fill="rgba(80%,0%,0%,1)"></circle><circle cx="195" cy="-4.776122516674678e-14" r="8" fill="rgba(80%,0%,0%,1)"></circle></g><g transform="rotate(19.600000381469727)"><circle cx="210" cy="0" r="4" fill="rgba(80%,0%,0%,1)"></circle><circle cx="209.60169903477927" cy="12.927790288127994" r="4" fill="rgba(80%,0%,0%,1)"></circle><circle cx="208.40830703110652" cy="25.806541039589963" r="4" fill="rgba(80%,0%,0%,1)"></circle><circle cx="206.42435093361937" cy="38.58739874147977" r="4" fill="rgba(80%,0%,0%,1)"></circle><circle cx="203.657356567352" cy="51.221881222759194" r="4" fill="rgba(80%,0%,0%,1)"></circle><circle cx="200.1178200897029" cy="63.662061563739144" r="4" fill="rgba(80%,0%,0%,1)"></circle><circle cx="195.81916817491472" cy="75.8607498993021" r="4" fill="rgba(80%,0%,0%,1)"></circle><circle cx="190.77770708209997" cy="87.77167242622451" r="4" fill="rgba(80%,0%,0%,1)"></circle><circle cx="185.01256080001477" cy="99.3496469355621" r="4" fill="rgba(80%,0%,0%,1)"></circle><circle cx="178.54559850321897" cy="110.55075420424473" r="4" fill="rgba(80%,0%,0%,1)"></circle><circle cx="171.40135159480656" cy="121.33250459573273" r="4" fill="rgba(80%,0%,0%,1)"></circle><circle cx="163.6069206503908" cy="131.65399923776235" r="4" fill="rgba(80%,0%,0%,1)"></circle><circle cx="155.1918726163384" cy="141.476085165777" r="4" fill="rgba(80%,0%,0%,1)"></circle><circle cx="146.1881286522146" cy="150.76150384353278" r="4" fill="rgba(80%,0%,0%,1)"></circle><circle cx="136.62984304289085" cy="159.47503249748848" r="4" fill="rgba(80%,0%,0%,1)"></circle><circle cx="126.55327363964389" cy="167.58361772885027" r="4" fill="rgba(80%,0%,0%,1)"></circle><circle cx="115.99664432170627" cy="175.05650089643507" r="4" fill="rgba(80%,0%,0%,1)"></circle><circle cx="105.00000000000003" cy="181.8653347947321" r="4" fill="rgba(80%,0%,0%,1)"></circle><circle cx="93.60505471307302" cy="187.98429118456312" r="4" fill="rgba(80%,0%,0%,1)"></circle><circle cx="81.85503339146267" cy="193.39015876844027" r="4" fill="rgba(80%,0%,0%,1)"></circle><circle cx="69.79450789072853" cy="198.06243123896826" r="4" fill="rgba(80%,0%,0%,1)"></circle><circle cx="57.46922791513738" cy="201.983385066292" r="4" fill="rgba(80%,0%,0%,1)"></circle><circle cx="44.92594747336448" cy="205.13814672951614" r="4" fill="rgba(80%,0%,0%,1)"></circle><circle cx="32.21224752452394" cy="207.51474913706446" r="4" fill="rgba(80%,0%,0%,1)"></circle><circle cx="19.376355487293466" cy="209.10417702195724" r="4" fill="rgba(80%,0%,0%,1)"></circle><circle cx="6.466962296795769" cy="209.90040113980683" r="4" fill="rgba(80%,0%,0%,1)"></circle><circle cx="-6.466962296795743" cy="209.90040113980683" r="4" fill="rgba(80%,0%,0%,1)"></circle><circle cx="-19.376355487293445" cy="209.10417702195724" r="4" fill="rgba(80%,0%,0%,1)"></circle><circle cx="-32.21224752452392" cy="207.51474913706446" r="4" fill="rgba(80%,0%,0%,1)"></circle><circle cx="-44.92594747336451" cy="205.13814672951614" r="4" fill="rgba(80%,0%,0%,1)"></circle><circle cx="-57.46922791513732" cy="201.98338506629202" r="4" fill="rgba(80%,0%,0%,1)"></circle><circle cx="-69.7945078907285" cy="198.0624312389683" r="4" fill="rgba(80%,0%,0%,1)"></circle><circle cx="-81.85503339146261" cy="193.3901587684403" r="4" fill="rgba(80%,0%,0%,1)"></circle><circle cx="-93.60505471307303" cy="187.9842911845631" r="4" fill="rgba(80%,0%,0%,1)"></circle><circle cx="-104.99999999999996" cy="181.86533479473215" r="4" fill="rgba(80%,0%,0%,1)"></circle><circle cx="-115.99664432170621" cy="175.0565008964351" r="4" fill="rgba(80%,0%,0%,1)"></circle><circle cx="-126.55327363964389" cy="167.58361772885027" r="4" fill="rgba(80%,0%,0%,1)"></circle><circle cx="-136.62984304289085" cy="159.47503249748848" r="4" fill="rgba(80%,0%,0%,1)"></circle><circle cx="-146.18812865221457" cy="150.7615038435328" r="4" fill="rgba(80%,0%,0%,1)"></circle><circle cx="-155.19187261633846" cy="141.476085165777" r="4" fill="rgba(80%,0%,0%,1)"></circle><circle cx="-163.6069206503908" cy="131.65399923776235" r="4" fill="rgba(80%,0%,0%,1)"></circle><circle cx="-171.40135159480653" cy="121.33250459573276" r="4" fill="rgba(80%,0%,0%,1)"></circle><circle cx="-178.545598503219" cy="110.5507542042447" r="4" fill="rgba(80%,0%,0%,1)"></circle><circle cx="-185.01256080001474" cy="99.34964693556212" r="4" fill="rgba(80%,0%,0%,1)"></circle><circle cx="-190.77770708209997" cy="87.77167242622457" r="4" fill="rgba(80%,0%,0%,1)"></circle><circle cx="-195.81916817491472" cy="75.8607498993021" r="4" fill="rgba(80%,0%,0%,1)"></circle><circle cx="-200.11782008970286" cy="63.66206156373915" r="4" fill="rgba(80%,0%,0%,1)"></circle><circle cx="-203.65735656735197" cy="51.221881222759265" r="4" fill="rgba(80%,0%,0%,1)"></circle><circle cx="-206.42435093361937" cy="38.587398741479866" r="4" fill="rgba(80%,0%,0%,1)"></circle><circle cx="-208.40830703110652" cy="25.806541039590012" r="4" fill="rgba(80%,0%,0%,1)"></circle><circle cx="-209.60169903477927" cy="12.927790288127985" r="4" fill="rgba(80%,0%,0%,1)"></circle><circle cx="-210" cy="2.5717582782094416e-14" r="4" fill="rgba(80%,0%,0%,1)"></circle><circle cx="-209.60169903477927" cy="-12.927790288127932" r="4" fill="rgba(80%,0%,0%,1)"></circle><circle cx="-208.40830703110652" cy="-25.806541039589867" r="4" fill="rgba(80%,0%,0%,1)"></circle><circle cx="-206.42435093361937" cy="-38.58739874147982" r="4" fill="rgba(80%,0%,0%,1)"></circle><circle cx="-203.657356567352" cy="-51.221881222759215" r="4" fill="rgba(80%,0%,0%,1)"></circle><circle cx="-200.1178200897029" cy="-63.662061563739115" r="4" fill="rgba(80%,0%,0%,1)"></circle><circle cx="-195.81916817491475" cy="-75.86074989930206" r="4" fill="rgba(80%,0%,0%,1)"></circle><circle cx="-190.77770708209994" cy="-87.7716724262246" r="4" fill="rgba(80%,0%,0%,1)"></circle><circle cx="-185.0125608000147" cy="-99.34964693556216" r="4" fill="rgba(80%,0%,0%,1)"></circle><circle cx="-178.54559850321905" cy="-110.55075420424458" r="4" fill="rgba(80%,0%,0%,1)"></circle><circle cx="-171.40135159480656" cy="-121.33250459573271" r="4" fill="rgba(80%,0%,0%,1)"></circle><circle cx="-163.60692065039083" cy="-131.65399923776232" r="4" fill="rgba(80%,0%,0%,1)"></circle><circle cx="-155.1918726163385" cy="-141.47608516577694" r="4" fill="rgba(80%,0%,0%,1)"></circle><circle cx="-146.1881286522147" cy="-150.76150384353272" r="4" fill="rgba(80%,0%,0%,1)"></circle><circle cx="-136.62984304289083" cy="-159.47503249748848" r="4" fill="rgba(80%,0%,0%,1)"></circle><circle cx="-126.55327363964386" cy="-167.58361772885027" r="4" fill="rgba(80%,0%,0%,1)"></circle><circle cx="-115.99664432170628" cy="-175.05650089643504" r="4" fill="rgba(80%,0%,0%,1)"></circle><circle cx="-105.0000000000001" cy="-181.86533479473206" r="4" fill="rgba(80%,0%,0%,1)"></circle><circle cx="-93.60505471307299" cy="-187.98429118456312" r="4" fill="rgba(80%,0%,0%,1)"></circle><circle cx="-81.85503339146264" cy="-193.39015876844027" r="4" fill="rgba(80%,0%,0%,1)"></circle><circle cx="-69.79450789072854" cy="-198.06243123896826" r="4" fill="rgba(80%,0%,0%,1)"></circle><circle cx="-57.46922791513728" cy="-201.98338506629204" r="4" fill="rgba(80%,0%,0%,1)"></circle><circle cx="-44.92594747336456" cy="-205.1381467295161" r="4" fill="rgba(80%,0%,0%,1)"></circle><circle cx="-32.21224752452388" cy="-207.51474913706448" r="4" fill="rgba(80%,0%,0%,1)"></circle><circle cx="-19.3763554872934" cy="-209.10417702195727" r="4" fill="rgba(80%,0%,0%,1)"></circle><circle cx="-6.466962296795795" cy="-209.90040113980683" r="4" fill="rgba(80%,0%,0%,1)"></circle><circle cx="6.466962296795717" cy="-209.90040113980683" r="4" fill="rgba(80%,0%,0%,1)"></circle><circle cx="19.376355487293512" cy="-209.10417702195724" r="4" fill="rgba(80%,0%,0%,1)"></circle><circle cx="32.21224752452398" cy="-207.51474913706446" r="4" fill="rgba(80%,0%,0%,1)"></circle><circle cx="44.925947473364474" cy="-205.13814672951614" r="4" fill="rgba(80%,0%,0%,1)"></circle><circle cx="57.46922791513738" cy="-201.983385066292" r="4" fill="rgba(80%,0%,0%,1)"></circle><circle cx="69.79450789072847" cy="-198.0624312389683" r="4" fill="rgba(80%,0%,0%,1)"></circle><circle cx="81.85503339146258" cy="-193.3901587684403" r="4" fill="rgba(80%,0%,0%,1)"></circle><circle cx="93.60505471307309" cy="-187.98429118456306" r="4" fill="rgba(80%,0%,0%,1)"></circle><circle cx="105" cy="-181.8653347947321" r="4" fill="rgba(80%,0%,0%,1)"></circle><circle cx="115.9966443217062" cy="-175.05650089643513" r="4" fill="rgba(80%,0%,0%,1)"></circle><circle cx="126.5532736396438" cy="-167.58361772885033" r="4" fill="rgba(80%,0%,0%,1)"></circle><circle cx="136.62984304289077" cy="-159.47503249748857" r="4" fill="rgba(80%,0%,0%,1)"></circle><circle cx="146.1881286522145" cy="-150.7615038435329" r="4" fill="rgba(80%,0%,0%,1)"></circle><circle cx="155.1918726163384" cy="-141.476085165777" r="4" fill="rgba(80%,0%,0%,1)"></circle><circle cx="163.60692065039078" cy="-131.65399923776238" r="4" fill="rgba(80%,0%,0%,1)"></circle><circle cx="171.40135159480653" cy="-121.33250459573279" r="4" fill="rgba(80%,0%,0%,1)"></circle><circle cx="178.54559850321894" cy="-110.5507542042448" r="4" fill="rgba(80%,0%,0%,1)"></circle><circle cx="185.01256080001468" cy="-99.34964693556223" r="4" fill="rgba(80%,0%,0%,1)"></circle><circle cx="190.7777070820999" cy="-87.77167242622467" r="4" fill="rgba(80%,0%,0%,1)"></circle><circle cx="195.81916817491464" cy="-75.8607498993023" r="4" fill="rgba(80%,0%,0%,1)"></circle><circle cx="200.11782008970292" cy="-63.662061563739" r="4" fill="rgba(80%,0%,0%,1)"></circle><circle cx="203.65735656735197" cy="-51.221881222759286" r="4" fill="rgba(80%,0%,0%,1)"></circle><circle cx="206.42435093361937" cy="-38.58739874147971" r="4" fill="rgba(80%,0%,0%,1)"></circle><circle cx="208.40830703110652" cy="-25.806541039589945" r="4" fill="rgba(80%,0%,0%,1)"></circle><circle cx="209.60169903477927" cy="-12.92779028812801" r="4" fill="rgba(80%,0%,0%,1)"></circle><circle cx="210" cy="-5.143516556418883e-14" r="4" fill="rgba(80%,0%,0%,1)"></circle></g><g transform="rotate(-11.760000228881836)"><circle cx="225" cy="0" r="8" fill="rgba(80%,0%,0%,1)"></circle><circle cx="224.04018966638276" cy="20.760380879242945" r="8" fill="rgba(80%,0%,0%,1)"></circle><circle cx="221.1689474288779" cy="41.34364150872832" r="8" fill="rgba(80%,0%,0%,1)"></circle><circle cx="216.4107697138843" cy="61.57417276621865" r="8" fill="rgba(80%,0%,0%,1)"></circle><circle cx="209.80625161598005" cy="81.27937489210939" r="8" fill="rgba(80%,0%,0%,1)"></circle><circle cx="201.41174055488904" cy="100.29113004972109" r="8" fill="rgba(80%,0%,0%,1)"></circle><circle cx="191.29885553916318" cy="118.44723664740506" r="8" fill="rgba(80%,0%,0%,1)"></circle><circle cx="179.55387613805388" cy="135.59279318533268" r="8" fill="rgba(80%,0%,0%,1)"></circle><circle cx="166.2770063746483" cy="151.58151982047534" r="8" fill="rgba(80%,0%,0%,1)"></circle><circle cx="151.58151982047536" cy="166.2770063746483" r="8" fill="rgba(80%,0%,0%,1)"></circle><circle cx="135.59279318533274" cy="179.55387613805385" r="8" fill="rgba(80%,0%,0%,1)"></circle><circle cx="118.44723664740506" cy="191.29885553916318" r="8" fill="rgba(80%,0%,0%,1)"></circle><circle cx="100.29113004972108" cy="201.41174055488906" r="8" fill="rgba(80%,0%,0%,1)"></circle><circle cx="81.27937489210939" cy="209.80625161598005" r="8" fill="rgba(80%,0%,0%,1)"></circle><circle cx="61.574172766218624" cy="216.4107697138843" r="8" fill="rgba(80%,0%,0%,1)"></circle><circle cx="41.34364150872832" cy="221.1689474288779" r="8" fill="rgba(80%,0%,0%,1)"></circle><circle cx="20.760380879243" cy="224.04018966638276" r="8" fill="rgba(80%,0%,0%,1)"></circle><circle cx="1.3777276490407723e-14" cy="225" r="8" fill="rgba(80%,0%,0%,1)"></circle><circle cx="-20.760380879242977" cy="224.04018966638276" r="8" fill="rgba(80%,0%,0%,1)"></circle><circle cx="-41.3436415087283" cy="221.1689474288779" r="8" fill="rgba(80%,0%,0%,1)"></circle><circle cx="-61.57417276621855" cy="216.41076971388432" r="8" fill="rgba(80%,0%,0%,1)"></circle><circle cx="-81.27937489210937" cy="209.80625161598007" r="8" fill="rgba(80%,0%,0%,1)"></circle><circle cx="-100.2911300497211" cy="201.41174055488904" r="8" fill="rgba(80%,0%,0%,1)"></circle><circle cx="-118.44723664740506" cy="191.29885553916318" r="8" fill="rgba(80%,0%,0%,1)"></circle><circle cx="-135.59279318533274" cy="179.55387613805385" r="8" fill="rgba(80%,0%,0%,1)"></circle><circle cx="-151.58151982047536" cy="166.2770063746483" r="8" fill="rgba(80%,0%,0%,1)"></circle><circle cx="-166.27700637464835" cy="151.58151982047534" r="8" fill="rgba(80%,0%,0%,1)"></circle><circle cx="-179.55387613805388" cy="135.59279318533268" r="8" fill="rgba(80%,0%,0%,1)"></circle><circle cx="-191.29885553916318" cy="118.44723664740503" r="8" fill="rgba(80%,0%,0%,1)"></circle><circle cx="-201.411740554889" cy="100.29113004972113" r="8" fill="rgba(80%,0%,0%,1)"></circle><circle cx="-209.80625161598005" cy="81.27937489210939" r="8" fill="rgba(80%,0%,0%,1)"></circle><circle cx="-216.4107697138843" cy="61.57417276621869" r="8" fill="rgba(80%,0%,0%,1)"></circle><circle cx="-221.16894742887789" cy="41.343641508728425" r="8" fill="rgba(80%,0%,0%,1)"></circle><circle cx="-224.0401896663828" cy="20.760380879242916" r="8" fill="rgba(80%,0%,0%,1)"></circle><circle cx="-225" cy="2.7554552980815446e-14" r="8" fill="rgba(80%,0%,0%,1)"></circle><circle cx="-224.0401896663828" cy="-20.760380879242863" r="8" fill="rgba(80%,0%,0%,1)"></circle><circle cx="-221.1689474288779" cy="-41.343641508728375" r="8" fill="rgba(80%,0%,0%,1)"></circle><circle cx="-216.4107697138843" cy="-61.57417276621864" r="8" fill="rgba(80%,0%,0%,1)"></circle><circle cx="-209.80625161598007" cy="-81.27937489210936" r="8" fill="rgba(80%,0%,0%,1)"></circle><circle cx="-201.41174055488906" cy="-100.29113004972099" r="8" fill="rgba(80%,0%,0%,1)"></circle><circle cx="-191.29885553916327" cy="-118.4472366474049" r="8" fill="rgba(80%,0%,0%,1)"></circle><circle cx="-179.5538761380539" cy="-135.59279318533265" r="8" fill="rgba(80%,0%,0%,1)"></circle><circle cx="-166.27700637464838" cy="-151.5815198204753" r="8" fill="rgba(80%,0%,0%,1)"></circle><circle cx="-151.58151982047534" cy="-166.2770063746483" r="8" fill="rgba(80%,0%,0%,1)"></circle><circle cx="-135.5927931853327" cy="-179.55387613805385" r="8" fill="rgba(80%,0%,0%,1)"></circle><circle cx="-118.44723664740496" cy="-191.29885553916324" r="8" fill="rgba(80%,0%,0%,1)"></circle><circle cx="-100.29113004972106" cy="-201.41174055488906" r="8" fill="rgba(80%,0%,0%,1)"></circle><circle cx="-81.2793748921094" cy="-209.80625161598005" r="8" fill="rgba(80%,0%,0%,1)"></circle><circle cx="-61.57417276621851" cy="-216.41076971388435" r="8" fill="rgba(80%,0%,0%,1)"></circle><circle cx="-41.343641508728254" cy="-221.1689474288779" r="8" fill="rgba(80%,0%,0%,1)"></circle><circle cx="-20.760380879242927" cy="-224.0401896663828" r="8" fill="rgba(80%,0%,0%,1)"></circle><circle cx="-4.133182947122317e-14" cy="-225" r="8" fill="rgba(80%,0%,0%,1)"></circle><circle cx="20.760380879243048" cy="-224.04018966638276" r="8" fill="rgba(80%,0%,0%,1)"></circle><circle cx="41.34364150872816" cy="-221.1689474288779" r="8" fill="rgba(80%,0%,0%,1)"></circle><circle cx="61.574172766218624" cy="-216.4107697138843" r="8" fill="rgba(80%,0%,0%,1)"></circle><circle cx="81.27937489210935" cy="-209.80625161598007" r="8" fill="rgba(80%,0%,0%,1)"></circle><circle cx="100.29113004972118" cy="-201.411740554889" r="8" fill="rgba(80%,0%,0%,1)"></circle><circle cx="118.44723664740503" cy="-191.29885553916318" r="8" fill="rgba(80%,0%,0%,1)"></circle><circle cx="135.59279318533265" cy="-179.55387613805394" r="8" fill="rgba(80%,0%,0%,1)"></circle><circle cx="151.58151982047528" cy="-166.2770063746484" r="8" fill="rgba(80%,0%,0%,1)"></circle><circle cx="166.2770063746483" cy="-151.58151982047534" r="8" fill="rgba(80%,0%,0%,1)"></circle><circle cx="179.55387613805385" cy="-135.5927931853327" r="8" fill="rgba(80%,0%,0%,1)"></circle><circle cx="191.29885553916316" cy="-118.44723664740513" r="8" fill="rgba(80%,0%,0%,1)"></circle><circle cx="201.41174055488895" cy="-100.29113004972125" r="8" fill="rgba(80%,0%,0%,1)"></circle><circle cx="209.80625161598" cy="-81.2793748921096" r="8" fill="rgba(80%,0%,0%,1)"></circle><circle cx="216.41076971388426" cy="-61.574172766218716" r="8" fill="rgba(80%,0%,0%,1)"></circle><circle cx="221.1689474288779" cy="-41.34364150872826" r="8" fill="rgba(80%,0%,0%,1)"></circle><circle cx="224.04018966638276" cy="-20.760380879243144" r="8" fill="rgba(80%,0%,0%,1)"></circle><circle cx="225" cy="-5.510910596163089e-14" r="8" fill="rgba(80%,0%,0%,1)"></circle></g></g></svg>