<?xml version="1.0" standalone="no"?>
<svg xmlns:xlink="http://www.w3.org/1999/xlink" xmlns="http://www.w3.org/2000/svg" width="500" height="500"><g transform="translate(83.33333333333333,83.33333333333333)"><polygon points="0,0 0,8 0,16 8,16 8,24 16,24 16,32 24,32 24,24 24,16 32,16 32,8 24,8 24,0 24,-8 24,-16 16,-16 8,-16 8,-8 8,0 0,0" fill="rgba(87.32%,0%,12.68%,1)" stroke="black" stroke-width="1"></polygon></g><g transform="translate(250,83.33333333333333)"><polygon points="0,0 8,0 8,8 8,16 0,16 0,24 8,24 16,24 16,16 16,8 16,0 24,0 24,-8 32,-8 32,-16 32,-24 24,-24 16,-24 8,-24 0,-24 0,-16 0,-8 0,0" fill="rgba(31.95%,76.86%,13.61%,1)" stroke="black" stroke-width="1"></polygon></g><g transform="translate(416.66666666666663,83.33333333333333)"><polygon points="0,0 0,-8 0,-16 8,-16 8,-24 8,-32 16,-32 24,-32 32,-32 32,-24 40,-24 40,-16 40,-8 40,0 32,0 32,8 32,16 24,16 16,16 8,16 8,8 0,8 0,0" fill="rgba(11.71%,45.38%,48.73%,1)" stroke="black" stroke-width="1"></polygon></g><g transform="translate(83.33333333333333,250)"><polygon points="0,0 -8,0 -16,0 -16,8 -16,16 -24,16 -24,24 -24,32 -16,32 -8,32 -8,24 0,24 8,24 8,16 8,8 16,8 16,0 8,0 0,0" fill="rgba(100%,59.45%,0%,1)" stroke="black" stroke-width="1"></polygon></g><g transform="translate(250,250)"><polygon points="0,0 0,-8 0,-16 8,-16 8,-24 16,-24 16,-16 24,-16 24,-8 24,0 24,8 24,16 16,16 16,8 8,8 8,0 0,0" fill="rgba(100%,93.3%,0%,1)" stroke="black" stroke-width="1"></polygon></g><g transform="translate(416.66666666666663,250)"><polygon points="0,0 0,-8 8,-8 16,-8 24,-8 32,-8 32,0 24,0 24,8 16,8 8,8 8,0 0,0" fill="rgba(100%,19.67%,0%,1)" stroke="black" stroke-width="1"></polygon></g><g transform="translate(83.33333333333333,416.66666666666663)"><polygon points="0,0 8,0 16,0 24,0 24,8 32,8 40,8 40,16 40,24 32,24 24,24 16,24 8,24 0,24 0,16 0,8 0,0" fill="rgba(100%,87.82%,0%,1)" stroke="black" stroke-width="1"></polygon></g><g transform="translate(250,416.66666666666663)"><polygon points="0,0 8,0 8,-8 16,-8 24,-8 24,0 32,0 32,-8 32,-16 32,-24 24,-24 16,-24 16,-32 8,-32 0,-32 0,-24 -8,-24 -8,-16 -8,-8 0,-8 0,0" fill="rgba(22.73%,30.18%,58.09%,1)" stroke="black" stroke-width="1"></polygon></g><g transform="translate(416.66666666666663,416.66666666666663)"><polygon points="0,0 8,0 8,-8 8,-16 8,-24 16,-24 16,-32 24,-32 32,-32 32,-24 40,-24 40,-16 32,-16 32,-8 32,0 32,8 24,8 16,8 8,8 0,8 0,0" fill="rgba(75.56%,91.69%,4.89%,1)" stroke="black" stroke-width="1"></polygon></g></svg>