<?xml version="1.0" standalone="no"?>
<svg xmlns:xlink="http://www.w3.org/1999/xlink" xmlns="http://www.w3.org/2000/svg" width="500" height="500" version="1.1"><g id="_unnamed_" transform="translate(250,250) scale(1,1) rotate(0)"><polygon id="_unnamed_" points="94.85683934500321,-248.91013985472253 94.85683934500321,-249.2525067920357 95.06518954560386,-249.2525067920357 95.06518954560386,-248.91013985472253" fill="rgb(255,211,0)" fill-opacity="1" stroke="none" stroke-opacity="0" stroke-width="0" stroke-linecap="butt" stroke-linejoin="miter" opacity="1" transform="translate(0,0) scale(1,1) rotate(0)" stroke-dashoffset="0" stroke-dasharray=""></polygon><polygon id="_unnamed_" points="94.85683934500321,-249.2525067920357 94.85683934500321,-248.91013985472253 94.79970637259832,-248.76021944571656 94.79970637259832,-249.10238017290388" fill="rgb(204,169,0)" fill-opacity="1" stroke="none" stroke-opacity="0" stroke-width="0" stroke-linecap="butt" stroke-linejoin="miter" opacity="1" transform="translate(0,0) scale(1,1) rotate(0)" stroke-dashoffset="0" stroke-dasharray=""></polygon><polygon id="_unnamed_" points="94.85683934500321,-248.91013985472253 94.79970637259832,-248.76021944571656 95.00793108233988,-248.76021944571656 95.06518954560386,-248.91013985472253" fill="rgb(204,169,0)" fill-opacity="1" stroke="none" stroke-opacity="0" stroke-width="0" stroke-linecap="butt" stroke-linejoin="miter" opacity="1" transform="translate(0,0) scale(1,1) rotate(0)" stroke-dashoffset="0" stroke-dasharray=""></polygon><polygon id="_unnamed_" points="65.97858830116256,2.26756677859575 65.97858830116256,0.9131447223875577 67.12040347196704,0.9131447223875577 67.12040347196704,2.26756677859575" fill="rgb(186,231,13)" fill-opacity="1" stroke="none" stroke-opacity="0" stroke-width="0" stroke-linecap="butt" stroke-linejoin="miter" opacity="1" transform="translate(0,0) scale(1,1) rotate(0)" stroke-dashoffset="0" stroke-dasharray=""></polygon><polygon id="_unnamed_" points="65.97858830116256,0.9131447223875577 65.97858830116256,2.26756677859575 65.82814969157243,2.262396471044343 65.82814969157243,0.9110626496132285" fill="rgb(147,183,10)" fill-opacity="1" stroke="none" stroke-opacity="0" stroke-width="0" stroke-linecap="butt" stroke-linejoin="miter" opacity="1" transform="translate(0,0) scale(1,1) rotate(0)" stroke-dashoffset="0" stroke-dasharray=""></polygon><polygon id="_unnamed_" points="65.97858830116256,0.9131447223875577 65.82814969157243,0.9110626496132285 66.96736139523513,0.9110626496132285 67.12040347196704,0.9131447223875577" fill="rgb(203,242,53)" fill-opacity="1" stroke="none" stroke-opacity="0" stroke-width="0" stroke-linecap="butt" stroke-linejoin="miter" opacity="1" transform="translate(0,0) scale(1,1) rotate(0)" stroke-dashoffset="0" stroke-dasharray=""></polygon><polygon id="_unnamed_" points="141.3915549575353,-36.033876727424506 141.3915549575353,-39.0993602742109 145.407383746443,-39.0993602742109 145.407383746443,-36.033876727424506" fill="rgb(224,0,30)" fill-opacity="1" stroke="none" stroke-opacity="0" stroke-width="0" stroke-linecap="butt" stroke-linejoin="miter" opacity="1" transform="translate(0,0) scale(1,1) rotate(0)" stroke-dashoffset="0" stroke-dasharray=""></polygon><polygon id="_unnamed_" points="141.3915549575353,-39.0993602742109 141.3915549575353,-36.033876727424506 140.18513149921458,-35.72641767026047 140.18513149921458,-38.76574497834469" fill="rgb(173,0,23)" fill-opacity="1" stroke="none" stroke-opacity="0" stroke-width="0" stroke-linecap="butt" stroke-linejoin="miter" opacity="1" transform="translate(0,0) scale(1,1) rotate(0)" stroke-dashoffset="0" stroke-dasharray=""></polygon><polygon id="_unnamed_" points="141.3915549575353,-36.033876727424506 140.18513149921458,-35.72641767026047 144.16669522853655,-35.72641767026047 145.407383746443,-36.033876727424506" fill="rgb(173,0,23)" fill-opacity="1" stroke="none" stroke-opacity="0" stroke-width="0" stroke-linecap="butt" stroke-linejoin="miter" opacity="1" transform="translate(0,0) scale(1,1) rotate(0)" stroke-dashoffset="0" stroke-dasharray=""></polygon><polygon id="_unnamed_" points="194.5962672180583,-42.51167546918331 194.5962672180583,-46.85212036006725 197.784846631256,-46.85212036006725 197.784846631256,-42.51167546918331" fill="rgb(255,15,0)" fill-opacity="1" stroke="none" stroke-opacity="0" stroke-width="0" stroke-linecap="butt" stroke-linejoin="miter" opacity="1" transform="translate(0,0) scale(1,1) rotate(0)" stroke-dashoffset="0" stroke-dasharray=""></polygon><polygon id="_unnamed_" points="194.5962672180583,-46.85212036006725 194.5962672180583,-42.51167546918331 193.2125511423333,-42.20938761138592 193.2125511423333,-46.51896889189761" fill="rgb(204,12,0)" fill-opacity="1" stroke="none" stroke-opacity="0" stroke-width="0" stroke-linecap="butt" stroke-linejoin="miter" opacity="1" transform="translate(0,0) scale(1,1) rotate(0)" stroke-dashoffset="0" stroke-dasharray=""></polygon><polygon id="_unnamed_" points="194.5962672180583,-42.51167546918331 193.2125511423333,-42.20938761138592 196.37845751736924,-42.20938761138592 197.784846631256,-42.51167546918331" fill="rgb(204,12,0)" fill-opacity="1" stroke="none" stroke-opacity="0" stroke-width="0" stroke-linecap="butt" stroke-linejoin="miter" opacity="1" transform="translate(0,0) scale(1,1) rotate(0)" stroke-dashoffset="0" stroke-dasharray=""></polygon><polygon id="_unnamed_" points="190.83776666002095,-66.24339606288046 190.83776666002095,-71.72952710584882 197.0820328117077,-71.72952710584882 197.0820328117077,-66.24339606288046" fill="rgb(74,193,36)" fill-opacity="1" stroke="none" stroke-opacity="0" stroke-width="0" stroke-linecap="butt" stroke-linejoin="miter" opacity="1" transform="translate(0,0) scale(1,1) rotate(0)" stroke-dashoffset="0" stroke-dasharray=""></polygon><polygon id="_unnamed_" points="190.83776666002095,-71.72952710584882 190.83776666002095,-66.24339606288046 188.20218368484174,-65.32853539385778 188.20218368484174,-70.73889970663689" fill="rgb(57,150,28)" fill-opacity="1" stroke="none" stroke-opacity="0" stroke-width="0" stroke-linecap="butt" stroke-linejoin="miter" opacity="1" transform="translate(0,0) scale(1,1) rotate(0)" stroke-dashoffset="0" stroke-dasharray=""></polygon><polygon id="_unnamed_" points="190.83776666002095,-66.24339606288046 188.20218368484174,-65.32853539385778 194.36021280991733,-65.32853539385778 197.0820328117077,-66.24339606288046" fill="rgb(57,150,28)" fill-opacity="1" stroke="none" stroke-opacity="0" stroke-width="0" stroke-linecap="butt" stroke-linejoin="miter" opacity="1" transform="translate(0,0) scale(1,1) rotate(0)" stroke-dashoffset="0" stroke-dasharray=""></polygon><polygon id="_unnamed_" points="-30.380553489469182,-210.97240980030193 -30.380553489469182,-218.6940775184677 -22.845905627051813,-218.6940775184677 -22.845905627051813,-210.97240980030193" fill="rgb(28,118,119)" fill-opacity="1" stroke="none" stroke-opacity="0" stroke-width="0" stroke-linecap="butt" stroke-linejoin="miter" opacity="1" transform="translate(0,0) scale(1,1) rotate(0)" stroke-dashoffset="0" stroke-dasharray=""></polygon><polygon id="_unnamed_" points="-22.845905627051813,-218.6940775184677 -22.845905627051813,-210.97240980030193 -22.54919878700422,-208.23244588418768 -22.54919878700422,-215.85382991625428" fill="rgb(37,160,161)" fill-opacity="1" stroke="none" stroke-opacity="0" stroke-width="0" stroke-linecap="butt" stroke-linejoin="miter" opacity="1" transform="translate(0,0) scale(1,1) rotate(0)" stroke-dashoffset="0" stroke-dasharray=""></polygon><polygon id="_unnamed_" points="-30.380553489469182,-210.97240980030193 -29.98599184801323,-208.23244588418768 -22.54919878700422,-208.23244588418768 -22.845905627051813,-210.97240980030193" fill="rgb(18,77,78)" fill-opacity="1" stroke="none" stroke-opacity="0" stroke-width="0" stroke-linecap="butt" stroke-linejoin="miter" opacity="1" transform="translate(0,0) scale(1,1) rotate(0)" stroke-dashoffset="0" stroke-dasharray=""></polygon><polygon id="_unnamed_" points="-11.201494969952675,100.09882599246068 -11.201494969952675,92.66697939771346 -2.741703002096213,92.66697939771346 -2.741703002096213,100.09882599246068" fill="rgb(255,178,0)" fill-opacity="1" stroke="none" stroke-opacity="0" stroke-width="0" stroke-linecap="butt" stroke-linejoin="miter" opacity="1" transform="translate(0,0) scale(1,1) rotate(0)" stroke-dashoffset="0" stroke-dasharray=""></polygon><polygon id="_unnamed_" points="-2.741703002096213,92.66697939771346 -2.741703002096213,100.09882599246068 -2.7073617803277457,98.84503738751619 -2.7073617803277457,91.50627844371596" fill="rgb(255,193,50)" fill-opacity="1" stroke="none" stroke-opacity="0" stroke-width="0" stroke-linecap="butt" stroke-linejoin="miter" opacity="1" transform="translate(0,0) scale(1,1) rotate(0)" stroke-dashoffset="0" stroke-dasharray=""></polygon><polygon id="_unnamed_" points="-11.201494969952675,92.66697939771346 -11.061190559661915,91.50627844371596 -2.7073617803277457,91.50627844371596 -2.741703002096213,92.66697939771346" fill="rgb(255,193,50)" fill-opacity="1" stroke="none" stroke-opacity="0" stroke-width="0" stroke-linecap="butt" stroke-linejoin="miter" opacity="1" transform="translate(0,0) scale(1,1) rotate(0)" stroke-dashoffset="0" stroke-dasharray=""></polygon><polygon id="_unnamed_" points="-25.971862416640718,-127.09312374169428 -25.971862416640718,-139.87651092963537 -15.020664880780323,-139.87651092963537 -15.020664880780323,-127.09312374169428" fill="rgb(22,129,105)" fill-opacity="1" stroke="none" stroke-opacity="0" stroke-width="0" stroke-linecap="butt" stroke-linejoin="miter" opacity="1" transform="translate(0,0) scale(1,1) rotate(0)" stroke-dashoffset="0" stroke-dasharray=""></polygon><polygon id="_unnamed_" points="-15.020664880780323,-139.87651092963537 -15.020664880780323,-127.09312374169428 -14.755287406164747,-124.84770701165779 -14.755287406164747,-137.40524381042542" fill="rgb(29,172,140)" fill-opacity="1" stroke="none" stroke-opacity="0" stroke-width="0" stroke-linecap="butt" stroke-linejoin="miter" opacity="1" transform="translate(0,0) scale(1,1) rotate(0)" stroke-dashoffset="0" stroke-dasharray=""></polygon><polygon id="_unnamed_" points="-25.971862416640718,-127.09312374169428 -25.51300474862827,-124.84770701165779 -14.755287406164747,-124.84770701165779 -15.020664880780323,-127.09312374169428" fill="rgb(14,85,69)" fill-opacity="1" stroke="none" stroke-opacity="0" stroke-width="0" stroke-linecap="butt" stroke-linejoin="miter" opacity="1" transform="translate(0,0) scale(1,1) rotate(0)" stroke-dashoffset="0" stroke-dasharray=""></polygon><polygon id="_unnamed_" points="-251.20511066521613,-125.6103305478356 -251.20511066521613,-137.38297733746415 -236.91952441948328,-137.38297733746415 -236.91952441948328,-125.6103305478356" fill="rgb(255,239,0)" fill-opacity="1" stroke="none" stroke-opacity="0" stroke-width="0" stroke-linecap="butt" stroke-linejoin="miter" opacity="1" transform="translate(0,0) scale(1,1) rotate(0)" stroke-dashoffset="0" stroke-dasharray=""></polygon><polygon id="_unnamed_" points="-236.91952441948328,-137.38297733746415 -236.91952441948328,-125.6103305478356 -232.1575401558893,-123.08561495557163 -232.1575401558893,-134.6216364232035" fill="rgb(255,242,50)" fill-opacity="1" stroke="none" stroke-opacity="0" stroke-width="0" stroke-linecap="butt" stroke-linejoin="miter" opacity="1" transform="translate(0,0) scale(1,1) rotate(0)" stroke-dashoffset="0" stroke-dasharray=""></polygon><polygon id="_unnamed_" points="-251.20511066521613,-125.6103305478356 -246.15599203789637,-123.08561495557163 -232.1575401558893,-123.08561495557163 -236.91952441948328,-125.6103305478356" fill="rgb(204,191,0)" fill-opacity="1" stroke="none" stroke-opacity="0" stroke-width="0" stroke-linecap="butt" stroke-linejoin="miter" opacity="1" transform="translate(0,0) scale(1,1) rotate(0)" stroke-dashoffset="0" stroke-dasharray=""></polygon><polygon id="_unnamed_" points="51.31920669613481,-170.60985494249084 51.31920669613481,-184.70820627357668 64.52547973210675,-184.70820627357668 64.52547973210675,-170.60985494249084" fill="rgb(255,53,0)" fill-opacity="1" stroke="none" stroke-opacity="0" stroke-width="0" stroke-linecap="butt" stroke-linejoin="miter" opacity="1" transform="translate(0,0) scale(1,1) rotate(0)" stroke-dashoffset="0" stroke-dasharray=""></polygon><polygon id="_unnamed_" points="51.31920669613481,-184.70820627357668 51.31920669613481,-170.60985494249084 50.37589517558891,-167.47383137457314 50.37589517558891,-181.31303728842636" fill="rgb(204,42,0)" fill-opacity="1" stroke="none" stroke-opacity="0" stroke-width="0" stroke-linecap="butt" stroke-linejoin="miter" opacity="1" transform="translate(0,0) scale(1,1) rotate(0)" stroke-dashoffset="0" stroke-dasharray=""></polygon><polygon id="_unnamed_" points="51.31920669613481,-170.60985494249084 50.37589517558891,-167.47383137457314 63.3394203146171,-167.47383137457314 64.52547973210675,-170.60985494249084" fill="rgb(204,42,0)" fill-opacity="1" stroke="none" stroke-opacity="0" stroke-width="0" stroke-linecap="butt" stroke-linejoin="miter" opacity="1" transform="translate(0,0) scale(1,1) rotate(0)" stroke-dashoffset="0" stroke-dasharray=""></polygon><polygon id="_unnamed_" points="45.1561992203841,91.53832036819772 45.1561992203841,75.04423564296779 62.67666198046329,75.04423564296779 62.67666198046329,91.53832036819772" fill="rgb(40,97,149)" fill-opacity="1" stroke="none" stroke-opacity="0" stroke-width="0" stroke-linecap="butt" stroke-linejoin="miter" opacity="1" transform="translate(0,0) scale(1,1) rotate(0)" stroke-dashoffset="0" stroke-dasharray=""></polygon><polygon id="_unnamed_" points="45.1561992203841,75.04423564296779 45.1561992203841,91.53832036819772 43.649751946500814,88.48452807488447 43.649751946500814,72.54069933661782" fill="rgb(29,71,109)" fill-opacity="1" stroke="none" stroke-opacity="0" stroke-width="0" stroke-linecap="butt" stroke-linejoin="miter" opacity="1" transform="translate(0,0) scale(1,1) rotate(0)" stroke-dashoffset="0" stroke-dasharray=""></polygon><polygon id="_unnamed_" points="45.1561992203841,75.04423564296779 43.649751946500814,72.54069933661782 60.58571791947706,72.54069933661782 62.67666198046329,75.04423564296779" fill="rgb(51,123,190)" fill-opacity="1" stroke="none" stroke-opacity="0" stroke-width="0" stroke-linecap="butt" stroke-linejoin="miter" opacity="1" transform="translate(0,0) scale(1,1) rotate(0)" stroke-dashoffset="0" stroke-dasharray=""></polygon><polygon id="_unnamed_" points="-123.08188931314,-188.38165615956112 -123.08188931314,-205.35979122348607 -91.47460099672702,-205.35979122348607 -91.47460099672702,-188.38165615956112" fill="rgb(29,115,124)" fill-opacity="1" stroke="none" stroke-opacity="0" stroke-width="0" stroke-linecap="butt" stroke-linejoin="miter" opacity="1" transform="translate(0,0) scale(1,1) rotate(0)" stroke-dashoffset="0" stroke-dasharray=""></polygon><polygon id="_unnamed_" points="-91.47460099672702,-205.35979122348607 -91.47460099672702,-188.38165615956112 -85.77584349898449,-176.64570581073298 -85.77584349898449,-192.5661235035082" fill="rgb(39,154,165)" fill-opacity="1" stroke="none" stroke-opacity="0" stroke-width="0" stroke-linecap="butt" stroke-linejoin="miter" opacity="1" transform="translate(0,0) scale(1,1) rotate(0)" stroke-dashoffset="0" stroke-dasharray=""></polygon><polygon id="_unnamed_" points="-123.08188931314,-188.38165615956112 -115.41403581154704,-176.64570581073298 -85.77584349898449,-176.64570581073298 -91.47460099672702,-188.38165615956112" fill="rgb(19,77,83)" fill-opacity="1" stroke="none" stroke-opacity="0" stroke-width="0" stroke-linecap="butt" stroke-linejoin="miter" opacity="1" transform="translate(0,0) scale(1,1) rotate(0)" stroke-dashoffset="0" stroke-dasharray=""></polygon><polygon id="_unnamed_" points="-239.66027855219502,-32.07370898321041 -239.66027855219502,-56.20842239467567 -218.26196373403255,-56.20842239467567 -218.26196373403255,-32.07370898321041" fill="rgb(170,0,84)" fill-opacity="1" stroke="none" stroke-opacity="0" stroke-width="0" stroke-linecap="butt" stroke-linejoin="miter" opacity="1" transform="translate(0,0) scale(1,1) rotate(0)" stroke-dashoffset="0" stroke-dasharray=""></polygon><polygon id="_unnamed_" points="-218.26196373403255,-56.20842239467567 -218.26196373403255,-32.07370898321041 -206.4333931173245,-30.33549438476596 -206.4333931173245,-53.16224209750139" fill="rgb(221,0,109)" fill-opacity="1" stroke="none" stroke-opacity="0" stroke-width="0" stroke-linecap="butt" stroke-linejoin="miter" opacity="1" transform="translate(0,0) scale(1,1) rotate(0)" stroke-dashoffset="0" stroke-dasharray=""></polygon><polygon id="_unnamed_" points="-239.66027855219502,-32.07370898321041 -226.6720396470919,-30.33549438476596 -206.4333931173245,-30.33549438476596 -218.26196373403255,-32.07370898321041" fill="rgb(119,0,59)" fill-opacity="1" stroke="none" stroke-opacity="0" stroke-width="0" stroke-linecap="butt" stroke-linejoin="miter" opacity="1" transform="translate(0,0) scale(1,1) rotate(0)" stroke-dashoffset="0" stroke-dasharray=""></polygon><polygon id="_unnamed_" points="10.60653329045372,222.52763903985274 10.60653329045372,189.3294661005083 38.20526448358357,189.3294661005083 38.20526448358357,222.52763903985274" fill="rgb(237,0,17)" fill-opacity="1" stroke="none" stroke-opacity="0" stroke-width="0" stroke-linecap="butt" stroke-linejoin="miter" opacity="1" transform="translate(0,0) scale(1,1) rotate(0)" stroke-dashoffset="0" stroke-dasharray=""></polygon><polygon id="_unnamed_" points="10.60653329045372,189.3294661005083 10.60653329045372,222.52763903985274 9.963010367999921,209.0263721621485 9.963010367999921,177.8424092087645" fill="rgb(186,0,13)" fill-opacity="1" stroke="none" stroke-opacity="0" stroke-width="0" stroke-linecap="butt" stroke-linejoin="miter" opacity="1" transform="translate(0,0) scale(1,1) rotate(0)" stroke-dashoffset="0" stroke-dasharray=""></polygon><polygon id="_unnamed_" points="10.60653329045372,189.3294661005083 9.963010367999921,177.8424092087645 35.887262665239746,177.8424092087645 38.20526448358357,189.3294661005083" fill="rgb(255,33,49)" fill-opacity="1" stroke="none" stroke-opacity="0" stroke-width="0" stroke-linecap="butt" stroke-linejoin="miter" opacity="1" transform="translate(0,0) scale(1,1) rotate(0)" stroke-dashoffset="0" stroke-dasharray=""></polygon><polygon id="_unnamed_" points="-212.6045114494494,174.49387127074425 -212.6045114494494,145.98021795095505 -188.10863985470286,145.98021795095505 -188.10863985470286,174.49387127074425" fill="rgb(58,188,39)" fill-opacity="1" stroke="none" stroke-opacity="0" stroke-width="0" stroke-linecap="butt" stroke-linejoin="miter" opacity="1" transform="translate(0,0) scale(1,1) rotate(0)" stroke-dashoffset="0" stroke-dasharray=""></polygon><polygon id="_unnamed_" points="-188.10863985470286,145.98021795095505 -188.10863985470286,174.49387127074425 -176.3155432884722,163.55432550771715 -176.3155432884722,136.82827889922007" fill="rgb(82,214,63)" fill-opacity="1" stroke="none" stroke-opacity="0" stroke-width="0" stroke-linecap="butt" stroke-linejoin="miter" opacity="1" transform="translate(0,0) scale(1,1) rotate(0)" stroke-dashoffset="0" stroke-dasharray=""></polygon><polygon id="_unnamed_" points="-212.6045114494494,145.98021795095505 -199.2756949959559,136.82827889922007 -176.3155432884722,136.82827889922007 -188.10863985470286,145.98021795095505" fill="rgb(82,214,63)" fill-opacity="1" stroke="none" stroke-opacity="0" stroke-width="0" stroke-linecap="butt" stroke-linejoin="miter" opacity="1" transform="translate(0,0) scale(1,1) rotate(0)" stroke-dashoffset="0" stroke-dasharray=""></polygon><polygon id="_unnamed_" points="-40.75884945397477,-206.32024897884673 -40.75884945397477,-249.49270609729152 -14.116737993404694,-249.49270609729152 -14.116737993404694,-206.32024897884673" fill="rgb(31,113,127)" fill-opacity="1" stroke="none" stroke-opacity="0" stroke-width="0" stroke-linecap="butt" stroke-linejoin="miter" opacity="1" transform="translate(0,0) scale(1,1) rotate(0)" stroke-dashoffset="0" stroke-dasharray=""></polygon><polygon id="_unnamed_" points="-14.116737993404694,-249.49270609729152 -14.116737993404694,-206.32024897884673 -13.3402359603707,-194.97144496597895 -13.3402359603707,-235.7691678689692" fill="rgb(41,149,168)" fill-opacity="1" stroke="none" stroke-opacity="0" stroke-width="0" stroke-linecap="butt" stroke-linejoin="miter" opacity="1" transform="translate(0,0) scale(1,1) rotate(0)" stroke-dashoffset="0" stroke-dasharray=""></polygon><polygon id="_unnamed_" points="-40.75884945397477,-206.32024897884673 -38.516877584841524,-194.97144496597895 -13.3402359603707,-194.97144496597895 -14.116737993404694,-206.32024897884673" fill="rgb(21,76,86)" fill-opacity="1" stroke="none" stroke-opacity="0" stroke-width="0" stroke-linecap="butt" stroke-linejoin="miter" opacity="1" transform="translate(0,0) scale(1,1) rotate(0)" stroke-dashoffset="0" stroke-dasharray=""></polygon><polygon id="_unnamed_" points="127.74436245911791,-114.93301899375184 127.74436245911791,-151.4998850894125 167.24702801741162,-151.4998850894125 167.24702801741162,-114.93301899375184" fill="rgb(255,147,0)" fill-opacity="1" stroke="none" stroke-opacity="0" stroke-width="0" stroke-linecap="butt" stroke-linejoin="miter" opacity="1" transform="translate(0,0) scale(1,1) rotate(0)" stroke-dashoffset="0" stroke-dasharray=""></polygon><polygon id="_unnamed_" points="127.74436245911791,-151.4998850894125 127.74436245911791,-114.93301899375184 118.78160094332924,-106.86912310276662 118.78160094332924,-140.87039574376448" fill="rgb(204,117,0)" fill-opacity="1" stroke="none" stroke-opacity="0" stroke-width="0" stroke-linecap="butt" stroke-linejoin="miter" opacity="1" transform="translate(0,0) scale(1,1) rotate(0)" stroke-dashoffset="0" stroke-dasharray=""></polygon><polygon id="_unnamed_" points="127.74436245911791,-114.93301899375184 118.78160094332924,-106.86912310276662 155.512692368555,-106.86912310276662 167.24702801741162,-114.93301899375184" fill="rgb(204,117,0)" fill-opacity="1" stroke="none" stroke-opacity="0" stroke-width="0" stroke-linecap="butt" stroke-linejoin="miter" opacity="1" transform="translate(0,0) scale(1,1) rotate(0)" stroke-dashoffset="0" stroke-dasharray=""></polygon><polygon id="_unnamed_" points="-107.7375674676187,-60.26517476010632 -107.7375674676187,-99.06673384677028 -59.45165582725406,-99.06673384677028 -59.45165582725406,-60.26517476010632" fill="rgb(255,246,0)" fill-opacity="1" stroke="none" stroke-opacity="0" stroke-width="0" stroke-linecap="butt" stroke-linejoin="miter" opacity="1" transform="translate(0,0) scale(1,1) rotate(0)" stroke-dashoffset="0" stroke-dasharray=""></polygon><polygon id="_unnamed_" points="-59.45165582725406,-99.06673384677028 -59.45165582725406,-60.26517476010632 -54.67178202422263,-55.41989457299184 -54.67178202422263,-91.10183397515075" fill="rgb(255,248,50)" fill-opacity="1" stroke="none" stroke-opacity="0" stroke-width="0" stroke-linecap="butt" stroke-linejoin="miter" opacity="1" transform="translate(0,0) scale(1,1) rotate(0)" stroke-dashoffset="0" stroke-dasharray=""></polygon><polygon id="_unnamed_" points="-107.7375674676187,-60.26517476010632 -99.07553830837826,-55.41989457299184 -54.67178202422263,-55.41989457299184 -59.45165582725406,-60.26517476010632" fill="rgb(204,197,0)" fill-opacity="1" stroke="none" stroke-opacity="0" stroke-width="0" stroke-linecap="butt" stroke-linejoin="miter" opacity="1" transform="translate(0,0) scale(1,1) rotate(0)" stroke-dashoffset="0" stroke-dasharray=""></polygon><polygon id="_unnamed_" points="86.94999400972617,80.54279346493891 86.94999400972617,37.868497072981604 123.96226285951401,37.868497072981604 123.96226285951401,80.54279346493891" fill="rgb(255,38,0)" fill-opacity="1" stroke="none" stroke-opacity="0" stroke-width="0" stroke-linecap="butt" stroke-linejoin="miter" opacity="1" transform="translate(0,0) scale(1,1) rotate(0)" stroke-dashoffset="0" stroke-dasharray=""></polygon><polygon id="_unnamed_" points="86.94999400972617,37.868497072981604 86.94999400972617,80.54279346493891 82.00897252315947,75.96586763957484 82.00897252315947,35.71658136749392" fill="rgb(204,31,0)" fill-opacity="1" stroke="none" stroke-opacity="0" stroke-width="0" stroke-linecap="butt" stroke-linejoin="miter" opacity="1" transform="translate(0,0) scale(1,1) rotate(0)" stroke-dashoffset="0" stroke-dasharray=""></polygon><polygon id="_unnamed_" points="86.94999400972617,37.868497072981604 82.00897252315947,35.71658136749392 116.91798170356854,35.71658136749392 123.96226285951401,37.868497072981604" fill="rgb(255,82,50)" fill-opacity="1" stroke="none" stroke-opacity="0" stroke-width="0" stroke-linecap="butt" stroke-linejoin="miter" opacity="1" transform="translate(0,0) scale(1,1) rotate(0)" stroke-dashoffset="0" stroke-dasharray=""></polygon><polygon id="_unnamed_" points="-8.96765943927528,28.012240143215056 -8.96765943927528,-9.083430748905426 40.66544349346167,-9.083430748905426 40.66544349346167,28.012240143215056" fill="rgb(255,154,0)" fill-opacity="1" stroke="none" stroke-opacity="0" stroke-width="0" stroke-linecap="butt" stroke-linejoin="miter" opacity="1" transform="translate(0,0) scale(1,1) rotate(0)" stroke-dashoffset="0" stroke-dasharray=""></polygon><polygon id="_unnamed_" points="-8.96765943927528,-9.083430748905426 -8.96765943927528,28.012240143215056 -8.266412969542605,25.821759489623126 -8.266412969542605,-8.373131279031053" fill="rgb(204,123,0)" fill-opacity="1" stroke="none" stroke-opacity="0" stroke-width="0" stroke-linecap="butt" stroke-linejoin="miter" opacity="1" transform="translate(0,0) scale(1,1) rotate(0)" stroke-dashoffset="0" stroke-dasharray=""></polygon><polygon id="_unnamed_" points="-8.96765943927528,-9.083430748905426 -8.266412969542605,-8.373131279031053 37.48551690470082,-8.373131279031053 40.66544349346167,-9.083430748905426" fill="rgb(255,174,50)" fill-opacity="1" stroke="none" stroke-opacity="0" stroke-width="0" stroke-linecap="butt" stroke-linejoin="miter" opacity="1" transform="translate(0,0) scale(1,1) rotate(0)" stroke-dashoffset="0" stroke-dasharray=""></polygon><polygon id="_unnamed_" points="19.934677156525265,-5.554430517648657 19.934677156525265,-45.53232475749355 51.130502742035205,-45.53232475749355 51.130502742035205,-5.554430517648657" fill="rgb(255,19,0)" fill-opacity="1" stroke="none" stroke-opacity="0" stroke-width="0" stroke-linecap="butt" stroke-linejoin="miter" opacity="1" transform="translate(0,0) scale(1,1) rotate(0)" stroke-dashoffset="0" stroke-dasharray=""></polygon><polygon id="_unnamed_" points="19.934677156525265,-45.53232475749355 19.934677156525265,-5.554430517648657 18.675132318972977,-5.203481554236063 18.675132318972977,-42.65542817473235" fill="rgb(204,15,0)" fill-opacity="1" stroke="none" stroke-opacity="0" stroke-width="0" stroke-linecap="butt" stroke-linejoin="miter" opacity="1" transform="translate(0,0) scale(1,1) rotate(0)" stroke-dashoffset="0" stroke-dasharray=""></polygon><polygon id="_unnamed_" points="19.934677156525265,-5.554430517648657 18.675132318972977,-5.203481554236063 47.89989307303924,-5.203481554236063 51.130502742035205,-5.554430517648657" fill="rgb(204,15,0)" fill-opacity="1" stroke="none" stroke-opacity="0" stroke-width="0" stroke-linecap="butt" stroke-linejoin="miter" opacity="1" transform="translate(0,0) scale(1,1) rotate(0)" stroke-dashoffset="0" stroke-dasharray=""></polygon><polygon id="_unnamed_" points="-146.25778650452892,-8.281667559668845 -146.25778650452892,-49.107964997640096 -104.23292159900546,-49.107964997640096 -104.23292159900546,-8.281667559668845" fill="rgb(173,0,81)" fill-opacity="1" stroke="none" stroke-opacity="0" stroke-width="0" stroke-linecap="butt" stroke-linejoin="miter" opacity="1" transform="translate(0,0) scale(1,1) rotate(0)" stroke-dashoffset="0" stroke-dasharray=""></polygon><polygon id="_unnamed_" points="-104.23292159900546,-49.107964997640096 -104.23292159900546,-8.281667559668845 -98.89792573970797,-7.85778361339622 -98.89792573970797,-46.59445212760043" fill="rgb(224,0,105)" fill-opacity="1" stroke="none" stroke-opacity="0" stroke-width="0" stroke-linecap="butt" stroke-linejoin="miter" opacity="1" transform="translate(0,0) scale(1,1) rotate(0)" stroke-dashoffset="0" stroke-dasharray=""></polygon><polygon id="_unnamed_" points="-146.25778650452892,-8.281667559668845 -138.77181495713708,-7.85778361339622 -98.89792573970797,-7.85778361339622 -104.23292159900546,-8.281667559668845" fill="rgb(122,0,57)" fill-opacity="1" stroke="none" stroke-opacity="0" stroke-width="0" stroke-linecap="butt" stroke-linejoin="miter" opacity="1" transform="translate(0,0) scale(1,1) rotate(0)" stroke-dashoffset="0" stroke-dasharray=""></polygon><polygon id="_unnamed_" points="19.349901030508708,172.52623819835782 19.349901030508708,140.2458882239177 58.482953388021905,140.2458882239177 58.482953388021905,172.52623819835782" fill="rgb(255,223,0)" fill-opacity="1" stroke="none" stroke-opacity="0" stroke-width="0" stroke-linecap="butt" stroke-linejoin="miter" opacity="1" transform="translate(0,0) scale(1,1) rotate(0)" stroke-dashoffset="0" stroke-dasharray=""></polygon><polygon id="_unnamed_" points="19.349901030508708,140.2458882239177 19.349901030508708,172.52623819835782 17.542915133823186,156.4149165569136 17.542915133823186,127.149059372484" fill="rgb(204,178,0)" fill-opacity="1" stroke="none" stroke-opacity="0" stroke-width="0" stroke-linecap="butt" stroke-linejoin="miter" opacity="1" transform="translate(0,0) scale(1,1) rotate(0)" stroke-dashoffset="0" stroke-dasharray=""></polygon><polygon id="_unnamed_" points="19.349901030508708,140.2458882239177 17.542915133823186,127.149059372484 53.02153672226991,127.149059372484 58.482953388021905,140.2458882239177" fill="rgb(255,229,50)" fill-opacity="1" stroke="none" stroke-opacity="0" stroke-width="0" stroke-linecap="butt" stroke-linejoin="miter" opacity="1" transform="translate(0,0) scale(1,1) rotate(0)" stroke-dashoffset="0" stroke-dasharray=""></polygon><polygon id="_unnamed_" points="-168.4585338069604,-89.7839210486446 -168.4585338069604,-121.53072064021525 -133.75567688280023,-121.53072064021525 -133.75567688280023,-89.7839210486446" fill="rgb(226,245,5)" fill-opacity="1" stroke="none" stroke-opacity="0" stroke-width="0" stroke-linecap="butt" stroke-linejoin="miter" opacity="1" transform="translate(0,0) scale(1,1) rotate(0)" stroke-dashoffset="0" stroke-dasharray=""></polygon><polygon id="_unnamed_" points="-133.75567688280023,-121.53072064021525 -133.75567688280023,-89.7839210486446 -120.62338711903199,-80.96883001986369 -120.62338711903199,-109.59869146701381" fill="rgb(234,250,51)" fill-opacity="1" stroke="none" stroke-opacity="0" stroke-width="0" stroke-linecap="butt" stroke-linejoin="miter" opacity="1" transform="translate(0,0) scale(1,1) rotate(0)" stroke-dashoffset="0" stroke-dasharray=""></polygon><polygon id="_unnamed_" points="-168.4585338069604,-89.7839210486446 -151.91907671108717,-80.96883001986369 -120.62338711903199,-80.96883001986369 -133.75567688280023,-89.7839210486446" fill="rgb(180,195,4)" fill-opacity="1" stroke="none" stroke-opacity="0" stroke-width="0" stroke-linecap="butt" stroke-linejoin="miter" opacity="1" transform="translate(0,0) scale(1,1) rotate(0)" stroke-dashoffset="0" stroke-dasharray=""></polygon><polygon id="_unnamed_" points="-40.14903245425585,214.39975467376894 -40.14903245425585,159.10086782913476 1.6207951008117178,159.10086782913476 1.6207951008117178,214.39975467376894" fill="rgb(219,242,7)" fill-opacity="1" stroke="none" stroke-opacity="0" stroke-width="0" stroke-linecap="butt" stroke-linejoin="miter" opacity="1" transform="translate(0,0) scale(1,1) rotate(0)" stroke-dashoffset="0" stroke-dasharray=""></polygon><polygon id="_unnamed_" points="1.6207951008117178,159.10086782913476 1.6207951008117178,214.39975467376894 1.4661727144638361,193.94621203691366 1.4661727144638361,143.92278897053046" fill="rgb(229,249,51)" fill-opacity="1" stroke="none" stroke-opacity="0" stroke-width="0" stroke-linecap="butt" stroke-linejoin="miter" opacity="1" transform="translate(0,0) scale(1,1) rotate(0)" stroke-dashoffset="0" stroke-dasharray=""></polygon><polygon id="_unnamed_" points="-40.14903245425585,159.10086782913476 -36.3188510793698,143.92278897053046 1.4661727144638361,143.92278897053046 1.6207951008117178,159.10086782913476" fill="rgb(229,249,51)" fill-opacity="1" stroke="none" stroke-opacity="0" stroke-width="0" stroke-linecap="butt" stroke-linejoin="miter" opacity="1" transform="translate(0,0) scale(1,1) rotate(0)" stroke-dashoffset="0" stroke-dasharray=""></polygon><polygon id="_unnamed_" points="-159.17909463942533,-194.90391221965947 -159.17909463942533,-236.70358491848893 -121.04889335714876,-236.70358491848893 -121.04889335714876,-194.90391221965947" fill="rgb(255,248,0)" fill-opacity="1" stroke="none" stroke-opacity="0" stroke-width="0" stroke-linecap="butt" stroke-linejoin="miter" opacity="1" transform="translate(0,0) scale(1,1) rotate(0)" stroke-dashoffset="0" stroke-dasharray=""></polygon><polygon id="_unnamed_" points="-121.04889335714876,-236.70358491848893 -121.04889335714876,-194.90391221965947 -111.17387167442998,-179.00388780938104 -111.17387167442998,-217.39359398324916" fill="rgb(255,249,50)" fill-opacity="1" stroke="none" stroke-opacity="0" stroke-width="0" stroke-linecap="butt" stroke-linejoin="miter" opacity="1" transform="translate(0,0) scale(1,1) rotate(0)" stroke-dashoffset="0" stroke-dasharray=""></polygon><polygon id="_unnamed_" points="-159.17909463942533,-194.90391221965947 -146.19345745262294,-179.00388780938104 -111.17387167442998,-179.00388780938104 -121.04889335714876,-194.90391221965947" fill="rgb(204,198,0)" fill-opacity="1" stroke="none" stroke-opacity="0" stroke-width="0" stroke-linecap="butt" stroke-linejoin="miter" opacity="1" transform="translate(0,0) scale(1,1) rotate(0)" stroke-dashoffset="0" stroke-dasharray=""></polygon><polygon id="_unnamed_" points="88.30617325222015,-93.70721286018457 88.30617325222015,-147.53582740600243 136.99704047223153,-147.53582740600243 136.99704047223153,-93.70721286018457" fill="rgb(255,134,0)" fill-opacity="1" stroke="none" stroke-opacity="0" stroke-width="0" stroke-linecap="butt" stroke-linejoin="miter" opacity="1" transform="translate(0,0) scale(1,1) rotate(0)" stroke-dashoffset="0" stroke-dasharray=""></polygon><polygon id="_unnamed_" points="88.30617325222015,-147.53582740600243 88.30617325222015,-93.70721286018457 79.14702127162133,-83.98786286849894 79.14702127162133,-132.23335175760826" fill="rgb(204,107,0)" fill-opacity="1" stroke="none" stroke-opacity="0" stroke-width="0" stroke-linecap="butt" stroke-linejoin="miter" opacity="1" transform="translate(0,0) scale(1,1) rotate(0)" stroke-dashoffset="0" stroke-dasharray=""></polygon><polygon id="_unnamed_" points="88.30617325222015,-93.70721286018457 79.14702127162133,-83.98786286849894 122.78765206409018,-83.98786286849894 136.99704047223153,-93.70721286018457" fill="rgb(204,107,0)" fill-opacity="1" stroke="none" stroke-opacity="0" stroke-width="0" stroke-linecap="butt" stroke-linejoin="miter" opacity="1" transform="translate(0,0) scale(1,1) rotate(0)" stroke-dashoffset="0" stroke-dasharray=""></polygon><polygon id="_unnamed_" points="-186.2015078241124,146.4182948805974 -186.2015078241124,91.29629311485886 -130.38415099081516,91.29629311485886 -130.38415099081516,146.4182948805974" fill="rgb(255,109,0)" fill-opacity="1" stroke="none" stroke-opacity="0" stroke-width="0" stroke-linecap="butt" stroke-linejoin="miter" opacity="1" transform="translate(0,0) scale(1,1) rotate(0)" stroke-dashoffset="0" stroke-dasharray=""></polygon><polygon id="_unnamed_" points="-130.38415099081516,91.29629311485886 -130.38415099081516,146.4182948805974 -121.17721839710467,136.0791289527796 -121.17721839710467,84.8495063668027" fill="rgb(255,138,50)" fill-opacity="1" stroke="none" stroke-opacity="0" stroke-width="0" stroke-linecap="butt" stroke-linejoin="miter" opacity="1" transform="translate(0,0) scale(1,1) rotate(0)" stroke-dashoffset="0" stroke-dasharray=""></polygon><polygon id="_unnamed_" points="-186.2015078241124,91.29629311485886 -173.05309432173337,84.8495063668027 -121.17721839710467,84.8495063668027 -130.38415099081516,91.29629311485886" fill="rgb(255,138,50)" fill-opacity="1" stroke="none" stroke-opacity="0" stroke-width="0" stroke-linecap="butt" stroke-linejoin="miter" opacity="1" transform="translate(0,0) scale(1,1) rotate(0)" stroke-dashoffset="0" stroke-dasharray=""></polygon><polygon id="_unnamed_" points="-19.484905453822506,183.91011206316486 -19.484905453822506,140.14359199813705 34.25052693760377,140.14359199813705 34.25052693760377,183.91011206316486" fill="rgb(85,197,33)" fill-opacity="1" stroke="none" stroke-opacity="0" stroke-width="0" stroke-linecap="butt" stroke-linejoin="miter" opacity="1" transform="translate(0,0) scale(1,1) rotate(0)" stroke-dashoffset="0" stroke-dasharray=""></polygon><polygon id="_unnamed_" points="-19.484905453822506,140.14359199813705 -19.484905453822506,183.91011206316486 -17.79354405565899,167.94603848771206 -17.79354405565899,127.97861320122294" fill="rgb(66,153,26)" fill-opacity="1" stroke="none" stroke-opacity="0" stroke-width="0" stroke-linecap="butt" stroke-linejoin="miter" opacity="1" transform="translate(0,0) scale(1,1) rotate(0)" stroke-dashoffset="0" stroke-dasharray=""></polygon><polygon id="_unnamed_" points="-19.484905453822506,140.14359199813705 -17.79354405565899,127.97861320122294 31.277455332698544,127.97861320122294 34.25052693760377,140.14359199813705" fill="rgb(111,221,60)" fill-opacity="1" stroke="none" stroke-opacity="0" stroke-width="0" stroke-linecap="butt" stroke-linejoin="miter" opacity="1" transform="translate(0,0) scale(1,1) rotate(0)" stroke-dashoffset="0" stroke-dasharray=""></polygon><polygon id="_unnamed_" points="-20.294289880330393,176.44354317093382 -20.294289880330393,118.10654194404471 14.786064105367482,118.10654194404471 14.786064105367482,176.44354317093382" fill="rgb(49,86,150)" fill-opacity="1" stroke="none" stroke-opacity="0" stroke-width="0" stroke-linecap="butt" stroke-linejoin="miter" opacity="1" transform="translate(0,0) scale(1,1) rotate(0)" stroke-dashoffset="0" stroke-dasharray=""></polygon><polygon id="_unnamed_" points="14.786064105367482,118.10654194404471 14.786064105367482,176.44354317093382 13.60815043286888,162.38738458511423 13.60815043286888,108.69772905266018" fill="rgb(61,108,189)" fill-opacity="1" stroke="none" stroke-opacity="0" stroke-width="0" stroke-linecap="butt" stroke-linejoin="miter" opacity="1" transform="translate(0,0) scale(1,1) rotate(0)" stroke-dashoffset="0" stroke-dasharray=""></polygon><polygon id="_unnamed_" points="-20.294289880330393,118.10654194404471 -18.677570153340067,108.69772905266018 13.60815043286888,108.69772905266018 14.786064105367482,118.10654194404471" fill="rgb(61,108,189)" fill-opacity="1" stroke="none" stroke-opacity="0" stroke-width="0" stroke-linecap="butt" stroke-linejoin="miter" opacity="1" transform="translate(0,0) scale(1,1) rotate(0)" stroke-dashoffset="0" stroke-dasharray=""></polygon><polygon id="_unnamed_" points="-199.80469222131129,-153.05377714198968 -199.80469222131129,-208.6590482850246 -130.89270733898033,-208.6590482850246 -130.89270733898033,-153.05377714198968" fill="rgb(141,0,113)" fill-opacity="1" stroke="none" stroke-opacity="0" stroke-width="0" stroke-linecap="butt" stroke-linejoin="miter" opacity="1" transform="translate(0,0) scale(1,1) rotate(0)" stroke-dashoffset="0" stroke-dasharray=""></polygon><polygon id="_unnamed_" points="-130.89270733898033,-208.6590482850246 -130.89270733898033,-153.05377714198968 -120.08094687158709,-140.4115084416907 -120.08094687158709,-191.4237744850144" fill="rgb(192,0,153)" fill-opacity="1" stroke="none" stroke-opacity="0" stroke-width="0" stroke-linecap="butt" stroke-linejoin="miter" opacity="1" transform="translate(0,0) scale(1,1) rotate(0)" stroke-dashoffset="0" stroke-dasharray=""></polygon><polygon id="_unnamed_" points="-199.80469222131129,-153.05377714198968 -183.30078977727706,-140.4115084416907 -120.08094687158709,-140.4115084416907 -130.89270733898033,-153.05377714198968" fill="rgb(90,0,72)" fill-opacity="1" stroke="none" stroke-opacity="0" stroke-width="0" stroke-linecap="butt" stroke-linejoin="miter" opacity="1" transform="translate(0,0) scale(1,1) rotate(0)" stroke-dashoffset="0" stroke-dasharray=""></polygon><polygon id="_unnamed_" points="-130.60139001757616,237.22974776750252 -130.60139001757616,181.88795617206245 -55.60449746576775,181.88795617206245 -55.60449746576775,237.22974776750252" fill="rgb(255,94,0)" fill-opacity="1" stroke="none" stroke-opacity="0" stroke-width="0" stroke-linecap="butt" stroke-linejoin="miter" opacity="1" transform="translate(0,0) scale(1,1) rotate(0)" stroke-dashoffset="0" stroke-dasharray=""></polygon><polygon id="_unnamed_" points="-55.60449746576775,181.88795617206245 -55.60449746576775,237.22974776750252 -48.944738680625996,208.81670621876398 -48.944738680625996,160.10320908799585" fill="rgb(255,126,50)" fill-opacity="1" stroke="none" stroke-opacity="0" stroke-width="0" stroke-linecap="butt" stroke-linejoin="miter" opacity="1" transform="translate(0,0) scale(1,1) rotate(0)" stroke-dashoffset="0" stroke-dasharray=""></polygon><polygon id="_unnamed_" points="-130.60139001757616,181.88795617206245 -114.9592424546611,160.10320908799585 -48.944738680625996,160.10320908799585 -55.60449746576775,181.88795617206245" fill="rgb(255,126,50)" fill-opacity="1" stroke="none" stroke-opacity="0" stroke-width="0" stroke-linecap="butt" stroke-linejoin="miter" opacity="1" transform="translate(0,0) scale(1,1) rotate(0)" stroke-dashoffset="0" stroke-dasharray=""></polygon><polygon id="_unnamed_" points="-207.6933166189168,239.11830676521504 -207.6933166189168,173.92369068844692 -158.53723167275524,173.92369068844692 -158.53723167275524,239.11830676521504" fill="rgb(21,130,103)" fill-opacity="1" stroke="none" stroke-opacity="0" stroke-width="0" stroke-linecap="butt" stroke-linejoin="miter" opacity="1" transform="translate(0,0) scale(1,1) rotate(0)" stroke-dashoffset="0" stroke-dasharray=""></polygon><polygon id="_unnamed_" points="-158.53723167275524,173.92369068844692 -158.53723167275524,239.11830676521504 -138.09123036149305,208.28004144366554 -138.09123036149305,151.49335069603583" fill="rgb(28,174,137)" fill-opacity="1" stroke="none" stroke-opacity="0" stroke-width="0" stroke-linecap="butt" stroke-linejoin="miter" opacity="1" transform="translate(0,0) scale(1,1) rotate(0)" stroke-dashoffset="0" stroke-dasharray=""></polygon><polygon id="_unnamed_" points="-207.6933166189168,173.92369068844692 -180.90782415682958,151.49335069603583 -138.09123036149305,151.49335069603583 -158.53723167275524,173.92369068844692" fill="rgb(28,174,137)" fill-opacity="1" stroke="none" stroke-opacity="0" stroke-width="0" stroke-linecap="butt" stroke-linejoin="miter" opacity="1" transform="translate(0,0) scale(1,1) rotate(0)" stroke-dashoffset="0" stroke-dasharray=""></polygon><polygon id="_unnamed_" points="-181.36840950547597,200.88536579042048 -181.36840950547597,138.8021868083071 -131.35105990929318,138.8021868083071 -131.35105990929318,200.88536579042048" fill="rgb(23,126,109)" fill-opacity="1" stroke="none" stroke-opacity="0" stroke-width="0" stroke-linecap="butt" stroke-linejoin="miter" opacity="1" transform="translate(0,0) scale(1,1) rotate(0)" stroke-dashoffset="0" stroke-dasharray=""></polygon><polygon id="_unnamed_" points="-131.35105990929318,138.8021868083071 -131.35105990929318,200.88536579042048 -119.43498333011365,182.66118545987575 -119.43498333011365,126.21014919165174" fill="rgb(31,169,146)" fill-opacity="1" stroke="none" stroke-opacity="0" stroke-width="0" stroke-linecap="butt" stroke-linejoin="miter" opacity="1" transform="translate(0,0) scale(1,1) rotate(0)" stroke-dashoffset="0" stroke-dasharray=""></polygon><polygon id="_unnamed_" points="-181.36840950547597,138.8021868083071 -164.91479384220153,126.21014919165174 -119.43498333011365,126.21014919165174 -131.35105990929318,138.8021868083071" fill="rgb(31,169,146)" fill-opacity="1" stroke="none" stroke-opacity="0" stroke-width="0" stroke-linecap="butt" stroke-linejoin="miter" opacity="1" transform="translate(0,0) scale(1,1) rotate(0)" stroke-dashoffset="0" stroke-dasharray=""></polygon><polygon id="_unnamed_" points="93.95081289354184,205.73065248289944 93.95081289354184,146.1763159072756 173.03094396612246,146.1763159072756 173.03094396612246,205.73065248289944" fill="rgb(95,200,31)" fill-opacity="1" stroke="none" stroke-opacity="0" stroke-width="0" stroke-linecap="butt" stroke-linejoin="miter" opacity="1" transform="translate(0,0) scale(1,1) rotate(0)" stroke-dashoffset="0" stroke-dasharray=""></polygon><polygon id="_unnamed_" points="93.95081289354184,146.1763159072756 93.95081289354184,205.73065248289944 83.91635665407088,183.75750327985125 83.91635665407088,130.563892767513" fill="rgb(74,156,24)" fill-opacity="1" stroke="none" stroke-opacity="0" stroke-width="0" stroke-linecap="butt" stroke-linejoin="miter" opacity="1" transform="translate(0,0) scale(1,1) rotate(0)" stroke-dashoffset="0" stroke-dasharray=""></polygon><polygon id="_unnamed_" points="93.95081289354184,146.1763159072756 83.91635665407088,130.563892767513 154.55030093784103,130.563892767513 173.03094396612246,146.1763159072756" fill="rgb(121,223,59)" fill-opacity="1" stroke="none" stroke-opacity="0" stroke-width="0" stroke-linecap="butt" stroke-linejoin="miter" opacity="1" transform="translate(0,0) scale(1,1) rotate(0)" stroke-dashoffset="0" stroke-dasharray=""></polygon><polygon id="_unnamed_" points="176.12131309446502,-103.0100812251626 176.12131309446502,-167.3014635723282 255.30143779285098,-167.3014635723282 255.30143779285098,-103.0100812251626" fill="rgb(255,10,0)" fill-opacity="1" stroke="none" stroke-opacity="0" stroke-width="0" stroke-linecap="butt" stroke-linejoin="miter" opacity="1" transform="translate(0,0) scale(1,1) rotate(0)" stroke-dashoffset="0" stroke-dasharray=""></polygon><polygon id="_unnamed_" points="176.12131309446502,-167.3014635723282 176.12131309446502,-103.0100812251626 151.82283808871557,-88.79835500070888 151.82283808871557,-144.21981400015457" fill="rgb(204,8,0)" fill-opacity="1" stroke="none" stroke-opacity="0" stroke-width="0" stroke-linecap="butt" stroke-linejoin="miter" opacity="1" transform="translate(0,0) scale(1,1) rotate(0)" stroke-dashoffset="0" stroke-dasharray=""></polygon><polygon id="_unnamed_" points="176.12131309446502,-103.0100812251626 151.82283808871557,-88.79835500070888 220.07892271987862,-88.79835500070888 255.30143779285098,-103.0100812251626" fill="rgb(204,8,0)" fill-opacity="1" stroke="none" stroke-opacity="0" stroke-width="0" stroke-linecap="butt" stroke-linejoin="miter" opacity="1" transform="translate(0,0) scale(1,1) rotate(0)" stroke-dashoffset="0" stroke-dasharray=""></polygon><polygon id="_unnamed_" points="-20.44095736407115,88.21493499191675 -20.44095736407115,28.06367690601061 44.81750013547253,28.06367690601061 44.81750013547253,88.21493499191675" fill="rgb(208,0,46)" fill-opacity="1" stroke="none" stroke-opacity="0" stroke-width="0" stroke-linecap="butt" stroke-linejoin="miter" opacity="1" transform="translate(0,0) scale(1,1) rotate(0)" stroke-dashoffset="0" stroke-dasharray=""></polygon><polygon id="_unnamed_" points="-20.44095736407115,28.06367690601061 -20.44095736407115,88.21493499191675 -18.67916750241295,80.61175988874037 -18.67916750241295,25.644890908209696" fill="rgb(157,0,35)" fill-opacity="1" stroke="none" stroke-opacity="0" stroke-width="0" stroke-linecap="butt" stroke-linejoin="miter" opacity="1" transform="translate(0,0) scale(1,1) rotate(0)" stroke-dashoffset="0" stroke-dasharray=""></polygon><polygon id="_unnamed_" points="-20.44095736407115,28.06367690601061 -18.67916750241295,25.644890908209696 40.95471543526441,25.644890908209696 44.81750013547253,28.06367690601061" fill="rgb(255,4,60)" fill-opacity="1" stroke="none" stroke-opacity="0" stroke-width="0" stroke-linecap="butt" stroke-linejoin="miter" opacity="1" transform="translate(0,0) scale(1,1) rotate(0)" stroke-dashoffset="0" stroke-dasharray=""></polygon><polygon id="_unnamed_" points="179.69588985129965,92.8958058361235 179.69588985129965,3.0121573150485514 269.30697861353127,3.0121573150485514 269.30697861353127,92.8958058361235" fill="rgb(90,199,32)" fill-opacity="1" stroke="none" stroke-opacity="0" stroke-width="0" stroke-linecap="butt" stroke-linejoin="miter" opacity="1" transform="translate(0,0) scale(1,1) rotate(0)" stroke-dashoffset="0" stroke-dasharray=""></polygon><polygon id="_unnamed_" points="179.69588985129965,3.0121573150485514 179.69588985129965,92.8958058361235 154.92326956668862,80.08932191534173 154.92326956668862,2.5969055835539727" fill="rgb(70,155,25)" fill-opacity="1" stroke="none" stroke-opacity="0" stroke-width="0" stroke-linecap="butt" stroke-linejoin="miter" opacity="1" transform="translate(0,0) scale(1,1) rotate(0)" stroke-dashoffset="0" stroke-dasharray=""></polygon><polygon id="_unnamed_" points="179.69588985129965,3.0121573150485514 154.92326956668862,2.5969055835539727 232.18070084107043,2.5969055835539727 269.30697861353127,3.0121573150485514" fill="rgb(116,222,60)" fill-opacity="1" stroke="none" stroke-opacity="0" stroke-width="0" stroke-linecap="butt" stroke-linejoin="miter" opacity="1" transform="translate(0,0) scale(1,1) rotate(0)" stroke-dashoffset="0" stroke-dasharray=""></polygon><polygon id="_unnamed_" points="-10.83380111000091,-76.2178854481469 -10.83380111000091,-136.62560733847886 44.70826672409076,-136.62560733847886 44.70826672409076,-76.2178854481469" fill="rgb(11,147,80)" fill-opacity="1" stroke="none" stroke-opacity="0" stroke-width="0" stroke-linecap="butt" stroke-linejoin="miter" opacity="1" transform="translate(0,0) scale(1,1) rotate(0)" stroke-dashoffset="0" stroke-dasharray=""></polygon><polygon id="_unnamed_" points="-10.83380111000091,-136.62560733847886 -10.83380111000091,-76.2178854481469 -9.082931681903462,-63.900180503184814 -9.082931681903462,-114.54530546147967" fill="rgb(8,100,54)" fill-opacity="1" stroke="none" stroke-opacity="0" stroke-width="0" stroke-linecap="butt" stroke-linejoin="miter" opacity="1" transform="translate(0,0) scale(1,1) rotate(0)" stroke-dashoffset="0" stroke-dasharray=""></polygon><polygon id="_unnamed_" points="-10.83380111000091,-76.2178854481469 -9.082931681903462,-63.900180503184814 37.48288602938919,-63.900180503184814 44.70826672409076,-76.2178854481469" fill="rgb(8,100,54)" fill-opacity="1" stroke="none" stroke-opacity="0" stroke-width="0" stroke-linecap="butt" stroke-linejoin="miter" opacity="1" transform="translate(0,0) scale(1,1) rotate(0)" stroke-dashoffset="0" stroke-dasharray=""></polygon><polygon id="_unnamed_" points="-95.24948035431409,225.1233297471135 -95.24948035431409,149.97433263547484 0.08592309040213822,149.97433263547484 0.08592309040213822,225.1233297471135" fill="rgb(255,212,0)" fill-opacity="1" stroke="none" stroke-opacity="0" stroke-width="0" stroke-linecap="butt" stroke-linejoin="miter" opacity="1" transform="translate(0,0) scale(1,1) rotate(0)" stroke-dashoffset="0" stroke-dasharray=""></polygon><polygon id="_unnamed_" points="0.08592309040213822,149.97433263547484 0.08592309040213822,225.1233297471135 0.0764323243575609,200.25698888569448 0.0764323243575609,133.40868890602758" fill="rgb(255,220,50)" fill-opacity="1" stroke="none" stroke-opacity="0" stroke-width="0" stroke-linecap="butt" stroke-linejoin="miter" opacity="1" transform="translate(0,0) scale(1,1) rotate(0)" stroke-dashoffset="0" stroke-dasharray=""></polygon><polygon id="_unnamed_" points="-95.24948035431409,149.97433263547484 -84.72855367814948,133.40868890602758 0.0764323243575609,133.40868890602758 0.08592309040213822,149.97433263547484" fill="rgb(255,220,50)" fill-opacity="1" stroke="none" stroke-opacity="0" stroke-width="0" stroke-linecap="butt" stroke-linejoin="miter" opacity="1" transform="translate(0,0) scale(1,1) rotate(0)" stroke-dashoffset="0" stroke-dasharray=""></polygon></g></svg>