<?xml version="1.0" standalone="no"?>
<svg xmlns:xlink="http://www.w3.org/1999/xlink" xmlns="http://www.w3.org/2000/svg" width="500" height="500"><circle cx="329.6694704783529" cy="225.56191664341685" r="2.9193934997184767" fill="rgba(19.46%,33.8%,59.06%,1)"></circle><circle cx="328.536036976826" cy="219.54008843582835" r="4.488477579483069" fill="rgba(100%,55.91%,0%,1)"></circle><circle cx="327.46170450467355" cy="216.42296611402946" r="3.15548304114406" fill="rgba(100%,36.87%,0%,1)"></circle><circle cx="326.17100527235993" cy="214.57618110778014" r="4.794343182815352" fill="rgba(6.68%,54.24%,36.39%,1)"></circle><circle cx="324.5113492801878" cy="212.57002106938734" r="2.8068469320301475" fill="rgba(14.78%,39.98%,56.27%,1)"></circle><circle cx="322.9594972858112" cy="203.26000178595137" r="2.6351908875554204" fill="rgba(85.56%,0%,14.44%,1)"></circle><circle cx="321.5769952808665" cy="200.39323064984467" r="2.3142154814935267" fill="rgba(30.13%,21.99%,55.9%,1)"></circle><circle cx="319.9644667183302" cy="194.91644583187036" r="2.070378346695839" fill="rgba(65.24%,0%,34.76%,1)"></circle><circle cx="317.77646584677717" cy="192.11964918310696" r="3.869248325983174" fill="rgba(97.05%,0%,2.95%,1)"></circle><circle cx="315.9535147754766" cy="199.17282068446866" r="2.7937652706180374" fill="rgba(18.27%,72.21%,16.35%,1)"></circle><circle cx="314.0419018178279" cy="194.17151863303297" r="4.545708780118988" fill="rgba(0.19%,66.06%,19.96%,1)"></circle><circle cx="311.2969393966842" cy="173.18724801873782" r="3.9955768614020646" fill="rgba(16.13%,37.6%,59.59%,1)"></circle><circle cx="308.9903259988251" cy="169.86666820991542" r="2.167311922116962" fill="rgba(94.23%,0%,5.77%,1)"></circle><circle cx="307.3999209170901" cy="193.94317110738274" r="4.821396308618567" fill="rgba(78.12%,0%,21.88%,1)"></circle><circle cx="304.7289906247611" cy="178.28607550250086" r="3.8176855422367235" fill="rgba(100%,76.06%,0%,1)"></circle><circle cx="302.3884821516792" cy="158.28721891592392" r="2.5854505517034787" fill="rgba(100%,83.45%,0%,1)"></circle><circle cx="300.199595018701" cy="191.3648791953094" r="4.344340639706683" fill="rgba(80.43%,0%,19.57%,1)"></circle><circle cx="297.727447659067" cy="153.81428291528601" r="2.6977686077181056" fill="rgba(16.67%,36.89%,59.89%,1)"></circle><circle cx="294.4887183722793" cy="157.77476646932593" r="3.5968960572275117" fill="rgba(93.39%,97.75%,1.32%,1)"></circle><circle cx="291.8757623611061" cy="181.888861205144" r="3.8831715514492853" fill="rgba(1.79%,62.84%,24.4%,1)"></circle><circle cx="288.71531392774114" cy="166.60294601450454" r="4.27344018986364" fill="rgba(100%,47.25%,0%,1)"></circle><circle cx="285.4822477618771" cy="152.8499481524554" r="4.196208822201376" fill="rgba(100%,80.56%,0%,1)"></circle><circle cx="282.18256510499884" cy="169.01598341324194" r="4.3340488114238065" fill="rgba(100%,27.82%,0%,1)"></circle><circle cx="279.6028525555449" cy="175.89931310537924" r="3.4674440303716234" fill="rgba(100%,88.16%,0%,1)"></circle><circle cx="275.93673965042177" cy="148.44034424787333" r="3.392589326841839" fill="rgba(87.98%,0%,12.02%,1)"></circle><circle cx="272.4816605378662" cy="135.194441612278" r="2.3427599190767294" fill="rgba(100%,96.08%,0%,1)"></circle><circle cx="268.71388963026993" cy="177.61628359427857" r="3.5220882136785536" fill="rgba(38.99%,12.18%,53.27%,1)"></circle><circle cx="265.7244488628897" cy="130.70210880610563" r="2.5332232731381836" fill="rgba(85.88%,0%,14.12%,1)"></circle><circle cx="262.1645791667889" cy="191.97994302912593" r="3.399685726030647" fill="rgba(69.03%,0%,30.97%,1)"></circle><circle cx="258.8581036369182" cy="195.47673133045117" r="4.986355042020134" fill="rgba(40.86%,10.11%,52.71%,1)"></circle><circle cx="255.2602037554396" cy="155.86275029190796" r="2.049310451786782" fill="rgba(8.36%,51.27%,40.53%,1)"></circle><circle cx="253.04080788487533" cy="127.23015633821518" r="4.903637163967195" fill="rgba(9.13%,49.93%,42.4%,1)"></circle><circle cx="249.4303997306719" cy="168.53875941009727" r="4.758411576353198" fill="rgba(81.02%,0%,18.98%,1)"></circle><circle cx="246.3759660793897" cy="179.95206750981146" r="2.677374502591623" fill="rgba(49.48%,0.58%,50.15%,1)"></circle><circle cx="243.32640424858113" cy="168.5085844120398" r="2.1146297749440475" fill="rgba(22.21%,73.55%,15.56%,1)"></circle><circle cx="240.0100042432578" cy="161.12786602431345" r="4.33455881947869" fill="rgba(100%,26.46%,0%,1)"></circle><circle cx="236.9839403302017" cy="187.3506370544054" r="4.241114179693088" fill="rgba(96.73%,98.89%,0.65%,1)"></circle><circle cx="234.24795744903844" cy="147.87480721613395" r="3.1331184607324105" fill="rgba(100%,75.41%,0%,1)"></circle><circle cx="230.9881920609906" cy="217.70802935509403" r="2.7239970299273044" fill="rgba(0.03%,66.01%,19.99%,1)"></circle><circle cx="228.0266467413743" cy="146.11401540513555" r="4.976201968373465" fill="rgba(100%,14.53%,0%,1)"></circle><circle cx="225.09471623320408" cy="193.9398230119188" r="3.3568383247129874" fill="rgba(100%,73.63%,0%,1)"></circle><circle cx="222.1961894553377" cy="195.14726725794077" r="3.281043362965568" fill="rgba(100%,63.06%,0%,1)"></circle><circle cx="219.33503958299255" cy="222.31602315745954" r="3.334204039613366" fill="rgba(76.45%,91.99%,4.71%,1)"></circle><circle cx="216.5151128849485" cy="172.27786844400464" r="4.198055764491066" fill="rgba(52.92%,0%,47.08%,1)"></circle><circle cx="212.99176845018147" cy="213.465580287453" r="3.857249187831457" fill="rgba(5.11%,57%,32.54%,1)"></circle><circle cx="209.79199742522403" cy="166.94608594501642" r="3.198898360336049" fill="rgba(63.19%,0%,36.81%,1)"></circle><circle cx="206.43077416936993" cy="206.32958567906093" r="4.92727063699413" fill="rgba(100%,8.38%,0%,1)"></circle><circle cx="204.55218739571416" cy="232.4352672650956" r="2.327303217577143" fill="rgba(11.07%,46.51%,47.16%,1)"></circle><circle cx="201.79531179274392" cy="180.20329368276902" r="2.8666591208600956" fill="rgba(100%,27.71%,0%,1)"></circle><circle cx="198.89580924777056" cy="237.84243132436217" r="4.067061687279982" fill="rgba(40.9%,10.07%,52.7%,1)"></circle><circle cx="196.51719883345808" cy="160.12725707479626" r="3.0938551359534734" fill="rgba(15.51%,38.69%,58.06%,1)"></circle><circle cx="194.00440531583672" cy="194.84275056163466" r="2.187957126381662" fill="rgba(9.91%,48.56%,44.31%,1)"></circle><circle cx="190.98982996946327" cy="169.43289098396173" r="3.018633125231698" fill="rgba(12.4%,44.17%,50.43%,1)"></circle><circle cx="188.87246794441117" cy="199.65223137351762" r="3.1492596369553127" fill="rgba(67.22%,88.85%,6.56%,1)"></circle><circle cx="186.83728019495763" cy="228.0306739998398" r="2.5195668809717735" fill="rgba(100%,23.41%,0%,1)"></circle><circle cx="184.8870026417818" cy="280.75625659287374" r="3.6556636445855477" fill="rgba(72.9%,90.79%,5.42%,1)"></circle><circle cx="182.53179730905623" cy="283.76019007015327" r="4.823583591786922" fill="rgba(100%,23.32%,0%,1)"></circle><circle cx="180.93912246614062" cy="185.50010252224683" r="2.7353831846668197" fill="rgba(7.72%,52.4%,38.95%,1)"></circle><circle cx="179.27592266080418" cy="263.2561609268888" r="3.707314434586966" fill="rgba(40.21%,10.84%,52.91%,1)"></circle><circle cx="177.29684467241444" cy="266.19797440456796" r="2.4690176298518187" fill="rgba(32.44%,77.03%,13.51%,1)"></circle><circle cx="175.60081650068753" cy="336.4549398327077" r="4.745361750217445" fill="rgba(100%,24.62%,0%,1)"></circle><circle cx="174.50825655478883" cy="204.18745748726838" r="4.410964591658998" fill="rgba(13.51%,42.22%,53.14%,1)"></circle><circle cx="173.15738722019842" cy="341.6835956681788" r="4.306173183406935" fill="rgba(98.22%,0%,1.78%,1)"></circle><circle cx="171.83274017655827" cy="305.64861401196026" r="2.130397571555594" fill="rgba(100%,70.59%,0%,1)"></circle><circle cx="170.82640764714083" cy="226.05693044823317" r="2.2470944627547373" fill="rgba(76.8%,92.11%,4.64%,1)"></circle><circle cx="170.0039031089657" cy="260.99112090022203" r="4.84451194398673" fill="rgba(39.86%,11.23%,53.01%,1)"></circle><circle cx="169.13427278315504" cy="230.9486185930749" r="4.774284512920749" fill="rgba(100%,19.25%,0%,1)"></circle><circle cx="168.4507231895567" cy="369.1234990746288" r="2.5173059831398197" fill="rgba(22.89%,73.78%,15.42%,1)"></circle><circle cx="167.92442058663806" cy="358.8576943237105" r="2.629169145177903" fill="rgba(100%,58.27%,0%,1)"></circle><circle cx="167.23925829023395" cy="246.55712847006353" r="2.28443654949807" fill="rgba(6.6%,68.24%,18.68%,1)"></circle><circle cx="166.91547704117403" cy="290.5094542586548" r="4.0042106948954945" fill="rgba(100%,7.83%,0%,1)"></circle><circle cx="166.73543201763442" cy="325.8954103875532" r="3.6027046656421535" fill="rgba(51.18%,0%,48.82%,1)"></circle><circle cx="166.66668307626117" cy="357.3558789977865" r="2.7359790106022723" fill="rgba(100%,80.4%,0%,1)"></circle><circle cx="166.75496571181975" cy="347.4188729701922" r="3.156699005617045" fill="rgba(85.84%,95.18%,2.83%,1)"></circle><circle cx="167.0245079428264" cy="336.27988597984984" r="4.585135095599215" fill="rgba(100%,47.67%,0%,1)"></circle><circle cx="167.3630802697719" cy="341.4701075067478" r="4.1424288953151" fill="rgba(39.29%,11.85%,53.18%,1)"></circle><circle cx="167.8591056775801" cy="395.56821293506437" r="2.229991965442432" fill="rgba(64.42%,87.9%,7.12%,1)"></circle><circle cx="168.48653874324077" cy="403.485012986815" r="3.5456673141468276" fill="rgba(45.12%,5.4%,51.45%,1)"></circle><circle cx="169.38326787092257" cy="413.3655314896534" r="4.556464791185256" fill="rgba(40.32%,79.71%,11.94%,1)"></circle><circle cx="170.13140420151217" cy="389.8537629692361" r="3.317653761617649" fill="rgba(85.49%,0%,14.51%,1)"></circle><circle cx="171.0568028577884" cy="370.76308368403295" r="4.8832502188116775" fill="rgba(43.65%,7.02%,51.88%,1)"></circle><circle cx="172.18730811179745" cy="412.1467221204043" r="3.31607731752108" fill="rgba(100%,7.58%,0%,1)"></circle><circle cx="173.33298419396525" cy="329.73077848532415" r="2.4021102639244063" fill="rgba(31.14%,76.59%,13.77%,1)"></circle><circle cx="174.70032167798837" cy="490.93576944932926" r="2.8901988887687833" fill="rgba(53.39%,84.15%,9.32%,1)"></circle><circle cx="176.44765517149378" cy="489.8627172958588" r="3.0773077090632963" fill="rgba(64.6%,87.96%,7.08%,1)"></circle><circle cx="178.07297604729928" cy="348.21977219852215" r="4.109451342972413" fill="rgba(55.68%,84.93%,8.86%,1)"></circle><circle cx="179.51544613803824" cy="393.8590169077134" r="2.609379465426947" fill="rgba(100%,90.4%,0%,1)"></circle><circle cx="181.34960657198508" cy="379.17881644234484" r="3.072871690763087" fill="rgba(29.92%,22.22%,55.96%,1)"></circle><circle cx="183.46044083871539" cy="367.4082042090091" r="4.670844270467651" fill="rgba(100%,99.15%,0%,1)"></circle><circle cx="184.82177885692033" cy="476.37612786529917" r="3.241648841281058" fill="rgba(41.91%,8.96%,52.4%,1)"></circle><circle cx="187.1323442735816" cy="442.0723436959585" r="2.169833222612541" fill="rgba(46.67%,81.87%,10.67%,1)"></circle><circle cx="189.56099589605918" cy="492.13645056213335" r="2.320684973868432" fill="rgba(100%,14.42%,0%,1)"></circle><circle cx="191.50659290958612" cy="477.3575377936712" r="3.2679391315077972" fill="rgba(45.61%,4.86%,51.3%,1)"></circle><circle cx="194.33917597510853" cy="462.3000035716322" r="2.781834783754747" fill="rgba(77.14%,0%,22.86%,1)"></circle><circle cx="197.0780444066081" cy="470.29385273301546" r="3.090537100450525" fill="rgba(100%,50.13%,0%,1)"></circle><circle cx="199.69455375552087" cy="466.62339226270456" r="4.627107081843135" fill="rgba(10.77%,47.04%,46.42%,1)"></circle><circle cx="201.4838669854616" cy="449.6212050570954" r="3.0440443801580033" fill="rgba(11.11%,46.43%,47.28%,1)"></circle><circle cx="204.46448740099498" cy="493.3743210416028" r="3.493467899616775" fill="rgba(27%,25.45%,56.82%,1)"></circle><circle cx="207.53066728517956" cy="455.60677015807687" r="3.81260650110297" fill="rgba(80.58%,93.4%,3.88%,1)"></circle><circle cx="210.18754599202765" cy="489.45073436844547" r="2.698155567308685" fill="rgba(100%,9.22%,0%,1)"></circle><circle cx="213.39632449875785" cy="448.5581979004139" r="4.552301988342968" fill="rgba(95.06%,0%,4.94%,1)"></circle><circle cx="216.6737551152954" cy="452.40352188126786" r="3.1511228538433578" fill="rgba(58.46%,85.87%,8.31%,1)"></circle><circle cx="219.2377356331387" cy="464.1657186424393" r="4.860483625177148" fill="rgba(100%,50.05%,0%,1)"></circle><circle cx="221.8359670335614" cy="456.34969267676325" r="4.587377433431837" fill="rgba(15.32%,39.02%,57.6%,1)"></circle><circle cx="225.25994414829609" cy="474.7288719639741" r="2.877643318438107" fill="rgba(38.22%,13.04%,53.5%,1)"></circle><circle cx="229.2680313175365" cy="460.9233180622658" r="3.0631649474282727" fill="rgba(43.06%,7.68%,52.06%,1)"></circle><circle cx="231.96952793111444" cy="493.188565945761" r="3.50666407481752" fill="rgba(100%,41.86%,0%,1)"></circle><circle cx="234.96409392961607" cy="480.4139223209052" r="2.9011752347999087" fill="rgba(100%,63.74%,0%,1)"></circle><circle cx="238.80417403788417" cy="450.3077353937251" r="2.1948171439225423" fill="rgba(100%,7.58%,0%,1)"></circle><circle cx="242.6685530294685" cy="451.78274863217484" r="4.781065854704132" fill="rgba(6.78%,54.06%,36.64%,1)"></circle><circle cx="245.43915720258823" cy="453.7876421017279" r="2.268937669540856" fill="rgba(100%,39.98%,0%,1)"></circle><circle cx="248.49253195212935" cy="452.7420458328645" r="4.474307661299321" fill="rgba(65.1%,88.13%,6.98%,1)"></circle><circle cx="252.3809711020874" cy="461.33771755436004" r="3.1817434851377238" fill="rgba(100%,98.56%,0%,1)"></circle><circle cx="256.2643053308586" cy="457.23152726861014" r="3.092747930995416" fill="rgba(100%,13.73%,0%,1)"></circle><circle cx="259.3063391481551" cy="456.7101282460203" r="3.3288310377117063" fill="rgba(30.91%,21.13%,55.67%,1)"></circle><circle cx="262.61049087956025" cy="447.17137003068774" r="4.543293269120891" fill="rgba(0.1%,65.82%,20.24%,1)"></circle><circle cx="266.43942840340605" cy="448.1661436637181" r="3.949642426710893" fill="rgba(100%,30.54%,0%,1)"></circle><circle cx="270.23264889675926" cy="453.10150225272884" r="3.6330386701832946" fill="rgba(100%,25.95%,0%,1)"></circle><circle cx="272.91553212997803" cy="447.51480647094183" r="2.935278605437658" fill="rgba(0.41%,65.28%,21.01%,1)"></circle><circle cx="276.36488315062155" cy="448.4812711167784" r="4.139022860086609" fill="rgba(47.75%,2.5%,50.67%,1)"></circle><circle cx="279.5050579462076" cy="458.27362040344167" r="4.640810653332473" fill="rgba(12.95%,43.2%,51.78%,1)"></circle><circle cx="282.5980310331746" cy="461.47480739102207" r="3.130916170128573" fill="rgba(53.3%,0%,46.7%,1)"></circle><circle cx="285.38758149226675" cy="450.33856331098605" r="4.765602034979584" fill="rgba(11.35%,46.02%,47.85%,1)"></circle><circle cx="288.868572431304" cy="453.63174091066963" r="4.313417286328466" fill="rgba(57.34%,0%,42.66%,1)"></circle><circle cx="292.0253163596028" cy="442.32127865153575" r="3.395691741770144" fill="rgba(94.83%,0%,5.17%,1)"></circle><circle cx="294.63504490007114" cy="460.61043957085616" r="2.809772166823852" fill="rgba(13.9%,41.52%,54.11%,1)"></circle><circle cx="297.1847701595688" cy="447.59430810126764" r="4.960530720868517" fill="rgba(17.08%,36.44%,59.77%,1)"></circle><circle cx="299.44770086891504" cy="456.4029431341938" r="3.7419328077957945" fill="rgba(100%,82.78%,0%,1)"></circle><circle cx="302.73838607416155" cy="453.7932409931625" r="2.35077222132717" fill="rgba(33.53%,18.23%,54.89%,1)"></circle><circle cx="304.8594574746536" cy="441.67918735197173" r="2.783133011611727" fill="rgba(79.32%,0%,20.68%,1)"></circle><circle cx="307.52533289297503" cy="454.28685996870536" r="4.6085211011775185" fill="rgba(40.37%,79.72%,11.93%,1)"></circle><circle cx="311.03726924434187" cy="443.69911871584276" r="3.0155317749544137" fill="rgba(0.24%,65.58%,20.58%,1)"></circle><circle cx="312.8941620220413" cy="463.7869168237726" r="2.7920643803198493" fill="rgba(100%,59.74%,0%,1)"></circle><circle cx="315.54791337875747" cy="448.87266303542395" r="2.7333962112621415" fill="rgba(75.36%,0%,24.64%,1)"></circle><circle cx="317.39023244732385" cy="441.9865947215322" r="3.3129917178503896" fill="rgba(71.04%,0%,28.96%,1)"></circle><circle cx="319.45051073601684" cy="442.51881755997186" r="3.4859670237881057" fill="rgba(16.07%,37.7%,59.44%,1)"></circle><circle cx="321.3803984881399" cy="440.9296121256017" r="2.293763447524971" fill="rgba(63.25%,0%,36.75%,1)"></circle><circle cx="323.440467918053" cy="441.98158309312583" r="3.875873811526569" fill="rgba(91.63%,0%,8.37%,1)"></circle><circle cx="324.7121781931079" cy="457.46051258740107" r="3.388609974046115" fill="rgba(5.87%,68%,18.83%,1)"></circle><circle cx="326.1285226259389" cy="436.2797125488531" r="3.0546870481629935" fill="rgba(78.9%,0%,21.1%,1)"></circle><circle cx="327.4230778947175" cy="428.4383213471045" r="4.058848020316247" fill="rgba(61.36%,86.86%,7.73%,1)"></circle><circle cx="328.8668761568748" cy="447.2248075268235" r="4.2937782611176525" fill="rgba(32.96%,18.86%,55.06%,1)"></circle><circle cx="329.80053955932954" cy="434.37815760512234" r="3.3356510122753034" fill="rgba(100%,82.5%,0%,1)"></circle><circle cx="330.6269520679389" cy="436.80465131986216" r="2.5240572735026534" fill="rgba(12.41%,44.14%,50.46%,1)"></circle><circle cx="331.46379522457363" cy="430.04323063663145" r="3.958418589431136" fill="rgba(2.38%,61.81%,25.84%,1)"></circle><circle cx="332.2836584569457" cy="435.87161835524967" r="2.2037449579039916" fill="rgba(69.93%,0%,30.07%,1)"></circle><circle cx="332.67737251557867" cy="453.2651544135063" r="4.0407967508414995" fill="rgba(50.52%,0%,49.48%,1)"></circle><circle cx="333.0518148492212" cy="446.66091046211363" r="3.846819369369669" fill="rgba(86.58%,0%,13.42%,1)"></circle><circle cx="333.24688346522737" cy="422.5500546600201" r="4.553192509199049" fill="rgba(86.84%,0%,13.16%,1)"></circle><circle cx="333.3332816973263" cy="423.1025825525942" r="3.0623467172639294" fill="rgba(100%,54.28%,0%,1)"></circle><circle cx="333.27387110044447" cy="430.4859429319035" r="2.544181710097275" fill="rgba(100%,71.07%,0%,1)"></circle><circle cx="333.1419855746976" cy="435.976860539463" r="3.4115711300361653" fill="rgba(100%,1.03%,0%,1)"></circle><circle cx="332.78818373796054" cy="429.65030043566514" r="2.072579902113179" fill="rgba(12.56%,43.88%,50.83%,1)"></circle><circle cx="332.38368040276225" cy="417.8350254613429" r="3.8119826500525957" fill="rgba(37.18%,14.19%,53.8%,1)"></circle><circle cx="331.76290716834507" cy="453.0705741889029" r="3.008527297957941" fill="rgba(48.5%,1.66%,50.44%,1)"></circle><circle cx="330.92273431498023" cy="421.96916560413894" r="3.753981287023608" fill="rgba(15.67%,38.4%,58.46%,1)"></circle><circle cx="329.98477111391423" cy="443.3019037942289" r="4.139864725431274" fill="rgba(33.71%,77.46%,13.26%,1)"></circle><circle cx="329.0737286442384" cy="434.74476909708255" r="4.958934282075796" fill="rgba(58.36%,0%,41.64%,1)"></circle><circle cx="327.9586837959926" cy="416.0823406099235" r="3.4027155368661677" fill="rgba(2.79%,61.08%,26.86%,1)"></circle><circle cx="326.7189219218197" cy="440.56520519789666" r="2.31467825021674" fill="rgba(86.84%,0%,13.16%,1)"></circle><circle cx="325.2374204877867" cy="418.74839018283876" r="2.3350644624171593" fill="rgba(9.87%,48.62%,44.22%,1)"></circle><circle cx="323.87337684600743" cy="416.5533646987253" r="3.8426987572835722" fill="rgba(100%,54.78%,0%,1)"></circle><circle cx="322.41002457807895" cy="425.97328263520905" r="3.7298313918318957" fill="rgba(6.03%,55.38%,34.8%,1)"></circle><circle cx="320.84933088124455" cy="432.9475740577807" r="4.020936247235059" fill="rgba(100%,67.53%,0%,1)"></circle><circle cx="319.0382193460479" cy="409.0656118658622" r="4.84509849357478" fill="rgba(100%,78.85%,0%,1)"></circle><circle cx="316.7859012224236" cy="418.59713372353553" r="3.1561482386330844" fill="rgba(2.19%,62.15%,25.37%,1)"></circle><circle cx="315.0877317134166" cy="440.6517353442749" r="4.586568482798116" fill="rgba(51.01%,0%,48.99%,1)"></circle><circle cx="312.4055249095383" cy="438.0940440294055" r="3.4581578577959258" fill="rgba(55.43%,0%,44.57%,1)"></circle><circle cx="310.5303364371826" cy="404.89672025534173" r="4.308942653410183" fill="rgba(78.6%,0%,21.4%,1)"></circle><circle cx="307.99235406433786" cy="426.7880138940706" r="3.403776992182025" fill="rgba(56.84%,85.33%,8.63%,1)"></circle><circle cx="305.3454339683903" cy="418.191516127397" r="4.370657050120757" fill="rgba(100%,99.59%,0%,1)"></circle><circle cx="302.1625369514176" cy="431.8387140702155" r="3.502569573854402" fill="rgba(100%,34.05%,0%,1)"></circle><circle cx="300.18971868038227" cy="421.6287303766866" r="3.031398286571876" fill="rgba(100%,11.27%,0%,1)"></circle><circle cx="297.94481820644233" cy="408.1954187336375" r="4.343923636961014" fill="rgba(92.48%,0%,7.52%,1)"></circle><circle cx="294.9471022378279" cy="417.8992024233408" r="4.1373642079859465" fill="rgba(35.96%,15.54%,54.17%,1)"></circle><circle cx="292.3445239367935" cy="423.5049825149669" r="4.976116871248014" fill="rgba(55.42%,0%,44.58%,1)"></circle><circle cx="289.4404949651632" cy="408.13047693840826" r="4.9692060921393155" fill="rgba(100%,53.35%,0%,1)"></circle><circle cx="286.22335562795524" cy="421.99936206177483" r="2.5083259153551674" fill="rgba(95.42%,0%,4.58%,1)"></circle><circle cx="282.4271976851713" cy="436.0380590048255" r="2.104252141485726" fill="rgba(33.68%,18.06%,54.84%,1)"></circle><circle cx="279.5913608968845" cy="426.9331455260898" r="4.958151795471477" fill="rgba(100%,93.86%,0%,1)"></circle><circle cx="276.4524258224898" cy="401.849438243334" r="2.9137926928755764" fill="rgba(75.5%,0%,24.5%,1)"></circle><circle cx="272.73716766080634" cy="431.5440119006071" r="4.911045749377392" fill="rgba(100%,94.49%,0%,1)"></circle><circle cx="269.5129794746391" cy="410.3710060775593" r="2.7291332652887097" fill="rgba(100%,96.81%,0%,1)"></circle><circle cx="266.52990450993155" cy="410.4828944358133" r="3.443755501080574" fill="rgba(28.95%,23.3%,56.25%,1)"></circle><circle cx="263.7986861914241" cy="451.99834349352454" r="4.586295251119094" fill="rgba(4.88%,57.41%,31.98%,1)"></circle><circle cx="260.77669421003446" cy="410.36688540314447" r="4.8778893861929244" fill="rgba(100%,43.78%,0%,1)"></circle><circle cx="258.01672843503707" cy="438.89290819532954" r="2.1797681216246025" fill="rgba(5.29%,56.69%,32.97%,1)"></circle><circle cx="254.415988263673" cy="445.51585402794416" r="2.932849589741875" fill="rgba(95.69%,0%,4.31%,1)"></circle><circle cx="251.08469687719457" cy="415.0232718323113" r="2.0299156138320518" fill="rgba(100%,15.07%,0%,1)"></circle><circle cx="248.0293387190473" cy="446.0947403134013" r="3.7234863752507428" fill="rgba(99.66%,0%,0.34%,1)"></circle><circle cx="244.97662973808363" cy="396.20693859060134" r="2.2236333355354785" fill="rgba(100%,34.76%,0%,1)"></circle><circle cx="241.65426666093995" cy="425.7480360534236" r="4.70858616804697" fill="rgba(81.45%,0%,18.55%,1)"></circle><circle cx="238.8956441272265" cy="440.2880040561968" r="3.5020274297258993" fill="rgba(49.43%,0.63%,50.17%,1)"></circle><circle cx="236.14927988041842" cy="443.27581713182144" r="2.618404534633707" fill="rgba(6.22%,55.04%,35.27%,1)"></circle><circle cx="232.60253649927355" cy="417.3044612962608" r="4.928101740464948" fill="rgba(7.59%,52.64%,38.63%,1)"></circle><circle cx="230.43572627201675" cy="403.5601740838035" r="2.944491857274138" fill="rgba(37.28%,14.08%,53.77%,1)"></circle><circle cx="226.94503007192122" cy="410.2833409076104" r="3.8673879610947557" fill="rgba(80.89%,93.5%,3.82%,1)"></circle><circle cx="223.76110215661032" cy="459.0754220369676" r="2.0405993797078326" fill="rgba(100%,65.79%,0%,1)"></circle><circle cx="221.6614921123422" cy="467.38469562863673" r="3.198075113695295" fill="rgba(100%,48.22%,0%,1)"></circle><circle cx="218.29320575006307" cy="463.63466325102087" r="3.4950428838664163" fill="rgba(100%,73.5%,0%,1)"></circle><circle cx="214.98452235339914" cy="480.4421475381344" r="3.25065282426504" fill="rgba(6.88%,53.89%,36.88%,1)"></circle><circle cx="212.23593643539596" cy="460.59268299620675" r="4.969969966777121" fill="rgba(8.9%,50.34%,41.83%,1)"></circle><circle cx="203.1541825727387" cy="499.05946539299384" r="3.7224878930182728" fill="rgba(2.39%,61.8%,25.86%,1)"></circle><circle cx="200.65916970665023" cy="462.1833232225064" r="4.452511665890846" fill="rgba(29.35%,22.86%,56.13%,1)"></circle><circle cx="198.23048614996526" cy="463.0716958717765" r="4.194872893369267" fill="rgba(30.32%,21.78%,55.84%,1)"></circle><circle cx="195.4502306396023" cy="458.95407835508604" r="3.251892358561321" fill="rgba(32.75%,77.14%,13.45%,1)"></circle><circle cx="193.1774690322406" cy="490.9932433884809" r="2.172083416741616" fill="rgba(100%,65.71%,0%,1)"></circle><circle cx="191.77074418442226" cy="464.2674966038897" r="4.628049065264212" fill="rgba(46.37%,4.01%,51.08%,1)"></circle><circle cx="185.22740079470043" cy="489.5533296235005" r="3.6232904515413065" fill="rgba(100%,31.82%,0%,1)"></circle><circle cx="177.56387375231077" cy="502.145129251177" r="3.288454834052708" fill="rgba(91.47%,97.1%,1.71%,1)"></circle></svg>