<?xml version="1.0" standalone="no"?>
<svg xmlns:xlink="http://www.w3.org/1999/xlink" xmlns="http://www.w3.org/2000/svg" width="500" height="500"><g><rect x="90" y="240" width="10" height="10" fill="rgba(20.39%,39.61%,64.31%,1)"></rect><rect x="90" y="250" width="10" height="10" fill="rgba(20.39%,39.61%,64.31%,1)"></rect><rect x="90" y="260" width="10" height="10" fill="rgba(20.39%,39.61%,64.31%,1)"></rect><rect x="90" y="270" width="10" height="10" fill="rgba(20.39%,39.61%,64.31%,1)"></rect><rect x="90" y="280" width="10" height="10" fill="rgba(20.39%,39.61%,64.31%,1)"></rect><rect x="100" y="230" width="10" height="10" fill="rgba(20.39%,39.61%,64.31%,1)"></rect><rect x="100" y="240" width="10" height="10" fill="rgba(20.39%,39.61%,64.31%,1)"></rect><rect x="100" y="250" width="10" height="10" fill="rgba(20.39%,39.61%,64.31%,1)"></rect><rect x="100" y="260" width="10" height="10" fill="rgba(20.39%,39.61%,64.31%,1)"></rect><rect x="100" y="270" width="10" height="10" fill="rgba(20.39%,39.61%,64.31%,1)"></rect><rect x="100" y="280" width="10" height="10" fill="rgba(20.39%,39.61%,64.31%,1)"></rect><rect x="100" y="290" width="10" height="10" fill="rgba(20.39%,39.61%,64.31%,1)"></rect><rect x="110" y="220" width="10" height="10" fill="rgba(20.39%,39.61%,64.31%,1)"></rect><rect x="110" y="230" width="10" height="10" fill="rgba(20.39%,39.61%,64.31%,1)"></rect><rect x="110" y="240" width="10" height="10" fill="rgba(20.39%,39.61%,64.31%,1)"></rect><rect x="110" y="250" width="10" height="10" fill="rgba(20.39%,39.61%,64.31%,1)"></rect><rect x="110" y="260" width="10" height="10" fill="rgba(20.39%,39.61%,64.31%,1)"></rect><rect x="110" y="270" width="10" height="10" fill="rgba(20.39%,39.61%,64.31%,1)"></rect><rect x="110" y="280" width="10" height="10" fill="rgba(20.39%,39.61%,64.31%,1)"></rect><rect x="110" y="290" width="10" height="10" fill="rgba(20.39%,39.61%,64.31%,1)"></rect><rect x="120" y="220" width="10" height="10" fill="rgba(20.39%,39.61%,64.31%,1)"></rect><rect x="120" y="230" width="10" height="10" fill="rgba(20.39%,39.61%,64.31%,1)"></rect><rect x="120" y="240" width="10" height="10" fill="rgba(20.39%,39.61%,64.31%,1)"></rect><rect x="120" y="250" width="10" height="10" fill="rgba(20.39%,39.61%,64.31%,1)"></rect><rect x="120" y="260" width="10" height="10" fill="rgba(20.39%,39.61%,64.31%,1)"></rect><rect x="120" y="270" width="10" height="10" fill="rgba(20.39%,39.61%,64.31%,1)"></rect><rect x="120" y="280" width="10" height="10" fill="rgba(20.39%,39.61%,64.31%,1)"></rect><rect x="120" y="290" width="10" height="10" fill="rgba(20.39%,39.61%,64.31%,1)"></rect><rect x="120" y="300" width="10" height="10" fill="rgba(20.39%,39.61%,64.31%,1)"></rect><rect x="130" y="220" width="10" height="10" fill="rgba(20.39%,39.61%,64.31%,1)"></rect><rect x="130" y="230" width="10" height="10" fill="rgba(20.39%,39.61%,64.31%,1)"></rect><rect x="130" y="240" width="10" height="10" fill="rgba(20.39%,39.61%,64.31%,1)"></rect><rect x="130" y="260" width="10" height="10" fill="rgba(20.39%,39.61%,64.31%,1)"></rect><rect x="130" y="270" width="10" height="10" fill="rgba(20.39%,39.61%,64.31%,1)"></rect><rect x="130" y="280" width="10" height="10" fill="rgba(20.39%,39.61%,64.31%,1)"></rect><rect x="130" y="290" width="10" height="10" fill="rgba(20.39%,39.61%,64.31%,1)"></rect><rect x="130" y="300" width="10" height="10" fill="rgba(20.39%,39.61%,64.31%,1)"></rect><rect x="140" y="220" width="10" height="10" fill="rgba(20.39%,39.61%,64.31%,1)"></rect><rect x="140" y="230" width="10" height="10" fill="rgba(20.39%,39.61%,64.31%,1)"></rect><rect x="140" y="240" width="10" height="10" fill="rgba(20.39%,39.61%,64.31%,1)"></rect><rect x="140" y="260" width="10" height="10" fill="rgba(20.39%,39.61%,64.31%,1)"></rect><rect x="140" y="270" width="10" height="10" fill="rgba(20.39%,39.61%,64.31%,1)"></rect><rect x="140" y="280" width="10" height="10" fill="rgba(20.39%,39.61%,64.31%,1)"></rect><rect x="140" y="290" width="10" height="10" fill="rgba(20.39%,39.61%,64.31%,1)"></rect><rect x="140" y="300" width="10" height="10" fill="rgba(20.39%,39.61%,64.31%,1)"></rect><rect x="150" y="220" width="10" height="10" fill="rgba(20.39%,39.61%,64.31%,1)"></rect><rect x="150" y="230" width="10" height="10" fill="rgba(20.39%,39.61%,64.31%,1)"></rect><rect x="150" y="240" width="10" height="10" fill="rgba(20.39%,39.61%,64.31%,1)"></rect><rect x="150" y="260" width="10" height="10" fill="rgba(20.39%,39.61%,64.31%,1)"></rect><rect x="150" y="270" width="10" height="10" fill="rgba(20.39%,39.61%,64.31%,1)"></rect><rect x="150" y="280" width="10" height="10" fill="rgba(20.39%,39.61%,64.31%,1)"></rect><rect x="150" y="290" width="10" height="10" fill="rgba(20.39%,39.61%,64.31%,1)"></rect><rect x="150" y="300" width="10" height="10" fill="rgba(20.39%,39.61%,64.31%,1)"></rect><rect x="160" y="210" width="10" height="10" fill="rgba(20.39%,39.61%,64.31%,1)"></rect><rect x="160" y="220" width="10" height="10" fill="rgba(20.39%,39.61%,64.31%,1)"></rect><rect x="160" y="230" width="10" height="10" fill="rgba(20.39%,39.61%,64.31%,1)"></rect><rect x="160" y="260" width="10" height="10" fill="rgba(20.39%,39.61%,64.31%,1)"></rect><rect x="160" y="270" width="10" height="10" fill="rgba(20.39%,39.61%,64.31%,1)"></rect><rect x="160" y="280" width="10" height="10" fill="rgba(20.39%,39.61%,64.31%,1)"></rect><rect x="160" y="290" width="10" height="10" fill="rgba(20.39%,39.61%,64.31%,1)"></rect><rect x="160" y="300" width="10" height="10" fill="rgba(20.39%,39.61%,64.31%,1)"></rect><rect x="170" y="210" width="10" height="10" fill="rgba(20.39%,39.61%,64.31%,1)"></rect><rect x="170" y="220" width="10" height="10" fill="rgba(20.39%,39.61%,64.31%,1)"></rect><rect x="170" y="230" width="10" height="10" fill="rgba(20.39%,39.61%,64.31%,1)"></rect><rect x="170" y="250" width="10" height="10" fill="rgba(20.39%,39.61%,64.31%,1)"></rect><rect x="170" y="260" width="10" height="10" fill="rgba(20.39%,39.61%,64.31%,1)"></rect><rect x="170" y="270" width="10" height="10" fill="rgba(20.39%,39.61%,64.31%,1)"></rect><rect x="170" y="280" width="10" height="10" fill="rgba(20.39%,39.61%,64.31%,1)"></rect><rect x="170" y="290" width="10" height="10" fill="rgba(20.39%,39.61%,64.31%,1)"></rect><rect x="170" y="300" width="10" height="10" fill="rgba(20.39%,39.61%,64.31%,1)"></rect><rect x="180" y="210" width="10" height="10" fill="rgba(20.39%,39.61%,64.31%,1)"></rect><rect x="180" y="220" width="10" height="10" fill="rgba(20.39%,39.61%,64.31%,1)"></rect><rect x="180" y="230" width="10" height="10" fill="rgba(20.39%,39.61%,64.31%,1)"></rect><rect x="180" y="250" width="10" height="10" fill="rgba(20.39%,39.61%,64.31%,1)"></rect><rect x="180" y="260" width="10" height="10" fill="rgba(20.39%,39.61%,64.31%,1)"></rect><rect x="180" y="270" width="10" height="10" fill="rgba(20.39%,39.61%,64.31%,1)"></rect><rect x="180" y="280" width="10" height="10" fill="rgba(20.39%,39.61%,64.31%,1)"></rect><rect x="180" y="290" width="10" height="10" fill="rgba(20.39%,39.61%,64.31%,1)"></rect><rect x="180" y="300" width="10" height="10" fill="rgba(20.39%,39.61%,64.31%,1)"></rect><rect x="190" y="210" width="10" height="10" fill="rgba(20.39%,39.61%,64.31%,1)"></rect><rect x="190" y="220" width="10" height="10" fill="rgba(20.39%,39.61%,64.31%,1)"></rect><rect x="190" y="230" width="10" height="10" fill="rgba(20.39%,39.61%,64.31%,1)"></rect><rect x="190" y="240" width="10" height="10" fill="rgba(20.39%,39.61%,64.31%,1)"></rect><rect x="190" y="250" width="10" height="10" fill="rgba(20.39%,39.61%,64.31%,1)"></rect><rect x="190" y="260" width="10" height="10" fill="rgba(20.39%,39.61%,64.31%,1)"></rect><rect x="190" y="270" width="10" height="10" fill="rgba(20.39%,39.61%,64.31%,1)"></rect><rect x="190" y="280" width="10" height="10" fill="rgba(20.39%,39.61%,64.31%,1)"></rect><rect x="190" y="290" width="10" height="10" fill="rgba(20.39%,39.61%,64.31%,1)"></rect><rect x="190" y="300" width="10" height="10" fill="rgba(20.39%,39.61%,64.31%,1)"></rect><rect x="200" y="220" width="10" height="10" fill="rgba(20.39%,39.61%,64.31%,1)"></rect><rect x="200" y="230" width="10" height="10" fill="rgba(20.39%,39.61%,64.31%,1)"></rect><rect x="200" y="240" width="10" height="10" fill="rgba(20.39%,39.61%,64.31%,1)"></rect><rect x="200" y="250" width="10" height="10" fill="rgba(20.39%,39.61%,64.31%,1)"></rect><rect x="200" y="260" width="10" height="10" fill="rgba(20.39%,39.61%,64.31%,1)"></rect><rect x="200" y="270" width="10" height="10" fill="rgba(20.39%,39.61%,64.31%,1)"></rect><rect x="200" y="280" width="10" height="10" fill="rgba(20.39%,39.61%,64.31%,1)"></rect><rect x="200" y="290" width="10" height="10" fill="rgba(20.39%,39.61%,64.31%,1)"></rect><rect x="210" y="210" width="10" height="10" fill="rgba(20.39%,39.61%,64.31%,1)"></rect><rect x="210" y="220" width="10" height="10" fill="rgba(20.39%,39.61%,64.31%,1)"></rect><rect x="210" y="230" width="10" height="10" fill="rgba(20.39%,39.61%,64.31%,1)"></rect><rect x="210" y="240" width="10" height="10" fill="rgba(20.39%,39.61%,64.31%,1)"></rect><rect x="210" y="250" width="10" height="10" fill="rgba(20.39%,39.61%,64.31%,1)"></rect><rect x="210" y="260" width="10" height="10" fill="rgba(20.39%,39.61%,64.31%,1)"></rect><rect x="210" y="270" width="10" height="10" fill="rgba(20.39%,39.61%,64.31%,1)"></rect><rect x="210" y="280" width="10" height="10" fill="rgba(20.39%,39.61%,64.31%,1)"></rect><rect x="210" y="290" width="10" height="10" fill="rgba(20.39%,39.61%,64.31%,1)"></rect><rect x="210" y="300" width="10" height="10" fill="rgba(20.39%,39.61%,64.31%,1)"></rect><rect x="220" y="210" width="10" height="10" fill="rgba(20.39%,39.61%,64.31%,1)"></rect><rect x="220" y="220" width="10" height="10" fill="rgba(20.39%,39.61%,64.31%,1)"></rect><rect x="220" y="230" width="10" height="10" fill="rgba(20.39%,39.61%,64.31%,1)"></rect><rect x="220" y="240" width="10" height="10" fill="rgba(20.39%,39.61%,64.31%,1)"></rect><rect x="220" y="250" width="10" height="10" fill="rgba(20.39%,39.61%,64.31%,1)"></rect><rect x="220" y="260" width="10" height="10" fill="rgba(20.39%,39.61%,64.31%,1)"></rect><rect x="220" y="270" width="10" height="10" fill="rgba(20.39%,39.61%,64.31%,1)"></rect><rect x="220" y="280" width="10" height="10" fill="rgba(20.39%,39.61%,64.31%,1)"></rect><rect x="220" y="290" width="10" height="10" fill="rgba(20.39%,39.61%,64.31%,1)"></rect><rect x="220" y="300" width="10" height="10" fill="rgba(20.39%,39.61%,64.31%,1)"></rect><rect x="220" y="310" width="10" height="10" fill="rgba(20.39%,39.61%,64.31%,1)"></rect><rect x="230" y="210" width="10" height="10" fill="rgba(20.39%,39.61%,64.31%,1)"></rect><rect x="230" y="220" width="10" height="10" fill="rgba(20.39%,39.61%,64.31%,1)"></rect><rect x="230" y="230" width="10" height="10" fill="rgba(20.39%,39.61%,64.31%,1)"></rect><rect x="230" y="240" width="10" height="10" fill="rgba(20.39%,39.61%,64.31%,1)"></rect><rect x="230" y="250" width="10" height="10" fill="rgba(20.39%,39.61%,64.31%,1)"></rect><rect x="230" y="260" width="10" height="10" fill="rgba(20.39%,39.61%,64.31%,1)"></rect><rect x="230" y="270" width="10" height="10" fill="rgba(20.39%,39.61%,64.31%,1)"></rect><rect x="230" y="280" width="10" height="10" fill="rgba(20.39%,39.61%,64.31%,1)"></rect><rect x="230" y="290" width="10" height="10" fill="rgba(20.39%,39.61%,64.31%,1)"></rect><rect x="230" y="300" width="10" height="10" fill="rgba(20.39%,39.61%,64.31%,1)"></rect><rect x="230" y="310" width="10" height="10" fill="rgba(20.39%,39.61%,64.31%,1)"></rect><rect x="240" y="210" width="10" height="10" fill="rgba(20.39%,39.61%,64.31%,1)"></rect><rect x="240" y="220" width="10" height="10" fill="rgba(20.39%,39.61%,64.31%,1)"></rect><rect x="240" y="230" width="10" height="10" fill="rgba(20.39%,39.61%,64.31%,1)"></rect><rect x="240" y="240" width="10" height="10" fill="rgba(20.39%,39.61%,64.31%,1)"></rect><rect x="240" y="250" width="10" height="10" fill="rgba(20.39%,39.61%,64.31%,1)"></rect><rect x="240" y="260" width="10" height="10" fill="rgba(20.39%,39.61%,64.31%,1)"></rect><rect x="240" y="270" width="10" height="10" fill="rgba(20.39%,39.61%,64.31%,1)"></rect><rect x="240" y="280" width="10" height="10" fill="rgba(20.39%,39.61%,64.31%,1)"></rect><rect x="240" y="290" width="10" height="10" fill="rgba(20.39%,39.61%,64.31%,1)"></rect><rect x="240" y="300" width="10" height="10" fill="rgba(20.39%,39.61%,64.31%,1)"></rect><rect x="240" y="310" width="10" height="10" fill="rgba(20.39%,39.61%,64.31%,1)"></rect><rect x="250" y="220" width="10" height="10" fill="rgba(20.39%,39.61%,64.31%,1)"></rect><rect x="250" y="230" width="10" height="10" fill="rgba(20.39%,39.61%,64.31%,1)"></rect><rect x="250" y="240" width="10" height="10" fill="rgba(20.39%,39.61%,64.31%,1)"></rect><rect x="250" y="250" width="10" height="10" fill="rgba(20.39%,39.61%,64.31%,1)"></rect><rect x="250" y="260" width="10" height="10" fill="rgba(20.39%,39.61%,64.31%,1)"></rect><rect x="250" y="270" width="10" height="10" fill="rgba(20.39%,39.61%,64.31%,1)"></rect><rect x="250" y="280" width="10" height="10" fill="rgba(20.39%,39.61%,64.31%,1)"></rect><rect x="250" y="290" width="10" height="10" fill="rgba(20.39%,39.61%,64.31%,1)"></rect><rect x="250" y="300" width="10" height="10" fill="rgba(20.39%,39.61%,64.31%,1)"></rect><rect x="250" y="310" width="10" height="10" fill="rgba(20.39%,39.61%,64.31%,1)"></rect><rect x="260" y="230" width="10" height="10" fill="rgba(20.39%,39.61%,64.31%,1)"></rect><rect x="260" y="240" width="10" height="10" fill="rgba(20.39%,39.61%,64.31%,1)"></rect><rect x="260" y="250" width="10" height="10" fill="rgba(20.39%,39.61%,64.31%,1)"></rect><rect x="260" y="260" width="10" height="10" fill="rgba(20.39%,39.61%,64.31%,1)"></rect><rect x="260" y="290" width="10" height="10" fill="rgba(20.39%,39.61%,64.31%,1)"></rect><rect x="260" y="300" width="10" height="10" fill="rgba(20.39%,39.61%,64.31%,1)"></rect></g><g><rect x="250" y="150" width="10" height="10" fill="rgba(80%,0%,0%,1)"></rect><rect x="250" y="160" width="10" height="10" fill="rgba(80%,0%,0%,1)"></rect><rect x="250" y="170" width="10" height="10" fill="rgba(80%,0%,0%,1)"></rect><rect x="260" y="140" width="10" height="10" fill="rgba(80%,0%,0%,1)"></rect><rect x="260" y="150" width="10" height="10" fill="rgba(80%,0%,0%,1)"></rect><rect x="260" y="160" width="10" height="10" fill="rgba(80%,0%,0%,1)"></rect><rect x="260" y="170" width="10" height="10" fill="rgba(80%,0%,0%,1)"></rect><rect x="260" y="180" width="10" height="10" fill="rgba(80%,0%,0%,1)"></rect><rect x="270" y="130" width="10" height="10" fill="rgba(80%,0%,0%,1)"></rect><rect x="270" y="140" width="10" height="10" fill="rgba(80%,0%,0%,1)"></rect><rect x="270" y="150" width="10" height="10" fill="rgba(80%,0%,0%,1)"></rect><rect x="270" y="160" width="10" height="10" fill="rgba(80%,0%,0%,1)"></rect><rect x="270" y="170" width="10" height="10" fill="rgba(80%,0%,0%,1)"></rect><rect x="270" y="180" width="10" height="10" fill="rgba(80%,0%,0%,1)"></rect><rect x="270" y="190" width="10" height="10" fill="rgba(80%,0%,0%,1)"></rect><rect x="280" y="120" width="10" height="10" fill="rgba(80%,0%,0%,1)"></rect><rect x="280" y="130" width="10" height="10" fill="rgba(80%,0%,0%,1)"></rect><rect x="280" y="140" width="10" height="10" fill="rgba(80%,0%,0%,1)"></rect><rect x="280" y="150" width="10" height="10" fill="rgba(80%,0%,0%,1)"></rect><rect x="280" y="160" width="10" height="10" fill="rgba(80%,0%,0%,1)"></rect><rect x="280" y="170" width="10" height="10" fill="rgba(80%,0%,0%,1)"></rect><rect x="280" y="180" width="10" height="10" fill="rgba(80%,0%,0%,1)"></rect><rect x="280" y="190" width="10" height="10" fill="rgba(80%,0%,0%,1)"></rect><rect x="280" y="200" width="10" height="10" fill="rgba(80%,0%,0%,1)"></rect><rect x="280" y="210" width="10" height="10" fill="rgba(80%,0%,0%,1)"></rect><rect x="290" y="120" width="10" height="10" fill="rgba(80%,0%,0%,1)"></rect><rect x="290" y="130" width="10" height="10" fill="rgba(80%,0%,0%,1)"></rect><rect x="290" y="140" width="10" height="10" fill="rgba(80%,0%,0%,1)"></rect><rect x="290" y="150" width="10" height="10" fill="rgba(80%,0%,0%,1)"></rect><rect x="290" y="160" width="10" height="10" fill="rgba(80%,0%,0%,1)"></rect><rect x="290" y="170" width="10" height="10" fill="rgba(80%,0%,0%,1)"></rect><rect x="290" y="180" width="10" height="10" fill="rgba(80%,0%,0%,1)"></rect><rect x="290" y="190" width="10" height="10" fill="rgba(80%,0%,0%,1)"></rect><rect x="290" y="200" width="10" height="10" fill="rgba(80%,0%,0%,1)"></rect><rect x="290" y="210" width="10" height="10" fill="rgba(80%,0%,0%,1)"></rect><rect x="290" y="220" width="10" height="10" fill="rgba(80%,0%,0%,1)"></rect><rect x="290" y="230" width="10" height="10" fill="rgba(80%,0%,0%,1)"></rect><rect x="290" y="240" width="10" height="10" fill="rgba(80%,0%,0%,1)"></rect><rect x="290" y="250" width="10" height="10" fill="rgba(80%,0%,0%,1)"></rect><rect x="300" y="130" width="10" height="10" fill="rgba(80%,0%,0%,1)"></rect><rect x="300" y="140" width="10" height="10" fill="rgba(80%,0%,0%,1)"></rect><rect x="300" y="150" width="10" height="10" fill="rgba(80%,0%,0%,1)"></rect><rect x="300" y="160" width="10" height="10" fill="rgba(80%,0%,0%,1)"></rect><rect x="300" y="170" width="10" height="10" fill="rgba(80%,0%,0%,1)"></rect><rect x="300" y="180" width="10" height="10" fill="rgba(80%,0%,0%,1)"></rect><rect x="300" y="190" width="10" height="10" fill="rgba(80%,0%,0%,1)"></rect><rect x="300" y="200" width="10" height="10" fill="rgba(80%,0%,0%,1)"></rect><rect x="300" y="210" width="10" height="10" fill="rgba(80%,0%,0%,1)"></rect><rect x="300" y="220" width="10" height="10" fill="rgba(80%,0%,0%,1)"></rect><rect x="300" y="230" width="10" height="10" fill="rgba(80%,0%,0%,1)"></rect><rect x="300" y="240" width="10" height="10" fill="rgba(80%,0%,0%,1)"></rect><rect x="300" y="250" width="10" height="10" fill="rgba(80%,0%,0%,1)"></rect><rect x="300" y="260" width="10" height="10" fill="rgba(80%,0%,0%,1)"></rect><rect x="310" y="140" width="10" height="10" fill="rgba(80%,0%,0%,1)"></rect><rect x="310" y="150" width="10" height="10" fill="rgba(80%,0%,0%,1)"></rect><rect x="310" y="160" width="10" height="10" fill="rgba(80%,0%,0%,1)"></rect><rect x="310" y="170" width="10" height="10" fill="rgba(80%,0%,0%,1)"></rect><rect x="310" y="180" width="10" height="10" fill="rgba(80%,0%,0%,1)"></rect><rect x="310" y="190" width="10" height="10" fill="rgba(80%,0%,0%,1)"></rect><rect x="310" y="200" width="10" height="10" fill="rgba(80%,0%,0%,1)"></rect><rect x="310" y="210" width="10" height="10" fill="rgba(80%,0%,0%,1)"></rect><rect x="310" y="220" width="10" height="10" fill="rgba(80%,0%,0%,1)"></rect><rect x="310" y="230" width="10" height="10" fill="rgba(80%,0%,0%,1)"></rect><rect x="310" y="240" width="10" height="10" fill="rgba(80%,0%,0%,1)"></rect><rect x="310" y="250" width="10" height="10" fill="rgba(80%,0%,0%,1)"></rect><rect x="310" y="260" width="10" height="10" fill="rgba(80%,0%,0%,1)"></rect><rect x="310" y="270" width="10" height="10" fill="rgba(80%,0%,0%,1)"></rect><rect x="320" y="160" width="10" height="10" fill="rgba(80%,0%,0%,1)"></rect><rect x="320" y="170" width="10" height="10" fill="rgba(80%,0%,0%,1)"></rect><rect x="320" y="180" width="10" height="10" fill="rgba(80%,0%,0%,1)"></rect><rect x="320" y="190" width="10" height="10" fill="rgba(80%,0%,0%,1)"></rect><rect x="320" y="200" width="10" height="10" fill="rgba(80%,0%,0%,1)"></rect><rect x="320" y="210" width="10" height="10" fill="rgba(80%,0%,0%,1)"></rect><rect x="320" y="220" width="10" height="10" fill="rgba(80%,0%,0%,1)"></rect><rect x="320" y="230" width="10" height="10" fill="rgba(80%,0%,0%,1)"></rect><rect x="320" y="240" width="10" height="10" fill="rgba(80%,0%,0%,1)"></rect><rect x="320" y="250" width="10" height="10" fill="rgba(80%,0%,0%,1)"></rect><rect x="320" y="260" width="10" height="10" fill="rgba(80%,0%,0%,1)"></rect><rect x="320" y="270" width="10" height="10" fill="rgba(80%,0%,0%,1)"></rect><rect x="320" y="280" width="10" height="10" fill="rgba(80%,0%,0%,1)"></rect><rect x="330" y="160" width="10" height="10" fill="rgba(80%,0%,0%,1)"></rect><rect x="330" y="170" width="10" height="10" fill="rgba(80%,0%,0%,1)"></rect><rect x="330" y="180" width="10" height="10" fill="rgba(80%,0%,0%,1)"></rect><rect x="330" y="190" width="10" height="10" fill="rgba(80%,0%,0%,1)"></rect><rect x="330" y="200" width="10" height="10" fill="rgba(80%,0%,0%,1)"></rect><rect x="330" y="210" width="10" height="10" fill="rgba(80%,0%,0%,1)"></rect><rect x="330" y="220" width="10" height="10" fill="rgba(80%,0%,0%,1)"></rect><rect x="330" y="230" width="10" height="10" fill="rgba(80%,0%,0%,1)"></rect><rect x="330" y="240" width="10" height="10" fill="rgba(80%,0%,0%,1)"></rect><rect x="330" y="250" width="10" height="10" fill="rgba(80%,0%,0%,1)"></rect><rect x="330" y="260" width="10" height="10" fill="rgba(80%,0%,0%,1)"></rect><rect x="330" y="270" width="10" height="10" fill="rgba(80%,0%,0%,1)"></rect><rect x="330" y="280" width="10" height="10" fill="rgba(80%,0%,0%,1)"></rect><rect x="330" y="290" width="10" height="10" fill="rgba(80%,0%,0%,1)"></rect><rect x="340" y="170" width="10" height="10" fill="rgba(80%,0%,0%,1)"></rect><rect x="340" y="180" width="10" height="10" fill="rgba(80%,0%,0%,1)"></rect><rect x="340" y="190" width="10" height="10" fill="rgba(80%,0%,0%,1)"></rect><rect x="340" y="200" width="10" height="10" fill="rgba(80%,0%,0%,1)"></rect><rect x="340" y="210" width="10" height="10" fill="rgba(80%,0%,0%,1)"></rect><rect x="340" y="220" width="10" height="10" fill="rgba(80%,0%,0%,1)"></rect><rect x="340" y="230" width="10" height="10" fill="rgba(80%,0%,0%,1)"></rect><rect x="340" y="240" width="10" height="10" fill="rgba(80%,0%,0%,1)"></rect><rect x="340" y="250" width="10" height="10" fill="rgba(80%,0%,0%,1)"></rect><rect x="340" y="260" width="10" height="10" fill="rgba(80%,0%,0%,1)"></rect><rect x="340" y="270" width="10" height="10" fill="rgba(80%,0%,0%,1)"></rect><rect x="340" y="280" width="10" height="10" fill="rgba(80%,0%,0%,1)"></rect><rect x="340" y="290" width="10" height="10" fill="rgba(80%,0%,0%,1)"></rect><rect x="350" y="170" width="10" height="10" fill="rgba(80%,0%,0%,1)"></rect><rect x="350" y="180" width="10" height="10" fill="rgba(80%,0%,0%,1)"></rect><rect x="350" y="190" width="10" height="10" fill="rgba(80%,0%,0%,1)"></rect><rect x="350" y="200" width="10" height="10" fill="rgba(80%,0%,0%,1)"></rect><rect x="350" y="210" width="10" height="10" fill="rgba(80%,0%,0%,1)"></rect><rect x="350" y="220" width="10" height="10" fill="rgba(80%,0%,0%,1)"></rect><rect x="350" y="230" width="10" height="10" fill="rgba(80%,0%,0%,1)"></rect><rect x="350" y="240" width="10" height="10" fill="rgba(80%,0%,0%,1)"></rect><rect x="350" y="250" width="10" height="10" fill="rgba(80%,0%,0%,1)"></rect><rect x="350" y="260" width="10" height="10" fill="rgba(80%,0%,0%,1)"></rect><rect x="350" y="270" width="10" height="10" fill="rgba(80%,0%,0%,1)"></rect><rect x="350" y="280" width="10" height="10" fill="rgba(80%,0%,0%,1)"></rect><rect x="350" y="290" width="10" height="10" fill="rgba(80%,0%,0%,1)"></rect><rect x="360" y="180" width="10" height="10" fill="rgba(80%,0%,0%,1)"></rect><rect x="360" y="190" width="10" height="10" fill="rgba(80%,0%,0%,1)"></rect><rect x="360" y="200" width="10" height="10" fill="rgba(80%,0%,0%,1)"></rect><rect x="360" y="210" width="10" height="10" fill="rgba(80%,0%,0%,1)"></rect><rect x="360" y="220" width="10" height="10" fill="rgba(80%,0%,0%,1)"></rect><rect x="360" y="230" width="10" height="10" fill="rgba(80%,0%,0%,1)"></rect><rect x="360" y="240" width="10" height="10" fill="rgba(80%,0%,0%,1)"></rect><rect x="360" y="250" width="10" height="10" fill="rgba(80%,0%,0%,1)"></rect><rect x="360" y="260" width="10" height="10" fill="rgba(80%,0%,0%,1)"></rect><rect x="360" y="270" width="10" height="10" fill="rgba(80%,0%,0%,1)"></rect><rect x="360" y="280" width="10" height="10" fill="rgba(80%,0%,0%,1)"></rect><rect x="370" y="190" width="10" height="10" fill="rgba(80%,0%,0%,1)"></rect><rect x="370" y="200" width="10" height="10" fill="rgba(80%,0%,0%,1)"></rect><rect x="370" y="210" width="10" height="10" fill="rgba(80%,0%,0%,1)"></rect><rect x="370" y="220" width="10" height="10" fill="rgba(80%,0%,0%,1)"></rect><rect x="370" y="230" width="10" height="10" fill="rgba(80%,0%,0%,1)"></rect><rect x="370" y="240" width="10" height="10" fill="rgba(80%,0%,0%,1)"></rect><rect x="370" y="250" width="10" height="10" fill="rgba(80%,0%,0%,1)"></rect><rect x="370" y="260" width="10" height="10" fill="rgba(80%,0%,0%,1)"></rect><rect x="370" y="270" width="10" height="10" fill="rgba(80%,0%,0%,1)"></rect><rect x="370" y="280" width="10" height="10" fill="rgba(80%,0%,0%,1)"></rect><rect x="380" y="260" width="10" height="10" fill="rgba(80%,0%,0%,1)"></rect><rect x="380" y="270" width="10" height="10" fill="rgba(80%,0%,0%,1)"></rect><rect x="380" y="280" width="10" height="10" fill="rgba(80%,0%,0%,1)"></rect><rect x="390" y="260" width="10" height="10" fill="rgba(80%,0%,0%,1)"></rect><rect x="390" y="270" width="10" height="10" fill="rgba(80%,0%,0%,1)"></rect><rect x="390" y="280" width="10" height="10" fill="rgba(80%,0%,0%,1)"></rect><rect x="400" y="250" width="10" height="10" fill="rgba(80%,0%,0%,1)"></rect><rect x="400" y="260" width="10" height="10" fill="rgba(80%,0%,0%,1)"></rect><rect x="400" y="270" width="10" height="10" fill="rgba(80%,0%,0%,1)"></rect><rect x="400" y="280" width="10" height="10" fill="rgba(80%,0%,0%,1)"></rect><rect x="410" y="240" width="10" height="10" fill="rgba(80%,0%,0%,1)"></rect><rect x="410" y="250" width="10" height="10" fill="rgba(80%,0%,0%,1)"></rect><rect x="410" y="260" width="10" height="10" fill="rgba(80%,0%,0%,1)"></rect><rect x="410" y="270" width="10" height="10" fill="rgba(80%,0%,0%,1)"></rect><rect x="410" y="280" width="10" height="10" fill="rgba(80%,0%,0%,1)"></rect><rect x="420" y="240" width="10" height="10" fill="rgba(80%,0%,0%,1)"></rect><rect x="420" y="250" width="10" height="10" fill="rgba(80%,0%,0%,1)"></rect><rect x="420" y="260" width="10" height="10" fill="rgba(80%,0%,0%,1)"></rect></g><g><rect x="270" y="400" width="10" height="10" fill="rgba(45.1%,82.35%,8.63%,1)"></rect><rect x="270" y="410" width="10" height="10" fill="rgba(45.1%,82.35%,8.63%,1)"></rect><rect x="270" y="420" width="10" height="10" fill="rgba(45.1%,82.35%,8.63%,1)"></rect><rect x="280" y="370" width="10" height="10" fill="rgba(45.1%,82.35%,8.63%,1)"></rect><rect x="280" y="380" width="10" height="10" fill="rgba(45.1%,82.35%,8.63%,1)"></rect><rect x="280" y="390" width="10" height="10" fill="rgba(45.1%,82.35%,8.63%,1)"></rect><rect x="280" y="400" width="10" height="10" fill="rgba(45.1%,82.35%,8.63%,1)"></rect><rect x="280" y="410" width="10" height="10" fill="rgba(45.1%,82.35%,8.63%,1)"></rect><rect x="280" y="420" width="10" height="10" fill="rgba(45.1%,82.35%,8.63%,1)"></rect><rect x="290" y="360" width="10" height="10" fill="rgba(45.1%,82.35%,8.63%,1)"></rect><rect x="290" y="370" width="10" height="10" fill="rgba(45.1%,82.35%,8.63%,1)"></rect><rect x="290" y="380" width="10" height="10" fill="rgba(45.1%,82.35%,8.63%,1)"></rect><rect x="290" y="390" width="10" height="10" fill="rgba(45.1%,82.35%,8.63%,1)"></rect><rect x="290" y="400" width="10" height="10" fill="rgba(45.1%,82.35%,8.63%,1)"></rect><rect x="290" y="410" width="10" height="10" fill="rgba(45.1%,82.35%,8.63%,1)"></rect><rect x="290" y="420" width="10" height="10" fill="rgba(45.1%,82.35%,8.63%,1)"></rect><rect x="300" y="350" width="10" height="10" fill="rgba(45.1%,82.35%,8.63%,1)"></rect><rect x="300" y="360" width="10" height="10" fill="rgba(45.1%,82.35%,8.63%,1)"></rect><rect x="300" y="370" width="10" height="10" fill="rgba(45.1%,82.35%,8.63%,1)"></rect><rect x="300" y="380" width="10" height="10" fill="rgba(45.1%,82.35%,8.63%,1)"></rect><rect x="300" y="390" width="10" height="10" fill="rgba(45.1%,82.35%,8.63%,1)"></rect><rect x="300" y="400" width="10" height="10" fill="rgba(45.1%,82.35%,8.63%,1)"></rect><rect x="300" y="410" width="10" height="10" fill="rgba(45.1%,82.35%,8.63%,1)"></rect><rect x="300" y="420" width="10" height="10" fill="rgba(45.1%,82.35%,8.63%,1)"></rect><rect x="300" y="430" width="10" height="10" fill="rgba(45.1%,82.35%,8.63%,1)"></rect><rect x="310" y="350" width="10" height="10" fill="rgba(45.1%,82.35%,8.63%,1)"></rect><rect x="310" y="360" width="10" height="10" fill="rgba(45.1%,82.35%,8.63%,1)"></rect><rect x="310" y="370" width="10" height="10" fill="rgba(45.1%,82.35%,8.63%,1)"></rect><rect x="310" y="380" width="10" height="10" fill="rgba(45.1%,82.35%,8.63%,1)"></rect><rect x="310" y="390" width="10" height="10" fill="rgba(45.1%,82.35%,8.63%,1)"></rect><rect x="310" y="400" width="10" height="10" fill="rgba(45.1%,82.35%,8.63%,1)"></rect><rect x="310" y="410" width="10" height="10" fill="rgba(45.1%,82.35%,8.63%,1)"></rect><rect x="310" y="420" width="10" height="10" fill="rgba(45.1%,82.35%,8.63%,1)"></rect><rect x="310" y="430" width="10" height="10" fill="rgba(45.1%,82.35%,8.63%,1)"></rect><rect x="310" y="440" width="10" height="10" fill="rgba(45.1%,82.35%,8.63%,1)"></rect><rect x="320" y="350" width="10" height="10" fill="rgba(45.1%,82.35%,8.63%,1)"></rect><rect x="320" y="360" width="10" height="10" fill="rgba(45.1%,82.35%,8.63%,1)"></rect><rect x="320" y="370" width="10" height="10" fill="rgba(45.1%,82.35%,8.63%,1)"></rect><rect x="320" y="380" width="10" height="10" fill="rgba(45.1%,82.35%,8.63%,1)"></rect><rect x="320" y="390" width="10" height="10" fill="rgba(45.1%,82.35%,8.63%,1)"></rect><rect x="320" y="400" width="10" height="10" fill="rgba(45.1%,82.35%,8.63%,1)"></rect><rect x="320" y="410" width="10" height="10" fill="rgba(45.1%,82.35%,8.63%,1)"></rect><rect x="320" y="420" width="10" height="10" fill="rgba(45.1%,82.35%,8.63%,1)"></rect><rect x="320" y="430" width="10" height="10" fill="rgba(45.1%,82.35%,8.63%,1)"></rect><rect x="320" y="440" width="10" height="10" fill="rgba(45.1%,82.35%,8.63%,1)"></rect><rect x="330" y="350" width="10" height="10" fill="rgba(45.1%,82.35%,8.63%,1)"></rect><rect x="330" y="360" width="10" height="10" fill="rgba(45.1%,82.35%,8.63%,1)"></rect><rect x="330" y="370" width="10" height="10" fill="rgba(45.1%,82.35%,8.63%,1)"></rect><rect x="330" y="380" width="10" height="10" fill="rgba(45.1%,82.35%,8.63%,1)"></rect><rect x="330" y="390" width="10" height="10" fill="rgba(45.1%,82.35%,8.63%,1)"></rect><rect x="330" y="400" width="10" height="10" fill="rgba(45.1%,82.35%,8.63%,1)"></rect><rect x="330" y="410" width="10" height="10" fill="rgba(45.1%,82.35%,8.63%,1)"></rect><rect x="330" y="420" width="10" height="10" fill="rgba(45.1%,82.35%,8.63%,1)"></rect><rect x="330" y="430" width="10" height="10" fill="rgba(45.1%,82.35%,8.63%,1)"></rect><rect x="330" y="440" width="10" height="10" fill="rgba(45.1%,82.35%,8.63%,1)"></rect><rect x="340" y="350" width="10" height="10" fill="rgba(45.1%,82.35%,8.63%,1)"></rect><rect x="340" y="360" width="10" height="10" fill="rgba(45.1%,82.35%,8.63%,1)"></rect><rect x="340" y="370" width="10" height="10" fill="rgba(45.1%,82.35%,8.63%,1)"></rect><rect x="340" y="380" width="10" height="10" fill="rgba(45.1%,82.35%,8.63%,1)"></rect><rect x="340" y="390" width="10" height="10" fill="rgba(45.1%,82.35%,8.63%,1)"></rect><rect x="340" y="400" width="10" height="10" fill="rgba(45.1%,82.35%,8.63%,1)"></rect><rect x="340" y="410" width="10" height="10" fill="rgba(45.1%,82.35%,8.63%,1)"></rect><rect x="340" y="420" width="10" height="10" fill="rgba(45.1%,82.35%,8.63%,1)"></rect><rect x="340" y="430" width="10" height="10" fill="rgba(45.1%,82.35%,8.63%,1)"></rect><rect x="340" y="440" width="10" height="10" fill="rgba(45.1%,82.35%,8.63%,1)"></rect><rect x="350" y="350" width="10" height="10" fill="rgba(45.1%,82.35%,8.63%,1)"></rect><rect x="350" y="360" width="10" height="10" fill="rgba(45.1%,82.35%,8.63%,1)"></rect><rect x="350" y="370" width="10" height="10" fill="rgba(45.1%,82.35%,8.63%,1)"></rect><rect x="350" y="380" width="10" height="10" fill="rgba(45.1%,82.35%,8.63%,1)"></rect><rect x="350" y="390" width="10" height="10" fill="rgba(45.1%,82.35%,8.63%,1)"></rect><rect x="350" y="400" width="10" height="10" fill="rgba(45.1%,82.35%,8.63%,1)"></rect><rect x="350" y="410" width="10" height="10" fill="rgba(45.1%,82.35%,8.63%,1)"></rect><rect x="350" y="420" width="10" height="10" fill="rgba(45.1%,82.35%,8.63%,1)"></rect><rect x="350" y="430" width="10" height="10" fill="rgba(45.1%,82.35%,8.63%,1)"></rect><rect x="350" y="440" width="10" height="10" fill="rgba(45.1%,82.35%,8.63%,1)"></rect><rect x="360" y="350" width="10" height="10" fill="rgba(45.1%,82.35%,8.63%,1)"></rect><rect x="360" y="360" width="10" height="10" fill="rgba(45.1%,82.35%,8.63%,1)"></rect><rect x="360" y="370" width="10" height="10" fill="rgba(45.1%,82.35%,8.63%,1)"></rect><rect x="360" y="380" width="10" height="10" fill="rgba(45.1%,82.35%,8.63%,1)"></rect><rect x="360" y="390" width="10" height="10" fill="rgba(45.1%,82.35%,8.63%,1)"></rect><rect x="360" y="400" width="10" height="10" fill="rgba(45.1%,82.35%,8.63%,1)"></rect><rect x="360" y="410" width="10" height="10" fill="rgba(45.1%,82.35%,8.63%,1)"></rect><rect x="360" y="420" width="10" height="10" fill="rgba(45.1%,82.35%,8.63%,1)"></rect><rect x="360" y="430" width="10" height="10" fill="rgba(45.1%,82.35%,8.63%,1)"></rect><rect x="360" y="440" width="10" height="10" fill="rgba(45.1%,82.35%,8.63%,1)"></rect><rect x="370" y="360" width="10" height="10" fill="rgba(45.1%,82.35%,8.63%,1)"></rect><rect x="370" y="370" width="10" height="10" fill="rgba(45.1%,82.35%,8.63%,1)"></rect><rect x="370" y="380" width="10" height="10" fill="rgba(45.1%,82.35%,8.63%,1)"></rect><rect x="370" y="390" width="10" height="10" fill="rgba(45.1%,82.35%,8.63%,1)"></rect><rect x="370" y="400" width="10" height="10" fill="rgba(45.1%,82.35%,8.63%,1)"></rect><rect x="370" y="410" width="10" height="10" fill="rgba(45.1%,82.35%,8.63%,1)"></rect><rect x="370" y="420" width="10" height="10" fill="rgba(45.1%,82.35%,8.63%,1)"></rect><rect x="370" y="430" width="10" height="10" fill="rgba(45.1%,82.35%,8.63%,1)"></rect><rect x="380" y="380" width="10" height="10" fill="rgba(45.1%,82.35%,8.63%,1)"></rect><rect x="380" y="390" width="10" height="10" fill="rgba(45.1%,82.35%,8.63%,1)"></rect><rect x="380" y="400" width="10" height="10" fill="rgba(45.1%,82.35%,8.63%,1)"></rect><rect x="380" y="410" width="10" height="10" fill="rgba(45.1%,82.35%,8.63%,1)"></rect><rect x="380" y="420" width="10" height="10" fill="rgba(45.1%,82.35%,8.63%,1)"></rect><rect x="380" y="430" width="10" height="10" fill="rgba(45.1%,82.35%,8.63%,1)"></rect><rect x="390" y="390" width="10" height="10" fill="rgba(45.1%,82.35%,8.63%,1)"></rect><rect x="390" y="400" width="10" height="10" fill="rgba(45.1%,82.35%,8.63%,1)"></rect><rect x="390" y="410" width="10" height="10" fill="rgba(45.1%,82.35%,8.63%,1)"></rect><rect x="390" y="420" width="10" height="10" fill="rgba(45.1%,82.35%,8.63%,1)"></rect><rect x="400" y="390" width="10" height="10" fill="rgba(45.1%,82.35%,8.63%,1)"></rect><rect x="400" y="400" width="10" height="10" fill="rgba(45.1%,82.35%,8.63%,1)"></rect><rect x="400" y="410" width="10" height="10" fill="rgba(45.1%,82.35%,8.63%,1)"></rect></g><g><rect x="440" y="120" width="10" height="10" fill="rgba(0%,0%,0%,0.5)"></rect><rect x="450" y="110" width="10" height="10" fill="rgba(0%,0%,0%,0.5)"></rect><rect x="450" y="120" width="10" height="10" fill="rgba(0%,0%,0%,0.5)"></rect><rect x="450" y="130" width="10" height="10" fill="rgba(0%,0%,0%,0.5)"></rect><rect x="460" y="120" width="10" height="10" fill="rgba(0%,0%,0%,0.5)"></rect></g></svg>