<?xml version="1.0" standalone="no"?>
<svg xmlns:xlink="http://www.w3.org/1999/xlink" xmlns="http://www.w3.org/2000/svg" width="500" height="500"><rect x="0" y="0" width="125" height="125" fill="rgba(60.85%,86.69%,7.83%,1)"></rect><rect x="125" y="0" width="62.5" height="62.5" fill="rgba(9.47%,49.33%,43.23%,1)"></rect><rect x="187.5" y="0" width="62.5" height="62.5" fill="rgba(16.93%,71.76%,16.61%,1)"></rect><rect x="125" y="62.5" width="62.5" height="62.5" fill="rgba(100%,29.04%,0%,1)"></rect><rect x="187.5" y="62.5" width="62.5" height="62.5" fill="rgba(91.54%,0%,8.46%,1)"></rect><rect x="0" y="125" width="125" height="125" fill="rgba(69.58%,0%,30.42%,1)"></rect><rect x="125" y="125" width="62.5" height="62.5" fill="rgba(100%,9.63%,0%,1)"></rect><rect x="187.5" y="125" width="62.5" height="62.5" fill="rgba(72.13%,0%,27.87%,1)"></rect><rect x="125" y="187.5" width="62.5" height="62.5" fill="rgba(3.14%,60.47%,27.71%,1)"></rect><rect x="187.5" y="187.5" width="62.5" height="62.5" fill="rgba(55.73%,84.95%,8.85%,1)"></rect><rect x="250" y="0" width="125" height="125" fill="rgba(75.66%,0%,24.34%,1)"></rect><rect x="375" y="0" width="62.5" height="62.5" fill="rgba(43.74%,6.93%,51.86%,1)"></rect><rect x="437.5" y="0" width="62.5" height="62.5" fill="rgba(18.46%,34.91%,59.36%,1)"></rect><rect x="375" y="62.5" width="62.5" height="62.5" fill="rgba(100%,90.71%,0%,1)"></rect><rect x="437.5" y="62.5" width="62.5" height="62.5" fill="rgba(100%,53.21%,0%,1)"></rect><rect x="250" y="125" width="31.25" height="31.25" fill="rgba(89.65%,0%,10.35%,1)"></rect><rect x="281.25" y="125" width="31.25" height="31.25" fill="rgba(52.15%,0%,47.85%,1)"></rect><rect x="250" y="156.25" width="31.25" height="31.25" fill="rgba(20.7%,73.04%,15.86%,1)"></rect><rect x="281.25" y="156.25" width="31.25" height="31.25" fill="rgba(95.7%,98.54%,0.86%,1)"></rect><rect x="312.5" y="125" width="15.625" height="15.625" fill="rgba(44.55%,6.04%,51.62%,1)"></rect><rect x="328.125" y="125" width="7.8125" height="7.8125" fill="rgba(91.62%,0%,8.38%,1)"></rect><rect x="335.9375" y="125" width="7.8125" height="7.8125" fill="rgba(54.12%,0%,45.88%,1)"></rect><rect x="328.125" y="132.8125" width="7.8125" height="7.8125" fill="rgba(16.75%,71.7%,16.65%,1)"></rect><rect x="335.9375" y="132.8125" width="7.8125" height="7.8125" fill="rgba(91.75%,97.2%,1.65%,1)"></rect><rect x="312.5" y="140.625" width="15.625" height="15.625" fill="rgba(100%,91.91%,0%,1)"></rect><rect x="328.125" y="140.625" width="15.625" height="15.625" fill="rgba(100%,54.41%,0%,1)"></rect><rect x="343.75" y="125" width="31.25" height="31.25" fill="rgba(100%,93.31%,0%,1)"></rect><rect x="312.5" y="156.25" width="31.25" height="31.25" fill="rgba(80.81%,0%,19.19%,1)"></rect><rect x="343.75" y="156.25" width="31.25" height="31.25" fill="rgba(45.49%,4.99%,51.34%,1)"></rect><rect x="250" y="187.5" width="62.5" height="62.5" fill="rgba(15.35%,38.97%,57.67%,1)"></rect><rect x="312.5" y="187.5" width="15.625" height="15.625" fill="rgba(16.97%,71.77%,16.61%,1)"></rect><rect x="328.125" y="187.5" width="15.625" height="15.625" fill="rgba(91.97%,97.27%,1.61%,1)"></rect><rect x="312.5" y="203.125" width="15.625" height="15.625" fill="rgba(91.52%,0%,8.48%,1)"></rect><rect x="328.125" y="203.125" width="15.625" height="15.625" fill="rgba(54.02%,0%,45.98%,1)"></rect><rect x="343.75" y="187.5" width="7.8125" height="7.8125" fill="rgba(28.83%,75.8%,14.23%,1)"></rect><rect x="351.5625" y="187.5" width="7.8125" height="7.8125" fill="rgba(100%,98.09%,0%,1)"></rect><rect x="343.75" y="195.3125" width="7.8125" height="7.8125" fill="rgba(85.59%,0%,14.41%,1)"></rect><rect x="351.5625" y="195.3125" width="7.8125" height="7.8125" fill="rgba(48.71%,1.43%,50.38%,1)"></rect><rect x="359.375" y="187.5" width="7.8125" height="7.8125" fill="rgba(5.13%,56.96%,32.6%,1)"></rect><rect x="367.1875" y="187.5" width="7.8125" height="7.8125" fill="rgba(43.5%,80.79%,11.3%,1)"></rect><rect x="359.375" y="195.3125" width="7.8125" height="7.8125" fill="rgba(100%,15.75%,0%,1)"></rect><rect x="367.1875" y="195.3125" width="7.8125" height="7.8125" fill="rgba(78.25%,0%,21.75%,1)"></rect><rect x="343.75" y="203.125" width="15.625" height="15.625" fill="rgba(39.57%,11.54%,53.1%,1)"></rect><rect x="359.375" y="203.125" width="15.625" height="15.625" fill="rgba(15.33%,39.01%,57.62%,1)"></rect><rect x="312.5" y="218.75" width="31.25" height="31.25" fill="rgba(2.63%,61.37%,26.45%,1)"></rect><rect x="343.75" y="218.75" width="31.25" height="31.25" fill="rgba(58.88%,86.02%,8.22%,1)"></rect><rect x="375" y="125" width="125" height="125" fill="rgba(100%,88.16%,0%,1)"></rect><rect x="0" y="250" width="62.5" height="62.5" fill="rgba(10.08%,48.25%,44.74%,1)"></rect><rect x="62.5" y="250" width="62.5" height="62.5" fill="rgba(13.15%,70.47%,17.37%,1)"></rect><rect x="0" y="312.5" width="62.5" height="62.5" fill="rgba(100%,30.93%,0%,1)"></rect><rect x="62.5" y="312.5" width="62.5" height="62.5" fill="rgba(93.43%,0%,6.57%,1)"></rect><rect x="125" y="250" width="62.5" height="62.5" fill="rgba(8.28%,51.42%,40.32%,1)"></rect><rect x="187.5" y="250" width="15.625" height="15.625" fill="rgba(100%,88.05%,0%,1)"></rect><rect x="203.125" y="250" width="15.625" height="15.625" fill="rgba(100%,50.55%,0%,1)"></rect><rect x="187.5" y="265.625" width="15.625" height="15.625" fill="rgba(41.95%,8.91%,52.39%,1)"></rect><rect x="203.125" y="265.625" width="15.625" height="15.625" fill="rgba(16.67%,36.89%,59.89%,1)"></rect><rect x="218.75" y="250" width="31.25" height="31.25" fill="rgba(100%,53.21%,0%,1)"></rect><rect x="187.5" y="281.25" width="31.25" height="31.25" fill="rgba(43.74%,6.93%,51.86%,1)"></rect><rect x="218.75" y="281.25" width="31.25" height="31.25" fill="rgba(18.46%,34.91%,59.36%,1)"></rect><rect x="125" y="312.5" width="62.5" height="62.5" fill="rgba(100%,25.41%,0%,1)"></rect><rect x="187.5" y="312.5" width="31.25" height="31.25" fill="rgba(17.74%,35.71%,59.57%,1)"></rect><rect x="218.75" y="312.5" width="31.25" height="31.25" fill="rgba(4.77%,57.6%,31.71%,1)"></rect><rect x="187.5" y="343.75" width="3.90625" height="3.90625" fill="rgba(7.98%,51.95%,39.58%,1)"></rect><rect x="191.40625" y="343.75" width="3.90625" height="3.90625" fill="rgba(26.06%,74.86%,14.79%,1)"></rect><rect x="187.5" y="347.65625" width="3.90625" height="3.90625" fill="rgba(100%,24.47%,0%,1)"></rect><rect x="191.40625" y="347.65625" width="3.90625" height="3.90625" fill="rgba(86.97%,0%,13.03%,1)"></rect><rect x="195.3125" y="343.75" width="7.8125" height="7.8125" fill="rgba(100%,63.99%,0%,1)"></rect><rect x="187.5" y="351.5625" width="7.8125" height="7.8125" fill="rgba(51.49%,0%,48.51%,1)"></rect><rect x="195.3125" y="351.5625" width="7.8125" height="7.8125" fill="rgba(25.73%,26.87%,57.2%,1)"></rect><rect x="203.125" y="343.75" width="15.625" height="15.625" fill="rgba(100%,13.45%,0%,1)"></rect><rect x="187.5" y="359.375" width="15.625" height="15.625" fill="rgba(16.94%,36.59%,59.81%,1)"></rect><rect x="203.125" y="359.375" width="15.625" height="15.625" fill="rgba(4.38%,58.28%,30.76%,1)"></rect><rect x="218.75" y="343.75" width="15.625" height="15.625" fill="rgba(93.72%,0%,6.28%,1)"></rect><rect x="234.375" y="343.75" width="15.625" height="15.625" fill="rgba(56.22%,0%,43.78%,1)"></rect><rect x="218.75" y="359.375" width="15.625" height="15.625" fill="rgba(12.57%,70.27%,17.49%,1)"></rect><rect x="234.375" y="359.375" width="15.625" height="15.625" fill="rgba(87.57%,95.77%,2.49%,1)"></rect><rect x="0" y="375" width="62.5" height="62.5" fill="rgba(100%,8.75%,0%,1)"></rect><rect x="62.5" y="375" width="62.5" height="62.5" fill="rgba(71.25%,0%,28.75%,1)"></rect><rect x="0" y="437.5" width="62.5" height="62.5" fill="rgba(2.85%,60.98%,27%,1)"></rect><rect x="62.5" y="437.5" width="62.5" height="62.5" fill="rgba(57.5%,85.55%,8.5%,1)"></rect><rect x="125" y="375" width="125" height="125" fill="rgba(100%,61.82%,0%,1)"></rect><rect x="250" y="250" width="62.5" height="62.5" fill="rgba(100%,13.4%,0%,1)"></rect><rect x="312.5" y="250" width="62.5" height="62.5" fill="rgba(75.9%,0%,24.1%,1)"></rect><rect x="250" y="312.5" width="62.5" height="62.5" fill="rgba(4.37%,58.31%,30.72%,1)"></rect><rect x="312.5" y="312.5" width="62.5" height="62.5" fill="rgba(48.2%,82.39%,10.36%,1)"></rect><rect x="375" y="250" width="62.5" height="62.5" fill="rgba(94.94%,0%,5.06%,1)"></rect><rect x="437.5" y="250" width="62.5" height="62.5" fill="rgba(57.44%,0%,42.56%,1)"></rect><rect x="375" y="312.5" width="31.25" height="31.25" fill="rgba(11.15%,69.79%,17.77%,1)"></rect><rect x="406.25" y="312.5" width="15.625" height="15.625" fill="rgba(65.28%,88.19%,6.94%,1)"></rect><rect x="421.875" y="312.5" width="15.625" height="15.625" fill="rgba(100%,79.86%,0%,1)"></rect><rect x="406.25" y="328.125" width="15.625" height="15.625" fill="rgba(67.36%,0%,32.64%,1)"></rect><rect x="421.875" y="328.125" width="15.625" height="15.625" fill="rgba(36.43%,15.02%,54.03%,1)"></rect><rect x="375" y="343.75" width="31.25" height="31.25" fill="rgba(94.42%,0%,5.58%,1)"></rect><rect x="406.25" y="343.75" width="31.25" height="31.25" fill="rgba(56.92%,0%,43.08%,1)"></rect><rect x="437.5" y="312.5" width="62.5" height="62.5" fill="rgba(85.11%,94.94%,2.98%,1)"></rect><rect x="250" y="375" width="125" height="125" fill="rgba(100%,19.29%,0%,1)"></rect><rect x="375" y="375" width="125" height="125" fill="rgba(81.79%,0%,18.21%,1)"></rect></svg>