<?xml version="1.0" standalone="no"?>
<svg xmlns:xlink="http://www.w3.org/1999/xlink" xmlns="http://www.w3.org/2000/svg" width="500" height="500"><g><circle cx="250" cy="250" r="166.66666666666666" fill="none" stroke="lightgray" stroke-width="15"></circle><g><circle cx="416.6157452218146" cy="254.11961429713193" r="5" fill="black" stroke="none" stroke-width="0"></circle><circle cx="410.89053851598015" cy="293.49726880869287" r="5" fill="black" stroke="none" stroke-width="0"></circle><circle cx="311.7049046264056" cy="404.8233913942721" r="5" fill="black" stroke="none" stroke-width="0"></circle><circle cx="283.0684974449681" cy="413.3531519576831" r="5" fill="black" stroke="none" stroke-width="0"></circle><circle cx="253.36924162593172" cy="416.63260781924964" r="5" fill="black" stroke="none" stroke-width="0"></circle><circle cx="223.56169585943942" cy="414.556354638613" r="5" fill="black" stroke="none" stroke-width="0"></circle><circle cx="194.60389968139776" cy="407.19112521789873" r="5" fill="black" stroke="none" stroke-width="0"></circle><circle cx="167.42658176765121" cy="394.7736453198695" r="5" fill="black" stroke="none" stroke-width="0"></circle><circle cx="142.90324648481516" cy="377.70302723226854" r="5" fill="black" stroke="none" stroke-width="0"></circle><circle cx="121.82210006120587" cy="356.52794818759185" r="5" fill="black" stroke="none" stroke-width="0"></circle><circle cx="104.8607169963004" cy="331.9290321372697" r="5" fill="black" stroke="none" stroke-width="0"></circle><circle cx="92.56425338516274" cy="304.69701514348407" r="5" fill="black" stroke="none" stroke-width="0"></circle><circle cx="85.3278828146361" cy="275.70742304214" r="5" fill="black" stroke="none" stroke-width="0"></circle><circle cx="83.38395277640652" cy="245.8926181863581" r="5" fill="black" stroke="none" stroke-width="0"></circle><circle cx="86.79411840973492" cy="216.2121620679549" r="5" fill="black" stroke="none" stroke-width="0"></circle><circle cx="95.44638814963261" cy="187.62244921621436" r="5" fill="black" stroke="none" stroke-width="0"></circle><circle cx="109.05661883479294" cy="161.0464105080805" r="5" fill="black" stroke="none" stroke-width="0"></circle><circle cx="127.173611875829" cy="137.34363685016157" r="5" fill="black" stroke="none" stroke-width="0"></circle><circle cx="149.1868325292164" cy="117.28043459125738" r="5" fill="black" stroke="none" stroke-width="0"></circle><circle cx="174.33635027733172" cy="101.49818220498736" r="5" fill="black" stroke="none" stroke-width="0"></circle><circle cx="201.72639529642404" cy="90.47747222821266" r="5" fill="black" stroke="none" stroke-width="0"></circle><circle cx="230.34702522107403" cy="84.49610771913348" r="5" fill="black" stroke="none" stroke-width="0"></circle><circle cx="259.11162043985644" cy="83.58258459302473" r="5" fill="black" stroke="none" stroke-width="0"></circle><circle cx="286.9183843482565" cy="87.47366159636715" r="5" fill="black" stroke="none" stroke-width="0"></circle><circle cx="312.73836317130736" cy="95.59250159282124" r="5" fill="black" stroke="none" stroke-width="0"></circle><circle cx="335.72031199183493" cy="107.06712802927296" r="5" fill="black" stroke="none" stroke-width="0"></circle><circle cx="355.2894368502728" cy="120.80281634056342" r="5" fill="black" stroke="none" stroke-width="0"></circle><circle cx="371.2116770255724" cy="135.60809849282992" r="5" fill="black" stroke="none" stroke-width="0"></circle><circle cx="383.60319026712403" cy="150.36082432986296" r="5" fill="black" stroke="none" stroke-width="0"></circle><circle cx="392.8824491034811" cy="164.19566726575567" r="5" fill="black" stroke="none" stroke-width="0"></circle><circle cx="399.67855773656123" cy="176.69169807122336" r="5" fill="black" stroke="none" stroke-width="0"></circle><circle cx="404.7137817008355" cy="188.020781469883" r="5" fill="black" stroke="none" stroke-width="0"></circle><circle cx="408.68428695217716" cy="199.03849636974124" r="5" fill="black" stroke="none" stroke-width="0"></circle><circle cx="412.15792008526944" cy="211.49562711331146" r="5" fill="black" stroke="none" stroke-width="0"></circle><circle cx="415.2637237363247" cy="228.42039401236636" r="5" fill="black" stroke="none" stroke-width="0"></circle></g></g></svg>