<?xml version="1.0" standalone="no"?>
<svg xmlns:xlink="http://www.w3.org/1999/xlink" xmlns="http://www.w3.org/2000/svg" width="500" height="500"><g><g><rect x="150" y="140" width="10" height="10" fill="rgba(93.33%,93.33%,92.55%,1)"></rect><rect x="150" y="150" width="10" height="10" fill="rgba(93.33%,93.33%,92.55%,1)"></rect><rect x="150" y="160" width="10" height="10" fill="rgba(93.33%,93.33%,92.55%,1)"></rect><rect x="150" y="170" width="10" height="10" fill="rgba(93.33%,93.33%,92.55%,1)"></rect><rect x="150" y="180" width="10" height="10" fill="rgba(93.33%,93.33%,92.55%,1)"></rect><rect x="160" y="130" width="10" height="10" fill="rgba(93.33%,93.33%,92.55%,1)"></rect><rect x="160" y="140" width="10" height="10" fill="rgba(93.33%,93.33%,92.55%,1)"></rect><rect x="160" y="150" width="10" height="10" fill="rgba(93.33%,93.33%,92.55%,1)"></rect><rect x="160" y="160" width="10" height="10" fill="rgba(93.33%,93.33%,92.55%,1)"></rect><rect x="160" y="170" width="10" height="10" fill="rgba(93.33%,93.33%,92.55%,1)"></rect><rect x="160" y="180" width="10" height="10" fill="rgba(93.33%,93.33%,92.55%,1)"></rect><rect x="160" y="190" width="10" height="10" fill="rgba(93.33%,93.33%,92.55%,1)"></rect><rect x="170" y="120" width="10" height="10" fill="rgba(93.33%,93.33%,92.55%,1)"></rect><rect x="170" y="130" width="10" height="10" fill="rgba(93.33%,93.33%,92.55%,1)"></rect><rect x="170" y="140" width="10" height="10" fill="rgba(93.33%,93.33%,92.55%,1)"></rect><rect x="170" y="150" width="10" height="10" fill="rgba(93.33%,93.33%,92.55%,1)"></rect><rect x="170" y="160" width="10" height="10" fill="rgba(93.33%,93.33%,92.55%,1)"></rect><rect x="170" y="170" width="10" height="10" fill="rgba(93.33%,93.33%,92.55%,1)"></rect><rect x="170" y="180" width="10" height="10" fill="rgba(93.33%,93.33%,92.55%,1)"></rect><rect x="170" y="190" width="10" height="10" fill="rgba(93.33%,93.33%,92.55%,1)"></rect><rect x="180" y="110" width="10" height="10" fill="rgba(93.33%,93.33%,92.55%,1)"></rect><rect x="180" y="120" width="10" height="10" fill="rgba(93.33%,93.33%,92.55%,1)"></rect><rect x="180" y="130" width="10" height="10" fill="rgba(93.33%,93.33%,92.55%,1)"></rect><rect x="180" y="140" width="10" height="10" fill="rgba(93.33%,93.33%,92.55%,1)"></rect><rect x="180" y="150" width="10" height="10" fill="rgba(93.33%,93.33%,92.55%,1)"></rect><rect x="180" y="160" width="10" height="10" fill="rgba(93.33%,93.33%,92.55%,1)"></rect><rect x="180" y="170" width="10" height="10" fill="rgba(93.33%,93.33%,92.55%,1)"></rect><rect x="180" y="180" width="10" height="10" fill="rgba(93.33%,93.33%,92.55%,1)"></rect><rect x="180" y="190" width="10" height="10" fill="rgba(93.33%,93.33%,92.55%,1)"></rect><rect x="180" y="200" width="10" height="10" fill="rgba(93.33%,93.33%,92.55%,1)"></rect><rect x="190" y="110" width="10" height="10" fill="rgba(93.33%,93.33%,92.55%,1)"></rect><rect x="190" y="120" width="10" height="10" fill="rgba(93.33%,93.33%,92.55%,1)"></rect><rect x="190" y="130" width="10" height="10" fill="rgba(93.33%,93.33%,92.55%,1)"></rect><rect x="190" y="140" width="10" height="10" fill="rgba(93.33%,93.33%,92.55%,1)"></rect><rect x="190" y="150" width="10" height="10" fill="rgba(93.33%,93.33%,92.55%,1)"></rect><rect x="190" y="160" width="10" height="10" fill="rgba(93.33%,93.33%,92.55%,1)"></rect><rect x="190" y="170" width="10" height="10" fill="rgba(93.33%,93.33%,92.55%,1)"></rect><rect x="190" y="180" width="10" height="10" fill="rgba(93.33%,93.33%,92.55%,1)"></rect><rect x="190" y="190" width="10" height="10" fill="rgba(93.33%,93.33%,92.55%,1)"></rect><rect x="190" y="200" width="10" height="10" fill="rgba(93.33%,93.33%,92.55%,1)"></rect><rect x="200" y="110" width="10" height="10" fill="rgba(93.33%,93.33%,92.55%,1)"></rect><rect x="200" y="120" width="10" height="10" fill="rgba(93.33%,93.33%,92.55%,1)"></rect><rect x="200" y="130" width="10" height="10" fill="rgba(93.33%,93.33%,92.55%,1)"></rect><rect x="200" y="140" width="10" height="10" fill="rgba(93.33%,93.33%,92.55%,1)"></rect><rect x="200" y="150" width="10" height="10" fill="rgba(93.33%,93.33%,92.55%,1)"></rect><rect x="200" y="160" width="10" height="10" fill="rgba(93.33%,93.33%,92.55%,1)"></rect><rect x="200" y="170" width="10" height="10" fill="rgba(93.33%,93.33%,92.55%,1)"></rect><rect x="200" y="180" width="10" height="10" fill="rgba(93.33%,93.33%,92.55%,1)"></rect><rect x="200" y="190" width="10" height="10" fill="rgba(93.33%,93.33%,92.55%,1)"></rect><rect x="200" y="200" width="10" height="10" fill="rgba(93.33%,93.33%,92.55%,1)"></rect><rect x="200" y="210" width="10" height="10" fill="rgba(93.33%,93.33%,92.55%,1)"></rect><rect x="200" y="220" width="10" height="10" fill="rgba(93.33%,93.33%,92.55%,1)"></rect><rect x="200" y="230" width="10" height="10" fill="rgba(93.33%,93.33%,92.55%,1)"></rect><rect x="200" y="240" width="10" height="10" fill="rgba(93.33%,93.33%,92.55%,1)"></rect><rect x="200" y="250" width="10" height="10" fill="rgba(93.33%,93.33%,92.55%,1)"></rect><rect x="210" y="110" width="10" height="10" fill="rgba(93.33%,93.33%,92.55%,1)"></rect><rect x="210" y="120" width="10" height="10" fill="rgba(93.33%,93.33%,92.55%,1)"></rect><rect x="210" y="130" width="10" height="10" fill="rgba(93.33%,93.33%,92.55%,1)"></rect><rect x="210" y="140" width="10" height="10" fill="rgba(93.33%,93.33%,92.55%,1)"></rect><rect x="210" y="150" width="10" height="10" fill="rgba(93.33%,93.33%,92.55%,1)"></rect><rect x="210" y="160" width="10" height="10" fill="rgba(93.33%,93.33%,92.55%,1)"></rect><rect x="210" y="170" width="10" height="10" fill="rgba(93.33%,93.33%,92.55%,1)"></rect><rect x="210" y="180" width="10" height="10" fill="rgba(93.33%,93.33%,92.55%,1)"></rect><rect x="210" y="190" width="10" height="10" fill="rgba(93.33%,93.33%,92.55%,1)"></rect><rect x="210" y="200" width="10" height="10" fill="rgba(93.33%,93.33%,92.55%,1)"></rect><rect x="210" y="210" width="10" height="10" fill="rgba(93.33%,93.33%,92.55%,1)"></rect><rect x="210" y="220" width="10" height="10" fill="rgba(93.33%,93.33%,92.55%,1)"></rect><rect x="210" y="230" width="10" height="10" fill="rgba(93.33%,93.33%,92.55%,1)"></rect><rect x="210" y="240" width="10" height="10" fill="rgba(93.33%,93.33%,92.55%,1)"></rect><rect x="210" y="250" width="10" height="10" fill="rgba(93.33%,93.33%,92.55%,1)"></rect><rect x="210" y="260" width="10" height="10" fill="rgba(93.33%,93.33%,92.55%,1)"></rect><rect x="220" y="110" width="10" height="10" fill="rgba(93.33%,93.33%,92.55%,1)"></rect><rect x="220" y="120" width="10" height="10" fill="rgba(93.33%,93.33%,92.55%,1)"></rect><rect x="220" y="130" width="10" height="10" fill="rgba(93.33%,93.33%,92.55%,1)"></rect><rect x="220" y="140" width="10" height="10" fill="rgba(93.33%,93.33%,92.55%,1)"></rect><rect x="220" y="150" width="10" height="10" fill="rgba(93.33%,93.33%,92.55%,1)"></rect><rect x="220" y="160" width="10" height="10" fill="rgba(93.33%,93.33%,92.55%,1)"></rect><rect x="220" y="170" width="10" height="10" fill="rgba(93.33%,93.33%,92.55%,1)"></rect><rect x="220" y="180" width="10" height="10" fill="rgba(93.33%,93.33%,92.55%,1)"></rect><rect x="220" y="190" width="10" height="10" fill="rgba(93.33%,93.33%,92.55%,1)"></rect><rect x="220" y="200" width="10" height="10" fill="rgba(93.33%,93.33%,92.55%,1)"></rect><rect x="220" y="210" width="10" height="10" fill="rgba(93.33%,93.33%,92.55%,1)"></rect><rect x="220" y="220" width="10" height="10" fill="rgba(93.33%,93.33%,92.55%,1)"></rect><rect x="220" y="230" width="10" height="10" fill="rgba(93.33%,93.33%,92.55%,1)"></rect><rect x="220" y="240" width="10" height="10" fill="rgba(93.33%,93.33%,92.55%,1)"></rect><rect x="220" y="250" width="10" height="10" fill="rgba(93.33%,93.33%,92.55%,1)"></rect><rect x="220" y="260" width="10" height="10" fill="rgba(93.33%,93.33%,92.55%,1)"></rect><rect x="220" y="270" width="10" height="10" fill="rgba(93.33%,93.33%,92.55%,1)"></rect><rect x="230" y="110" width="10" height="10" fill="rgba(93.33%,93.33%,92.55%,1)"></rect><rect x="230" y="120" width="10" height="10" fill="rgba(93.33%,93.33%,92.55%,1)"></rect><rect x="230" y="130" width="10" height="10" fill="rgba(93.33%,93.33%,92.55%,1)"></rect><rect x="230" y="140" width="10" height="10" fill="rgba(93.33%,93.33%,92.55%,1)"></rect><rect x="230" y="150" width="10" height="10" fill="rgba(93.33%,93.33%,92.55%,1)"></rect><rect x="230" y="160" width="10" height="10" fill="rgba(93.33%,93.33%,92.55%,1)"></rect><rect x="230" y="170" width="10" height="10" fill="rgba(93.33%,93.33%,92.55%,1)"></rect><rect x="230" y="180" width="10" height="10" fill="rgba(93.33%,93.33%,92.55%,1)"></rect><rect x="230" y="190" width="10" height="10" fill="rgba(93.33%,93.33%,92.55%,1)"></rect><rect x="230" y="200" width="10" height="10" fill="rgba(93.33%,93.33%,92.55%,1)"></rect><rect x="230" y="210" width="10" height="10" fill="rgba(93.33%,93.33%,92.55%,1)"></rect><rect x="230" y="220" width="10" height="10" fill="rgba(93.33%,93.33%,92.55%,1)"></rect><rect x="230" y="230" width="10" height="10" fill="rgba(93.33%,93.33%,92.55%,1)"></rect><rect x="230" y="240" width="10" height="10" fill="rgba(93.33%,93.33%,92.55%,1)"></rect><rect x="230" y="250" width="10" height="10" fill="rgba(93.33%,93.33%,92.55%,1)"></rect><rect x="230" y="260" width="10" height="10" fill="rgba(93.33%,93.33%,92.55%,1)"></rect><rect x="230" y="270" width="10" height="10" fill="rgba(93.33%,93.33%,92.55%,1)"></rect><rect x="230" y="280" width="10" height="10" fill="rgba(93.33%,93.33%,92.55%,1)"></rect><rect x="230" y="290" width="10" height="10" fill="rgba(93.33%,93.33%,92.55%,1)"></rect><rect x="230" y="300" width="10" height="10" fill="rgba(93.33%,93.33%,92.55%,1)"></rect><rect x="240" y="110" width="10" height="10" fill="rgba(93.33%,93.33%,92.55%,1)"></rect><rect x="240" y="120" width="10" height="10" fill="rgba(93.33%,93.33%,92.55%,1)"></rect><rect x="240" y="130" width="10" height="10" fill="rgba(93.33%,93.33%,92.55%,1)"></rect><rect x="240" y="140" width="10" height="10" fill="rgba(93.33%,93.33%,92.55%,1)"></rect><rect x="240" y="150" width="10" height="10" fill="rgba(93.33%,93.33%,92.55%,1)"></rect><rect x="240" y="160" width="10" height="10" fill="rgba(93.33%,93.33%,92.55%,1)"></rect><rect x="240" y="170" width="10" height="10" fill="rgba(93.33%,93.33%,92.55%,1)"></rect><rect x="240" y="180" width="10" height="10" fill="rgba(93.33%,93.33%,92.55%,1)"></rect><rect x="240" y="190" width="10" height="10" fill="rgba(93.33%,93.33%,92.55%,1)"></rect><rect x="240" y="200" width="10" height="10" fill="rgba(93.33%,93.33%,92.55%,1)"></rect><rect x="240" y="210" width="10" height="10" fill="rgba(93.33%,93.33%,92.55%,1)"></rect><rect x="240" y="220" width="10" height="10" fill="rgba(93.33%,93.33%,92.55%,1)"></rect><rect x="240" y="230" width="10" height="10" fill="rgba(93.33%,93.33%,92.55%,1)"></rect><rect x="240" y="240" width="10" height="10" fill="rgba(93.33%,93.33%,92.55%,1)"></rect><rect x="240" y="250" width="10" height="10" fill="rgba(93.33%,93.33%,92.55%,1)"></rect><rect x="240" y="260" width="10" height="10" fill="rgba(93.33%,93.33%,92.55%,1)"></rect><rect x="240" y="270" width="10" height="10" fill="rgba(93.33%,93.33%,92.55%,1)"></rect><rect x="240" y="280" width="10" height="10" fill="rgba(93.33%,93.33%,92.55%,1)"></rect><rect x="240" y="290" width="10" height="10" fill="rgba(93.33%,93.33%,92.55%,1)"></rect><rect x="240" y="300" width="10" height="10" fill="rgba(93.33%,93.33%,92.55%,1)"></rect><rect x="240" y="310" width="10" height="10" fill="rgba(93.33%,93.33%,92.55%,1)"></rect><rect x="250" y="110" width="10" height="10" fill="rgba(93.33%,93.33%,92.55%,1)"></rect><rect x="250" y="120" width="10" height="10" fill="rgba(93.33%,93.33%,92.55%,1)"></rect><rect x="250" y="130" width="10" height="10" fill="rgba(93.33%,93.33%,92.55%,1)"></rect><rect x="250" y="140" width="10" height="10" fill="rgba(93.33%,93.33%,92.55%,1)"></rect><rect x="250" y="150" width="10" height="10" fill="rgba(93.33%,93.33%,92.55%,1)"></rect><rect x="250" y="160" width="10" height="10" fill="rgba(93.33%,93.33%,92.55%,1)"></rect><rect x="250" y="170" width="10" height="10" fill="rgba(93.33%,93.33%,92.55%,1)"></rect><rect x="250" y="180" width="10" height="10" fill="rgba(93.33%,93.33%,92.55%,1)"></rect><rect x="250" y="190" width="10" height="10" fill="rgba(93.33%,93.33%,92.55%,1)"></rect><rect x="250" y="200" width="10" height="10" fill="rgba(93.33%,93.33%,92.55%,1)"></rect><rect x="250" y="210" width="10" height="10" fill="rgba(93.33%,93.33%,92.55%,1)"></rect><rect x="250" y="220" width="10" height="10" fill="rgba(93.33%,93.33%,92.55%,1)"></rect><rect x="250" y="230" width="10" height="10" fill="rgba(93.33%,93.33%,92.55%,1)"></rect><rect x="250" y="270" width="10" height="10" fill="rgba(93.33%,93.33%,92.55%,1)"></rect><rect x="250" y="280" width="10" height="10" fill="rgba(93.33%,93.33%,92.55%,1)"></rect><rect x="250" y="290" width="10" height="10" fill="rgba(93.33%,93.33%,92.55%,1)"></rect><rect x="250" y="300" width="10" height="10" fill="rgba(93.33%,93.33%,92.55%,1)"></rect><rect x="250" y="310" width="10" height="10" fill="rgba(93.33%,93.33%,92.55%,1)"></rect><rect x="250" y="320" width="10" height="10" fill="rgba(93.33%,93.33%,92.55%,1)"></rect><rect x="260" y="110" width="10" height="10" fill="rgba(93.33%,93.33%,92.55%,1)"></rect><rect x="260" y="120" width="10" height="10" fill="rgba(93.33%,93.33%,92.55%,1)"></rect><rect x="260" y="130" width="10" height="10" fill="rgba(93.33%,93.33%,92.55%,1)"></rect><rect x="260" y="140" width="10" height="10" fill="rgba(93.33%,93.33%,92.55%,1)"></rect><rect x="260" y="150" width="10" height="10" fill="rgba(93.33%,93.33%,92.55%,1)"></rect><rect x="260" y="160" width="10" height="10" fill="rgba(93.33%,93.33%,92.55%,1)"></rect><rect x="260" y="170" width="10" height="10" fill="rgba(93.33%,93.33%,92.55%,1)"></rect><rect x="260" y="180" width="10" height="10" fill="rgba(93.33%,93.33%,92.55%,1)"></rect><rect x="260" y="190" width="10" height="10" fill="rgba(93.33%,93.33%,92.55%,1)"></rect><rect x="260" y="200" width="10" height="10" fill="rgba(93.33%,93.33%,92.55%,1)"></rect><rect x="260" y="210" width="10" height="10" fill="rgba(93.33%,93.33%,92.55%,1)"></rect><rect x="260" y="220" width="10" height="10" fill="rgba(93.33%,93.33%,92.55%,1)"></rect><rect x="260" y="310" width="10" height="10" fill="rgba(93.33%,93.33%,92.55%,1)"></rect><rect x="260" y="320" width="10" height="10" fill="rgba(93.33%,93.33%,92.55%,1)"></rect><rect x="260" y="330" width="10" height="10" fill="rgba(93.33%,93.33%,92.55%,1)"></rect><rect x="270" y="100" width="10" height="10" fill="rgba(93.33%,93.33%,92.55%,1)"></rect><rect x="270" y="110" width="10" height="10" fill="rgba(93.33%,93.33%,92.55%,1)"></rect><rect x="270" y="120" width="10" height="10" fill="rgba(93.33%,93.33%,92.55%,1)"></rect><rect x="270" y="130" width="10" height="10" fill="rgba(93.33%,93.33%,92.55%,1)"></rect><rect x="270" y="140" width="10" height="10" fill="rgba(93.33%,93.33%,92.55%,1)"></rect><rect x="270" y="150" width="10" height="10" fill="rgba(93.33%,93.33%,92.55%,1)"></rect><rect x="270" y="160" width="10" height="10" fill="rgba(93.33%,93.33%,92.55%,1)"></rect><rect x="270" y="170" width="10" height="10" fill="rgba(93.33%,93.33%,92.55%,1)"></rect><rect x="270" y="180" width="10" height="10" fill="rgba(93.33%,93.33%,92.55%,1)"></rect><rect x="270" y="190" width="10" height="10" fill="rgba(93.33%,93.33%,92.55%,1)"></rect><rect x="270" y="200" width="10" height="10" fill="rgba(93.33%,93.33%,92.55%,1)"></rect><rect x="270" y="210" width="10" height="10" fill="rgba(93.33%,93.33%,92.55%,1)"></rect><rect x="270" y="310" width="10" height="10" fill="rgba(93.33%,93.33%,92.55%,1)"></rect><rect x="270" y="320" width="10" height="10" fill="rgba(93.33%,93.33%,92.55%,1)"></rect><rect x="270" y="330" width="10" height="10" fill="rgba(93.33%,93.33%,92.55%,1)"></rect><rect x="270" y="340" width="10" height="10" fill="rgba(93.33%,93.33%,92.55%,1)"></rect><rect x="280" y="90" width="10" height="10" fill="rgba(93.33%,93.33%,92.55%,1)"></rect><rect x="280" y="100" width="10" height="10" fill="rgba(93.33%,93.33%,92.55%,1)"></rect><rect x="280" y="110" width="10" height="10" fill="rgba(93.33%,93.33%,92.55%,1)"></rect><rect x="280" y="120" width="10" height="10" fill="rgba(93.33%,93.33%,92.55%,1)"></rect><rect x="280" y="130" width="10" height="10" fill="rgba(93.33%,93.33%,92.55%,1)"></rect><rect x="280" y="140" width="10" height="10" fill="rgba(93.33%,93.33%,92.55%,1)"></rect><rect x="280" y="150" width="10" height="10" fill="rgba(93.33%,93.33%,92.55%,1)"></rect><rect x="280" y="160" width="10" height="10" fill="rgba(93.33%,93.33%,92.55%,1)"></rect><rect x="280" y="170" width="10" height="10" fill="rgba(93.33%,93.33%,92.55%,1)"></rect><rect x="280" y="180" width="10" height="10" fill="rgba(93.33%,93.33%,92.55%,1)"></rect><rect x="280" y="320" width="10" height="10" fill="rgba(93.33%,93.33%,92.55%,1)"></rect><rect x="280" y="330" width="10" height="10" fill="rgba(93.33%,93.33%,92.55%,1)"></rect><rect x="280" y="340" width="10" height="10" fill="rgba(93.33%,93.33%,92.55%,1)"></rect><rect x="290" y="90" width="10" height="10" fill="rgba(93.33%,93.33%,92.55%,1)"></rect><rect x="290" y="100" width="10" height="10" fill="rgba(93.33%,93.33%,92.55%,1)"></rect><rect x="290" y="110" width="10" height="10" fill="rgba(93.33%,93.33%,92.55%,1)"></rect><rect x="290" y="120" width="10" height="10" fill="rgba(93.33%,93.33%,92.55%,1)"></rect><rect x="290" y="130" width="10" height="10" fill="rgba(93.33%,93.33%,92.55%,1)"></rect><rect x="290" y="140" width="10" height="10" fill="rgba(93.33%,93.33%,92.55%,1)"></rect><rect x="290" y="150" width="10" height="10" fill="rgba(93.33%,93.33%,92.55%,1)"></rect><rect x="290" y="160" width="10" height="10" fill="rgba(93.33%,93.33%,92.55%,1)"></rect><rect x="290" y="320" width="10" height="10" fill="rgba(93.33%,93.33%,92.55%,1)"></rect><rect x="290" y="330" width="10" height="10" fill="rgba(93.33%,93.33%,92.55%,1)"></rect><rect x="290" y="340" width="10" height="10" fill="rgba(93.33%,93.33%,92.55%,1)"></rect><rect x="300" y="90" width="10" height="10" fill="rgba(93.33%,93.33%,92.55%,1)"></rect><rect x="300" y="100" width="10" height="10" fill="rgba(93.33%,93.33%,92.55%,1)"></rect><rect x="300" y="110" width="10" height="10" fill="rgba(93.33%,93.33%,92.55%,1)"></rect><rect x="300" y="120" width="10" height="10" fill="rgba(93.33%,93.33%,92.55%,1)"></rect><rect x="300" y="130" width="10" height="10" fill="rgba(93.33%,93.33%,92.55%,1)"></rect><rect x="300" y="140" width="10" height="10" fill="rgba(93.33%,93.33%,92.55%,1)"></rect><rect x="300" y="150" width="10" height="10" fill="rgba(93.33%,93.33%,92.55%,1)"></rect><rect x="300" y="160" width="10" height="10" fill="rgba(93.33%,93.33%,92.55%,1)"></rect><rect x="300" y="310" width="10" height="10" fill="rgba(93.33%,93.33%,92.55%,1)"></rect><rect x="300" y="320" width="10" height="10" fill="rgba(93.33%,93.33%,92.55%,1)"></rect><rect x="300" y="330" width="10" height="10" fill="rgba(93.33%,93.33%,92.55%,1)"></rect><rect x="300" y="340" width="10" height="10" fill="rgba(93.33%,93.33%,92.55%,1)"></rect><rect x="310" y="100" width="10" height="10" fill="rgba(93.33%,93.33%,92.55%,1)"></rect><rect x="310" y="110" width="10" height="10" fill="rgba(93.33%,93.33%,92.55%,1)"></rect><rect x="310" y="120" width="10" height="10" fill="rgba(93.33%,93.33%,92.55%,1)"></rect><rect x="310" y="130" width="10" height="10" fill="rgba(93.33%,93.33%,92.55%,1)"></rect><rect x="310" y="140" width="10" height="10" fill="rgba(93.33%,93.33%,92.55%,1)"></rect><rect x="310" y="150" width="10" height="10" fill="rgba(93.33%,93.33%,92.55%,1)"></rect><rect x="310" y="160" width="10" height="10" fill="rgba(93.33%,93.33%,92.55%,1)"></rect><rect x="310" y="170" width="10" height="10" fill="rgba(93.33%,93.33%,92.55%,1)"></rect><rect x="310" y="300" width="10" height="10" fill="rgba(93.33%,93.33%,92.55%,1)"></rect><rect x="310" y="310" width="10" height="10" fill="rgba(93.33%,93.33%,92.55%,1)"></rect><rect x="310" y="320" width="10" height="10" fill="rgba(93.33%,93.33%,92.55%,1)"></rect><rect x="310" y="330" width="10" height="10" fill="rgba(93.33%,93.33%,92.55%,1)"></rect><rect x="320" y="130" width="10" height="10" fill="rgba(93.33%,93.33%,92.55%,1)"></rect><rect x="320" y="140" width="10" height="10" fill="rgba(93.33%,93.33%,92.55%,1)"></rect><rect x="320" y="150" width="10" height="10" fill="rgba(93.33%,93.33%,92.55%,1)"></rect><rect x="320" y="160" width="10" height="10" fill="rgba(93.33%,93.33%,92.55%,1)"></rect><rect x="320" y="170" width="10" height="10" fill="rgba(93.33%,93.33%,92.55%,1)"></rect><rect x="320" y="180" width="10" height="10" fill="rgba(93.33%,93.33%,92.55%,1)"></rect><rect x="320" y="290" width="10" height="10" fill="rgba(93.33%,93.33%,92.55%,1)"></rect><rect x="320" y="300" width="10" height="10" fill="rgba(93.33%,93.33%,92.55%,1)"></rect><rect x="320" y="310" width="10" height="10" fill="rgba(93.33%,93.33%,92.55%,1)"></rect><rect x="320" y="320" width="10" height="10" fill="rgba(93.33%,93.33%,92.55%,1)"></rect><rect x="330" y="160" width="10" height="10" fill="rgba(93.33%,93.33%,92.55%,1)"></rect><rect x="330" y="170" width="10" height="10" fill="rgba(93.33%,93.33%,92.55%,1)"></rect><rect x="330" y="180" width="10" height="10" fill="rgba(93.33%,93.33%,92.55%,1)"></rect><rect x="330" y="190" width="10" height="10" fill="rgba(93.33%,93.33%,92.55%,1)"></rect><rect x="330" y="200" width="10" height="10" fill="rgba(93.33%,93.33%,92.55%,1)"></rect><rect x="330" y="260" width="10" height="10" fill="rgba(93.33%,93.33%,92.55%,1)"></rect><rect x="330" y="270" width="10" height="10" fill="rgba(93.33%,93.33%,92.55%,1)"></rect><rect x="330" y="280" width="10" height="10" fill="rgba(93.33%,93.33%,92.55%,1)"></rect><rect x="330" y="290" width="10" height="10" fill="rgba(93.33%,93.33%,92.55%,1)"></rect><rect x="330" y="300" width="10" height="10" fill="rgba(93.33%,93.33%,92.55%,1)"></rect><rect x="330" y="310" width="10" height="10" fill="rgba(93.33%,93.33%,92.55%,1)"></rect><rect x="340" y="170" width="10" height="10" fill="rgba(93.33%,93.33%,92.55%,1)"></rect><rect x="340" y="180" width="10" height="10" fill="rgba(93.33%,93.33%,92.55%,1)"></rect><rect x="340" y="190" width="10" height="10" fill="rgba(93.33%,93.33%,92.55%,1)"></rect><rect x="340" y="200" width="10" height="10" fill="rgba(93.33%,93.33%,92.55%,1)"></rect><rect x="340" y="210" width="10" height="10" fill="rgba(93.33%,93.33%,92.55%,1)"></rect><rect x="340" y="220" width="10" height="10" fill="rgba(93.33%,93.33%,92.55%,1)"></rect><rect x="340" y="230" width="10" height="10" fill="rgba(93.33%,93.33%,92.55%,1)"></rect><rect x="340" y="240" width="10" height="10" fill="rgba(93.33%,93.33%,92.55%,1)"></rect><rect x="340" y="250" width="10" height="10" fill="rgba(93.33%,93.33%,92.55%,1)"></rect><rect x="340" y="260" width="10" height="10" fill="rgba(93.33%,93.33%,92.55%,1)"></rect><rect x="340" y="270" width="10" height="10" fill="rgba(93.33%,93.33%,92.55%,1)"></rect><rect x="340" y="280" width="10" height="10" fill="rgba(93.33%,93.33%,92.55%,1)"></rect><rect x="340" y="290" width="10" height="10" fill="rgba(93.33%,93.33%,92.55%,1)"></rect><rect x="340" y="300" width="10" height="10" fill="rgba(93.33%,93.33%,92.55%,1)"></rect><rect x="350" y="180" width="10" height="10" fill="rgba(93.33%,93.33%,92.55%,1)"></rect><rect x="350" y="190" width="10" height="10" fill="rgba(93.33%,93.33%,92.55%,1)"></rect><rect x="350" y="200" width="10" height="10" fill="rgba(93.33%,93.33%,92.55%,1)"></rect><rect x="350" y="210" width="10" height="10" fill="rgba(93.33%,93.33%,92.55%,1)"></rect><rect x="350" y="220" width="10" height="10" fill="rgba(93.33%,93.33%,92.55%,1)"></rect><rect x="350" y="230" width="10" height="10" fill="rgba(93.33%,93.33%,92.55%,1)"></rect><rect x="350" y="240" width="10" height="10" fill="rgba(93.33%,93.33%,92.55%,1)"></rect><rect x="350" y="250" width="10" height="10" fill="rgba(93.33%,93.33%,92.55%,1)"></rect><rect x="350" y="260" width="10" height="10" fill="rgba(93.33%,93.33%,92.55%,1)"></rect><rect x="350" y="270" width="10" height="10" fill="rgba(93.33%,93.33%,92.55%,1)"></rect><rect x="350" y="280" width="10" height="10" fill="rgba(93.33%,93.33%,92.55%,1)"></rect><rect x="360" y="200" width="10" height="10" fill="rgba(93.33%,93.33%,92.55%,1)"></rect><rect x="360" y="210" width="10" height="10" fill="rgba(93.33%,93.33%,92.55%,1)"></rect><rect x="360" y="220" width="10" height="10" fill="rgba(93.33%,93.33%,92.55%,1)"></rect><rect x="360" y="230" width="10" height="10" fill="rgba(93.33%,93.33%,92.55%,1)"></rect><rect x="360" y="240" width="10" height="10" fill="rgba(93.33%,93.33%,92.55%,1)"></rect><rect x="360" y="250" width="10" height="10" fill="rgba(93.33%,93.33%,92.55%,1)"></rect><rect x="360" y="260" width="10" height="10" fill="rgba(93.33%,93.33%,92.55%,1)"></rect></g><polygon fill="none" stroke="rgba(80%,0%,0%,1)" stroke-width="2" points="150,140 160,140 160,130 170,130 170,120 180,120 180,110 190,110 200,110 210,110 220,110 230,110 240,110 250,110 260,110 270,110 270,100 280,100 280,90 290,90 300,90 310,90 310,100 320,100 320,110 320,120 320,130 330,130 330,140 330,150 330,160 340,160 340,170 350,170 350,180 360,180 360,190 360,200 370,200 370,210 370,220 370,230 370,240 370,250 370,260 370,270 360,270 360,280 360,290 350,290 350,300 350,310 340,310 340,320 330,320 330,330 320,330 320,340 310,340 310,350 300,350 290,350 280,350 270,350 270,340 260,340 260,330 250,330 250,320 240,320 240,310 230,310 230,300 230,290 230,280 220,280 220,270 210,270 210,260 200,260 200,250 200,240 200,230 200,220 200,210 190,210 180,210 180,200 170,200 160,200 160,190 150,190 150,180 150,170 150,160 150,150"></polygon><polygon fill="none" stroke="rgba(80%,0%,0%,1)" stroke-width="2" points="250,240 250,250 250,260 250,270 260,270 260,280 260,290 260,300 260,310 270,310 280,310 280,320 290,320 300,320 300,310 310,310 310,300 320,300 320,290 330,290 330,280 330,270 330,260 340,260 340,250 340,240 340,230 340,220 340,210 330,210 330,200 330,190 320,190 320,180 310,180 310,170 300,170 290,170 290,180 290,190 280,190 280,200 280,210 280,220 270,220 270,230 260,230 260,240"></polygon></g><g><g><rect x="280" y="240" width="10" height="10" fill="rgba(93.33%,93.33%,92.55%,1)"></rect><rect x="280" y="250" width="10" height="10" fill="rgba(93.33%,93.33%,92.55%,1)"></rect><rect x="280" y="260" width="10" height="10" fill="rgba(93.33%,93.33%,92.55%,1)"></rect><rect x="280" y="270" width="10" height="10" fill="rgba(93.33%,93.33%,92.55%,1)"></rect><rect x="290" y="220" width="10" height="10" fill="rgba(93.33%,93.33%,92.55%,1)"></rect><rect x="290" y="230" width="10" height="10" fill="rgba(93.33%,93.33%,92.55%,1)"></rect><rect x="290" y="240" width="10" height="10" fill="rgba(93.33%,93.33%,92.55%,1)"></rect><rect x="290" y="250" width="10" height="10" fill="rgba(93.33%,93.33%,92.55%,1)"></rect><rect x="290" y="260" width="10" height="10" fill="rgba(93.33%,93.33%,92.55%,1)"></rect><rect x="290" y="270" width="10" height="10" fill="rgba(93.33%,93.33%,92.55%,1)"></rect><rect x="290" y="280" width="10" height="10" fill="rgba(93.33%,93.33%,92.55%,1)"></rect><rect x="300" y="220" width="10" height="10" fill="rgba(93.33%,93.33%,92.55%,1)"></rect><rect x="300" y="230" width="10" height="10" fill="rgba(93.33%,93.33%,92.55%,1)"></rect><rect x="300" y="240" width="10" height="10" fill="rgba(93.33%,93.33%,92.55%,1)"></rect><rect x="300" y="250" width="10" height="10" fill="rgba(93.33%,93.33%,92.55%,1)"></rect><rect x="300" y="260" width="10" height="10" fill="rgba(93.33%,93.33%,92.55%,1)"></rect><rect x="300" y="270" width="10" height="10" fill="rgba(93.33%,93.33%,92.55%,1)"></rect><rect x="310" y="220" width="10" height="10" fill="rgba(93.33%,93.33%,92.55%,1)"></rect><rect x="310" y="230" width="10" height="10" fill="rgba(93.33%,93.33%,92.55%,1)"></rect><rect x="310" y="240" width="10" height="10" fill="rgba(93.33%,93.33%,92.55%,1)"></rect><rect x="310" y="250" width="10" height="10" fill="rgba(93.33%,93.33%,92.55%,1)"></rect><rect x="310" y="260" width="10" height="10" fill="rgba(93.33%,93.33%,92.55%,1)"></rect><rect x="320" y="230" width="10" height="10" fill="rgba(93.33%,93.33%,92.55%,1)"></rect><rect x="320" y="240" width="10" height="10" fill="rgba(93.33%,93.33%,92.55%,1)"></rect><rect x="320" y="250" width="10" height="10" fill="rgba(93.33%,93.33%,92.55%,1)"></rect></g><polygon fill="none" stroke="rgba(20.39%,39.61%,64.31%,1)" stroke-width="2" points="280,240 290,240 290,230 290,220 300,220 310,220 320,220 320,230 330,230 330,240 330,250 330,260 320,260 320,270 310,270 310,280 300,280 300,290 290,290 290,280 280,280 280,270 280,260 280,250"></polygon></g><g><g><rect x="380" y="150" width="10" height="10" fill="rgba(93.33%,93.33%,92.55%,1)"></rect><rect x="390" y="140" width="10" height="10" fill="rgba(93.33%,93.33%,92.55%,1)"></rect><rect x="390" y="150" width="10" height="10" fill="rgba(93.33%,93.33%,92.55%,1)"></rect><rect x="390" y="160" width="10" height="10" fill="rgba(93.33%,93.33%,92.55%,1)"></rect><rect x="390" y="170" width="10" height="10" fill="rgba(93.33%,93.33%,92.55%,1)"></rect><rect x="390" y="180" width="10" height="10" fill="rgba(93.33%,93.33%,92.55%,1)"></rect><rect x="400" y="130" width="10" height="10" fill="rgba(93.33%,93.33%,92.55%,1)"></rect><rect x="400" y="140" width="10" height="10" fill="rgba(93.33%,93.33%,92.55%,1)"></rect><rect x="400" y="150" width="10" height="10" fill="rgba(93.33%,93.33%,92.55%,1)"></rect><rect x="400" y="160" width="10" height="10" fill="rgba(93.33%,93.33%,92.55%,1)"></rect><rect x="400" y="170" width="10" height="10" fill="rgba(93.33%,93.33%,92.55%,1)"></rect><rect x="400" y="180" width="10" height="10" fill="rgba(93.33%,93.33%,92.55%,1)"></rect><rect x="400" y="190" width="10" height="10" fill="rgba(93.33%,93.33%,92.55%,1)"></rect><rect x="400" y="230" width="10" height="10" fill="rgba(93.33%,93.33%,92.55%,1)"></rect><rect x="400" y="240" width="10" height="10" fill="rgba(93.33%,93.33%,92.55%,1)"></rect><rect x="400" y="250" width="10" height="10" fill="rgba(93.33%,93.33%,92.55%,1)"></rect><rect x="400" y="260" width="10" height="10" fill="rgba(93.33%,93.33%,92.55%,1)"></rect><rect x="400" y="270" width="10" height="10" fill="rgba(93.33%,93.33%,92.55%,1)"></rect><rect x="400" y="280" width="10" height="10" fill="rgba(93.33%,93.33%,92.55%,1)"></rect><rect x="400" y="290" width="10" height="10" fill="rgba(93.33%,93.33%,92.55%,1)"></rect><rect x="400" y="300" width="10" height="10" fill="rgba(93.33%,93.33%,92.55%,1)"></rect><rect x="400" y="310" width="10" height="10" fill="rgba(93.33%,93.33%,92.55%,1)"></rect><rect x="400" y="320" width="10" height="10" fill="rgba(93.33%,93.33%,92.55%,1)"></rect><rect x="410" y="130" width="10" height="10" fill="rgba(93.33%,93.33%,92.55%,1)"></rect><rect x="410" y="140" width="10" height="10" fill="rgba(93.33%,93.33%,92.55%,1)"></rect><rect x="410" y="150" width="10" height="10" fill="rgba(93.33%,93.33%,92.55%,1)"></rect><rect x="410" y="160" width="10" height="10" fill="rgba(93.33%,93.33%,92.55%,1)"></rect><rect x="410" y="170" width="10" height="10" fill="rgba(93.33%,93.33%,92.55%,1)"></rect><rect x="410" y="180" width="10" height="10" fill="rgba(93.33%,93.33%,92.55%,1)"></rect><rect x="410" y="190" width="10" height="10" fill="rgba(93.33%,93.33%,92.55%,1)"></rect><rect x="410" y="200" width="10" height="10" fill="rgba(93.33%,93.33%,92.55%,1)"></rect><rect x="410" y="210" width="10" height="10" fill="rgba(93.33%,93.33%,92.55%,1)"></rect><rect x="410" y="220" width="10" height="10" fill="rgba(93.33%,93.33%,92.55%,1)"></rect><rect x="410" y="230" width="10" height="10" fill="rgba(93.33%,93.33%,92.55%,1)"></rect><rect x="410" y="240" width="10" height="10" fill="rgba(93.33%,93.33%,92.55%,1)"></rect><rect x="410" y="250" width="10" height="10" fill="rgba(93.33%,93.33%,92.55%,1)"></rect><rect x="410" y="260" width="10" height="10" fill="rgba(93.33%,93.33%,92.55%,1)"></rect><rect x="410" y="270" width="10" height="10" fill="rgba(93.33%,93.33%,92.55%,1)"></rect><rect x="410" y="280" width="10" height="10" fill="rgba(93.33%,93.33%,92.55%,1)"></rect><rect x="410" y="290" width="10" height="10" fill="rgba(93.33%,93.33%,92.55%,1)"></rect><rect x="410" y="300" width="10" height="10" fill="rgba(93.33%,93.33%,92.55%,1)"></rect><rect x="410" y="310" width="10" height="10" fill="rgba(93.33%,93.33%,92.55%,1)"></rect><rect x="410" y="320" width="10" height="10" fill="rgba(93.33%,93.33%,92.55%,1)"></rect><rect x="410" y="330" width="10" height="10" fill="rgba(93.33%,93.33%,92.55%,1)"></rect><rect x="420" y="140" width="10" height="10" fill="rgba(93.33%,93.33%,92.55%,1)"></rect><rect x="420" y="150" width="10" height="10" fill="rgba(93.33%,93.33%,92.55%,1)"></rect><rect x="420" y="160" width="10" height="10" fill="rgba(93.33%,93.33%,92.55%,1)"></rect><rect x="420" y="170" width="10" height="10" fill="rgba(93.33%,93.33%,92.55%,1)"></rect><rect x="420" y="180" width="10" height="10" fill="rgba(93.33%,93.33%,92.55%,1)"></rect><rect x="420" y="190" width="10" height="10" fill="rgba(93.33%,93.33%,92.55%,1)"></rect><rect x="420" y="200" width="10" height="10" fill="rgba(93.33%,93.33%,92.55%,1)"></rect><rect x="420" y="210" width="10" height="10" fill="rgba(93.33%,93.33%,92.55%,1)"></rect><rect x="420" y="220" width="10" height="10" fill="rgba(93.33%,93.33%,92.55%,1)"></rect><rect x="420" y="230" width="10" height="10" fill="rgba(93.33%,93.33%,92.55%,1)"></rect><rect x="420" y="240" width="10" height="10" fill="rgba(93.33%,93.33%,92.55%,1)"></rect><rect x="420" y="250" width="10" height="10" fill="rgba(93.33%,93.33%,92.55%,1)"></rect><rect x="420" y="260" width="10" height="10" fill="rgba(93.33%,93.33%,92.55%,1)"></rect><rect x="420" y="270" width="10" height="10" fill="rgba(93.33%,93.33%,92.55%,1)"></rect><rect x="420" y="280" width="10" height="10" fill="rgba(93.33%,93.33%,92.55%,1)"></rect><rect x="420" y="290" width="10" height="10" fill="rgba(93.33%,93.33%,92.55%,1)"></rect><rect x="420" y="300" width="10" height="10" fill="rgba(93.33%,93.33%,92.55%,1)"></rect><rect x="420" y="310" width="10" height="10" fill="rgba(93.33%,93.33%,92.55%,1)"></rect><rect x="420" y="320" width="10" height="10" fill="rgba(93.33%,93.33%,92.55%,1)"></rect><rect x="420" y="330" width="10" height="10" fill="rgba(93.33%,93.33%,92.55%,1)"></rect><rect x="430" y="140" width="10" height="10" fill="rgba(93.33%,93.33%,92.55%,1)"></rect><rect x="430" y="150" width="10" height="10" fill="rgba(93.33%,93.33%,92.55%,1)"></rect><rect x="430" y="160" width="10" height="10" fill="rgba(93.33%,93.33%,92.55%,1)"></rect><rect x="430" y="170" width="10" height="10" fill="rgba(93.33%,93.33%,92.55%,1)"></rect><rect x="430" y="180" width="10" height="10" fill="rgba(93.33%,93.33%,92.55%,1)"></rect><rect x="430" y="190" width="10" height="10" fill="rgba(93.33%,93.33%,92.55%,1)"></rect><rect x="430" y="200" width="10" height="10" fill="rgba(93.33%,93.33%,92.55%,1)"></rect><rect x="430" y="210" width="10" height="10" fill="rgba(93.33%,93.33%,92.55%,1)"></rect><rect x="430" y="220" width="10" height="10" fill="rgba(93.33%,93.33%,92.55%,1)"></rect><rect x="430" y="230" width="10" height="10" fill="rgba(93.33%,93.33%,92.55%,1)"></rect><rect x="430" y="240" width="10" height="10" fill="rgba(93.33%,93.33%,92.55%,1)"></rect><rect x="430" y="250" width="10" height="10" fill="rgba(93.33%,93.33%,92.55%,1)"></rect><rect x="430" y="260" width="10" height="10" fill="rgba(93.33%,93.33%,92.55%,1)"></rect><rect x="430" y="270" width="10" height="10" fill="rgba(93.33%,93.33%,92.55%,1)"></rect><rect x="430" y="280" width="10" height="10" fill="rgba(93.33%,93.33%,92.55%,1)"></rect><rect x="430" y="290" width="10" height="10" fill="rgba(93.33%,93.33%,92.55%,1)"></rect><rect x="430" y="300" width="10" height="10" fill="rgba(93.33%,93.33%,92.55%,1)"></rect><rect x="430" y="310" width="10" height="10" fill="rgba(93.33%,93.33%,92.55%,1)"></rect><rect x="430" y="320" width="10" height="10" fill="rgba(93.33%,93.33%,92.55%,1)"></rect><rect x="430" y="330" width="10" height="10" fill="rgba(93.33%,93.33%,92.55%,1)"></rect><rect x="440" y="140" width="10" height="10" fill="rgba(93.33%,93.33%,92.55%,1)"></rect><rect x="440" y="150" width="10" height="10" fill="rgba(93.33%,93.33%,92.55%,1)"></rect><rect x="440" y="160" width="10" height="10" fill="rgba(93.33%,93.33%,92.55%,1)"></rect><rect x="440" y="170" width="10" height="10" fill="rgba(93.33%,93.33%,92.55%,1)"></rect><rect x="440" y="180" width="10" height="10" fill="rgba(93.33%,93.33%,92.55%,1)"></rect><rect x="440" y="190" width="10" height="10" fill="rgba(93.33%,93.33%,92.55%,1)"></rect><rect x="440" y="200" width="10" height="10" fill="rgba(93.33%,93.33%,92.55%,1)"></rect><rect x="440" y="210" width="10" height="10" fill="rgba(93.33%,93.33%,92.55%,1)"></rect><rect x="440" y="220" width="10" height="10" fill="rgba(93.33%,93.33%,92.55%,1)"></rect><rect x="440" y="230" width="10" height="10" fill="rgba(93.33%,93.33%,92.55%,1)"></rect><rect x="440" y="240" width="10" height="10" fill="rgba(93.33%,93.33%,92.55%,1)"></rect><rect x="440" y="250" width="10" height="10" fill="rgba(93.33%,93.33%,92.55%,1)"></rect><rect x="440" y="260" width="10" height="10" fill="rgba(93.33%,93.33%,92.55%,1)"></rect><rect x="440" y="270" width="10" height="10" fill="rgba(93.33%,93.33%,92.55%,1)"></rect><rect x="440" y="280" width="10" height="10" fill="rgba(93.33%,93.33%,92.55%,1)"></rect><rect x="440" y="290" width="10" height="10" fill="rgba(93.33%,93.33%,92.55%,1)"></rect><rect x="440" y="300" width="10" height="10" fill="rgba(93.33%,93.33%,92.55%,1)"></rect><rect x="440" y="310" width="10" height="10" fill="rgba(93.33%,93.33%,92.55%,1)"></rect><rect x="440" y="320" width="10" height="10" fill="rgba(93.33%,93.33%,92.55%,1)"></rect><rect x="440" y="330" width="10" height="10" fill="rgba(93.33%,93.33%,92.55%,1)"></rect><rect x="450" y="150" width="10" height="10" fill="rgba(93.33%,93.33%,92.55%,1)"></rect><rect x="450" y="160" width="10" height="10" fill="rgba(93.33%,93.33%,92.55%,1)"></rect><rect x="450" y="170" width="10" height="10" fill="rgba(93.33%,93.33%,92.55%,1)"></rect><rect x="450" y="180" width="10" height="10" fill="rgba(93.33%,93.33%,92.55%,1)"></rect><rect x="450" y="190" width="10" height="10" fill="rgba(93.33%,93.33%,92.55%,1)"></rect><rect x="450" y="200" width="10" height="10" fill="rgba(93.33%,93.33%,92.55%,1)"></rect><rect x="450" y="210" width="10" height="10" fill="rgba(93.33%,93.33%,92.55%,1)"></rect><rect x="450" y="220" width="10" height="10" fill="rgba(93.33%,93.33%,92.55%,1)"></rect><rect x="450" y="230" width="10" height="10" fill="rgba(93.33%,93.33%,92.55%,1)"></rect><rect x="450" y="240" width="10" height="10" fill="rgba(93.33%,93.33%,92.55%,1)"></rect><rect x="450" y="250" width="10" height="10" fill="rgba(93.33%,93.33%,92.55%,1)"></rect><rect x="450" y="260" width="10" height="10" fill="rgba(93.33%,93.33%,92.55%,1)"></rect><rect x="450" y="270" width="10" height="10" fill="rgba(93.33%,93.33%,92.55%,1)"></rect><rect x="450" y="280" width="10" height="10" fill="rgba(93.33%,93.33%,92.55%,1)"></rect><rect x="450" y="290" width="10" height="10" fill="rgba(93.33%,93.33%,92.55%,1)"></rect><rect x="450" y="300" width="10" height="10" fill="rgba(93.33%,93.33%,92.55%,1)"></rect><rect x="450" y="310" width="10" height="10" fill="rgba(93.33%,93.33%,92.55%,1)"></rect><rect x="450" y="320" width="10" height="10" fill="rgba(93.33%,93.33%,92.55%,1)"></rect><rect x="450" y="330" width="10" height="10" fill="rgba(93.33%,93.33%,92.55%,1)"></rect><rect x="460" y="180" width="10" height="10" fill="rgba(93.33%,93.33%,92.55%,1)"></rect><rect x="460" y="190" width="10" height="10" fill="rgba(93.33%,93.33%,92.55%,1)"></rect><rect x="460" y="200" width="10" height="10" fill="rgba(93.33%,93.33%,92.55%,1)"></rect><rect x="460" y="210" width="10" height="10" fill="rgba(93.33%,93.33%,92.55%,1)"></rect><rect x="460" y="220" width="10" height="10" fill="rgba(93.33%,93.33%,92.55%,1)"></rect><rect x="460" y="290" width="10" height="10" fill="rgba(93.33%,93.33%,92.55%,1)"></rect><rect x="460" y="300" width="10" height="10" fill="rgba(93.33%,93.33%,92.55%,1)"></rect><rect x="460" y="310" width="10" height="10" fill="rgba(93.33%,93.33%,92.55%,1)"></rect><rect x="460" y="320" width="10" height="10" fill="rgba(93.33%,93.33%,92.55%,1)"></rect><rect x="470" y="180" width="10" height="10" fill="rgba(93.33%,93.33%,92.55%,1)"></rect><rect x="470" y="190" width="10" height="10" fill="rgba(93.33%,93.33%,92.55%,1)"></rect><rect x="470" y="200" width="10" height="10" fill="rgba(93.33%,93.33%,92.55%,1)"></rect><rect x="470" y="210" width="10" height="10" fill="rgba(93.33%,93.33%,92.55%,1)"></rect><rect x="480" y="190" width="10" height="10" fill="rgba(93.33%,93.33%,92.55%,1)"></rect></g><polygon fill="none" stroke="rgba(45.1%,82.35%,8.63%,1)" stroke-width="2" points="380,150 390,150 390,140 400,140 400,130 410,130 420,130 420,140 430,140 440,140 450,140 450,150 460,150 460,160 460,170 460,180 470,180 480,180 480,190 490,190 490,200 480,200 480,210 480,220 470,220 470,230 460,230 460,240 460,250 460,260 460,270 460,280 460,290 470,290 470,300 470,310 470,320 470,330 460,330 460,340 450,340 440,340 430,340 420,340 410,340 410,330 400,330 400,320 400,310 400,300 400,290 400,280 400,270 400,260 400,250 400,240 400,230 410,230 410,220 410,210 410,200 400,200 400,190 390,190 390,180 390,170 390,160 380,160"></polygon></g><g><g><rect x="360" y="370" width="10" height="10" fill="rgba(0%,0%,0%,0)"></rect><rect x="370" y="360" width="10" height="10" fill="rgba(0%,0%,0%,0)"></rect><rect x="370" y="370" width="10" height="10" fill="rgba(0%,0%,0%,0)"></rect><rect x="370" y="380" width="10" height="10" fill="rgba(0%,0%,0%,0)"></rect><rect x="380" y="370" width="10" height="10" fill="rgba(0%,0%,0%,0)"></rect></g><polygon fill="none" stroke="rgba(0%,0%,0%,1)" stroke-width="2" points="360,370 370,370 370,360 380,360 380,370 390,370 390,380 380,380 380,390 370,390 370,380 360,380"></polygon></g></svg>