<?xml version="1.0" standalone="no"?>
<svg xmlns:xlink="http://www.w3.org/1999/xlink" xmlns="http://www.w3.org/2000/svg" width="500" height="500" version="1.1"><g id="_unnamed_" transform="translate(250,250) scale(1,1) rotate(0)"><polygon id="_unnamed_" points="-4,4 4,4 0,-8" fill="rgb(0,0,0)" fill-opacity="1" stroke="none" stroke-opacity="0" stroke-width="0" stroke-linecap="butt" stroke-linejoin="miter" opacity="1" transform="translate(-147.66472908568454,-62.899340714458795) scale(1,1) rotate(65.98977410584234)" stroke-dashoffset="0" stroke-dasharray=""></polygon><polygon id="_unnamed_" points="-4,4 4,4 0,-8" fill="rgb(0,0,0)" fill-opacity="1" stroke="none" stroke-opacity="0" stroke-width="0" stroke-linecap="butt" stroke-linejoin="miter" opacity="1" transform="translate(-10.212340687504016,-83.82616235492247) scale(1,1) rotate(55.64087367141509)" stroke-dashoffset="0" stroke-dasharray=""></polygon><polygon id="_unnamed_" points="-4,4 4,4 0,-8" fill="rgb(0,0,0)" fill-opacity="1" stroke="none" stroke-opacity="0" stroke-width="0" stroke-linecap="butt" stroke-linejoin="miter" opacity="1" transform="translate(212.6342768990106,200.45108072837166) scale(1,1) rotate(-103.8011546424448)" stroke-dashoffset="0" stroke-dasharray=""></polygon><polygon id="_unnamed_" points="-4,4 4,4 0,-8" fill="rgb(0,0,0)" fill-opacity="1" stroke="none" stroke-opacity="0" stroke-width="0" stroke-linecap="butt" stroke-linejoin="miter" opacity="1" transform="translate(140.04237627269032,-215.25472943116046) scale(1,1) rotate(175.38916121005482)" stroke-dashoffset="0" stroke-dasharray=""></polygon><polygon id="_unnamed_" points="-4,4 4,4 0,-8" fill="rgb(0,0,0)" fill-opacity="1" stroke="none" stroke-opacity="0" stroke-width="0" stroke-linecap="butt" stroke-linejoin="miter" opacity="1" transform="translate(-11.832244093222956,-192.46959922027574) scale(1,1) rotate(55.44143662858165)" stroke-dashoffset="0" stroke-dasharray=""></polygon><polygon id="_unnamed_" points="-4,4 4,4 0,-8" fill="rgb(0,0,0)" fill-opacity="1" stroke="none" stroke-opacity="0" stroke-width="0" stroke-linecap="butt" stroke-linejoin="miter" opacity="1" transform="translate(-157.36882066386596,-105.32260835505609) scale(1,1) rotate(1.916063582471114)" stroke-dashoffset="0" stroke-dasharray=""></polygon><polygon id="_unnamed_" points="-4,4 4,4 0,-8" fill="rgb(0,0,0)" fill-opacity="1" stroke="none" stroke-opacity="0" stroke-width="0" stroke-linecap="butt" stroke-linejoin="miter" opacity="1" transform="translate(-134.2406759695009,118.18147439299798) scale(1,1) rotate(61.74690598586498)" stroke-dashoffset="0" stroke-dasharray=""></polygon><polygon id="_unnamed_" points="-4,4 4,4 0,-8" fill="rgb(0,0,0)" fill-opacity="1" stroke="none" stroke-opacity="0" stroke-width="0" stroke-linecap="butt" stroke-linejoin="miter" opacity="1" transform="translate(38.8510562001127,-123.54487105635344) scale(1,1) rotate(32.760686035153945)" stroke-dashoffset="0" stroke-dasharray=""></polygon><polygon id="_unnamed_" points="-4,4 4,4 0,-8" fill="rgb(0,0,0)" fill-opacity="1" stroke="none" stroke-opacity="0" stroke-width="0" stroke-linecap="butt" stroke-linejoin="miter" opacity="1" transform="translate(59.25763640824891,-140.66217932094435) scale(1,1) rotate(-35.755100552668594)" stroke-dashoffset="0" stroke-dasharray=""></polygon><polygon id="_unnamed_" points="-4,4 4,4 0,-8" fill="rgb(0,0,0)" fill-opacity="1" stroke="none" stroke-opacity="0" stroke-width="0" stroke-linecap="butt" stroke-linejoin="miter" opacity="1" transform="translate(78.21782666742772,-115.11168156716369) scale(1,1) rotate(65.96705260805822)" stroke-dashoffset="0" stroke-dasharray=""></polygon><polygon id="_unnamed_" points="-4,4 4,4 0,-8" fill="rgb(0,0,0)" fill-opacity="1" stroke="none" stroke-opacity="0" stroke-width="0" stroke-linecap="butt" stroke-linejoin="miter" opacity="1" transform="translate(195.9388391948279,-36.90616498389857) scale(1,1) rotate(-0.23037118772998164)" stroke-dashoffset="0" stroke-dasharray=""></polygon><polygon id="_unnamed_" points="-4,4 4,4 0,-8" fill="rgb(0,0,0)" fill-opacity="1" stroke="none" stroke-opacity="0" stroke-width="0" stroke-linecap="butt" stroke-linejoin="miter" opacity="1" transform="translate(32.168872427129074,-97.66086650670597) scale(1,1) rotate(26.915237070395207)" stroke-dashoffset="0" stroke-dasharray=""></polygon><polygon id="_unnamed_" points="-4,4 4,4 0,-8" fill="rgb(0,0,0)" fill-opacity="1" stroke="none" stroke-opacity="0" stroke-width="0" stroke-linecap="butt" stroke-linejoin="miter" opacity="1" transform="translate(216.84530445944333,-160.66111892205276) scale(1,1) rotate(-16.557280957973173)" stroke-dashoffset="0" stroke-dasharray=""></polygon><polygon id="_unnamed_" points="-4,4 4,4 0,-8" fill="rgb(0,0,0)" fill-opacity="1" stroke="none" stroke-opacity="0" stroke-width="0" stroke-linecap="butt" stroke-linejoin="miter" opacity="1" transform="translate(106.79628156378769,-185.8881889952409) scale(1,1) rotate(38.71224489954699)" stroke-dashoffset="0" stroke-dasharray=""></polygon><polygon id="_unnamed_" points="-4,4 4,4 0,-8" fill="rgb(0,0,0)" fill-opacity="1" stroke="none" stroke-opacity="0" stroke-width="0" stroke-linecap="butt" stroke-linejoin="miter" opacity="1" transform="translate(-73.50431221474362,73.63952783083951) scale(1,1) rotate(41.57621873632236)" stroke-dashoffset="0" stroke-dasharray=""></polygon><polygon id="_unnamed_" points="-4,4 4,4 0,-8" fill="rgb(0,0,0)" fill-opacity="1" stroke="none" stroke-opacity="0" stroke-width="0" stroke-linecap="butt" stroke-linejoin="miter" opacity="1" transform="translate(-24.98128046304625,-68.43957155530678) scale(1,1) rotate(56.00703137136967)" stroke-dashoffset="0" stroke-dasharray=""></polygon><polygon id="_unnamed_" points="-4,4 4,4 0,-8" fill="rgb(0,0,0)" fill-opacity="1" stroke="none" stroke-opacity="0" stroke-width="0" stroke-linecap="butt" stroke-linejoin="miter" opacity="1" transform="translate(125.73459087614953,246.72510842912766) scale(1,1) rotate(49.11756756544103)" stroke-dashoffset="0" stroke-dasharray=""></polygon><polygon id="_unnamed_" points="-4,4 4,4 0,-8" fill="rgb(0,0,0)" fill-opacity="1" stroke="none" stroke-opacity="0" stroke-width="0" stroke-linecap="butt" stroke-linejoin="miter" opacity="1" transform="translate(109.88339329340613,189.19832941325612) scale(1,1) rotate(5.368753942481195)" stroke-dashoffset="0" stroke-dasharray=""></polygon><polygon id="_unnamed_" points="-4,4 4,4 0,-8" fill="rgb(0,0,0)" fill-opacity="1" stroke="none" stroke-opacity="0" stroke-width="0" stroke-linecap="butt" stroke-linejoin="miter" opacity="1" transform="translate(-77.06594372478922,181.65286500399282) scale(1,1) rotate(124.18255115895519)" stroke-dashoffset="0" stroke-dasharray=""></polygon><polygon id="_unnamed_" points="-4,4 4,4 0,-8" fill="rgb(0,0,0)" fill-opacity="1" stroke="none" stroke-opacity="0" stroke-width="0" stroke-linecap="butt" stroke-linejoin="miter" opacity="1" transform="translate(-91.45427582736714,-245.27236981015554) scale(1,1) rotate(27.12158016714009)" stroke-dashoffset="0" stroke-dasharray=""></polygon><polygon id="_unnamed_" points="-4,4 4,4 0,-8" fill="rgb(0,0,0)" fill-opacity="1" stroke="none" stroke-opacity="0" stroke-width="0" stroke-linecap="butt" stroke-linejoin="miter" opacity="1" transform="translate(228.73319523727932,-131.16294901221545) scale(1,1) rotate(16.603907756474165)" stroke-dashoffset="0" stroke-dasharray=""></polygon><polygon id="_unnamed_" points="-4,4 4,4 0,-8" fill="rgb(0,0,0)" fill-opacity="1" stroke="none" stroke-opacity="0" stroke-width="0" stroke-linecap="butt" stroke-linejoin="miter" opacity="1" transform="translate(162.65921873540978,73.38013420318639) scale(1,1) rotate(27.0892139732951)" stroke-dashoffset="0" stroke-dasharray=""></polygon><polygon id="_unnamed_" points="-4,4 4,4 0,-8" fill="rgb(0,0,0)" fill-opacity="1" stroke="none" stroke-opacity="0" stroke-width="0" stroke-linecap="butt" stroke-linejoin="miter" opacity="1" transform="translate(-54.51243898189051,-203.881476942773) scale(1,1) rotate(16.35617117967233)" stroke-dashoffset="0" stroke-dasharray=""></polygon><polygon id="_unnamed_" points="-4,4 4,4 0,-8" fill="rgb(0,0,0)" fill-opacity="1" stroke="none" stroke-opacity="0" stroke-width="0" stroke-linecap="butt" stroke-linejoin="miter" opacity="1" transform="translate(98.02902583425943,-73.07865230623567) scale(1,1) rotate(42.19808093255595)" stroke-dashoffset="0" stroke-dasharray=""></polygon><polygon id="_unnamed_" points="-4,4 4,4 0,-8" fill="rgb(0,0,0)" fill-opacity="1" stroke="none" stroke-opacity="0" stroke-width="0" stroke-linecap="butt" stroke-linejoin="miter" opacity="1" transform="translate(21.409334913123857,-174.44291723563293) scale(1,1) rotate(-42.81798231843404)" stroke-dashoffset="0" stroke-dasharray=""></polygon><polygon id="_unnamed_" points="-4,4 4,4 0,-8" fill="rgb(0,0,0)" fill-opacity="1" stroke="none" stroke-opacity="0" stroke-width="0" stroke-linecap="butt" stroke-linejoin="miter" opacity="1" transform="translate(110.85607439134664,-20.63401269150941) scale(1,1) rotate(-24.61742966785464)" stroke-dashoffset="0" stroke-dasharray=""></polygon><polygon id="_unnamed_" points="-4,4 4,4 0,-8" fill="rgb(0,0,0)" fill-opacity="1" stroke="none" stroke-opacity="0" stroke-width="0" stroke-linecap="butt" stroke-linejoin="miter" opacity="1" transform="translate(-186.37305814426927,41.995083854498745) scale(1,1) rotate(45.16720428737353)" stroke-dashoffset="0" stroke-dasharray=""></polygon><polygon id="_unnamed_" points="-4,4 4,4 0,-8" fill="rgb(0,0,0)" fill-opacity="1" stroke="none" stroke-opacity="0" stroke-width="0" stroke-linecap="butt" stroke-linejoin="miter" opacity="1" transform="translate(56.5978958745176,72.96784430181725) scale(1,1) rotate(64.05446976004752)" stroke-dashoffset="0" stroke-dasharray=""></polygon><polygon id="_unnamed_" points="-4,4 4,4 0,-8" fill="rgb(0,0,0)" fill-opacity="1" stroke="none" stroke-opacity="0" stroke-width="0" stroke-linecap="butt" stroke-linejoin="miter" opacity="1" transform="translate(114.28821034569134,-35.90854680480554) scale(1,1) rotate(82.36549356019792)" stroke-dashoffset="0" stroke-dasharray=""></polygon><polygon id="_unnamed_" points="-4,4 4,4 0,-8" fill="rgb(0,0,0)" fill-opacity="1" stroke="none" stroke-opacity="0" stroke-width="0" stroke-linecap="butt" stroke-linejoin="miter" opacity="1" transform="translate(-210.43564146628154,-102.81890304296448) scale(1,1) rotate(-2.614712638521011)" stroke-dashoffset="0" stroke-dasharray=""></polygon><polygon id="_unnamed_" points="-4,4 4,4 0,-8" fill="rgb(0,0,0)" fill-opacity="1" stroke="none" stroke-opacity="0" stroke-width="0" stroke-linecap="butt" stroke-linejoin="miter" opacity="1" transform="translate(113.67716243904609,-36.09820683748564) scale(1,1) rotate(-1.6333870678972375)" stroke-dashoffset="0" stroke-dasharray=""></polygon><polygon id="_unnamed_" points="-4,4 4,4 0,-8" fill="rgb(0,0,0)" fill-opacity="1" stroke="none" stroke-opacity="0" stroke-width="0" stroke-linecap="butt" stroke-linejoin="miter" opacity="1" transform="translate(91.12181994934681,-79.54747710358707) scale(1,1) rotate(53.09066899256178)" stroke-dashoffset="0" stroke-dasharray=""></polygon><polygon id="_unnamed_" points="-4,4 4,4 0,-8" fill="rgb(0,0,0)" fill-opacity="1" stroke="none" stroke-opacity="0" stroke-width="0" stroke-linecap="butt" stroke-linejoin="miter" opacity="1" transform="translate(35.53063379262386,-247.46202455469842) scale(1,1) rotate(-20.021810314422204)" stroke-dashoffset="0" stroke-dasharray=""></polygon><polygon id="_unnamed_" points="-4,4 4,4 0,-8" fill="rgb(0,0,0)" fill-opacity="1" stroke="none" stroke-opacity="0" stroke-width="0" stroke-linecap="butt" stroke-linejoin="miter" opacity="1" transform="translate(-26.87371960586963,-1.9103533172331955) scale(1,1) rotate(38.97588628166032)" stroke-dashoffset="0" stroke-dasharray=""></polygon><polygon id="_unnamed_" points="-4,4 4,4 0,-8" fill="rgb(0,0,0)" fill-opacity="1" stroke="none" stroke-opacity="0" stroke-width="0" stroke-linecap="butt" stroke-linejoin="miter" opacity="1" transform="translate(-87.88730519549227,-93.27406810055507) scale(1,1) rotate(64.68541260836545)" stroke-dashoffset="0" stroke-dasharray=""></polygon><polygon id="_unnamed_" points="-4,4 4,4 0,-8" fill="rgb(0,0,0)" fill-opacity="1" stroke="none" stroke-opacity="0" stroke-width="0" stroke-linecap="butt" stroke-linejoin="miter" opacity="1" transform="translate(-123.58953471954268,-192.60698174202395) scale(1,1) rotate(56.27159977103959)" stroke-dashoffset="0" stroke-dasharray=""></polygon><polygon id="_unnamed_" points="-4,4 4,4 0,-8" fill="rgb(0,0,0)" fill-opacity="1" stroke="none" stroke-opacity="0" stroke-width="0" stroke-linecap="butt" stroke-linejoin="miter" opacity="1" transform="translate(131.02043289991832,36.25099619082144) scale(1,1) rotate(43.96337130965935)" stroke-dashoffset="0" stroke-dasharray=""></polygon><polygon id="_unnamed_" points="-4,4 4,4 0,-8" fill="rgb(0,0,0)" fill-opacity="1" stroke="none" stroke-opacity="0" stroke-width="0" stroke-linecap="butt" stroke-linejoin="miter" opacity="1" transform="translate(98.46403338548775,-144.54253545439872) scale(1,1) rotate(80.02682536816187)" stroke-dashoffset="0" stroke-dasharray=""></polygon><polygon id="_unnamed_" points="-4,4 4,4 0,-8" fill="rgb(0,0,0)" fill-opacity="1" stroke="none" stroke-opacity="0" stroke-width="0" stroke-linecap="butt" stroke-linejoin="miter" opacity="1" transform="translate(83.14501503188652,233.28968902422258) scale(1,1) rotate(45.78325738685996)" stroke-dashoffset="0" stroke-dasharray=""></polygon><polygon id="_unnamed_" points="-4,4 4,4 0,-8" fill="rgb(0,0,0)" fill-opacity="1" stroke="none" stroke-opacity="0" stroke-width="0" stroke-linecap="butt" stroke-linejoin="miter" opacity="1" transform="translate(233.1533848594265,-165.7107501968436) scale(1,1) rotate(-9.738684030253946)" stroke-dashoffset="0" stroke-dasharray=""></polygon><polygon id="_unnamed_" points="-4,4 4,4 0,-8" fill="rgb(0,0,0)" fill-opacity="1" stroke="none" stroke-opacity="0" stroke-width="0" stroke-linecap="butt" stroke-linejoin="miter" opacity="1" transform="translate(-176.25483484408457,230.35488782170324) scale(1,1) rotate(59.01790288349347)" stroke-dashoffset="0" stroke-dasharray=""></polygon><polygon id="_unnamed_" points="-4,4 4,4 0,-8" fill="rgb(0,0,0)" fill-opacity="1" stroke="none" stroke-opacity="0" stroke-width="0" stroke-linecap="butt" stroke-linejoin="miter" opacity="1" transform="translate(192.15529180503376,89.98187861439244) scale(1,1) rotate(32.00311276651512)" stroke-dashoffset="0" stroke-dasharray=""></polygon><polygon id="_unnamed_" points="-4,4 4,4 0,-8" fill="rgb(0,0,0)" fill-opacity="1" stroke="none" stroke-opacity="0" stroke-width="0" stroke-linecap="butt" stroke-linejoin="miter" opacity="1" transform="translate(33.7222486659392,-192.84444463712325) scale(1,1) rotate(15.246890869874083)" stroke-dashoffset="0" stroke-dasharray=""></polygon><polygon id="_unnamed_" points="-4,4 4,4 0,-8" fill="rgb(0,0,0)" fill-opacity="1" stroke="none" stroke-opacity="0" stroke-width="0" stroke-linecap="butt" stroke-linejoin="miter" opacity="1" transform="translate(123.7097890741876,-159.8302239939944) scale(1,1) rotate(-36.15635519083921)" stroke-dashoffset="0" stroke-dasharray=""></polygon><polygon id="_unnamed_" points="-4,4 4,4 0,-8" fill="rgb(0,0,0)" fill-opacity="1" stroke="none" stroke-opacity="0" stroke-width="0" stroke-linecap="butt" stroke-linejoin="miter" opacity="1" transform="translate(-2.5140079445019428,-65.30894089270984) scale(1,1) rotate(-21.10606306229794)" stroke-dashoffset="0" stroke-dasharray=""></polygon><polygon id="_unnamed_" points="-4,4 4,4 0,-8" fill="rgb(0,0,0)" fill-opacity="1" stroke="none" stroke-opacity="0" stroke-width="0" stroke-linecap="butt" stroke-linejoin="miter" opacity="1" transform="translate(-45.93686914981732,189.82400382592706) scale(1,1) rotate(56.63540732097189)" stroke-dashoffset="0" stroke-dasharray=""></polygon><polygon id="_unnamed_" points="-4,4 4,4 0,-8" fill="rgb(0,0,0)" fill-opacity="1" stroke="none" stroke-opacity="0" stroke-width="0" stroke-linecap="butt" stroke-linejoin="miter" opacity="1" transform="translate(-233.35386176054885,201.69525582704026) scale(1,1) rotate(48.07778271953531)" stroke-dashoffset="0" stroke-dasharray=""></polygon><polygon id="_unnamed_" points="-4,4 4,4 0,-8" fill="rgb(0,0,0)" fill-opacity="1" stroke="none" stroke-opacity="0" stroke-width="0" stroke-linecap="butt" stroke-linejoin="miter" opacity="1" transform="translate(-33.01440293228137,-127.26463944873522) scale(1,1) rotate(95.44548802591714)" stroke-dashoffset="0" stroke-dasharray=""></polygon><polygon id="_unnamed_" points="-4,4 4,4 0,-8" fill="rgb(0,0,0)" fill-opacity="1" stroke="none" stroke-opacity="0" stroke-width="0" stroke-linecap="butt" stroke-linejoin="miter" opacity="1" transform="translate(-203.77171054818598,50.805641679564594) scale(1,1) rotate(18.16620885381986)" stroke-dashoffset="0" stroke-dasharray=""></polygon><polygon id="_unnamed_" points="-4,4 4,4 0,-8" fill="rgb(0,0,0)" fill-opacity="1" stroke="none" stroke-opacity="0" stroke-width="0" stroke-linecap="butt" stroke-linejoin="miter" opacity="1" transform="translate(-146.89043561394925,-17.59482988036587) scale(1,1) rotate(37.849301162179636)" stroke-dashoffset="0" stroke-dasharray=""></polygon></g></svg>